<svg id="Camada_1" data-name="Camada 1" xmlns="http://www.w3.org/2000/svg" viewBox="0 0 1024.5 576"><defs><style>.cls-1{fill:#fff;}</style></defs><title>0</title><path class="cls-1" d="M560.25,0h100.5c6.39,8.11,12.87,16.14,19.14,24.34C692.26,40.49,704.07,57,711.49,76.16c3.63,9.38,5.63,19,3.46,29.2-2.77,13-10.72,22.23-20.81,30-17.84,13.72-38.44,22.5-58.55,32.07-26.46,12.58-52.42,26-76.74,42.45C539,223.26,519.72,237.41,504,255.72c-7.88,9.17-14.12,19.27-16.52,31.35-2.64,13.27-.16,26,4.2,38.5,8.07,23.1,20,44.23,33.81,64.29C537,406.53,550,422,565.27,435.26c11.53,10,23,20.2,35.46,29.05,26.19,18.65,55.26,31.6,85.95,41.07,32.45,10,65.71,14.45,99.55,14.69,12.67.09,25.37-.83,38-1.67,16.35-1.07,32.67-2.66,49-3.75,15.64-1,31.29-2.38,46.94-2.42,22.8-.06,45.61.61,68.39,1.6,12,.52,23.93,2.4,35.89,3.67v53.25c-8.49-1.08-17-2.28-25.47-3.21-16.14-1.76-32.27-3.95-48.47-4.86-14.67-.82-29.43-.56-44.13-.07-13,.43-26,1.65-39,2.87-13.59,1.28-27.12,3.14-40.71,4.44-18.17,1.74-36.35,3.74-54.57,4.57a314.62,314.62,0,0,1-39.59-1,326.06,326.06,0,0,1-66.85-12.62c-36.15-10.78-70-26.48-99.82-49.65-25.12-19.53-48.93-40.74-73.48-61-13-10.76-26-21.73-39.7-31.53-21.78-15.53-46-20.4-72.36-14.17-18.34,4.34-35.33,12-52.12,20.15-15,7.33-29.78,15.11-44.76,22.49-19.25,9.48-38.9,17.91-60.12,22.07-13,2.55-25.91,3-38.79-.7-17.81-5.1-31.24-16.51-42.23-30.69-13.55-17.49-26-35.84-39.39-53.45-13.25-17.41-26.89-34.52-40.75-51.45-9.38-11.45-19.57-22.23-29.15-33.52C21.91,286.2,11,272.8,0,259.5q0-49.88,0-99.75c.18.16.43.29.54.49,15.08,29.27,35.23,54.82,57.95,78.44,7.78,8.09,15.91,15.87,24,23.65,7.28,7,14.64,13.89,22.14,20.64q24,21.59,48.16,43c12.66,11.25,25.72,22,40.27,30.79,15.41,9.32,31.83,15.19,50,15.42,19.56.24,37.59-5.52,54.82-14.07a231,231,0,0,0,43.94-28.84c12.66-10.41,24.54-21.54,33.13-35.72,6-9.84,9.43-20.47,8-32-1.63-13.56-7.15-25.86-14.11-37.48-17-28.33-38.52-53.15-60.31-77.75-13.37-15.1-27.14-29.85-40.58-44.9C252,83.35,235.55,65.61,220.23,47c-12.39-15.06-23.37-31.27-35-47h60A6.86,6.86,0,0,0,246,1.61c8.37,10.48,16.25,21.42,25.29,31.3,14.21,15.53,28.91,30.64,43.95,45.37,10.83,10.61,22.25,20.66,33.92,30.35C368,124.35,388,138.5,410.94,147.95c24.06,9.91,48.4,11.2,73.27,3.14C498.08,146.6,510.83,140,523,132.17c16.43-10.47,32-22,44.75-37,14.45-17,18.59-35.77,11.26-57.05C574.39,24.6,567.49,12.23,560.25,0Z"/><path d="M0,259.5c11,13.3,21.91,26.7,33.08,39.87,9.58,11.29,19.77,22.07,29.15,33.52,13.86,16.92,27.5,34,40.75,51.45,13.4,17.61,25.85,36,39.39,53.45,11,14.19,24.42,25.6,42.23,30.69,12.88,3.69,25.79,3.24,38.79.7,21.22-4.16,40.87-12.59,60.12-22.07,15-7.38,29.76-15.17,44.76-22.49,16.78-8.2,33.77-15.81,52.12-20.15,26.37-6.23,50.58-1.37,72.36,14.17,13.74,9.8,26.67,20.77,39.7,31.53,24.55,20.28,48.36,41.48,73.48,61,29.8,23.17,63.67,38.88,99.82,49.65a326.06,326.06,0,0,0,66.85,12.62,314.62,314.62,0,0,0,39.59,1c18.22-.82,36.4-2.83,54.57-4.57,13.59-1.3,27.12-3.16,40.71-4.44,13-1.22,26-2.44,39-2.87,14.7-.49,29.46-.75,44.13.07,16.2.91,32.33,3.1,48.47,4.86,8.51.93,17,2.13,25.47,3.21V576H555.75a9.17,9.17,0,0,0-1-1q-28.75-22.25-57.52-44.5c-20.84-16.19-41.28-33-65.4-44.33a100.91,100.91,0,0,0-36.46-9.91c-16.14-1.08-31.68,2.09-46.82,7.55-19.43,7-37.29,17.15-55.25,27.12-23.49,13-46.83,26.39-70.57,39a259.93,259.93,0,0,1-58.61,22c-5.46,1.37-10.92,2.77-16.38,4.16H0V558.75c1.12,0,2.25,0,3.37,0,8.64.5,17.28,1.53,25.91,1.4,9.22-.14,16.6-4.43,20.66-13a57.65,57.65,0,0,0,4.14-12.36c3.51-16.34,3.31-32.85,1.77-49.41a232.73,232.73,0,0,0-13.1-57.68c-9-25-22.14-47.83-36.6-70-1.87-2.86-4.09-5.49-6.15-8.23Q0,304.5,0,259.5Z"/><path class="cls-1" d="M1024.5,387.75V445.5c-11.59-1.15-23.15-2.85-34.77-3.29-10.29-.38-20.64.54-31,1.08-5.83.31-11.65.89-17.45,1.56-12.2,1.4-24.36,3.11-36.57,4.38-14.2,1.47-28.43,2.79-42.67,3.84-15.24,1.13-30.51,2.05-45.78,2.7-6.83.29-13.7-.22-20.54-.57-8.07-.41-16.15-.84-24.19-1.58a277.24,277.24,0,0,1-83.67-20.86c-26.77-11.4-51.12-26.31-69.71-49.26-11.78-14.54-18.79-31.11-19.17-50-.46-23,9-42.05,24.53-58.32,17.25-18.1,38.47-30.5,61.47-39.49s46.65-16.63,70-24.89c16.11-5.7,32.14-11.57,46.23-21.57,19.93-14.15,27.82-33.31,24.08-57.44-2.13-13.72-7.2-26.39-13.57-38.55-13.64-26-31.31-49.33-49.4-72.34C756.92,14,751.62,7,746.25,0h43.5a28.42,28.42,0,0,0,1.65,2.84c11.87,16,24,31.8,35.6,48,17.64,24.51,33.86,49.9,45.53,77.9,8,19.23,13.38,39.09,12.66,60.19a70.1,70.1,0,0,1-5,24.68c-6.78,16.38-19.44,26.79-35.56,32.6-14.45,5.21-29.35,9.29-44.23,13.18-22.5,5.87-45.31,10.65-66.8,19.89-16.32,7-31.35,15.82-42.75,29.88-6.58,8.12-10.45,17.5-10.34,27.81.13,12.26,6,22.52,14.63,30.93C705.48,378,718,385,731.34,390.44c21.32,8.68,43.66,13,66.48,14.11a357.42,357.42,0,0,0,45.83-1.26c23.85-2,47-7.87,70.11-13.94,22.55-5.92,45.21-11.31,68.83-10A152.51,152.51,0,0,1,1024.5,387.75Z"/><path d="M1024.5,387.75a152.51,152.51,0,0,0-41.92-8.36c-23.62-1.35-46.28,4-68.83,10-23.1,6.07-46.26,12-70.11,13.94a357.42,357.42,0,0,1-45.83,1.26c-22.81-1.07-45.16-5.43-66.48-14.11C718,385,705.48,378,695.1,367.88c-8.61-8.42-14.5-18.67-14.63-30.93-.11-10.3,3.76-19.69,10.34-27.81,11.4-14.06,26.43-22.87,42.75-29.88,21.5-9.24,44.3-14,66.8-19.89,14.88-3.88,29.78-8,44.23-13.18,16.12-5.81,28.77-16.22,35.56-32.6a70.1,70.1,0,0,0,5-24.68c.72-21.1-4.65-41-12.66-60.19-11.67-28-27.89-53.39-45.53-77.9-11.63-16.16-23.73-32-35.6-48A28.42,28.42,0,0,1,789.75,0H817.5a41.79,41.79,0,0,0,2.17,3.8C834.11,24.06,848.92,44.08,863,64.62c17.39,25.43,33.24,51.83,45.59,80.12,5.62,12.88,11.13,25.94,15.1,39.39,6.65,22.51,12.17,45.36,17.91,68.13,5.24,20.78,14.57,39,32.27,51.85,12.18,8.84,24.78,17.1,37.29,25.46,4.3,2.88,8.91,5.3,13.38,7.92Z"/><path d="M1024.5,517.5c-12-1.27-23.89-3.14-35.89-3.67-22.78-1-45.59-1.66-68.39-1.6-15.65,0-31.31,1.38-46.94,2.42-16.35,1.09-32.67,2.68-49,3.75-12.66.83-25.36,1.76-38,1.67-33.84-.24-67.1-4.67-99.55-14.69C656,495.91,626.92,483,600.74,464.31c-12.42-8.85-23.93-19-35.46-29.05C550,422,537,406.53,525.47,389.87c-13.83-20.06-25.74-41.19-33.81-64.29-4.36-12.48-6.84-25.24-4.2-38.5,2.4-12.08,8.65-22.18,16.52-31.35,15.73-18.31,35-32.46,54.84-45.85,24.32-16.41,50.28-29.87,76.74-42.45,20.12-9.57,40.71-18.35,58.55-32.07,10.09-7.76,18-17,20.81-30,2.18-10.2.17-19.82-3.46-29.2C704.07,57,692.26,40.49,679.9,24.34,673.62,16.14,667.14,8.11,660.75,0H708c7.49,9.28,15.09,18.47,22.43,27.87,14.66,18.77,28.9,37.84,38.91,59.64,4.44,9.66,7.86,19.69,8.3,30.41.72,17.5-7.26,31-20.52,41.53-16.63,13.21-36.43,20.31-55.85,28.12-18.59,7.48-37.33,14.63-55.57,22.9-22.43,10.17-43.41,22.79-61.6,39.76-10.6,9.89-19.72,20.86-26,33.86-10.59,21.84-10.58,44.47-3.63,67.35,8.66,28.48,26.21,50.95,48.16,70.27a230.54,230.54,0,0,0,48.34,32.19,311.31,311.31,0,0,0,50.7,20,325.52,325.52,0,0,0,92.18,13.67c18.4.16,36.83-1.21,55.23-2.13,13.91-.69,27.81-1.68,41.7-2.66,15-1.05,30-2.49,45-3.3,10.34-.56,20.72-.28,31.08-.47a348.77,348.77,0,0,1,57.7,3.26Z"/><path d="M185.25,0c11.61,15.7,22.59,31.92,35,47C235.55,65.61,252,83.35,268,101.35c13.44,15,27.2,29.8,40.58,44.9,21.78,24.6,43.33,49.42,60.31,77.75,7,11.62,12.48,23.92,14.11,37.48,1.38,11.54-2.1,22.17-8,32-8.58,14.18-20.47,25.31-33.13,35.72a231,231,0,0,1-43.94,28.84c-17.23,8.56-35.26,14.32-54.82,14.07-18.22-.23-34.63-6.1-50-15.42-14.55-8.8-27.61-19.53-40.27-30.79q-24.12-21.44-48.16-43c-7.5-6.75-14.86-13.65-22.14-20.64-8.1-7.78-16.23-15.55-24-23.65C35.77,215.06,15.62,189.51.54,160.24c-.1-.2-.35-.33-.54-.49Q0,116.63,0,73.5c.92,3,1.91,6.07,2.76,9.14a259.76,259.76,0,0,0,38.72,81.25,350.25,350.25,0,0,0,56.09,61.86c16.67,14.54,33.48,28.94,50.76,42.74,19.07,15.24,38.7,29.81,61.28,39.71,14.61,6.41,29.79,10,45.82,7.77a70.57,70.57,0,0,0,40.42-20.2c9.82-9.66,16.63-21.2,19-34.86,2.89-16.56-.21-32.45-6.67-47.79a226.82,226.82,0,0,0-30.82-51.48c-12.86-16.46-26.36-32.42-39.77-48.43-13.89-16.59-28.17-32.86-42-49.51C178.93,43.55,163.31,22.59,150,0Z"/><path d="M560.25,0c7.24,12.23,14.14,24.6,18.8,38.14,7.33,21.28,3.19,40.09-11.26,57.05-12.76,15-28.32,26.51-44.75,37-12.2,7.78-25,14.42-38.82,18.92-24.87,8.06-49.21,6.77-73.27-3.14C388,138.5,368,124.35,349.12,108.64,337.45,98.94,326,88.89,315.2,78.28c-15-14.73-29.74-29.84-43.95-45.37-9-9.88-16.91-20.82-25.29-31.3A6.86,6.86,0,0,1,245.25,0H313.5c1.07,1.36,2,2.82,3.23,4.07,16.79,17.64,34.74,33.91,56,46,14.59,8.3,29.72,14.68,47.13,14.6,18.66-.08,34.36-12.52,37.66-31.63,2-11.36-.1-22.23-3.05-33.07Z"/><path class="cls-1" d="M23.25,0h87c.06.48,0,1.06.22,1.42,11.71,17.76,22.59,36.15,35.39,53.09,19.92,26.37,41.19,51.72,61.82,77.55,13,16.26,25.33,33,34.63,51.7,6.09,12.25,10.85,24.93,10.21,38.9-.54,11.77-5.28,21.15-16.67,26.11-8.68,3.78-17.56,2.83-26.31.53-16.74-4.4-31.44-13.09-45.62-22.63-24.33-16.38-47.07-34.74-67.11-56.22a395.48,395.48,0,0,1-26.54-30.8A231.78,231.78,0,0,1,29.61,55C25.13,36.95,22.57,18.65,23.25,0Z"/><path d="M746.25,0c5.37,7,10.67,14,16.11,20.9,18.1,23,35.77,46.31,49.4,72.34,6.37,12.17,11.44,24.83,13.57,38.55,3.75,24.13-4.14,43.29-24.08,57.44-14.09,10-30.13,15.88-46.23,21.57-23.35,8.26-46.94,15.88-70,24.89s-44.22,21.38-61.47,39.49c-15.5,16.26-25,35.34-24.53,58.32.38,18.88,7.39,35.45,19.17,50,18.59,22.95,42.94,37.86,69.71,49.26a277.24,277.24,0,0,0,83.67,20.86c8,.74,16.12,1.17,24.19,1.58,6.84.34,13.71.86,20.54.57,15.27-.64,30.54-1.57,45.78-2.7,14.24-1.05,28.46-2.37,42.67-3.84,12.21-1.27,24.37-3,36.57-4.38,5.8-.67,11.62-1.25,17.45-1.56,10.31-.54,20.66-1.47,31-1.08,11.61.43,23.18,2.14,34.77,3.29V471c-8.39-.86-16.77-2.18-25.18-2.47-14.92-.51-29.87-.86-44.78-.39s-29.51,2-44.26,3.1c-12.64.92-25.29,1.79-37.93,2.76-11.88.9-23.74,2.29-35.64,2.75-14.56.56-29.17.85-43.73.38-13.63-.44-27.29-1.54-40.82-3.23a289.73,289.73,0,0,1-84-23.88c-29.67-13.44-56.32-31.06-76.84-56.72-18-22.51-28.15-47.8-25.14-77.34a81.7,81.7,0,0,1,10.53-32.39c10.58-18.64,26.07-32.5,43.57-44.32,16.9-11.42,35.15-20.3,54.09-27.73,22.6-8.88,45.41-17.24,68-26.21,14.08-5.6,27.35-12.79,37.92-24,11.72-12.46,15.8-27.21,12.9-44-2.73-15.88-9.68-30-17.83-43.66C761.39,50.21,744.4,29,727.2,8c-2.08-2.54-3.81-5.36-5.7-8Z"/><path d="M23.25,0c-.68,18.65,1.88,36.95,6.35,55a231.78,231.78,0,0,0,40.65,84.67,395.48,395.48,0,0,0,26.54,30.8c20,21.48,42.78,39.84,67.11,56.22,14.18,9.55,28.89,18.24,45.62,22.63,8.75,2.3,17.63,3.25,26.31-.53,11.39-5,16.12-14.34,16.67-26.11.64-14-4.12-26.65-10.21-38.9-9.31-18.73-21.65-35.44-34.63-51.7C187,106.23,165.78,80.88,145.86,54.51c-12.8-16.94-23.68-35.33-35.39-53.09-.24-.36-.15-.94-.22-1.42H138c.9,1.34,1.81,2.68,2.7,4C148,15,155,26.26,162.63,37c21.78,30.67,47.15,58.45,71.24,87.25,17.41,20.81,34.54,41.86,47.68,65.72,9.61,17.46,17,35.64,15.72,56.3-.84,13.67-5.65,25.53-15.15,35.19-14.32,14.57-32,18.78-51.81,15.49-15.5-2.57-29.33-9.35-42.63-17.29-25.3-15.1-48.31-33.33-70.67-52.41-18.32-15.63-35.71-32.18-51.35-50.55C42.88,150,25.24,120.36,14.24,86.91A260,260,0,0,1,.75,0Z"/><path class="cls-1" d="M1024.5,337.5c-4.47-2.63-9.08-5-13.38-7.92-12.51-8.37-25.11-16.63-37.29-25.46-17.7-12.84-27-31.07-32.27-51.85-5.75-22.77-11.26-45.62-17.91-68.13-4-13.45-9.48-26.51-15.1-39.39C896.2,116.44,880.34,90,863,64.62c-14-20.54-28.85-40.55-43.29-60.82A41.79,41.79,0,0,1,817.5,0h39a10.61,10.61,0,0,0,.9,2.33c6.92,10,14,20,20.8,30.1,17.44,26.06,35.21,51.91,52,78.41,16.22,25.66,31.39,52,46.94,78.06,14.23,23.87,29.38,47.1,47.4,68.35Z"/><path d="M513.75,576H222c2.14-1.26,4.25-2.56,6.42-3.78q35.83-20.15,71.68-40.27c17.29-9.69,34.93-18.6,54.08-24.13a103.08,103.08,0,0,1,44.33-3.23c19.79,3,37.31,11.68,53.33,23.05C469,539.79,485.34,553,502,565.9,506,569.06,509.83,572.62,513.75,576Z"/><path class="cls-1" d="M721.5,0c1.89,2.69,3.62,5.51,5.7,8,17.2,21,34.19,42.16,48.16,65.52,8.15,13.62,15.09,27.78,17.83,43.66,2.9,16.83-1.18,31.58-12.9,44-10.56,11.23-23.84,18.42-37.92,24-22.56,9-45.37,17.33-68,26.21-18.93,7.44-37.19,16.31-54.09,27.73-17.5,11.82-33,25.68-43.57,44.32a81.7,81.7,0,0,0-10.53,32.39c-3,29.54,7.14,54.83,25.14,77.34,20.52,25.66,47.17,43.28,76.84,56.72a289.73,289.73,0,0,0,84,23.88c13.53,1.69,27.19,2.79,40.82,3.23,14.56.47,29.16.18,43.73-.38,11.9-.46,23.76-1.84,35.64-2.75,12.64-1,25.29-1.84,37.93-2.76,14.75-1.07,29.49-2.63,44.26-3.1s29.86-.12,44.78.39c8.41.29,16.79,1.61,25.18,2.47v11.25A348.77,348.77,0,0,0,966.8,479c-10.36.2-20.74-.09-31.08.47-15,.81-30,2.25-45,3.3-13.89,1-27.79,2-41.7,2.66-18.4.91-36.83,2.29-55.23,2.13a325.52,325.52,0,0,1-92.18-13.67,311.31,311.31,0,0,1-50.7-20,230.54,230.54,0,0,1-48.34-32.19c-21.95-19.32-39.5-41.79-48.16-70.27-7-22.87-7-45.51,3.63-67.35,6.3-13,15.42-24,26-33.86,18.19-17,39.17-29.59,61.6-39.76,18.24-8.27,37-15.42,55.57-22.9,19.41-7.81,39.21-14.91,55.85-28.12,13.26-10.54,21.24-24,20.52-41.53-.44-10.71-3.86-20.75-8.3-30.41-10-21.8-24.25-40.87-38.91-59.64C723.09,18.47,715.49,9.28,708,0Z"/><path class="cls-1" d="M.75,0A260,260,0,0,0,14.24,86.91c11,33.45,28.64,63.07,51.41,89.81,15.64,18.37,33,34.92,51.35,50.55,22.37,19.08,45.38,37.31,70.67,52.41,13.3,7.94,27.13,14.72,42.63,17.29,19.8,3.29,37.49-.93,51.81-15.49,9.5-9.66,14.32-21.53,15.15-35.19,1.27-20.66-6.11-38.84-15.72-56.3-13.14-23.86-30.27-44.91-47.68-65.72-24.1-28.8-49.46-56.58-71.24-87.25C155,26.26,148,15,140.7,4c-.89-1.35-1.8-2.69-2.7-4h12c13.31,22.59,28.93,43.55,45.62,63.69,13.81,16.66,28.09,32.92,42,49.51,13.41,16,26.91,32,39.77,48.43a226.82,226.82,0,0,1,30.82,51.48c6.46,15.33,9.56,31.23,6.67,47.79-2.38,13.66-9.19,25.19-19,34.86A70.57,70.57,0,0,1,255.43,316c-16,2.26-31.22-1.36-45.82-7.77-22.57-9.9-42.21-24.47-61.28-39.71-17.27-13.8-34.09-28.2-50.76-42.74a350.25,350.25,0,0,1-56.09-61.86A259.76,259.76,0,0,1,2.76,82.64C1.91,79.57.92,76.54,0,73.5Q0,38.24,0,3A13,13,0,0,1,.75,0Z"/><path class="cls-1" d="M513.75,576c-3.92-3.38-7.7-6.94-11.79-10.1-16.62-12.87-33-26.11-50.11-38.26-16-11.37-33.54-20.08-53.33-23.05a103.08,103.08,0,0,0-44.33,3.23c-19.15,5.53-36.79,14.44-54.08,24.13q-35.86,20.1-71.68,40.27c-2.16,1.22-4.28,2.52-6.42,3.78H147.75c5.46-1.39,10.92-2.79,16.38-4.16a259.93,259.93,0,0,0,58.61-22c23.74-12.57,47.08-25.91,70.57-39,18-10,35.83-20.13,55.25-27.12,15.14-5.46,30.68-8.63,46.82-7.55a100.91,100.91,0,0,1,36.46,9.91c24.12,11.37,44.55,28.14,65.4,44.33Q526,552.78,554.77,575a9.17,9.17,0,0,1,1,1Z"/><path class="cls-1" d="M0,349.5c2.06,2.74,4.28,5.37,6.15,8.23,14.46,22.14,27.57,45,36.6,70a232.73,232.73,0,0,1,13.1,57.68c1.54,16.56,1.74,33.07-1.77,49.41a57.65,57.65,0,0,1-4.14,12.36c-4.06,8.61-11.44,12.9-20.66,13-8.63.13-17.27-.9-25.91-1.4-1.12-.07-2.24,0-3.37,0q0-24,0-48a70.92,70.92,0,0,0,6-6c8.65-10.91,11.48-23.77,11.94-37.3a113.41,113.41,0,0,0-5.16-38.94C9.1,417,4.31,405.82,0,394.5Q0,372,0,349.5Z"/><path class="cls-1" d="M923.25,0h90l11.25,15V141c-3-3.91-6.19-7.74-9.1-11.74-18.58-25.58-37.23-51.12-55.61-76.85C947.4,35.09,935.41,17.48,923.25,0Z"/><path d="M923.25,0c12.16,17.48,24.15,35.09,36.53,52.41,18.39,25.73,37,51.26,55.61,76.85,2.91,4,6.06,7.83,9.1,11.74v58.5a35.2,35.2,0,0,1-2.89-3.25q-29.7-42.79-59.33-85.64Q924.29,55.38,886.5,0Z"/><path class="cls-1" d="M454.5,0c3,10.84,5,21.71,3.05,33.07-3.3,19.11-19,31.55-37.66,31.63-17.42.08-32.55-6.31-47.13-14.6-21.29-12.11-39.25-28.38-56-46-1.19-1.25-2.16-2.71-3.23-4.07Z"/><path d="M1024.5,257.25c-18-21.25-33.16-44.48-47.4-68.35-15.55-26.08-30.72-52.4-46.94-78.06-16.75-26.49-34.52-52.35-52-78.41-6.78-10.13-13.88-20.06-20.8-30.1A10.61,10.61,0,0,1,856.5,0h20.25a10.2,10.2,0,0,0,.75,1.67q15.19,22.39,30.42,44.76c13.81,20.24,27.81,40.36,41.45,60.72,19.81,29.56,39.3,59.35,59.12,88.91,5,7.4,10.65,14.31,16,21.44Z"/><path class="cls-1" d="M1024.5,217.5c-5.36-7.13-11.05-14-16-21.44-19.82-29.56-39.3-59.35-59.12-88.91-13.64-20.36-27.64-40.48-41.45-60.72Q892.67,24.08,877.5,1.67A10.2,10.2,0,0,1,876.75,0h9.75q37.88,55.31,75.78,110.61,29.52,42.92,59.33,85.64a35.2,35.2,0,0,0,2.89,3.25Z"/><path d="M0,394.5c4.31,11.32,9.1,22.48,12.82,34A113.41,113.41,0,0,1,18,467.42c-.46,13.52-3.3,26.39-11.94,37.3a70.92,70.92,0,0,1-6,6Q0,452.62,0,394.5Z"/><path d="M1024.5,15,1013.25,0h11.25Z"/></svg>