<svg id="Camada_1" data-name="Camada 1" xmlns="http://www.w3.org/2000/svg" viewBox="0 0 235.09 94.08"><defs><style>.cls-1{fill:#fff;}.cls-2{fill:none;stroke:#fff;}</style></defs><title>AVATAR</title><path class="cls-1" d="M87.29,7.16l-6,19.94H72.85L66.66,7.16H71.5l5.63,19.29L82.59,7.16Z" transform="translate(-8.98 -1)"/><path class="cls-1" d="M98.94,22.92V27.1H89.25V22.92h2.63V11.33H89.36V7.16h9.46v4.17H96.33V22.92ZM90.34,3.44,97.15,1l.78,2.21-6.8,2.46Z" transform="translate(-8.98 -1)"/><path class="cls-1" d="M116.77,8.41a9.49,9.49,0,0,1,5.32,8.72,9.48,9.48,0,0,1-5.32,8.72,11.92,11.92,0,0,1-5.46,1.25H103V7.16h8.34A11.93,11.93,0,0,1,116.77,8.41ZM114.42,22.2a5.43,5.43,0,0,0,2.2-2.06,5.73,5.73,0,0,0,.8-3,5.72,5.72,0,0,0-.8-3,5.47,5.47,0,0,0-2.2-2,6.64,6.64,0,0,0-3.11-.73h-3.89V22.92h3.89A6.64,6.64,0,0,0,114.42,22.2Z" transform="translate(-8.98 -1)"/><path class="cls-1" d="M130.06,11.22V15h11.06v4.06H130.06V23h11.48V27.1H125.61V7.16h15.93v4.06Z" transform="translate(-8.98 -1)"/><path class="cls-1" d="M149.53,26.07a9.27,9.27,0,0,1-3.68-3.64,10.62,10.62,0,0,1-1.32-5.31,10.62,10.62,0,0,1,1.32-5.31,9.27,9.27,0,0,1,3.68-3.64,11.75,11.75,0,0,1,10.75,0A9.28,9.28,0,0,1,164,11.82a10.63,10.63,0,0,1,1.32,5.31A10.63,10.63,0,0,1,164,22.43a9.28,9.28,0,0,1-3.68,3.64,11.75,11.75,0,0,1-10.75,0Zm8.36-3.78a5.31,5.31,0,0,0,2-2.13,6.43,6.43,0,0,0,.71-3,6.43,6.43,0,0,0-.71-3,5.31,5.31,0,0,0-2-2.13,6.19,6.19,0,0,0-6,0,5.18,5.18,0,0,0-2,2.13,6.53,6.53,0,0,0-.7,3,6.53,6.53,0,0,0,.7,3,5.18,5.18,0,0,0,2,2.13,6.19,6.19,0,0,0,6,0Z" transform="translate(-8.98 -1)"/><path class="cls-2" d="M181.83,19v.36a3.53,3.53,0,0,0,1.12,2.79,4.48,4.48,0,0,0,3.08,1v4.2a5.08,5.08,0,0,1-3.54-1.13,5.53,5.53,0,0,1-1.61-3.29,6.64,6.64,0,0,1-2.42,3.21,7.19,7.19,0,0,1-4.33,1.25,7.36,7.36,0,0,1-3.39-.76,5.62,5.62,0,0,1-2.31-2.11,5.89,5.89,0,0,1-.83-3.12,4.55,4.55,0,0,1,.78-2.63A5.21,5.21,0,0,1,170.57,17a5.09,5.09,0,0,1-2-1.82,4.91,4.91,0,0,1,.29-5.53,6.44,6.44,0,0,1,2.84-2A11.64,11.64,0,0,1,176,6.88a17.79,17.79,0,0,1,5.57.76V12a15.42,15.42,0,0,0-2.8-.67,19.54,19.54,0,0,0-2.86-.22,4.43,4.43,0,0,0-2.41.59,1.74,1.74,0,0,0-.92,1.51,1.7,1.7,0,0,0,.67,1.4,2.9,2.9,0,0,0,1.85.53H186V19Zm-1.12,0H174.8a2.8,2.8,0,0,0-1.85.56,1.75,1.75,0,0,0-.67,1.4,1.85,1.85,0,0,0,.9,1.61,4.2,4.2,0,0,0,2.38.6,7.36,7.36,0,0,0,2.49-.42A4.43,4.43,0,0,0,180,21.47a3.12,3.12,0,0,0,.74-2.1Z" transform="translate(-8.98 -1)"/><path class="cls-1" d="M71.89,42a9.74,9.74,0,0,1,0,17.44,11.92,11.92,0,0,1-5.46,1.25H58.09V40.76h8.34A11.93,11.93,0,0,1,71.89,42ZM69.54,55.79a5.43,5.43,0,0,0,2.2-2.06,6.1,6.1,0,0,0,0-6,5.47,5.47,0,0,0-2.2-2,6.64,6.64,0,0,0-3.11-.73H62.54V56.52h3.89A6.62,6.62,0,0,0,69.54,55.79Z" transform="translate(-8.98 -1)"/><path class="cls-1" d="M85.18,44.82v3.81H96.24v4.06H85.18v3.95H96.66V60.7H80.73V40.76H96.66v4.06Z" transform="translate(-8.98 -1)"/><path class="cls-1" d="M103.7,60.54a12.15,12.15,0,0,1-3.64-1.3V54.73a13.3,13.3,0,0,0,4,1.54,19.55,19.55,0,0,0,4.38.53,8.8,8.8,0,0,0,3.49-.49q1-.49,1-1.22a1.19,1.19,0,0,0-.56-1,4.66,4.66,0,0,0-1.4-.63q-.84-.24-2.44-.6a39,39,0,0,1-4.21-1.13,7.38,7.38,0,0,1-2.88-1.81,4.46,4.46,0,0,1-1.22-3.28,5.48,5.48,0,0,1,.9-3A6.29,6.29,0,0,1,104,41.35a13.58,13.58,0,0,1,5.28-.87,25.82,25.82,0,0,1,3.63.25,13.77,13.77,0,0,1,3.07.76v4.56a13.06,13.06,0,0,0-3.3-1,20.4,20.4,0,0,0-3.89-.39,7.49,7.49,0,0,0-3.09.45q-.88.45-.88,1.12t1,1.2a19.91,19.91,0,0,0,3.22.87,37,37,0,0,1,4.27,1.11,7.44,7.44,0,0,1,2.94,1.83,4.57,4.57,0,0,1,1.25,3.36,5.59,5.59,0,0,1-1,3.32,6.68,6.68,0,0,1-3.16,2.27A15,15,0,0,1,108,61,21.4,21.4,0,0,1,103.7,60.54Z" transform="translate(-8.98 -1)"/><path class="cls-1" d="M129.47,56.52V60.7h-9.69V56.52h2.63V44.93H119.9V40.76h9.46v4.17h-2.49V56.52Z" transform="translate(-8.98 -1)"/><path class="cls-1" d="M151.29,48.77v9a7.72,7.72,0,0,1-3.51,2.39A13.56,13.56,0,0,1,143,61a12.71,12.71,0,0,1-5.89-1.33,10.06,10.06,0,0,1-4-3.67,9.72,9.72,0,0,1-1.46-5.25,9.57,9.57,0,0,1,1.5-5.28,10.12,10.12,0,0,1,4.2-3.65,13.86,13.86,0,0,1,6.15-1.32,19.12,19.12,0,0,1,6.66,1v4.68a11.6,11.6,0,0,0-3.15-1,18.35,18.35,0,0,0-3.37-.32,9.13,9.13,0,0,0-3.89.77,5.94,5.94,0,0,0-2.53,2.11,5.44,5.44,0,0,0-.88,3.05,5.52,5.52,0,0,0,.85,3,5.92,5.92,0,0,0,2.42,2.13,8,8,0,0,0,3.64.78,8.54,8.54,0,0,0,7.53-3.84h-8.57V48.77Z" transform="translate(-8.98 -1)"/><path class="cls-1" d="M175,40.76V60.7H166.2L160,41.4V60.7h-4.28V40.76h8.85l6.1,19.29V40.76Z" transform="translate(-8.98 -1)"/><path class="cls-2" d="M192.95,52.6V53a3.53,3.53,0,0,0,1.12,2.79,4.48,4.48,0,0,0,3.08,1v4.2a5.08,5.08,0,0,1-3.54-1.13A5.53,5.53,0,0,1,192,56.52a6.64,6.64,0,0,1-2.42,3.21A7.19,7.19,0,0,1,185.25,61a7.36,7.36,0,0,1-3.39-.76,5.64,5.64,0,0,1-2.31-2.11,5.89,5.89,0,0,1-.83-3.12,4.56,4.56,0,0,1,.78-2.63,5.2,5.2,0,0,1,2.18-1.79,5.09,5.09,0,0,1-2-1.82,4.91,4.91,0,0,1,.29-5.53,6.44,6.44,0,0,1,2.84-2,11.64,11.64,0,0,1,4.24-.71,17.79,17.79,0,0,1,5.57.76v4.34a15.42,15.42,0,0,0-2.8-.67,19.53,19.53,0,0,0-2.86-.22,4.43,4.43,0,0,0-2.41.59,1.75,1.75,0,0,0-.92,1.51,1.7,1.7,0,0,0,.67,1.4,2.9,2.9,0,0,0,1.85.53h10.95V52.6Zm-1.12,0h-5.91a2.8,2.8,0,0,0-1.85.56,1.75,1.75,0,0,0-.67,1.4,1.85,1.85,0,0,0,.9,1.61,4.19,4.19,0,0,0,2.38.6,7.35,7.35,0,0,0,2.49-.42,4.42,4.42,0,0,0,1.92-1.29,3.12,3.12,0,0,0,.74-2.1Z" transform="translate(-8.98 -1)"/><path class="cls-1" d="M14.65,93.33a10,10,0,0,1-4.14-3.57,10.39,10.39,0,0,1,0-10.86,10,10,0,0,1,4.19-3.57,13.59,13.59,0,0,1,5.87-1.25,14.66,14.66,0,0,1,3.22.36,13.53,13.53,0,0,1,3,1v4.68a11.15,11.15,0,0,0-6.22-1.76,8.38,8.38,0,0,0-3.49.71,5.92,5.92,0,0,0-2.51,2.06,5.44,5.44,0,0,0-.92,3.16,5.51,5.51,0,0,0,.91,3.16A5.84,5.84,0,0,0,17,89.55a8.34,8.34,0,0,0,3.5.71,14.48,14.48,0,0,0,6.24-1.57v4.68a16.34,16.34,0,0,1-6.36,1.2A13.27,13.27,0,0,1,14.65,93.33Z" transform="translate(-8.98 -1)"/><path class="cls-1" d="M42.58,94.3l-7.45-7.17V94.3H30.68V74.36H41.15a7.4,7.4,0,0,1,3.64.88,6.28,6.28,0,0,1,2.48,2.44,6.93,6.93,0,0,1,.88,3.49,6.62,6.62,0,0,1-.84,3.35A6,6,0,0,1,45,86.81a6.85,6.85,0,0,1-3.39.83l7.53,6.66ZM35.13,78.42V84H40.7a2.77,2.77,0,1,0,0-5.54Z" transform="translate(-8.98 -1)"/><path class="cls-1" d="M60.87,90.12V94.3H51.18V90.12h2.63V78.53H51.29V74.36h9.46v4.17H58.27V90.12Z" transform="translate(-8.98 -1)"/><path class="cls-1" d="M78.69,90.29H68.84l-1.29,4H62.9l6.8-19.94H78L84.85,94.3H80Zm-1.32-4.06L73.76,75,70.15,86.23Z" transform="translate(-8.98 -1)"/><path class="cls-1" d="M101.6,78.53h-6.8V94.3H90.34V78.53H83.51V74.36H101.6Z" transform="translate(-8.98 -1)"/><path class="cls-1" d="M113.3,90.12V94.3h-9.69V90.12h2.63V78.53h-2.52V74.36h9.46v4.17h-2.49V90.12Z" transform="translate(-8.98 -1)"/><path class="cls-1" d="M135.89,74.36l-6,19.94h-8.48l-6.19-19.94h4.84l5.63,19.29,5.46-19.29Z" transform="translate(-8.98 -1)"/><path class="cls-1" d="M147.54,90.12V94.3h-9.69V90.12h2.63V78.53H138V74.36h9.46v4.17h-2.49V90.12Z" transform="translate(-8.98 -1)"/><path class="cls-1" d="M165.37,75.61a9.74,9.74,0,0,1,0,17.44,11.92,11.92,0,0,1-5.46,1.25h-8.34V74.36h8.34A11.93,11.93,0,0,1,165.37,75.61ZM163,89.4a5.42,5.42,0,0,0,2.2-2.06,6.1,6.1,0,0,0,0-6,5.46,5.46,0,0,0-2.2-2,6.64,6.64,0,0,0-3.11-.73H156V90.12h3.89A6.63,6.63,0,0,0,163,89.4Z" transform="translate(-8.98 -1)"/><path class="cls-1" d="M187,90.29h-9.86l-1.29,4h-4.65L178,74.36h8.32l6.83,19.94h-4.87Zm-1.32-4.06L182,75l-3.61,11.23Z" transform="translate(-8.98 -1)"/><path class="cls-1" d="M209.49,75.61a9.74,9.74,0,0,1,0,17.44A11.92,11.92,0,0,1,204,94.3h-8.34V74.36H204A11.93,11.93,0,0,1,209.49,75.61ZM207.14,89.4a5.43,5.43,0,0,0,2.2-2.06,6.1,6.1,0,0,0,0-6,5.47,5.47,0,0,0-2.2-2,6.64,6.64,0,0,0-3.11-.73h-3.89V90.12H204A6.62,6.62,0,0,0,207.14,89.4Z" transform="translate(-8.98 -1)"/><path class="cls-1" d="M222.78,78.42v3.81h11.06v4.06H222.78v3.95h11.48V94.3H218.33V74.36h15.93v4.06Z" transform="translate(-8.98 -1)"/><path class="cls-2" d="M239.2,93.83a2.57,2.57,0,0,1,0-3.63,2.52,2.52,0,0,1,1.83-.73,2.47,2.47,0,0,1,1.79.74,2.54,2.54,0,0,1,0,3.61,2.47,2.47,0,0,1-1.79.74A2.51,2.51,0,0,1,239.2,93.83Z" transform="translate(-8.98 -1)"/></svg>