<?xml version="1.0" encoding="utf-8"?>
<!-- Generator: Adobe Illustrator 21.0.0, SVG Export Plug-In . SVG Version: 6.00 Build 0)  -->
<svg version="1.1" id="Camada_1" xmlns="http://www.w3.org/2000/svg" xmlns:xlink="http://www.w3.org/1999/xlink" x="0px" y="0px"
	 viewBox="0 0 28.6 20" style="enable-background:new 0 0 28.6 20;" xml:space="preserve">
<style type="text/css">
	.st0{fill:#00913E;}
	.st1{fill:#F3F9F6;}
	.st2{fill:#F7C000;}
	.st3{fill:#FEFEFE;}
	.st4{fill:#F3F3F2;}
	.st5{fill:#F2F2F1;}
	.st6{fill:#5E4733;}
	.st7{fill:#5F4834;}
	.st8{fill:#4A4F50;}
	.st9{fill:#464949;}
	.st10{fill:#644D39;}
	.st11{fill:#4D5253;}
	.st12{fill:#624C37;}
	.st13{fill:#4A4D4D;}
	.st14{fill:#4F5355;}
	.st15{fill:#67513E;}
	.st16{fill:#505556;}
	.st17{fill:#575B5D;}
	.st18{fill:#705A43;}
	.st19{fill:#5A5E60;}
	.st20{fill:#6F5A44;}
	.st21{fill:#5A5F60;}
	.st22{fill:#6C553C;}
	.st23{fill:#654E3A;}
	.st24{fill:#595D5F;}
	.st25{fill:#5E6264;}
	.st26{fill:#616566;}
	.st27{fill:#715A43;}
	.st28{fill:#565B5C;}
	.st29{fill:#4C5052;}
	.st30{fill:#5C6162;}
	.st31{fill:#6F5942;}
	.st32{fill:#606465;}
	.st33{fill:#5A5E5F;}
	.st34{fill:#5C6062;}
	.st35{fill:#626768;}
	.st36{fill:#565A5B;}
	.st37{fill:#585D5E;}
	.st38{fill:#5B5F61;}
	.st39{fill:#55595B;}
	.st40{fill:#5F6365;}
	.st41{fill:#5E6263;}
	.st42{fill:#626667;}
	.st43{fill:#616667;}
	.st44{fill:#585C5D;}
	.st45{fill:#636869;}
	.st46{fill:#54585A;}
	.st47{fill:#5B5F60;}
	.st48{fill:#525657;}
	.st49{fill:#505456;}
	.st50{fill:#515658;}
	.st51{fill:#515557;}
	.st52{fill:#745F4E;}
	.st53{fill:#3F4446;}
	.st54{fill:#EFEFEE;}
	.st55{fill:#3E4C48;}
	.st56{fill:#41534D;}
	.st57{fill:#3F4D49;}
	.st58{fill:#404F4B;}
	.st59{fill:#EEEEED;}
	.st60{fill:#5C4532;}
	.st61{fill:#BCA06C;}
	.st62{fill:#C7AB74;}
	.st63{fill:#98844F;}
	.st64{fill:#C0A267;}
	.st65{fill:#C0A166;}
	.st66{fill:#CAAD77;}
	.st67{fill:#C2A369;}
	.st68{fill:#D1BC92;}
	.st69{fill:#664F38;}
	.st70{fill:#C2A670;}
	.st71{fill:#6E563D;}
	.st72{fill:#685139;}
	.st73{fill:#C5A872;}
	.st74{fill:#BC9E64;}
	.st75{fill:#C0A36E;}
	.st76{fill:#C1A368;}
	.st77{fill:#C5A972;}
	.st78{fill:#5D4632;}
	.st79{fill:#775F45;}
	.st80{fill:#6C533F;}
	.st81{fill:#DBC79B;}
	.st82{fill:#A18E60;}
	.st83{fill:#C8AD78;}
	.st84{fill:#CBAF7A;}
	.st85{fill:#654E38;}
	.st86{fill:#CAAE79;}
	.st87{fill:#D2BD93;}
	.st88{fill:#614A35;}
	.st89{fill:#CAAF7A;}
	.st90{fill:#9F8B5C;}
	.st91{fill:#6A523A;}
	.st92{fill:#B99B61;}
	.st93{fill:#C7B28A;}
	.st94{fill:#C3A875;}
	.st95{fill:#CFB683;}
	.st96{fill:#CCB17B;}
	.st97{fill:#D3BD90;}
	.st98{fill:#AC9773;}
	.st99{fill:#BCA781;}
	.st100{fill:#BDA371;}
	.st101{fill:#D3BE93;}
	.st102{fill:#42919C;}
	.st103{fill:#BA815B;}
	.st104{fill:#F4C390;}
	.st105{fill:#01913E;}
	.st106{fill:#AFA020;}
	.st107{fill:#B9B9B9;}
	.st108{fill:#42B8D9;}
	.st109{fill:#35B4DB;}
	.st110{fill:#BEBDBD;}
	.st111{fill:#38B4DA;}
	.st112{fill:#505553;}
	.st113{fill:#43574F;}
	.st114{fill:#3CB6DA;}
	.st115{fill:#91D1C9;}
	.st116{fill:#ADAEAE;}
	.st117{fill:#52BDD4;}
	.st118{fill:#B79C10;}
	.st119{fill:#56524D;}
	.st120{fill:#32B0D8;}
	.st121{fill:#53BDD7;}
	.st122{fill:#62C1D2;}
	.st123{fill:#364F44;}
	.st124{fill:#626250;}
	.st125{fill:#555958;}
	.st126{fill:#B0DAC2;}
	.st127{fill:#93CFC1;}
	.st128{fill:#46B8D7;}
	.st129{fill:#7ACACF;}
	.st130{fill:#94D4CF;}
	.st131{fill:#70C4CA;}
	.st132{fill:#83CACB;}
	.st133{fill:#90D1CB;}
	.st134{fill:#3C524C;}
	.st135{fill:#A49D24;}
	.st136{fill:#5F6364;}
	.st137{fill:#B8DDC4;}
	.st138{fill:#C6DFC2;}
	.st139{fill:#A7D3B6;}
	.st140{fill:#ADA227;}
	.st141{fill:#82AD7D;}
	.st142{fill:#AC9F21;}
	.st143{fill:#485455;}
	.st144{fill:#C1C0C0;}
	.st145{fill:#ABA42F;}
	.st146{fill:#B3A832;}
	.st147{fill:#404547;}
	.st148{fill:#94A147;}
	.st149{fill:#A49F29;}
	.st150{fill:#A4A437;}
	.st151{fill:#ABD0B6;}
	.st152{fill:#495354;}
	.st153{fill:#A48D0F;}
	.st154{fill:#A7A63B;}
	.st155{fill:#605950;}
	.st156{fill:#A39D24;}
	.st157{fill:#AF9A0F;}
	.st158{fill:#A19D28;}
	.st159{fill:#80694E;}
	.st160{fill:#5B4431;}
	.st161{fill:#C6AB77;}
	.st162{fill:#C6AA76;}
	.st163{fill:#EDF6F1;}
	.st164{fill:#EFF7F2;}
	.st165{fill:#F4F9F6;}
	.st166{fill:#F6FAF8;}
	.st167{fill:#F7FAF8;}
	.st168{fill:#FDFDFD;}
	.st169{fill:#3F484A;}
	.st170{fill:#4B5D61;}
	.st171{fill:#4B5454;}
	.st172{fill:#4A5457;}
	.st173{fill:#425256;}
	.st174{fill:#4F5553;}
	.st175{fill:#515C5F;}
	.st176{fill:#545F62;}
	.st177{fill:#55605D;}
	.st178{fill:#59534C;}
	.st179{fill:#505A5D;}
	.st180{fill:#525551;}
	.st181{fill:#4D4B48;}
	.st182{fill:#444747;}
	.st183{fill:#4C4B48;}
	.st184{fill:#484948;}
	.st185{fill:#474847;}
	.st186{fill:#5A524B;}
	.st187{fill:#414546;}
	.st188{fill:#635A50;}
	.st189{fill:#42494A;}
	.st190{fill:#3D514D;}
	.st191{fill:#E5B606;}
	.st192{fill:#7ECDD3;}
	.st193{fill:#8AD1D0;}
	.st194{fill:#77C5CC;}
	.st195{fill:#C1E3C7;}
	.st196{fill:#99D6CE;}
	.st197{fill:#8FD3D0;}
	.st198{fill:#C3E2C3;}
	.st199{fill:#ACDCCB;}
	.st200{fill:#B6E0CA;}
	.st201{fill:#A4DACD;}
	.st202{fill:#C9E6C9;}
	.st203{fill:#515759;}
	.st204{fill:#B3A935;}
	.st205{fill:#B3A324;}
	.st206{fill:#B2A426;}
	.st207{fill:#44B9D9;}
	.st208{fill:#50BED9;}
	.st209{fill:#97A242;}
	.st210{fill:#9E9C2B;}
	.st211{fill:#43B9DA;}
	.st212{fill:#4D595B;}
	.st213{fill:#4D6B70;}
	.st214{fill:#969B3A;}
	.st215{fill:#454A4C;}
	.st216{fill:#7CCBD0;}
	.st217{fill:#7CCBCE;}
	.st218{fill:#505757;}
	.st219{fill:#BDBCBC;}
	.st220{fill:#BFBEBE;}
	.st221{fill:#8FCDC1;}
	.st222{fill:#B29A0C;}
	.st223{fill:#B39A09;}
	.st224{fill:#F7F7F7;}
	.st225{fill:#7ACCD4;}
	.st226{fill:#9AD7CF;}
	.st227{fill:#89CFD0;}
	.st228{fill:#595C59;}
	.st229{fill:#B19908;}
	.st230{fill:#B29E15;}
	.st231{fill:#4ABAD7;}
	.st232{fill:#A1D6C7;}
	.st233{fill:#B4DBBE;}
	.st234{fill:#92D0C5;}
	.st235{fill:#A9D2B0;}
	.st236{fill:#5BC1D8;}
	.st237{fill:#9CA33D;}
	.st238{fill:#F6C000;}
	.st239{fill:#B6E0C9;}
	.st240{fill:#A7D9C7;}
	.st241{fill:#B39F17;}
	.st242{fill:#B29F1A;}
	.st243{fill:#61C3D7;}
	.st244{fill:#9EA137;}
	.st245{fill:#6EC8D4;}
	.st246{fill:#B1A832;}
	.st247{fill:#9BD3C4;}
	.st248{fill:#B2A731;}
	.st249{fill:#7DCACB;}
	.st250{fill:#AF9A0E;}
	.st251{fill:#4E5659;}
	.st252{fill:#5ABFD5;}
	.st253{fill:#4FBBD6;}
	.st254{fill:#5C5E5A;}
	.st255{fill:#B3AD3F;}
	.st256{fill:#A4D9CC;}
	.st257{fill:#6EC8D5;}
	.st258{fill:#428F99;}
	.st259{fill:#936F54;}
	.st260{fill:#B27E59;}
	.st261{fill:#AC7B58;}
	.st262{fill:#936E54;}
	.st263{fill:#B17D59;}
	.st264{fill:#62584E;}
	.st265{fill:#847461;}
	.st266{fill:#82735F;}
	.st267{fill:#847460;}
	.st268{fill:#7A6C5A;}
	.st269{fill:#AE7C59;}
	.st270{fill:#B37E59;}
	.st271{fill:#A87957;}
	.st272{fill:#A67857;}
	.st273{fill:#7F6650;}
	.st274{fill:#424646;}
	.st275{fill:#5A6365;}
	.st276{fill:#62615E;}
	.st277{fill:#A2A53E;}
	.st278{fill:#A9A431;}
	.st279{fill:#AD9F1E;}
	.st280{fill:#A5A842;}
	.st281{fill:#6FC5CC;}
	.st282{fill:#505B5A;}
	.st283{fill:#4C605F;}
	.st284{fill:#B29C10;}
	.st285{fill:#ADA42E;}
	.st286{fill:#AEA52D;}
	.st287{fill:#8AD1D1;}
	.st288{fill:#ADA633;}
	.st289{fill:#5CC1D7;}
	.st290{fill:#F0F0F0;}
	.st291{fill:#6F7374;}
	.st292{fill:#DDDDDD;}
	.st293{fill:#464B4D;}
	.st294{fill:#485053;}
	.st295{fill:#8A8D8E;}
	.st296{fill:#6CC6D2;}
	.st297{fill:#B4AB38;}
	.st298{fill:#8BD0CD;}
	.st299{fill:#A8A32E;}
	.st300{fill:#96D5D0;}
	.st301{fill:#ACA839;}
	.st302{fill:#597476;}
	.st303{fill:#9AA442;}
	.st304{fill:#506063;}
	.st305{fill:#41494B;}
	.st306{fill:#EDEEEE;}
	.st307{fill:#9FA94A;}
	.st308{fill:#5B524B;}
	.st309{fill:#556061;}
	.st310{fill:#7BCCD3;}
	.st311{fill:#68C6D5;}
	.st312{fill:#A2A130;}
</style>
<g>
	<path class="st0" d="M0,20C0,13.4,0,6.8,0,0.1C0,0,0,0,0.2,0c9.5,0,19,0,28.4,0c0,0.1,0,0.1,0,0.2c0,6.6,0,13.1,0,19.7
		c0,0.2,0,0.2-0.2,0.2C19,20,9.6,20,0.2,20C0.1,20,0.1,20,0,20z"/>
	<path class="st1" d="M0,20c5.8,0,11.6,0,17.3,0c3.7,0,7.4,0,11.1,0c0.1,0,0.2,0,0.2-0.2c0-6.5,0-13.1,0-19.6c0-0.1,0-0.1,0-0.2
		c0,0,0.1,0,0.1,0c0,0,0,0.1,0,0.1c0,6.6,0,13.2,0,19.8c0,0.1,0,0.1-0.1,0.1c-9.5,0-18.9,0-28.4,0C0.1,20,0.1,20.1,0,20z"/>
	<path class="st2" d="M26,10c-0.3,0.2-0.7,0.4-1,0.6c-3.5,2.2-7.1,4.5-10.6,6.7c-0.1,0.1-0.1,0.1-0.2,0c-3.8-2.4-7.6-4.9-11.5-7.3
		C2.6,10,2.6,10,2.7,9.9c3.8-2.4,7.6-4.9,11.5-7.3c0.1,0,0.1-0.1,0.2,0c3.8,2.4,7.7,4.9,11.5,7.3C25.9,10,26,10,26,10z"/>
	<path class="st3" d="M9.7,10c0-2.6,2.1-4.7,4.6-4.6c2.6,0,4.6,2.1,4.6,4.6c0,2.6-2.1,4.6-4.6,4.6C11.7,14.6,9.7,12.6,9.7,10z"/>
	<path class="st4" d="M16.5,12.6L16.5,12.6c-0.1,0-0.1,0.1-0.2,0.1c0,0-0.1,0-0.1,0.1c-0.1,0.1-0.3,0.1-0.4,0.2c0,0-0.1,0-0.1,0.1
		c0,0-0.1,0-0.1,0c-0.1,0.1-0.2,0.1-0.3,0.2c-0.1,0-0.2,0.1-0.3,0.1c-0.1,0-0.1,0.1-0.2,0.1c0,0-0.1,0.1-0.1,0.1l0,0
		c-0.1,0-0.1,0.1-0.2,0.1c-0.1,0.1-0.1,0.1-0.2,0.2c-0.1,0.1-0.1,0.1-0.2,0c-0.1-0.1-0.1-0.1-0.2-0.2c-0.1,0-0.1-0.1-0.2-0.1l0,0
		c-0.1,0-0.1-0.1-0.2-0.1c-0.1,0-0.1-0.1-0.2-0.1c-0.1-0.1-0.2-0.1-0.3-0.2c-0.1-0.1-0.3-0.1-0.4-0.2c-0.1,0-0.2-0.1-0.2-0.1
		c-0.1-0.1-0.2-0.1-0.3-0.2c0,0,0,0,0,0c-0.1-0.1-0.2-0.1-0.3-0.2c-0.1-0.1-0.2-0.2-0.3-0.3c0-0.1-0.1-0.1-0.1-0.2
		c-0.1-0.2-0.1-0.5-0.1-0.7c0.1-0.4,0.2-0.7,0.3-1c0.1-0.2,0.2-0.5,0.2-0.7c0-0.2-0.1-0.4-0.2-0.6c0,0-0.1-0.1-0.1-0.1
		c0-0.1,0-0.2,0.1-0.2c0.2,0.1,0.3,0.2,0.3,0.4c0.1,0.2,0.1,0.4,0.1,0.7c0,0.3-0.2,0.6-0.3,0.9c-0.1,0.3-0.2,0.6-0.3,0.9
		c0,0.3,0.1,0.5,0.3,0.6c0.2,0.2,0.5,0.4,0.8,0.6c0.4,0.2,0.9,0.5,1.3,0.7c0,0,0.1,0.1,0.1,0.1c0.1,0.1,0.2,0.1,0.3,0
		c0.4-0.3,0.9-0.5,1.3-0.8c0.2-0.1,0.4-0.2,0.5-0.3c0.2-0.1,0.3-0.2,0.4-0.3c0,0,0.1-0.1,0.2-0.1c0.1,0.1,0,0.2-0.1,0.2
		c-0.1,0.1-0.1,0.2-0.2,0.2C16.6,12.5,16.5,12.5,16.5,12.6z"/>
	<path class="st5" d="M16.6,12.4c0.1-0.1,0.1-0.2,0.2-0.3c0,0,0-0.1,0.1-0.1c0-0.1,0-0.1,0-0.2c0.1-0.1,0.1-0.2,0.1-0.3
		c0-0.1,0-0.1,0-0.2c0,0,0,0,0,0c0,0,0-0.1,0-0.1c0,0,0-0.1,0-0.1c-0.1-0.3-0.2-0.7-0.3-1c0-0.1-0.1-0.3-0.1-0.4
		c0-0.2-0.1-0.4,0-0.6c0-0.2,0.2-0.4,0.3-0.5c0,0,0.1,0,0.1,0C17,8.6,17,8.6,17,8.7c0,0.1-0.1,0.1-0.1,0.2c-0.2,0.3-0.2,0.6-0.1,0.9
		c0.1,0.2,0.1,0.4,0.2,0.5c0,0.1,0,0.1,0.1,0.2c0,0.1,0.1,0.2,0.1,0.3c0,0.1,0.1,0.2,0.1,0.3c0,0.1,0,0.2,0.1,0.3
		c0,0.1,0,0.2-0.1,0.3c0,0,0,0,0,0C17.1,11.9,17.1,12,17,12c0,0-0.1,0.1-0.1,0.1c0,0,0,0,0,0c0,0,0,0,0,0c0,0,0,0,0,0
		C16.8,12.3,16.7,12.4,16.6,12.4C16.6,12.4,16.6,12.5,16.6,12.4z"/>
	<path class="st6" d="M12.7,7.1c0.1-0.1,0.1-0.3,0.2-0.4c-0.2,0-0.2-0.1-0.3-0.3c0,0,0,0,0,0c0.1,0,0.2,0,0.3,0c0,0,0.1,0,0.1,0
		c0.1,0,0.1,0,0.1,0.1c0,0.1-0.1,0.1-0.1,0.1c-0.1,0-0.1,0-0.1,0c0.2,0,0.4-0.1,0.6-0.1c0.1,0,0.1,0,0.1,0.1c0,0.1,0,0.1,0.1,0.1
		c0.1,0,0.1,0,0.2,0c0,0,0.1,0,0.1,0.1c0,0,0,0.1,0,0.1c0,0,0.1,0,0.1,0c0,0,0,0,0,0c0,0,0,0.1,0,0.1c0,0,0,0-0.1,0
		c-0.1,0-0.2,0-0.3,0C13.9,7,14,7,14,7c0,0,0,0,0,0c0,0.1,0,0.1,0,0.2c0,0,0,0,0,0c0,0-0.1,0-0.1,0c0,0-0.1,0-0.1,0c0,0,0,0-0.1,0
		c0-0.1-0.1-0.1-0.2-0.1c-0.2,0.1-0.4,0.1-0.6,0c0,0,0,0,0,0c0-0.1,0.1-0.1,0.1-0.1c0,0,0.1,0,0.1-0.1c0,0,0,0,0-0.1
		c0,0,0-0.1,0-0.1c0,0,0-0.1,0-0.1c0,0,0.1,0,0.1-0.1c-0.1,0.1-0.3,0-0.4,0.1c0,0,0,0.1,0,0.1c0,0-0.1,0.1,0,0.1c0,0,0,0,0,0.1
		C12.9,7.1,12.8,7.1,12.7,7.1C12.7,7.1,12.7,7.1,12.7,7.1z"/>
	<path class="st7" d="M13.7,6.5c0,0-0.1,0-0.1,0C13.5,6.4,13.6,6.4,13.7,6.5C13.7,6.4,13.7,6.4,13.7,6.5c0.2-0.1,0.3-0.1,0.4-0.1
		c0.5,0,1,0,1.6,0.1c0,0,0.1,0,0.1,0c0,0,0.1-0.1,0.1-0.1c0,0,0.1-0.1,0.1,0c0,0,0,0,0,0c0,0.2-0.1,0.2-0.3,0.3c0,0,0,0,0,0
		c-0.1,0-0.1,0-0.2,0c-0.1,0-0.1,0-0.2,0c0.1,0,0.2,0,0.2,0.1c0,0,0,0,0,0c0,0-0.1,0-0.1,0.1c0,0,0,0.1,0,0.1c0,0.1,0,0.1,0.1,0.1
		c0.1,0,0.1,0,0.1,0.1c0,0,0,0,0,0.1c-0.1,0-0.3,0.1-0.4,0c0,0,0-0.1,0-0.1c0,0,0-0.1,0-0.1c0-0.1,0-0.1,0-0.2
		c0-0.1-0.1-0.1-0.2-0.1c0,0,0,0,0,0c0-0.1-0.1-0.1-0.1-0.1c-0.2,0-0.3,0-0.5,0c0,0,0,0-0.1,0c-0.1,0-0.3,0-0.4,0
		C13.8,6.6,13.7,6.6,13.7,6.5z"/>
	<path class="st8" d="M11.7,8.8C11.9,9,12,9.4,11.9,9.7c0,0.1-0.1,0.3-0.1,0.4c-0.1,0.4-0.3,0.7-0.4,1.1c-0.1,0,0-0.1,0-0.1
		c0-0.3,0.2-0.6,0.3-0.9c0.1-0.1,0.1-0.3,0.2-0.4C12,9.4,11.9,9,11.5,8.7c0,0,0,0,0,0C11.6,8.6,11.6,8.7,11.7,8.8z"/>
	<path class="st9" d="M14,7.2c0,0,0.1,0,0.1,0c0.1-0.1,0.2-0.1,0.4-0.1c0,0,0,0,0,0c0,0,0,0,0.1,0c0,0,0.1,0,0.1,0c0,0,0,0,0,0
		c0.2,0,0.3,0,0.4,0.1c0,0.1-0.1,0.1-0.2,0.1c-0.7,0-1.4,0-2.2,0.1c-0.1,0-0.2,0-0.2,0c0,0-0.1,0-0.1-0.1c0.1,0,0.1,0,0.1-0.1
		c0,0,0,0,0.1,0c0.1,0,0.2,0,0.3,0c0,0,0,0,0.1,0c0.2,0,0.5,0,0.7-0.1c0,0,0.1,0,0.1,0C13.9,7.2,13.9,7.2,14,7.2
		C13.9,7.2,14,7.2,14,7.2z"/>
	<path class="st10" d="M13.9,6C14,6.1,14.1,6.2,14.1,6c0-0.1,0.1,0,0.1,0c0.1,0,0.3-0.1,0.3,0c0.1,0.1,0.1,0.1,0.2,0
		C14.8,6,14.8,6,14.9,6c0.1,0,0.2,0,0.3,0c0,0.1-0.1,0.1-0.1,0.1c0,0-0.1,0-0.1,0.1c-0.1,0.1-0.3,0.1-0.5,0c-0.1-0.1-0.2-0.1-0.3,0
		c-0.1,0.1-0.2,0.1-0.4,0.1c0,0-0.1,0-0.1-0.1c0-0.1-0.1-0.1-0.2-0.1c0,0-0.1,0-0.1,0c0,0-0.1,0-0.1-0.1c0.1,0,0.3,0,0.4-0.1
		C13.8,6,13.9,6,13.9,6C13.9,6.1,13.9,6,13.9,6C13.9,6.1,13.9,6,13.9,6z"/>
	<path class="st11" d="M16.9,10.3c-0.1-0.3-0.2-0.5-0.3-0.8c0-0.2,0-0.5,0.2-0.7c0,0,0,0,0,0.1c-0.2,0.3-0.2,0.5-0.1,0.8
		C16.8,9.9,16.9,10.1,16.9,10.3C17,10.3,17,10.3,16.9,10.3z"/>
	<path class="st12" d="M13.3,6c0,0,0.1,0,0.1,0c0,0.2,0,0.2-0.3,0.3c0,0-0.1,0-0.1,0c-0.1-0.1-0.2-0.1-0.3-0.1
		c-0.1,0-0.1,0.1-0.1,0.1c0,0,0,0,0,0c-0.1-0.2,0-0.2,0.1-0.3C13,6,13.1,6,13.3,6.2C13.3,6.1,13.3,6.1,13.3,6z"/>
	<path class="st13" d="M15,7.3c0.1,0,0.1,0,0.2,0c0.1-0.1,0.1-0.1,0.2,0c0.1,0,0.1,0,0.2,0c0,0,0,0,0.1,0c0.1,0,0.2,0,0.3,0.1
		c0,0,0,0,0.1,0c0,0,0.1,0,0.1,0c0,0.1-0.1,0.1-0.1,0.1c-0.2,0-0.5-0.1-0.7-0.1c-0.1,0-0.2,0-0.2,0C15.1,7.4,15,7.4,15,7.3z"/>
	<path class="st14" d="M11.4,11.1C11.4,11.2,11.4,11.2,11.4,11.1c0,0.3,0,0.6,0.1,0.8c0,0,0,0,0,0C11.3,11.7,11.3,11.4,11.4,11.1z"
		/>
	<path class="st15" d="M15,6c0.1,0,0.1,0,0.2,0c0,0,0.1,0,0.1,0c0,0.1,0.1,0.1,0.1,0.1c0,0,0,0,0,0c0,0,0.1,0,0.1,0.1
		c0,0,0,0.1,0,0.1c-0.1,0.1-0.3,0-0.4-0.1C15.1,6.1,15,6.1,15,6z"/>
	<path class="st16" d="M14,13.6c0.1,0.1,0.2,0.2,0.3,0.3c0,0,0.1-0.1,0.1-0.1c0,0,0,0,0,0c0,0.1-0.1,0.1-0.1,0.2
		C14.2,13.9,14.1,13.8,14,13.6C14,13.6,14,13.6,14,13.6z"/>
	<path class="st17" d="M17.2,11.7c0-0.1,0-0.2,0-0.4c0,0,0-0.1,0-0.1C17.3,11.4,17.3,11.6,17.2,11.7C17.2,11.7,17.2,11.7,17.2,11.7z
		"/>
	<path class="st18" d="M15.8,6.8c0,0.1,0.1,0.2,0.1,0.3c0,0,0,0.1-0.1,0.1c0-0.1-0.1-0.1-0.2-0.1c0,0-0.1,0-0.1-0.1c0,0,0,0,0-0.1
		C15.6,6.9,15.7,6.9,15.8,6.8C15.7,6.8,15.7,6.8,15.8,6.8z"/>
	<path class="st19" d="M12.7,12.9c0.1,0.1,0.3,0.1,0.4,0.2c0,0,0,0,0,0C13,13.1,12.8,13,12.7,12.9C12.7,12.9,12.7,12.9,12.7,12.9z"
		/>
	<path class="st20" d="M12.7,7.3C12.6,7.3,12.6,7.3,12.7,7.3c0-0.1,0-0.2,0.1-0.3c0,0,0,0,0,0c0.1,0,0.1,0,0.2,0c0,0,0,0,0.1,0.1
		c0,0,0,0.1,0,0.1C12.8,7.2,12.8,7.3,12.7,7.3z"/>
	<path class="st21" d="M15.8,12.9c0.1-0.1,0.3-0.1,0.4-0.2c0,0,0,0,0,0C16.1,12.8,16,12.9,15.8,12.9C15.8,13,15.8,13,15.8,12.9z"/>
	<path class="st19" d="M16,7.4C16.1,7.4,16.1,7.4,16,7.4c0.2,0,0.3,0,0.4,0c0.1,0,0.1,0.1,0.1,0.1c0,0,0,0,0,0
		C16.3,7.5,16.2,7.6,16,7.4z"/>
	<path class="st22" d="M15.6,6.2C15.6,6.2,15.5,6.2,15.6,6.2c-0.1-0.1-0.1-0.1-0.2-0.1c0,0,0,0,0,0c0.1-0.1,0.2-0.1,0.4,0
		c0,0,0,0,0,0C15.7,6.2,15.6,6.3,15.6,6.2z"/>
	<path class="st19" d="M15.3,13.2c0.1-0.1,0.2-0.1,0.3-0.2c0,0,0,0,0,0C15.6,13.1,15.4,13.2,15.3,13.2
		C15.3,13.2,15.3,13.2,15.3,13.2z"/>
	<path class="st23" d="M15.8,7.1C15.8,7.1,15.9,7.1,15.8,7.1c0.1,0,0.1,0.1,0.2,0.2c0,0,0,0-0.1,0c-0.1,0-0.1-0.1-0.2-0.1
		c0,0-0.1,0-0.1-0.1c0,0,0,0,0,0C15.8,7.1,15.8,7.1,15.8,7.1z"/>
	<path class="st21" d="M13.1,13.2C13.1,13.2,13.1,13.1,13.1,13.2c0.1,0,0.2,0.1,0.3,0.1c0,0,0,0,0,0C13.3,13.3,13.2,13.2,13.1,13.2z
		"/>
	<path class="st24" d="M12.2,12.6c0.1,0,0.2,0.1,0.4,0.2c0,0,0,0,0,0C12.4,12.7,12.2,12.7,12.2,12.6z"/>
	<path class="st25" d="M16.9,8.9C16.9,8.9,16.9,8.9,16.9,8.9c0-0.1,0-0.1,0.1-0.2c0,0,0-0.1,0.1-0.1c0,0,0,0,0,0
		C17,8.8,16.9,8.8,16.9,8.9z"/>
	<path class="st26" d="M17,12c0.1-0.1,0.1-0.2,0.2-0.3C17.2,11.9,17.1,12,17,12C17,12.1,17,12.1,17,12z"/>
	<path class="st16" d="M17.3,11.2c0,0,0,0.1,0,0.1c-0.1-0.1,0-0.2-0.1-0.3c0,0,0-0.1,0-0.1C17.2,11.1,17.3,11.2,17.3,11.2z"/>
	<path class="st27" d="M15.8,6.8C15.8,6.8,15.7,6.8,15.8,6.8c-0.1,0-0.2,0-0.2,0c0,0,0,0,0-0.1c0,0,0.1,0,0.1,0c0,0,0,0,0,0
		C15.7,6.7,15.7,6.8,15.8,6.8z"/>
	<path class="st19" d="M11.9,12.4c0.1,0.1,0.2,0.1,0.3,0.2C12,12.6,11.9,12.5,11.9,12.4C11.9,12.4,11.9,12.4,11.9,12.4z"/>
	<path class="st28" d="M12.1,7.6c0.1-0.1,0.1-0.2,0.2-0.2c0,0,0.1,0,0.1,0C12.3,7.5,12.2,7.6,12.1,7.6C12.1,7.6,12.1,7.6,12.1,7.6z"
		/>
	<path class="st29" d="M11.9,12.4C11.9,12.4,11.9,12.4,11.9,12.4c-0.1,0-0.2-0.1-0.3-0.2c0,0,0,0,0,0C11.7,12.2,11.8,12.3,11.9,12.4
		z"/>
	<path class="st30" d="M17.1,10.8C17,10.7,17,10.6,17,10.5c0,0,0,0,0,0C17.1,10.6,17.1,10.6,17.1,10.8L17.1,10.8z"/>
	<path class="st31" d="M15.7,6.1C15.7,6.1,15.7,6.1,15.7,6.1c0.2,0,0.2,0,0.3,0c0,0.1,0,0.1,0,0.2c0,0,0,0,0,0c0,0,0,0,0-0.1
		C15.9,6.3,15.8,6.2,15.7,6.1C15.7,6.2,15.7,6.1,15.7,6.1z"/>
	<path class="st32" d="M17.1,10.8C17.1,10.8,17.1,10.8,17.1,10.8c0.1,0.1,0.1,0.2,0.1,0.2c0,0,0,0.1,0,0.1
		C17.2,11,17.1,10.9,17.1,10.8z"/>
	<path class="st33" d="M16.5,7.6C16.5,7.6,16.5,7.6,16.5,7.6c0.1,0,0.2,0.1,0.2,0.2c0,0,0,0,0,0C16.5,7.8,16.5,7.7,16.5,7.6z"/>
	<path class="st30" d="M17.2,8.4c0.1,0.1,0.1,0.1,0,0.2c0,0,0,0,0,0C17.1,8.6,17.1,8.5,17.2,8.4C17.1,8.4,17.1,8.4,17.2,8.4z"/>
	<path class="st34" d="M15.3,13.2C15.3,13.2,15.3,13.2,15.3,13.2c-0.1,0.1-0.2,0.1-0.3,0.2c0,0,0,0,0,0
		C15.1,13.3,15.2,13.2,15.3,13.2z"/>
	<path class="st35" d="M14.4,13.9C14.4,13.9,14.4,13.9,14.4,13.9c0-0.1,0.1-0.2,0.1-0.2c0,0,0,0,0,0C14.5,13.8,14.5,13.8,14.4,13.9z
		"/>
	<path class="st36" d="M12.5,12.8C12.5,12.8,12.5,12.8,12.5,12.8c0.1,0,0.2,0.1,0.3,0.1c0,0,0,0,0,0C12.6,12.9,12.5,12.9,12.5,12.8z
		"/>
	<path class="st19" d="M16.7,12.4c0.1,0,0.1-0.1,0.2-0.1C16.8,12.4,16.7,12.4,16.7,12.4C16.7,12.5,16.6,12.4,16.7,12.4z"/>
	<path class="st37" d="M17,12C17,12.1,17,12.1,17,12c0,0.1,0,0.2-0.1,0.1C16.9,12.1,17,12.1,17,12z"/>
	<path class="st34" d="M12.1,7.6C12.1,7.6,12.1,7.6,12.1,7.6c0.1,0.1,0,0.2-0.1,0.2c0,0,0,0,0,0C12,7.7,12,7.6,12.1,7.6z"/>
	<path class="st38" d="M17,8.2c0,0.1,0.1,0.1,0.1,0.2c0,0,0,0,0,0C17,8.4,16.9,8.3,17,8.2C16.9,8.2,16.9,8.2,17,8.2z"/>
	<path class="st38" d="M11.5,8.4c0-0.1,0.1-0.1,0.1-0.2c0,0,0,0,0,0C11.6,8.3,11.6,8.4,11.5,8.4C11.5,8.4,11.5,8.4,11.5,8.4z"/>
	<path class="st34" d="M11.7,8.1c0-0.1,0.1-0.1,0.1-0.2c0,0,0,0,0,0C11.8,8.1,11.8,8.2,11.7,8.1C11.7,8.2,11.7,8.2,11.7,8.1z"/>
	<path class="st34" d="M16.8,7.9c0,0.1,0.1,0.1,0.1,0.2c0,0,0,0,0,0C16.8,8.1,16.7,8,16.8,7.9C16.7,7.9,16.7,7.9,16.8,7.9z"/>
	<path class="st39" d="M12.4,7.4C12.4,7.4,12.3,7.4,12.4,7.4c0,0,0,0,0.1-0.1c0,0,0.1,0,0.1,0C12.6,7.5,12.5,7.5,12.4,7.4z"/>
	<path class="st26" d="M16.7,12.4C16.7,12.4,16.7,12.4,16.7,12.4c0,0.1-0.1,0.1-0.2,0.1C16.5,12.5,16.6,12.5,16.7,12.4
		C16.6,12.4,16.6,12.4,16.7,12.4z"/>
	<path class="st40" d="M13.4,13.3C13.5,13.3,13.5,13.3,13.4,13.3c0.1,0,0.2,0,0.2,0.1c0,0,0,0,0,0C13.6,13.4,13.5,13.4,13.4,13.3z"
		/>
	<path class="st41" d="M17,10.5C17,10.5,17,10.5,17,10.5c-0.1,0-0.1-0.1-0.1-0.1c0,0,0,0,0-0.1C17,10.3,17,10.4,17,10.5z"/>
	<path class="st42" d="M14,13.6C14,13.7,14,13.7,14,13.6c-0.1,0-0.2,0-0.2-0.1C13.9,13.5,13.9,13.6,14,13.6z"/>
	<path class="st33" d="M14.6,13.7C14.6,13.7,14.6,13.7,14.6,13.7c0-0.1,0.1-0.1,0.2-0.1C14.7,13.6,14.7,13.7,14.6,13.7z"/>
	<path class="st42" d="M11.6,12.1C11.6,12.1,11.6,12.1,11.6,12.1c-0.1,0-0.1-0.1-0.1-0.1c0,0,0,0,0,0C11.5,12,11.6,12.1,11.6,12.1z"
		/>
	<path class="st38" d="M15,13.4C15.1,13.4,15.1,13.4,15,13.4c0,0.1-0.1,0.1-0.1,0.1c0,0,0,0,0,0C14.9,13.4,15,13.4,15,13.4z"/>
	<path class="st34" d="M13.6,13.4C13.6,13.4,13.6,13.4,13.6,13.4c0.1,0,0.2,0,0.2,0.1C13.7,13.5,13.7,13.5,13.6,13.4z"/>
	<path class="st43" d="M16.3,12.6c0,0,0.1-0.1,0.2-0.1C16.5,12.6,16.4,12.6,16.3,12.6C16.3,12.7,16.3,12.7,16.3,12.6z"/>
	<path class="st44" d="M11.5,8.4C11.5,8.4,11.5,8.4,11.5,8.4c0.1,0.1,0,0.1,0,0.2c0,0,0,0,0,0C11.4,8.5,11.4,8.4,11.5,8.4z"/>
	<path class="st45" d="M14.9,13.4C14.9,13.5,14.9,13.5,14.9,13.4c0,0.1-0.1,0.1-0.1,0.1C14.8,13.5,14.8,13.5,14.9,13.4z"/>
	<path class="st17" d="M11.9,7.8C11.9,7.8,12,7.8,11.9,7.8c0.1,0.1,0,0.1,0,0.2c0,0,0,0,0,0C11.9,7.8,11.9,7.8,11.9,7.8z"/>
	<path class="st46" d="M16.3,12.6C16.3,12.6,16.4,12.7,16.3,12.6C16.3,12.7,16.3,12.7,16.3,12.6c-0.1,0.1-0.1,0.1-0.1,0.1
		C16.3,12.7,16.3,12.7,16.3,12.6z"/>
	<path class="st21" d="M11.5,8.6C11.5,8.7,11.5,8.7,11.5,8.6c-0.1,0-0.1,0-0.1-0.1c0,0,0,0,0,0C11.5,8.5,11.5,8.6,11.5,8.6z"/>
	<path class="st47" d="M17.1,8.4C17.1,8.4,17.1,8.3,17.1,8.4C17.1,8.4,17.1,8.4,17.1,8.4C17.2,8.4,17.1,8.4,17.1,8.4
		C17.1,8.5,17.1,8.4,17.1,8.4z"/>
	<path class="st48" d="M16.9,8.1C16.9,8.1,16.9,8.1,16.9,8.1C16.9,8.1,16.9,8.1,16.9,8.1C17,8.2,16.9,8.2,16.9,8.1
		C16.9,8.2,16.9,8.2,16.9,8.1z"/>
	<path class="st49" d="M17.1,8.6C17.1,8.6,17.2,8.6,17.1,8.6C17.1,8.7,17.1,8.7,17.1,8.6C17.1,8.7,17.1,8.7,17.1,8.6
		C17,8.6,17.1,8.6,17.1,8.6z"/>
	<path class="st50" d="M11.9,7.9C11.9,7.9,11.9,7.9,11.9,7.9c0,0.1,0,0.1,0,0.1C11.8,8,11.8,8,11.9,7.9C11.8,7.9,11.8,7.9,11.9,7.9z
		"/>
	<path class="st48" d="M16.8,7.9C16.8,7.9,16.7,7.9,16.8,7.9C16.7,7.9,16.7,7.9,16.8,7.9C16.7,7.8,16.7,7.8,16.8,7.9
		C16.7,7.8,16.7,7.9,16.8,7.9z"/>
	<path class="st51" d="M11.7,8.1C11.7,8.1,11.7,8.2,11.7,8.1c0,0.1,0,0.1,0,0.1C11.6,8.2,11.6,8.2,11.7,8.1
		C11.6,8.2,11.6,8.2,11.7,8.1z"/>
	<path class="st52" d="M16,6.3c0-0.1,0-0.1,0-0.2C16,6.2,16,6.3,16,6.3z"/>
	<path class="st53" d="M15.7,13.1C15.7,13,15.7,13,15.7,13.1C15.7,13,15.7,13,15.7,13.1C15.8,13,15.8,13,15.7,13.1
		C15.7,13,15.7,13,15.7,13.1z"/>
	<path class="st47" d="M15.8,13C15.8,13,15.7,13,15.8,13C15.8,13,15.8,12.9,15.8,13C15.8,12.9,15.8,13,15.8,13
		C15.8,13,15.8,13,15.8,13z"/>
	<path class="st49" d="M11.4,8.6C11.4,8.6,11.4,8.6,11.4,8.6C11.3,8.6,11.3,8.5,11.4,8.6C11.4,8.5,11.4,8.5,11.4,8.6
		C11.4,8.5,11.4,8.5,11.4,8.6C11.4,8.6,11.4,8.6,11.4,8.6z"/>
	<path class="st53" d="M16.9,12.2C16.9,12.2,16.9,12.2,16.9,12.2C16.9,12.2,16.9,12.2,16.9,12.2z"/>
	<path class="st53" d="M17,11.3C17,11.3,17,11.3,17,11.3c0,0.1,0,0.2,0,0.2c0,0.2-0.1,0.3-0.2,0.4c-0.1,0-0.1,0.1-0.1,0.1
		c-0.1,0.1-0.3,0.3-0.4,0.3c0,0,0,0-0.1,0c0-0.1,0-0.1-0.1-0.2c-0.1-0.1-0.3-0.3-0.4-0.4c-0.1-0.1-0.1-0.1-0.2,0
		c-0.5,0.7-1.5,0.8-2.2,0.3c-0.4-0.3-0.7-0.8-0.8-1.3c-0.1-0.6-0.1-1.2,0.2-1.8c0-0.1,0-0.1,0-0.2c-0.2-0.2-0.4-0.4-0.6-0.6
		c-0.1-0.1-0.1-0.1-0.2,0c0,0.1-0.1,0.1-0.2,0.1c0,0,0,0,0-0.1c0-0.1,0-0.1,0-0.1C11.9,8.1,12,8,12.1,7.8c0.1-0.2,0.3-0.2,0.5-0.3
		c0.4,0,0.7-0.1,1.1-0.1c0.1,0,0.2,0,0.3,0c0.2,0,0.4,0,0.6,0c0.1,0,0.2,0.1,0.3,0c0.1,0,0.1,0,0.2,0c0.1,0,0.1,0,0.2,0
		c0,0,0.1,0,0.1,0.1c0,0.1,0,0.1-0.1,0.1c-0.1,0-0.2,0-0.3,0c-0.5-0.1-0.9,0-1.4,0c-0.4,0-0.9,0.1-1.3,0.1c-0.1,0-0.2,0.1-0.2,0.2
		c0,0.1,0,0.1,0,0.2c0.2,0.2,0.4,0.4,0.6,0.6c0.1,0.1,0.1,0,0.2,0c0.1-0.2,0.3-0.3,0.6-0.4c0.5-0.3,1.3-0.2,1.8,0.3
		c0.4,0.4,0.6,0.9,0.6,1.5c0,0.4,0,0.7-0.1,1.1c0,0.1-0.1,0.3-0.2,0.4c0,0.1,0,0.1,0,0.2c0.2,0.2,0.3,0.3,0.5,0.5
		c0,0.1,0.1,0.1,0.2,0c0.2-0.2,0.4-0.3,0.4-0.6C16.9,11.5,16.9,11.4,17,11.3z"/>
	<path class="st54" d="M14.7,7.5c-0.2,0-0.4,0-0.6,0c-0.1,0-0.2,0-0.3,0c-0.5,0-0.9,0.1-1.3,0.1c0,0-0.1,0-0.1,0.1
		c-0.2,0.2-0.3,0.4-0.5,0.6c0,0.1,0,0.2-0.1,0.2c0,0.1-0.1,0.1-0.1,0.2c-0.1,0-0.1-0.1-0.2-0.1c0,0-0.1-0.1-0.1-0.1c0,0,0,0,0,0
		c0,0,0.1-0.1,0.1-0.1c0-0.1,0.1-0.1,0.1-0.2c0,0,0-0.1,0.1-0.1c0-0.1,0.1-0.1,0.1-0.2c0,0,0-0.1,0.1-0.1c0,0,0.1-0.1,0.1-0.1
		c0-0.1,0.1-0.1,0.1-0.2c0.1-0.1,0.2-0.1,0.3-0.2c0.1,0,0.1,0,0.2,0c0.6-0.1,1.1-0.1,1.7-0.1c0.2,0,0.5,0,0.7,0
		c0.4,0,0.7,0.1,1.1,0.1c0.1,0,0.1,0,0.2,0c0.1,0,0.2,0.1,0.2,0.1c0.1,0.1,0.1,0.2,0.2,0.3c0,0,0,0.1,0.1,0.1c0,0.1,0.1,0.1,0.1,0.2
		c0,0,0,0.1,0.1,0.1c0,0.1,0.1,0.1,0.1,0.2c0,0,0,0.1,0.1,0.1c0,0.1,0.1,0.1,0,0.2c0,0-0.1,0-0.1,0.1c0,0-0.1,0-0.1,0
		c0-0.1,0-0.1-0.1-0.1c0-0.1-0.1-0.2-0.2-0.3c-0.1-0.2-0.2-0.3-0.4-0.5c-0.1-0.1-0.3-0.1-0.4-0.1c-0.1,0-0.3,0-0.4-0.1
		c0,0-0.1,0-0.1,0c-0.1,0-0.1,0-0.2,0c-0.1,0-0.1,0-0.2,0C14.9,7.5,14.8,7.5,14.7,7.5z"/>
	<path class="st55" d="M16.3,12.4C16.3,12.4,16.3,12.4,16.3,12.4c-0.2,0.2-0.5,0.3-0.7,0.5c-0.4,0.2-0.8,0.4-1.2,0.7
		c0,0-0.1,0-0.1,0c-0.5-0.4-1-0.6-1.5-0.9c-0.2-0.1-0.5-0.3-0.7-0.4c-0.4-0.3-0.5-0.7-0.4-1.2c0.1-0.2,0.1-0.4,0.2-0.6
		c0.1-0.2,0.2-0.5,0.3-0.8c0,0,0.1,0,0.1,0c0,0.1,0,0.2,0,0.3c-0.1,0.3-0.3,0.7-0.4,1c-0.1,0.3-0.1,0.5,0,0.8
		c0.1,0.2,0.3,0.3,0.5,0.5c0.2,0.2,0.5,0.3,0.7,0.4c0.4,0.2,0.8,0.4,1.2,0.7c0,0,0.1,0.1,0.2,0c0.4-0.3,0.8-0.5,1.2-0.7
		c0.2-0.1,0.3-0.2,0.5-0.3C16.1,12.4,16.2,12.3,16.3,12.4z"/>
	<path class="st56" d="M12.1,9.7C12.1,9.7,12.1,9.6,12.1,9.7c0.1-0.5-0.1-0.8-0.4-1.1c-0.1-0.1,0-0.2,0.1-0.2c0,0,0,0,0,0
		c0,0.1,0.1,0.2,0.2,0.3c0.2,0.3,0.3,0.5,0.2,0.9C12.2,9.6,12.2,9.7,12.1,9.7z"/>
	<path class="st57" d="M15.5,7.6c0.2,0,0.5,0.1,0.7,0.1c0.1,0,0.1,0,0.1,0.1c0.2,0.2,0.4,0.5,0.5,0.7c0.1,0.1,0,0.1,0,0.2
		c-0.2,0.2-0.4,0.4-0.4,0.7c0,0.2,0,0.3,0,0.5c0,0,0,0.1,0,0.1c-0.1-0.1-0.1-0.2-0.1-0.3c0-0.4,0-0.7,0.3-0.9c0.1-0.1,0.1-0.2,0-0.3
		c-0.1-0.1-0.2-0.3-0.4-0.4c-0.1-0.1-0.2-0.2-0.4-0.2c-0.2,0-0.3,0-0.5-0.1C15.5,7.7,15.4,7.7,15.5,7.6C15.4,7.6,15.5,7.6,15.5,7.6z
		"/>
	<path class="st58" d="M16.5,9.8C16.5,9.8,16.5,9.8,16.5,9.8c0.2,0.4,0.4,0.8,0.5,1.2c0,0,0,0,0,0.1c0,0,0,0.1,0,0.1
		c0,0-0.1-0.1-0.1-0.1c-0.1-0.4-0.3-0.7-0.4-1.1C16.5,10,16.4,9.9,16.5,9.8z"/>
	<path class="st58" d="M17,11.3c0,0.1,0,0.2,0,0.2c-0.1-0.1-0.1-0.2-0.1-0.2c0,0,0-0.1,0.1-0.1C17,11.2,17,11.3,17,11.3z"/>
	<path class="st59" d="M17,11.6c0-0.1,0-0.1,0-0.2C17.1,11.4,17.1,11.5,17,11.6z"/>
	<path class="st53" d="M17,11.2C17,11.2,17,11.3,17,11.2C16.9,11.3,16.9,11.2,17,11.2C17,11.2,17,11.1,17,11.2
		C17,11.2,17,11.2,17,11.2z"/>
	<path class="st60" d="M14.5,7.2c-0.1,0-0.3,0-0.4,0c0,0,0,0,0,0c-0.1-0.2,0-0.3,0.1-0.4c0.1-0.1,0.2-0.1,0.3,0.1
		C14.5,7,14.6,7.1,14.5,7.2z"/>
	<path class="st61" d="M13.9,7.2c-0.3,0-0.6,0.1-0.8,0.1c0-0.1,0-0.1,0.1-0.1c0.1,0,0.2,0,0.2,0c0.1,0,0.2,0,0.4-0.1
		C13.8,7.1,13.9,7.1,13.9,7.2z"/>
	<path class="st62" d="M13.7,6.5c0.2,0,0.4,0,0.6,0c0.1,0.1,0,0.2-0.1,0.2c-0.1,0-0.2,0-0.2,0c-0.1,0-0.2,0-0.2,0
		C13.6,6.7,13.6,6.6,13.7,6.5C13.6,6.5,13.6,6.5,13.7,6.5z"/>
	<path class="st63" d="M13.7,6.5c0,0-0.1,0-0.1,0c-0.2,0-0.4,0-0.5,0.1c-0.1,0-0.2,0-0.3-0.1c0.2,0,0.3,0,0.5-0.1c0,0,0,0,0.1,0
		c0.2,0,0.4-0.1,0.6,0c0.1,0.1,0,0.1,0,0.1C13.8,6.4,13.7,6.4,13.7,6.5z"/>
	<path class="st64" d="M12.6,6.3c0-0.1,0-0.2,0.1-0.2c0.1,0,0.2,0,0.3,0.1c0,0-0.1,0.1-0.1,0.1C12.8,6.4,12.7,6.5,12.6,6.3z"/>
	<path class="st65" d="M12.9,7.1c0,0-0.1,0-0.2,0C12.8,7,12.9,7,13,7c0.1-0.1,0.2-0.1,0.3,0c0,0.1,0,0.2-0.1,0.1c0,0-0.1,0-0.1,0
		C13,7.2,13,7.1,12.9,7.1z"/>
	<path class="st66" d="M14.1,6.8c0,0.1-0.1,0.1-0.2,0.1c0,0,0-0.1,0-0.1c0-0.1,0.1,0,0.1-0.1c0.1,0,0.2,0,0.4,0c0.2,0,0.2,0,0.3,0.2
		c-0.1,0.1-0.2,0.1-0.2,0C14.4,6.8,14.3,6.8,14.1,6.8C14.2,6.8,14.2,6.8,14.1,6.8z"/>
	<path class="st67" d="M12.9,6.7c0-0.1,0.1-0.1,0.1-0.1c0.1,0,0.3,0,0.4,0c0,0,0.1,0,0.1,0c0,0,0,0,0,0c-0.1,0-0.1,0.1-0.2,0.1
		C13.1,6.8,13,6.8,12.9,6.7z"/>
	<path class="st68" d="M13.6,6.8c0,0.1,0,0.1,0,0.2c0,0.1-0.1,0.2-0.2,0.1c0,0,0,0,0,0c0-0.1,0-0.2,0-0.3c0-0.1,0.1-0.1,0.2-0.1
		C13.6,6.7,13.6,6.8,13.6,6.8z"/>
	<path class="st69" d="M13.9,6.4c-0.2,0-0.4,0-0.7,0c0,0-0.1,0-0.1,0c0-0.1,0-0.1,0.1-0.1c0,0,0,0,0.1,0c0.1,0,0.1,0,0.2,0
		c0,0,0.1,0,0.1,0c0.1,0,0.2,0,0.3,0c0.1,0,0.1,0,0.2,0c0,0,0.1,0,0.1,0c0.1,0,0.2,0,0.3,0.1c0,0,0,0,0,0
		C14.2,6.4,14.1,6.4,13.9,6.4z"/>
	<path class="st70" d="M14,7c-0.1,0-0.2,0-0.3,0c0,0-0.1,0-0.1,0c0-0.1,0-0.1,0.1-0.1c0.1,0,0.2,0,0.3,0C14.1,7,14.1,7,14,7z"/>
	<path class="st71" d="M12.9,6.7c0.1,0.1,0.2,0,0.4,0c0,0,0,0,0.1,0.1c-0.1,0-0.1,0.1-0.1,0.1c0,0,0,0,0,0.1c-0.1,0-0.2,0-0.3,0
		c0,0,0,0-0.1,0c0,0,0-0.1,0-0.1C13,6.9,13,6.8,12.9,6.7C12.9,6.8,12.9,6.7,12.9,6.7z"/>
	<path class="st72" d="M14.5,6.7c-0.1,0-0.3,0-0.4,0c0,0-0.1,0-0.1,0c0.1,0,0.1,0,0.2,0c0.1,0,0.2,0,0.1-0.1c0,0,0,0,0.1,0
		c0,0.1,0.1,0.1,0.2,0.1c0.1,0,0.1,0,0.1,0.1C14.6,6.7,14.5,6.7,14.5,6.7z"/>
	<path class="st68" d="M14.5,6.9c0-0.1-0.1-0.1-0.2-0.1c-0.1,0-0.1,0.1-0.1,0.2c0,0.1,0,0.1,0,0.2c-0.1,0,0-0.1-0.1-0.1
		c0-0.1,0-0.1,0.1-0.2c0,0,0,0,0-0.1c0,0,0.1-0.1,0.1-0.1C14.3,6.8,14.5,6.7,14.5,6.9C14.5,6.9,14.5,6.9,14.5,6.9z"/>
	<path class="st73" d="M13.2,6.4c0,0-0.1,0-0.1,0c0,0-0.1,0-0.1,0c0-0.1,0-0.2,0-0.2c0.1,0,0,0.1,0.1,0.1c0,0,0.1,0,0.1,0
		C13.2,6.3,13.2,6.3,13.2,6.4z"/>
	<path class="st74" d="M13,6.8c0,0,0.1-0.1,0.1,0c0,0.1-0.1,0.1-0.1,0.1c0,0,0,0-0.1,0c0,0-0.1,0-0.1,0C12.9,6.8,12.9,6.8,13,6.8z"
		/>
	<path class="st75" d="M13.8,6.9c-0.1,0-0.1,0-0.1-0.1c0-0.1,0.1-0.1,0.1-0.1c0,0,0.1,0,0.1,0.1C13.9,6.9,13.9,6.9,13.8,6.9z"/>
	<path class="st76" d="M13.3,6.9c0,0-0.1,0.1-0.1-0.1c0-0.1,0.1-0.1,0.2-0.1C13.3,6.8,13.3,6.9,13.3,6.9z"/>
	<path class="st77" d="M14,7.2C14,7.2,13.9,7.2,14,7.2C13.9,7.2,13.9,7.2,14,7.2c-0.1-0.1-0.1-0.1,0-0.1C14,7.1,14,7.2,14,7.2
		C14,7.2,14,7.2,14,7.2z"/>
	<path class="st78" d="M12.9,7.1c0,0,0.1,0,0.1,0c0,0,0,0,0,0c0,0,0,0.1-0.1,0.1c0,0,0,0,0,0C12.9,7.3,13,7.2,12.9,7.1
		C13,7.2,12.9,7.1,12.9,7.1z"/>
	<path class="st79" d="M14.1,6.9c0,0.1,0,0.1-0.1,0.2c0,0,0,0,0,0C14,7,14,7,14.1,6.9C14.1,6.9,14.1,6.9,14.1,6.9z"/>
	<path class="st80" d="M14.2,6.8C14.2,6.8,14.2,6.8,14.2,6.8C14.1,6.8,14.1,6.8,14.2,6.8C14.2,6.8,14.2,6.8,14.2,6.8
		C14.2,6.7,14.2,6.8,14.2,6.8z"/>
	<path class="st81" d="M14.1,6.3c0,0-0.1,0-0.1,0c0,0,0-0.1,0-0.1c0.1,0,0.1-0.1,0.1-0.2c0.1,0,0.2,0,0.3,0c0.1,0,0.1,0,0.1,0.1
		c0,0.2,0.2,0.1,0.3,0.1c0.1,0,0.1,0,0.1-0.1C14.9,6,15,6,15,6c0,0,0.1,0,0.1,0c0,0,0.1,0,0.1,0c0,0.2,0.2,0.1,0.3,0.2
		c0,0,0,0,0.1,0c0.1,0,0-0.2,0.1-0.1c0,0,0.1,0,0.1,0c0.1,0,0.2,0.1,0.1,0.2c0,0,0,0.1-0.1,0.1c-0.2,0.1-0.5,0-0.7,0
		c-0.2,0-0.5,0-0.7-0.1C14.4,6.3,14.2,6.3,14.1,6.3z"/>
	<path class="st82" d="M13.9,6.4c0.2,0,0.4,0,0.5,0c0,0,0,0,0,0c0.4,0,0.9,0,1.3,0.1c0.1,0,0.1,0,0,0.1c-0.1,0-0.1,0-0.2,0
		c-0.5-0.1-1-0.1-1.6-0.1c-0.1,0-0.2,0-0.3,0c0,0-0.1,0-0.1,0C13.7,6.4,13.8,6.4,13.9,6.4z"/>
	<path class="st83" d="M15.6,7.3c-0.1,0-0.2,0-0.4,0c-0.1,0-0.3,0-0.4,0c0,0-0.1-0.1,0-0.1c0-0.1,0.1-0.1,0.1-0.1c0,0,0.1,0,0.1,0
		c0.1,0,0.1,0,0.2,0.1c0.1,0,0.3-0.1,0.4,0C15.6,7.2,15.6,7.2,15.6,7.3z"/>
	<path class="st84" d="M14.7,6.7c-0.1,0-0.1,0-0.2,0c-0.1,0-0.2,0-0.1-0.1c0.2,0,0.4,0,0.6,0c0,0,0.1,0,0.1,0c0,0,0,0.1,0,0.1
		C14.9,6.7,14.8,6.7,14.7,6.7z"/>
	<path class="st85" d="M15.8,6.5c-0.5-0.1-0.9-0.1-1.4-0.1c0,0,0,0,0,0c0,0,0,0,0.1,0c0.4,0,0.8,0,1.2,0.1c0.1,0,0.2,0,0.2,0
		C15.9,6.4,15.8,6.5,15.8,6.5z"/>
	<path class="st83" d="M15.8,7.1c0,0-0.1,0-0.1,0c0,0-0.1,0-0.1,0c-0.1,0-0.1,0-0.2,0c-0.1,0-0.2-0.1-0.1-0.2c0.1,0,0.1,0,0.2,0
		c0,0,0.1,0,0.1,0c0,0,0.1,0,0.1,0C15.8,7,15.8,7,15.8,7.1z"/>
	<path class="st86" d="M15.7,6.7C15.7,6.8,15.6,6.7,15.7,6.7c-0.1,0.1-0.2,0.1-0.2,0.1c-0.1,0-0.2,0-0.3-0.1c0,0,0,0,0,0
		c0,0,0,0,0,0C15.3,6.6,15.4,6.6,15.7,6.7C15.6,6.6,15.6,6.6,15.7,6.7z"/>
	<path class="st87" d="M15,6.7c0.2,0,0.2,0,0.2,0.2c0,0.1,0,0.1,0,0.2c0,0.1-0.1,0.1-0.1,0.1c-0.1,0-0.2,0-0.2-0.1
		C14.9,6.9,14.8,6.8,15,6.7z"/>
	<path class="st88" d="M15,6.7c0,0.1,0,0.2,0,0.3c0,0,0,0.1-0.1,0.1C14.9,7,14.8,7,14.7,7c-0.1,0-0.1,0-0.1,0.1c0,0,0,0,0,0.1
		c0,0,0,0.1,0,0.1c0,0,0,0-0.1,0c0-0.1-0.1-0.2,0-0.3c0-0.1,0.1,0,0.2-0.1c0-0.2-0.1-0.1-0.2-0.1c0.1,0,0.2,0,0.2,0
		C14.8,6.7,14.9,6.7,15,6.7C15,6.7,15,6.7,15,6.7z"/>
	<path class="st89" d="M15.4,6.9c-0.1,0-0.1,0-0.1-0.1c0-0.1,0.1,0,0.2,0c0.1,0,0.1,0,0.1,0.1c0,0,0,0,0,0
		C15.5,6.9,15.4,6.9,15.4,6.9z"/>
	<path class="st7" d="M15.6,7.1c0,0,0.1,0,0.1,0c0,0,0,0,0,0c0,0,0,0.1-0.1,0.1c0,0,0,0-0.1,0C15.6,7.3,15.5,7.2,15.6,7.1
		C15.5,7.1,15.6,7.1,15.6,7.1z"/>
	<path class="st88" d="M15.1,7.1c0.1,0,0.1,0,0.1-0.1C15.3,7.2,15.2,7.1,15.1,7.1c0,0.1-0.1,0.1-0.2,0C15,7.1,15.1,7.2,15.1,7.1z"/>
	<path class="st90" d="M13.8,6.5c0.1-0.1,0.2,0,0.3,0C14,6.5,13.9,6.5,13.8,6.5z"/>
	<path class="st91" d="M15.4,6.9c0,0,0.1,0,0.1,0c0,0,0,0,0,0C15.5,6.9,15.5,6.9,15.4,6.9C15.4,7,15.3,7,15.4,6.9
		C15.3,6.9,15.3,6.9,15.4,6.9z"/>
	<path class="st6" d="M15.5,6.8C15.4,6.8,15.5,6.8,15.5,6.8c-0.1-0.1-0.1-0.1-0.1-0.1c0,0,0.1,0,0.1,0C15.6,6.7,15.5,6.8,15.5,6.8
		C15.5,6.8,15.5,6.8,15.5,6.8z"/>
	<path class="st92" d="M13,7.2c0.1,0,0,0.1,0,0.2c-0.1,0-0.2,0.1-0.3,0C12.7,7.2,12.9,7.2,13,7.2z"/>
	<path class="st7" d="M15.1,7.1c0,0-0.1,0-0.2,0c-0.1-0.1-0.1-0.1-0.2,0c-0.1,0,0,0.1,0,0.1c0,0,0,0,0,0c0,0-0.1-0.1-0.1-0.1
		c0,0,0,0,0,0c0.1-0.1,0.2-0.1,0.3,0c0,0,0-0.1,0.1-0.1C15,7.1,15,7.1,15.1,7.1z"/>
	<path class="st93" d="M14.5,6.9c0,0.1,0.1,0.2,0,0.3c0,0,0,0,0,0C14.5,7.1,14.5,7,14.5,6.9C14.5,6.9,14.5,6.9,14.5,6.9
		C14.5,6.9,14.5,6.9,14.5,6.9z"/>
	<path class="st94" d="M14.6,7.1c0.1,0,0.1,0.1,0.1,0.1c0,0-0.1,0-0.1,0C14.6,7.2,14.6,7.1,14.6,7.1z"/>
	<path class="st95" d="M13.8,6.3c-0.1,0-0.2,0-0.3,0c-0.1-0.1-0.1-0.2,0-0.3c0.2-0.1,0.2,0,0.3,0.1C13.8,6.2,13.9,6.3,13.8,6.3z"/>
	<path class="st96" d="M13.5,6c0,0.1,0,0.2,0,0.3c0,0-0.1,0-0.1,0c0,0-0.1,0-0.1,0c0,0,0,0-0.1,0c0,0,0-0.1,0-0.1
		C13.3,6.3,13.4,6.1,13.5,6C13.5,6,13.5,6,13.5,6z"/>
	<path class="st97" d="M13.8,6.3c0,0,0-0.1,0-0.1c0.1,0,0.1,0,0.2,0c0.1,0,0.2,0,0.2-0.2c0,0.1,0,0.1-0.1,0.2c0,0,0,0.1,0,0.1
		C14,6.3,13.9,6.3,13.8,6.3z"/>
	<path class="st98" d="M13.9,6C13.9,6.1,13.9,6.1,13.9,6C13.8,6.1,13.8,6.1,13.9,6C13.8,6,13.9,6.1,13.9,6C13.9,6,13.9,6,13.9,6z"/>
	<path class="st99" d="M13.2,6.2c-0.1,0-0.1,0-0.1,0c0,0,0,0,0,0C13.1,6.1,13.2,6.1,13.2,6.2z"/>
	<path class="st100" d="M15.6,7.3c0-0.1,0-0.2,0.1-0.1c0.1,0,0.2,0,0.2,0.2C15.8,7.3,15.7,7.3,15.6,7.3z"/>
	<path class="st101" d="M15.4,6.1c0,0,0.1-0.1,0.1,0C15.5,6.2,15.4,6.2,15.4,6.1z"/>
	<path class="st83" d="M15.5,6.8C15.5,6.8,15.5,6.8,15.5,6.8c0.1,0,0.2-0.1,0.3,0c0,0.1-0.1,0.1-0.1,0.1C15.6,7,15.5,7,15.5,6.8
		C15.5,6.9,15.5,6.9,15.5,6.8C15.5,6.9,15.5,6.9,15.5,6.8z"/>
	<path class="st7" d="M15.5,6.9c0,0,0.1,0,0.1,0.1C15.6,6.9,15.6,7,15.5,6.9C15.5,7,15.5,7,15.5,6.9C15.5,6.9,15.5,6.9,15.5,6.9z"/>
	<path class="st0" d="M17,11.2c0,0,0,0.1,0,0.1c0,0.1,0,0.2,0,0.3c-0.1,0.3-0.3,0.5-0.5,0.7c0,0-0.1,0-0.1,0
		c-0.2-0.2-0.4-0.4-0.6-0.6c-0.1-0.1,0-0.1,0-0.2c0.4-0.8,0.4-1.7,0-2.5c-0.5-1-1.8-1.2-2.5-0.4c-0.1,0.1-0.1,0.1-0.2,0.2
		c-0.1,0.1-0.1,0.1-0.2,0c-0.2-0.2-0.4-0.5-0.7-0.7c-0.1-0.1-0.1-0.1,0-0.2c0.1-0.3,0.4-0.2,0.6-0.3c0.7-0.1,1.4-0.1,2.1-0.1
		c0.2,0,0.3,0,0.5,0c0.2,0,0.5,0.1,0.7,0.1c0.1,0,0.1,0,0.2,0.1c0.2,0.2,0.3,0.4,0.5,0.6c0.1,0.1,0.1,0.1,0,0.2
		c-0.4,0.3-0.4,0.8-0.3,1.2c0.1,0.3,0.2,0.5,0.3,0.7C16.8,10.8,16.9,11,17,11.2z"/>
	<path class="st0" d="M12.1,9.7c0.1-0.4,0-0.8-0.3-1.1c-0.1-0.1-0.1-0.1,0-0.2C11.9,8.3,12,8.2,12,8.1c0-0.1,0.1-0.1,0.1,0
		c0.2,0.2,0.5,0.5,0.7,0.7c0.1,0.1,0,0.1,0,0.2c-0.4,0.8-0.4,1.6,0,2.4c0.5,1.1,1.8,1.3,2.6,0.5c0,0,0.1-0.1,0.1-0.1
		c0.1-0.2,0.1-0.2,0.3,0c0.2,0.2,0.3,0.3,0.5,0.5c0.1,0.1,0.1,0.1,0,0.2c-0.5,0.3-1,0.5-1.4,0.8c-0.2,0.1-0.3,0.2-0.4,0.3
		c0,0-0.1,0.1-0.1,0c-0.5-0.4-1-0.6-1.5-0.9c-0.3-0.2-0.6-0.4-0.9-0.6c-0.2-0.2-0.3-0.4-0.2-0.7c0.1-0.4,0.2-0.7,0.4-1.1
		C12.1,10,12.1,9.9,12.1,9.7z"/>
	<path class="st102" d="M14.2,12.3c-0.7,0-1.1-0.4-1.4-1c-0.1-0.3-0.2-0.6-0.2-0.9c0-0.1,0-0.1,0.1-0.1c0.4,0,0.9,0,1.3,0
		c0,0,0,0,0,0c0,0.1-0.1,0.1-0.1,0.1c-0.1,0.1-0.2,0.2-0.1,0.3c0,0,0,0,0,0.1c0,0,0,0.1,0,0.1c0.1,0.2,0.2,0.4,0.3,0.6
		c0,0,0,0.1,0.1,0.1c0,0.1,0,0.1,0.1,0.2c0,0,0,0,0,0.1c0,0,0,0,0,0.1c0,0.1,0,0.1,0,0.2C14.3,12.2,14.3,12.2,14.2,12.3z"/>
	<path class="st103" d="M14.2,10.3c0-0.1,0.1-0.1,0.1-0.1c0.5,0,0.9,0,1.4,0c0.1,0,0.1,0,0.1,0.1c0,0.4-0.1,0.8-0.3,1.2
		c0,0.1-0.1,0.1-0.2,0.1c0,0-0.1,0-0.1,0c-0.2-0.1-0.2-0.1-0.2-0.3c0-0.1,0-0.1,0.1-0.1c0.2-0.1,0.3-0.2,0.3-0.4
		c0-0.2-0.2-0.4-0.4-0.4c-0.2,0-0.2,0.1-0.3,0.1c-0.1,0.1-0.1,0.3-0.1,0.4c0,0,0,0,0,0.1c0,0.1,0.1,0.1,0.2,0.2
		c0.1,0.1,0.1,0.1,0.1,0.3c0,0,0,0,0,0c-0.2,0-0.3-0.1-0.5-0.2c0,0-0.1-0.1-0.1-0.1c-0.2-0.2-0.3-0.4-0.2-0.7
		C14.2,10.4,14.2,10.3,14.2,10.3z"/>
	<path class="st104" d="M14.3,11.8C14.3,11.8,14.3,11.8,14.3,11.8c0-0.1,0-0.2-0.1-0.2c-0.1-0.3-0.2-0.5-0.3-0.7c0,0,0-0.1,0-0.1
		c0,0,0,0,0,0c0-0.2,0-0.3,0.2-0.4c0,0,0.1,0,0.1-0.1c0,0,0,0,0,0c0,0,0,0,0,0.1c-0.1,0.3,0,0.6,0.2,0.8c0,0,0,0.1,0.1,0.1
		c0.1,0.1,0.3,0.2,0.5,0.2c0,0.1,0,0.2,0,0.3c0.1,0,0.1-0.1,0.1-0.1c0-0.1,0-0.1,0.2-0.1c0,0,0,0,0.1,0c0,0,0.1,0,0.1,0.1
		c0.1,0,0,0.1,0,0.1c-0.3,0.3-0.7,0.5-1.1,0.5c0-0.1,0-0.1,0-0.2C14.3,12,14.3,11.9,14.3,11.8z"/>
	<path class="st0" d="M15,10.2c-0.2,0.1-0.5,0-0.7,0c0,0-0.1,0,0-0.1c0,0,0-0.1,0.1-0.1c0.1-0.2,0.2-0.3,0.4-0.3
		c0.2,0,0.2,0,0.3,0.2c0,0,0,0.1,0.1,0.1C15.1,10,15.1,10.1,15,10.2C15.1,10.1,15.1,10.2,15,10.2z"/>
	<path class="st105" d="M15.1,10.1L15.1,10.1c0-0.1,0-0.2,0-0.2c0-0.1,0.1-0.1,0.1-0.2c0-0.1,0.1-0.1,0.1-0.2c0-0.1,0.1-0.1,0.2-0.1
		c0.2,0,0.2,0,0.2,0.1c0,0.1,0.1,0.2,0,0.3c-0.1,0-0.1,0-0.2,0c-0.1,0-0.2,0-0.2,0.1c-0.1,0.1-0.1,0.1-0.2,0.2
		C15.2,10.1,15.2,10.1,15.1,10.1z"/>
	<path class="st0" d="M15.8,9.8c0.1,0,0.1,0.3,0.1,0.4c0,0-0.1,0-0.1,0c-0.2,0-0.5,0-0.7,0c0,0,0-0.1,0-0.1c0.1-0.1,0.2-0.1,0.2-0.2
		C15.5,9.7,15.6,9.7,15.8,9.8z"/>
	<path class="st106" d="M14.2,10.2c-0.3,0-0.3,0-0.3-0.3c0-0.1,0-0.1,0-0.2c0,0,0,0,0.1,0c0,0,0,0,0,0c0.1,0,0.1,0,0.1-0.1
		c0-0.1,0.1-0.1,0.1-0.1c0,0,0.1-0.1,0.1-0.1c0,0,0.1-0.1,0.1-0.1c0,0,0.1-0.1,0.2-0.1c0,0,0,0.1,0,0.1c0,0,0,0,0,0.1
		c0,0-0.1,0.1-0.1,0.1c0,0-0.1,0.1-0.1,0.1c0,0-0.1,0.1-0.1,0.1c0,0.1-0.1,0.1-0.1,0.2c0,0,0,0,0,0c0,0,0,0.1,0,0.1c0,0,0,0,0,0
		c0,0,0.1,0,0.1,0.1C14.3,10.1,14.3,10.1,14.2,10.2C14.3,10.1,14.2,10.2,14.2,10.2z"/>
	<path class="st107" d="M13.8,9.9c0,0.1,0,0.1,0,0.2c0,0.1,0,0.1-0.1,0.1c-0.1,0-0.1,0-0.1-0.1c0-0.1,0-0.1-0.1-0.1
		c-0.1,0-0.1,0.1-0.1,0.1c0,0.1-0.1,0.1-0.2,0.1c-0.1-0.1-0.1-0.1,0-0.2c0-0.1,0.1,0,0.2,0C13.6,9.9,13.7,9.9,13.8,9.9z"/>
	<path class="st108" d="M14.4,8.2c0.2,0,0.3,0,0.4,0.1c0,0,0,0,0,0.1c0,0-0.1,0.1-0.1,0.1c0,0,0,0,0,0c0,0,0,0-0.1,0
		c-0.1,0-0.2-0.1-0.3-0.2C14.3,8.3,14.4,8.2,14.4,8.2z"/>
	<path class="st109" d="M15.3,8.5c0.1,0.1,0.2,0.2,0.3,0.3c0,0,0,0.1-0.1,0.1c0,0-0.1,0-0.1,0c0,0-0.1,0-0.1,0c0,0,0,0-0.1-0.1
		c-0.1-0.1-0.1-0.1-0.1-0.2C15.2,8.6,15.2,8.5,15.3,8.5z"/>
	<path class="st110" d="M13.8,9.7c0,0.2,0,0.2-0.2,0.2c-0.1,0-0.2,0-0.3,0c-0.1-0.1-0.1-0.1,0-0.2C13.5,9.6,13.7,9.6,13.8,9.7z"/>
	<path class="st111" d="M14.8,8.3C14.8,8.3,14.8,8.3,14.8,8.3c0.2,0,0.3,0.1,0.4,0.2c0,0.1-0.1,0.1-0.1,0.1
		C15,8.6,14.9,8.5,14.8,8.3C14.8,8.4,14.8,8.4,14.8,8.3z"/>
	<path class="st112" d="M13.5,9.3C13.5,9.4,13.5,9.4,13.5,9.3c-0.1,0.1-0.1,0-0.1-0.1c0-0.1,0-0.1,0-0.2c0-0.1,0-0.1,0.1-0.1
		c0,0,0,0,0,0c0,0.1,0.1,0.1,0.1,0c0,0,0,0,0.1,0c0,0,0,0,0,0c0,0.1,0,0.1,0,0.2c0,0,0,0.1,0,0.1c0,0,0,0,0,0.1c0,0,0,0-0.1,0
		C13.6,9.3,13.6,9.3,13.5,9.3C13.5,9.3,13.5,9.3,13.5,9.3z"/>
	<path class="st113" d="M15,9.9c0-0.1,0-0.2-0.1-0.2c-0.1,0-0.2,0-0.3,0.1c-0.1,0.1-0.1,0.1-0.2,0.2c0,0,0,0,0,0c0,0,0,0,0,0
		c0,0,0,0,0-0.1c0,0,0,0,0.1-0.1c0-0.1,0.1-0.1,0.1-0.1c0,0,0.1-0.1,0.1-0.1c0.1,0,0.1,0,0.2,0c0,0,0.1,0,0.1,0c0,0,0.1,0,0.1,0
		C15.1,9.7,15.1,9.8,15,9.9C15.1,9.9,15.1,9.9,15,9.9z"/>
	<path class="st114" d="M15.6,9.3C15.6,9.3,15.5,9.3,15.6,9.3c-0.1,0.1-0.1,0.1-0.2,0.1c-0.1-0.1-0.1-0.1-0.1-0.2
		c0-0.1,0.1-0.1,0.1-0.2c0,0,0.1,0,0.1,0C15.6,9,15.6,9.1,15.6,9.3z"/>
	<path class="st115" d="M12.8,9.6c0-0.1,0-0.1,0.1-0.2c0,0,0.1,0,0.1,0c0,0,0.1,0.1,0.1,0.1c0,0,0.1,0.1,0.1,0.1c0,0,0,0,0,0
		c0,0,0,0.1-0.1,0.1c-0.1,0-0.1,0-0.2-0.1C12.8,9.7,12.8,9.7,12.8,9.6z"/>
	<path class="st116" d="M13.4,9.5c0.1,0,0.2,0,0.3,0c0.1,0,0.1,0,0.2,0c0,0,0,0.1,0,0.1c-0.1,0.1-0.3,0-0.4,0
		C13.3,9.6,13.3,9.5,13.4,9.5z"/>
	<path class="st117" d="M14,8.2C14,8.2,14,8.2,14,8.2c0.1,0,0.3,0,0.4,0.1c0,0,0,0,0,0c0,0,0,0.1-0.1,0.1c-0.1,0-0.2,0-0.3-0.1
		C13.9,8.3,14,8.3,14,8.2z"/>
	<path class="st118" d="M13.3,10.2c-0.1,0-0.2,0-0.3,0c0,0-0.1,0-0.2-0.1c0-0.1,0.1-0.1,0.1-0.1c0,0,0,0,0,0c0,0,0.1,0,0.1-0.1
		c0,0,0,0,0-0.1c0,0,0,0,0.1-0.1c0,0,0,0,0,0c0,0,0,0,0.1,0c0,0,0,0,0.1,0c0,0,0,0,0,0c0,0,0,0,0,0.1c0,0,0,0,0,0.1
		c-0.1,0.1-0.1,0.1-0.1,0.2C13.1,10.1,13.3,10.1,13.3,10.2C13.3,10.2,13.3,10.2,13.3,10.2z"/>
	<path class="st119" d="M14.4,11.2c-0.2-0.2-0.3-0.5-0.2-0.8c0,0,0-0.1,0-0.1c0,0,0,0,0.1,0C14.1,10.6,14.2,10.9,14.4,11.2
		C14.4,11.2,14.4,11.2,14.4,11.2z"/>
	<path class="st120" d="M15.6,9.3c0-0.1-0.1-0.2-0.1-0.3c0,0,0,0,0,0c0,0,0-0.1,0.1,0c0.1,0.1,0.1,0.2,0.1,0.2
		C15.7,9.3,15.6,9.2,15.6,9.3z"/>
	<path class="st121" d="M13.6,8.3c0.1-0.1,0.2-0.1,0.4-0.1c0,0.1,0,0.1,0,0.2c0,0,0,0-0.1,0C13.8,8.5,13.7,8.5,13.6,8.3
		C13.6,8.4,13.6,8.4,13.6,8.3z"/>
	<path class="st122" d="M13.3,8.6c0.1-0.1,0.2-0.2,0.3-0.2c0.1,0.1,0,0.1,0,0.2C13.5,8.7,13.4,8.7,13.3,8.6
		C13.3,8.7,13.3,8.6,13.3,8.6z"/>
	<path class="st123" d="M15.8,9.8c-0.1,0-0.1,0-0.2,0c-0.1,0-0.2,0-0.3,0.1c-0.1,0.1-0.2,0.2-0.3,0.3c0,0,0,0,0,0c0,0,0-0.1,0.1-0.1
		c0.1,0,0.2-0.1,0.2-0.2C15.5,9.7,15.6,9.7,15.8,9.8C15.8,9.8,15.8,9.8,15.8,9.8z"/>
	<path class="st124" d="M13.3,10.2C13.3,10.2,13.3,10.2,13.3,10.2c-0.1-0.2-0.1-0.3,0-0.4c0,0,0,0,0-0.1c0,0,0,0,0.1,0
		c0,0.1,0,0.1,0,0.2c0.1,0.1,0.2,0,0.3,0c0.1,0,0.1,0,0.2,0c-0.1,0-0.2,0-0.3,0c-0.1,0-0.2,0-0.2,0.2C13.4,10.1,13.4,10.1,13.3,10.2
		C13.4,10.2,13.3,10.2,13.3,10.2z"/>
	<path class="st125" d="M13.4,9.7C13.3,9.7,13.3,9.7,13.4,9.7C13.3,9.7,13.3,9.7,13.4,9.7c-0.1,0-0.1-0.1-0.1-0.1c0,0,0-0.1,0-0.1
		c0,0,0,0,0,0c0,0,0,0,0,0c0,0.1,0,0.2,0.1,0.1c0.1,0,0.2,0,0.3,0c0,0,0,0,0,0.1C13.7,9.7,13.5,9.7,13.4,9.7z"/>
	<path class="st126" d="M13.9,9.5C13.8,9.4,13.8,9.4,13.9,9.5c-0.1-0.1-0.1-0.1-0.1-0.1c0,0,0-0.1,0-0.2c0,0,0,0,0,0
		c0.1,0,0.1,0,0.2,0c0,0,0,0,0,0.1C14,9.3,14,9.4,13.9,9.5C13.9,9.5,13.9,9.5,13.9,9.5z"/>
	<path class="st127" d="M12.9,10C12.9,10,13,10,12.9,10c0,0.2,0,0.1-0.1,0.1c0,0,0,0-0.1,0c0,0-0.1,0-0.1-0.1c0,0,0-0.1,0-0.1
		C12.8,9.8,12.9,9.9,12.9,10z"/>
	<path class="st128" d="M14.3,8.3c-0.1-0.1-0.2,0-0.3-0.1c0.1,0,0.3-0.1,0.4,0C14.4,8.3,14.4,8.3,14.3,8.3z"/>
	<path class="st129" d="M12.9,9.2C12.9,9.1,13,9,13,8.9c0.1,0,0.1,0,0.1,0.1c0,0,0,0,0,0C13.1,9.1,13.1,9.2,12.9,9.2
		C12.9,9.2,12.9,9.2,12.9,9.2z"/>
	<path class="st130" d="M12.8,10.1C12.8,10.1,12.8,10.1,12.8,10.1c0.1,0.1,0.2,0,0.2,0.1c-0.1,0-0.1,0-0.2,0c-0.1,0-0.1,0-0.1-0.1
		C12.7,10,12.8,10,12.8,10.1z"/>
	<path class="st131" d="M13,8.9c0.1-0.1,0.1-0.2,0.2-0.2c0,0,0,0,0.1,0.1c0,0,0,0.1,0,0.1C13.3,8.9,13.2,8.9,13,8.9
		C13.1,8.9,13,8.9,13,8.9z"/>
	<path class="st132" d="M12.9,9.5C12.9,9.5,12.8,9.5,12.9,9.5c-0.1-0.1,0-0.2,0-0.3C13,9.2,13,9.3,13,9.4C13,9.4,13,9.5,12.9,9.5z"
		/>
	<path class="st133" d="M12.7,9.8c0,0,0-0.1,0-0.1c0,0,0.1,0,0.1,0c0,0,0.1,0,0.1,0.1c0,0,0,0.1,0,0.1C12.8,9.9,12.8,9.9,12.7,9.8z"
		/>
	<path class="st134" d="M15.4,9.4c0,0,0.1-0.1,0.1-0.1c0,0,0,0,0,0c-0.1,0.1-0.2,0.2-0.3,0.3c0,0,0,0,0,0c0,0,0,0,0,0
		c0,0,0-0.1,0-0.1C15.3,9.4,15.3,9.4,15.4,9.4z"/>
	<path class="st135" d="M15.1,8.6c0,0,0.1-0.1,0.1-0.1c0,0,0,0,0,0C15.2,8.6,15.2,8.6,15.1,8.6c0,0.1,0,0.2-0.1,0.2
		c0,0-0.1,0.1-0.1,0.1c0,0,0,0,0,0c0,0,0-0.1,0-0.1c0,0,0.1-0.1,0.1-0.1C15,8.7,15.1,8.7,15.1,8.6z"/>
	<path class="st136" d="M13.7,9.3C13.7,9.3,13.7,9.3,13.7,9.3c0,0.1,0.1,0.1,0,0.1c0,0,0,0-0.1,0c0,0-0.1,0-0.1-0.1c0,0,0,0,0,0
		c0,0,0,0,0,0C13.6,9.3,13.6,9.3,13.7,9.3z"/>
	<path class="st137" d="M14.4,9.9C14.4,9.9,14.4,10,14.4,9.9c0,0.1,0,0.1-0.1,0.1c0,0-0.2,0.1-0.1-0.1C14.2,9.9,14.3,9.9,14.4,9.9z"
		/>
	<path class="st138" d="M13.9,9.7C13.9,9.7,13.9,9.7,13.9,9.7C13.9,9.7,13.9,9.6,13.9,9.7c0-0.1,0-0.2,0-0.2c0,0,0.1,0,0.1,0.1
		c0,0,0,0,0,0C14,9.6,14,9.7,13.9,9.7z"/>
	<path class="st139" d="M13.3,9.4C13.3,9.4,13.3,9.4,13.3,9.4C13.3,9.5,13.3,9.4,13.3,9.4c-0.1-0.1,0-0.2,0-0.2c0,0,0.1,0,0.1,0
		c0,0,0,0.1,0,0.1C13.4,9.5,13.4,9.4,13.3,9.4z"/>
	<path class="st140" d="M13,9.4c-0.1,0-0.1-0.1-0.1-0.2c0,0,0,0,0,0c0,0,0.1,0,0.1,0c0.1,0,0.1,0.1,0.2,0.2c0,0,0,0.1,0,0.1
		C13.1,9.5,13.1,9.5,13,9.4C13,9.5,13,9.4,13,9.4z"/>
	<path class="st141" d="M13.6,8.3C13.6,8.4,13.6,8.4,13.6,8.3c0.1,0.1,0.1,0.2,0.1,0.2c0,0.1,0,0.1,0,0.2c0,0,0,0.1,0,0.1
		c0,0,0,0,0,0C13.5,8.7,13.6,8.5,13.6,8.3C13.6,8.4,13.6,8.3,13.6,8.3z"/>
	<path class="st142" d="M13.6,8.4c0,0.2,0,0.3,0,0.5c0,0,0,0,0,0c0,0,0-0.1,0-0.1c0-0.1,0-0.1,0-0.2C13.6,8.5,13.6,8.4,13.6,8.4
		C13.6,8.4,13.6,8.4,13.6,8.4z"/>
	<path class="st143" d="M14.3,12.1c0,0.1,0,0.1,0,0.2c0,0,0,0-0.1,0c0.1-0.1,0.1-0.3,0.1-0.4C14.4,11.9,14.3,12,14.3,12.1z"/>
	<path class="st144" d="M13.5,9.4c0.1,0,0.1-0.1,0.1,0.1C13.6,9.4,13.5,9.5,13.5,9.4z"/>
	<path class="st145" d="M12.7,9.8c0.1,0,0.1,0,0.2,0.1c0,0,0.1,0,0.1,0.1c0,0,0,0,0,0C12.9,9.9,12.8,9.9,12.7,9.8
		C12.7,9.9,12.7,9.8,12.7,9.8z"/>
	<path class="st146" d="M13.9,9.5c0,0,0,0.1-0.1,0.1C13.9,9.6,13.9,9.5,13.9,9.5C13.9,9.5,13.9,9.4,13.9,9.5
		C13.9,9.4,13.9,9.4,13.9,9.5C14,9.4,14,9.5,13.9,9.5z"/>
	<path class="st147" d="M13.7,7.5c0.1,0,0.2,0,0.3,0C13.9,7.6,13.8,7.5,13.7,7.5z"/>
	<path class="st147" d="M14.7,7.5c0.1,0,0.2,0,0.3,0C14.9,7.5,14.8,7.6,14.7,7.5z"/>
	<path class="st148" d="M14.3,8.3c0,0,0-0.1,0.1-0.1c0,0,0,0,0,0C14.4,8.3,14.4,8.3,14.3,8.3C14.4,8.4,14.4,8.4,14.3,8.3
		C14.4,8.4,14.3,8.4,14.3,8.3C14.3,8.3,14.3,8.3,14.3,8.3z"/>
	<path class="st149" d="M13.9,8.4c0,0,0-0.1,0-0.1c0,0,0,0,0,0C14,8.3,14,8.3,13.9,8.4C14,8.4,14,8.4,13.9,8.4
		C13.9,8.4,13.9,8.4,13.9,8.4z"/>
	<path class="st150" d="M13,8.9C13.1,8.9,13.1,8.9,13,8.9C13.1,8.9,13.1,9,13.1,9C13.1,9,13.1,9,13,8.9C13,8.9,13,8.9,13,8.9z"/>
	<path class="st151" d="M14.2,10.2C14.2,10.1,14.2,10.1,14.2,10.2C14.3,10.2,14.3,10.2,14.2,10.2z"/>
	<path class="st152" d="M14.2,10.3c0,0-0.1,0-0.1,0.1c0,0,0,0,0,0C14.1,10.3,14.1,10.3,14.2,10.3C14.2,10.3,14.2,10.3,14.2,10.3z"/>
	<path class="st153" d="M13.7,9.4C13.7,9.4,13.7,9.4,13.7,9.4c0-0.1,0-0.1,0-0.1C13.8,9.3,13.8,9.3,13.7,9.4
		C13.8,9.4,13.8,9.4,13.7,9.4C13.7,9.4,13.7,9.4,13.7,9.4z"/>
	<path class="st154" d="M12.8,9.7C12.8,9.7,12.8,9.7,12.8,9.7c-0.1-0.1-0.1-0.1-0.1-0.1C12.8,9.6,12.8,9.7,12.8,9.7
		C12.8,9.7,12.8,9.7,12.8,9.7z"/>
	<path class="st155" d="M15.4,11.6c0,0-0.1,0-0.1-0.1C15.3,11.6,15.3,11.6,15.4,11.6C15.4,11.6,15.4,11.6,15.4,11.6
		C15.4,11.6,15.4,11.6,15.4,11.6z"/>
	<path class="st156" d="M12.8,10.1c0,0-0.1,0-0.1,0C12.7,10,12.7,10,12.8,10.1C12.7,10,12.8,10,12.8,10.1z"/>
	<path class="st147" d="M15.2,7.5c0.1,0,0.1,0,0.2,0C15.3,7.6,15.3,7.6,15.2,7.5z"/>
	<path class="st157" d="M13.3,8.7C13.3,8.7,13.3,8.7,13.3,8.7c0-0.1,0-0.1,0-0.1C13.3,8.6,13.3,8.6,13.3,8.7
		C13.3,8.7,13.3,8.7,13.3,8.7C13.3,8.7,13.3,8.7,13.3,8.7z"/>
	<path class="st158" d="M15.5,8.9C15.5,8.9,15.5,8.9,15.5,8.9C15.5,9,15.4,9,15.5,8.9C15.5,8.9,15.5,8.9,15.5,8.9
		C15.5,8.9,15.5,8.9,15.5,8.9z"/>
	<path class="st159" d="M14.5,6.9C14.5,6.9,14.5,6.9,14.5,6.9c-0.1-0.1-0.2-0.1-0.3-0.1c0,0,0,0,0,0c0.1-0.1,0.2,0,0.3,0
		c0.1,0.1,0.1,0.1,0.2,0C14.6,6.9,14.5,6.8,14.5,6.9z"/>
	<path class="st6" d="M13.4,6.9c0-0.1,0-0.2,0.1-0.2c0.1,0,0,0.1,0,0.2c0,0,0,0.1,0,0.1c0,0-0.1,0-0.1,0C13.4,7,13.4,7,13.4,6.9z"/>
	<path class="st160" d="M14.5,6.3C14.5,6.3,14.4,6.3,14.5,6.3c-0.2,0-0.2,0-0.3,0C14.3,6.3,14.4,6.3,14.5,6.3z"/>
	<path class="st73" d="M13.3,6.4c0,0,0.1,0,0.1,0C13.4,6.4,13.3,6.4,13.3,6.4z"/>
	<path class="st6" d="M15,6.8c0-0.1,0-0.1,0.1-0.1c0.1,0,0.1,0.2,0.1,0.2c0,0,0,0.1-0.1,0.1C15,7,15.1,6.9,15,6.8z"/>
	<path class="st161" d="M14.9,7.1c-0.1,0-0.2,0-0.3,0c0,0,0-0.1-0.1-0.1C14.8,6.9,14.9,6.9,14.9,7.1z"/>
	<path class="st162" d="M14.9,6.9C14.8,6.9,14.8,6.9,14.9,6.9c-0.2,0-0.2-0.1-0.2-0.1c0-0.1,0,0,0.1,0c0,0,0.1,0,0.1,0
		C14.9,6.8,14.9,6.8,14.9,6.9z"/>
	<path class="st72" d="M14.9,6.9c0-0.1,0-0.1,0-0.2C14.9,6.8,14.9,6.8,14.9,6.9z"/>
	<path class="st163" d="M12.1,10.1c0.1,0,0.2-0.1,0.2-0.2c0,0.1,0.1,0.2,0.2,0.2c-0.1,0.1-0.1,0.1-0.1,0.2c-0.1-0.1-0.2,0-0.2,0
		C12.2,10.2,12.2,10.1,12.1,10.1z"/>
	<path class="st164" d="M12.6,9.2c-0.1-0.1-0.1-0.1-0.2,0c0-0.1,0.1-0.2-0.1-0.2c0.1,0,0.2-0.1,0.2-0.2c0,0.1,0.1,0.2,0.2,0.1
		C12.6,9,12.5,9.1,12.6,9.2z"/>
	<path class="st1" d="M12.7,11.9c-0.1,0.1-0.1,0.1-0.1,0.2c-0.1-0.1-0.2-0.1-0.2,0c0-0.1,0-0.2-0.1-0.3c0.1,0,0.2,0,0.2-0.1
		C12.5,11.8,12.5,11.9,12.7,11.9z"/>
	<path class="st165" d="M14.2,13.1c0-0.1,0-0.2-0.1-0.2c0.1,0,0.2,0,0.2-0.1c0,0.1,0.1,0.2,0.2,0.1c-0.1,0.1-0.2,0.1-0.1,0.2
		C14.3,13,14.2,13,14.2,13.1z"/>
	<path class="st166" d="M13.2,12.6c0.1-0.1,0-0.2-0.1-0.2c0.1,0,0.2,0,0.2-0.2c0,0.1,0.1,0.2,0.2,0.2c-0.1,0.1-0.1,0.1-0.1,0.2
		C13.3,12.6,13.2,12.6,13.2,12.6z"/>
	<path class="st167" d="M12,11.3c0-0.1,0-0.2-0.1-0.2c0.1,0,0.2-0.1,0.2-0.2c0,0.1,0.1,0.2,0.2,0.2c-0.1,0.1-0.2,0.1-0.1,0.2
		C12.2,11.2,12.1,11.2,12,11.3z"/>
	<path class="st167" d="M15.5,12.4c-0.1,0.1-0.1,0.1-0.1,0.2c-0.1,0-0.2-0.1-0.2,0c0-0.1,0-0.2-0.1-0.3c0.1,0,0.2,0,0.2-0.1
		C15.3,12.4,15.4,12.4,15.5,12.4z"/>
	<path class="st168" d="M13.7,11C13.7,11,13.7,11,13.7,11c0.1,0.1,0.2,0.1,0.2,0.2c-0.1,0.1-0.2,0.1-0.3,0.1c0,0-0.1,0-0.1,0.1
		c0,0-0.1,0-0.1,0c-0.1-0.2-0.2-0.4-0.1-0.7c0.1-0.1,0.1-0.2,0.2-0.2c0,0,0,0,0,0.1c0,0.1,0,0.2,0,0.2C13.6,10.9,13.6,10.9,13.7,11z
		"/>
	<path class="st169" d="M13.3,11.4C13.4,11.4,13.4,11.4,13.3,11.4c0.2,0,0.2-0.1,0.3-0.1c0,0,0.1,0.1,0.1,0.1
		c-0.1,0.1-0.3,0.1-0.4,0.1c-0.1,0-0.1,0-0.2,0c0,0-0.1,0-0.1,0c0-0.1,0.1,0,0.1-0.1C13.2,11.4,13.2,11.4,13.3,11.4
		C13.3,11.4,13.3,11.4,13.3,11.4z"/>
	<path class="st170" d="M13.7,11.3c-0.1,0.1-0.2,0.2-0.3,0c0.1-0.1,0.3-0.1,0.5-0.2c0,0,0,0,0,0c0,0,0.1,0,0.1,0.1
		C13.9,11.2,13.8,11.2,13.7,11.3C13.7,11.3,13.7,11.3,13.7,11.3z"/>
	<path class="st171" d="M13.9,10.9c0.1,0.2,0.3,0.5,0.4,0.7c0,0,0,0,0,0c-0.1-0.2-0.2-0.4-0.3-0.6C13.9,11,13.9,10.9,13.9,10.9
		C13.9,10.9,13.9,10.9,13.9,10.9z"/>
	<path class="st172" d="M13.3,11.4C13.3,11.4,13.3,11.4,13.3,11.4c0-0.1-0.1-0.1-0.1-0.1c-0.1-0.2-0.1-0.4,0-0.5c0,0,0,0,0,0
		C13.2,11,13.2,11.2,13.3,11.4z"/>
	<path class="st173" d="M13.5,10.8c-0.1-0.1,0-0.2,0-0.3c0,0,0,0,0,0c0,0,0.1-0.1,0.1-0.1C13.5,10.6,13.5,10.7,13.5,10.8
		C13.6,10.9,13.5,10.9,13.5,10.8z"/>
	<path class="st174" d="M14,10.3C14,10.3,14,10.3,14,10.3c-0.1,0.1-0.2,0.2-0.1,0.4c-0.1-0.1,0-0.2,0-0.3C13.9,10.4,14,10.3,14,10.3
		z"/>
	<path class="st175" d="M13.5,10.5C13.5,10.5,13.5,10.5,13.5,10.5c0,0.1-0.1,0.2-0.2,0.2c0,0,0,0,0,0C13.3,10.6,13.4,10.6,13.5,10.5
		z"/>
	<path class="st176" d="M13.9,11.1C13.9,11.1,13.8,11.1,13.9,11.1c-0.1,0-0.1,0-0.2-0.1C13.8,11,13.8,11.1,13.9,11.1z"/>
	<path class="st177" d="M14.3,11.6C14.3,11.6,14.3,11.6,14.3,11.6c0.1,0,0.1,0.1,0.1,0.1C14.3,11.8,14.3,11.7,14.3,11.6z"/>
	<path class="st178" d="M14.3,12.1c0-0.1,0-0.2,0-0.2c0,0,0,0,0,0C14.4,11.9,14.4,12,14.3,12.1z"/>
	<path class="st179" d="M13.5,10.8C13.5,10.8,13.6,10.8,13.5,10.8c0.1,0,0.1,0.1,0.1,0.1C13.6,11,13.6,10.9,13.5,10.8z"/>
	<path class="st180" d="M13.9,10.9C13.9,10.9,13.9,10.9,13.9,10.9c-0.1,0-0.1-0.1,0-0.1C13.9,10.8,13.9,10.8,13.9,10.9z"/>
	<path class="st181" d="M15,10.3c0.2,0,0.5,0.2,0.5,0.4c0,0,0,0,0,0c0,0-0.1,0-0.1,0c0,0-0.1,0-0.2,0c0,0,0,0-0.1,0c0,0,0,0,0-0.1
		c0,0,0,0-0.1,0c0,0,0,0,0,0C15,10.5,15,10.5,15,10.3C15,10.4,15,10.3,15,10.3z"/>
	<path class="st182" d="M15.3,11.6C15.3,11.6,15.3,11.6,15.3,11.6c-0.1,0-0.1,0-0.2,0c0,0.1,0,0.1,0,0.2c0,0.1,0,0.1-0.1,0.1
		c-0.1,0-0.1,0-0.1-0.1c0-0.1,0-0.2,0-0.2c0,0,0,0,0-0.1l0,0c0,0,0,0,0,0c0,0,0,0,0,0c0,0,0,0,0,0c0,0,0,0,0,0c0,0,0,0,0,0
		c0,0,0,0,0-0.1c0,0,0,0,0,0c0,0,0,0,0,0c0.1,0,0.1-0.1,0.1,0c0,0,0.1,0,0.1,0.1c0,0-0.1,0-0.1,0.1c-0.1,0.1-0.1,0.1-0.1,0.2
		c0,0.1,0,0.1,0.1,0.1C15.2,11.5,15.3,11.5,15.3,11.6z"/>
	<path class="st183" d="M14.6,11c-0.1-0.2,0-0.3,0.1-0.5c0.1,0,0.1,0,0.2,0c0,0,0,0.1,0,0.1c0,0,0,0,0,0c0,0,0,0,0,0
		c0.1,0,0.1,0.1,0,0.1c0,0-0.1,0-0.1,0.1c0,0,0,0,0,0C14.7,11.1,14.6,11,14.6,11z"/>
	<path class="st184" d="M15.2,11.2C15.2,11.2,15.2,11.1,15.2,11.2c0.1-0.1,0-0.2,0.1-0.3c0,0,0-0.1,0-0.1c-0.1,0-0.1-0.1,0-0.1
		c0.1,0,0.1,0,0.2,0c0,0,0.1,0,0.1,0.1c0.1,0.1,0,0.2-0.1,0.3C15.4,11.1,15.3,11.2,15.2,11.2z"/>
	<path class="st185" d="M15,11.2C15,11.2,15,11.2,15,11.2C15,11.3,15,11.3,15,11.2c0,0.1,0,0.1-0.1,0.1c0,0,0,0,0,0c0,0,0,0-0.1,0
		c0.1-0.2-0.1-0.2-0.2-0.3c-0.1,0-0.1-0.1-0.1-0.1c0.1,0,0.1,0,0.2,0c0,0.1,0.1,0,0.1,0c0,0,0,0,0,0c0,0,0,0,0.1,0c0,0,0,0,0,0
		C15,11.1,15,11.1,15,11.2C15,11.2,15.1,11.2,15,11.2z"/>
	<path class="st186" d="M14.8,10.6c0,0-0.1,0-0.1-0.1c0.1-0.1,0.2-0.2,0.4-0.2c0,0,0,0.1,0,0.1c0,0,0,0,0,0c0,0,0,0,0,0
		C14.9,10.5,14.9,10.5,14.8,10.6C14.8,10.6,14.8,10.6,14.8,10.6z"/>
	<path class="st178" d="M14.9,11.4C14.9,11.4,14.9,11.5,14.9,11.4c-0.2,0-0.3-0.1-0.5-0.2c0,0,0,0,0,0
		C14.6,11.3,14.8,11.4,14.9,11.4z"/>
	<path class="st187" d="M14.8,11.1c-0.1,0-0.1-0.1-0.2-0.1c0,0,0,0,0-0.1c0.1,0,0.1,0,0.2,0c0,0,0,0,0,0C14.8,11,14.8,11,14.8,11.1z
		"/>
	<path class="st188" d="M14.5,11.2C14.5,11.2,14.5,11.2,14.5,11.2C14.4,11.2,14.4,11.2,14.5,11.2C14.4,11.2,14.4,11.2,14.5,11.2
		C14.4,11.2,14.5,11.2,14.5,11.2z"/>
	<path class="st189" d="M15,9.9C15.1,9.9,15.1,9.9,15,9.9C15.1,9.9,15.1,9.8,15,9.9c0.1-0.1,0.1-0.1,0.1-0.1c0,0.1,0,0.1-0.1,0.2
		C15,10,15,10,15,9.9z"/>
	<path class="st190" d="M15.2,9.8C15.2,9.8,15.2,9.8,15.2,9.8c-0.1,0-0.1-0.1,0-0.1c0,0,0,0,0.1-0.1c0,0,0.1,0,0.1,0c0,0,0,0,0,0
		C15.2,9.7,15.2,9.8,15.2,9.8z"/>
	<path class="st191" d="M13.9,9.8c0.1,0.1,0.2,0.2,0.2,0.3c0,0.1,0.1,0.1,0,0.1c-0.1,0-0.2,0-0.2-0.1C13.9,10,13.9,9.9,13.9,9.8z"/>
	<path class="st192" d="M14.6,9.2c0,0-0.1,0.1-0.1,0.1c-0.1,0-0.1-0.1-0.2-0.1c0,0,0-0.1,0-0.1c0,0,0.1-0.1,0.1-0.1
		c0.1,0,0.1,0,0.2,0c0,0,0.1,0,0.1,0.1C14.7,9.1,14.7,9.2,14.6,9.2z"/>
	<path class="st193" d="M14.5,9.4C14.5,9.4,14.5,9.3,14.5,9.4c0.2-0.1,0.2-0.1,0.3,0c0,0,0,0,0,0.1c0,0-0.1,0.1-0.1,0.1
		C14.5,9.5,14.4,9.5,14.5,9.4z"/>
	<path class="st194" d="M14.7,9.4c0-0.1-0.1-0.1-0.1-0.1c0,0,0,0,0,0c0,0,0.1,0,0.1,0c0,0,0.1,0,0.1,0c0.1,0,0.1,0,0.1,0.1
		c0,0,0,0,0,0.1C14.8,9.4,14.8,9.5,14.7,9.4z"/>
	<path class="st195" d="M14.2,10C14.1,9.9,14.1,9.9,14.2,10c0-0.2,0.1-0.2,0.1-0.2c0,0,0.1,0,0.1,0c0,0,0.1,0.1,0,0.1
		c0,0,0,0-0.1,0.1C14.3,9.9,14.2,9.9,14.2,10z"/>
	<path class="st196" d="M14.5,9.4c0,0,0.1,0.1,0.1,0.1c0,0,0,0,0,0c0,0-0.1,0.1-0.1,0.1c0,0,0,0,0,0c-0.1,0-0.1-0.1-0.1-0.1
		C14.4,9.5,14.4,9.4,14.5,9.4z"/>
	<path class="st197" d="M14.3,9.2c0,0,0.1,0.1,0.1,0.1c0,0.1-0.1,0.1-0.1,0.1c-0.1,0-0.1-0.1-0.1-0.1C14.2,9.2,14.2,9.2,14.3,9.2
		C14.2,9.2,14.3,9.2,14.3,9.2C14.3,9.1,14.3,9.2,14.3,9.2z"/>
	<path class="st198" d="M14.1,9.8C14.1,9.8,14.1,9.9,14.1,9.8C14,9.8,14.1,9.8,14.1,9.8c0-0.1,0-0.2,0.1-0.2c0,0,0.1,0.1,0.1,0.1
		C14.2,9.8,14.2,9.8,14.1,9.8z"/>
	<path class="st199" d="M14.3,9.7c0,0,0-0.1,0-0.1c0,0,0.1-0.1,0.1-0.1c0,0,0,0.1,0.1,0.1c0,0,0,0.1,0,0.1
		C14.4,9.7,14.3,9.7,14.3,9.7C14.3,9.7,14.3,9.7,14.3,9.7z"/>
	<path class="st200" d="M14.3,9.5c0,0-0.1,0.1-0.1,0.1c0,0-0.1,0-0.1-0.1c0-0.1,0-0.1,0-0.1c0,0,0.1-0.1,0.1-0.1
		C14.2,9.4,14.3,9.4,14.3,9.5z"/>
	<path class="st201" d="M14.3,9.5C14.2,9.5,14.2,9.4,14.3,9.5c-0.1-0.1-0.1-0.2-0.1-0.2c0,0,0-0.1,0.1,0C14.3,9.3,14.3,9.4,14.3,9.5
		C14.3,9.4,14.3,9.5,14.3,9.5z"/>
	<path class="st202" d="M14,9.6C14.1,9.6,14.1,9.6,14,9.6c0,0.1,0,0.2-0.1,0.1C14,9.7,14,9.6,14,9.6C14,9.6,14,9.6,14,9.6z"/>
	<path class="st203" d="M14.7,9.3c0,0-0.1,0-0.1,0C14.6,9.2,14.6,9.2,14.7,9.3c-0.1-0.1-0.1-0.2,0-0.2c0,0,0.1,0,0.1,0
		C14.7,9.1,14.7,9.2,14.7,9.3C14.7,9.2,14.7,9.3,14.7,9.3z"/>
	<path class="st204" d="M14.2,10c0.1,0,0.1-0.1,0.2-0.1c0,0,0,0,0.1,0c0,0,0,0,0,0C14.3,9.9,14.3,10,14.2,10
		C14.2,10,14.2,10,14.2,10z"/>
	<path class="st205" d="M14.3,9.7C14.3,9.7,14.3,9.7,14.3,9.7C14.3,9.7,14.3,9.7,14.3,9.7C14.3,9.8,14.3,9.8,14.3,9.7
		c0,0.1-0.1,0.1-0.1,0.1c0,0,0,0,0,0C14.2,9.8,14.2,9.8,14.3,9.7z"/>
	<path class="st206" d="M14,9.6c0,0-0.1,0.1-0.1,0.1c0,0,0,0,0,0C13.9,9.7,14,9.6,14,9.6C14,9.6,14,9.6,14,9.6z"/>
	<path class="st207" d="M15.1,8.6c0,0-0.1,0.1-0.1,0.1c-0.1,0-0.2-0.1-0.3-0.2c0,0,0,0,0-0.1c0,0,0,0,0,0c0,0,0-0.1,0.1-0.1
		C14.9,8.5,15,8.6,15.1,8.6z"/>
	<path class="st208" d="M14.4,8.4C14.4,8.4,14.4,8.4,14.4,8.4c0.1,0,0.2,0.1,0.3,0.1c0,0.1,0,0.1-0.1,0.1c-0.1,0-0.2-0.1-0.3-0.2
		C14.3,8.4,14.3,8.4,14.4,8.4z"/>
	<path class="st209" d="M14.6,8.6c0,0,0-0.1,0.1-0.1c0,0,0,0,0.1,0c0,0,0,0,0,0C14.7,8.6,14.7,8.6,14.6,8.6
		C14.7,8.7,14.6,8.7,14.6,8.6C14.6,8.6,14.6,8.6,14.6,8.6C14.6,8.6,14.6,8.6,14.6,8.6z"/>
	<path class="st210" d="M14.8,8.4C14.8,8.4,14.8,8.5,14.8,8.4C14.7,8.4,14.8,8.4,14.8,8.4C14.8,8.4,14.8,8.4,14.8,8.4z"/>
	<path class="st211" d="M15,8.8c0,0,0.1-0.1,0.1-0.1c0,0.1,0.1,0.1,0.1,0.2C15.2,9,15.2,9,15.1,9C15.1,8.9,15,8.9,15,8.8z"/>
	<path class="st212" d="M15.4,9c0,0.1,0,0.1-0.1,0.2c0,0-0.1,0.1-0.1,0c0,0,0,0,0,0c0-0.1,0.1-0.1,0.1-0.1c0,0,0,0,0,0
		C15.3,9,15.3,9,15.4,9C15.3,9,15.3,9,15.4,9C15.3,9,15.3,9,15.4,9C15.4,9,15.4,9,15.4,9z"/>
	<path class="st213" d="M15.1,8.9c0,0,0.1,0,0.1,0c0,0,0,0,0,0.1c0,0,0,0,0,0c0,0,0,0,0,0C15.3,9,15.3,9,15.1,8.9
		C15.2,9,15.2,9,15.1,8.9C15.1,9,15.1,9,15.1,8.9C15.1,9,15.1,8.9,15.1,8.9z"/>
	<path class="st214" d="M15.4,9C15.4,9,15.4,9,15.4,9C15.4,9,15.4,8.9,15.4,9C15.5,8.9,15.5,8.9,15.4,9C15.5,9,15.5,9,15.4,9
		C15.4,9,15.4,9,15.4,9z"/>
	<path class="st215" d="M13.6,9.8C13.6,9.8,13.5,9.8,13.6,9.8c-0.1-0.1-0.1-0.1,0-0.1C13.6,9.7,13.6,9.7,13.6,9.8
		C13.6,9.8,13.6,9.8,13.6,9.8z"/>
	<path class="st216" d="M13.6,8.9C13.6,8.8,13.6,8.8,13.6,8.9c0.1-0.2,0.2-0.2,0.2-0.1c0.1,0.1,0,0.1,0,0.2c0,0,0,0.1-0.1,0.1
		c0,0,0,0-0.1,0c0,0,0,0,0,0C13.6,9,13.6,9,13.6,8.9z"/>
	<path class="st217" d="M13.6,8.8C13.6,8.8,13.6,8.8,13.6,8.8c0,0.2,0,0.2-0.1,0.2c-0.1,0,0,0.1-0.1,0.1c0,0,0,0,0,0
		c-0.1,0,0-0.1-0.1-0.1c0,0,0-0.1,0-0.1c0,0,0,0,0,0C13.4,8.8,13.5,8.7,13.6,8.8z"/>
	<path class="st218" d="M13.5,9c0,0,0.1-0.1,0.1-0.1c0,0,0,0,0,0c0,0,0,0,0,0c0,0,0.1,0.1,0.1,0.1c0,0,0,0,0,0
		C13.6,9.1,13.6,9.1,13.5,9C13.5,9,13.5,9,13.5,9z"/>
	<path class="st219" d="M13.5,9C13.5,9,13.6,9,13.7,9C13.6,9.1,13.6,9.1,13.5,9z"/>
	<path class="st220" d="M13.7,9.3c-0.1,0-0.1,0-0.2,0C13.5,9.2,13.6,9.2,13.7,9.3z"/>
	<path class="st221" d="M13.7,9C13.7,9,13.8,9,13.7,9c0.1,0,0.1,0.1,0.1,0.1c0,0,0,0,0,0l0,0c0,0,0,0,0,0C13.7,9.2,13.8,9.1,13.7,9z
		"/>
	<path class="st222" d="M13.4,9.3C13.4,9.3,13.4,9.3,13.4,9.3c-0.1-0.1-0.1-0.1-0.1-0.1c0,0,0,0,0.1,0c0,0,0,0,0,0
		C13.4,9.2,13.4,9.2,13.4,9.3z"/>
	<path class="st223" d="M13.8,9.2C13.8,9.2,13.8,9.2,13.8,9.2c0,0.1,0,0.1,0,0.2C13.8,9.3,13.8,9.3,13.8,9.2
		C13.7,9.2,13.8,9.2,13.8,9.2z"/>
	<path class="st224" d="M15.3,9c0.1,0.1-0.1,0.1-0.1,0.1c0,0.1,0.1,0.2,0.1,0.2c0,0,0,0-0.1,0.1c0,0.1,0,0.1,0,0.2c0,0,0,0.1,0,0.1
		c0,0,0,0.1,0,0.1c0,0,0,0,0,0c0,0,0,0,0,0c0-0.1,0-0.2,0-0.3C15,9.6,15,9.5,15,9.4c0,0,0,0,0,0c0-0.1-0.1-0.1-0.2-0.1
		c0,0-0.1,0-0.1,0c-0.1-0.1,0-0.1,0-0.1C14.7,9,14.8,9,14.9,9C15,9,15,9,15.1,9c0,0,0,0,0,0l0,0C15.2,9,15.2,9,15.3,9
		C15.3,9,15.3,9,15.3,9z"/>
	<path class="st225" d="M14.9,9.7c-0.1,0-0.1,0-0.2,0c-0.1,0-0.1-0.1-0.1-0.1c0,0,0,0,0,0c0,0,0.1-0.1,0.1-0.1
		C14.9,9.5,14.9,9.5,14.9,9.7C14.9,9.6,14.9,9.7,14.9,9.7z"/>
	<path class="st226" d="M14.4,9.8c0,0,0-0.1,0-0.1c0,0,0,0,0,0c0,0,0.1,0,0.1-0.1c0,0,0.1,0,0.1,0c0,0,0,0,0,0c0,0,0,0.1,0,0.1
		C14.5,9.8,14.5,9.8,14.4,9.8C14.4,9.9,14.4,9.9,14.4,9.8z"/>
	<path class="st227" d="M14.6,9.7c0,0,0-0.1,0-0.1c0,0,0-0.1,0.1-0.1C14.7,9.6,14.7,9.6,14.6,9.7C14.7,9.7,14.6,9.7,14.6,9.7z"/>
	<path class="st228" d="M15,9.4c0,0.1,0,0.2,0,0.2c0,0-0.1,0-0.1,0c0,0,0-0.1,0-0.1C14.9,9.5,14.9,9.4,15,9.4z"/>
	<path class="st229" d="M15,9.6C15,9.6,15,9.6,15,9.6c-0.1,0.1-0.1,0.1-0.1,0c0,0,0,0,0,0C14.9,9.6,14.9,9.6,15,9.6z"/>
	<path class="st230" d="M14.4,9.8C14.4,9.8,14.4,9.8,14.4,9.8C14.4,9.9,14.4,9.9,14.4,9.8C14.4,9.9,14.4,9.9,14.4,9.8
		C14.4,9.9,14.4,9.9,14.4,9.8z"/>
	<path class="st231" d="M15.2,9.2c0,0,0.1,0,0.1,0c0.1,0,0.1,0.1,0.1,0.2c0,0-0.1,0.1-0.1,0.1c-0.1,0-0.1,0-0.1-0.1
		C15.2,9.3,15.2,9.3,15.2,9.2z"/>
	<path class="st232" d="M13,9.4C13.1,9.5,13.1,9.5,13,9.4c0.1,0,0.1,0,0.1,0.1c0,0,0,0.1,0,0.1c0,0.1,0,0.1-0.1,0.1
		c0,0-0.1-0.1-0.1-0.1C12.9,9.5,12.9,9.4,13,9.4z"/>
	<path class="st233" d="M13,9.7c0,0,0.1-0.1,0.1-0.1c0.1,0,0.1,0,0.1,0.1c0,0,0,0.1,0,0.1c0,0,0,0-0.1,0C13.1,9.8,13.1,9.7,13,9.7
		C13,9.7,13,9.7,13,9.7z"/>
	<path class="st234" d="M13,9.4C13,9.5,13,9.5,13,9.6c0,0-0.1-0.1-0.1-0.1C12.9,9.4,13,9.4,13,9.4C13,9.4,13,9.4,13,9.4z"/>
	<path class="st235" d="M13.1,9.7c0,0,0.1,0,0.1,0.1c0,0,0,0.1,0,0.1c0,0-0.1,0-0.1,0C13,9.8,13,9.8,13.1,9.7
		C13,9.8,13,9.7,13.1,9.7z"/>
	<path class="st206" d="M13,9.8C13,9.8,13,9.8,13,9.8C13,9.8,13,9.8,13,9.8c-0.1,0.1-0.1,0-0.1,0c0,0-0.1,0-0.1-0.1c0,0,0,0,0,0
		C12.9,9.7,13,9.8,13,9.8z"/>
	<path class="st236" d="M14,8.4C14,8.4,14,8.4,14,8.4c0.1-0.1,0.2,0,0.3,0c0,0,0,0.1,0,0.1c0,0,0,0,0,0C14.1,8.6,14,8.6,14,8.4
		C13.9,8.5,13.9,8.5,14,8.4z"/>
	<path class="st237" d="M14.3,8.5c0,0,0-0.1,0-0.1c0,0,0-0.1,0.1-0.1c0,0,0,0,0,0C14.4,8.4,14.3,8.4,14.3,8.5
		C14.3,8.5,14.3,8.6,14.3,8.5z"/>
	<path class="st238" d="M13.3,9.8c0,0.1,0,0.3,0,0.4c-0.1,0-0.2,0-0.2,0c0-0.1,0-0.2,0.1-0.2C13.2,9.8,13.2,9.8,13.3,9.8z"/>
	<path class="st239" d="M13.3,9.6c0,0,0,0.1,0,0.1c0,0,0,0,0,0c0,0,0,0-0.1-0.1c0,0-0.1-0.1,0-0.1c0,0,0-0.1,0.1-0.1
		C13.3,9.5,13.3,9.5,13.3,9.6z"/>
	<path class="st240" d="M12.9,9.8C12.9,9.8,13,9.8,12.9,9.8c0.1,0,0.1,0.1,0.2,0.1c0,0.1-0.1,0-0.1,0.1C12.9,9.9,12.9,9.9,12.9,9.8
		C12.9,9.9,12.9,9.8,12.9,9.8z"/>
	<path class="st241" d="M13.2,9.6C13.2,9.6,13.2,9.7,13.2,9.6c0,0.1,0,0.1,0,0.1C13.2,9.7,13.2,9.7,13.2,9.6
		C13.2,9.6,13.2,9.6,13.2,9.6z"/>
	<path class="st242" d="M13.1,9.9C13,9.9,13,9.9,13.1,9.9C13,9.8,13,9.8,13.1,9.9C13.1,9.8,13.1,9.9,13.1,9.9
		C13.1,9.9,13.1,9.9,13.1,9.9z"/>
	<path class="st243" d="M13.6,8.6c0-0.1,0-0.1,0-0.2c0.1,0,0.2,0,0.3,0c0,0.1,0,0.1,0,0.2C13.8,8.7,13.7,8.7,13.6,8.6z"/>
	<path class="st244" d="M13.9,8.6c0-0.1,0-0.1,0-0.2c0,0,0,0,0,0c0,0,0,0,0,0.1C14,8.5,14,8.5,13.9,8.6C14,8.5,14,8.6,13.9,8.6
		C13.9,8.6,13.9,8.6,13.9,8.6z"/>
	<path class="st245" d="M13.6,8.8c-0.1,0-0.1,0-0.2,0.1c-0.1,0-0.1-0.1,0-0.1c0,0,0,0,0-0.1c0.1,0,0.2,0,0.3-0.1
		C13.6,8.7,13.6,8.7,13.6,8.8z"/>
	<path class="st246" d="M13.3,9.6c0,0,0-0.1-0.1-0.1c0,0,0,0,0-0.1c0,0,0,0,0,0c0,0,0,0,0,0c0,0,0,0,0,0.1
		C13.3,9.5,13.3,9.5,13.3,9.6z"/>
	<path class="st247" d="M13.8,9.2C13.8,9.2,13.8,9.2,13.8,9.2c0-0.1,0-0.1,0-0.1c0.1,0,0.1,0,0.2,0c0,0,0,0,0,0.1c0,0,0,0-0.1,0
		C13.9,9.2,13.9,9.2,13.8,9.2z"/>
	<path class="st248" d="M13.9,9.4C13.9,9.4,13.9,9.4,13.9,9.4c0-0.1,0-0.1,0-0.1c0,0,0,0,0,0C14,9.4,14,9.4,13.9,9.4z"/>
	<path class="st229" d="M14,9.3C14,9.3,14,9.3,14,9.3C14,9.3,14,9.2,14,9.3c0-0.1,0-0.1,0-0.1c0,0,0,0,0,0C14,9.2,14,9.2,14,9.3
		C14,9.3,14,9.3,14,9.3z"/>
	<path class="st249" d="M13.1,9c0,0,0-0.1,0-0.1c0.1,0,0.1-0.1,0.2-0.1c0,0,0,0,0,0c0,0,0,0.1,0,0.1c0,0.1-0.1,0.1-0.2,0.1
		c0,0,0,0,0,0C13.1,9.1,13.1,9.1,13.1,9C13.1,9,13.1,9,13.1,9z"/>
	<path class="st133" d="M13.1,9C13.1,9.1,13.1,9.1,13.1,9c0,0.1,0.1,0.1,0.1,0.2c0,0,0,0,0,0c0,0,0,0,0,0.1c0,0-0.1,0.1-0.1,0.1
		C13,9.3,13,9.3,13,9.2C13,9.2,13.1,9.1,13.1,9z"/>
	<path class="st250" d="M13.3,8.8C13.3,8.8,13.3,8.8,13.3,8.8c0-0.1,0-0.1,0-0.1c0,0,0,0,0,0C13.3,8.7,13.3,8.8,13.3,8.8
		C13.3,8.8,13.3,8.8,13.3,8.8C13.3,8.9,13.3,8.9,13.3,8.8z"/>
	<path class="st190" d="M15.2,9.4c0,0,0,0.1,0.1,0.1c0,0,0,0.1,0,0.1c-0.1,0-0.1,0-0.1-0.1C15.2,9.5,15.2,9.5,15.2,9.4
		C15.2,9.4,15.2,9.4,15.2,9.4z"/>
	<path class="st251" d="M15.2,9.5C15.2,9.6,15.2,9.6,15.2,9.5c0.1,0.1,0.1,0.1,0.1,0.1c0,0-0.1,0-0.1,0c0,0,0,0,0,0
		C15.2,9.6,15.1,9.6,15.2,9.5C15.2,9.5,15.2,9.5,15.2,9.5z"/>
	<path class="st208" d="M14.7,8.6C14.7,8.6,14.7,8.6,14.7,8.6c0.1,0,0.2,0.1,0.3,0.1c0,0-0.1,0.1-0.1,0.1
		C14.8,8.9,14.7,8.8,14.7,8.6z"/>
	<path class="st252" d="M14.7,8.6c0,0.1,0.1,0.2,0.2,0.2c0,0,0,0,0,0.1c0,0,0,0,0,0c-0.1,0-0.1,0-0.2,0c0,0-0.1,0-0.1,0
		c0,0,0,0-0.1-0.1C14.5,8.8,14.6,8.7,14.7,8.6C14.6,8.7,14.6,8.7,14.7,8.6C14.6,8.6,14.7,8.6,14.7,8.6z"/>
	<path class="st253" d="M15.1,9C15.1,9,15.1,9,15.1,9c-0.1,0-0.1,0-0.2,0c0,0,0,0,0-0.1c0,0,0.1-0.1,0.1-0.1
		C15.1,8.9,15.1,8.9,15.1,9C15.1,9,15.1,9,15.1,9z"/>
	<path class="st254" d="M14.9,8.9C14.9,8.9,14.9,8.9,14.9,8.9C15,9,15,9,14.9,8.9C14.9,9,14.9,9,14.9,8.9
		C14.8,8.9,14.8,8.9,14.9,8.9C14.9,8.9,14.9,8.9,14.9,8.9C14.9,8.9,14.9,8.9,14.9,8.9z"/>
	<path class="st200" d="M14,9.3C14,9.3,14,9.3,14,9.3c0.1-0.1,0.1-0.1,0.2,0c0,0.1,0,0.1-0.1,0.2c0,0,0,0.1-0.1,0.1c0,0,0,0-0.1-0.1
		c0,0,0,0,0-0.1C14,9.4,14,9.3,14,9.3z"/>
	<path class="st255" d="M14,9.5C14,9.5,14.1,9.5,14,9.5c0.1-0.1,0.1-0.1,0.1-0.1C14.1,9.5,14.1,9.5,14,9.5C14,9.6,14,9.6,14,9.5
		C14,9.6,14,9.6,14,9.5C14,9.6,14,9.5,14,9.5z"/>
	<path class="st133" d="M13.2,9.2C13.2,9.2,13.2,9.2,13.2,9.2c0-0.1-0.1-0.1,0-0.1C13.2,9,13.3,9,13.3,9c0,0,0,0,0,0
		c0,0,0,0.1,0,0.1c0,0,0,0.1,0,0.1c0,0.1,0,0.1-0.1,0.1c0,0,0,0,0,0C13.2,9.3,13.2,9.3,13.2,9.2z"/>
	<path class="st256" d="M13.1,9.4c0-0.1,0-0.1,0.1-0.1c0,0,0.1,0,0.1,0.1c0,0,0,0.1,0,0.1c0,0-0.1,0-0.1,0.1c0,0,0,0,0,0
		C13.1,9.5,13.1,9.5,13.1,9.4C13.1,9.4,13.1,9.4,13.1,9.4z"/>
	<path class="st257" d="M13.9,8.6C13.9,8.6,13.9,8.6,13.9,8.6c0,0.1,0,0.1,0,0.1c0,0,0,0.1,0,0.1c0,0,0,0,0,0c-0.1,0-0.1,0-0.2,0
		c0-0.1,0-0.1,0-0.2C13.7,8.6,13.8,8.6,13.9,8.6z"/>
	<path class="st258" d="M13.5,11.4C13.5,11.3,13.5,11.3,13.5,11.4C13.6,11.4,13.6,11.4,13.5,11.4C13.5,11.4,13.5,11.4,13.5,11.4z"/>
	<path class="st185" d="M14.8,11C14.8,11,14.8,11,14.8,11C14.8,11,14.8,11,14.8,11c0-0.1,0-0.1,0.1-0.1c0,0,0-0.1,0-0.1c0,0,0,0,0,0
		c0,0,0,0,0-0.1c0,0,0,0,0,0c0-0.1,0.1-0.1,0.1-0.1c0.1,0,0.1,0,0.2,0c0,0,0,0,0,0c0,0,0,0,0.1,0c0,0,0,0,0,0.1c0,0,0,0,0.1,0
		c0,0,0.1,0,0,0.1c-0.1,0,0,0.1,0,0.1c0,0,0,0,0,0c0,0,0,0.1,0,0.1c0,0,0,0,0,0c0,0-0.1,0.1-0.1,0.1c0,0,0,0,0,0c0,0,0,0-0.1,0
		c0,0,0,0-0.1-0.1l0,0C14.9,11,14.8,11,14.8,11z"/>
	<path class="st259" d="M15.1,10.6c0,0.1-0.1,0.1-0.2,0c0,0,0,0,0,0c0-0.1,0-0.1,0.1-0.1c0,0,0,0,0,0C15.1,10.4,15.1,10.5,15.1,10.6
		z"/>
	<path class="st260" d="M15.2,10.8C15.3,10.7,15.2,10.7,15.2,10.8c0.1-0.1,0.1-0.1,0.2,0C15.3,10.8,15.3,10.8,15.2,10.8z"/>
	<path class="st261" d="M15.2,10.7C15.1,10.7,15.1,10.7,15.2,10.7c0-0.1,0-0.1,0-0.1c0,0,0.1,0,0.1,0C15.3,10.6,15.2,10.7,15.2,10.7
		z"/>
	<path class="st262" d="M15.2,10.6C15.2,10.6,15.2,10.6,15.2,10.6C15.1,10.6,15.1,10.6,15.2,10.6C15.1,10.6,15.1,10.6,15.2,10.6z"/>
	<path class="st263" d="M15.1,11C15.1,11,15.1,10.9,15.1,11C15.2,10.9,15.2,10.9,15.1,11c0.1-0.1,0.1-0.1,0.1-0.1c0,0.1,0,0.1,0,0.2
		C15.2,11.1,15.2,11.1,15.1,11C15.1,11,15.1,11,15.1,11z"/>
	<path class="st264" d="M15.1,11C15.1,11,15.2,11,15.1,11c0,0.1-0.1,0.1-0.1,0.1C15.1,11.1,15,10.9,15.1,11z"/>
	<path class="st265" d="M15.1,11.7c-0.1,0-0.1,0-0.1-0.1C15,11.7,15.1,11.7,15.1,11.7z"/>
	<path class="st266" d="M15,11.5C15,11.6,15.1,11.6,15,11.5C15,11.6,15,11.6,15,11.5z"/>
	<path class="st267" d="M15,11.5C15,11.4,15,11.5,15,11.5C15,11.5,15,11.5,15,11.5z"/>
	<path class="st268" d="M15,11.2C15,11.2,15,11.2,15,11.2C15,11.1,15.1,11.2,15,11.2z"/>
	<path class="st103" d="M15,11.3C15,11.3,15,11.3,15,11.3C15,11.3,15,11.3,15,11.3C15.1,11.3,15,11.3,15,11.3z"/>
	<path class="st103" d="M15,11.4C15,11.4,15,11.4,15,11.4C15,11.4,15.1,11.4,15,11.4C15,11.4,15,11.4,15,11.4z"/>
	<path class="st269" d="M14.9,10.6C14.9,10.6,14.9,10.6,14.9,10.6c0,0.1,0,0.1-0.1,0.1c0,0,0-0.1,0-0.1c0,0,0,0,0,0
		C14.8,10.5,14.9,10.5,14.9,10.6z"/>
	<path class="st270" d="M14.8,10.7C14.8,10.7,14.8,10.7,14.8,10.7c-0.1,0.1-0.1,0.1-0.2,0C14.7,10.7,14.8,10.7,14.8,10.7z"/>
	<path class="st271" d="M14.8,10.8c0,0-0.1,0.1-0.1,0.1c-0.1,0-0.1,0,0-0.1C14.8,10.8,14.8,10.8,14.8,10.8z"/>
	<path class="st272" d="M15.2,10.9C15.2,10.9,15.2,10.9,15.2,10.9C15.2,10.9,15.2,10.9,15.2,10.9C15.2,10.8,15.2,10.8,15.2,10.9
		C15.3,10.8,15.3,10.8,15.2,10.9C15.3,10.9,15.4,10.9,15.2,10.9C15.3,11,15.3,10.9,15.2,10.9z"/>
	<path class="st263" d="M14.8,11c0.1-0.1,0.1,0,0.1,0.1c0,0-0.1,0.1-0.1,0C14.8,11,14.8,11,14.8,11z"/>
	<path class="st273" d="M14.9,11C15,11,14.9,11.1,14.9,11C14.9,11.1,14.9,11.1,14.9,11z"/>
	<path class="st274" d="M14.9,10.6c0,0-0.1,0-0.1,0c0-0.1,0.1-0.2,0.2-0.1C15,10.5,15,10.5,14.9,10.6z"/>
	<path class="st17" d="M15.2,9.7c0-0.1-0.1-0.2-0.1-0.3c0,0,0,0,0.1,0C15.2,9.6,15.2,9.6,15.2,9.7C15.2,9.7,15.2,9.7,15.2,9.7
		C15.2,9.7,15.2,9.7,15.2,9.7z"/>
	<path class="st275" d="M14.9,9c-0.1,0-0.1,0-0.2,0c0,0,0,0-0.1,0c0,0,0,0-0.1-0.1c0,0,0,0,0,0C14.7,8.9,14.8,9,14.9,9
		C14.9,9,14.9,9,14.9,9z"/>
	<path class="st276" d="M14.6,9C14.6,9,14.6,9,14.6,9c-0.1,0-0.1,0-0.1,0c0,0,0,0,0,0c0,0,0,0,0,0C14.5,8.9,14.6,8.9,14.6,9z"/>
	<path class="st277" d="M14.4,8.9C14.4,8.9,14.4,9,14.4,8.9c0,0.1,0,0.1,0,0.1c0,0,0,0,0,0C14.3,9,14.3,9,14.4,8.9
		C14.4,8.9,14.4,8.9,14.4,8.9z"/>
	<path class="st278" d="M14.3,9C14.3,9.1,14.4,9.1,14.3,9c0,0.1,0,0.1,0,0.1c0,0,0,0,0,0C14.2,9.1,14.3,9.1,14.3,9
		C14.3,9,14.3,9,14.3,9z"/>
	<path class="st279" d="M14.8,9.4c0,0-0.1,0-0.1,0.1c0,0,0,0,0,0c0,0,0,0,0,0C14.7,9.4,14.8,9.4,14.8,9.4
		C14.9,9.4,14.8,9.4,14.8,9.4z"/>
	<path class="st280" d="M14.6,9.5C14.7,9.5,14.7,9.5,14.6,9.5C14.7,9.5,14.7,9.5,14.6,9.5c0,0.1-0.1,0.1-0.1,0.1c0,0,0,0,0,0
		c0,0,0,0,0,0c0,0,0,0,0,0C14.6,9.5,14.6,9.5,14.6,9.5z"/>
	<path class="st281" d="M14.8,9.4C14.8,9.4,14.8,9.4,14.8,9.4c0.1-0.1,0.1-0.1,0.1-0.1c0.1,0,0.1,0,0.1,0.1c0,0,0,0,0,0
		c0,0.1,0,0.1,0,0.2c0,0-0.1,0-0.1,0C14.9,9.6,14.8,9.5,14.8,9.4z"/>
	<path class="st282" d="M15,9.4c0,0-0.1,0-0.1-0.1c0,0-0.1,0-0.1-0.1c0,0,0,0,0,0c0,0,0,0,0,0C14.9,9.2,15,9.3,15,9.4z"/>
	<path class="st283" d="M14.8,9.2C14.8,9.2,14.8,9.3,14.8,9.2c0,0-0.1,0-0.1,0c0,0,0,0,0,0C14.7,9.2,14.8,9.2,14.8,9.2z"/>
	<path class="st284" d="M14.4,9.7C14.4,9.7,14.4,9.7,14.4,9.7c-0.1,0-0.1,0.1-0.1,0.1c0,0,0,0,0,0C14.3,9.7,14.3,9.7,14.4,9.7
		C14.4,9.7,14.4,9.7,14.4,9.7z"/>
	<path class="st285" d="M14.5,9.6C14.5,9.6,14.6,9.6,14.5,9.6C14.5,9.6,14.5,9.6,14.5,9.6C14.5,9.6,14.5,9.6,14.5,9.6
		C14.5,9.6,14.5,9.6,14.5,9.6z"/>
	<path class="st286" d="M14.4,9.6C14.5,9.6,14.5,9.6,14.4,9.6C14.4,9.7,14.4,9.7,14.4,9.6C14.4,9.7,14.4,9.7,14.4,9.6
		C14.4,9.7,14.4,9.6,14.4,9.6C14.4,9.6,14.4,9.6,14.4,9.6z"/>
	<path class="st287" d="M14.3,9.1C14.3,9.1,14.3,9.1,14.3,9.1c0,0.1,0,0.1,0,0.1c0,0,0,0-0.1,0c-0.1,0-0.1-0.1-0.2-0.1
		C14,9,14.1,9,14.1,9C14.2,9,14.3,9,14.3,9.1z"/>
	<path class="st288" d="M14.2,9.2C14.2,9.2,14.3,9.2,14.2,9.2C14.3,9.2,14.3,9.2,14.2,9.2c0,0.1,0,0.1,0,0.1
		C14.2,9.3,14.2,9.3,14.2,9.2C14.1,9.2,14.2,9.2,14.2,9.2z"/>
	<path class="st206" d="M14.2,9.3C14.2,9.3,14.2,9.3,14.2,9.3c0,0.1,0,0.1,0,0.1c0,0,0,0-0.1,0.1c0,0,0,0,0,0
		C14.1,9.4,14.1,9.3,14.2,9.3C14.1,9.3,14.2,9.3,14.2,9.3z"/>
	<path class="st289" d="M14.6,8.6C14.6,8.7,14.6,8.7,14.6,8.6c0,0.1,0,0.1-0.1,0.1c-0.1,0-0.2-0.1-0.3-0.1c0,0,0,0,0,0c0,0,0,0,0,0
		c0.1,0,0.1-0.1,0.1-0.1C14.4,8.5,14.5,8.6,14.6,8.6C14.6,8.6,14.6,8.6,14.6,8.6z"/>
	<path class="st251" d="M15.2,9.4C15.2,9.4,15.2,9.4,15.2,9.4C15.2,9.5,15.2,9.5,15.2,9.4c0,0-0.1-0.1-0.1-0.2c0,0,0,0,0,0
		C15.2,9.3,15.2,9.3,15.2,9.4z"/>
	<path class="st290" d="M15.3,9C15.3,9,15.3,9,15.3,9C15.2,9,15.2,9,15.3,9C15.3,9,15.3,9,15.3,9C15.3,9,15.3,9,15.3,9
		C15.3,9.1,15.3,9,15.3,9z"/>
	<path class="st291" d="M15.3,9C15.3,9,15.3,9,15.3,9C15.3,9,15.3,9,15.3,9C15.3,9,15.3,9,15.3,9C15.3,9,15.3,9,15.3,9
		C15.3,9,15.3,9,15.3,9z"/>
	<path class="st292" d="M15.2,9c0,0-0.1,0-0.1,0C15.2,9,15.2,9,15.2,9C15.3,9,15.3,9,15.2,9C15.3,9,15.3,9,15.2,9
		C15.3,9,15.3,9,15.2,9z"/>
	<path class="st293" d="M15.3,9C15.3,9,15.3,9,15.3,9C15.3,9,15.3,9,15.3,9C15.3,9,15.3,9,15.3,9L15.3,9L15.3,9z"/>
	<path class="st222" d="M13.8,9.1C13.8,9.1,13.8,9.2,13.8,9.1C13.8,9.1,13.8,9.1,13.8,9.1c0-0.1,0-0.1,0-0.1c0,0,0,0,0,0
		C13.9,9,13.9,9.1,13.8,9.1z"/>
	<path class="st222" d="M13.8,9C13.8,9,13.8,9,13.8,9c0-0.1,0-0.1,0-0.2c0,0,0,0,0,0c0,0,0,0,0.1,0C13.9,8.8,13.9,8.9,13.8,9
		C13.9,8.9,13.9,9,13.8,9z"/>
	<path class="st222" d="M13.3,9.1c0,0,0-0.1,0-0.1c0,0,0,0,0,0C13.4,9,13.4,9.1,13.3,9.1C13.4,9.1,13.4,9.1,13.3,9.1z"/>
	<path class="st222" d="M13.4,9C13.3,9,13.3,9,13.4,9C13.3,9,13.3,9,13.4,9c0,0,0-0.1-0.1-0.1c0,0,0,0,0,0C13.3,8.9,13.3,8.9,13.4,9
		z"/>
	<path class="st294" d="M14.9,9C14.9,9,14.9,9,14.9,9C14.9,9,14.9,9,14.9,9C14.9,9,14.9,9,14.9,9C15,9,15,9,15.1,9
		C15.1,9.1,15,9,14.9,9z"/>
	<path class="st295" d="M15.2,9.4C15.2,9.4,15.2,9.4,15.2,9.4C15.2,9.5,15.2,9.5,15.2,9.4C15.2,9.5,15.2,9.5,15.2,9.4
		C15.2,9.5,15.2,9.5,15.2,9.4C15.1,9.5,15.1,9.5,15.2,9.4C15.1,9.4,15.2,9.4,15.2,9.4z"/>
	<path class="st255" d="M13.1,9.5C13.1,9.5,13.2,9.5,13.1,9.5c0,0,0.1,0.1,0.1,0.1c0,0,0,0,0,0C13.2,9.6,13.1,9.6,13.1,9.5
		C13.1,9.5,13.1,9.5,13.1,9.5z"/>
	<path class="st296" d="M14.3,8.6C14.3,8.6,14.3,8.6,14.3,8.6C14.3,8.6,14.3,8.6,14.3,8.6c0,0.1,0,0.2-0.1,0.2c0,0,0,0,0,0
		c-0.1,0-0.2,0-0.2-0.1c0,0,0-0.1,0-0.1c0,0,0,0,0,0c0-0.1,0-0.1,0.1-0.2C14,8.6,14.1,8.6,14.3,8.6z"/>
	<path class="st297" d="M13.2,9.4C13.2,9.3,13.2,9.3,13.2,9.4c-0.1-0.1,0-0.1,0-0.1C13.2,9.3,13.2,9.3,13.2,9.4
		C13.2,9.4,13.2,9.4,13.2,9.4z"/>
	<path class="st298" d="M13.8,9C13.9,8.9,13.9,8.9,13.8,9c0.1-0.1,0.2-0.1,0.2,0c0,0.1,0,0.1-0.1,0.2c-0.1,0-0.1,0-0.2,0
		C13.8,9.1,13.8,9,13.8,9z"/>
	<path class="st299" d="M14,9.1C14,9.1,14.1,9,14.1,9c0-0.1,0-0.1,0.1-0.2c0,0,0,0,0,0c0,0,0,0,0,0c0,0,0,0,0,0.1
		c0,0.1,0,0.1-0.1,0.1C14.1,9,14.1,9.1,14,9.1C14.1,9.2,14.1,9.2,14,9.1C14,9.2,14,9.2,14,9.1C14,9.2,14,9.1,14,9.1z"/>
	<path class="st300" d="M14,9.2C14,9.2,14.1,9.1,14,9.2c0.1-0.1,0.2,0,0.2,0c0,0,0,0.1-0.1,0.1c0,0,0,0,0,0
		C14.1,9.3,14.1,9.3,14,9.2C14,9.2,14,9.2,14,9.2z"/>
	<path class="st301" d="M13.2,9.1c0,0,0,0.1,0,0.1C13.1,9.2,13.1,9.2,13.2,9.1C13.1,9.1,13.2,9.1,13.2,9.1z"/>
	<path class="st224" d="M15.1,9.5C15.2,9.5,15.2,9.5,15.1,9.5c0.1,0,0.1,0.1,0,0.1C15.1,9.6,15.1,9.6,15.1,9.5z"/>
	<path class="st302" d="M14.6,8.8C14.6,8.8,14.6,8.8,14.6,8.8C14.6,8.9,14.6,8.9,14.6,8.8c-0.1,0.1-0.1,0.1-0.2,0.1
		c0,0-0.1,0-0.1-0.1c0,0,0,0,0.1-0.1C14.4,8.8,14.5,8.8,14.6,8.8C14.5,8.8,14.5,8.8,14.6,8.8z"/>
	<path class="st303" d="M14.6,8.8C14.5,8.8,14.5,8.8,14.6,8.8C14.5,8.8,14.5,8.8,14.6,8.8C14.5,8.8,14.5,8.7,14.6,8.8
		c0-0.1,0-0.1,0.1-0.1C14.6,8.7,14.6,8.8,14.6,8.8z"/>
	<path class="st304" d="M14.9,8.9C14.9,8.9,14.8,8.9,14.9,8.9c-0.1,0.1-0.1,0.1-0.2,0c0,0,0,0,0,0C14.8,8.9,14.8,8.9,14.9,8.9z"/>
	<path class="st305" d="M14.7,8.9C14.7,8.9,14.7,8.9,14.7,8.9c-0.1,0.1-0.1,0.1-0.1,0C14.6,8.9,14.6,8.8,14.7,8.9
		C14.7,8.8,14.7,8.8,14.7,8.9z"/>
	<path class="st306" d="M14.6,8.9c0,0,0.1,0,0.1,0c0.1,0,0.1,0,0.2,0.1c0,0,0.1,0,0.1,0.1c0,0,0,0-0.1,0C14.8,9.1,14.7,9,14.6,8.9
		c0,0.1-0.1,0-0.1,0c0,0,0,0,0,0C14.4,8.8,14.5,8.9,14.6,8.9z"/>
	<path class="st307" d="M13.9,8.7C13.9,8.7,13.9,8.7,13.9,8.7c0,0.1,0,0.1,0,0.1C13.9,8.8,13.9,8.8,13.9,8.7
		C13.8,8.7,13.9,8.7,13.9,8.7z"/>
	<path class="st308" d="M15.2,10.8C15.2,10.9,15.2,10.9,15.2,10.8C15.2,10.9,15.2,10.9,15.2,10.8C15.1,10.8,15.2,10.9,15.2,10.8z"/>
	<path class="st309" d="M14.4,8.9C14.4,8.9,14.4,8.9,14.4,8.9C14.4,8.9,14.4,8.9,14.4,8.9C14.4,8.9,14.4,8.9,14.4,8.9
		c-0.1,0.1-0.1,0-0.1,0c0.1-0.1,0.1-0.1,0.2-0.1c0,0,0,0,0,0C14.5,8.9,14.4,8.8,14.4,8.9C14.3,8.9,14.4,8.9,14.4,8.9z"/>
	<path class="st310" d="M14.3,8.9c0,0,0.1,0.1,0.1,0.1c0,0,0,0.1-0.1,0.1c0,0,0,0,0,0c-0.1,0-0.1,0-0.2-0.1
		C14.1,8.9,14.2,8.9,14.3,8.9C14.2,8.8,14.3,8.8,14.3,8.9z"/>
	<path class="st311" d="M14.3,8.9C14.2,8.9,14.2,8.9,14.3,8.9C14.2,8.8,14.2,8.8,14.3,8.9c-0.1-0.1-0.1-0.2,0-0.2c0,0,0,0,0,0
		c0.1,0,0.2,0.1,0.3,0.1c0,0,0,0.1,0,0.1C14.4,8.8,14.3,8.8,14.3,8.9z"/>
	<path class="st310" d="M13.9,8.8C13.9,8.8,13.9,8.8,13.9,8.8c0.1,0,0.2,0,0.3,0c0,0.1,0,0.1-0.1,0.2c-0.1,0-0.1,0-0.2-0.1
		C13.9,8.9,13.9,8.8,13.9,8.8z"/>
	<path class="st312" d="M14.2,8.6c0,0.1,0,0.1-0.1,0.1c0,0,0,0,0,0C14.2,8.7,14.2,8.7,14.2,8.6z"/>
</g>
<text transform="matrix(1 0 0 1 -629.3779 58.1863)" style="font-family:'MyriadPro-Regular'; font-size:12px;"></text>
</svg>
