<?xml version="1.0" encoding="utf-8"?>
<!-- Generator: Adobe Illustrator 21.0.0, SVG Export Plug-In . SVG Version: 6.00 Build 0)  -->
<svg version="1.1" id="Camada_1" xmlns="http://www.w3.org/2000/svg" xmlns:xlink="http://www.w3.org/1999/xlink" x="0px" y="0px"
	 viewBox="0 0 82.3 92" style="enable-background:new 0 0 82.3 92;" xml:space="preserve">
<style type="text/css">
	.st0{fill:#FFC800;}
</style>
<g>
	<path class="st0" d="M64.4,80.9L64.4,80.9L64.3,81c-0.2,0.1-0.5,0.3-0.9,0.5l-0.5,0.3c-0.2,0.1-0.3,0.2-0.4,0.2L62,82.2l-0.3,0.2
		c-0.1,0-0.2,0-0.4,0.1L61,82.6l-0.2,0.1c-0.1,0-0.3,0.1-0.5,0.2l-0.3,0.1l-0.3,0.1c-0.1,0-0.2,0-0.4,0.1L59,83.4l-0.2,0
		c-0.5,0.2-1,0.3-1.6,0.5L57,84v0l0,0h-0.1c-0.1,0-0.2,0-0.4,0.1l-0.3,0l-0.2,0l-0.1,0c-0.1,0-0.2,0-0.3,0h-0.2l-0.2,0
		c-0.1,0-0.2,0-0.4,0l-0.3,0.1l-0.2,0h-0.3c-0.1,0-0.2,0-0.3,0c0,0-0.1,0-0.2,0c-0.1,0-0.2,0-0.4,0c-0.2,0-0.4,0-0.6,0h-1.6
		c0,0-0.1,0-0.1,0C55.4,83.9,60.1,82.7,64.4,80.9z"/>
	<path class="st0" d="M67.1,87.3c-0.1,0-0.2,0.1-0.3,0.1C67,87.4,67,87.3,67.1,87.3L67.1,87.3z"/>
</g>
<g>
	<path class="st0" d="M82.3,33.2c0,6.1-0.1,12.5-1,18.9c-1.1,7.5-3.3,13.7-6.8,18.8c-1.2,1.9-3.3,4.5-6.4,5.8
		c-1.8,0.8-3.9,1.1-6.4,0.9c-0.8,0-1.6-0.1-2.4-0.3c-0.1,0-0.2,0-0.3,0h-0.6c-0.1,0-0.2,0-0.2,0l-0.3-0.1h-0.1l-0.1,0
		c-0.1,0-0.2,0-0.2,0h0l-0.1,0h-0.2c-0.1,0-0.2,0-0.2-0.1h0l-0.1,0h-0.1c-0.1,0-0.1,0-0.2-0.1h-0.1l0,0L56.3,77h-0.1
		c-0.1,0-0.2-0.1-0.2-0.1l-0.2-0.1c-0.1,0-0.1,0-0.2-0.1l-0.2-0.1c0,0-0.1,0-0.1-0.1l0,0c-0.2-0.1-0.4-0.2-0.5-0.3h0l-0.2-0.1
		l-0.2-0.1l-0.7-0.3l-0.6-0.3c-0.6-0.2-1-0.4-1.4-0.6c0,0-0.1-0.1-0.1-0.1l0,0l0,0l0,0c-0.6-0.3-1.2-0.7-1.9-1.2L48.8,73l-0.9-0.6
		l-0.2-0.1c0,0,0,0-0.1,0l-0.1-0.1L47.3,72l-0.2-0.1l-0.3-0.3c-0.1,0-0.1-0.1-0.2-0.1h0c0,0-0.1,0-0.2-0.1l-0.1-0.1l-0.1-0.1
		l-0.1-0.1c0,0-0.1,0-0.2-0.1c-0.1-0.1-0.1-0.1-0.1-0.1L46,70.9l-0.1-0.1l-0.1,0l-0.2-0.2l-0.1-0.1l-0.1-0.1
		c-0.1-0.1-0.1-0.2-0.2-0.2l0-0.1l-0.1-0.1c-0.1-0.1-0.1-0.1-0.1-0.2v0L45,69.7l-0.1-0.2l-0.1-0.1l-0.1-0.2l-0.1-0.2l0,0l-0.4-0.5
		l-0.4-0.4c-0.3-0.4-0.5-0.7-0.7-1l-0.1-0.1h0l0,0v0l0,0c0,0-0.1,0-0.1-0.1l-0.1-0.1l-0.1-0.1l0,0c-0.3-0.4-0.7-0.8-0.9-1.3l0-0.1
		l0-0.1l-0.1-0.1c0-0.1-0.1-0.1-0.1-0.1l0-0.1L41.5,65l0-0.1c0,0-0.1-0.1-0.1-0.1c0,0,0,0-0.1-0.1l0,0l0-0.1l-0.1-0.1
		c0,0,0,0-0.1-0.1L41,64.4c0,0,0-0.1,0-0.1l0.1,0.1l0-0.1L41,64.1c-0.1-0.1-0.1-0.2-0.1-0.2l-0.1-0.1c0,0,0-0.1,0-0.1l-0.1-0.1
		l0-0.1c0,0-0.1-0.1-0.1-0.1l0,0l-0.1-0.2l0-0.1c0,0-0.1-0.1-0.1-0.1v-0.1l0,0l0,0l0,0l-0.1-0.3l0-0.1l-0.1-0.1l-0.3-0.5v0
		c0,0-0.1,0-0.1-0.1l-0.1-0.2l-0.1-0.2h0l0,0l0-0.1l0,0c0,0-0.1-0.1-0.1-0.1L39.2,61L39.2,61v0c-0.1,0-0.1-0.1-0.2-0.2l0-0.1
		c-0.2-0.2-0.4-0.5-0.6-0.8c0,0,0,0-0.1,0c0,0-0.1-0.1-0.1-0.2l-0.1-0.1L38,59.3c-0.1-0.1-0.1-0.2-0.2-0.2L37.7,59L37.7,59
		c0-0.1-0.1-0.1-0.1-0.2l-0.1-0.1l0-0.1c0-0.1-0.1-0.1-0.1-0.2l0-0.1l0-0.1c0,0,0,0,0-0.1v0L37.2,58l-0.1-0.2
		c-0.1-0.2-0.2-0.3-0.2-0.4v0c0,0-0.1,0-0.1-0.1l0-0.1l0-0.1l0,0c-0.1,1.5-0.2,2.8-0.2,4v0.5c0,0.4,0.1,0.9,0.2,1.4l0.1,0.7
		c0,0.3,0.1,0.6,0.1,0.8l0,0.1v0.1c0,0.1,0,0.2,0,0.2v0c0.1,0.7,0.1,1.3,0.1,2v0.5c0,0.2-0.1,0.4-0.1,0.5c0,0,0,0.1-0.1,0.2
		l-0.1,0.1l-0.1,0.1l-0.1,0.2c0,0.1-0.1,0.1-0.1,0.1l-0.1,0.1l-0.1,0.1L36.1,69l-0.2,0.2c-0.1,0.2-0.2,0.2-0.3,0.2h-0.1l-0.1,0h-0.2
		l-0.2,0c-0.1,0-0.2,0-0.3,0l-0.3,0l-0.3,0h-0.9c-0.2,0-0.3-0.1-0.5-0.1c-0.1,0-0.2,0-0.3,0c-0.2,0-0.4,0-0.5,0.1l-0.3,0h-0.1
		c-0.2,0-0.4,0-0.5-0.1l-0.2-0.1l-0.2-0.1l-0.1-0.1L30.5,69l-0.2-0.1v0c-0.2-0.1-0.3-0.1-0.4-0.3c0,0,0-0.1,0-0.1c0,0,0-0.1,0-0.1
		c0,0,0-0.1,0-0.1c0-0.1,0-0.1,0-0.1v-0.4c0,0,0-0.1,0-0.1v-0.4c0-0.1,0-0.1,0-0.2V67c0-0.1-0.1-0.3-0.1-0.6v-0.1c0,0,0-0.1,0-0.2
		c0-0.1,0-0.1,0-0.2v-0.4l0-0.1c0,0,0-0.1,0-0.1c0,0,0,0,0,0v-0.3c0,0,0,0,0-0.1c0,0,0,0,0,0c0,0,0,0,0,0v-0.2c0,0,0-0.1,0-0.1
		c0,0,0,0,0,0v-0.1c0,0,0,0,0,0v-0.2c0-0.1,0-0.1,0-0.2l0-0.2v-0.2l0-0.1c0,0,0-0.1,0-0.1v0c0-0.2,0.1-0.4,0.1-0.5l0-0.2l0-0.2
		c0-0.2,0-0.4,0-0.6c0-0.2,0-0.4,0-0.6l0-0.6l0-0.7c0,0,0-0.1,0.1-0.1l0,0v-2.1c0-0.8,0-1.4-0.1-1.9v-0.2c0,0,0-0.1,0-0.1v-0.1
		c0,0,0-0.1,0-0.2v-0.7c0,0,0,0,0,0c0,0,0-0.1,0-0.2v-0.3c0,0,0-0.1,0-0.2c0-0.1,0-0.1,0-0.2v-0.3l0-0.1v-0.3c0-0.1,0-0.2,0-0.2
		l0-0.1v-0.3l0-0.2l0-0.2V52l0-0.2c0-0.1,0-0.1,0-0.2v-1.8l0-0.1c0-0.1-0.1-0.2-0.1-0.3c0-0.1,0-0.2,0.1-0.3c0,0,0-0.1,0-0.2v-0.3
		c0-0.3-0.1-0.6-0.1-1c0-0.2,0-0.4,0-0.6V47c0-0.1,0-0.1,0-0.1v-0.4c0,0,0,0,0-0.1v-0.5c0,0,0,0,0,0.1c0,0,0,0,0-0.1v-0.5
		c0,0,0-0.1,0-0.1v-0.1l0-0.2c0,0,0-0.1,0-0.1v-0.2c0-0.1,0-0.1,0-0.2c0,0,0,0,0-0.1v-0.1h0v-0.2l0.1-0.2l0-0.2V43c0,0,0-0.1,0-0.2
		v-0.4c0,0,0,0,0,0v-0.1c0,0-0.1-0.1-0.1-0.2v-0.1l0-0.1v0c0,0-0.1-0.1-0.1-0.3v-0.1c0-0.3-0.1-0.6-0.1-1c0-0.1-0.1-0.2-0.1-0.4
		l0-0.1v-0.2c0-0.1,0-0.2-0.1-0.3v-0.1l0-0.1v-0.3l0-0.1c0-0.1,0-0.1,0-0.2v-0.2c0-0.1,0-0.1,0-0.1v-0.5c0-0.2,0-0.3,0-0.4v0
		c0,0,0,0,0-0.1v-0.1c0-0.3-0.1-0.5-0.1-0.8c0-0.2,0-0.4,0-0.6v-0.2c0-0.1,0-0.1,0-0.2v0c0,0,0,0,0-0.1v-0.1c0-0.1,0-0.2,0-0.3
		c0-0.1,0-0.2,0-0.3v-0.4c0-0.1,0-0.1,0-0.1v-0.1c0-0.1,0-0.1,0-0.1v-0.3l0-0.3c0-0.2,0-0.3,0-0.5h0c0-0.1,0-0.3,0.1-0.4v0
		c0,0,0-0.1,0-0.2c0-0.1,0-0.1,0.1-0.1v-0.8c0,0,0-0.1,0-0.2v-0.3c0-0.1,0-0.2,0-0.3c0-0.2,0-0.3,0-0.4l0,0v-0.3c0-0.1,0-0.2,0-0.3
		l0-0.1l0-0.2v-0.2c0-0.1,0-0.1,0.1-0.1l0.1-0.2c0-0.1,0-0.1,0.1-0.2v0c0.1-0.1,0.3-0.2,0.4-0.2h0.1c0.1-0.1,0.2-0.1,0.5-0.1l0.2,0
		h0.3l0.1,0h0.1c0,0,0,0,0,0c0.1,0,0.1-0.1,0.3-0.1h0.1c0,0,0.1,0,0.1,0h0.2l0.2-0.1l0.2-0.1c0.2-0.1,0.3-0.1,0.5-0.1h0.1
		c0.1,0,0.2,0,0.3,0c0.1,0,0.2,0.1,0.2,0.1c0.1,0.1,0.2,0.1,0.3,0.1c0.1,0,0.1,0,0.2,0l0.2,0l0.2,0c0,0,0.1-0.1,0.3-0.1
		c0.1-0.1,0.3-0.2,0.6-0.2h0.1c0,0,0.1,0,0.1,0.1c0.1,0,0.2,0.1,0.2,0.1c0,0.1,0,0.1,0,0.2v0.1c0,0.2,0,0.3,0.1,0.4c0,0,0,0,0,0v0.1
		l0,0c0,0.1,0,0.1,0,0.3s0,0.2,0,0.3v0.2c0,0,0,0.1,0,0.1v0.1c0,0,0,0.1,0,0.2v0.2c0,0,0,0,0,0.1v0.2l0.1,0.2V31l0,0v0
		c0,0,0,0.1,0,0.1v0.3l0,0v0.1c0,0,0,0.1,0,0.1v0.2l0,0.1c0,0,0,0.1,0,0.2l0,0.2c0,0,0.1,0.1,0.1,0.2c0,0.1,0,0.2,0,0.2v0.1
		c0,0,0,0.1,0,0.2c0,0,0,0.1,0,0.1s0,0.1,0,0.1v0.1c0,0,0,0.1,0,0.1l0,0.1v0.1c0,0,0.1,0.1,0.1,0.1c0,0.1,0,0.1,0,0.1V34l0,0v0.2
		c0,0,0,0.1,0,0.2c0,0.1,0,0.2,0,0.2c0,0,0,0.1,0,0.1v0.2c0,0,0,0.1,0,0.2c0,0.1,0,0.2,0,0.2c0,0,0,0,0,0.1v0.2c0,0,0,0.1,0,0.2
		c0,0.1,0,0.1,0,0.1v0.1l0,0l0,0v0.1c0,0,0,0.1,0,0.2c0,0.1,0,0.1,0,0.2v0.1c0,0,0,0.1,0,0.2v0.1l0,0.1c0,0.1,0,0.1,0,0.1v0.2
		c0,0,0,0.1,0,0.1l0,0.1v0.1c0,0,0,0.1,0,0.2c0,0.1,0,0.1-0.1,0.2v0.1l0,0.1l0,0.1c0,0.1,0,0.2,0,0.2v0.1c0,0.1,0,0.1,0,0.1v0.3
		c0,0,0,0.1,0,0.2c0,0.1,0,0.2,0,0.2v0c0,0.1,0,0.2,0,0.3c0,0.1,0,0.3,0,0.3V40c0,0.4,0.1,0.8,0.1,1.2v2.2c0,0.4,0,0.6,0,0.8v0.1
		c0,0,0,0.1,0,0.2v0.3c0,0.1,0,0.2,0.1,0.4l0,0.4c0,0.1,0,0.2,0.1,0.3v0.1l0,0.2L37,46l0.2-0.1c0.1,0,0.2-0.1,0.2-0.1h0.1l0,0l0.1,0
		l0.2-0.1c0.1,0,0.2-0.1,0.2-0.1h0l0.1,0c0,0,0.1,0,0.1,0v0c0,0,0.1,0,0.1,0l0.2-0.1c0.1-0.1,0.3-0.1,0.3-0.1l0.3-0.1
		c0.1,0,0.2-0.1,0.3-0.1l0.2,0c0.1,0,0.1,0,0.2,0h0.1l0,0c0.4-0.1,0.7-0.2,0.9-0.2h0l0.3-0.1l0.3-0.1c1.1-0.4,2.4-1.1,3.9-2
		c0,0,0.1,0,0.1,0h0.1c0,0,0,0,0.1,0c1.1-0.7,1.9-1.3,2.5-1.8c0.5-0.4,0.8-0.8,1.2-1.2c0.2-0.3,0.5-0.6,0.6-0.9l0.2-0.3
		c0,0,0-0.1,0-0.1l0.1-0.2c0,0,0.1-0.1,0.1-0.2l0.1-0.3l0.1-0.2l0.1-0.2c0-0.1,0-0.2,0.1-0.3v0c0-0.1,0-0.2,0.1-0.3l0.1-0.1l0.1-0.2
		l0-0.1c0,0,0-0.1,0-0.2c0-0.1,0.1-0.2,0.1-0.2l0-0.1c0-0.1,0-0.1,0.1-0.3l0-0.1l0-0.1l0.1-0.2l0-0.2c0-0.2,0-0.3,0.1-0.3l0-0.1
		l0-0.2c0-0.2,0.1-0.2,0.1-0.3v0l0.1-0.3l0.1-0.3l0-0.2l0.1-0.3c0-0.1,0-0.1,0.1-0.2v-0.1c0-0.3,0.1-0.6,0.1-1c0-0.3,0-0.5,0-0.8
		c0-0.5-0.1-1-0.1-1.7l0-0.1c0,0,0,0,0-0.1v-0.1l0-0.1c0,0,0-0.1-0.1-0.2l0-0.1l0-0.2v-0.1l-0.2-0.5l-0.2-0.5L51.1,27l-0.2-0.4
		l0-0.1l-0.1-0.1l-0.1-0.1c0-0.1,0-0.1,0-0.1v0l-0.1-0.1l-0.1-0.1l-0.1-0.1c-0.1-0.1-0.1-0.1-0.1-0.2c0,0-0.1-0.1-0.2-0.2l-0.1-0.1
		l-0.1-0.1c0,0-0.1-0.1-0.1-0.1l-0.1-0.2c0,0-0.1-0.1-0.1-0.1c0,0,0,0,0.1,0.1c0-0.1-0.1-0.2-0.2-0.3l-0.1-0.1
		c0-0.1-0.1-0.1-0.1-0.1l-0.1-0.1c0,0-0.1-0.1-0.1-0.1l-0.1-0.1L49.1,24C49,24,49,23.9,49,23.9l-0.1-0.1l-0.2-0.2
		c-0.1-0.1-0.1-0.1-0.1-0.2c0,0-0.1-0.1-0.1-0.1l0,0l-0.1-0.1v0h0l-0.2-0.2L48,22.9l-0.1-0.1l-0.2-0.1l-0.4-0.3L47,22.2l0,0
		c0,0-0.1,0-0.2-0.1l-0.1-0.1l-0.1,0l-0.3-0.1c0,0-0.1,0-0.1,0l-0.1,0l-0.1,0h-0.1c0,0-0.1,0-0.2,0l-0.1-0.1l-0.1,0h0
		c-0.1,0-0.2,0-0.4-0.1l-0.1-0.1l-0.3-0.1l-0.3-0.1c-0.3-0.1-0.5-0.1-0.8-0.2h-0.2l-0.3,0h-0.2l-0.2,0H42l-0.1,0c-0.1,0-0.2,0-0.3,0
		h-0.2l-0.2,0c-0.1,0-0.1,0-0.2,0s-0.1,0-0.1,0h-0.3c-0.1,0-0.2,0-0.2,0l-0.4,0l-0.4,0c-0.3,0-0.5,0-0.7,0h0c0,0,0,0-0.1,0l-0.1,0
		h-0.1c-0.3,0-0.6,0.1-1,0.2l-0.6,0.1l-0.5,0.1l-0.1,0l-0.1,0.1c-0.1,0-0.1,0-0.2,0h-0.1c0,0,0,0-0.1,0.1l-0.1,0l-0.1,0
		c-0.1,0-0.2,0.1-0.4,0.2c-0.2,0-0.3,0.1-0.4,0.1l-0.3,0.1l-0.1,0.1l-0.1,0c-0.1,0-0.2,0.1-0.2,0.1h0l-0.1,0l-0.1,0.1
		c-0.1,0-0.1,0-0.1,0H34L34,22.6l-0.3,0.2L33.3,23c-0.3,0.2-0.5,0.3-0.6,0.3l0,0c-0.2,0.1-0.4,0.2-0.6,0.3l0,0c0,0-0.1,0.1-0.3,0.2
		c-0.1,0.1-0.2,0.1-0.3,0.1L31.2,24l-0.7,0.5l-0.1,0.1c0,0.1-0.1,0.1-0.2,0.2L30,24.8l-0.1,0.1l-0.2,0.1c-0.1,0.1-0.2,0.2-0.4,0.4
		c-0.2,0.2-0.3,0.3-0.4,0.3h-0.1l-0.1,0.1L28.7,26c-0.1,0.1-0.1,0.1-0.2,0.2l-0.2,0.2l-0.2,0.1c-0.2,0.1-0.3,0.2-0.4,0.3l-0.1,0.1
		l-0.1,0.1C27.4,27,27.4,27,27.3,27l-0.3,0.2c-0.1,0.1-0.2,0.1-0.2,0.1l-0.1,0.1c-0.1,0-0.2,0.1-0.3,0.1c-0.1,0-0.2,0-0.3-0.1v0
		c0,0-0.1,0-0.1,0c-0.1,0-0.2-0.1-0.3-0.2l-0.2-0.1L25.4,27c0,0-0.1,0-0.1,0l-0.1,0l0,0c0,0,0,0-0.1,0h-0.1c-0.1,0-0.1,0-0.2-0.1
		l0,0h-0.1c0,0-0.1,0-0.1,0l-0.1-0.1l-0.1,0l-0.3,0l-0.3,0c-0.2,0-0.4,0-0.5-0.1c-0.1-0.1-0.3-0.2-0.3-0.3v-0.3
		c0-0.2-0.1-0.3-0.3-0.4l-0.1,0l-0.1,0c0,0,0,0-0.1,0c0,0,0,0-0.1,0c-0.1,0-0.2,0-0.3-0.1l0,0c-0.1,0-0.2,0.1-0.3,0.1
		c-0.1,0-0.3-0.1-0.4-0.2l-0.1,0l0-0.1c0,0,0,0,0-0.1c0,0,0,0,0-0.1V25c0-0.1,0-0.2,0-0.3c0.1-0.2,0.1-0.3,0.2-0.4l0.3-0.3l0.2-0.3
		c0,0,0,0,0-0.1l0.1-0.1v-0.1c0.1-0.1,0.2-0.3,0.4-0.5c0.2-0.2,0.3-0.3,0.4-0.4l0.2-0.2l0.2-0.2c0,0,0-0.1,0.2-0.2l0.1-0.1l0.1-0.1
		c0-0.1,0.1-0.2,0.2-0.3l0.3-0.3c0,0,0.1-0.1,0.2-0.2l0.1-0.1l0.1-0.1c0.1-0.1,0.4-0.4,0.7-0.7l0.1-0.1l0,0l0,0
		c0-0.1,0.1-0.1,0.2-0.2l0.2-0.1l0.1-0.1l0,0l0.1-0.1l0.1-0.1c0.1-0.1,0.1-0.1,0.2-0.2c0,0,0.1-0.1,0.2-0.2l0.1-0.1L27,19l0.1-0.1
		c0-0.1,0.1-0.1,0.2-0.1c0-0.1,0.1-0.1,0.3-0.2l0.2-0.1l0.2-0.1c0.1-0.1,0.2-0.2,0.4-0.3c0.2-0.1,0.3-0.2,0.4-0.2l0.1-0.1
		c0,0,0.2-0.1,0.3-0.2c0.2-0.1,0.3-0.2,0.4-0.2l0.1-0.1c0,0,0.1-0.1,0.2-0.1l0.2-0.1l0.2-0.1c0,0,0.1-0.1,0.2-0.2
		c0.1-0.1,0.2-0.1,0.3-0.1l0.1-0.1c0,0,0,0,0.1,0v0l0.4-0.2c0.1-0.1,0.2-0.1,0.4-0.2c0.2-0.1,0.3-0.1,0.4-0.2c0,0,0,0,0.1,0
		c0,0,0,0,0,0l0.4-0.2c0.1,0,0.2-0.1,0.4-0.2c0.1-0.1,0.2-0.1,0.3-0.1h0.1c0,0,0,0,0.1,0h0c0,0,0.1,0,0.2,0l0.1-0.1l0.2,0
		c0,0,0.1-0.1,0.3-0.1c0.1,0,0.2,0,0.2,0h0.1l0.1,0l0,0c0,0,0,0,0,0c0,0,0,0,0.1,0h0.1c0,0,0.1-0.1,0.3-0.1c0.2,0,0.3-0.1,0.4-0.1
		c0.1,0,0.2,0,0.3-0.1h0.3l0.1,0l0.2,0c0.1,0,0.1,0,0.2,0h0.1l0.1,0l0.2,0c0.1,0,0.1,0,0.2,0s0.1,0,0.1,0c0.2,0,0.3,0,0.5-0.1
		c0.1,0,0.2,0,0.4-0.1c0.1,0,0.2,0,0.2,0c0.1,0,0.1,0,0.1,0h0.6l0.3,0c0.1,0,0.2,0,0.3,0c0.1,0,0.2,0,0.2,0h0.3c0.1,0,0.1,0,0.1,0
		c0,0,0.1,0,0.1,0h0.6c0,0,0.1,0,0.1,0c0.1,0,0.2,0,0.3,0c0.2,0,0.3,0,0.4,0l0.1,0h0.2c0.1,0,0.3,0,0.5,0c0.3,0,0.5,0.1,0.7,0.1
		l0.1,0v0h0c0.8,0.1,1.7,0.3,2.7,0.6c0.7,0.2,1.6,0.5,2.5,1c0.1,0,0.2,0.1,0.4,0.2c0.4,0.2,0.9,0.5,1.5,0.9l0.8,0.5l0.3,0.3l0.4,0.2
		l0.1,0.1c0.1,0,0.2,0.1,0.4,0.2l0.2,0.2l0.2,0.2l0,0.1c0.2,0.1,0.4,0.3,0.7,0.5L54,20l0.3,0.3l0,0.1c0.1,0.1,0.3,0.3,0.6,0.6L55,21
		c0.1,0.1,0.3,0.3,0.5,0.5l0.2,0.3l0.2,0.4l0.3,0.3c0.1,0.2,0.2,0.3,0.2,0.3l0.2,0.4l0.2,0.4l0.4,0.9l0,0.1c0.1,0.1,0.2,0.3,0.3,0.6
		l0.1,0.4l0.1,0.3l0.1,0.2c0.1,0.5,0.3,1.1,0.4,1.6c0.3,1.4,0.4,2.8,0.4,4.3c0,0.4,0,0.8,0,1.2c-0.1,1.8-0.4,3.4-1,4.9
		c0,0.1-0.1,0.2-0.1,0.3l0,0c-0.5,1.3-1.2,2.6-2.1,3.8c-0.9,1.2-1.9,2.2-3,3.2c-1.7,1.4-3.9,2.8-6.8,4.3c-0.4,0.2-0.8,0.4-1.3,0.7
		l-1.2,0.6c-0.6,0.3-1.1,0.6-1.5,0.8v0.1c0,0,0,0,0,0l0,0l0.1,0.2c0,0,0.1,0.1,0.1,0.2c0,0.1,0.1,0.1,0.1,0.2v0.2l0.1,0.1
		c0,0,0,0,0.1,0.1c0,0.1,0,0.1,0,0.2V53l0,0c0,0,0,0,0.1,0.1c0,0,0,0,0,0c0,0,0,0.1,0,0.1v0c0,0.1,0.1,0.1,0.1,0.2v0.1l0.1,0.1
		c0,0,0,0,0,0.1c0,0,0,0,0,0.1h0v0.1l0.1,0.1c0,0,0,0,0,0.1l0,0l0,0.1l0,0.1c0,0,0.1,0.1,0.1,0.1c0,0,0,0.1,0,0.1c0,0,0,0,0,0.1
		c0,0,0,0.1,0.1,0.2l0,0.1l0.1,0.1c0,0.1,0.1,0.1,0.1,0.2l0,0.1l0,0.1c0,0,0,0.1,0,0.1l0.1,0.2c0,0,0.1,0.1,0.1,0.1
		c0,0.1,0.1,0.1,0.1,0.2c0,0.1,0.1,0.1,0.2,0.3c0,0.1,0.1,0.2,0.1,0.3l0,0.1l0,0v0c0.2,0.3,0.4,0.6,0.6,1l0.3,0.5l0.2,0.5l0,0
		c0,0,0,0.1,0.1,0.2l0.2,0.3l0.2,0.3c0.2,0.3,0.3,0.5,0.4,0.6l0,0.1c0,0,0.1,0,0.1,0.1l0.1,0.1l0,0.1h0c0,0.1,0.1,0.2,0.2,0.3
		l0.2,0.3v0c0.1,0,0.1,0.1,0.2,0.2l0,0c0.1,0,0.2,0.2,0.4,0.4l0.1,0.1l0.1,0.1l0.2,0.3l0.2,0.3l0,0c0,0,0.1,0.1,0.2,0.2l0.1,0.1
		l0.1,0.1l0.1,0.1l0.3,0.5c0.3,0.4,0.8,0.9,1.4,1.6l0.1,0.1l0.5,0.6c0.3,0.3,0.5,0.5,0.6,0.7v0c0.2,0.3,0.4,0.5,0.7,0.8
		c0.5,0.6,1,1.1,1.4,1.5c0.8,0.7,1.7,1.3,2.6,1.6c0.3,0.1,0.7,0.2,1.1,0.2l0.5,0l0.6,0H58c0.1,0,0.1,0,0.2,0.1l0.4,0h0.5
		c0.4,0,0.6,0,0.9,0l0.2,0l0.2,0.1c0,0,0,0.1,0.1,0.1c0.6,0.1,1.1,0.2,1.7,0.2c1.4,0.1,2.4,0,3.2-0.4c1.1-0.5,2.2-1.5,3.3-3.3
		c2.9-4.3,4.7-9.5,5.7-16c0.9-5.9,1-12,1-17.9c0-4.3,0-8.3-0.9-12.2c-0.6-2.7-1.6-4.9-2.9-6.3c-2.3-2.7-6.2-3.9-10.1-4.9
		c-16.3-4.2-30.1-3.7-41,1.5c-2.6,1.2-4.5,2.5-5.9,3.9c-1.4,1.4-2.6,3.2-3.6,5.4C7.5,28,7.1,36.3,7,46.3c0,4.9-0.1,10,1.5,14.5
		c1,3.1,2.8,6,5.2,9.4c2.5,3.6,4.7,6.5,7.5,8.7c3.4,2.7,7.8,4.5,13.3,5.4c0.8,0.1,1.6,0.3,2.4,0.3c0.6,0.1,1.3,0.1,2,0.2
		c4,0.3,8,0.2,11.9-0.3c0,0,0.1,0,0.1,0h1.6c0.3,0,0.5,0,0.6,0c0.2,0,0.3,0,0.4,0c0.1,0,0.2,0,0.2,0c0.1,0,0.2,0,0.3,0h0.3l0.2,0
		l0.3-0.1c0.2,0,0.3,0,0.4,0l0.2,0h0.2c0.1,0,0.2,0,0.3,0l0.1,0l0.2,0l0.3,0c0.2-0.1,0.4-0.1,0.4-0.1h0.1l0,0v0l0.3-0.1
		c0.6-0.2,1.1-0.3,1.6-0.5l0.2,0l0.3-0.1c0.2-0.1,0.3-0.1,0.4-0.1l0.3-0.1l0.3-0.1c0.3-0.1,0.5-0.2,0.5-0.2l0.2-0.1l0.3-0.1
		c0.2-0.1,0.3-0.1,0.4-0.1l0.3-0.2l0.4-0.2c0.1-0.1,0.2-0.1,0.4-0.2l0.5-0.3c0.4-0.2,0.7-0.4,0.9-0.5l0.1,0l0.1-0.1c0,0,0,0,0,0
		l0.1-0.1c0.1,0,0.2,0,0.2,0c0.2-0.1,0.3-0.2,0.6-0.3L66,80c0.2-0.1,0.4-0.3,0.6-0.4c0.2-0.1,0.3-0.1,0.5-0.1h0c0.1,0,0.1,0,0.2,0h0
		l0,0v0.1c0.1,0.1,0.1,0.3,0.1,0.4c0,0.2-0.1,0.3-0.2,0.5v0.2c0,0.1,0,0.1,0,0.2c0,0.1,0,0.1,0,0.2v0.3c0,0.2,0.1,0.3,0.3,0.3
		c0.1,0,0.1,0,0.2,0c0.1,0,0.2,0,0.3,0h0.1c0.2,0,0.4,0.1,0.4,0.3c0,0.2,0,0.4-0.1,0.7L68.4,83l-0.1,0.4l0.1,0.1c0,0,0,0.1,0,0.1
		c0,0,0,0.1-0.1,0.1V84c0,0.1,0,0.2-0.1,0.3c0,0,0,0.1-0.1,0.1c0,0,0,0,0,0.1c0,0,0,0.1,0,0.1v0.1l0,0l0.1,0.2c0,0,0,0.1,0,0.1
		c0,0,0,0.1,0,0.1c0.1,0.1,0.1,0.2,0.1,0.3c0,0.1-0.1,0.3-0.2,0.4c0.1,0.1,0.1,0.1,0.1,0.2c0,0.2-0.2,0.4-0.6,0.8l-0.2,0.1
		c-0.1,0.1-0.3,0.3-0.5,0.4c-0.1,0.1-0.1,0.1-0.2,0.2l0,0c-6.2,2.5-12.9,4-19.6,4.4C46,92,44.6,92,43.3,92c-1.7,0-3.4-0.1-5.1-0.2
		c-0.8-0.1-1.5-0.1-2.2-0.2c-7.9-1-14.4-3.4-19.2-7.2c-3.7-2.9-6.4-6.6-8.9-10.2c-2.2-3.1-4.6-6.8-6-11.1C-0.1,57.4,0,51.5,0,46.3
		C0.1,37.7,0.2,27,4.6,17.7c1.4-2.9,3-5.4,5-7.4c2-2,4.6-3.7,7.9-5.3c12.5-5.9,27.8-6.6,45.8-2c4.7,1.2,10,3,13.6,7.1
		c2.1,2.4,3.6,5.5,4.5,9.4C82.3,24.1,82.3,28.7,82.3,33.2z"/>
</g>
</svg>
