<svg id="Camada_1" data-name="Camada 1" xmlns="http://www.w3.org/2000/svg" viewBox="0 0 82.3 64.61"><defs><style>.cls-1{fill:#fff;}</style></defs><title>iconRUDSON</title><path class="cls-1" d="M82.3,15.47v35.4a1.77,1.77,0,0,1-1.77,1.77H62.11a4.78,4.78,0,0,1-4.78-4.78h0a9.73,9.73,0,0,1,1.47-5.51c2.31-3.27,4-6.34,1.64-10.06S54,28.57,50.07,29.13C37,31,28.32,40.17,27.43,53V76.53a1.77,1.77,0,0,1-1.77,1.77H1.77A1.77,1.77,0,0,1,0,76.53V15.47A1.77,1.77,0,0,1,1.77,13.7H18.58a1.77,1.77,0,0,1,1.77,1.77V42.82c0,2.12.88,3.94,2.91,4s3.54-1.67,4.19-3c3.84-8,8.92-14.88,16.08-20.19A50,50,0,0,1,74.09,13.7h6.44A1.77,1.77,0,0,1,82.3,15.47Z" transform="translate(0 -13.7)"/></svg>