<svg id="Camada_1" data-name="Camada 1" xmlns="http://www.w3.org/2000/svg" viewBox="0 0 681.97 46.85"><defs><style>.cls-1{fill:#fff;}</style></defs><title>OUTROS</title><path class="cls-1" d="M11.59,43.88a21.61,21.61,0,0,1-8.52-8.29A23.87,23.87,0,0,1,0,23.43,23.91,23.91,0,0,1,3.07,11.3,21.55,21.55,0,0,1,11.59,3,25.32,25.32,0,0,1,23.93,0,25.64,25.64,0,0,1,36.38,3a21.28,21.28,0,0,1,8.52,8.33,24.11,24.11,0,0,1,3,12.12,24.07,24.07,0,0,1-3,12.16,21.34,21.34,0,0,1-8.52,8.29,25.64,25.64,0,0,1-12.44,3A25.32,25.32,0,0,1,11.59,43.88ZM30.2,34a11,11,0,0,0,4.21-4.34,12.91,12.91,0,0,0,1.49-6.24,13,13,0,0,0-1.49-6.21,10.92,10.92,0,0,0-4.21-4.37,12.26,12.26,0,0,0-6.27-1.58,12.08,12.08,0,0,0-6.24,1.58,10.75,10.75,0,0,0-4.15,4.37,13.19,13.19,0,0,0-1.46,6.21,13.14,13.14,0,0,0,1.46,6.24A10.79,10.79,0,0,0,17.7,34a12.07,12.07,0,0,0,6.24,1.58A12.25,12.25,0,0,0,30.2,34Z"/><path class="cls-1" d="M64.61,44.29a19.08,19.08,0,0,1-7.44-7.16,20,20,0,0,1-2.72-10.41V.63H66V27.29a7.64,7.64,0,0,0,2.6,6,9.44,9.44,0,0,0,6.52,2.31,9.56,9.56,0,0,0,6.55-2.31,7.6,7.6,0,0,0,2.63-6V.63H95.86V26.72a20.19,20.19,0,0,1-2.69,10.41,18.81,18.81,0,0,1-7.44,7.16,23,23,0,0,1-21.12,0Z"/><path class="cls-1" d="M142.71,11.52H127.39v34.7H115.87V11.52H100.55V.63h42.17Z"/><path class="cls-1" d="M192.42,46.22H175.89L160.76,30.39V46.22H149.23V.63h24.19A17.19,17.19,0,0,1,182,2.75a15.41,15.41,0,0,1,5.89,5.79A16,16,0,0,1,190,16.72a15.47,15.47,0,0,1-1.68,7.19,14.18,14.18,0,0,1-4.62,5.29A15.19,15.19,0,0,1,177,31.72ZM160.76,22.67h11.4A5.56,5.56,0,0,0,176.3,21a5.72,5.72,0,0,0,1.61-4.18,5.73,5.73,0,0,0-1.61-4.18A5.57,5.57,0,0,0,172.15,11h-11.4Z"/><path class="cls-1" d="M207.23,43.88a21.61,21.61,0,0,1-8.52-8.29,23.87,23.87,0,0,1-3.07-12.16,23.91,23.91,0,0,1,3.07-12.12A21.55,21.55,0,0,1,207.23,3a25.32,25.32,0,0,1,12.35-3A25.62,25.62,0,0,1,232,3a21.26,21.26,0,0,1,8.52,8.33,24.11,24.11,0,0,1,3,12.12,24.07,24.07,0,0,1-3,12.16A21.32,21.32,0,0,1,232,43.88a25.62,25.62,0,0,1-12.44,3A25.32,25.32,0,0,1,207.23,43.88ZM225.85,34a10.94,10.94,0,0,0,4.21-4.34,12.91,12.91,0,0,0,1.49-6.24,13,13,0,0,0-1.49-6.21,10.91,10.91,0,0,0-4.21-4.37,12.25,12.25,0,0,0-6.27-1.58,12.07,12.07,0,0,0-6.24,1.58,10.75,10.75,0,0,0-4.15,4.37,13.19,13.19,0,0,0-1.46,6.21,13.14,13.14,0,0,0,1.46,6.24A10.78,10.78,0,0,0,213.34,34a12.06,12.06,0,0,0,6.24,1.58A12.24,12.24,0,0,0,225.85,34Z"/><path class="cls-1" d="M257.57,45.75a30.74,30.74,0,0,1-8.68-3.26V31a32,32,0,0,0,9.53,4,42.37,42.37,0,0,0,10.22,1.33,19.23,19.23,0,0,0,6.9-.89q2.09-.89,2.09-2.28,0-1.58-2.12-2.41A45.67,45.67,0,0,0,268.65,29a84.23,84.23,0,0,1-9.91-2.53,17.7,17.7,0,0,1-6.9-4.24,10.54,10.54,0,0,1-2.95-7.85A12.89,12.89,0,0,1,251,7.22,14.49,14.49,0,0,1,257.88,2a33.17,33.17,0,0,1,12.54-2Q280,0,286.31,2.47V14a32.6,32.6,0,0,0-8-2.56,48.06,48.06,0,0,0-9.37-.92q-8.11,0-8.11,2.85,0,1.52,2.15,2.31a43.37,43.37,0,0,0,6.71,1.61,79.81,79.81,0,0,1,9.91,2.37,17.43,17.43,0,0,1,7,4.24,10.76,10.76,0,0,1,3,8,12.86,12.86,0,0,1-5.51,10.86q-5.51,4.09-16.4,4.09A46.16,46.16,0,0,1,257.57,45.75Z"/><path class="cls-1" d="M349.09,2.69a15,15,0,0,1,6.08,5.79,16.74,16.74,0,0,1,2.18,8.61,16.74,16.74,0,0,1-2.18,8.61,15.22,15.22,0,0,1-6.08,5.82,18.52,18.52,0,0,1-8.9,2.09H327.78v12.6H316.26V.63h23.93A18.75,18.75,0,0,1,349.09,2.69ZM343.45,21.5a5.76,5.76,0,0,0,1.87-4.4,5.66,5.66,0,0,0-1.87-4.37A6.81,6.81,0,0,0,338.67,11H327.78V23.24h10.89A6.73,6.73,0,0,0,343.45,21.5Z"/><path class="cls-1" d="M408.07,46.22H391.54L376.41,30.39V46.22H364.89V.63h24.18a17.2,17.2,0,0,1,8.58,2.12,15.4,15.4,0,0,1,5.89,5.79,16,16,0,0,1,2.12,8.17A15.5,15.5,0,0,1,404,23.9a14.19,14.19,0,0,1-4.62,5.29,15.19,15.19,0,0,1-6.68,2.53ZM376.41,22.67h11.4A5.56,5.56,0,0,0,392,21a5.72,5.72,0,0,0,1.62-4.18A5.73,5.73,0,0,0,392,12.66,5.56,5.56,0,0,0,387.81,11h-11.4Z"/><path class="cls-1" d="M422.88,43.88a21.59,21.59,0,0,1-8.52-8.29,23.86,23.86,0,0,1-3.07-12.16,23.9,23.9,0,0,1,3.07-12.12A21.53,21.53,0,0,1,422.88,3a25.31,25.31,0,0,1,12.35-3,25.62,25.62,0,0,1,12.44,3,21.26,21.26,0,0,1,8.52,8.33,24.11,24.11,0,0,1,3,12.12,24.07,24.07,0,0,1-3,12.16,21.32,21.32,0,0,1-8.52,8.29,25.62,25.62,0,0,1-12.44,3A25.31,25.31,0,0,1,422.88,43.88ZM441.5,34a10.94,10.94,0,0,0,4.21-4.34,12.91,12.91,0,0,0,1.49-6.24,13,13,0,0,0-1.49-6.21,10.91,10.91,0,0,0-4.21-4.37,12.25,12.25,0,0,0-6.27-1.58A12.07,12.07,0,0,0,429,12.85a10.74,10.74,0,0,0-4.15,4.37,13.17,13.17,0,0,0-1.46,6.21,13.12,13.12,0,0,0,1.46,6.24A10.77,10.77,0,0,0,429,34a12.06,12.06,0,0,0,6.24,1.58A12.24,12.24,0,0,0,441.5,34Z"/><path class="cls-1" d="M491.2,27.29A21.19,21.19,0,0,1,488.67,38a16.19,16.19,0,0,1-7.06,6.62,23.57,23.57,0,0,1-10.48,2.22,21.81,21.81,0,0,1-8.8-1.71V33.68a22.34,22.34,0,0,0,8.86,1.9,8.77,8.77,0,0,0,6.08-2.15,7.13,7.13,0,0,0,2.41-5.57V11.52H463V.63H491.2Z"/><path class="cls-1" d="M512.6,11v7.09h25.2V28.49H512.6v7.35h25.83V46.22H501.08V.63h37.35V11Z"/><path class="cls-1" d="M586,11.52H570.72v34.7H559.2V11.52H543.88V.63H586Z"/><path class="cls-1" d="M599.59,43.88a21.59,21.59,0,0,1-8.52-8.29A23.86,23.86,0,0,1,588,23.43a23.9,23.9,0,0,1,3.07-12.12A21.53,21.53,0,0,1,599.59,3a25.31,25.31,0,0,1,12.35-3,25.62,25.62,0,0,1,12.44,3,21.26,21.26,0,0,1,8.52,8.33,24.11,24.11,0,0,1,3,12.12,24.07,24.07,0,0,1-3,12.16,21.32,21.32,0,0,1-8.52,8.29,25.62,25.62,0,0,1-12.44,3A25.31,25.31,0,0,1,599.59,43.88ZM618.21,34a10.94,10.94,0,0,0,4.21-4.34,12.91,12.91,0,0,0,1.49-6.24,13,13,0,0,0-1.49-6.21,10.91,10.91,0,0,0-4.21-4.37,12.25,12.25,0,0,0-6.27-1.58,12.07,12.07,0,0,0-6.24,1.58,10.74,10.74,0,0,0-4.15,4.37,13.17,13.17,0,0,0-1.46,6.21,13.12,13.12,0,0,0,1.46,6.24A10.77,10.77,0,0,0,605.7,34a12.06,12.06,0,0,0,6.24,1.58A12.24,12.24,0,0,0,618.21,34Z"/><path class="cls-1" d="M649.93,45.75a30.74,30.74,0,0,1-8.68-3.26V31a32,32,0,0,0,9.53,4A42.37,42.37,0,0,0,661,36.34a19.23,19.23,0,0,0,6.9-.89q2.09-.89,2.09-2.28,0-1.58-2.12-2.41A45.67,45.67,0,0,0,661,29a84.23,84.23,0,0,1-9.91-2.53,17.7,17.7,0,0,1-6.9-4.24,10.54,10.54,0,0,1-2.95-7.85,12.89,12.89,0,0,1,2.09-7.15A14.49,14.49,0,0,1,650.25,2a33.17,33.17,0,0,1,12.54-2q9.56,0,15.89,2.47V14a32.6,32.6,0,0,0-8-2.56,48.06,48.06,0,0,0-9.37-.92q-8.11,0-8.11,2.85,0,1.52,2.15,2.31a43.37,43.37,0,0,0,6.71,1.61A79.81,79.81,0,0,1,672,19.66a17.43,17.43,0,0,1,7,4.24,10.76,10.76,0,0,1,3,8,12.86,12.86,0,0,1-5.51,10.86q-5.51,4.09-16.4,4.09A46.16,46.16,0,0,1,649.93,45.75Z"/></svg>