<svg id="Camada_1" data-name="Camada 1" xmlns="http://www.w3.org/2000/svg" viewBox="0 0 362.81 46.85"><defs><style>.cls-1{fill:#fff;}</style></defs><title>PROJETOS</title><path class="cls-1" d="M32.32,2.62a14.47,14.47,0,0,1,5.89,5.6,16.13,16.13,0,0,1,2.11,8.29,16.12,16.12,0,0,1-2.11,8.29,14.68,14.68,0,0,1-5.89,5.63,18.07,18.07,0,0,1-8.64,2H10.18V46.21H0V.64H23.68A18.31,18.31,0,0,1,32.32,2.62ZM27.68,21.28a6.35,6.35,0,0,0,2-4.77,6.25,6.25,0,0,0-2-4.74,7,7,0,0,0-5-1.86H10.18V23.17H22.66A6.93,6.93,0,0,0,27.68,21.28Z"/><path class="cls-1" d="M75.71,46.21l-17-16.38V46.21H48.51V.64H72.45a16.91,16.91,0,0,1,8.32,2,14.36,14.36,0,0,1,5.66,5.57,15.86,15.86,0,0,1,2,8,15.13,15.13,0,0,1-1.92,7.65,13.64,13.64,0,0,1-5.31,5.25A15.64,15.64,0,0,1,73.47,31L90.69,46.21Zm-17-36.29V22.59H71.42a6.13,6.13,0,0,0,6.34-6.34,6.13,6.13,0,0,0-6.34-6.34Z"/><path class="cls-1" d="M105.63,43.87a21.18,21.18,0,0,1-8.42-8.32,24.29,24.29,0,0,1-3-12.13,24.29,24.29,0,0,1,3-12.13A21.19,21.19,0,0,1,105.63,3a26.86,26.86,0,0,1,24.58,0,21.2,21.2,0,0,1,8.42,8.32,24.3,24.3,0,0,1,3,12.13,24.3,24.3,0,0,1-3,12.13,21.19,21.19,0,0,1-8.42,8.32,26.85,26.85,0,0,1-24.58,0Zm19.1-8.64a12.12,12.12,0,0,0,4.58-4.86,14.69,14.69,0,0,0,1.63-6.94,14.69,14.69,0,0,0-1.63-6.94,12.13,12.13,0,0,0-4.58-4.86,14.14,14.14,0,0,0-13.66,0,11.84,11.84,0,0,0-4.58,4.86,14.92,14.92,0,0,0-1.6,6.94,14.92,14.92,0,0,0,1.6,6.94,11.82,11.82,0,0,0,4.58,4.86,14.14,14.14,0,0,0,13.66,0Z"/><path class="cls-1" d="M173.25,27.39q0,9.34-5.38,14.4t-14.59,5.06A23,23,0,0,1,145,45.38V35.26A21.55,21.55,0,0,0,153.53,37a9.56,9.56,0,0,0,6.82-2.56,8.57,8.57,0,0,0,2.72-6.53V10.18H145.6V.64h27.65Z"/><path class="cls-1" d="M194.11,9.92v8.7h25.28V27.9H194.11v9h26.24v9.28H183.94V.64h36.42V9.92Z"/><path class="cls-1" d="M267.58,10.18H252v36H241.85v-36H226.24V.64h41.34Z"/><path class="cls-1" d="M281.25,43.87a21.18,21.18,0,0,1-8.42-8.32,24.29,24.29,0,0,1-3-12.13,24.29,24.29,0,0,1,3-12.13A21.19,21.19,0,0,1,281.25,3a26.86,26.86,0,0,1,24.58,0,21.2,21.2,0,0,1,8.42,8.32,24.3,24.3,0,0,1,3,12.13,24.3,24.3,0,0,1-3,12.13,21.19,21.19,0,0,1-8.42,8.32,26.85,26.85,0,0,1-24.58,0Zm19.1-8.64a12.12,12.12,0,0,0,4.58-4.86,14.69,14.69,0,0,0,1.63-6.94,14.69,14.69,0,0,0-1.63-6.94,12.13,12.13,0,0,0-4.58-4.86,14.14,14.14,0,0,0-13.66,0,11.84,11.84,0,0,0-4.58,4.86,14.92,14.92,0,0,0-1.6,6.94,14.92,14.92,0,0,0,1.6,6.94,11.82,11.82,0,0,0,4.58,4.86,14.14,14.14,0,0,0,13.66,0Z"/><path class="cls-1" d="M331.2,45.86a27.78,27.78,0,0,1-8.32-3V32.58a30.39,30.39,0,0,0,9.06,3.52,44.69,44.69,0,0,0,10,1.22q5.63,0,8-1.12t2.34-2.78A2.71,2.71,0,0,0,351,31.1a10.59,10.59,0,0,0-3.2-1.44q-1.92-.54-5.57-1.38a88.47,88.47,0,0,1-9.63-2.59A16.84,16.84,0,0,1,326,21.57a10.18,10.18,0,0,1-2.78-7.49,12.53,12.53,0,0,1,2-6.94A14.37,14.37,0,0,1,331.93,2,31,31,0,0,1,344,0a59,59,0,0,1,8.29.58,31.44,31.44,0,0,1,7,1.73V12.74a29.82,29.82,0,0,0-7.55-2.37,46.61,46.61,0,0,0-8.9-.9q-5.06,0-7.07,1t-2,2.56q0,1.79,2.37,2.75a45.46,45.46,0,0,0,7.36,2,84.5,84.5,0,0,1,9.76,2.53A17,17,0,0,1,360,24.51a10.45,10.45,0,0,1,2.85,7.68,12.79,12.79,0,0,1-2.34,7.58A15.27,15.27,0,0,1,353.25,45,34.35,34.35,0,0,1,341,46.85,48.88,48.88,0,0,1,331.2,45.86Z"/></svg>