<svg id="Camada_1" data-name="Camada 1" xmlns="http://www.w3.org/2000/svg" viewBox="0 0 4995.74 2645"><defs><style>.cls-1{fill:#ffc800;}</style></defs><title>RDSN</title><path class="cls-1" d="M1595.75,2640.7l-13.18-.27-14.24,1.16c-10.48.13-25.28-2.06-25.28-2.06l-6.38,1.14-2.62.45q-18.31,1.87-44.32.66c-4.92-.42-9.8-.9-14.64-1.46l3.6,1.67h3.89l14.19,1.38c.85.85,7.76,1.48,7.76,1.62h24.09a104.35,104.35,0,0,0,17.31-1.46,1.18,1.18,0,0,0,1.32-1.32l4,1.32a32.38,32.38,0,0,0,9.35-1.54h17.58c0,.21,5.59-.34,6.46-1.22l12.95,1.22h1A13.65,13.65,0,0,1,1595.75,2640.7Zm-68.57-284.19,5.77,2.91,7.65-1.35a9.32,9.32,0,0,1,5.08-.9c4.39.13,7.15,1,8.31,2.49,1,.71,3.23,1.19,6.8,1.43l6.65.32,5.08-.9,11.12,3.42,3.63-.66c-1.91-1.93-3.2-3.23-3.92-3.92l-7.73-2.59-7.78-1.3c-8.6,0-20.25-.45-34.89-1.46h-8.9C1525.35,2354.82,1527.1,2356,1527.18,2356.52Zm-13.4-1.77,1.24-.24,2.91-.5h-3.07l-1.77-.11A1.28,1.28,0,0,1,1513.78,2354.74Zm-8-2.14-1.67-.11,1.51.13Zm-15-2.19a40.1,40.1,0,0,1,4.55.37,31.49,31.49,0,0,0-5-2.78h-8.23l-14.61-.79a.24.24,0,0,1,.08.18l2.81.85,1.56,1,2.83.9.24-.05a40,40,0,0,1,9-1.14C1487.52,2349.24,1489.77,2349.72,1490.77,2350.41Zm-38,289.59h6.46l1.56-1.06c-3.57-.5-7.15-1.06-10.67-1.64Z" transform="translate(-2.13)"/><path class="cls-1" d="M3137.52,2049.65c-3.84,3.31-5.59,5.8-5.27,7.52s-1,4.13-4,7.23c-2.83,4-4.66,6.06-5.48,6.22l-3.81.66-2.09,3-9.64,12.18c.29,1.72-1.11,3.73-4.21,6l-3.15,4.5-3.39,3.23-6.27,9a40.66,40.66,0,0,1-8.82,9.43l-3.39,3.2a1.17,1.17,0,0,1,1.48,1.06l-1,1.51q-8.18,13.26-22.93,26.32l-3.39,3.2c.32,1.72-1.35,4.66-5,8.76-3.81,3.34-6.57,5.11-8.23,5.4l-12.44,11.36-4.42,4.71-4.42,4.74q-4.45,4.73-8.26,5.4l-1,1.48-4.63,3.42-4.42,4.71q-5.68,5-8.26,5.4l-2.3,1.72-3.36,3.23-3.39,3.2c-3.79,3.31-6.14,5-7,5.16l-3.6,1.93a3.74,3.74,0,0,1-2.3,1.72l-3.6,2-4.63,3.44c-3.79,3.31-6.54,5.08-8.26,5.37l-8.23,5.4a29.5,29.5,0,0,0-8.23,5.35l-7.2,3.92a20.55,20.55,0,0,1-6.12,2.38l-1.06,1.48q-18,9.81-28.14,11.57l-1.06,1.48-9.5,5.61-7,1.24-7.89,5.14-30.61,19.25-29.39,19q-37.33,24.23-63.65,38.92l-8.13,1.43-2.07,3-3.92.69q-41.26,24.18-102.67,51.94l-48.24,21.47-48,22.79-12.18,4.71c-.69,1.06-2.33,1.75-4.82,2.2l-6.09,2.36a37.94,37.94,0,0,1-8.39,4.05L2489.2,2477l-16,5.4a41.14,41.14,0,0,1-9.85,3.07,1.1,1.1,0,0,1-1,1.46c-1.4,2-4.55,3.84-9.42,5.59l-7.76,1.35-5.9,3.73-3.81.69-8.9,1.56-7.65,1.35-5.9,3.73-5.08.9-5,1.69c-3.28,1.46-8.6,3.36-8.6,3.36L2388,2512l-7.2,3.95-67.46,11.91a35,35,0,0,1-8.07-1.27l-2.57.45-31.24,8.9-31.37,8.15c-24.49,5.24-60,9.93-60,9.93l-5.08.9L2173,2558l-3.81.66-8.92,1.56-5.08.9-4.63,3.52-3.84.66s-32.17,8.82-49.11,11.81c-11,2-22.16,3.49-33.15,5.4l-11.46,2c-3.55-.21-5.75-.24-6.86-1.48l-8.87,1.56-4.79,2.7c-3.42.61-5.61.56-6.62-.18a16.1,16.1,0,0,1-3.42,2.78l-31.88,5.64c-.16-.87,1.46-1.62,4.92-2.25a15.44,15.44,0,0,0-6.67-.13l-12.66,2.22-7.33-4.08-6.35,1.11-4.63,3.52-12.66,2.22c-3.63-.27-5.93-.74-7-1.46l-11.25,2c-4.53-.08-7.33-.5-8.34-1.22l-6.27,1.09-3-2.14-3.42.61-11.44,2a38.45,38.45,0,0,1-9.4-1l-10.59,1.85-33.52,3.23-14,2.46-4.71,3.07-10.4.5c.16.87-1.09,1.51-3.6,2l-2.91-1.69-3.84.66-6.72,6.57-11.44,2a60.67,60.67,0,0,0-10.19,1.8l-25.47,4.5a381.35,381.35,0,0,0-40.75,7.17l-35.64,6.27a15.85,15.85,0,0,0-10.72-1.24c-2.57.45-5.82,4.18-5.82,4.18l-8.92,1.56s-8.45-.77-9.45-1.48l-6.59-.19-6.57-.13c-3.57-.21-8-.85-8-.85l-2.54.42-4.63,3.52-3.81.66s-3.2-1.46-5.72-2.65a32.16,32.16,0,0,1-2.89-1.51l-13.18-.27-14.24,1.16c-10.48.13-25.28-2.06-25.28-2.06l-6.38,1.14-2.62.45q-18.31,1.87-44.32.66c-4.92-.42-9.8-.9-14.64-1.46l-1.59-.85c-4.29,0-9.05-2.49-9.05-2.49h-1.56l-2.2,1.5c-3.38-.47-6.75-1-10.08-1.55l-4.85-4.95h-10.78l-6.57-3h-2.52l-1.32-1.14-3.84-1.86h-3.32c-4.4-.87-7-2.19-7.94-3.93l-7.88-2.64c-2.66-.9-5.33-1.79-8-2.64l-6.56-2.66a16,16,0,0,1-4-2.61l-1.29-1.34c-9.73-3.56-16.71-7.94-21.12-13.18h-1.51l-9-3.86-7.69-3.86-28.32-11.58-25.72-10.28q-34.78-12.85-56.6-24.46a4.07,4.07,0,0,1-2.56-3.83l-1.32-2.59-1.27-1.27q-34.78-16.74-77.2-46.32l-34.74-24.46-36-24.46-7.69-6.42a10.54,10.54,0,0,1-3.86-1.27l-3.86-3.89-6.42-3.86-.77-.61-5.66-4.55-10.31-10.28a12.36,12.36,0,0,1-6.42-5.16h-2.78c-1.72,0-4.3-1.27-7.74-3.84l-2.62-3.9-3.84-3.9-2.62-2.57c-1.75,0-3.9-1.33-6.47-3.9-2.62-1.75-3.9-3.5-3.9-5.2l-2.57-2.62-3.9-3.85-2.62-1.33-6.47-6.47-2.57-2.57-3.9-3.9c-3.5-3.5-5.65-6.07-6.47-7.82l-1.33-2.57-2.57-3.9c-3.5-2.6-5.2-4.77-5.2-6.47v-1.27l-5.17-5.2-3.92-7.8-3.9-2.57-3.84-6.52-2.62-6.47-1.27-1.27-15.56-19.46-16.84-18.14q-18.18-23.39-28.56-38.92L881.6,2229h.56l-1.3-1.32v-1.27l-1.27-1.3q-2.62,0-5.17-5.16l-2.62-2.59-2.57-3.87-1.27-1.32a306.21,306.21,0,0,1-37.52-53l-1.27-2.57-1.3-2.59-2.6-2.57c-1.75-2.62-2.57-4.34-2.57-5.19l-1.27-2.6-2.62-3.89-1.27-2.57c-1.75-1.72-3.07-3-3.9-3.89-.87,0-2.15-1.32-3.9-3.89l-1.27-3.84L805.9,2123c0-.87-.87-2.17-2.6-3.89l-2.57-5.19a9.53,9.53,0,0,1-1.33-3.84l2.6,2.57-1.27-3.89-3.9-3.84q-3.9-6.51-3.9-9.05L790.4,2092a9.17,9.17,0,0,1-1.32-3.89l-2.57-3.84-1.3-5.19a7.5,7.5,0,0,1-2.6-5.16l-1.27-1.32-2.62-6.46-1.27-5.16a16.41,16.41,0,0,0-2.57-3.89v-2.69l-1.36-1.3,1.36-1.32-1.36-1.27-2.64-6.46-2.69-6.46-1.31-2.59-4-5.19-12-20.68v-1.27c-1.79,0-3.55-1.32-5.33-3.89l-4-6.46-4-6.46h-3l-1.27-1.32-1.27-2.57-1.27-1.27a36.89,36.89,0,0,1-3.83-5.16l-2.56-2.62-2.54-2.57v-1.32c-2.56-.85-5.13-3.87-7.66-9l-1.27-2.62q-11.5-12.91-24.23-33.57c-2.54-1.75-5.1-5.64-7.64-11.68l-3.83-3.84-3.86-5.19a45.41,45.41,0,0,0-6.37-9.05l-2.51-2.59L661.9,1894c-1.69-2.62-2.51-4.77-2.51-6.46l-2.59-3.89-1.24-3.89a29.48,29.48,0,0,0-3.86-6.43l-1.27-2.62-1.24-3.84a3.84,3.84,0,0,1-1.32-2.62v-3l-4.93-8.64-3.65-8.64q-6.2-9.84-7.41-14.77v-.78c-1.59,0-2.34-.83-2.34-2.52l-1.2-2.55-1.2-2.52-1.17-1.3q-7.14,90.13-7.1,160v24q0,22,6.19,55.25L630,2087q2.4,17.16,3.65,30.72l1.25,3.68v17.76s2,54.27,3,82.73v20.68c-1.87,9.48-3.59,16.78-6.16,22,0,1.69-1.32,3.84-3.89,6.46l-3.84,2.57-3.89,3.89-2.62,6.43a46.54,46.54,0,0,1-3.84,5.19l-3.89,2.59-5.16,2.57-6.46,7.78-6.49,7.73c-4.32,6-14.19,9.16-14.19,9.16h-2.62l-2.54,3h-6.51l-6.43-3.1a61.39,61.39,0,0,0-14.24-1.27l-10.35,1.27-11.62,3.1H486.92a40.78,40.78,0,0,0-19.41-4.37,47.53,47.53,0,0,0-11.62,1.27q-10.37,1.23-21.95,2.59l-14.24.51h-5.16c-8.6.79-15.51-1-20.68-4.37l-7.76-5.19-6.49-5.16-2.57-2.59-5.16-2.57-7-3.89v-1.3c-7.23-2.59-12-6.49-13.66-11.62a10.65,10.65,0,0,0,1.27-3.89c0-1.72-.45-2.59-1.27-2.59-.87-.87-1.3-2.59-1.3-5.16a7,7,0,0,1,2-5.19v-35.34l-3-7.78v-3.49s-2.88-13.34-3-24v-3.49a26.28,26.28,0,0,1-1.12-6.46c0-3.47.4-5.64,1.12-6.46V2165.9l-1.12-3.89c0-3.47.4-5.61,1.12-6.46v-10.33c.15-3.47,3-6.49,3-6.49v-16.81l3-1.27V2112s-.7-5.33,2.5-6.1l-2.5-6.1v-7.32l2.32-4.9c0-1.62,2.68-3.63,2.68-3.63v-2.15c1.62-9.48,3.66-16.39,6.1-20.68l1.21-9,1.21-7.78q1.24-22,1.27-51.71l-1.27-25.84-1.21-28.43a4.16,4.16,0,0,1,2.48-3.89l1.21-1.27v-84.06l-3-77.57v-9l-3-3.89v-40.34s-2.78-.4-2.78-1.23c-.82-.77-2.22-7.32-2.22-7.32v-11.87a43.92,43.92,0,0,1-.5-6.46,46.45,46.45,0,0,1,.5-6.46v-11.68l3-3.84v-12.95s-3.08-7.33-2.23-9.05l2.23-2.57v-12.81l.71-7.86,1.29-7.92v-3.49l1.33-6.72a44.32,44.32,0,0,1,.67-6.64v-72.2l-1-5.16a34.06,34.06,0,0,1-2.57-12.92,21.21,21.21,0,0,1,3.84-12.95c-.87-.82.42-6.43-.23-6.43v-10.35c.65,0-3.61-25.87-3.61-38.81a185.22,185.22,0,0,1,1.61-25.84v-7.73c-.34-2.57.09-4.32,2-5.19V1385.1c-1.91,0-2-5.16-2-5.16v-22.08c.85,0,1.33,1.38,1.33,4,.85-.87.67-4,.67-4v-19.3l3-3.89v-3.42l-.15-6.43c0-1.75.45-3.89.15-3.89v-8.13a26.78,26.78,0,0,0,1.6-6.43,8.86,8.86,0,0,1,1.4-3.89V1297h2v-8.4l2.58-7.76.42-7.76v-25.84c-2.59-1.75-3-6.46-3-6.46v-22.66l-5-6.1V1208l3-3.84v-1.65l-5-11v-1.84q-2.68-16-4-42.77c-1.79-3.55-2.69-8.91-2.69-16l-1.33-5.36v-4.88s-2.06-9.16-3-11.81v-18l-.12-5.16c0-3.44-.45-5.59.12-6.51v-7.73a6.08,6.08,0,0,1,0-5.16v-19.41c.06,0,.3-13.77,3-18.08v-1.32c-2.7,0-2.94-3.84-3-3.84v-3.89c.06,0-2.66-22.37-2.66-33.62,0-7.73.4-15.49,2.66-23.25v-6.46c-1.39-3.44-1-5.59,0-6.49v-1.3c-1,0-1.39-.82,0-2.57v-3.89c-2.27-2.54-2.66-6-2.66-10.33,0-5.16.4-8.6,2.66-10.35V906a6.08,6.08,0,0,1,0-5.16v-5.16c.06,0,.3-4.32,3-5.19V877.49l-3.12-10.33A147,147,0,0,1,355.07,850h1.3s.82-11.27,2.5-16.43v-1.3a19,19,0,0,1-1.23-7.76c.85-3.44,1.69-5.59,4.23-6.46V784.43c-2.54-.85-2.93-3.44-3-7.76V763.73a64.55,64.55,0,0,1-1.23-14.19,60.74,60.74,0,0,1,1.3-14.22l2.93-1.27V721.9s-1.21-7.73-.34-12.92l1.3-5.16,2-6.46v-9.23s1.33-4.08,2.21-4.9l2.56-7.3a18,18,0,0,1,3.23-6.12v-1.23c4.59-5.7,10.67-8.55,17.63-9.57h3.92c2.56-2.23,8.67-3.85,18.24-3.85l6.51-1.15h16.46a1.09,1.09,0,0,1,1.22-1.23,28.15,28.15,0,0,1,10-3.77h4.09l5.16-3h7.49l8.55-2.45,8.52-3.66A101,101,0,0,1,497.72,635h6s8.18-.07,11.65.8a16.42,16.42,0,0,1,7.73,3.84,18.86,18.86,0,0,0,11.62,3.89,24.36,24.36,0,0,0,7.78-1.3l7.73-1.27,6.51-1.32c1.69-1.69,5.11-2.57,10.33-2.57,4.32-5.16,12.92-7.78,25.87-7.07h3.84c1.75.21,2.62,1.06,2.62,1.91a12.76,12.76,0,0,1,7.73,5.16c.87,2.59,1.32,4.77.73,6.46v2.59c1.42,6.91,2.29,12.07,3.16,15.51.82,0-.16,1.3-.16,1.3v3.39l2.76,1.3a40.74,40.74,0,0,1,1.3,11.62,45.9,45.9,0,0,1-2.05,11.62v19.41l3,7.78v18l3,9.19v12.84l3,1.32v1.3l2,5.16v15.51l3,5.16v9.05l-.32,3.87a18.8,18.8,0,0,1,1.27,7.76L626.55,815c1.72,1.72,2.59,4.34,2.59,7.76,0,4.32-2.52,9.05-2.27,9.05v2.57c-.24,0,2.27,4.34,2.27,7.78a12.06,12.06,0,0,1,1.27,5.16,18.64,18.64,0,0,1-.54,3.87v2.59a29.35,29.35,0,0,1,.54,5.16l-.54,3.89v2.57a6.93,6.93,0,0,1,1.84,5.19c0,3.47-.45,5.16.16,5.16v3.89l-2,1.27v7.78s.54,4.71.54,9-.45,7.36-1.27,9.05c0,1.72-2.52,2.59-2.27,2.59v7.73c-.24,0,2.27,4.34,2.27,7.78,0,4.32-.45,6.91-1.32,7.73,0,.87,2.05,2.62,2.05,2.62v9a13.33,13.33,0,0,0-2.05,6.51c0,2.57-.45,4.29,2.05,5.16v2.57l-4.62,1.27-1.38,1.32v2.57a17.45,17.45,0,0,1,1.38,6.46c0,3.47-.45,5.61-1.38,6.49v3.87c.11,1.72-2.54,6.49-2.54,6.49l5.3,2.2,1.38,2.67c0,2.65-.48,4.45-1.13,5.35v8a6.92,6.92,0,0,1-1.57,4l-1.43,4v4.75s-2.64,3-2.64,6.48-5.36,6.51-5.36,6.51v6.7l1.54,5,1.27,5c0,4.18,2.65,9.17,3.19,9.17v5.16l-6,3.89v12.15c1.23.93,1.68,3.1,1.68,6.59,0,4.37-.45,7-1.68,7.86v1.3c1.23,2.65,1.68,7,1.68,13.16-.87,6.14-1.3,10.51-1.68,13.11v3.94c2.15,14.88,6,51.23,6,51.23V1314s1.62,8.18,2.5,14.22l1.2,16.81c.77,2.59,1.3,14.22,1.3,14.22V1363l1.33,8.05,6.51-2.69,6.51-2.67c4.32-1.79,7.36-2.69,9.12-2.69h2.59l1.33-1.31,5.2-1.33,6.51-2.69c4.32-1.76,7.36-2.67,9.12-2.67h1.28l3.92-1.36a3.78,3.78,0,0,1,2.59-1.33v.91a23.81,23.81,0,0,0,5.71-1.27l6.46-2.57c6-2.57,9.93-3.89,11.68-3.89l11.62-2.62q6.43-2.54,11.62-5.16l7.78-1.27c2.54-.85,4.71-1.3,6.43-2.44h2.57l1.32-.13c15.49-4.32,34.87-6.87,34.87-6.87h1.32l14.19-6.08,12.95-5.19q68.5-25.81,160.31-80.11a6.74,6.74,0,0,1,3.89-1.62h5.16c.85.29,1.69-.13,2.57-1q65.92-42.61,103.41-75,47.81-41.3,72.41-86.63l7.78-10.33a11.36,11.36,0,0,1,1.27-5.19l3.89-6.43c.82-1.75,2.12-4.32,3.84-7.78l5.16-10.35,5.19-7.73,3.89-7.78c.82-3.42,2.14-6.86,2.69-10.33v-1.3c1.2-2.57,2.47-6.46,5.06-11.62l2.57-5.16,2.62-6.49,1.27-3.87a53.49,53.49,0,0,1,1.3-9.05c1.72-5.16,3.42-8.18,5.16-9.05l1.27-5.16a88.78,88.78,0,0,0,2.62-10.35l1.27-5.16,1.3-5.19,2.59-6.43,1.3-7.78c.82-6,2.14-9.9,3.87-11.62l1.3-3.89,1.27-6.46a32.7,32.7,0,0,1,5.23-10.35v-5l2.25-10,2.2-8.9,1.1-5.57,2.25-8.9a31.73,31.73,0,0,1,2.2-6.68v-7.14S1245,809,1245,794.28c0-10.33-.45-20.68-1.22-31q-1.28-29.63-4.88-68.49l-1.25-5.16c-.83,0,.2-2.57.2-2.57v-2.54l-2.8-2.59c-.88-.85-1.76-3.89-2.61-9.12l-1.31-5.2-1.28-6.51v-4.76l-7.4-19.74-7.4-19.72-7.4-20.93-7.37-17.28-1.24-2.46-2.48-3.7-2.43-3.7a18.08,18.08,0,0,1-1.27-4.94v-4.52l-2.6-3.88-2.63-5.14-2.6-2.56c-2.63-3.43-3.93-5.56-3.93-6.43q-2.67-1.31-6.54-6.49L1171.9,531l-2.6-3.88a35.26,35.26,0,0,1-3.93-5.14l-5.23-6.43c-1.78-1.74-2.6-3-2.6-3.88.82,0,2.13,1.32,3.91,3.88q-1.32-3.84-7.84-11.65l-5.26-5.14a49.59,49.59,0,0,0-3.93-5.17l-3.93-5.14c-1.78-1.69-2.6-3-2.6-3.85l-5.23-5.14-5.26-5.17c-2.63-2.56-3.93-4.75-3.93-6.49l-2.6-2.56-6.59-6.43a28.61,28.61,0,0,1-5.23-6.46c-1.75-.84-3.48-2.56-5.23-5.17l-1.3-1.29-2.6-2.56V442h-1.33l-9.14-7.7-6.59-7.75L1078.9,424l-6.59-3.9-15.7-10.31-15.73-9-1.3-1.29c-1.75,0-4.81-.82-9.19-2.56l-5.23-2.58-5.23-1.29-10.5-5.17a9.46,9.46,0,0,1-3.88-1.27l-4-1.32L999,384h-1.17s-3.89.58-6.46-.3l-5.16-2.62L981,381h.76c-3.66,0-9.53-1.33-17.64-4.07l-5.46-2.71-15-2.71-14.9-2.71q-17.75-4-32.6-6.79h-7.32l-11-5H868.5l-9.05,3h-22l-5.16.4c-5.22,0-8.66-.42-10.35-.4h-7.78l-6.43-2.16a22.84,22.84,0,0,0-6.46-1.27c-1.75,0-3.89.85-3.89.43H788.1c-4.42.41-7.12,0-8-.91l-14.69,1.32-16,1.32C736,359.64,720,360,720,360h-.13a8.82,8.82,0,0,1-5.24,1.41l-4,1.59h-6q-14.84,2.52-39.56,8.66l-22.26,3.68-18.56,3.73-4.94,1.23-4.94,2.49a20.37,20.37,0,0,1-6.2,1.21h-4.55c0,.92-1.81,1.84-5.4,2.73l-2.67,1.35-4,1.32q-4.09,2.75-14.88,6.75c-7.21,1.81-12.61,3.19-16.2,4.05l-12.12,4.08L543,407l-4.08,1.38c-3.62,1.81-6.29,2.67-8.07,2.67h0l-3.75,1.25-3.78,2.52a21,21,0,0,1-5,1.23h-2.19l-3.9,2.63L498,425.13l-14.3,6.47q-18.23,10.43-26,13l-1.3-1.33A93.67,93.67,0,0,1,433,453.7L431.65,455c-1.75,1.75-5.2,4.32-10.4,7.77-5.2,2.63-8.65,3.93-10.4,3.93l-13,7.77L369.25,494l-2.57,2.63c-.88,1.75-3.5,4.32-7.83,7.77l-6.5,3.93-5.2,3.9-6.47,5.2q-5.25,6.49-16.9,15.6-10.43,9.11-16.93,13h-5.24l-3.84,3.84L294,553.65q-5.13,5.13-7.6,6.34l-7.65,6.35-7.6,5.09q-8.93,7.68-14,12.72L252,587.93l-3.81,3.81c-3.42,3.42-5.93,5.09-7.6,5.09l-10.16,7.62a34.87,34.87,0,0,1-8.9,5.09L219,612.09a31.51,31.51,0,0,1-11.46,2.56,17,17,0,0,1-12.69-5.09v-1.31a10.61,10.61,0,0,1-5.07,1.31q-6.34,0-14-6.37l-6.35-2.53-6.34-5.09a5.44,5.44,0,0,0-3.81-1.25L156.75,593l-1.28-1.25A3.55,3.55,0,0,1,153,593h-2.14s-5.64-.73-9.05-2.47l-1.3-.53h-3.89c-1.72-.74-3-1.17-3.84-2.07l-2.59-2.57-2.57-1.3-10.35-1.32-10.35-1.27c-9.5-.82-16.36-2.14-20.68-3.89-6-2.57-10.38-6.86-12.32-12.89V551.74c-.63-6.88-4.52-11.62-12.25-14.19l-3.89-1.32-2.57-1.3a5.55,5.55,0,0,0-3.89-1.27,10.56,10.56,0,0,0-3.87,1.27,25.18,25.18,0,0,1-11.62-2.57L34.48,531a22.81,22.81,0,0,1-10.35,2.62c-5.19,0-10.78-2.14-16.81-6.46l-2.57-1.32-1.3-2.57a3.51,3.51,0,0,1-1.32-2.59c0-.85,2.74-2.57,2.74-2.57v-3.47a56.05,56.05,0,0,1,1.27-10.23,44.58,44.58,0,0,1,8.93-14l11.5-14,8.93-12.79a10,10,0,0,1,1.27-3.81l2.54-2.56,2.56-2.54v-2.52a168.32,168.32,0,0,1,14.59-19.41Q66.74,421.19,74.54,416L81,408.27l6.46-6.49c0-.85,2.14-3.44,6.43-7.76l5.19-3.89,3.89-3.87c1.69-3.44,4.71-7.33,9.05-11.62L123.68,363c.82-1.72,3-4.29,6.46-7.76l10.33-7.73c5.19-6.06,14.64-15.06,28.46-27.14l5.19-5.19,1.27-1.32,1.27-1.27c.85-1.69,3.44-4.26,7.78-7.73l6.46-5.19,5.16-3.89,1.3-1.27,3.89-2.59,2.54-2.57a53.2,53.2,0,0,1,7.78-6.51c0-1.69,2.57-3.84,7.73-6.43l5.19-3.89,10.33-7.73a12.7,12.7,0,0,1,6.51-5.19C243,257,246.92,254,253,250.53l7.73-5.16,6.49-3.89a152.93,152.93,0,0,1,14.19-11.62c7.78-4.32,13.37-6.88,16.84-7.73l5.16-3.89q2.54-2.62,12.92-9.05c6.86-4.32,12.5-6.88,16.79-7.76l5.19-3.89q1.27-1.23,9.05-5.16l6.43-3.89,6.51-2.57c.82-1.72,3.84-3.87,9-6.49,6.06-2.57,9.93-3.84,11.68-3.84L386.1,173a3.83,3.83,0,0,1,2.77-1.27V173l16.61-7.73q5.12-3.85,18.11-9.05,11.6-5.16,18.08-6.46a3.75,3.75,0,0,1,2.59-1.32,1.18,1.18,0,0,1,1.3,1.32l16.79-6.49q3.85-2.54,15.51-6.46c5.16-2.57,9.48-3.89,12.95-6.77h2.57a6.59,6.59,0,0,0,2.59,3h2.61a49.91,49.91,0,0,0,8.58-1.21l4.89-2.45,6.11-1.24c.8-.77,4.45-2.42,11-4.9a56.25,56.25,0,0,1,8.58-1.21h4l4.88-2.93,1.2-1.25a1.11,1.11,0,0,1,1.22,1.25,18.2,18.2,0,0,1,3.67-2.07H557c1.79-1.79,6.38-3.63,13.72-5.5,8.28-1.79,13.78-2.72,16.5-2.72,3.66-.88,7.29-1.79,11-2.78h9.11l5.16-.26,6.49-1.27c3.44-.82,7.76-1.47,7.76-1.47h3.79l5.36-1.46,8.09-1.32a23,23,0,0,1,6.71-1.32c1.76,0,2.67.47,2.67,1.32,8.06-.85,14.77-1.76,20.13-2.67,2.67-.91,8.06-1.82,16.11-2.69A40.23,40.23,0,0,1,699,93.51,12.92,12.92,0,0,0,704.41,92H727.6L738,94.12a81.42,81.42,0,0,1,11.62-1.27c3.42,0,7.73,2.15,7.73,2.15h12.64s4.29-2.33,5.16-2.33c1.69,0,2.57.43,2.57,2.33h25.87c1.72-1.9,3.89-2.33,6.49-2.33a63,63,0,0,1,10.35,1.2c7.73,0,12.89.43,15.51,1.22l2.54-.1H845c5.27,0,12.34.45,21.18,1.3a234.47,234.47,0,0,1,30.42,3.7l5.3,1.3V100h1.34s70.61,13.07,111.14,25.15q45.23,12.91,100.84,38.76c1.69,1.75,7.28,4.77,16.81,9.05q24.58,10.37,62.06,34.92l31,20.68,14.24,10.35L1253.5,248l3.89,3.84q3.85,1.39,14.22,9.08l7.73,6.43,6.51,6.51,1.27,2.57q12.91,7.78,27.14,21.95l12.95,12.95,12.92,11.62,1.27,2.62q7.74,5.2,23.3,23.25l2.57,3.89q7.74,5.2,19.41,19.41l9.05,12.89,9.05,14.24,10.35,14.22c3.42,6,6.43,10.35,9,12.92l9.05,15.51,9.08,15.51,18.06,36.19,1.32,5.16q5.16,6.47,11.62,23.3l3.89,14.19,5.19,14.22,2.54,6.46q9.09,32.41,16.81,65.95a844.37,844.37,0,0,1,18.11,173.23c0,16.39-.45,32.72-1.27,49.11q-6.51,116.4-44,209.44l-1.3,1.27q-31,81.49-85.33,156.41-51.75,69.89-121.49,128-100.91,85.3-278,173.2-23.23,11.64-51.71,27.16l-49.08,25.87c-25,13.82-45.72,24.57-62.83,32.3v3.89c1.59,0,2,.45,2,1.27l-1.27,1.3,3.84,6.46c1.75.9,3,3,3.89,6.49a20.46,20.46,0,0,1,2.5,6.46v5.72l2.67,4c.85,0,2.21,1.36,4,4a22,22,0,0,1,1.33,6.67V1650l1.28,1.31a41.53,41.53,0,0,1,3.92,5.2c.83,1.76,2.8,5.2,2.8,5.2v1.73s1.33,5.22,3,7.78v2.54l1.8,2.62a3.88,3.88,0,0,1,1.27,2.57c0,.9-1.27,2-1.27,2h.2v2.57l2.59,2.59a3.9,3.9,0,0,1,1.33,2.57l-1.33,1.32,1.33,3.84,1.28,3.89a15,15,0,0,1,5.17,5.14,10.55,10.55,0,0,1,1.31,3.89,3.65,3.65,0,0,1-1.31,2.57c0,1.72.85,3.92,2.59,6.49l1.33,3.84,2.56,3.87c1.76,3.47,2.61,6,2.61,7.76l1.31,2.57,1.28,2.59a10.72,10.72,0,0,1,1.28,3.84l5.2,9.05a39.29,39.29,0,0,1,3.89,5.16c1.76,3.47,2.61,6,2.61,7.76,1.71,2.57,3.87,6,6.48,10.33,1.71,5.16,3,9,3.92,11.6l1.28,2.57,1.28-1.3v1.14q10.33,16.84,24.59,40L939.8,1846l10.37,19.38c0,.82,1.28,3,3.88,6.43l7.74,11.6,7.79,12.92q9,18,15.53,24.49l1.28,2.59c.82,0,2.15,1.27,3.88,3.89l2.58,3.84,1.28,3.87h3c1.7,2.57,4.28,6,7.74,10.33l9.07,11.62v1.65a45.16,45.16,0,0,1,8.32,9l1.27,1.32c3.42,1.69,8.15,7.25,14.19,16.76l3.81,5.16,3.89,3.89,9,10.33,9,11.6,1.3,1.27a87.77,87.77,0,0,1,6.41,7.78l2.59,5.16,2.57,3.84,2.59,2.59,14.14,19.38q19.26,24.46,55.36,63.22l27,29.7c10.33,11.15,18.88,20.6,25.49,28.35v1.3q45.47,56.75,85.28,91.63,49.84,42.49,102.11,64.39c1.14.53,2.3,1,3.44,1.46q19.3,6.43,45.09,9.05l21.87,1.27,8.58.48a.24.24,0,0,1,.08.18l2.81.85,1.56,1,2.83.9.24-.05a40,40,0,0,1,9-1.14c3.55.27,5.8.74,6.8,1.43a40.1,40.1,0,0,1,4.55.37,4.79,4.79,0,0,1,1.43,1.4l7.39.45,1.51.13.16,0,7.28.45a1.28,1.28,0,0,1,.69.85l1.24-.24,2.91-.14h6.12c1.3.46,3,1.62,3.12,2.15l5.77,2.91,7.65-1.35a9.32,9.32,0,0,1,5.08-.9c4.39.13,7.15,1,8.31,2.49,1,.71,3.23,1.19,6.8,1.43l6.65.32,5.08-.9,11.12,3.42,3.63-.66,2.73-.48s4.26-.58,5.27.08l13-.61,8.92-1.56,9.37,1,.9-.16a115.81,115.81,0,0,1,14.56-1.24c8-.45,13.82-.16,17.63,1l2.2-.4a1.62,1.62,0,0,1,1.19-.74l60.73-5.48,29.71-2.62,28.25-3.65c1,.71,10.09-2.36,10.09-2.36l17-3,19.94-2.17q17.27-1.71,30.47-4.05l11.94-2.09,5.08-.9,14.83-2.62a104.75,104.75,0,0,1,18.19-4.55l10.27-3.15,9.61-1.69q4.69-3.49,16.33-5.56l3.2-.58c4.92-2.62,15.28-5.37,31.08-8.15l8.45-1.48s5.8-1.67,7.49-2q14.85-5.2,39.05-9.48l2.3-1.72c2.36-1.3,12.6-3.07,12.6-3.07l18.56-3.26,35.48-7.57q41.86-8.62,116.76-31.11l56.47-15.2q31.37-8.14,54.17-13.5l1-1.48q214.29-44.36,342.75-128.8,24.74-16.16,51.52-43.23l23.17-25.13,24.46-25.36,4.66-3.47,3.12-4.5c2.94-3.12,5.69-4.9,8.26-5.37l.32-.05q19.9-22,39-41.25,22.24-23.71,39-41.22c5.77-7.17,11.94-12.26,18.48-15.17,1.54-1.14,4-2,7.44-2.62l5.35.34,5.24-.9,3.68-2,3.73-2a23,23,0,0,1,6.33-2.46l5.48.37,5.72,1.67,10.3-3.15,11.62-3.39,4.34-.77s10-.05,12.2,2.17l2.75.82,1.24-.48,2.54-.45c2.12,2.07,4.08,3.49,6.25,5.72l3.68,5.9a56.6,56.6,0,0,0,12,8.39l10.22,6.09,10.27,6,7.47,5.27,8.79,5c6.86,4.05,11.91,8,15.2,11.78,8.68,9.85,17.37,16.63,25.92,20.33a75.94,75.94,0,0,1,21.55,10.64L3109,1963c10.78,6.83,16.89,14.08,17,21.95l7.17,40.74,2.83.79.19,1.11a20.7,20.7,0,0,1,4.16,8.45C3141.12,2040.28,3140.14,2044.8,3137.52,2049.65Z" transform="translate(-2.13)"/><path class="cls-1" d="M2781.87,916a259.18,259.18,0,0,1,1.65,29.74c0,9.47-1.65,28.42-1.65,28.42v26.62q0,31.26-5,45v4.66l-3,25.85V1078l-2.94,14.23-1.28,15.51c-1.74,12.08-3.93,21.1-6.78,27.14v1.28l-1,7.78-1.28,9.06q-1.3,10.36-2.61,12.91l-1.28,3.89q-2.61,10.36-7.74,28.42l-6.49,31q-9.06,37.54-18.08,56.88c-3.47,8.65-5.17,13.82-5.17,15.51q-19.42,51.75-37.48,85.34a592.76,592.76,0,0,1-53,82.73,3.71,3.71,0,0,1-2.56,1.28l-2.61,2.61q-5.21,9.06-15.51,23.25-9.06,13-15.51,18.12l-1.28,1.28c-.87,2.61-3.89,6.49-9.06,11.62-4.3,6-7.78,9.51-10.34,10.34l-15.51,16.8c0,.91-1.74,3.06-5.17,6.49l-3.85,2.56-3.89,3.89c-1.74,3.47-5.63,7.78-11.62,12.91l-7.78,6.49-7.74,6.45c-4.34,4.3-6.95,7.32-7.78,9.06s-3.89,4.72-9.06,9-9.06,6.95-11.62,7.78a163.61,163.61,0,0,0-12.91,11.62c0,.87-2.19,3-6.49,6.45l-5.17,2.61-5.17,3.89-1.28,1.28c0,.87-2.15,2.61-6.45,5.17l-5.17,3.89-5.17,2.56a72.35,72.35,0,0,1-15.51,11.62c-.87,1.74-4.3,4.34-10.34,7.78s-10.38,5.17-12.95,5.17l-3.85,2.56-2.61,2.61-1.28,1.28-3.89,2.61c-.87,1.74-4.3,3.89-10.34,6.45-5.17,2.61-8.6,3.89-10.34,3.89l-10.34,5.17q-5.21,2.61-6.45,3.85c0,.91-1.32,1.78-3.89,2.61-1.74,1.74-6,4.3-12.91,7.74-6.91,2.61-11.67,3.89-14.23,3.89l-15.51,6.45c0,.91-1.32,1.78-3.89,2.61-2.61,1.74-8.19,3.89-16.8,6.45-7.78,2.61-13.36,3.89-16.8,3.89l-16.84,5.17c0,.87-.87,1.74-2.56,2.56l-5.17,1.32c-.87.87-4.3,2.15-10.34,3.85a74.18,74.18,0,0,1-10.34,1.32l-5.17,1.28-7.78,1.28a77.17,77.17,0,0,1-10.34,1.28l-5.17,1.32c-3.47,1.74-9.06,3-16.8,2.8H2162l-5.17,2.37a144.55,144.55,0,0,1-16.8,2.56,103.75,103.75,0,0,1-16.8.06h-8.1l-9.06,2.54c-6,0-10.34-.46-12.91-2.54h-25.85a52.21,52.21,0,0,0-9.06,3h-9.17l-3.63-5H2026.1s-8.78-.88-10.51-1.77l-2.65-1.23h-.36l-5.35-1.33q-25.41-1.28-38.76-5.35l-5.35-1.33h-6.78q-7.4-1.17-8.57-2.47l-13.47-3.64c-5.72-.82-10.22-2-13.47-3.68l-4.89-1.21h-5.49c-5.23-.88-8.28-2.17-9.11-3.93l-7.86-1.3-10.45-2.63a148.82,148.82,0,0,1-22.2-5.23c-9.62-2.59-17-5.23-22.2-7.82l-1.34-1.34-2.59-1.3-3.93-1.3c-1.76,0-2.59-.42-2.59-1.3l-14.38-6.56-14.38-6.52c-5.23-.84-10-3.47-14.38-7.82s-7-7.86-7.82-10.45c-1.76-1.76-2.63-3.05-2.63-3.93l1.34-2.63,1.3-2.59a50,50,0,0,1,6.52-11.75l-5.23-2.63L1772,1662l-6.52-5.23-2.63-1.3-3.93-2.59-5.23-3.93h-.13s-11.62-4.73-11.62-7.34a3.73,3.73,0,0,0,1.28-2.56,1.17,1.17,0,0,0-1.28-1.32,3.57,3.57,0,0,1-1.28-2.56c.83-1.74,1.7-2.61,2.56-2.61,0-.83.41-1.28.67-1.28v-18.08l2-5.17V1607h-2v-19.32c0-1.74.43-2.61,1.35-2.61l.65-6.45v-5.82s1.08-3.12,2-4l1-2.65v-9.77c.3,0,2.53-3,3-3.89V1551h1.68l.32-2.41v-1.28c1.83-2.56,2.7-3.89,3.56-3.89l-.56-3.89v-4.3l1.34-2.61,2.73-2.56c1.78-6,4.47-9.93,8.11-11.67l1.39-5.17,1.34-3.85a255.9,255.9,0,0,0,4.08-29.74V1446h2.25l2.75-.83v-25.85l3-23.25v-11.82l-5-34.18v-15.24l-3-12.95v-14.19l-2.85-2.61c-.82,0-1.21-1.28-1.21-3.89a11.86,11.86,0,0,0-.94-3.85v-2.61l3.36-1.28a4.17,4.17,0,0,0-1.21-2.61l-2.15-2.56v-7.78c2.19,0,1.33-4.26,2.15-5.17l1.21-1.28-.86-2.56-2.5-5.17v-5.14l5-4v-7.7l3-2.65v-1.24l2-15.51v-15l-5-26.87v-2.08l3-1.28v-2.61l-6-3.85V1128c.13,0-.79-3,0-3.89V1115c.13,0-2.53-2.11-3-3.85v-12.95c.48,0,1.47.87,1.47,2.61.83-.87-1-2.61-1-2.61l2.52-3.89v-8.83l1.45-2.69-1.32-2.65,1.32-4c0-.85,1.55-2.69,1.55-2.69v-5l3-3.85v-3.48h0v-2.61l.75-5.17,1.25-3.85v-22l-5-3.63v-4.48l-1.57-5.25c-.88,0-1.43-1.3-1.43-1.3v-2.49l-2-4v-5.11c-2.27-1.7-3-7.74-3-7.74v-2.41s-3.43-14.29-5.13-24.71a15.88,15.88,0,0,1-2.62-9.12l-1.29-3.92-1.29-3.92c0-3.46-.46-5.62-1.29-6.5l-1.33-2.58-3-2.62V927.61s3-1.7,3-2.56-.46-1.32-3-1.32V891.42c.81,0-.05-2.56,0-2.56v-2.4a128.6,128.6,0,0,1-2.7-26.26l-2.65-14s3.55-2.56,5.35-2.56v-1.28a31.07,31.07,0,0,1-6-1.32v-2.56s2.05-3.89,1.22-6.45c0-2.56.41-4.76,1.78-6.49v-16.8c-.49-1.7-3-2.56-3-2.56v-7.78l2.51-6.45c0-5.17.41-9.06,1.28-11.62a22.93,22.93,0,0,1,2.61-10.34,11.37,11.37,0,0,1-1.28-5.17,18.48,18.48,0,0,1,.89-5.17V735l-2.7-5.17.49-3.89c-.87-1.7-1.28-4.26-1.28-7.74,0-4.3.41-7.32.49-9.06V704c.79-1.74.3-3.89,0-3.89v-2.56l3-5.17v-11.2c-.05,0-3.95,3.89-4.78,3.89l-5.17,3.89-5.17,3.89-3.88,1.28v2.56c0,.91-1.32,2.61-3.89,5.17-1.74,1.74-3,2.61-3.85,2.16h-1.32c-1.74.45-3.89,2.18-6.45,5.62a15.92,15.92,0,0,1-9.06,2.56,22.61,22.61,0,0,1-10.34-2.56l-1.28-1.28-1.28,1.28-7.78-2.62h-31.79c-7.55-.84-15.07-5-22.62-12.58l-10-10a118.73,118.73,0,0,1-12.54-17.56Q1603.08,655.49,1588,648a59.89,59.89,0,0,1-15.07-11.29l-6.27-6.31-6.27-6.27-6.31-8.8-6.27-8.76a66.35,66.35,0,0,0-11.29-7.55h-5.33l-3.89-3.17a19.4,19.4,0,0,1-6.44-3.93V588l2.59-2.59-2.61-1.3c-1.7-.88-2.56-3.05-2.56-6.56s1.28-8.24,3.85-14.34l5.17-14.38c2.61-6.1,4.34-10.87,4.56-14.38V526.6a32.07,32.07,0,0,1,1.93-6.56c0-.84,1.74-3.47,5.17-7.82l3.85-5.23,2.61-6.52,3.89-6.56,2.56-7.82a62.2,62.2,0,0,1,5.17-10.45q3.91-6.52,14.23-15.68l9.06-7.86,9-6.52a592.61,592.61,0,0,1,174.53-92.77l1.28-1.3c2.56-1.71,7.32-3.89,14.23-6.52l9.06-2.63,9.06-2.59,29.7-7.86,28.46-5.23,27.14-5.23,27.14-2.59,27.18-3.93,25.85-1.3,27.14-2.63,28.42-1.3,36.2-2.59,37.2,2.89h72.39q86.56,4.77,143.46,16.5a856.86,856.86,0,0,1,144.79,40.08q82.71,32.33,144.79,84l2.61,2.56a390.77,390.77,0,0,1,71.11,78.89,600.78,600.78,0,0,1,50.39,93.08q32.33,77.56,49.14,187.44l3.89,25.85,4.37,25.85v6.45l.8,10.34L2781,892.7a73.72,73.72,0,0,1,.92,15.51Zm-267.61,85.72c-.88-.88-1.3-3.07-1.3-6.6l1.3-5.25-1.3-9.16c-.88-.88-1.09-7.9-1.09-7.9v-9.94s-1.43-26-3.18-44.29q-2.62-19.5-3.92-44.25l-.91-2.62V850.92l-3-2.57c0-1.74.41-2.61,1.28-2.61l-1.28-5.19L2493.13,812l-7.75-29.84q-9.08-32.37-19.44-54.49l-1.28-1.29a30.31,30.31,0,0,1-3.9-5.19l-5.18-6.47-1.28-3.9c-2.61-2.57-6.05-6.89-11.43-12.95v-1.33c-.67,0-2.41-1.7-4.11-5.19l-2.61-3.86-2.57-1.33c-1.74-.83-3.94-3-6.51-6.47l-2.57-3.9-2.61-2.57-5.18-5.19-3.85-5.19-2.61-3.86H2409c-.87,0-2.15-.87-3.9-2.61-2.61-1.74-3.9-3.44-3.9-5.19l-2.57-1.33L2396,647.3l-3.85-2.61c-3.48-2.57-5.18-4.27-5.18-5.19a3.49,3.49,0,0,1-1.33-2.57,53.08,53.08,0,0,1-6.46-3.9l-11.64-6.47-6.46-5.19c-3.48-.83-5.64-2.16-6.51-3.9l-5.18-2.57a14,14,0,0,1-3.85-2.61l-10.36-5.19q-37.61-20.73-94.57-32.41c-6.92-1.74-15.54-3.44-25.9-5.19l-25.9-3.9-27.18-3.9-14.26-1.29-14.21-1.29-2.61,1.29-2.57,1.29a11.05,11.05,0,0,1-5.18,1.33c-13.84-.87-26.77-1.33-38.87-1.33q-60.92,0-101,10.38l-9.08,1.95h-.67l-10.68,3h-.56a30.27,30.27,0,0,1-10.38,6.52L1937.31,590H1936a41.12,41.12,0,0,1-5.19,3.9l-5.19,2.58a15.69,15.69,0,0,0-9.05,2.62l-7.81,2.58c-.87,1.74-3.45,3.07-7.77,3.9l-5.19,1.29-3.9,2.62V612h-1.33l-2.7,1.33c-.9,1.8-3.12,3.17-6.67,4l-5.35,1.33-4,1.33h-2.4c-.83,1.67-3.33,3.33-7.46,5l-5,2.5-3.69,1.23-1.27,1.23c-.83.87-3.29,2.1-7.42,3.73l-5,1.23-3.73,2.5-12.38,6.19c-.87,1.67-2.94,3.33-6.23,5s-5.79,2.5-7.42,2.5l-3.73,1.23-6.19,3.73h.21l6.09-1.21,7.34-3.79h5.57l3.89,3h1.21c2.61-.91,9.2-3,9.2-3h2.71l2.46-2.3c0-.78,4.88-2.7,4.88-2.7h6.67l16.8-4.89c7.74-1.64,13.78-2.86,18.12-3.68a46.34,46.34,0,0,1,10.34-1.21,26.78,26.78,0,0,1,7.74,1.21,42.42,42.42,0,0,1,7.78,2.47,25.12,25.12,0,0,0,7.74,1.21,44.68,44.68,0,0,0,10.34-1.21l7.78-1.25,6.45-1.21A103.38,103.38,0,0,1,1953.6,635h1.61a227.13,227.13,0,0,1,24.57-5h3.89a14.32,14.32,0,0,1,3.85,2.05,9,9,0,0,1,6.49,2.56,7.61,7.61,0,0,1,2.56,5.17c0,4.34.87,7.78,2.61,10.34l1.68-1.28v3.89l.88,1.28c.83.87,1.28,3,1.28,6.45a48.9,48.9,0,0,0,.84,7.78v4.67l2,4v2.53l-.23,5.17,1.28,5.17c.83,0,1.95,2.61,1.95,2.61v3.75l1.1,5.25,1.9,6.6v1.11l.73,1.32c.85.9,1.27,4,1.27,4v3.73l1.4,2.61a1.17,1.17,0,0,1,1.3,1.3l-1.3,1.34c.84.88,1.6,3.91,1.6,3.91v2.53l3,2.56v11.31a21.59,21.59,0,0,1,0,10.68V757a5.09,5.09,0,0,1,2,4,4,4,0,0,1,1.32,2.65,3.87,3.87,0,0,1-1.32,2.69v2.21s1.85.87,0,2.61v5.17c2.72,0,3.17.87,3.17,2.56s-.46,3.06-3.17,3.89v1.28l.56,1.32,1.28,5.17c.87.87,1.32,2.61,1.32,5.17a14.34,14.34,0,0,1-1.32,6.45l-1.28,1.28,1.28,5.17a5.26,5.26,0,0,1,1.32,3.89c0,2.61-.46,4.34-1.32,5.17,0,.87-1.85,1.28-1.85,1.28v6.45a3.25,3.25,0,0,1,1.85,2.61c0,2.61-.46,3.89-1.85,3.89v1.28l-2,1.28v2.61s2.56,2.15,2.56,3.85c0,2.61-.46,4.34-1.28,5.17a4.07,4.07,0,0,1,1.28,2.61c0,.87-.46,1.74-2.56,2.56v3.89c1.28,1.74-.65,2.61,0,2.61V863l1.28,1.28a1.14,1.14,0,0,1-1.28,1.28v5.17c-.65,0,0,2.61,0,5.17a16.17,16.17,0,0,1-.65,3.89l-2.65,10.34s2,1.74,2,2.56-1.68,2.61-1.68,2.61v3.89c.66,1.74.23,2.56,0,2.56v7.78c.23,0,1,1.28,1.87,3.85a10.32,10.32,0,0,1-1.87,5.17v18.12s1.87.46,1.87,1.28q1.23,13,2.46,31l1.21,29.74c0,.87-.54,5.17-.54,5.17v8.81l1.34,10.51c0,9.62.66,21,.66,21v1l3,3.89v3.4l1.32,2.68a41.47,41.47,0,0,1,2.68,9.32l1.32,10.64a46,46,0,0,1,2.68,9.28v.72s4.16,7.79,4.16,15.63l1.33,5.21,1.29,3.88c.83,4.38,1.22,19.54,1.22,19.54v1.12l3,7.78v3.89l3,3.85v1.32l0,18.08,2.46,32.31,2.42,32.35a250.39,250.39,0,0,1,2.46,33.59c0,10.34-2.3,27.14-2.3,27.14v1.79l-8.15,50.39-7.78,51.71c-5.17,40.54-8.6,75.45-10.08,104.74v5.17l3.62,1.34h18.08c4.3-.06,9.06,3,9.06,3h29l11-3q2.4-2.46,8.55-2.46a20.82,20.82,0,0,1,6.09-1.21c1.6,0,3.67,1.64,3.67,1.64h2.6c6.13-4.37,12.22-6.55,18.34-6.55v-1.3c4.37-1.76,11.84-3.95,22.33-6.55L2172,1487l11.8-2.6,3.95-1.34c0-.84,1.72-1.72,5.25-2.6l3.95-1.3,2.6-1.34c.84-.84,2.6-1.72,5.25-2.6l3.95-1.3,3.95-1.34,10.49-3.9c1.72-1.76,5.21-3.95,10.49-6.59l11.8-3.9,2.6-1.34,2.64-1.3a3.79,3.79,0,0,1,2.6-1.3,1.19,1.19,0,0,1,1.34,1.3c.84-1.72,3-3.48,6.55-5.25l3.95-1.3,3.9-2.64,13.14-9.15,15.74-9.19c13.1-8.73,23.17-15.32,30.18-19.69l1.3-1.3,2.6-2.64a4,4,0,0,1,2.64-1.3h-2.72l1.29-.66q5.19-5.15,17-15.51l9.08-7.78,9.13-7.74c0-1.74,1.29-3.89,3.92-6.45l2.58-2.61,2.63-2.56c1.71-.87,3.88-3,6.5-6.49l3.92-5.17,3.92-3.85c0-1.74,1.29-3.89,3.88-6.49l3.92-2.56,3.92-2.61c2.58-1.7,5.63-5.13,9.13-10.34l5.21-6.45,5.21-5.17,5.21-7.74,6.5-5.17,7.79-11.67,6.54-10.34q6.5-10.3,14.29-20.68l2.63-3.85c2.58-6.87,5.21-11.21,8.8-12.95v-1.28l1.62-3.89,2.58-3.89a67.94,67.94,0,0,1,3.8-6.45v-3.39l1.28-2.52c.8-2.48,1.64-3.76,2.48-3.76l3.76-8.72,2.48-8.76a29.73,29.73,0,0,1,5-7.52v-.62l4.14-16.5,4.14-16.5,2.73-6.86v-1.34l1.48-9.2,1.52-10.51v-1.3l-1.52-1.3,1.52-2.65v-26.26l1.09-2.61c-.88-.84-1.3-3-1.09-6.56v-7.9l1.09-5.25c-.88-.84-1.3-2.61-1.3-5.25l1.3-6.56a11.55,11.55,0,0,1-1.3-5.25l1.3-7.9a40.19,40.19,0,0,0,1.3-9.16,5.51,5.51,0,0,0-1.3-4c0,2.65-.46,4-1.09,4v-18.41l1.09-5.25-1.3-5.25C2511.65,1006.08,2512.49,1003.47,2514.26,1001.71Z" transform="translate(-2.13)"/><path class="cls-1" d="M3781.14,538.78c7.92,27.36,11.73,82.05,11.73,82.05v23.65a215.71,215.71,0,0,1-1.3,23.25l-1.3,10.34-1.3,10.34-1.34,7.78-1.3,9.06c-.88,6-1.76,9.89-2.6,11.62l-2.64,23.25-1.3,3.89a1.16,1.16,0,0,1,1.3,1.28,10,10,0,0,1-1.3,3.89c.84,0,1.3.87,1.3,2.61a36.6,36.6,0,0,1-1.3,7.74q-1.32,7.82-2.64,9.06c-.88,1.74-1.76,5.58-2.6,11.62q-2.64,13-14.4,16.8h-1.3v1.29a28.45,28.45,0,0,1-6.16,6.45l-5.17,3.89-2.61,2.56L3737.2,819a24.1,24.1,0,0,1-6.49,6.45c-6,5.17-14.64,7.74-25.85,8.57h-14.19c-7.78-.83-15.14-1.66-22-3.4a44.51,44.51,0,0,0-10.34-1.28c-6,0-12.91,1.74-20.68,5.17-4.3,2.56-18.08,1.51-18.08,1.51h-18.12l-11.62-.23a58.7,58.7,0,0,0-10.34-1.28c-6,.87-10.8,2.15-14.23,3.85l-2.56,2.61-2.61,2.56q-2.61,2.61-3.85,2.61a3.58,3.58,0,0,1-2.61-1.28c-.87,0-1.74-.87-2.56-2.61l-1.32-3.23h-3.85c-5.21.66-9.93-7.07-14.23-22.63L3529,806l-2.56-10.34c-1.74-8.6-3.47-14.6-5.17-18.08l-2.61-5.17-2.56-2.61a53,53,0,0,1-3.89-6.45c0-1.74-.46-6-2.37-12.95V734.92l-2.8-9-2.56-7.78a77.79,77.79,0,0,1-2.64-12.91V673.67l1.25-10.51.75-11.85V630.22l-.69-1.28-1.28-2.61a3.82,3.82,0,0,1-3,1.32v-1.32L3498,625l-3.85-3h-3.89l-10.34.48-10.34-1.32L3458,619H3416.6s-79.76,3-112.48,7.33q-56.9,9.06-117.65,23.29l-56.88,15.51-28.42,7.74-6.49,2.61-3.85-.48h-1.32l-1.28,3c-5.17,1.74-7.74,5.21-7.36,10.34v6.49l.9,2.56,2.1,6.45v10.29l8,188.79v.5l2.65,45.26,2.7,46.54,4,82.73h-1.37v2.09s.4,1.28,1.31,1.28l7.74,1.63h38.8l11.62-3h24.57l32.31,3h42.61l15.51-3.8c16.38-.78,40.08-1.2,40.08-1.2h15.51s12.91-1.8,18.12-1.8c4.3,0,7.74.46,10.34,1.8h18.08l16.8-3h33.63l7.74,3h9.06c0-.46,7.74-4.36,10.34-4.36s4.3.46,5.17,4.36h3.89l10.34-3h12.2l32.82-3h18.41c26.22.24,50.3,3.31,72.2,9.44q42,11.85,73.54,38.07l6.6,5.25,5.25,5.25c4.37,3.53,8.28,6.6,11.81,9.2a215.92,215.92,0,0,1,49.88,68.29c13.11,27.15,23.72,86.7,23.72,86.7v18.57l-1.3,24.57-5.17,47.82c-1.74,7.78-3.06,14.64-3.89,20.68l-1.28,7.78-1.32,7.74-6.45,29.74-1.28,2.56-1.28,3.89q-1.37,13-6.49,32.31c-3.47,12.95-6.45,22.88-9,29.74l-1.32,2.61c0,3.47-1.28,9.06-3.85,16.8-2.61,8.6-4.76,14.23-6.49,16.8l-5.17,12.95-2.56,7.74-1.28,3.89-1.32,5.17c0,1.74-1.74,6.91-5.17,15.51l-5.17,9.06-3.85,9a141.52,141.52,0,0,1-12.95,32.35l-10.34,16.8-10.34,14.23-7.74,11.62c-3.47,3.47-5.63,6-6.49,7.74q-2.61,6.52-15.51,19.4a59.26,59.26,0,0,1-11.62,9.06q-5.21,3.91-9.06,6.45-14.21,7.82-25.85,15.51l-1.28,1.28c-1.74,1.74-6.91,4.34-15.51,7.78l-10.34,2.56-10.34,5.07h-3.89a129.23,129.23,0,0,1-16.8,4l-11.62,1h-51.71s-12.58.9-22.12-.85q-16.94-2.56-22.12-5.21A49.59,49.59,0,0,0,3424,1766h-26.81s-8.19-1.16-9.06-2.07l-5.17-.93H3371.3c0,.24-2.15.93-3.89,3h-14.19c-6.91-2.07-11.21-2.48-12.95-3.35l-16.8-1.28c0,.87-3.89,1.63-3.89,1.63h-16.8s-14.69-.76-18.12-1.63l-15.51-1.28c-.87.87-3.85,3.16-3.85,2.92h-5.17c0,.24-4.34-.35-10.34-.35s-9.51-.41-10.34.35h-12.95c-5.17-1.63-10.34-3-10.34-3H3211a133.18,133.18,0,0,1-16.8,1.37c-7.78,0-15.51-3.42-15.51-3.37h-5.17c0-.05-9.06,2.08-16.8,2.08-8.65,0-14.27-.41-16.84-2.08h-7.74l-9.06,2.08c-6.91,0-11.21-.41-12.91-2.08H3083c-4.3.76-9,2-9,2h-24.57l-6.45-1.24c-6,0-9.51-.41-10.34,1.24H3030l-2.56-3.8-5.17,3.8h-94.4l-5.17-1.24c-5.17,0-8.19-.41-9-1.28l-9.06,1.28-10.34,1.32c-3.47.87-10.8,1.74-22,2.56-6,.87-16.84.35-16.84.35h-29.58l-15.76,3h-11.5s-7.78-2-10.34-5H2787c-.87.37-1.74,0-3.16-.92v-2.61l-.73-2.56a41.9,41.9,0,0,1-1.28-10.34c0-6.87,5-15.51,5-15.51v-2.32a24.7,24.7,0,0,1,2.52-11.24,8.47,8.47,0,0,0,2.48-6.24v-4.19l3-3.89v-3.75c0-6.91-3.49-11.27-10.4-13-2.58-1.71-5.62-3.87-9.07-6.49-4.37-3.45-6.53-8.24-6.53-14.31v-2.83a193.68,193.68,0,0,1,6.82-19.05l5.08-10.16,1.1-10.16v-3l3-3.85V1612s-1.31-1.7-.44-2.56l2.44-2.61v-1.24s1.75-8.21,5.25-11.71c0-.87,2.75-1.33,2.75-1.33v-16c.07,0,.77-5.17,2.5-7.74a21,21,0,0,1-1.28-6.49c0-6,2.56-10.3,6.78-12.91v-5.17c1-6,6.13-12.08,16.47-18.12l5.17-1.28c2.56-1.7,6.91-3.43,12.95-5.17l16.8-3.89c.83-.83,4.72-1.7,11.62-2.56l7.78-1.28,7.74-1.32,12.95-2.56,12.91-1.28a99.85,99.85,0,0,1,25.85-3.89c1.74-.83,5.58-1.7,11.62-1.82h15.51c0-1.61.87-2.07,2.61-2.07,6.87-1.7,28.42-2.93,28.42-2.93h47.82l10.34-2.24c7.74,0,12.91.46,15.51,1.28l3.89-1.28L3114,1490h22.22a110.06,110.06,0,0,0,14.23-.64c7.74,0,16.8.64,16.8.64h1.18a175.4,175.4,0,0,1,34.4-3.76V1485a110.29,110.29,0,0,1,17.24-1.28c7,0,15,.44,23.81,1.28h42.36l8,1.24c.85-.8,4.41-1.24,10.59-1.24H3318a5.51,5.51,0,0,1,4-1.28,23.12,23.12,0,0,1,6.61,1.28h14.57l19.87,1.24a31.6,31.6,0,0,1,9.23-1.24,93.34,93.34,0,0,1,13.26,1.24q15.89,1.26,23.81,3.76h4.47l6.7,3h2.27a24.91,24.91,0,0,1,5.25-1.11,40.84,40.84,0,0,1,9.2,1.3l7.86,1.3,2.65,1.5h22.12l1.35-1.51,1.39,1.36a11.38,11.38,0,0,1,1.35-5.3l2.7-5.55h-1.83v-2.42l3.22-5.3,1.35-5.3c1.79-1.74,3.62-5.72,5.45-11.9l1.35-8,2.74-7.92c0-2.63.87-6.61,2.7-11.9l2.74-6.65,2.7-5.3c1.83-3.52,4.09-9.7,6.8-18.51l2.74-10.59,4.09-9.28q4.05-18.49,6.8-25.16l2.7-7.92,1.39-4,1.22-4v.31s-1.15-1.74,0-2.61V1329h-3v-2.64l-2.19-2.65-2.63-2.61-1.36-3.11h-1.31a25.51,25.51,0,0,0-5.3-.84,54.09,54.09,0,0,0-6.61.84h-5.3l-2.67,1.8-2.63,1.2h-7v3h-4.22l-3.89.4a36.22,36.22,0,0,1-9.06,1.32c-2.61.87-11.62,1.27-11.62,1.27H3445l-6.45,2h-3.81l-10.51,3h-6.37l-5.17,1.46-9.06,1.28c-.87.91-6.45.25-6.45.25h-10.34a58.51,58.51,0,0,1-19.4,3.63l-11.62,1.28c-3.47,0-7.74,2.08-7.74,2.08h7.74l-7.74.52c-3.47.87-11.67-.24-11.67-.52H3326l-6.45,3h-37.48l-7.78,2h-6.16a43.3,43.3,0,0,1-12,1.91l-6.66,1.09h-10.05l-69.83,5h-26.72s-33.7.1-48.58-.82l-5.25-1.18h-28c-12.95-1-21.14-2.29-24.57-4l-6.45-1h-6.45c-4.34-1.13-6.49-2-6.49-2.91l-11.62-2.56-19.4-3.89-10.34-1.28-10.34-3.89a134.58,134.58,0,0,1-36.2-15.51q-38.78-20.66-62.05-54.27-22-31-31-76.28l-5.17-44-3.85-42.65-1.32-6.45a78.25,78.25,0,0,1-2.56-12.95l-1.28-14.19-1.32-9.06c-.87-4.3-1.74-9.47-2.56-15.51l-2.19-15.51v-2.61c0-1.7-.42-6.87-.42-15.51l-1.28-9a15.13,15.13,0,0,0-1.28-6.49c-.87-3.43-2-18.08-2-18.08V913.92s-1-6.45-1.87-14.23c0-6.87,3.87-12.91,3.87-12.91V860.35s-2.18-12.95-1.27-15.51c0-1.74,1.86-2.61,1.27-2.61V781.46c.6,0,.43-10.71,3-14.19V756.93c-1.7-3.43-1.29-6-.42-7.78l1.32-19.4,5.17-67.22,2.56-24.53,1.28-12.95,2.61-11.62a214.44,214.44,0,0,1,15.51-45.26q42.63-95.62,144.79-125.38l22-7.78,18.12-5.17,27.14-6.45q28.42-7.69,58.16-14.23a5.25,5.25,0,0,0,3.89-1.28l2.56-2.56a16.35,16.35,0,0,1,7.78-3.89q53-11.6,117.65-20.68l55.56-9.06,56.88-7.74,15.51-6.94h1.32l18.08,3h.36s11.86-5.94,20.31-7.65c9.3-1.67,24.13-5.35,24.13-5.35h3s5.58-.31,11.62-1.18l6.45-1.82h28.46s12.91-.75,18.12,0H3511c3.43-.75,16.8.18,16.8,0h.54l8,1.49a105.72,105.72,0,0,0,13.22,1.31,1.18,1.18,0,0,1,1.36-1.31,12.35,12.35,0,0,1,5.3,1.31l5.3,1.36,5.3.84h2.63c4.41.47,11,2.25,19.87,5.77l14.57,4L3617,364l4,1.31c6.18,1.78,15.42,5.72,27.79,11.9a247.3,247.3,0,0,1,29.14,19.87l3.94,1.31c4.41,2.67,11.95,8.39,22.54,17.2l11.9,11.95c4.41,5.3,7.92,9.28,10.59,11.9l13.22,15.89,14.57,23.81a68.08,68.08,0,0,1,5.3,8l8,14.57,3.94,7.92,2.67,6.61a81.63,81.63,0,0,0,2.63,10.59Z" transform="translate(-2.13)"/><path class="cls-1" d="M4996.59,468.31c.83.91,1.28,3.47,1.28,7.78a15.14,15.14,0,0,1-3,9.06V489l-2,1.32v6.45c-.5,0,3.72,5.17,3.72,10.34s-.46,8.6-1.32,10.34a24.33,24.33,0,0,1,1.32,7.74c0,1.74-.46,3.93-3.72,6.49v9a10.12,10.12,0,0,1,2,6.49v10.7s.23,3.24.23,4.88a3.52,3.52,0,0,1-1.21,2.42l-4,4.88v8.14s4.11,5.17,4.11,10.34-.46,8.6-1.28,10.34c-.87.87.17,9,.17,9v7.78l-.17,7.74c0,6-.46,10.38.17,12.95v7.74c-1.45,3.47-6,6.49-6,6.49v16.8s4.55,6.49,4.55,11.62-.46,9.06-4.55,11.62v20.68a113.23,113.23,0,0,1,3,19.4v5.17s.35,22,.35,34.91c0,12.08-.43,25.44-1.21,40.08l-1.21,36.2L4984.87,882v12.95s.92,25,.05,46.54c-1.74,20.68-3.05,47.82-3.05,47.82v2.61a36.7,36.7,0,0,1,1.77,10.34l-1.77,6.45v7.74a19.84,19.84,0,0,1,1.77,9.06,57.31,57.31,0,0,1-1.77,14.23v24.57c1.31,3.47,1.77,10.34,0,20.68v2.56c2.6,3.47,3.05,8.19,3.05,14.23s-.46,13.82-1.28,23.25l-1.28,10.34a33.22,33.22,0,0,0,1.28,10.34c0,10.34-1.86,46.54-1.77,46.54v19.26l-1.39,9.2-1.61,9.2v.18l-3.88,43.08-3.92,73.05-5.22,73.05q-6.51,84.78-14.36,138.26l-1.29,2.63L4931.91,1671l-18.24,112.17q-18.28,126.55-24.8,228.3v14.59s2.19,40.91,3.83,65.9l2.42,41.37c.78,17.21-1.25,45.26-1.25,45.26v6.45l4.47,7.78c0,5.13-.46,9-4.47,11.62v72.39l3,38.8v33.88c0,13.14-1.35,23.67-4,31.59a63.41,63.41,0,0,1-5.27,7.92l-3.92,5.27-2.65,5.27-2.61,5.27-1.35,4c-1.77,4.38-2.61,7-2.61,7.88a16,16,0,0,1-5.27,2.65l-2.65,2.61-2.61,2.65c-1.77,2.61-4.42,7-7.92,13.14l-3.92,6.57-4,6.61-1.31,9.18v9.35l1,9.06a69.78,69.78,0,0,1,1.28,7.78l-1.28,5.17-1.28,2.56-2.76,2.61v12.09l2.76,12.91c0,9.47-1.74,15.1-5.17,16.84l-2.59,1.28v2.56l-1.3,2.61c-.87,1.7-2.61,3-5.17,5.08h-2.61l-3.85.09q-5.21,2.54-11.67,6.45l-9,7.78-7.78,7.74-6.45,5.17-7.78,6.45a79.53,79.53,0,0,1-15.51,9.06q-18.12,6.45-25.85,15.51a153.3,153.3,0,0,1-16.8,16.8l-10.34,9.06c-6.91,6-20.68,10.89-20.68,10.89h-1l-12.29-4.55-10.94-4.07a10.64,10.64,0,0,1-4.11-1.4l-6.82-1.36c-6.39-.92-10.06-1.84-10.94-2.71l-2.1-1.4V2631h1s-14.57-2.38-19.82-8.4c-2.67-4.29-4.87-6.88-6.65-7.75a75.28,75.28,0,0,1-5.3-6.43q-3.94-6.43-3.94-9a3.57,3.57,0,0,1-1.36-2.55l-1.31-3.87-9.28-14.17c-1.78-.87-3.52-3-5.3-6.43l-2.63-5.15-2.67-3.87-7.92-10.3c-2.67-4.29-4.87-8.16-6.61-11.58l-2.67-5.46h-1.31c-6.18-6.57-13.26-17.28-21.18-31.87l-2.67-5.15c-.89-.87-2.67-3.46-5.3-7.75-2.63-5.15-3.94-8.57-3.94-10.3l-8-16.73-2.63-5.15-4-6.43c-2.67-4.29-4-7.75-3.58-10.3V2441l-3-6.47-4-6.43a54.8,54.8,0,0,1-4-10.3v-2.58l-2.54-5.21-2.62-5.21c-1.75-4.33-2.58-7.37-2.58-9.12l-.25-3.92v-1l-1.35-5.43-2.7-5.43c-2.74-5.48-4.09-9.09-4.09-10.87l-2.74-10.87c-1.83-3.65-3.61-7.26-5.43-10.87l-1.35-8.17a36.92,36.92,0,0,1-1.35-8.13v-.7l-5-29.3v-1.54l-4.1-13-4.1-11.71q-8.17-28.69-27.23-75.54l-13.59-37.75a328.11,328.11,0,0,1-15-41.67V2113l1.27-2.58-1.27-3.8q-9-26.88-19.19-60.1l-16.61-56.25q-20.5-70.33-34.53-108.66l-3.85-12.81a13.52,13.52,0,0,1-2.54-5.11l-2.58-7.65q-1.29-2.58-3.8-9l-2.58-11.5-5.11-17.92a50.51,50.51,0,0,1-3.85-10.23l-1.27-1.27a96.08,96.08,0,0,1-3.85-10.23l-1.27-7.69-2.54-5.11L4307,1778c-.86-.82-2.13-3.8-3.8-8.92a49.78,49.78,0,0,1-1.31-9l-1.27-6.38c-.86-2.54-2.13-6-3.85-10.23l-1.27-3.85-1.27-6.38-2.58-6.42-1.27-6.38c-1.72-4.25-2.54-7.65-2.54-10.23v-10l-2.3-5.17a44.79,44.79,0,0,1-.7-9.06v-3.49l-2-10.56a60.19,60.19,0,0,1-1.31-11.87l-2.62-5.28-1-10.56v-8.74l-1.28-3.88-9-33.55-9-33.6q-11.65-41.28-16.82-65.83l-1.28-3.88c-.87,0-1.28-.87-1.28-2.6l-1.28-2.56v-2.39c-1.79-1.74-3.15-4.85-4-9.28l-1.32-6.68-2.68-5.32v-.92a746.05,746.05,0,0,1-26-95.77v.06l-1-5.17-1.28-5.17a14.82,14.82,0,0,1-.68-5.17V1351l-1.26-4.91-1.22-4.91-1.22-4.91c-1.65-3.26-2.48-5.7-2.48-7.35-.83-.79-1.65-3.26-2.44-7.39l-1.22-4.91-1.26-4.91a40.52,40.52,0,0,1-2.44-6.13l-1.22-8.61-1.26-3.66v-3.52s.27,1.64,1.09,4.88a21.29,21.29,0,0,0-1.21-6.09l-1.25-7.3c-1.64-4.88-6.13-11-6.13-11l5-1.15-2.5-7.42v-6.37l-2.46-6.13-2.54-3.63V1231l-6-10.34v-9.06l3-6.45v1.66l-1.38-2.76,1.38-1.38v-1.42l-2.8-12.51a58.75,58.75,0,0,1-1.38-11.13l-1.38-4.18-1.38-8.32-9.75-37.56-1.38-1.38c-1-1.87-2.36-5.12-4.18-9.75l-1.38-5.56-1.42-5.56-2.76-11.13c-.93,0-1.87-1.38-2.8-4.18l-1.38-4.14v1.73s-2.54-4.75-4.29-9.12l-1.29-5.21-2.42-5.21v.19c-1.79-2.65-4-8.45-6.66-17.32l-1.32-4q-8.06-22.66-18.69-60a58.71,58.71,0,0,1-5.33-10.67v55.67l3,9.06v12.64l2,20v10l3,10.34v1l3,18.66v2.06l2,32.82v10.09s-.1,6,.77,7.74c.83,9.51-.25,41.37-.77,41.37v2.61c.53,0,3.34,7.36,3,14.23v20.68l-3,37.48v129.74c-.1,50-2.25,90.93-5.68,122.82l-1.32,1.28-14.19,99.53-15.51,99.53q-18.12,118.89-25.85,204.27-2.61,28.42-2.61,76.28l1.28,37.48c0,15.47-.46,29.29-2.12,41.37v6.45l-.45,6.45c0,5.17-.46,8.6-1.28,10.34l-1.32,1.32q-5.21,78.8-15.51,131.84c-1.74,12.08-4.72,21.55-9,28.46a30.91,30.91,0,0,1-5.17,6.45l-3.89,3.89-5.17,3.85-2.61,3.89-1.28,3.89c-1.74,3.43-3,5.58-3.89,6.45a15.7,15.7,0,0,1-5.17,2.61l-5.17,2.56-7.74,7.78-7.78,9c-5.17,6-9.89,9.06-14.19,7.7h-1.32l-2.56.08-1.28,1.28-2.61,1.64h-1.28a33.11,33.11,0,0,1-5.17-1.64l-6.45-2.56a44.82,44.82,0,0,0-12.95-3.89L3912,2332h-10.21l-9.1-1.33-9.1-1.29c-7.81-.87-13.83-2.16-18.15-3.9q-16.88-6.48-29.86-6.48H3812l-14-1.26q-16.56-1.28-24.2-8.92l-6.35-7.62-5.09-8.92-2.57-2.57-3.79-3.79c-3.42-4.28-5.09-6.84-5.09-7.66V2277h-1.8s-10.34-9.62-10.34-16.48a22,22,0,0,0,1.32-5.17c0-1.74-.46-3.06-.19-3.89V2245c-.27-3.47.6-5.63,1.47-6.45,0-.91,1.53-2.61,1.53-2.61v-2.85l2.52-13.15c-.92-.88-1.34-3.07-1.34-6.56l.82-4V2206l1.85-9.31a72.1,72.1,0,0,1,1.15-10.68v-13.92s.33-12.95,1.2-20.68l1.32-3.89c-.91-.87-1.32-3.43-1.32-7.74.87-4.34,1.74-6.95,2.61-7.78l2.19-14.23v-5.53l2.11-4.88a12.33,12.33,0,0,1,2.89-7.3v-13.25a20.41,20.41,0,0,1,3-7.86v-1.22l2-5.17v-13.16a3.74,3.74,0,0,1,1.36-2.69l1.32-2.64,1.32-5.33q0-6.65,2.69-9.34l1.32-8a30.83,30.83,0,0,0,1.32-9.34l1.32-5.33c.9-2.69,1.79-4.48,2.69-5.33l1.32-2.69q4-17.33,9.34-24v-.14l1.2-10.34,1.2-1.32,1.24-7.74q4.84-28.48,8.47-64.66l2.45-32.31c.78-14.64,1.59-26.31,2.41-34.91,0-2.56.82-4.3,2.45-5.17l1.2-1.28,1.2-2.56,3.65-51.71,4.86-50.43q3.61-51.69,3.65-82.73v-55.6l3-15.51v-10a82.89,82.89,0,0,1-.75-10.42l.75-5.21v-10.42c-.33-.83-.75-3.46-.75-7.79a41,41,0,0,0,.75-7.83v-36.46s2.25-8.67,3.17-10.42l1.29-3.92,1.29-5.21a20,20,0,0,1,2.25-9.08v-9.89l2-9.2v-5.1l.83-9.06c.83-3.43,2.17-7.74,2.17-7.74v-5.05l1.36-26.75,1.14-28c0-23.52,2.5-59.14,2.5-59.14v-3.89s-.72-.87,0-2.61v-24.26a223.36,223.36,0,0,1-2.17-34.46c0-16.5,2.65-46,2.17-46v-10.34c.48,0,1-5.58,3-6.45v-20.68c-2-.83-5.17-6.45-3-6.45V1109.5c-2.17,0,1.89,1.74,1.89,5.17.83-1.7,1.11-12.91,1.11-12.91v-6.45s.58-4.3,1.45-5.17L3846,1085a7.69,7.69,0,0,0-.17-5.17v-5.17l3-3.89v-3.42l3-5.17v-19.4c-.66-1.7-.25-3.43,0-5.17V1033h2v-12.1l3-7.74V970.35l-3-9V957l-3-5.17v-9.06l3-3.89v-5.14l-8-7.79v-5.14l3-3.89v-1c-2-2.65-3-16-3-16v-2.72q-2.77-13.22-5.5-53c-1.85-3.52-3.26-9.7-4.14-18.51l-1.36-6.65v-6.82s-2.19-11.62-3.06-14.23l-1.28-3.89-1.28-5.17c0-4.3.41-7.28,1.28-9l-2.66-5.17v-6.49s2.66-4.26,2.66-5.17a3.6,3.6,0,0,0-2.66-3.85v-3.89l.09-3.89c0-3.43.41-5.58-.09-6.45V695.83l-3-5.17v-5.17l-3-56.88v-22c-.4-4.3.3-7.74,0-7.74v-1.29c-1.47,0-3-3.91-3-3.91v-4.56s-1.14-7.13-2-13.37c0-5.3.43-9.31,1.32-12l-1.33-12v-30l-1.34-12.95-1.66-11.62V474h3v-6.51c-.57-5.13,3-14.23,3-14.23v-1.5s-4.54-4.75-4.54-9.12c0-5.17.42-8.21,1.29-9.08l-1.29-11.75L3814,394.47l-1.29-2.58c-.92-1.75-.87-9.12-.87-9.12V366.21l-5-16.84v-17.1a1.15,1.15,0,0,1,1.28-1.31l-1.28-4V274c0-3.52.4-6.18,1.28-8l1.24-9.23c0-3.52.8-6.18,2.48-8V249c4.32-8.67,10.38-13,18.19-13h1.29q3.86-6.5,18.19-7.79l6.48-2.62,7.77-2.58h3.9a11.44,11.44,0,0,1,5.19-1.33v-2.46s5-4.33,8.54-5.21l2.58-1.29,2.63-1.29c0-.87,1.71-1.33,5.21-1.33l2.58-1.08h3.92l7.83-4.12,9.08-5.21a112.65,112.65,0,0,1,17-9.08,20.76,20.76,0,0,1,9.08-2.62,16.07,16.07,0,0,1,9.13,2.63,17,17,0,0,1,7.83,3.88,18.88,18.88,0,0,0,11.71,3.92,24.25,24.25,0,0,0,7.79-1.29l3.92-4.08h1.43s4.72-.39,6.45-2.13c2.56-2.56,10.34-4.87,10.34-4.87h2q4.86-8.54,22-9.75l2.42-1.25h4s2.42.17,2.42,1.92c2.42.88,4.88,3,7.34,6.5,1.6,2.63,2.42,5.25,1.84,7.83v2.58c2.23,9.58,3.83,16.5,5.47,21.17h-.47v5h3v1.89c1.27,1.74,1.72,4.3,1.72,7.74a67.81,67.81,0,0,1,11.62-7.74c4.3-2.56,8.15-3.89,11.62-3.89a15.13,15.13,0,0,1,6.49,1.28,28.34,28.34,0,0,1,9,3.89,12.28,12.28,0,0,0,9.06,3.89,20.92,20.92,0,0,0,9.06-2.61l3.89-2.56,3.85-1.32c1.74-1.7,3.43-3.43,5.17-5.17,1.74-2.56,9.06-6.4,9.06-6.4h3.91c2.44-7.08,9.46-12.42,21-16h6.15c.79,0,1.22.47,1.22,1.32,2.44.94,5.32,3.16,8.63,6.7,2.44,4.44,3.7,8.45,3.7,12q4.91,16,7.37,22.66,1.18,0,2.48,2.69v5.33a3.61,3.61,0,0,1,2.44,1.32c1.66,3.58,3.27,9.34,4.93,17.32a80.2,80.2,0,0,1,2.48,17.32l1.22,8,1.22,5.33c1.66.9,2.88,3.11,3.7,6.66v2.22l1.21,3.89c.78,1.74,2,4.76,3.68,9.06l3.68,11.62c.78.87,1.6,3,2.43,6.45v3.89l1.21,5.17L4218,353.6l3.68,14.23,1.21,5.17h4v2.7c.95.91,3,6.49,3,6.49v4.65l1.36,5.25,1.64,1.3v2.95l1.25,2.46a65,65,0,0,1,2.46,6.09c.78.82,1.29,6.09,1.29,6.09v2.84l1.34,5.42,2.73,4.08a15.66,15.66,0,0,1,1.34,6.77c1.82.91,3.17,4.08,4.08,9.5l1.34,5.42,1.34,6.77c1.82,1.82,3.17,5.9,4.08,12.19,1.82,6.33,2.73,10.89,2.73,13.58v2.12a70.39,70.39,0,0,1,4.8,10.62,58,58,0,0,1,2.2,11.94v4.88l3,6.45v5.09l3.13,5.21c1.75,0,3,2.17,3.92,6.5a12.15,12.15,0,0,1,1.29,5.21,3.76,3.76,0,0,1-1.29,2.63l1,3.92v2.34l3,13c1.71,1.75,3,5.63,3.88,11.71,1.75,6.08,1.17,14.33,1.17,14.33v1.72l4.17,12.07a104.91,104.91,0,0,1,4,10.74c.86,6.27,1.33,10.31,1.33,12.12l1.38,1.33a7.62,7.62,0,0,0,.09,1.33v6.44l-.08,7.34c1.6.82,2.81,3.24,3.63,7.3.82,4.92,1.45,8.55,1.45,8.55v11.73q1.28,1.41,4,9.37a84.29,84.29,0,0,1,1.37,10.7c.86,4.45,1.75,9.37,2.65,14.72v3.23l1.1,3.91c.88,3.53,1.9,6.6,1.9,6.6V715l.76,4,1.32,4a11,11,0,0,1,1.32,4,9.37,9.37,0,0,1-1.41,4v4.92l2.16,6.45c.83,1.74,1.7,5.21,2.56,10.34s1.28,10.34,1.28,10.34v9.82l3,6.09,1.21,7.34a33.93,33.93,0,0,1,.74,12.19v4.9l2.93,3.67a33.77,33.77,0,0,0,2.07,4.88v1.4l3,16.92c.83.92,2.17,4.38,3.92,10.42.83,5.25,1.08,10.42,1.08,10.42v1.8s3.67,10.34,5.42,18.08c1.71,8.65,3,15.55,2.58,20.68V895h1.2l1.29,1.28q9.11,31,19.51,71.11l7.78,34.87,9.11,33.63q0,2.61,2.62,12.91c1.71,5.21,3.87,12.08,6.49,20.68l5.2,23.29q7.74,31,13,45.26l1.33,3.85c.83.91,2.12,4.34,3.87,10.34l1.33,5.17,1.29,6.49v1.28c2.58,4.3,5.2,11.21,7.78,20.68l3.91,11.62,2.62,10.34,1.29,1.28q2.56,6.52,6.49,19.4l1.29,3.89c3.45,6,7.78,17.71,13,34.91l2.58,10.34a39,39,0,0,0,2.62,9q6.49,14.27,14.31,44l1.29,3.89c1.71,2.56,3.45,7.32,5.2,14.19l2.58,9.06,1.33,9.06,1.29,3.89,11.69,41.37,20.8,69.79,20.8,71.11q24.71,82.78,35.11,134.44v0q29.7,145.95,46.5,222.17l19.39,76.22,2.56-42.61q1.24-25.85,2.6-45.22a7.28,7.28,0,0,1,2.56-5.17l1.28-1.28,1.32-3.89a538.56,538.56,0,0,1,3.84-60.72l5.17-58.11q6.45-64.6,6.49-112.39l1.28-14.22c-.87-.83-1.28-2.56-1.28-5.17l1.28-7.73v-8.52l1.18-12,1.32-20a41.85,41.85,0,0,1,1.37-10.68c-.94,0-1.87-1.32-1.87-1.32v-10.94l3-6.49v-36.2c.15,0,2.8-3.43,2.8-5.17a5.92,5.92,0,0,0-2.8-5.17v-5.17l3-5.17v-7.16l1.36-6.64c0-6.21.43-10.21,1.32-12l1.32-5.32,1.32-6.64c0-5.28.89-8.85,2.68-10.64v-.71l.86-10.34,2.14-10.34V1426l2.48-10a34.51,34.51,0,0,1,2.52-7.52v-2.35l3.88-33.87,2.63-35.17q3.87-42.94,6.5-66.37l1.29-3.92c-.87,0-1.29-1.29-1.29-3.92v-27.9s4.65-62.51,7.93-91.79l2.07-2.61v-9s0-6.91.88-7.78l-.88-3.89V1109.5c.51,0,2.58-6,3.49-7.74-.91-1.74-1.32-4.76-1.32-9.06l.84-5.17v-11.42l1.48-8,1.52-5.34V1047.5a18.45,18.45,0,0,1,3-6.56v-6.4l2-5.17v-14.19l5-6.09V995.74c.39-4.3.81-7.28,1.68-9a20.91,20.91,0,0,1,1.32-5.17v-2.61l3-3.89V962.15l3-9.06v-4.48l.66-8,1.34-36V874.24l-2-3.89V863.9l-3-9.06V842.19a53.79,53.79,0,0,1-3-16v-4.92l3-28.46V777.55l-3.79-14.65a122.88,122.88,0,0,1-1.21-19.53V725.85c-.61,0-3.23-13.64-3.23-17.2l-1.36-4-1.31-6.61c0-4.41,2.9-8.69,2.9-8.69V676.47s.08-4.76.08-6.49-.43-3-.08-3.85v-9.06c-1.17-4.3-.78-6.87,0-7.78V593.73c-.78,0,0-5.17,0-5.17V583s-5-40.87-5-61.36V474.77c-1.47-2.56-2.35-6.87-3.2-12.91,0-6.87.42-11.62,1.3-14.23L4719.87,436v-5.17l-1.5-3.89c0-4.3.42-6.87,1.5-7.74v-3.89l-1.5-3.89c0-3.43.42-5.58,1.5-6.45v-5.17l-1.5-12.95-1.3-14.19c-.92-11.21-1.34-25.68-1.34-25.68h1.15v-7.32c.31-5.13,0-15.51,0-15.51v-1.28a97.17,97.17,0,0,1-.94-11.62c0-5.17.39-8.19,1.25-9.06L4715.93,288l-4.06-28.42V256.3a29.17,29.17,0,0,1-2.29-10.34l-.71-6.45v-5.6l-1.24-7.48c-1.68-4.16-3-10-3.76-17.52V169.72l-6-16.84V136.55l3-5.17v-9.06c-2.91-1.7-2.38-3.85-3-3.85V108.13c.62,0,1.78-7.32,3-9.06V95.19c4-9.47,10-14.64,17.77-16.19h1.28c1.74-3.63,7.32-6.65,16.8-8.39a55.08,55.08,0,0,0,6.49-3.85l7.74-1.32,2.61-1.28,1.28-1.28a5.36,5.36,0,0,1,3.89-1.28,1.15,1.15,0,0,1,1.28-1.32,19.32,19.32,0,0,1,7.74-6.45l2.61-1.28,1.28-1.28c.83-.87,5.17-1.25,5.17-1.25h3.26l2.6-1.3,9.17-5.23,7.87-6.53q9.11-7.85,15.7-10.47a25.39,25.39,0,0,1,13.06-3.94,12.07,12.07,0,0,1,5.23,1.3,97.91,97.91,0,0,1,9.17,5.23A12.43,12.43,0,0,0,4852,33a21,21,0,0,0,9.13-2.64l3.94-2.6,3.94-1.3c2.6-.88,4.35-2.18,5.23-3.94A31.1,31.1,0,0,1,4884.74,16h.27q4-10.62,22.66-14.68L4910.35,0h1.39c1.8,0,2.69.86,2.69,2.55,2.65.86,5.77,3.46,9.37,7.74a18.49,18.49,0,0,1,4,11.57c1.8,11.16,3.55,18.86,5.35,23.14h2.38l1.36,2.66v5.28h0v1.28c1.64,3.47,3.25,9.06,4.89,16.79.78,7.78,1.21,13.81,1.21,18.12l1.25,7.73,1.21,6.49c.78.87,1.6,3,2.43,6.45v4.93l1.28,3.76a95.48,95.48,0,0,1,2.48,10l3.76,11.24c.8.84,1.24,2.92,1.24,6.24l1.24,5v4.41s4.17,7.83,5,13l3,15.63v5.07l2,1.32v14.19l3,5.17v4.17l1.24,3.76a14.44,14.44,0,0,1,1.24,6.24q1.2,1.26,2.52,6.24v9.09l1.93,5.3a12.35,12.35,0,0,1,1.31,5.3c.85,1.78,2.76,10.59,2.76,10.59v5.94l.58,6.54c.83,1.75,1.71,5.63,2.58,11.71a36.06,36.06,0,0,1,1.33,7.79c0,2.63-.46,4.38-1.33,5.21l1.33,5.21q2.56,2.63,3.88,11.75a56.44,56.44,0,0,1-1.29,13l1.29,3.92c.88,1.75-.37,7.79-.37,7.79v10.08a18.38,18.38,0,0,1,4.11,7.78,27.88,27.88,0,0,1-1.11,7.74v3.89l1.11,1.28c0,.91-.46,1.32-1.11,1.32v12.91c1.53,2.61,2.39,7.36,2.39,14.23a24.33,24.33,0,0,1,1.32,7.74,11.3,11.3,0,0,1-1.32,5.17,5.36,5.36,0,0,1-1.28,3.89l1.28,12.95c.87,1.74,1.74,5.17,2.61,10.34,0,6-.46,9.89-1.28,11.62l1.28,1.28a1.14,1.14,0,0,1-1.28,1.28,14,14,0,0,0-1.32,6.49Z" transform="translate(-2.13)"/><path class="cls-1" d="M1522.65,2353.18l-3.79.66-.93.16h6.12C1523.28,2353.52,1522.65,2353.18,1522.65,2353.18Zm-16.84-.58,7.28.45a10.55,10.55,0,0,0-3.65-1.09Zm-10.48-2a4.79,4.79,0,0,1,1.43,1.4l7.39.45-2.52-.21A23.74,23.74,0,0,0,1495.33,2350.64ZM1464.43,2637h-1.27l-2.33,1.59q7.07,1,14.24,1.83l-1.59-.85C1469.2,2639.57,1464.43,2637,1464.43,2637Zm-2.57-291.47a38.06,38.06,0,0,0-8.07.11l-5.45-.37c-2.73-.4-4.16-1-4.32-2s-1.11-1.14-2.86-.82c-1.19-1.56-4-2.38-8.5-2.54a40.54,40.54,0,0,0-8.07.08l-10.85-.74a1.22,1.22,0,0,0-1.54-1.11c-2.06-1.4-5.4-2.59-10.06-3.6a62.05,62.05,0,0,0-10.64.56l-3-.32c1.14.53,2.3,1,3.44,1.46q19.3,6.43,45.09,9.05l21.87,1.27,8.58.48C1467.05,2346.33,1465.17,2345.82,1461.86,2345.53Z" transform="translate(-2.13)"/></svg>