<svg id="Camada_1" data-name="Camada 1" xmlns="http://www.w3.org/2000/svg" viewBox="0 0 239.65 46.85"><defs><style>.cls-1{fill:#fff;}</style></defs><title>SOBRE</title><path class="cls-1" d="M8.67,45.75A30.74,30.74,0,0,1,0,42.49V31a32,32,0,0,0,9.53,4,42.43,42.43,0,0,0,10.23,1.33,19.2,19.2,0,0,0,6.9-.89q2.09-.89,2.09-2.28,0-1.58-2.12-2.41A45.81,45.81,0,0,0,19.75,29a83.93,83.93,0,0,1-9.91-2.53,17.69,17.69,0,0,1-6.9-4.24A10.54,10.54,0,0,1,0,14.37,12.9,12.9,0,0,1,2.09,7.22,14.5,14.5,0,0,1,9,2,33.16,33.16,0,0,1,21.53,0q9.56,0,15.89,2.47V14a32.53,32.53,0,0,0-8-2.56,48,48,0,0,0-9.37-.92q-8.11,0-8.1,2.85,0,1.52,2.15,2.31a43.27,43.27,0,0,0,6.71,1.61,79.37,79.37,0,0,1,9.91,2.37,17.41,17.41,0,0,1,7,4.24,10.76,10.76,0,0,1,3,8A12.86,12.86,0,0,1,35.2,42.77q-5.51,4.08-16.4,4.08A46.2,46.2,0,0,1,8.67,45.75Z"/><path class="cls-1" d="M56.67,43.88a21.59,21.59,0,0,1-8.52-8.29,23.86,23.86,0,0,1-3.07-12.16A23.91,23.91,0,0,1,48.15,11.3,21.54,21.54,0,0,1,56.67,3,25.32,25.32,0,0,1,69,0,25.64,25.64,0,0,1,81.46,3,21.28,21.28,0,0,1,90,11.3a24.11,24.11,0,0,1,3,12.12,24.06,24.06,0,0,1-3,12.16,21.33,21.33,0,0,1-8.52,8.29,25.63,25.63,0,0,1-12.44,3A25.3,25.3,0,0,1,56.67,43.88ZM75.28,34a11,11,0,0,0,4.21-4.34A12.92,12.92,0,0,0,81,23.43a13,13,0,0,0-1.49-6.2,10.9,10.9,0,0,0-4.21-4.37A12.24,12.24,0,0,0,69,11.27a12.07,12.07,0,0,0-6.24,1.58,10.73,10.73,0,0,0-4.15,4.37,13.18,13.18,0,0,0-1.46,6.2,13.12,13.12,0,0,0,1.46,6.24A10.78,10.78,0,0,0,62.78,34,12.07,12.07,0,0,0,69,35.58,12.24,12.24,0,0,0,75.28,34Z"/><path class="cls-1" d="M142.93,27.13a11.81,11.81,0,0,1,1.23,5.41,13.48,13.48,0,0,1-1.87,7.09,12.88,12.88,0,0,1-5.22,4.84,16.38,16.38,0,0,1-7.66,1.74h-28V.63h27.42a17.39,17.39,0,0,1,7.69,1.65,12.7,12.7,0,0,1,5.29,4.62,12.44,12.44,0,0,1,1.9,6.84,12,12,0,0,1-1.11,5.19,11.61,11.61,0,0,1-3.2,4.05A11.57,11.57,0,0,1,142.93,27.13Zm-30-7.69h14.37a4.14,4.14,0,0,0,3.1-1.23,4.31,4.31,0,0,0,1.2-3.13,4.31,4.31,0,0,0-1.2-3.13,4.14,4.14,0,0,0-3.1-1.23H112.89Zm18,15.48a4.33,4.33,0,0,0,1.23-3.2,4.44,4.44,0,0,0-1.23-3.23,4.19,4.19,0,0,0-3.13-1.27H112.89v8.93h14.88A4.25,4.25,0,0,0,130.91,34.92Z"/><path class="cls-1" d="M195.77,46.22H179.25L164.11,30.39V46.22H152.59V.63h24.19a17.19,17.19,0,0,1,8.58,2.12,15.39,15.39,0,0,1,5.89,5.79,16,16,0,0,1,2.12,8.17,15.48,15.48,0,0,1-1.68,7.19,14.18,14.18,0,0,1-4.62,5.29,15.19,15.19,0,0,1-6.68,2.53ZM164.11,22.67h11.4A5.55,5.55,0,0,0,179.66,21a5.72,5.72,0,0,0,1.61-4.18,5.72,5.72,0,0,0-1.61-4.18A5.56,5.56,0,0,0,175.51,11h-11.4Z"/><path class="cls-1" d="M213.82,11v7.09H239V28.49h-25.2v7.34h25.83V46.22H202.29V.63h37.36V11Z"/></svg>