<svg xmlns="http://www.w3.org/2000/svg" viewBox="0 0 281.7 35.87"><defs><style>.cls-1{fill:#fff;}</style></defs><title>Ativo 1</title><g id="Camada_2" data-name="Camada 2"><g id="Camada_1-2" data-name="Camada 1"><path class="cls-1" d="M36.11.49,25.68,35.38H10.83L0,.49H8.48l9.85,33.76L27.88.49Z"/><path class="cls-1" d="M49.15,7.59v6.66H68.5v7.11H49.15v6.91H69.24v7.11H41.36V.49H69.24v7.1Z"/><path class="cls-1" d="M98.83,35.38l-13-12.54V35.38H78V.49H96.33A13,13,0,0,1,102.7,2,11,11,0,0,1,107,6.3a12.14,12.14,0,0,1,1.54,6.1,11.59,11.59,0,0,1-1.47,5.86,10.45,10.45,0,0,1-4.07,4,12,12,0,0,1-5.93,1.45L110.3,35.38ZM85.8,7.59v9.7h9.75a4.69,4.69,0,0,0,4.85-4.85,4.69,4.69,0,0,0-4.85-4.85Z"/><path class="cls-1" d="M185.61,35.38h-8.48L170.37,1.62l-6,33.76H148.57L142.49,1.62l-6.66,33.76h-8.23L135,.49h15.34l6.32,33.76L162.87.49h15.34Z"/><path class="cls-1" d="M215.79,28.37H198.55l-2.25,7h-8.13L200.06.49h14.55l12,34.89H218Zm-2.3-7.11L207.17,1.62l-6.32,19.65Z"/><path class="cls-1" d="M245.93,28.08v7.3H229v-7.3h4.61V7.79h-4.41V.49h16.56v7.3h-4.36V28.08Z"/><path class="cls-1" d="M257.49,35.11a21.27,21.27,0,0,1-6.37-2.28V24.94a23.25,23.25,0,0,0,6.93,2.69,34.18,34.18,0,0,0,7.67.93,15.36,15.36,0,0,0,6.1-.86q1.79-.86,1.79-2.13a2.08,2.08,0,0,0-1-1.76,8.1,8.1,0,0,0-2.45-1.1q-1.47-.42-4.26-1.05a67.91,67.91,0,0,1-7.37-2,12.91,12.91,0,0,1-5-3.16,7.8,7.8,0,0,1-2.13-5.73,9.59,9.59,0,0,1,1.57-5.32,11,11,0,0,1,5.12-3.95A23.76,23.76,0,0,1,267.29,0a45,45,0,0,1,6.35.44A24.09,24.09,0,0,1,279,1.76v8a22.85,22.85,0,0,0-5.78-1.81,35.69,35.69,0,0,0-6.81-.69A13.1,13.1,0,0,0,261,8q-1.54.78-1.54,2,0,1.37,1.81,2.11a34.81,34.81,0,0,0,5.64,1.52,64.74,64.74,0,0,1,7.47,1.94,13,13,0,0,1,5.15,3.21,8,8,0,0,1,2.18,5.88,9.79,9.79,0,0,1-1.79,5.81,11.69,11.69,0,0,1-5.54,4A26.3,26.3,0,0,1,265,35.87,37.46,37.46,0,0,1,257.49,35.11Z"/></g></g></svg>