<?xml version="1.0" encoding="utf-8"?>
<!-- Generator: Adobe Illustrator 21.0.0, SVG Export Plug-In . SVG Version: 6.00 Build 0)  -->
<svg version="1.1" id="NORMAL" xmlns="http://www.w3.org/2000/svg" xmlns:xlink="http://www.w3.org/1999/xlink" x="0px" y="0px"
	 viewBox="0 0 4767.3 2211.6" style="enable-background:new 0 0 4767.3 2211.6;" xml:space="preserve">
<style type="text/css">
	.st0{fill:#FFFFFF;}
</style>
<title>11-SOFT HARMONY</title>
<g>
	<polygon class="st0" points="1382.7,2170.7 1382.7,2185 1306.2,2185 1306.2,2073.5 1381.4,2073.5 1381.4,2087.8 1321.5,2087.8 
		1321.5,2121.2 1373.7,2121.2 1373.7,2135 1321.5,2135 1321.5,2170.7 	"/>
	<path class="st0" d="M1514.3,2154.6c0.1,4.9-1,9.7-3.2,14c-2.1,3.9-5,7.3-8.6,9.9c-4,2.7-8.4,4.7-13.1,5.7
		c-5.2,1.2-10.5,1.8-15.9,1.8c-17.4,0-32.3-5.4-44.4-16.1l-1.6-1.4l7.9-13.1l2.3,2.4c4.3,4.3,9.3,7.6,14.9,9.8
		c6.7,2.8,13.8,4.2,21,4.1c8.1,0,14.2-1.4,18.7-4.2c4.1-2.5,6-6.4,6-11.8c0.1-2.4-0.5-4.9-1.7-7c-1.3-2.1-3.2-3.8-5.3-5
		c-3-1.7-6.2-3-9.5-4c-4.3-1.3-8.8-2.4-13.8-3.6c-6.2-1.4-10.9-2.7-14.9-4.1c-4.1-1.3-7.9-3.2-11.3-5.7c-3.1-2.2-5.5-5.1-7.1-8.5
		c-1.8-3.7-2.6-7.9-2.5-12c-0.1-4.9,0.9-9.8,3.1-14.2c2-4.1,4.9-7.7,8.5-10.5c3.9-2.8,8.2-5,12.8-6.2c5.2-1.5,10.6-2.2,16.1-2.1
		c6.7-0.1,13.4,1.1,19.7,3.4c5.8,2.2,11.2,5.5,15.8,9.6l1.6,1.4l-7.8,13.1l-2.3-2.6c-3.1-3.4-6.9-6-11.2-7.6
		c-5.1-2.1-10.6-3.1-16.1-3c-8.8,0-15.3,1.6-19.1,4.7s-5.6,7.3-5.6,12.6c-0.1,2.3,0.4,4.6,1.4,6.7c1.1,1.8,2.6,3.3,4.5,4.3
		c2.7,1.6,5.7,2.8,8.7,3.6c3.8,1.1,8.2,2.2,13.1,3.3c5.3,1.1,10.5,2.4,15.6,4.1c4.3,1.4,8.5,3.4,12.2,5.9c3.4,2.4,6.2,5.5,8.2,9.1
		C1513.4,2145.5,1514.4,2150,1514.3,2154.6z"/>
</g>
<g>
	<polygon class="st0" points="1639,2073.4 1639,2087.7 1601,2087.7 1601,2184.9 1585.5,2184.9 1585.5,2087.7 1547.6,2087.7 
		1547.6,2073.4 	"/>
</g>
<g>
	<polygon class="st0" points="1765.7,2170.7 1765.7,2185 1689.2,2185 1689.2,2073.5 1764.4,2073.5 1764.4,2087.8 1704.5,2087.8 
		1704.5,2121.2 1756.7,2121.2 1756.7,2135 1704.5,2135 1704.5,2170.7 	"/>
	<polygon class="st0" points="1747.7,2042.4 1730.6,2064.4 1719.1,2060.2 1730.4,2042.4 	"/>
</g>
<g>
	<polygon class="st0" points="1891.7,2073.4 1891.7,2087.7 1853.7,2087.7 1853.7,2184.9 1838.2,2184.9 1838.2,2087.7 1800.3,2087.7 
		1800.3,2073.4 	"/>
</g>
<g>
	<rect x="1941.9" y="2073.7" class="st0" width="15.3" height="111.3"/>
	<path class="st0" d="M2108.4,2157.7l-0.9,2.1c-1.8,4.3-4.4,8.1-7.7,11.4c-3.3,3.2-7,5.9-11,8.1c-4,2.2-8.3,3.9-12.7,5
		c-4.3,1.1-8.7,1.7-13.1,1.8c-7.4,0.1-14.7-1.7-21.3-5.1c-6.3-3.3-11.9-7.7-16.5-13.1c-4.6-5.4-8.2-11.6-10.7-18.2v-0.1
		c-2.4-6.8-3.6-14-3.7-21.2c0-6.8,1.2-13.6,3.6-20c2.3-6.5,5.8-12.5,10.3-17.8c4.6-5.4,10.3-9.7,16.7-12.8c7-3.4,14.8-5.1,22.6-5
		c9.8,0,18.4,2.3,25.6,6.8c6.9,4.3,12.4,10.5,15.9,17.8l1,2l-12.7,7.7l-1.2-2.5c-1.4-3-3.3-5.7-5.6-8.1c-2.1-2.2-4.6-4-7.2-5.5
		c-2.5-1.4-5.2-2.4-8-2.9c-2.8-0.6-5.6-0.9-8.4-1c-5.5-0.1-10.9,1.1-15.7,3.6c-4.5,2.4-8.5,5.6-11.7,9.6c-3.2,4-5.6,8.5-7.2,13.4
		c-1.6,4.9-2.4,10.1-2.4,15.2c0,5.5,1,11,2.9,16.1c1.8,5,4.5,9.6,7.9,13.6c3.2,3.9,7.3,7.1,11.8,9.3c4.5,2.3,9.6,3.5,14.7,3.4
		c2.9,0,5.8-0.3,8.6-1c2.9-0.8,5.8-1.9,8.4-3.4c2.8-1.6,5.4-3.5,7.7-5.7c2.4-2.4,4.3-5.1,5.8-8.2l1.1-2.3L2108.4,2157.7z"/>
</g>
<g>
	<path class="st0" d="M2196.2,2073.5h-11.8l-46.6,111.5h16.5l13.7-33.3h44.3l13.8,33.3h16.7L2196.2,2073.5z M2172.3,2138.4
		l18.1-43.6l17.6,43.6H2172.3z"/>
</g>
<g>
	<path class="st0" d="M2404,2073.5h-11.8l-46.6,111.5h16.3l13.7-33.3h44.4l13.8,33.3h16.7L2404,2073.5z M2380,2138.4l18.1-43.6
		l17.7,43.6H2380z"/>
</g>
<g>
	<polygon class="st0" points="2580.9,2073.5 2534.4,2185 2521.9,2185 2475.4,2073.5 2491.8,2073.5 2528.2,2162.9 2564.3,2073.5 	"/>
</g>
<g>
	<path class="st0" d="M2664.5,2073.5h-11.9l-46.6,111.5h16.5l13.7-33.3h44.4l13.7,33.3h16.7L2664.5,2073.5z M2640.4,2138.4
		l18.1-43.6l17.6,43.6H2640.4z"/>
</g>
<g>
	<polygon class="st0" points="2852.3,2073.7 2852.3,2185 2839.6,2185 2773.8,2102.6 2773.8,2185 2758.4,2185 2758.4,2073.5 
		2770.2,2073.5 2837,2157.5 2837,2073.7 	"/>
	<path class="st0" d="M2990.5,2151l-1.1,2.3c-1.4,3-3.4,5.8-5.8,8.2c-4.5,4.4-10.1,7.5-16.2,9.1c-2.8,0.6-5.7,1-8.7,1
		c-5.1,0.1-10.1-1.1-14.7-3.5c-4.6-2.2-8.6-5.4-11.8-9.3c-3.5-4-6.1-8.6-7.9-13.6c-2-5.1-3-10.6-2.9-16.1c0-5.2,0.8-10.3,2.4-15.2
		c1.5-4.9,3.9-9.4,7.2-13.4c3.2-3.9,7.1-7.2,11.6-9.6c4.9-2.5,10.3-3.7,15.8-3.6c2.8,0.1,5.6,0.4,8.3,1c2.8,0.6,5.5,1.6,8,3
		c2.7,1.5,5.1,3.3,7.3,5.5c2.4,2.3,4.3,5.1,5.7,8.1l1.2,2.5l12.7-7.7l-1-2c-3.5-7.3-9-13.5-15.9-17.8c-7.2-4.5-15.8-6.8-25.6-6.8
		c-8.6,0-16,1.6-22.5,5c-6.4,3.1-12.1,7.4-16.7,12.8c-4.5,5.3-7.9,11.3-10.3,17.8c-2.3,6.4-3.6,13.2-3.6,20
		c0.2,13.9,5,27.4,13.8,38.2c4.3,5.4,9.6,9.8,15.6,13.2c5.1,2.8,10.6,4.6,16.3,5.4l-8,14.9l1.3-0.5l-4.6,7.8l2.7,1.1
		c2.4,0.9,4.8,1.6,7.2,2.1c2.8,0.6,5.7,0.9,8.6,0.9c5.6,0,9.8-1,12.8-3.1c3.3-2.2,5.1-5.9,5-9.9c0.1-3.4-1.4-6.7-4.1-8.8
		c-2.9-2-6.3-3-9.8-2.8h-0.7l0.6-1c3.7-0.4,7.4-1.2,11-2.3c4.1-1.2,8-2.9,11.7-5.1c3.8-2.1,7.1-4.8,10.1-8c3-3.1,5.4-6.8,7.1-10.7
		l0.9-2.1L2990.5,2151z M2965.2,2196.7c0.2,0.1,0.8,0.5,0.8,2.1c0,0.8,0,2.8-6,2.8c-2.3,0-4.6-0.3-6.9-0.7c-1.8-0.4-3.5-1-5.2-1.7
		l-0.6-0.3l2.6-1c1.6-0.5,3.3-1,5-1.3c2-0.4,4-0.6,6.1-0.6C2962.4,2195.8,2963.9,2196.1,2965.2,2196.7z"/>
</g>
<g>
	<path class="st0" d="M3091.5,2073.5h-11.8L3033,2185h16.4l13.7-33.3h44.5l13.8,33.3h16.7L3091.5,2073.5z M3067.6,2138.4l18.1-43.6
		l17.6,43.6H3067.6z"/>
</g>
<g>
	<path class="st0" d="M3274.4,2107.7c-2.1-6.6-5.5-12.6-10-17.8c-4.7-5.2-10.4-9.3-16.9-12c-7.4-3.1-15.3-4.6-23.3-4.4h-38.5V2185
		h38.5c7.5,0.1,15-1.3,22-4c6.4-2.5,12.3-6.4,17-11.4c4.8-5.1,8.4-11.1,10.7-17.7c2.6-7.3,3.8-15.1,3.8-22.8
		C3277.7,2121.8,3276.6,2114.6,3274.4,2107.7z M3259.6,2145.7c-1.5,4.8-3.9,9.3-7.2,13.1c-3.3,3.7-7.3,6.7-11.8,8.6
		c-5.2,2.2-10.8,3.3-16.5,3.2h-23.2v-82.9h23.2c5.6-0.1,11.1,0.9,16.3,3c4.5,1.9,8.6,4.8,11.8,8.5c3.3,3.8,5.8,8.2,7.4,13
		c1.8,5.4,2.6,11.1,2.6,16.8C3262.3,2134.7,3261.4,2140.3,3259.6,2145.7z"/>
</g>
<g>
	<path class="st0" d="M3368.7,2073.5h-11.9l-46.6,111.5h16.5l13.6-33.3h44.6l13.8,33.3h16.6L3368.7,2073.5z M3344.6,2138.4
		l18.1-43.6l17.6,43.6H3344.6z"/>
</g>
<g>
	<path class="st0" d="M342.1,1865.6c0.1,19.4-6,38.4-17.4,54.1c-10.2,14.3-24.6,26.7-42.8,37c-31.8,17.9-74,28.1-115.7,28.1
		c-33.3,0-69.4-9-98.4-16.3c-14.2-3.6-32.8-8.2-41.7-8.7v7.1H0v-12.5c0-6.2,2.4-15.2,6-28.8c5.8-21.8,14.6-54.8,14.6-85.4v-12.5
		h26.1v12.5c0,42.9,25.2,115.6,119.5,115.6c30.4,0,57.4-6.2,76.1-17.3c20.9-12.5,31.4-31.2,31.4-55.6c0-39.3-27.5-55-107-94.8
		c-10-5-20.3-10.1-31.3-15.8c-50.4-25.9-81.6-46.4-101.3-66.7c-20.8-21.4-30-43.3-30-71.3c0-29.1,13.6-55.9,38.4-75.5
		c27.6-21.8,67.8-33.4,116.3-33.4c22.8,0,49.5,4.1,73,7.7c18.1,2.8,44.6,6.8,54.4,5.3v-8.5H313v12.5c0,6.1-2.2,13.8-5.6,25.4
		c-6,20.5-15,51.5-15,88.3v12.5h-26.7v-12.5c0-68.4-35-101.7-106.9-101.7c-67.9,0-92.6,37-92.6,61.9c0,28.5,5.7,48.8,117.2,106
		c6.9,3.5,13.9,7,21.3,10.8c30,15,64,32,90,52.3C326.6,1810.2,342.1,1836.5,342.1,1865.6z"/>
</g>
<g>
	<path class="st0" d="M566.5,1525.4c-62.4,0-115.1,22.5-152.3,65c-36.3,41.6-55.6,99.4-55.6,167.3c0,63.6,21,121.5,59,162.9
		c38,41.4,90.9,64.2,148.9,64.2c61.9,0,114.4-22.6,151.9-65.4c36.6-41.8,56-99.7,56-167.4C774.4,1620.7,687,1525.4,566.5,1525.4z
		 M658.8,1916.1c-23.3,24.8-55,39.6-84.8,39.6c-37.2,0-74-19.1-100.8-52.3c-21.8-27-47.8-76.2-47.8-157.3
		c0-132.3,78.2-191.8,133.7-191.8c37.2,0,74,19.1,100.8,52.3c21.8,27,47.8,76.2,47.8,157.3C707.7,1829.4,690.8,1882.1,658.8,1916.1z
		"/>
</g>
<g>
	<path class="st0" d="M1074.4,1639.1v-12.5c0-15.2-12.2-29.6-34.3-40.6c-30.5-15.2-78.5-23.3-138.9-23.6c-3.6,0-8.1,0-9.7,0.5
		c-0.8,1.2-2.7,5.9-3.6,23.7c-0.9,17.3-0.9,43.1-0.9,82.2v83.5c42.8-37.5,124.1-42.9,193.7-42.9h12.5v26.2h-7.5
		c-4.3,8.8-11.4,35.2-11.4,66.5v21.1l-26.1-14.3v-7.4c0-31.6-32-43.5-45.7-47.2c-38.6-10.3-92.4,0-112,34.4l-3.5,6v42.5
		c-0.3,42.8,0.3,68.6,1.9,86.3c1.7,19.3,4.5,24.9,5.5,26.4h12v26.2H802.6v-26.2h11.7c1.1-1.7,3.7-7.6,5.4-26.6
		c1.6-17.6,2.3-43.3,2.3-86.1v-167.9c0-41.3-0.7-66.2-2.3-83.3c-1.7-18.4-4.3-24.2-5.4-25.8h-11.7v-26.2h90.7
		c31,0,57.3,0.1,78.4,0.2c48.5,0.2,80.1,0.3,91.3-1.4v-7.4h26.1v12.5c0,12.3,2.8,28,5.6,43.1c2.9,15.8,5.8,32.1,5.8,45.8v12.5
		L1074.4,1639.1z"/>
</g>
<g>
	<path class="st0" d="M1513,1657.8v12.5h-26.1v-12.5c0-11-7.2-35.3-27.1-57c-16.1-17.5-45.5-38.4-94.1-38.4c-3.8,0-8.9,0-10.4,0.6
		c-0.8,1-2.8,5.3-3.9,23.3c-1,17.1-1.1,42.6-1.1,82.5v168.4c0,42.3,0.6,67.8,2.2,85.2c1.7,19.3,4.3,25.6,5.4,27.5h11.3v26.2h-102.7
		v-26.2h11.6c1.1-1.8,3.6-7.8,5.3-26.7c1.5-17.3,2.3-42.2,2.5-86v-168.4c0-39.9-0.1-65.3-1.1-82.4c-1.1-17.9-3.1-22.4-3.9-23.4
		c-1.5-0.5-6.4-0.5-9.9-0.5c-48.6,0-78.1,20.9-94.3,38.5c-20.1,21.7-27.4,45.9-27.4,56.9v12.5h-26.1v-12.5c0-11.8,3.7-26.7,7.9-44
		c5.7-23.1,12.1-49.3,12.1-76v-12.5h26.1v5.1c6,1.2,19.3,2.8,48,3.5c25.8,0.7,53.5,0.4,70,0.2c4.9,0,8.7-0.1,11.1-0.1h39.4
		c2.4,0,6.3,0,11.4,0.1c16.5,0.2,44.2,0.5,70-0.2c28.7-0.7,41.9-2.3,47.9-3.5v-5.1h26v12.6c0,26.8,6.4,52.9,12.1,76
		C1509.3,1631.1,1513,1645.9,1513,1657.8z"/>
</g>
<g>
	<path class="st0" d="M2162.5,1950h19.7l-13.1,26.2h-97.9V1950h11.7c1.1-1.7,3.7-7.6,5.4-26.6c1.6-17.6,2.3-43.3,2.3-86.1v-37
		c-23.6-3-50.1-17.9-78-33.6c-31.2-17.5-63.5-35.6-89.4-35.6c-19.2,0-33.8,6.2-43.2,18.5c-10.3,13.3-11.1,28.6-11.1,33v58.8
		c-0.3,40.8,0.3,65.6,1.8,82.9c1.6,18.3,4.2,24.1,5.3,25.8h11.7v26.2h-103.3V1950h11.7c1.1-1.7,3.7-7.6,5.4-26.6
		c1.6-17.6,2.3-43.3,2.3-86.1v-167.9c0-41.3-0.7-66.2-2.3-83.3c-1.7-18.4-4.3-24.2-5.4-25.8h-11.7l-0.1-26.2h103.3v26.2H1876
		c-1.1,1.8-3.5,7.6-5.1,25.9c-1.4,16.8-2,40.8-2,82.8v50.1c14.2-11,32.8-17,54.3-17c34.4,0,70.4,21.1,105.2,41.6
		c22.2,13,45,26.4,62.2,30.1v-104.3c0-41.3-0.7-66.2-2.3-83.3c-1.7-18.4-4.3-24.2-5.4-25.8h-11.7V1534h97.9l13.1,26.2h-19.7
		c-1.1,1.6-3.5,7.3-5.1,25.9c-1.6,19-1.9,46.8-1.9,82.8v172.5c-0.3,41.4,0.2,66.2,1.6,82.9C2158.8,1942.9,2161.5,1948.5,2162.5,1950
		z"/>
</g>
<g>
	<path class="st0" d="M2586.4,1949.9c-1.4,0-4,0-10.4-11.3c-7.6-13.4-17.9-38.3-34.5-83.2l-96.5-262.6l-0.7-1.8
		c-2.5-6.6-8-21.3-10.5-30.9h1.7v-26.2h-55.1l-5.2-12l-4.3,12h-15.7v26.2h2.3c-0.3,0.8-0.6,1.8-1,2.8l-44.6,122.3
		c-9.6,26.2-16,50.3-19,72h-7.5l-3.1,8c-15.8,41.2-33.8,87.9-49.3,123.9c-19.7,45.6-28.6,57.6-31.8,60.8h-10v26.2h103.3v-26.2H2282
		c-3.5,0-5-1.2-6.3-3c-8.3-11.7-7.5-53.5,17.8-133.6c2.8,13.9,7.8,26.1,15.1,36.4c15.2,21.7,40.4,34.7,67.5,34.7
		c43.7,0,74.3-28,92-47.2c10.6,29.2,19,53.2,25.1,71.5c7.7,23.4,10.7,35.2,11.7,41.2h-7.4v26.2h101.5v-26.2L2586.4,1949.9z
		 M2455,1813c-13.2,14.8-37.8,42.4-78.9,42.4c-8.6,0-30-2.1-44-22.1c-13-18.5-22.5-57,6-135.5l38.7-107.4c1.3,3.5,2.7,7.1,4.1,11.1
		l57.7,155.8c6.9,18.7,13.3,36.1,19.3,52.3C2457.1,1810.7,2456.1,1811.8,2455,1813z"/>
</g>
<g>
	<path class="st0" d="M2974.9,1949.9c0,0-5.8-1.2-16.1-24c-7.9-17.3-16-41.7-24.6-67.4c-6.5-19.4-13.2-39.5-20.8-59.8
		c-16.8-44.9-38.6-64.1-72.7-64.1h-1c52.2-22,98.8-52.1,99.1-98.8c0-76-93.8-110.6-181-110.6c-13.8,0-31.7,1.7-52.5,3.6
		c-25.9,2.4-55.2,5.1-82.9,5.1H2610l0.1,26.2h11.7c1,1.6,3.7,7.4,5.4,25.8c1.6,17.1,2.3,42,2.3,83.4v171.9c0,41.1-0.7,65.9-2.3,82.9
		c-1.7,18.4-4.4,24.2-5.4,25.8H2610v26.2h103.3v-26.2h-11.7c-1-1.6-3.7-7.4-5.3-25.7c-1.6-17.2-2.1-42-1.8-83v-35.6
		c15.5,5.5,39.1-4,68.1-15.7c20.3-8.2,43.4-17.6,56.5-17.6h0.3c12.4,0.3,15.2,5.1,26.3,34.5c1.1,2.8,2.2,5.7,3.3,8.8
		c13.6,36.6,26.4,71.5,34.2,96.7c6.9,22.3,8.5,32.8,8.6,37.6h-7.6v26.2h103.3v-26.2L2974.9,1949.9z M2747.4,1737.2
		c-17.3,5.9-32.3,11.1-43.8,16.9c-3.2,1.5-6.3,3.3-9.2,5.3v-170.8c0-22.2,8.9-34.2,56-34.2c37.6,0,68.4,7,89.1,20.1
		c22,14,32.6,34.5,32.6,62.5c-0.1,25-13.2,45.7-39.9,63.3C2807.3,1716.7,2775.5,1727.6,2747.4,1737.2z"/>
</g>
<g>
	<path class="st0" d="M3466,1662.5v178.8c0,41.1,0.7,65.9,2.3,82.9c1.7,18.4,4.3,24.2,5.4,25.8h11.7v26.2h-97.9l-13.1-26.2h19.5
		c1-1.6,3.7-7.4,5.3-25.7c1.6-17.2,2.1-42,1.8-82.9v-111.6c-5.2,27.4-11.6,55-19.2,81.2c-14.8,50.6-32.5,90.9-52.8,119.7
		c-25.4,36-54.7,54.2-87.4,54.2c-17.9,0-36.5-2.8-51.1-22.8c-10.6-14.5-18.5-36-32.2-78.8l-84-262.4c1,133.3,3.5,209.1,8.5,258.9
		c6.8,68.3,17.5,70.2,17.6,70.2h12.6v26.2h-103.2v-26.2h12.5c0.1,0,0.5,0,1.4-0.9c5.9-5.9,13.9-26.6,18.8-91.7
		c4.1-54.3,5.8-133.1,5.6-255.4v-40.4c-3.8-1-7.7-1.5-11.6-1.3h-7.7l-13.1-26.2h111.5v25.2c2.2,10.7,7.1,28.8,12.5,45.9l86.3,271.8
		c10,31.5,17.6,51.1,23.9,61.5c5,8.3,7.3,8.3,8.8,8.3c19.9,0,37.6-20.1,49-37c16-23.8,31.5-58.7,44.9-101
		c24.4-77.6,40.2-174.9,40.4-248.5h-12.6v-26.2h105v26.2h-12.2c-0.9,1.7-3.1,7-4.6,23S3466.2,1623.7,3466,1662.5z"/>
</g>
<g>
	<path class="st0" d="M3721.4,1525.4c-62.4,0-115.1,22.5-152.3,65c-36.4,41.5-55.6,99.4-55.6,167.3c0,63.6,20.9,121.5,59,162.9
		c38.1,41.4,90.9,64.2,148.9,64.2c61.9,0,114.4-22.6,151.9-65.4c36.6-41.8,56-99.7,56-167.4
		C3929.3,1620.7,3841.9,1525.4,3721.4,1525.4z M3813.7,1916.1c-23.3,24.8-55,39.6-84.8,39.6c-37.2,0-74-19.1-100.8-52.3
		c-21.8-27-47.8-76.2-47.8-157.3c0-132.3,78.2-191.8,133.7-191.8c37.2,0,74,19.1,100.8,52.3c21.8,27,47.8,76.2,47.8,157.3
		C3862.6,1829.4,3845.7,1882.1,3813.7,1916.1z"/>
</g>
<g>
	<path class="st0" d="M4344.6,1791.7c0,22.2-2,65.3-15.2,105.1c-19.2,57.6-55.6,88-105.3,88c-47.1,0-78.7-16.3-102.5-52.9
		c-21.6-33.1-35.8-80.6-55.4-146.4l-0.9-2.9l-49.1-161.1c1,132.9,3.5,208.5,8.5,258.2c6.8,68.3,17.5,70.2,17.6,70.2h12.5v26.2
		h-103.3v-26.2h12.5c0.1,0,0.5,0,1.4-0.9c5.9-5.9,13.9-26.6,18.8-91.7c4.1-54.3,5.8-133.1,5.6-255.4v-40.6
		c-3.7-0.9-7.6-1.3-11.4-1.1h-7.7l-13.1-26.2h111.5v26.2h-2.8c0.4,5.5,1.4,11,2.9,16.3l52.6,174.2c26,86,48,139.4,69.1,168
		c17.2,23.3,31.9,27.9,51.5,27.9c24.2,0,43.1-16.6,56.1-49.4c10.9-27.3,17.1-65.8,17.1-105.4c0-74.9-16.9-134.3-26.9-163
		c-7.3-20.9-15.5-38.7-23.8-51.5c-9.6-14.9-15.2-16.9-15.8-17.1h-12.4v-26.2h103.8v26.2h-12.5c-1-0.1-2.1,0.1-3.1,0.4
		c-0.3,0.4-2,3.3-1.4,15c0.6,10.8,2.9,25.3,5.7,43.7C4335.8,1660.3,4344.6,1716.5,4344.6,1791.7z"/>
</g>
<g>
	<path class="st0" d="M4767.3,1533.9v26.2H4756c-8.4,3.9-36.7,33.5-73.5,87c-39.4,57.4-72.5,119-90.8,169.1l-3,8.2
		c1,10.7,1.5,21.3,1.5,31.9c0,33.3,0.7,53.9,2.2,69c1.8,17.1,4.4,22.9,5.5,24.7h11.2v26.2h-97.9l-13.1-26.2h19.2
		c1.1-1.6,3.9-7.1,5.7-24.6c1.6-14.9,2.2-35.6,2.2-69.2c0-54.6-24.2-126-66.5-196.1c-17-28.2-35.9-54.3-53.3-73.3
		c-19.6-21.5-30.4-26.7-32.9-26.8H4360v-13.7v-12.5h103.3v21.9c3.7,5.5,9.3,13,14.5,19.9c18.6,24.8,46.6,62.3,70,109.7
		c14.1,28.3,25,58,32.5,88.8c14.8-34.9,32.6-70.6,48.7-103c14-28.2,27.3-54.8,36-75.8c9.2-22.3,10.4-31.7,10.4-35.3H4664v-26.2
		L4767.3,1533.9z"/>
</g>
<path class="st0" d="M2128.9,935.7c-11.3,56.5-35.2,107.4-71.1,151.4c-4.1,5-8.6,9.9-12.9,14.6l-3,3.3c-4-3.1-8-6.3-11.9-9.6
	c7.4-4.7,14.5-9.9,21.4-15.3c17.1-14,28.1-33.5,34.6-61.2c7.3-31.5,1.1-61.2-5.9-86.1c-9.9-34.8-25.7-69.7-51.1-113
	c-23.4-39.7-47.4-80-70.7-118.8c-6.5-10.9-13-21.8-19.5-32.6c-16.8-28.3-27.6-60-31.8-94.4c-12.6-102.5,40.4-203.1,131.8-250.5
	c19-9.7,39-17,59.8-21.9c-2.1,11.8-4.2,23.8-6.2,35.6c-5.7,33.4-11.5,66.9-17.2,100.4l-0.4,2.6c-1.1,6.2-2.1,12.4-3.2,18.7
	c-4.2,24.3-8.6,49.4-12.6,74.2c-1.1,7.1-2.4,14.3-3.6,21.3c-3.8,22.5-7.8,45.8-10.1,68.9c-3.8,37.1,1,74.8,14.7,115.3
	c10.5,30.9,27.5,61.1,53.5,95.1c7.8,10.4,15.9,21.2,24,31.7l0.1,0.1c2.4,2.9,3.3,6.8,2.5,10.5v0.2c-1.9,9.4-3.6,19-5.2,28.3
	C2132.9,914.5,2131,925.2,2128.9,935.7z"/>
<path class="st0" d="M2028,1064.5c-6,5-12.7,8.9-20,11.7c-6-5.5-11.9-11.2-17.7-17c-51.9-51.9-93.3-113.3-121.9-180.9
	c-75-177.1-55.2-380.2,52.5-539.5c61.8-91.5,148.7-163.1,250.4-206.2c141.6-59.6,301.3-59.6,442.9,0c13.5,5.7,26.7,11.9,39.7,18.7
	c-17.8,21.2-41.3,39.7-73.3,58c-40.5,23.3-85.2,38.5-131.5,44.9c-21.4,3-43.5,4.1-64.8,5.2l-7.6,0.4c-30.2,1.6-61,2.6-90.8,3.6h-0.4
	c-18,0.5-36.2,1-53.9,1.5c-26.5,0.7-53.9,1.4-80.8,2.3c-82.5,3-151.4,34.7-204.7,94.3c-34,38-55.8,82.9-64.8,133.5
	c-11.7,65.4-0.8,127.7,32.3,185.3c13.7,23.8,28.2,47.6,42.2,70.6c8.2,13.4,16.6,27.3,24.8,41c21,35.3,43,73.2,60.2,113.7
	c11.6,27.3,18,52,19.6,75.5C2062.7,1016.5,2052.2,1043.8,2028,1064.5z"/>
<path class="st0" d="M2461,847.4L2461,847.4l-0.1-0.1l-0.7-0.9c-5.8-7-11.8-14.3-18-21c-6.2-6.7-14.1-9.3-23-7
	c-6.3,1.6-12.7,3.9-18.9,6.1l-1.5,0.5c-9.8,3.4-18.6,1.8-26.4-4.8c-2.8-2.4-5.8-4.8-8.6-7.1l-3.1-2.5l-0.1-0.1
	c-5.5-4.8-11.3-7-19.9-7.4l-2,0.6c-3.7,1-7.3,2.3-10.8,4c-6.9,3.6-13.8,7.8-20.5,11.8l-0.9,0.5l-0.1,0h0l0,0l5.6,0.8
	c5.1,0.8,10.4,1.5,15.6,2.4c16.2,2.9,29,11.3,39.4,19.1c11.3,8.5,22.4,10,34.7,4.7c10.9-4.7,21.8-6.2,32.3-4.4
	c7.1,1.2,14.3,2.5,21.3,3.7L2461,847.4L2461,847.4z M2464.3,873.1c-4.7-0.7-9.5-1.5-14.2-2.7c-18.2-4.4-34.2-3.6-49,2.5
	c-6.6,2.8-14.2,3.2-23.3,1.5c-9.6-1.9-17.1-7-24.3-11.8l-2.5-1.7l-2.8-1.9c-5.2-3.6-10.6-7.3-15.9-8.7c-11.2-2.9-23-4.9-34.4-6.7
	l-5.4-0.9c6.3,8.2,12.7,16.4,19.1,24.5c5,6.4,9.5,12,13.8,17.2c8.1,9.8,17.9,15.6,30,17.6c10.9,1.7,21.9,3.7,32.5,5.6l8.2,1.4
	c8.1-0.7,14.3-1.8,19.8-5.1c13.7-8.2,27.5-16.6,40.9-24.7l9.4-5.7L2464.3,873.1z M2464.3,873.1c-4.7-0.7-9.5-1.5-14.2-2.7
	c-18.2-4.4-34.2-3.6-49,2.5c-6.6,2.8-14.2,3.2-23.3,1.5c-9.6-1.9-17.1-7-24.3-11.8l-2.5-1.7l-2.8-1.9c-5.2-3.6-10.6-7.3-15.9-8.7
	c-11.2-2.9-23-4.9-34.4-6.7l-5.4-0.9c6.3,8.2,12.7,16.4,19.1,24.5c5,6.4,9.5,12,13.8,17.2c8.1,9.8,17.9,15.6,30,17.6
	c10.9,1.7,21.9,3.7,32.5,5.6l8.2,1.4c8.1-0.7,14.3-1.8,19.8-5.1c13.7-8.2,27.5-16.6,40.9-24.7l9.4-5.7L2464.3,873.1z M2461,847.4
	L2461,847.4l-0.1-0.1l-0.7-0.9c-5.8-7-11.8-14.3-18-21c-6.2-6.7-14.1-9.3-23-7c-6.3,1.6-12.7,3.9-18.9,6.1l-1.5,0.5
	c-9.8,3.4-18.6,1.8-26.4-4.8c-2.8-2.4-5.8-4.8-8.6-7.1l-3.1-2.5l-0.1-0.1c-5.5-4.8-11.3-7-19.9-7.4l-2,0.6c-3.7,1-7.3,2.3-10.8,4
	c-6.9,3.6-13.8,7.8-20.5,11.8l-0.9,0.5l-0.1,0h0l0,0l5.6,0.8c5.1,0.8,10.4,1.5,15.6,2.4c16.2,2.9,29,11.3,39.4,19.1
	c11.3,8.5,22.4,10,34.7,4.7c10.9-4.7,21.8-6.2,32.3-4.4c7.1,1.2,14.3,2.5,21.3,3.7L2461,847.4L2461,847.4z M2461,847.4L2461,847.4
	l-0.1-0.1l-0.7-0.9c-5.8-7-11.8-14.3-18-21c-6.2-6.7-14.1-9.3-23-7c-6.3,1.6-12.7,3.9-18.9,6.1l-1.5,0.5c-9.8,3.4-18.6,1.8-26.4-4.8
	c-2.8-2.4-5.8-4.8-8.6-7.1l-3.1-2.5l-0.1-0.1c-5.5-4.8-11.3-7-19.9-7.4l-2,0.6c-3.7,1-7.3,2.3-10.8,4c-6.9,3.6-13.8,7.8-20.5,11.8
	l-0.9,0.5l-0.1,0h0l0,0l5.6,0.8c5.1,0.8,10.4,1.5,15.6,2.4c16.2,2.9,29,11.3,39.4,19.1c11.3,8.5,22.4,10,34.7,4.7
	c10.9-4.7,21.8-6.2,32.3-4.4c7.1,1.2,14.3,2.5,21.3,3.7L2461,847.4L2461,847.4z M2464.3,873.1c-4.7-0.7-9.5-1.5-14.2-2.7
	c-18.2-4.4-34.2-3.6-49,2.5c-6.6,2.8-14.2,3.2-23.3,1.5c-9.6-1.9-17.1-7-24.3-11.8l-2.5-1.7l-2.8-1.9c-5.2-3.6-10.6-7.3-15.9-8.7
	c-11.2-2.9-23-4.9-34.4-6.7l-5.4-0.9c6.3,8.2,12.7,16.4,19.1,24.5c5,6.4,9.5,12,13.8,17.2c8.1,9.8,17.9,15.6,30,17.6
	c10.9,1.7,21.9,3.7,32.5,5.6l8.2,1.4c8.1-0.7,14.3-1.8,19.8-5.1c13.7-8.2,27.5-16.6,40.9-24.7l9.4-5.7L2464.3,873.1z M2464.3,873.1
	c-4.7-0.7-9.5-1.5-14.2-2.7c-18.2-4.4-34.2-3.6-49,2.5c-6.6,2.8-14.2,3.2-23.3,1.5c-9.6-1.9-17.1-7-24.3-11.8l-2.5-1.7l-2.8-1.9
	c-5.2-3.6-10.6-7.3-15.9-8.7c-11.2-2.9-23-4.9-34.4-6.7l-5.4-0.9c6.3,8.2,12.7,16.4,19.1,24.5c5,6.4,9.5,12,13.8,17.2
	c8.1,9.8,17.9,15.6,30,17.6c10.9,1.7,21.9,3.7,32.5,5.6l8.2,1.4c8.1-0.7,14.3-1.8,19.8-5.1c13.7-8.2,27.5-16.6,40.9-24.7l9.4-5.7
	L2464.3,873.1z M2461.1,847.3l-0.8-1c-5.8-7-11.8-14.3-18-21c-0.7-0.8-1.5-1.5-2.3-2.2c0,0,0,0,0,0c-0.4-0.3-0.8-0.7-1.2-1
	c0,0,0,0,0,0c-1.4-1.1-2.9-2-4.4-2.7c-0.7-0.3-1.3-0.6-2-0.8c-4-1.4-8.4-1.5-13.1-0.3c-3.1,0.8-6.3,1.8-9.5,2.8
	c-2.4,0.8-4.8,1.6-7.1,2.4c-0.8,0.3-1.6,0.6-2.3,0.8l-1.5,0.5c0,0,0,0,0,0c-6.2,2.2-11.9,2.3-17.3,0.5c-2.4-0.8-4.7-2-6.9-3.6
	c-0.7-0.5-1.4-1.1-2.2-1.7c-2.8-2.4-5.8-4.8-8.6-7.1l-3.1-2.6l-0.1-0.1c-0.4-0.3-0.8-0.7-1.2-1c-0.8-0.6-1.6-1.2-2.4-1.7
	c-0.8-0.5-1.6-1-2.5-1.4c-1.3-0.7-2.6-1.2-4-1.6c-2.9-0.9-6.1-1.5-9.9-1.6l-2,0.6c-1.4,0.4-2.8,0.8-4.1,1.3c-1.7,0.6-3.4,1.2-5,2
	c-0.5,0.3-1.1,0.5-1.6,0.8c-6.9,3.6-13.8,7.8-20.5,11.8l-1,0.6l0,0l0,0h0l5.6,0.8c0,0,0,0,0,0c2.6,0.3,5.1,0.7,7.8,1.1
	c2.6,0.4,5.2,0.8,7.8,1.3h0c16.2,2.9,29,11.3,39.4,19.1c11.3,8.5,22.4,10,34.7,4.7c10.9-4.7,21.8-6.2,32.3-4.4
	c7.1,1.2,14.3,2.5,21.3,3.7l5.6,1L2461.1,847.3L2461.1,847.3L2461.1,847.3z M2461,847.4l0.1,0L2461,847.4L2461,847.4l-0.7-1
	c-5.8-7-11.8-14.3-18-21c-6.2-6.7-14.1-9.3-23-7c-6.3,1.6-12.7,3.9-18.9,6.1l-1.5,0.5c-9.8,3.4-18.6,1.8-26.4-4.8
	c-2.8-2.4-5.8-4.8-8.6-7.1l-3.1-2.6l-0.1-0.1c-5.5-4.8-11.3-7-19.9-7.4l-2,0.6c-3.7,1-7.3,2.3-10.8,4c-6.9,3.6-13.8,7.8-20.5,11.8
	l-1,0.6l0,0l0,0h0l0,0l0,0l5.6,0.8c5.1,0.8,10.4,1.5,15.6,2.4c16.2,2.9,29,11.3,39.4,19.1c11.3,8.5,22.4,10,34.7,4.7
	c10.9-4.7,21.8-6.2,32.3-4.4c7.1,1.2,14.3,2.5,21.3,3.7l5.7,1L2461,847.4L2461,847.4L2461,847.4z M2464.3,873.1
	c-4.6-0.7-9.5-1.5-14.2-2.7c0,0,0,0,0,0c-16.2-4-30.7-3.8-44.1,0.7c-0.8,0.3-1.6,0.5-2.4,0.8h0c-0.8,0.3-1.6,0.6-2.4,1
	c-0.5,0.2-1,0.4-1.5,0.6c-6.2,2.2-13.4,2.5-21.8,0.9c-1.8-0.4-3.5-0.8-5.2-1.4c-4.5-1.5-8.6-3.7-12.4-6c-1.5-1-3-1.9-4.5-2.9
	c0,0,0,0,0,0c-0.7-0.5-1.5-1-2.2-1.5l-2.5-1.6l-2.8-1.9c-5.2-3.6-10.6-7.3-15.9-8.7c-11.2-2.9-23-4.9-34.4-6.7l-5.4-0.9
	c6.3,8.2,12.7,16.4,19.1,24.5c5,6.4,9.5,12,13.8,17.2c8.1,9.8,17.9,15.6,30,17.6c10.9,1.7,21.9,3.7,32.5,5.6l8.2,1.4
	c8.1-0.7,14.3-1.8,19.8-5.1c13.7-8.2,27.5-16.6,40.9-24.7l9.4-5.7L2464.3,873.1z M2651.3,689.3c0.1,0.4,0.3,0.7,0.4,1.1l0,0
	C2651.7,690.4,2651.6,690,2651.3,689.3z M2464.3,873.1c-4.6-0.7-9.5-1.5-14.2-2.7c0,0,0,0,0,0c-16.2-4-30.7-3.8-44.1,0.7
	c-0.8,0.3-1.6,0.5-2.4,0.8h0c-0.8,0.3-1.6,0.6-2.4,1c-0.5,0.2-1,0.4-1.5,0.6c-6.2,2.2-13.4,2.5-21.8,0.9c-1.8-0.4-3.5-0.8-5.2-1.4
	c-4.5-1.5-8.6-3.7-12.4-6c-1.5-1-3-1.9-4.5-2.9c0,0,0,0,0,0c-0.7-0.5-1.5-1-2.2-1.5l-2.5-1.6l-2.8-1.9c-5.2-3.6-10.6-7.3-15.9-8.7
	c-11.2-2.9-23-4.9-34.4-6.7l-5.4-0.9c6.3,8.2,12.7,16.4,19.1,24.5c5,6.4,9.5,12,13.8,17.2c8.1,9.8,17.9,15.6,30,17.6
	c10.9,1.7,21.9,3.7,32.5,5.6l8.2,1.4c8.1-0.7,14.3-1.8,19.8-5.1c13.7-8.2,27.5-16.6,40.9-24.7l9.4-5.7L2464.3,873.1z M2312,820.9
	c5.1,0.8,10.4,1.5,15.6,2.4c16.2,2.9,29,11.3,39.4,19.1c11.3,8.5,22.4,10,34.7,4.7c10.9-4.7,21.8-6.2,32.3-4.4
	c7.1,1.2,14.3,2.5,21.3,3.7l5.7,1l0-0.1l0,0l-0.1-0.1l0.1,0l0,0h0l-0.8-1c-5.8-7-11.8-14.3-18-21c-6.2-6.7-14.1-9.3-23-7
	c-6.3,1.6-12.7,3.9-18.9,6.1l-1.5,0.5c-9.8,3.4-18.6,1.8-26.4-4.8c-2.8-2.4-5.8-4.8-8.6-7.1l-3.1-2.6l-0.1-0.1
	c-5.5-4.8-11.3-7-19.9-7.4l-2,0.6c-3.7,1-7.3,2.3-10.8,4c-6.9,3.6-13.8,7.8-20.5,11.8l-1,0.6l0,0l0,0h0l0,0l0,0L2312,820.9z
	 M2850.4,537c-5.7-27.7-12.5-50.2-21.3-70c-3.5,18.1-6.5,34.2-9.2,49.2c-3,16.6-6,33.2-9,49.8c-4.9,27.3-9.9,55.5-15.1,83.2
	c-6.3,33.8-12.6,66.8-19.8,100.3c-3.1,14.2-6.4,28.9-4.7,44.2c1,9,1.4,18.2,1.7,27.1c0.2,4.1,0.3,8.3,0.6,12.4
	c0.4,8.3-3.6,12.3-7.1,14.2c-4,2.4-9,2.6-13.1,0.4c-4.5-2.4-7.4-7.3-7.9-13.4c-0.7-10.5-1.3-21.2-1.9-31.6l-0.1-1.4l-5.4-95.6
	c-0.4-6.4-0.8-13-1.2-19.4c-7.1,6.7-11.1,13.8-12.5,21.9c-0.4,2-0.6,4.1-0.8,6.4c-0.3,2.6-0.6,5.3-1.1,7.9
	c-1,6.6-6.7,11.4-13.4,11.4c-7.3,0-12.7-4.9-13.2-11.9c-0.4-5.8-0.7-13.2,1-20.3c6.6-26.4,22.8-43.8,47.9-51.8
	c4.7-1.5,8.7-1.3,12.1,0.7c3.3,2,5.7,5.7,6.6,10.8v0.1c0.1,0.9,0.3,1.8,0.4,2.7c4.3-24.2,8.6-48.4,12.8-72l3-16.9
	c8.9-50.3,17.5-100.2,25.8-148.2c0.5-3,0.1-6.6-0.8-8c-1.9-2.8-3.8-5.5-5.7-8.3c-10.3-15-21-30.4-32.7-44.5
	c-15.1-18.1-31.4-35.8-47.1-52.9c-5-5.4-9.9-10.9-14.9-16.3c-16.8-18.5-34-37.2-50.6-55.3c-8.5-9.2-16.9-18.5-25.4-27.7
	c-0.5-0.6-1.1-1.2-1.8-1.6c-0.8,0.3-1.5,0.7-2.2,1.2l-3.1,2.1c-3.9,2.6-7.9,5.4-12,7.9c-61.9,39.1-135.4,60-224.4,64
	c-16.9,0.8-34.1,1.2-50.6,1.6c-9.2,0.2-18.7,0.5-28,0.8c-35.9,1.1-73.1,2.2-109.8,3.2c-20.9,0.6-42,1.5-62.6,2.4
	c-5.1,0.2-5.1,0.2-6,6.2c-2.4,16.7-5.4,36.5-8.7,56.2c-5.1,30.1-10.5,60.6-15.7,90.1c-2.3,13.2-4.7,26.5-7.1,39.5
	c-4.1,22.9-8.4,46.6-12.3,70c-3.9,23.6-7.9,48-10,72.3c-2.8,33.4,2.1,67.5,15.1,104.2c10.8,30.5,28.5,56.4,44.4,77.6
	c44.7,59.4,90,119.5,133.7,177.7c6.8,8.8,14.3,17.1,22.4,24.7c12,11.1,27.9,15.2,42,17.8l8.5,1.5c13.4,2.5,27.3,5,40.9,6.4
	c18.4,1.8,36.7-3.6,57.4-17c12.6-8.2,25.2-16.3,37.8-24.5c16.4-10.7,33.4-21.8,50.2-32.6l5.7-3.7c13.1-8.4,26.7-17.1,38-28
	c6.6-6.4,14.5-6.6,20.5-0.7c2.7,2.5,4.2,6.1,4.2,9.8c0,3.9-1.8,7.6-5.2,10.9l-4,3.9c-6,5.9-12.2,12-18.8,17.4
	c-23.6,19.1-40.5,39.4-51.7,61.9c-3.1,6.2-6.6,12-10.3,18c-4,6.4-11.2,8.5-17.8,5.2c-6.6-3.2-9.5-10.4-6.9-17.6v-0.1
	c1.2-3.3,2.6-6.5,4.2-9.6c1.5-2.8,3.1-5.7,4.8-8.9c-4.5,2.9-9,5.8-13.3,8.7c-7.5,4.9-15.2,9.9-22.9,14.8
	c-26.8,16.9-53,23.7-80.1,20.8c-14.3-1.5-28.6-4.1-42.5-6.5l-3.7-0.7c-30.8-5.5-55.9-20.4-74.5-44.4c-13.2-17-26.4-34.4-39.1-51.3
	l-14.7-19.5c-12-15.9-23.4-30.7-34.6-45.3c-1.6,7.4-3,14.2-4.3,20.8c-5.5,27.2-11.1,53.7-20.5,79.1c-16.3,44.9-41.6,86.1-74.2,121
	c3.3,2.3,6.6,4.6,9.9,6.8c93.9,63.5,204.7,97.3,318.1,97.2c24.3,0,48.5-1.5,72.6-4.6c-1.1-6.8-2.2-13.5-3.2-20.2
	c-3.5-24.6-4.3-49.4-2.2-74.1c0.3-3.2,1.1-6.2,2.5-9.1c2.4-5.3,7.3-8,13.4-7.4c5.6,0.4,10.2,4.3,11.6,9.7c0.8,2.8,1.1,5.6,1.1,8.5
	c-0.1,2.9-0.3,5.8-0.6,8.6c-0.5,4.7-0.7,9.5-0.4,14.3c1,13.5,2.2,27.2,3.3,40.4c0.7,8.2,1.5,16.7,2.1,25.1
	c30.3-5.4,60.2-13.3,89.2-23.6c1.3-7.1,3.3-14.4,8.2-21.2c18.7-25.9,37.6-52.4,56-77.9c18.4-25.6,37.2-51.8,55.8-77.7
	c17.5-24.2,24.8-51.5,21.8-81.1c-0.8-7.5-2.8-14.8-4.9-22.6c-1-3.7-2.1-7.5-3-11.3c-13.9-60.1-33.7-119.7-52.9-177.3
	c-3.8-11.3-7.5-22.7-11.3-34c0,0,0,0,0,0l-0.4,0.5c-8.9,11.1-12.1,23.2-9.9,36.9c0.1,0.6,0.2,1.3,0.4,1.9c0.6,2.9,1.2,6.3,0.5,9.7
	c-0.9,4-4.3,8.8-8.5,10.2c-4.3,1.4-9.5,0.1-12.8-1.8c-3.6-2.1-5.3-6.5-6.2-9.8c-3.3-11.9-3.3-24.6,0-36.5
	c5.5-20.3,17.6-35.7,36-45.7c4.9-2.7,9.1-3.3,12.9-2c3.8,1.3,6.7,4.6,9,10c0.4,1,0.7,1.9,1,2.9c0.1,0.3,0.2,0.6,0.3,1
	c3.6,10.8,7.2,21.8,10.8,32.7l10.2,31.5l2,5.9c16.6,50.3,33.9,102.4,46.2,155c1.8,7.7,3.9,15.4,6,23c29.3-55.6,58.7-111.2,88-166.8
	c-8.8-1.7-18.9,3.1-23.9,11.5c-2.6,4.4-5.1,9-7.5,13.5c-1.9,3.6-3.9,7.2-6,10.8c-5.8,10.2-14.1,10.5-20,7.3
	c-3.6-1.8-6.3-5.1-7.1-9.1c-0.7-3.6,0-7.5,2.2-11.7c0.8-1.5,1.6-3,2.4-4.5c3.4-6.4,6.9-13,10.8-19.4c3-4.9,6.6-9.5,10.8-13.6
	c10.1-9.7,23-14.1,38.7-13.1c1.1,0.1,3.2,0.2,3.7-0.1c0.3-0.4,0.5-0.8,0.6-1.3c10-35.3,15.1-68.9,15.8-102.7
	C2858.2,589.9,2855.8,563.2,2850.4,537z M2481.4,1099.6L2481.4,1099.6l-0.2,0c-7.9,0-14.3-6.3-14.5-14.1c-0.1-3.6,1.3-7,3.8-9.6
	c2.7-2.8,6.4-4.4,10.3-4.5c3.7-0.1,7.3,1.3,10,3.9c2.8,2.6,4.3,6.1,4.4,9.9C2495.1,1092.9,2489.1,1099.2,2481.4,1099.6z
	 M2537.7,443.6c8.3-12.1,19.6-21.8,32.8-28.1c18.3-9.1,41.9-13.6,66.4-12.7c38.5-1,76.3,12.2,111.5,26.5c2.2,0.9,4.3,1.8,6.5,2.6
	c3.1,1.2,6.3,2.5,9.4,3.8c8.1,3.5,11.7,10.8,8.9,18.1c-2.9,7.5-10.8,10.6-19.2,7.5c-6.5-2.4-13-4.8-19.3-7.3
	c-12.2-4.7-24.9-9.5-37.4-13.6c-24.8-8.1-51.9-11.2-80.5-9.3c-23.1,1.6-41,10.3-55,26.4l-0.1,0.1l-0.6,0.7c-0.8,0.9-1.6,1.8-2.5,2.6
	c-2.7,2.8-6.3,4.4-10.2,4.5c-3,0-5.8-1.1-8.1-3C2533.9,457.3,2533,450.4,2537.7,443.6z M2386.6,727.8L2386.6,727.8
	c12.4,9.6,25.8,10.9,41,4c1-0.5,2-1,3.2-1.6c1.6-0.9,3.3-1.8,5-2.5c7.6-3.2,14.8-0.9,18.7,5.9c3.8,6.8,1.4,15.4-5.3,19.4
	c-5.4,3.2-11.1,5.9-17,8.1h-0.2c-4.2,1.3-8.4,2.3-12.8,3c-2.3,0.4-4.4,0.9-6.5,1.3l-0.7,0.2h-0.7c-24.5-1.2-44.1-10.8-58.3-28.5
	c-5.5-6.9-5.4-14.9,0.3-20.4c5.7-5.5,13.4-5.6,20.4,0.2c1.5,1.3,3,2.6,4.4,3.8C2381,723.2,2383.7,725.6,2386.6,727.8z M2160.7,331.2
	L2160.7,331.2l0.2,0c4.5-0.9,9-1.5,13.6-1.8c5.1-0.3,10.3-0.5,15.4-0.8l7.1-0.3h0.1c38.5-0.8,72.5,4.4,104.1,15.8
	c28.8,10.4,49.4,25.4,62.8,46c4.6,7,7.6,14.9,10.5,22.5l0.4,1.2c1.5,3.6,1.4,7.7-0.2,11.3c-2.7,4.9-7.8,7.9-13.3,8
	c-5,0-10.1-2.8-12.6-10.7c-6.4-20.2-20.4-34.7-43.8-45.6c-22.9-10.8-47.8-16.8-73.1-17.7c-13.1-0.5-26.4-0.6-39.2-0.7
	c-7.5,0-15.3-0.1-23-0.2h-0.3c-2.9,0-5.9-0.3-8.7-1c-6-1.5-9.7-6.4-9.7-12.9S2154.6,332.5,2160.7,331.2z M2177.1,530.3L2177.1,530.3
	c-5.5,3.7-12.7,7-20-0.4c-5.6-5.9-5.5-13.3,0.1-19c6.4-6.4,14.1-10.9,24.4-14.2c0.3-0.1,0.7-0.2,1-0.4c-0.3-0.3-0.6-0.6-1-0.9
	c-6.7-4.9-14.7-7.8-23-8.1c-7,1.6-14.3,3.1-21.6,4.8c-8.6,1.9-14.8-1.5-17.4-9.6c-2.2-6.9,0.5-13,6.8-15.5
	c30.9-12.7,57.6-8.9,79.3,11.4c2.1,2,4.3,4,6.4,6.1c7.3,7,14.9,14.3,23.1,19.9c26.2,18,55.6,23.2,87.4,15.3
	c3.6-0.9,7.3-1.6,10.9-1.9c7.8-0.7,13.3,3.3,15,10.7c1.7,7.4-2.4,13.7-9.7,15.5c-3.3,0.8-6.6,1.8-9.9,2.7c-9.3,2.7-19,5.5-28.9,5.5
	h-0.7c-30.6-0.4-57.1-8.1-78.7-22.8C2206.3,519.7,2192.4,519.9,2177.1,530.3z M2505.1,878.3c-22.7,14.3-46.2,29.2-69.5,43.4
	c-12.4,7.6-25.3,11-41.5,11h-1.7l-0.4-0.1c-8.5-1.5-19.7-3.4-30.9-5.4c-1.8-0.3-3.7-0.6-5.5-0.9c-4.8-0.7-9.6-1.7-14.4-2.9
	c-19-5.1-31.4-18.6-40.2-29.8l-0.2-0.2c-14.2-18.2-28.8-37.1-43.3-55.6c-5.1-6.5-7.9-11.6-6.2-16.7c1.7-5.1,6.9-7.4,14.3-9.4
	c13.4-3.6,25.3-10.7,35.4-17.1l1.9-1.2c9.5-6.1,19.4-12.3,31.6-14.2c17.3-2.6,31.4,1.6,42.1,12.6c8.3,8.5,16.8,10.2,27.5,5.5
	c22.8-10.1,44.4-4.4,61,15.9c14.1,17.2,27.7,31.3,41.7,43.1c4.4,3.7,6.3,7.4,6.1,11.4l0,0C2512.6,871.8,2510.1,875.2,2505.1,878.3z
	 M2661.3,822c9.3,14.6,16.1,26.8,21.3,38.1c3.1,6.8,5.1,15.5,5.8,25.7c1,15.8,1.5,31.8,2,47.2c0.1,4.6,0.3,9.2,0.5,13.8h0.6v7.6
	c0,1.9,0.1,3.8-0.1,5.9c-0.5,8.8-6,14.4-13.9,14.4s-13.7-5.9-14.2-14.4c-0.5-9.2-0.9-18.4-1.3-27.4c-0.2-4.4-0.4-8.9-0.6-13.3
	c-0.2-3.6-0.3-7.2-0.5-10.8c-0.4-10.4-0.9-21.1-1.5-31.6v-0.1c-0.1-1.7-0.6-3.4-1.4-4.9c-4.2-7-8.3-14.2-12.4-21.1
	c-15.8-27.2-32.2-55.4-51.2-81.2c-0.2-0.3-0.4-0.5-0.6-0.8c-0.2,0.3-0.3,0.6-0.5,0.9c-3.1,7.6-2.6,15.5,1.7,24.2
	c3.3,6.9,6.7,13.9,10.1,20.7c8.3,17,16.9,34.6,25,52.1v0.1c3.1,7,4.8,14.6,4.9,22.2c0.6,14.5,0.5,29.8-0.3,46.5
	c-0.3,6-2.3,11.8-5.8,16.7l-2,2.8c-19.6,27.3-39.9,55.5-56.9,85.1c-8.3,14.5-15.1,29.8-20.4,45.7c-1.2,3.5-3.1,7.9-6.7,10.4
	c-2.7,1.8-5.9,2.7-9.1,2.7c-1.4,0-2.8-0.2-4.2-0.7c-4.3-1.6-8.1-6.8-8.4-11.2c-0.3-5.4,1.1-10.9,2.5-15.1
	c6.7-21.9,18.1-41.1,28.3-57c14.3-22,29.5-44,44.2-65.2l5.8-8.3c2.7-3.9,4.4-7.4,4.4-11.9c0-6.4,0.1-12.9,0.2-19.1
	c0.1-7,0.3-14.2,0.2-21.2c0-3.5-0.8-7-2.3-10.1c-7.7-16.3-15.8-32.9-23.6-48.9c-4-8.2-8-16.3-11.9-24.5c-12.1-25-6.4-52.8,14.2-69.2
	c3.5-2.8,8.3-6,13.7-5.2c5.5,0.9,8.9,5.3,11.1,8.6C2629.4,772.5,2646.3,798.4,2661.3,822z M2685.5,621.9L2685.5,621.9
	c-1-1.2-2-2.5-2.9-3.7c-1.4-1.9-2.9-3.7-4.6-5.4c-8.4-8.6-18.7-11.7-30.4-9.2c-28.2,6-53.4,5.2-76.9-2.5c-16.1-5.1-31-13.2-44-23.9
	c-4.8-4-6.1-8.1-6.3-10.8c-0.3-3.5,0.9-6.9,3.3-9.6c4.1-4.9,9.4-6.4,14.6-4.1c3.8,1.6,7.5,3.6,11,5.8l0.1,0.1
	c15.7,10.5,31.2,16.9,47.5,19.5c22.3,3.5,43.7,0,65.5-10.8c9.6-4.8,20-9.6,31.8-11.2c13.4-2,27,0.5,38.8,7.1
	c6.3,3.4,11.9,7.7,17.3,11.8l0.9,0.7c2,1.5,3.6,3.5,4.7,5.7c0.1,0.3,0.3,0.5,0.4,0.6l0.8,1.2v1.5c0.2,5.4-2.4,10.5-6.8,13.4
	c-3.9,2.5-8.8,2.9-13,0.9c-3.4-1.8-6.7-3.8-9.9-6c-1.2-0.8-2.4-1.6-3.5-2.3c-11.1-7.1-22.4-8.6-34.5-4.6l2.3,2.4
	c5.1,5.1,10.3,10.4,15.2,15.9c3.6,4.1,5,9.1,3.7,13.6c-1.3,4.5-5,8-10.2,9.6c-1.2,0.4-2.5,0.6-3.8,0.6
	C2690.9,628.2,2687.2,623.9,2685.5,621.9z M2450.1,870.4C2450.1,870.4,2450.1,870.4,2450.1,870.4c-16.2-4-30.7-3.8-44.1,0.7
	c-0.8,0.3-1.6,0.5-2.4,0.8h0c-0.8,0.3-1.6,0.6-2.4,1c-0.5,0.2-1,0.4-1.5,0.6c-6.2,2.2-13.4,2.5-21.8,0.9c-1.8-0.4-3.5-0.8-5.2-1.4
	c-4.5-1.5-8.6-3.7-12.4-6c-1.5-1-3-1.9-4.5-2.9c0,0,0,0,0,0c-0.7-0.5-1.5-1-2.2-1.5l-2.5-1.6l-2.8-1.9c-5.2-3.6-10.6-7.3-15.9-8.7
	c-11.2-2.9-23-4.9-34.4-6.7l-5.4-0.9c6.3,8.2,12.7,16.4,19.1,24.5c5,6.4,9.5,12,13.8,17.2c8.1,9.8,17.9,15.6,30,17.6
	c10.9,1.7,21.9,3.7,32.5,5.6l8.2,1.4c8.1-0.7,14.3-1.8,19.8-5.1c13.7-8.2,27.5-16.6,40.9-24.7l9.4-5.7l-1.8-0.3
	C2459.6,872.3,2454.8,871.6,2450.1,870.4z M2312,820.9c5.1,0.8,10.4,1.5,15.6,2.4c16.2,2.9,29,11.3,39.4,19.1
	c11.3,8.5,22.4,10,34.7,4.7c10.9-4.7,21.8-6.2,32.3-4.4c7.1,1.2,14.3,2.5,21.3,3.7l5.7,1l0-0.1l0,0l-0.1-0.1l0.1,0l0,0h0l-0.8-1
	c-5.8-7-11.8-14.3-18-21c-6.2-6.7-14.1-9.3-23-7c-6.3,1.6-12.7,3.9-18.9,6.1l-1.5,0.5c-9.8,3.4-18.6,1.8-26.4-4.8
	c-2.8-2.4-5.8-4.8-8.6-7.1l-3.1-2.6l-0.1-0.1c-5.5-4.8-11.3-7-19.9-7.4l-2,0.6c-3.7,1-7.3,2.3-10.8,4c-6.9,3.6-13.8,7.8-20.5,11.8
	l-1,0.6l0,0l0,0h0l0,0l0,0L2312,820.9z M2461,847.4l0.1,0L2461,847.4L2461,847.4l-0.7-1c-5.8-7-11.8-14.3-18-21
	c-6.2-6.7-14.1-9.3-23-7c-6.3,1.6-12.7,3.9-18.9,6.1l-1.5,0.5c-9.8,3.4-18.6,1.8-26.4-4.8c-2.8-2.4-5.8-4.8-8.6-7.1l-3.1-2.6
	l-0.1-0.1c-5.5-4.8-11.3-7-19.9-7.4l-2,0.6c-3.7,1-7.3,2.3-10.8,4c-6.9,3.6-13.8,7.8-20.5,11.8l-1,0.6l0,0l0,0h0l0,0l0,0l5.6,0.8
	c5.1,0.8,10.4,1.5,15.6,2.4c16.2,2.9,29,11.3,39.4,19.1c11.3,8.5,22.4,10,34.7,4.7c10.9-4.7,21.8-6.2,32.3-4.4
	c7.1,1.2,14.3,2.5,21.3,3.7l5.7,1L2461,847.4L2461,847.4L2461,847.4z M2464.3,873.1c-4.6-0.7-9.5-1.5-14.2-2.7c0,0,0,0,0,0
	c-16.2-4-30.7-3.8-44.1,0.7c-0.8,0.3-1.6,0.5-2.4,0.8h0c-0.8,0.3-1.6,0.6-2.4,1c-0.5,0.2-1,0.4-1.5,0.6c-6.2,2.2-13.4,2.5-21.8,0.9
	c-1.8-0.4-3.5-0.8-5.2-1.4c-4.5-1.5-8.6-3.7-12.4-6c-1.5-1-3-1.9-4.5-2.9c0,0,0,0,0,0c-0.7-0.5-1.5-1-2.2-1.5l-2.5-1.6l-2.8-1.9
	c-5.2-3.6-10.6-7.3-15.9-8.7c-11.2-2.9-23-4.9-34.4-6.7l-5.4-0.9c6.3,8.2,12.7,16.4,19.1,24.5c5,6.4,9.5,12,13.8,17.2
	c8.1,9.8,17.9,15.6,30,17.6c10.9,1.7,21.9,3.7,32.5,5.6l8.2,1.4c8.1-0.7,14.3-1.8,19.8-5.1c13.7-8.2,27.5-16.6,40.9-24.7l9.4-5.7
	L2464.3,873.1z M2464.3,873.1c-4.7-0.7-9.5-1.5-14.2-2.7v0c-16.2-4-30.7-3.8-44.1,0.7c-0.8,0.3-1.6,0.5-2.4,0.8h0
	c-0.8,0.3-1.6,0.6-2.4,1c-0.5,0.2-1,0.4-1.5,0.6c-6.2,2.2-13.4,2.5-21.8,0.9c-1.8-0.4-3.5-0.8-5.2-1.4c-4.5-1.5-8.6-3.7-12.4-6
	c-1.5-0.9-3-1.9-4.5-2.9c0,0,0,0,0,0c-0.8-0.5-1.5-1-2.2-1.5l-2.5-1.6l-2.8-1.9c-5.2-3.6-10.6-7.3-15.9-8.7
	c-11.2-2.9-23-4.9-34.4-6.7l-5.4-0.9c6.3,8.2,12.7,16.4,19.1,24.5c5,6.4,9.5,12,13.8,17.2c8.1,9.8,17.9,15.6,30,17.6
	c10.9,1.7,21.9,3.7,32.5,5.6l8.2,1.4c8.1-0.7,14.3-1.8,19.8-5.1c13.7-8.2,27.5-16.6,40.9-24.7l9.4-5.7L2464.3,873.1z M2460.3,846.3
	c-5.8-7-11.8-14.3-18-21c-6.2-6.7-14.1-9.3-23-7c-6.3,1.6-12.7,3.9-18.9,6.1l-1.5,0.5c-9.8,3.4-18.6,1.8-26.4-4.8
	c-2.8-2.4-5.8-4.8-8.6-7.1l-3.1-2.6l-0.1-0.1c-5.5-4.8-11.3-7-19.9-7.4l-2,0.6c-3.7,1-7.3,2.3-10.8,4c-6.9,3.6-13.8,7.8-20.5,11.8
	l-1,0.6l0,0h0l0,0l5.5,0.8c2.6,0.4,5.2,0.7,7.8,1.1c2.6,0.4,5.2,0.8,7.8,1.3v0c16.2,2.9,29,11.3,39.4,19.1
	c11.3,8.5,22.4,10,34.7,4.7c10.9-4.7,21.8-6.2,32.3-4.4c7.1,1.2,14.3,2.5,21.3,3.7l5.6,1l0,0l0.1,0h0L2460.3,846.3z M2461,847.4
	L2461,847.4l-0.7-1c-5.8-7-11.8-14.3-18-21c-0.7-0.8-1.5-1.5-2.3-2.2c0,0,0,0,0,0c-0.4-0.3-0.8-0.7-1.2-1c0,0,0,0,0,0
	c-1.4-1.1-2.9-2-4.4-2.7c-0.7-0.3-1.3-0.6-2-0.8c-4-1.4-8.4-1.5-13.1-0.3c-3.1,0.8-6.3,1.8-9.5,2.8c-2.4,0.8-4.8,1.6-7.1,2.4
	c-0.8,0.3-1.6,0.6-2.3,0.8l-1.5,0.5c-6.2,2.2-11.9,2.3-17.3,0.5c-2.4-0.8-4.7-2-6.9-3.6c-0.7-0.5-1.5-1.1-2.2-1.7
	c-2.8-2.4-5.8-4.8-8.6-7.1l-3.1-2.6l-0.1-0.1c-0.4-0.3-0.8-0.7-1.2-1c-0.8-0.6-1.6-1.2-2.4-1.7c-0.8-0.5-1.6-1-2.5-1.4
	c-1.3-0.7-2.6-1.2-4-1.6c-2.9-0.9-6.1-1.5-9.9-1.6l-2,0.6c-1.4,0.4-2.8,0.8-4.1,1.3c-1.7,0.6-3.4,1.2-5,2c-0.6,0.3-1.1,0.5-1.6,0.8
	c-6.9,3.6-13.8,7.8-20.5,11.8l-1,0.6l0,0h0l0,0h0l5.6,0.8c0,0,0,0,0,0c5.1,0.8,10.4,1.5,15.6,2.4c16.2,2.9,29,11.3,39.4,19.1
	c11.3,8.5,22.4,10,34.7,4.7c10.9-4.7,21.8-6.2,32.3-4.4c7.1,1.2,14.3,2.5,21.3,3.7L2461,847.4L2461,847.4L2461,847.4z M2464.3,873.1
	c-4.6-0.7-9.5-1.5-14.2-2.7c0,0,0,0,0,0c-16.2-4-30.7-3.8-44.1,0.7c-0.8,0.3-1.6,0.5-2.4,0.8h0c-0.8,0.3-1.6,0.6-2.4,1
	c-0.5,0.2-1,0.4-1.5,0.6c-6.2,2.2-13.4,2.5-21.8,0.9c-1.8-0.4-3.5-0.8-5.2-1.4c-4.5-1.5-8.6-3.7-12.4-6c-1.5-1-3-1.9-4.5-2.9
	c0,0,0,0,0,0c-0.7-0.5-1.5-1-2.2-1.5l-2.5-1.6l-2.8-1.9c-5.2-3.6-10.6-7.3-15.9-8.7c-11.2-2.9-23-4.9-34.4-6.7l-5.4-0.9
	c6.3,8.2,12.7,16.4,19.1,24.5c5,6.4,9.5,12,13.8,17.2c8.1,9.8,17.9,15.6,30,17.6c10.9,1.7,21.9,3.7,32.5,5.6l8.2,1.4
	c8.1-0.7,14.3-1.8,19.8-5.1c13.7-8.2,27.5-16.6,40.9-24.7l9.4-5.7L2464.3,873.1z M2464.3,873.1c-4.6-0.7-9.5-1.5-14.2-2.7
	c0,0,0,0,0,0c-16.2-4-30.7-3.8-44.1,0.7c-0.8,0.3-1.6,0.5-2.4,0.8h0c-0.8,0.3-1.6,0.6-2.4,1c-0.5,0.2-1,0.4-1.5,0.6
	c-6.2,2.2-13.4,2.5-21.8,0.9c-1.8-0.4-3.5-0.8-5.2-1.4c-4.5-1.5-8.6-3.7-12.4-6c-1.5-1-3-1.9-4.5-2.9c0,0,0,0,0,0
	c-0.7-0.5-1.5-1-2.2-1.5l-2.5-1.6l-2.8-1.9c-5.2-3.6-10.6-7.3-15.9-8.7c-11.2-2.9-23-4.9-34.4-6.7l-5.4-0.9
	c6.3,8.2,12.7,16.4,19.1,24.5c5,6.4,9.5,12,13.8,17.2c8.1,9.8,17.9,15.6,30,17.6c10.9,1.7,21.9,3.7,32.5,5.6l8.2,1.4
	c8.1-0.7,14.3-1.8,19.8-5.1c13.7-8.2,27.5-16.6,40.9-24.7l9.4-5.7L2464.3,873.1z M2461,847.4L2461,847.4l-0.7-1
	c-5.8-7-11.8-14.3-18-21c-0.7-0.8-1.5-1.5-2.3-2.2c0,0,0,0,0,0c-0.4-0.3-0.8-0.7-1.2-1c0,0,0,0,0,0c-1.4-1.1-2.9-2-4.4-2.7
	c-0.7-0.3-1.3-0.6-2-0.8c-4-1.4-8.4-1.5-13.1-0.3c-3.1,0.8-6.3,1.8-9.5,2.8c-2.4,0.8-4.8,1.6-7.1,2.4c-0.8,0.3-1.6,0.6-2.3,0.8
	l-1.5,0.5c-6.2,2.2-11.9,2.3-17.3,0.5c-2.4-0.8-4.7-2-6.9-3.6c-0.7-0.5-1.5-1.1-2.2-1.7c-2.8-2.4-5.8-4.8-8.6-7.1l-3.1-2.6l-0.1-0.1
	c-0.4-0.3-0.8-0.7-1.2-1c-0.8-0.6-1.6-1.2-2.4-1.7c-0.8-0.5-1.6-1-2.5-1.4c-1.3-0.7-2.6-1.2-4-1.6c-2.9-0.9-6.1-1.5-9.9-1.6l-2,0.6
	c-1.4,0.4-2.8,0.8-4.1,1.3c-1.7,0.6-3.4,1.2-5,2c-0.6,0.3-1.1,0.5-1.6,0.8c-6.9,3.6-13.8,7.8-20.5,11.8l-1,0.6l0,0h0l0,0h0l5.6,0.8
	c0,0,0,0,0,0c5.1,0.8,10.4,1.5,15.6,2.4c16.2,2.9,29,11.3,39.4,19.1c11.3,8.5,22.4,10,34.7,4.7c10.9-4.7,21.8-6.2,32.3-4.4
	c7.1,1.2,14.3,2.5,21.3,3.7L2461,847.4L2461,847.4L2461,847.4z M2461,847.4L2461,847.4l-0.7-1c-5.8-7-11.8-14.3-18-21
	c-0.7-0.8-1.5-1.5-2.3-2.2c0,0,0,0,0,0c-0.4-0.3-0.8-0.7-1.2-1c0,0,0,0,0,0c-1.4-1.1-2.9-2-4.4-2.7c-0.7-0.3-1.3-0.6-2-0.8
	c-4-1.4-8.4-1.5-13.1-0.3c-3.1,0.8-6.3,1.8-9.5,2.8c-2.4,0.8-4.8,1.6-7.1,2.4c-0.8,0.3-1.6,0.6-2.3,0.8l-1.5,0.5
	c-6.2,2.2-11.9,2.3-17.3,0.5c-2.4-0.8-4.7-2-6.9-3.6c-0.7-0.5-1.5-1.1-2.2-1.7c-2.8-2.4-5.8-4.8-8.6-7.1l-3.1-2.6l-0.1-0.1
	c-0.4-0.3-0.8-0.7-1.2-1c-0.8-0.6-1.6-1.2-2.4-1.7c-0.8-0.5-1.6-1-2.5-1.4c-1.3-0.7-2.6-1.2-4-1.6c-2.9-0.9-6.1-1.5-9.9-1.6l-2,0.6
	c-1.4,0.4-2.8,0.8-4.1,1.3c-1.7,0.6-3.4,1.2-5,2c-0.6,0.3-1.1,0.5-1.6,0.8c-6.9,3.6-13.8,7.8-20.5,11.8l-1,0.6l0,0h0l0,0h0l5.6,0.8
	c0,0,0,0,0,0c5.1,0.8,10.4,1.5,15.6,2.4c16.2,2.9,29,11.3,39.4,19.1c11.3,8.5,22.4,10,34.7,4.7c10.9-4.7,21.8-6.2,32.3-4.4
	c7.1,1.2,14.3,2.5,21.3,3.7L2461,847.4L2461,847.4L2461,847.4z M2464.3,873.1c-4.6-0.7-9.5-1.5-14.2-2.7c0,0,0,0,0,0
	c-16.2-4-30.7-3.8-44.1,0.7c-0.8,0.3-1.6,0.5-2.4,0.8h0c-0.8,0.3-1.6,0.6-2.4,1c-0.5,0.2-1,0.4-1.5,0.6c-6.2,2.2-13.4,2.5-21.8,0.9
	c-1.8-0.4-3.5-0.8-5.2-1.4c-4.5-1.5-8.6-3.7-12.4-6c-1.5-1-3-1.9-4.5-2.9c0,0,0,0,0,0c-0.7-0.5-1.5-1-2.2-1.5l-2.5-1.6l-2.8-1.9
	c-5.2-3.6-10.6-7.3-15.9-8.7c-11.2-2.9-23-4.9-34.4-6.7l-5.4-0.9c6.3,8.2,12.7,16.4,19.1,24.5c5,6.4,9.5,12,13.8,17.2
	c8.1,9.8,17.9,15.6,30,17.6c10.9,1.7,21.9,3.7,32.5,5.6l8.2,1.4c8.1-0.7,14.3-1.8,19.8-5.1c13.7-8.2,27.5-16.6,40.9-24.7l9.4-5.7
	L2464.3,873.1z M2464.3,873.1c-4.6-0.7-9.5-1.5-14.2-2.7c0,0,0,0,0,0c-16.2-4-30.7-3.8-44.1,0.7c-0.8,0.3-1.6,0.5-2.4,0.8h0
	c-0.8,0.3-1.6,0.6-2.4,1c-0.5,0.2-1,0.4-1.5,0.6c-6.2,2.2-13.4,2.5-21.8,0.9c-1.8-0.4-3.5-0.8-5.2-1.4c-4.5-1.5-8.6-3.7-12.4-6
	c-1.5-1-3-1.9-4.5-2.9c0,0,0,0,0,0c-0.7-0.5-1.5-1-2.2-1.5l-2.5-1.6l-2.8-1.9c-5.2-3.6-10.6-7.3-15.9-8.7c-11.2-2.9-23-4.9-34.4-6.7
	l-5.4-0.9c6.3,8.2,12.7,16.4,19.1,24.5c5,6.4,9.5,12,13.8,17.2c8.1,9.8,17.9,15.6,30,17.6c10.9,1.7,21.9,3.7,32.5,5.6l8.2,1.4
	c8.1-0.7,14.3-1.8,19.8-5.1c13.7-8.2,27.5-16.6,40.9-24.7l9.4-5.7L2464.3,873.1z M2461,847.4L2461,847.4l-0.7-1
	c-5.8-7-11.8-14.3-18-21c-0.7-0.8-1.5-1.5-2.3-2.2c0,0,0,0,0,0c-0.4-0.3-0.8-0.7-1.2-1c0,0,0,0,0,0c-1.4-1.1-2.9-2-4.4-2.7
	c-0.7-0.3-1.3-0.6-2-0.8c-4-1.4-8.4-1.5-13.1-0.3c-3.1,0.8-6.3,1.8-9.5,2.8c-2.4,0.8-4.8,1.6-7.1,2.4c-0.8,0.3-1.6,0.6-2.3,0.8
	l-1.5,0.5c-6.2,2.2-11.9,2.3-17.3,0.5c-2.4-0.8-4.7-2-6.9-3.6c-0.7-0.5-1.5-1.1-2.2-1.7c-2.8-2.4-5.8-4.8-8.6-7.1l-3.1-2.6l-0.1-0.1
	c-0.4-0.3-0.8-0.7-1.2-1c-0.8-0.6-1.6-1.2-2.4-1.7c-0.8-0.5-1.6-1-2.5-1.4c-1.3-0.7-2.6-1.2-4-1.6c-2.9-0.9-6.1-1.5-9.9-1.6l-2,0.6
	c-1.4,0.4-2.8,0.8-4.1,1.3c-1.7,0.6-3.4,1.2-5,2c-0.6,0.3-1.1,0.5-1.6,0.8c-6.9,3.6-13.8,7.8-20.5,11.8l-1,0.6l0,0h0l0,0h0l5.6,0.8
	c0,0,0,0,0,0c5.1,0.8,10.4,1.5,15.6,2.4c16.2,2.9,29,11.3,39.4,19.1c11.3,8.5,22.4,10,34.7,4.7c10.9-4.7,21.8-6.2,32.3-4.4
	c7.1,1.2,14.3,2.5,21.3,3.7L2461,847.4L2461,847.4L2461,847.4z"/>
<path class="st0" d="M2961.6,656.9c0.2,113.4-33.7,224.2-97.2,318.1c-60.4,89.5-144.9,160-243.8,203.3
	c38.2-53.8,77.9-109.6,118.4-166.2c3.3-4.4,5.3-9.7,5.8-15.2c1.6-15.1,8-28.9,14.6-41.6c35.7-67.5,71.3-134.9,106.9-202.3
	c2.3-4.4,6.7-12.5,0.2-21.1c0-0.9,0.2-1.8,0.4-2.7c1.6-6.6,3.2-13.3,4.8-19.8c3.1-12.5,6.3-25.5,9-38.5c5.5-26,5.4-52.5,4.7-72.7
	c-2.4-73.7-23.9-143.1-63.9-206.3c-12.3-19.3-27.6-36.3-42.4-52.6l-2.7-3l-121.2-133.5c-1.5-1.7-3-3.3-4.5-4.9l-2.3-2.5l0,0
	c0,0,0,0,0.1-0.1l9.4-9.3c6.9-6.9,14-13.9,21.1-21c10.8,6.3,21.4,12.9,31.7,19.9c91.5,61.8,163.1,148.7,206.1,250.3
	C2946.5,505.5,2961.8,580.8,2961.6,656.9z"/>
<path class="st0" d="M2392.6,0C2030,0,1736,294,1736,656.7s294,656.7,656.7,656.7s656.7-294,656.7-656.7S2755.3,0,2392.6,0z
	 M2991.5,659.9c0,2.4,0,4.8-0.1,7.3v1.7c0,2.1-0.1,4.3-0.2,6.4c-0.1,2.4-0.2,4.9-0.3,7.3c-4.1,99.8-33.2,196.9-84.7,282.4
	c-0.7,1.1-1.4,2.3-2,3.4l-2.1,3.5c-0.8,1.3-1.7,2.7-2.5,4c-1.1,1.8-2.3,3.6-3.5,5.4c-0.9,1.5-1.9,3-2.9,4.4
	c-11.5,17.4-23.8,34.2-37,50.3c-1.9,2.3-3.8,4.6-5.7,6.9l-0.7,0.9c-1,1.2-2,2.3-3,3.5c-0.3,0.4-0.7,0.8-1,1.2l-2.8,3.2
	c-0.1,0.2-0.3,0.3-0.4,0.5c-1,1.2-2.1,2.4-3.2,3.6l-3,3.3l-0.4,0.5c-0.9,1-1.7,1.9-2.6,2.8l-0.7,0.7c-1.2,1.3-2.4,2.5-3.5,3.8
	c0,0-0.1,0.1-0.1,0.1c-0.9,1-1.9,2-2.8,3s-2,2.1-3,3.1l-0.3,0.3c-1.1,1.1-2.2,2.3-3.4,3.4l-6,6l-3.4,3.3l-2.5,2.4l-1.7,1.6l-2.6,2.4
	c-0.3,0.3-0.7,0.6-1,0.9l-1.3,1.2l-2.3,2.1l-0.2,0.2c-1.3,1.2-2.5,2.3-3.8,3.5c-0.8,0.7-1.5,1.4-2.3,2c-1.8,1.7-3.7,3.3-5.5,4.9
	c-1,0.9-2,1.7-3,2.6l-2.6,2.2c-0.9,0.8-1.9,1.6-2.8,2.4l-1.9,1.6c-0.8,0.7-1.6,1.3-2.4,2l-1.2,1c-0.4,0.3-0.8,0.7-1.2,1
	c-0.6,0.5-1.2,0.9-1.7,1.4c-0.6,0.5-1,0.9-1.6,1.3l-0.8,0.6l-2,1.6c-0.2,0.2-0.4,0.3-0.6,0.5l-1.4,1.1l-2.7,2.1l-1.3,1l-0.5,0.3
	l-1.2,0.9c-0.7,0.5-1.4,1.1-2.1,1.6l-0.4,0.3l-0.5,0.4l-0.3,0.2c-1.2,0.9-2.3,1.8-3.5,2.6c-1,0.8-2,1.5-3,2.3l-2.1,1.6l-2.9,2.1
	l-2.2,1.6l-2.3,1.6c-0.8,0.6-1.7,1.2-2.5,1.8l-2.5,1.8c-1.5,1-2.9,2-4.4,3l-1.3,0.9l-0.1,0.1l-0.7,0.5l-0.5,0.4l-0.1,0.1l-0.3,0.2
	l-0.1,0.1l-0.5,0.4l-3.9,2.6c-1.8,1.2-3.6,2.4-5.5,3.6l-0.5,0.3c-1.4,0.9-2.9,1.8-4.3,2.8c-1.4,0.9-3.1,2-4.7,3
	c-1.2,0.8-2.5,1.5-3.7,2.3c-1.5,0.9-3,1.8-4.5,2.8c-1.3,0.8-2.6,1.6-3.9,2.3c-2.8,1.7-5.6,3.3-8.4,4.8l-3.4,1.9
	c-1.4,0.8-2.8,1.5-4.1,2.3l-4,2.2c-2.7,1.4-5.4,2.8-8.1,4.2c-1.3,0.7-2.7,1.4-4.1,2.1l-4.3,2.2l-1.1,0.5l-0.2,0.1l-2.3,1.1
	c-1.4,0.7-2.9,1.4-4.3,2.1l-3.7,1.8l-4,1.9l-4,1.8c-2.7,1.2-5.4,2.4-8.1,3.6c-1.3,0.6-2.7,1.2-4.1,1.7l-3.9,1.6l-4.3,1.8l-3.7,1.5
	c-1.5,0.6-3,1.2-4.5,1.8l-2.7,1.1h-0.1c-0.7,0.3-1.4,0.5-2,0.8l-3.9,1.5l-3.9,1.4c-1.6,0.6-3.3,1.2-4.9,1.7c-0.9,0.3-1.8,0.6-2.7,1
	l-4.3,1.5l-5.9,2h-0.1l-5.9,1.9l-4,1.3l-2.9,0.9l-0.7,0.2l-4.5,1.3c-1.3,0.4-2.7,0.8-4.1,1.2c-1.4,0.4-2.7,0.8-4.1,1.1l-4.9,1.4
	c-2.6,0.7-5.1,1.3-7.7,2c-1.9,0.5-3.8,1-5.7,1.4c-2.1,0.5-4.1,1-6.2,1.5c-20.9,4.9-42.1,8.7-63.4,11.2c-11.8,1.4-23.6,2.5-35.4,3.1
	c-12.7,0.7-25.3,1.1-37.8,1.1c-22.3,0-44.6-1.2-66.8-3.5c-0.2,0-0.3,0-0.5-0.1c-7.2-0.8-14.3-1.7-21.5-2.7
	c-61.4-9.2-121-27.9-176.7-55.5c-0.4-0.2-0.8-0.4-1.1-0.6c-19.6-9.9-38.4-20.6-56.5-32.1c-81.7-52.6-149.5-124.2-197.6-208.6
	c-17.4-31.3-32.3-64-44.4-97.7c-0.8-2.3-1.6-4.6-2.4-6.9c-0.1-0.2-0.1-0.4-0.2-0.6c-9.6-28.8-17-58.2-22.2-88.1l-0.5-3
	c-1.6-9.6-2.9-19.2-4.1-29c-1-8.7-1.9-17.3-2.5-25.9V701c-0.1-1.3-0.2-2.7-0.3-4l-0.1-1.8c-0.7-10.9-1.1-21.9-1.2-33v-11.6
	c0.1-7.8,0.4-15.6,0.8-23.4c2-37.5,7.3-74.7,15.9-111.3l0.4-1.5c18.3-74.8,50.9-145.4,96-207.8l2.7-3.7c5.4-7.3,11.1-14.6,16.9-21.8
	c18.5-22.9,38.6-44.4,60.1-64.4c1.2-1.1,2.3-2.1,3.5-3.2c1.6-1.4,3.1-2.9,4.7-4.3l1.3-1.2c0.2-0.2,0.5-0.4,0.7-0.6
	c5.1-4.5,10.3-8.9,15.5-13.2c1.7-1.4,3.4-2.8,5.2-4.2l0.4-0.4c1.8-1.5,3.7-2.9,5.5-4.4c1.5-1.2,3-2.4,4.6-3.6
	c0.6-0.4,1.1-0.9,1.7-1.3l3.9-3c0.6-0.5,1.3-1,1.9-1.4l5-3.7c1.7-1.2,3.4-2.5,5.1-3.7l1.1-0.7c1.8-1.3,3.6-2.6,5.5-3.8
	c1.3-0.9,2.7-1.8,4-2.8c1-0.7,2-1.4,3-2l4.1-2.7l2.2-1.5c1.4-0.9,2.9-1.9,4.4-2.8l0.3-0.2c1.3-0.8,2.6-1.7,3.9-2.5
	c0.4-0.2,0.7-0.4,1-0.7c0.9-0.6,1.8-1.1,2.7-1.7l1.4-0.9l1.5-0.9l0.6-0.4l1.1-0.7l1.2-0.7l1.8-1.1l2.7-1.6l0.1-0.1
	c45.6-26.5,94.4-47.1,145.2-61.2c35-9.9,70.9-16.3,107.1-19.3c6.8-0.6,13.8-1.1,20.5-1.5l4.6-0.3c0.7-0.1,2.3-0.2,4.1-0.3
	c2.9-0.1,5.9-0.2,8.8-0.3c0.6,0,2.2,0.1,4.1,0.1c4.6,0,11.6-0.1,14.4-0.2h3.2l0.1,0c318,4.1,576.3,256.1,590.4,571.6
	c0.1,1.4,0.1,2.7,0.2,4.2c0.1,1.5,0.2,3,0.2,4.5c0.1,1.8,0.1,3.7,0.1,5.5c0.1,0.9,0.1,1.8,0.1,2.8c0.1,2.7,0.1,5.4,0.1,8.1l0,0
	c0,0.7,0,1.5-0.1,2.2V659.9z"/>
<path class="st0" d="M1797.8,727.2c-1-8.7-1.9-17.3-2.5-25.9c1.3,18.6,3.5,36.9,6.6,55C1800.3,746.7,1798.9,737,1797.8,727.2z
	 M1793.7,650.5c0.1-7.8,0.4-15.6,0.8-23.4c2-37.5,7.3-74.7,15.9-111.3C1799.8,560,1794.2,605.2,1793.7,650.5z M1827.2,854.7
	c-0.8-2.3-1.6-4.6-2.4-6.9c12.2,36.3,27.9,71.3,46.8,104.6C1854.1,921.1,1839.3,888.4,1827.2,854.7z M1909.4,303
	c5.4-7.3,11.1-14.6,16.9-21.8c17.3-21.4,36.1-41.7,56.1-60.7C1955.6,245.7,1931.2,273.3,1909.4,303z M2069.1,1161
	c18.2,11.7,37.1,22.4,56.5,32.1C2106,1183.3,2087.2,1172.5,2069.1,1161z M2088.3,140.9L2088.3,140.9c0.9-0.5,1.9-1.1,2.8-1.6
	C2090.1,139.8,2089.2,140.3,2088.3,140.9z M2093.9,137.6c44-25,90.9-44.4,139.6-58c35-9.9,70.9-16.3,107.1-19.3
	c6.8-0.6,13.8-1.1,20.5-1.5l4.6-0.3c0.7-0.1,2.3-0.2,4.1-0.3C2272.7,61.9,2178,89.1,2093.9,137.6z M2392.6,57.9
	c-4.7,0-9.3,0.1-14,0.2c2.1,0.2,14.5,0,18.5-0.2L2392.6,57.9z M2622.2,1210.1l0.4-0.2l3.2-1.4
	C2624.7,1209.1,2623.4,1209.6,2622.2,1210.1z M2607.4,1216.1L2607.4,1216.1l2.8-1.1c1.4-0.6,2.8-1.1,4.3-1.7
	C2612.1,1214.2,2609.7,1215.1,2607.4,1216.1z M2605.2,1216.8c-1.3,0.5-2.6,1-3.9,1.5l-3.9,1.4c-1.6,0.6-3.3,1.2-4.9,1.7
	c-0.9,0.3-1.8,0.6-2.7,1l-4.3,1.5l-5.9,2h-0.1l-5.9,1.9l-4,1.3l-2.9,0.9l-0.7,0.2l-4.5,1.3c-1.3,0.4-2.7,0.8-4,1.2
	c-1.4,0.4-2.7,0.8-4.1,1.1c-1.7,0.5-3.3,0.9-4.9,1.4c-2.6,0.7-5.1,1.3-7.7,2c-1.9,0.5-3.8,1-5.7,1.4c-2.1,0.5-4.1,1-6.2,1.5
	c-32.5,7.6-65.6,12.4-98.9,14.3c-12.7,0.7-25.3,1.1-37.8,1.1c-29.7,0-59.4-2.1-88.8-6.3c7.2,1.1,14.5,2,21.7,2.8
	c0.2,0,0.3,0,0.5,0.1c22.3,2.5,44.7,3.7,67.1,3.7c24.5,0,48.9-1.4,73-4.4c48.4-5.9,96-17.8,141.7-35.3h-0.1
	C2606.6,1216.3,2605.9,1216.6,2605.2,1216.8z M2630.6,1206.6L2630.6,1206.6c2.7-1.1,5.4-2.3,8.2-3.6
	C2636.1,1204.2,2633.4,1205.4,2630.6,1206.6z M2666.8,1189.5L2666.8,1189.5c2.7-1.3,5.4-2.8,8.1-4.2
	C2672.2,1186.7,2669.5,1188.1,2666.8,1189.5z M2727.5,1153.5l0.5-0.4l0.2-0.1L2727.5,1153.5z M2802.4,1093.6l-1.3,1.2v0
	c0.8-0.7,1.5-1.4,2.3-2.2C2803,1093,2802.7,1093.3,2802.4,1093.6z M2421,58.9l-4.6-0.2h-9.9l-3-0.3c-0.9-0.1-1.7-0.2-2.6-0.3l-0.3,0
	h-0.2l0.4,0.1c0.9,0.1,1.7,0.2,2.6,0.3l3,0.3h9.9L2421,58.9c7.9,0.4,15.9,1,23.8,1.7C2436.8,59.9,2428.9,59.3,2421,58.9z"/>
<path class="st0" d="M2755.3,1133.5l-0.3,0.2L2755.3,1133.5l0.5-0.4L2755.3,1133.5z M2084.8,143l-1.2,0.7l1.8-1.1L2084.8,143z"/>
<path class="st0" d="M2727.5,1153.5l0.5-0.4l0.2-0.1L2727.5,1153.5z"/>
</svg>
