<svg id="Camada_1" data-name="Camada 1" xmlns="http://www.w3.org/2000/svg" xmlns:xlink="http://www.w3.org/1999/xlink" viewBox="0 0 179.92 58.53"><defs><style>.cls-1{fill:#fff;}.cls-2{mask:url(#mask);}.cls-3{mask:url(#mask-2-2);}.cls-4{mask:url(#mask-3);}.cls-5{mask:url(#mask-4-2);}.cls-6{mask:url(#mask-5);}</style><mask id="mask" x="0" y="11.4" width="8.73" height="46.23" maskUnits="userSpaceOnUse"><g transform="translate(0 -0.02)"><g id="mask-2"><polygon id="path-1" class="cls-1" points="0 11.41 8.73 11.41 8.73 57.65 0 57.65 0 11.41"/></g></g></mask><mask id="mask-2-2" x="50.9" y="9.67" width="35.46" height="48.83" maskUnits="userSpaceOnUse"><g transform="translate(0 -0.02)"><g id="mask-4"><polygon id="path-3" class="cls-1" points="50.9 9.69 86.36 9.69 86.36 58.52 50.9 58.52 50.9 9.69"/></g></g></mask><mask id="mask-3" x="89.28" y="23.6" width="35.64" height="34.92" maskUnits="userSpaceOnUse"><g transform="translate(0 -0.02)"><g id="mask-6"><polygon id="path-5" class="cls-1" points="89.28 23.62 124.92 23.62 124.92 58.54 89.28 58.54 89.28 23.62"/></g></g></mask><mask id="mask-4-2" x="144.28" y="23.6" width="35.64" height="34.92" maskUnits="userSpaceOnUse"><g transform="translate(0 -0.02)"><g id="mask-8"><polygon id="path-7" class="cls-1" points="144.28 23.62 179.92 23.62 179.92 58.54 144.28 58.54 144.28 23.62"/></g></g></mask><mask id="mask-5" x="155.67" y="0" width="15.47" height="20.81" maskUnits="userSpaceOnUse"><g transform="translate(0 -0.02)"><g id="mask-10"><polygon id="path-9" class="cls-1" points="155.67 0.02 171.15 0.02 171.15 20.83 155.67 20.83 155.67 0.02"/></g></g></mask></defs><title>07-INDAIÁ</title><g id="Page-1"><g id="Produtos"><g id="Carrossel-logos"><g id="_2-copy" data-name="2-copy"><g id="Group-20"><g id="Group-3"><g class="cls-2"><path id="Fill-1" class="cls-1" d="M4.41,11.41a4,4,0,0,1,3,1.4,4.81,4.81,0,0,1,0,6.59,4,4,0,0,1-3,1.36A4,4,0,0,1,1.28,19.4,4.7,4.7,0,0,1,0,16.07a4.62,4.62,0,0,1,1.27-3.26,4.08,4.08,0,0,1,3.14-1.4M0,55.71V25.43q-.06-2,1.83-1.93h5q1.83-.07,1.8,1.93V55.71q0,2-1.8,1.93h-5Q-.06,57.71,0,55.71" transform="translate(0 -0.02)"/></g></g><path id="Fill-4" class="cls-1" d="M24.87,25.44a12.31,12.31,0,0,1,6.77-1.85q7.35,0,11.26,4.5Q46.31,32,46.31,38.78V56.59q.07,2-1.89,1.95H39.15q-2,.07-1.89-1.95V38.92a5.87,5.87,0,0,0-1.69-4.23,5.77,5.77,0,0,0-8.1-.17,5.37,5.37,0,0,0-1.79,4V56.59q0,2-1.89,1.95H18.52q-2,.07-1.92-1.95V26.08q-.07-2,1.92-1.95h4.82a1.3,1.3,0,0,1,1.53,1.31" transform="translate(0 -0.02)"/><g id="Group-8"><g class="cls-3"><path id="Fill-6" class="cls-1" d="M68.48,32.18a7.91,7.91,0,0,0-5.88,2.46,8.75,8.75,0,0,0,0,12.19,8,8,0,0,0,5.95,2.46,8.1,8.1,0,0,0,6-2.46,8.84,8.84,0,0,0,0-12.19,8.11,8.11,0,0,0-6-2.46m8.55-7V11.64q0-2,1.94-2h5.41q2-.07,2,2V56q.07,2-2,2H79.47q-1.94.1-2-1.72v-.2a18.8,18.8,0,0,1-8.92,2.46,17,17,0,0,1-12.46-5.25A17.16,17.16,0,0,1,50.9,40.73a17.17,17.17,0,0,1,5.21-12.53A16.94,16.94,0,0,1,68.58,23,17.77,17.77,0,0,1,77,25.14" transform="translate(0 -0.02)"/></g></g><g id="Group-11"><g class="cls-4"><path id="Fill-9" class="cls-1" d="M107,32.68a8.14,8.14,0,0,0-5.92,2.41,8.52,8.52,0,0,0,0,12,8.68,8.68,0,0,0,12,0,8.52,8.52,0,0,0,0-12A8.27,8.27,0,0,0,107,32.68m9.39-6.52v-.3q0-1.79,2-1.72H123q2-.07,2,1.92v30q.07,2-2,1.92h-4.64q-2,.07-2-1.72v-.23a18.06,18.06,0,0,1-9.22,2.48,17.36,17.36,0,0,1-12.62-5.16,17,17,0,0,1,0-24.6,17.28,17.28,0,0,1,12.55-5.16,18.54,18.54,0,0,1,9.29,2.55" transform="translate(0 -0.02)"/></g></g><path id="Fill-12" class="cls-1" d="M134.61,11.36a4,4,0,0,1,3,1.4,4.83,4.83,0,0,1,0,6.6,4.15,4.15,0,0,1-6.16,0A4.71,4.71,0,0,1,130.2,16a4.63,4.63,0,0,1,1.27-3.27,4.08,4.08,0,0,1,3.14-1.4M130.2,55.73V25.4q-.06-2,1.83-1.93h5q1.83-.07,1.8,1.93V55.73q0,2-1.8,1.93h-5q-1.9.07-1.83-1.93" transform="translate(0 -0.02)"/><g id="Group-16"><g class="cls-5"><path id="Fill-14" class="cls-1" d="M162,32.68a8.14,8.14,0,0,0-5.92,2.41,8.52,8.52,0,0,0,0,12,8.68,8.68,0,0,0,12,0,8.52,8.52,0,0,0,0-12A8.28,8.28,0,0,0,162,32.68m9.39-6.52v-.3q0-1.79,2-1.72H178q2-.07,2,1.92v30q.07,2-2,1.92h-4.64q-2,.07-2-1.72v-.23a18.06,18.06,0,0,1-9.22,2.48,17.36,17.36,0,0,1-12.62-5.16,17,17,0,0,1,0-24.6,17.28,17.28,0,0,1,12.55-5.16,18.54,18.54,0,0,1,9.29,2.55" transform="translate(0 -0.02)"/></g></g><g id="Group-19"><g class="cls-6"><path id="Fill-17" class="cls-1" d="M171.15,13a7.74,7.74,0,1,1-15.47,0c0-3.56,5.24-10.37,7.1-12.67a.82.82,0,0,1,1.28,0c1.85,2.3,7.1,9.1,7.1,12.67" transform="translate(0 -0.02)"/></g></g></g></g></g></g></g></svg>