<svg id="Camada_1" data-name="Camada 1" xmlns="http://www.w3.org/2000/svg" viewBox="0 0 1098.81 1403"><defs><style>.cls-1{fill:#fff;}</style></defs><title>09-PEPSI</title><path class="cls-1" d="M521,1255.13h0v-.38c-.17-1.62-.5-4.3-.87-7.14a86.67,86.67,0,0,0-3.65-15.4c-12.81-37.58-47.13-61.81-87.33-61.81a102.88,102.88,0,0,0-12.28.76c-51.59,6.15-86.68,49.69-79.8,99,6.15,44.67,44.82,75.34,91.89,75.34a104.67,104.67,0,0,0,12.26-.76c25.1-2.94,47.06-12.72,63.62-31.7a4.93,4.93,0,0,0,1.18-3.75,4.29,4.29,0,0,0-2.07-3c-2.76-1.82-12.66-6.29-18-8.71-1.57-.72-2.83-1.3-3.6-1.62a8.75,8.75,0,0,0-3.83-1.11,5.07,5.07,0,0,0-3.75,2,61,61,0,0,1-37.83,19.25,76.44,76.44,0,0,1-8,.45c-25.09,0-50.41-15.63-57.72-37L371,1279l.54-.23c1.27-.63,13-5.68,30.42-5.68,2.14,0,4.31.1,6.44.23,5,.41,10,1,15.31,1.61a251,251,0,0,0,31.68,2.41,159.27,159.27,0,0,0,21.71-1.42c28.69-5.15,40.05-12.63,40.18-12.7C521.33,1260.79,521.15,1258.79,521,1255.13Zm-32.48-10.92a121.27,121.27,0,0,1-32.33,4.26c-8.38,0-17.44-.63-26.23-1.26h-.3c-8.12-.57-15.85-1.14-23.26-1.14a123.93,123.93,0,0,0-39.45,6.47l.14-1c2.65-25.77,25.88-47.74,54.1-51.28a78,78,0,0,1,7.94-.41c26.51,0,52.23,18.7,59.89,43.54l.23.66Z"/><path class="cls-1" d="M970.45,1180.22a4.2,4.2,0,0,0-4.35-4H942.3a4.19,4.19,0,0,0-4.29,4v157.14a4.2,4.2,0,0,0,4.29,4h23.81a4.21,4.21,0,0,0,4.35-4Z"/><path class="cls-1" d="M954.22,1120.21c-11.75,0-21.41,8.94-21.41,19.9s9.66,19.92,21.41,19.92,21.47-8.93,21.47-19.92-9.62-19.9-21.47-19.9Z"/><path class="cls-1" d="M640.31,1170.41c-42.72,0-78.75,26.17-89.81,65.07-1.8,6.59-3.79,23.42-3.79,40.2v123.23A4.26,4.26,0,0,0,551,1403h23.54a4.29,4.29,0,0,0,4.42-4.08v-77.67l1.29,1.17c11.55,10.43,33,22,58.56,23.21h0c1.49.06,3,.07,4.52.07,24.42,0,47.12-8.74,64-24.56a84.59,84.59,0,0,0,26.48-62.2C733.86,1209.28,692.74,1170.41,640.31,1170.41ZM641.64,1317c-16.79,0-32.34-5.55-43.68-15.69a54.68,54.68,0,0,1-18.16-41.36c0-32.89,26.94-59.71,60-59.71v0c33.64,0,60.06,25.79,60.06,58.72C699.87,1292,674.82,1317,641.64,1317Z"/><path class="cls-1" d="M217,1170.41c-42.7,0-78.75,26.17-89.78,65.07-1.89,6.59-3.78,23.42-3.78,40.2v123.23a4.2,4.2,0,0,0,4.3,4.08h23.64a4.28,4.28,0,0,0,4.4-4.08v-77.67l1.19,1.17c11.56,10.43,33,22,58.63,23.21h0c1.49.06,3.07.07,4.52.07,24.45,0,47.12-8.74,64-24.56a84.64,84.64,0,0,0,26.49-62.2C310.55,1209.28,269.44,1170.41,217,1170.41Zm1.38,146.53c-16.78,0-32.29-5.55-43.62-15.69a54.52,54.52,0,0,1-18.24-41.36c0-32.89,27-59.71,60.09-59.71v0c33.61,0,60,25.79,60,58.72C276.57,1292,251.57,1316.94,218.35,1316.94Z"/><path class="cls-1" d="M756.44,1318.07c20.58,17.45,42.93,27.43,72,27.43h.88c50.23-.31,72.69-25.83,72.69-51,0-34.77-35.34-44.3-46.11-46.38-3.45-.66-7.1-1.29-10.73-2-8.76-1.52-17.8-3.16-26.1-5.34-5.77-1.42-24.62-7.24-24.62-20.37,0-14.43,17.2-22.23,33.41-22.23,13.59,0,24.87,2.12,39.36,12.66a7.89,7.89,0,0,0,4.64,1.83,7.26,7.26,0,0,0,4.33-1.49,171.76,171.76,0,0,0,16.23-13,4.41,4.41,0,0,0,1.58-3.51,6.3,6.3,0,0,0-2.42-4.07c-19.4-14.28-38.06-20.11-64.3-20.2h-.17c-37.73,0-66.12,22.51-66.12,52.32,0,23.64,20.91,40.41,58.79,47.33l23.72,4.23c15.55,2.68,24.32,10.38,24,21.1-.3,10.52-14.13,21.43-36.92,21.43-18.49,0-34.91-6.76-48.59-18.34l-.17-.19a5.74,5.74,0,0,0-3.7-1.8,6,6,0,0,0-3.47,1.39c-1.47,1-17.27,12.73-19,14.34a3.07,3.07,0,0,0-1.06,2.44,5,5,0,0,0,1.79,3.39Z"/><path class="cls-1" d="M136.06,794.87C73.12,715.55,35.82,617.46,35.82,511.28c0-263.83,230-477.83,513.61-477.83,115.52,0,222.18,35.48,308,95.48C754.3,449.25,481.5,701.33,136.06,794.87Z"/><path class="cls-1" d="M980.29,251.44a.49.49,0,0,0,0,.11l-.08-.11Z"/><path class="cls-1" d="M1063,511.28c0,263.86-230,477.79-513.61,477.79-158.27,0-299.81-66.64-394-171.4C467.5,726.21,693.46,726,848.56,619.81c89.14-61.1,147.81-158.67,147.81-269.58a312.83,312.83,0,0,0-16-98.68C1032.57,326.37,1063,415.54,1063,511.28Z"/><path class="cls-1" d="M549.47,3C247.68,3,3,230.62,3,511.31s244.68,508.3,546.38,508.27h0c301.77,0,546.39-227.64,546.43-508.32S851.26,3,549.47,3Zm-.09,1013.59h-.06c-145.13,0-281.59-52.59-384.22-148.06S6,646.22,6,511.31C6,232.68,249.8,6,549.47,6,694.66,6,831.15,58.59,933.78,154.08s159.05,222.28,159,357.19C1092.77,789.88,849,1016.57,549.38,1016.59Z"/><path class="cls-1" d="M1055.63,312.2c-27.67-60.89-67.3-115.57-117.76-162.52A551.63,551.63,0,0,0,763.26,40.15a589.23,589.23,0,0,0-427.59,0A551.77,551.77,0,0,0,161,149.7c-50.48,47-90.11,101.64-117.8,162.53a480.16,480.16,0,0,0,0,398.16C70.9,771.28,110.53,826,161,872.91A551.6,551.6,0,0,0,335.63,982.44a580.92,580.92,0,0,0,213.69,40.14h.06a581.38,581.38,0,0,0,213.78-40.17A551.59,551.59,0,0,0,937.79,872.87c50.47-47,90.1-101.63,117.79-162.52a480.24,480.24,0,0,0,0-398.15ZM549.38,1016.59h-.06c-145.13,0-281.59-52.59-384.22-148.06S6,646.22,6,511.31C6,232.68,249.8,6,549.47,6,694.66,6,831.15,58.59,933.78,154.08s159.05,222.28,159,357.19C1092.77,789.88,849,1016.57,549.38,1016.59Z"/><path class="cls-1" d="M980.29,251.44a.49.49,0,0,0,0,.11l-.08-.11Z"/><path class="cls-1" d="M1063,511.28c0,263.86-230,477.79-513.61,477.79-158.27,0-299.81-66.64-394-171.4C467.5,726.21,693.46,726,848.56,619.81c89.14-61.1,147.81-158.67,147.81-269.58a312.83,312.83,0,0,0-16-98.68C1032.57,326.37,1063,415.54,1063,511.28Z"/><path class="cls-1" d="M857.43,128.93C754.3,449.25,481.5,701.33,136.06,794.87,73.12,715.55,35.82,617.46,35.82,511.28c0-263.83,230-477.83,513.61-477.83C665,33.45,771.61,68.93,857.43,128.93Z"/></svg>