<?xml version="1.0" encoding="utf-8"?>
<!-- Generator: Adobe Illustrator 21.0.0, SVG Export Plug-In . SVG Version: 6.00 Build 0)  -->
<svg version="1.1" id="Camada_1" xmlns="http://www.w3.org/2000/svg" xmlns:xlink="http://www.w3.org/1999/xlink" x="0px" y="0px"
	 viewBox="0 0 1377.9 1331.3" style="enable-background:new 0 0 1377.9 1331.3;" xml:space="preserve">
<style type="text/css">
	.st0{fill:#FFFFFF;}
</style>
<title>9-PEPSI 2024</title>
<path class="st0" d="M254.7,541.9H118.1V786h87.8v-46.5l63-22.8c53.3-18.9,92.3-38.9,92.3-93.1C361.2,571.3,325.8,541.9,254.7,541.9
	z M239,663.2l-33.2,13v-73.3h35.6c19.5,0,30.9,9,30.9,24.6C272.3,646.4,260.3,655.5,239,663.2z"/>
<polygon class="st0" points="608.5,724.9 608.5,786 385.6,786 385.6,541.8 607,541.8 607,602.9 473.3,602.9 473.3,634.5 
	578.4,634.5 578.4,693.3 473.3,693.3 473.3,724.9 "/>
<path class="st0" d="M780.5,541.9H643.8V786h87.8v-46.5l63-22.8c53.3-18.9,92.3-38.9,92.3-93.1C886.9,571.3,851.5,541.9,780.5,541.9
	z M764.7,663.2l-33.2,13v-73.3h35.6c19.5,0,30.9,9,30.9,24.6C798,646.4,786,655.5,764.7,663.2L764.7,663.2z"/>
<path class="st0" d="M1145,713.2c0,51.7-49.3,81-119.8,81c-74.1,0-123.8-19.9-140.4-61.8l70.4-25.6c9.7,19.2,33.6,27.8,69.4,27.8
	c23.8,0,35-6.2,35-16.7c0-34.5-157.2-10.4-157.2-103.9c0-50.2,48.5-77.7,114.2-77.7c78,0,113.6,26.1,122.5,60.2l-71.1,26
	c-5.7-17.4-21-26-48.8-26c-20.1,0-31.5,7.2-31.5,16.7C987.8,645.8,1145,623.6,1145,713.2z"/>
<path class="st0" d="M1255.5,903.9c-99.6,215.6-321.8,358.8-567,358.8c-245.5,0-467.6-141.6-565.7-358.8
	c66.1,22.1,151.3,32.3,245,32.3c214.4,0,430.7-74.4,638.8-74.4C1088.8,861.8,1178.9,878.8,1255.5,903.9z"/>
<path class="st0" d="M1255.1,428.2c-66.1-22.1-151.3-32.3-245-32.3c-214.4,0-430.7,74.4-638.8,74.4c-82.2,0-172.3-17-248.8-42.1
	c99.6-215.6,321.8-358.8,567-358.8C935,69.4,1157.1,210.9,1255.1,428.2z"/>
<polygon class="st0" points="1259.3,537.9 1259.3,786 1169.9,786 1170.5,568.3 "/>
<path class="st0" d="M1323.8,406.5c-34.7-79.3-84.4-150.5-147.6-211.6c-63.2-61.1-137.6-109.5-219-142.6
	c-172-69.8-364.4-69.8-536.4,0C339.3,85.5,265,133.9,201.8,195C138.5,256.1,88.8,327.3,54.2,406.5c-72.2,165.2-72.2,353,0,518.2
	c34.7,79.3,84.4,150.5,147.6,211.6c63.2,61.1,137.6,109.5,219,142.6c85,34.7,175.2,52.3,268.2,52.3c91.9,0.2,183-17.6,268.2-52.3
	c81.4-33.1,155.8-81.5,219-142.6c63.3-61.1,112.9-132.3,147.6-211.6C1396,759.6,1396,571.8,1323.8,406.5L1323.8,406.5z M689,1306.7
	c-366.5,0-663.5-287-663.5-641.1S322.5,24.6,689,24.6s663.5,287,663.5,641.1S1055.4,1306.7,689,1306.7z"/>
<path class="st0" d="M254.7,541.9H118.1V786h87.8v-46.5l63-22.8c53.3-18.9,92.3-38.9,92.3-93.1C361.2,571.3,325.8,541.9,254.7,541.9
	z M239,663.2l-33.2,13v-73.3h35.6c19.5,0,30.9,9,30.9,24.6C272.3,646.4,260.3,655.5,239,663.2z"/>
<polygon class="st0" points="608.5,724.9 608.5,786 385.6,786 385.6,541.8 607,541.8 607,602.9 473.3,602.9 473.3,634.5 
	578.4,634.5 578.4,693.3 473.3,693.3 473.3,724.9 "/>
<path class="st0" d="M780.5,541.9H643.8V786h87.8v-46.5l63-22.8c53.3-18.9,92.3-38.9,92.3-93.1C886.9,571.3,851.5,541.9,780.5,541.9
	z M764.7,663.2l-33.2,13v-73.3h35.6c19.5,0,30.9,9,30.9,24.6C798,646.4,786,655.5,764.7,663.2L764.7,663.2z"/>
<path class="st0" d="M1145,713.2c0,51.7-49.3,81-119.8,81c-74.1,0-123.8-19.9-140.4-61.8l70.4-25.6c9.7,19.2,33.6,27.8,69.4,27.8
	c23.8,0,35-6.2,35-16.7c0-34.5-157.2-10.4-157.2-103.9c0-50.2,48.5-77.7,114.2-77.7c78,0,113.6,26.1,122.5,60.2l-71.1,26
	c-5.7-17.4-21-26-48.8-26c-20.1,0-31.5,7.2-31.5,16.7C987.8,645.8,1145,623.6,1145,713.2z"/>
<path class="st0" d="M1255.5,903.9c-99.6,215.6-321.8,358.8-567,358.8c-245.5,0-467.6-141.6-565.7-358.8
	c66.1,22.1,151.3,32.3,245,32.3c214.4,0,430.7-74.4,638.8-74.4C1088.8,861.8,1178.9,878.8,1255.5,903.9z"/>
<path class="st0" d="M1255.1,428.2c-66.1-22.1-151.3-32.3-245-32.3c-214.4,0-430.7,74.4-638.8,74.4c-82.2,0-172.3-17-248.8-42.1
	c99.6-215.6,321.8-358.8,567-358.8C935,69.4,1157.1,210.9,1255.1,428.2z"/>
<polygon class="st0" points="1259.3,537.9 1259.3,786 1169.9,786 1170.5,568.3 "/>
<path class="st0" d="M1255.5,903.9c-99.6,215.6-321.8,358.8-567,358.8c-245.5,0-467.6-141.6-565.7-358.8
	c66.1,22.1,151.3,32.3,245,32.3c214.4,0,430.7-74.4,638.8-74.4C1088.8,861.8,1178.9,878.8,1255.5,903.9z"/>
<path class="st0" d="M1255.1,428.2c-66.1-22.1-151.3-32.3-245-32.3c-214.4,0-430.7,74.4-638.8,74.4c-82.2,0-172.3-17-248.8-42.1
	c99.6-215.6,321.8-358.8,567-358.8C935,69.4,1157.1,210.9,1255.1,428.2z"/>
<path class="st0" d="M780.5,541.9H643.8V786h87.8v-46.5l63-22.8c53.3-18.9,92.3-38.9,92.3-93.1C886.9,571.3,851.5,541.9,780.5,541.9
	z M764.7,663.2l-33.2,13v-73.3h35.6c19.5,0,30.9,9,30.9,24.6C798,646.4,786,655.5,764.7,663.2L764.7,663.2z M254.7,541.9H118.1V786
	h87.8v-46.5l63-22.8c53.3-18.9,92.3-38.9,92.3-93.1C361.2,571.3,325.8,541.9,254.7,541.9L254.7,541.9z M239,663.2l-33.2,13v-73.3
	h35.6c19.5,0,30.9,9,30.9,24.6C272.3,646.4,260.3,655.5,239,663.2z M987.7,613.1c0-9.5,11.4-16.7,31.5-16.7c27.9,0,43.2,8.6,48.8,26
	l71.1-26c-8.9-34.1-44.5-60.2-122.5-60.2c-65.7,0-114.2,27.4-114.2,77.7c0,93.5,157.2,69.4,157.2,103.9c0,10.4-11.2,16.7-35,16.7
	c-35.8,0-59.8-8.6-69.5-27.8l-70.4,25.7c16.7,41.8,66.3,61.8,140.4,61.8c70.5,0,119.8-29.3,119.8-81
	C1145,623.6,987.8,645.8,987.7,613.1L987.7,613.1z M1170.5,568.3l-0.6,217.7h89.4V537.9L1170.5,568.3z M473.3,724.9v-31.6h105.1
	v-58.8H473.3v-31.6H607v-61.1H385.6V786h222.9v-61.1L473.3,724.9z"/>
</svg>
