<?xml version="1.0" encoding="utf-8"?>
<!-- Generator: Adobe Illustrator 21.0.0, SVG Export Plug-In . SVG Version: 6.00 Build 0)  -->
<svg version="1.1" id="Camada_1" xmlns="http://www.w3.org/2000/svg" xmlns:xlink="http://www.w3.org/1999/xlink" x="0px" y="0px"
	 viewBox="0 0 774 484.2" style="enable-background:new 0 0 774 484.2;" xml:space="preserve">
<style type="text/css">
	.st0{fill:#FFFFFF;}
</style>
<title>Ativo 5</title>
<g id="Camada_2">
	<g id="Camada_2-2">
		<path class="st0" d="M217.5,85.6c5.2-11.8,8-24.5,8.3-37.3c0-28.8-19.4-47.3-49.3-47.3c-32.6,0-67.7,20.1-92.8,40.3l18.5-38.1H2.2
			L0,256.7h147.6v-0.5l0.3,0.5c57.3-26.8,97.1-77.6,97.1-122.9C245.5,113.9,234.9,95.3,217.5,85.6z M116.8,174.7
			c-31.5,17.1-57.6,17.4-57.6,1.1c0-38.1,70.5-87,125-87c6.4,0,12.7,0.9,18.9,2.5c-13.9,28.1-41.4,58.9-86,83.1L116.8,174.7z"/>
		<path class="st0" d="M360.7,256.7H234.6l36.6-169.3c4,0.5,8.1,0.6,12.2,0.4h2.1c0.8,0.1,1.5,0.1,2.3,0c1.3,0,2.5,0,3.7-0.5
			c0.1,0,0.3,0,0.5,0l3.3-0.6l2.6-0.5l2.6-0.7c1.5-0.4,3-0.8,4.4-1.2c1.5-0.5,3.3-1.1,5-1.6l0.8-0.3c3.4-1.3,6.8-2.8,10.1-4.5
			l2.5,10.9L360.7,256.7z"/>
		<path class="st0" d="M350.3,29.1c0,25.7-34.9,51.4-67.9,51.4c-22.3,0-37.6-11.6-37.6-29C244.7,26,279.6,0,312.7,0
			C335,0,350.3,11.6,350.3,29.1z"/>
		<path class="st0" d="M570.9,139.6l13.8,77.2c-34.4,19.6-88.4,41-135.9,41c-33.7,0-60.4-10.1-74.9-27c-3-3.5-5.6-7.3-7.7-11.4
			c-3.7-7.6-5.6-15.9-5.5-24.3c0-22.4,11.6-44.2,30.2-61.6c-6.5-5.1-12-11.5-16.1-18.7c-2.6-4.5-4.6-9.4-5.8-14.5
			c-1.1-4.5-1.6-9.2-1.6-13.8c0-6.4,1-12.8,3.1-18.9c1.7-4.9,4-9.5,6.9-13.7C401.8,16.6,467.6,0,519.8,0c21.8-0.1,43.5,2.1,64.9,6.5
			l-13,81.5l-123.2-26l-2.7,39.6c16.7-5.6,34.3-8.4,51.9-8.5c25.2,0,42.4,8.7,42.4,23.2c0,20.1-33,36.2-77.2,38.4
			c-6.9,0.2-13.9-0.1-20.7-1l-3.2,46.8L570.9,139.6z"/>
		<polygon class="st0" points="774,255.5 601.8,255.5 601.8,2.2 730.5,2.2 668.9,188.9 759.9,130.9 		"/>
		<path class="st0" d="M160.4,364.1c0,19.4-3.7,38.6-10.8,56.7h-53l32.1-84.6H97.5c2.8,9,4.2,18.4,4.2,27.8c0,20.5-9,36-21.5,36
			s-21.5-15.5-21.5-36c0-9.5,1.4-18.9,4.2-27.9H31.7l32.1,84.7h-53C3.7,402.7,0.1,383.5,0,364.1c0-23.3,5.4-42.4,15.1-55.4
			c1.7-2.2,3.5-4.2,5.5-6.1c7.6-7,17.7-10.9,28-10.7c12.1,0.2,23.5,5.5,31.6,14.4c1.9-2,4-3.9,6.2-5.6c1.9-1.4,3.8-2.7,5.9-3.8
			c3.3-1.8,6.9-3.2,10.7-4c1.9-0.5,3.9-0.8,5.9-1c1-0.1,1.9-0.1,2.9,0c9.3-0.1,18.3,3,25.5,8.8c2,1.5,3.8,3.2,5.5,5
			C154,318.4,160.4,338.7,160.4,364.1z"/>
		<path class="st0" d="M272.7,361.6l6.9,38.9c-17.4,10.1-44.6,20.6-68.5,20.6c-17,0-30.2-5-37.8-13.6c-4.3-5-6.7-11.4-6.6-18
			c0.5-12,6-23.2,15.1-31.1c-3.3-2.6-6-5.8-8.1-9.5c-1.2-2.3-2.1-4.8-2.6-7.3c-1.3-5.5-1.1-11.2,0.7-16.5c0.9-2.5,2-4.8,3.5-6.9
			c12.4-18.7,45.6-27,71.9-27c11-0.1,22,1,32.7,3.3l-6.5,41.1l-62.1-13.1l-1.4,20.1c8.4-2.8,17.3-4.3,26.2-4.3
			c12.8,0,21.3,4.4,21.3,11.7c0,10.1-16.6,18.3-38.9,19.4c-3.5,0.1-7,0-10.5-0.5l-1.7,23.6L272.7,361.6z"/>
		<path class="st0" d="M652.3,361.6l7,38.9c-17.4,10.1-44.6,20.6-68.5,20.6c-17,0-30.2-5-37.8-13.6c-1.5-1.7-2.8-3.7-3.8-5.7
			c-1.9-3.8-2.8-8-2.8-12.2c0.5-12,6-23.2,15.1-31.1c-3.2-2.6-5.9-5.8-7.9-9.5c-1.3-2.3-2.3-4.7-2.9-7.3c-1.3-5.5-1.1-11.2,0.7-16.5
			c0.9-2.5,2-4.8,3.5-6.9c12.4-18.7,45.3-27,71.9-27c11-0.1,22,1,32.7,3.3l-6.6,41.1l-62.1-13.1l-1.4,20.1
			c8.4-2.8,17.3-4.3,26.2-4.3c12.8,0,21.3,4.4,21.3,11.7c0,10.1-16.6,18.3-38.9,19.4c-3.5,0.1-7,0-10.5-0.5l-1.9,23.6L652.3,361.6z"
			/>
		<polygon class="st0" points="666,384.4 717.4,323.5 673.3,346.9 665.6,292.3 773.4,292.3 773.4,323.7 718.4,386.8 765.4,362.1 
			774,420.2 666,420.2 		"/>
		<path class="st0" d="M307.3,364.9L307.3,364.9l0.3,0.5L307.3,364.9z"/>
		<path class="st0" d="M307.3,364.9L307.3,364.9l0.3,0.5L307.3,364.9z M307.3,364.9L307.3,364.9l0.3,0.5L307.3,364.9z"/>
		<path class="st0" d="M384.6,376.7c16.4-18.3,25.2-36.3,25.2-52c0-20.1-14.2-33.3-35.2-33.3c-14.9,0.7-29.2,6.2-40.8,15.7l7.7-14.8
			h-55.4v128.1h39.5l-12.1-52.9l54.3-34.7l-34.1,87.7h69.1l-4-50.1L384.6,376.7z M307,365L307,365v0.6V365z"/>
		<path class="st0" d="M464.3,353.2h-0.6C463.9,353.1,464.1,353.1,464.3,353.2L464.3,353.2z M444.1,334.7c4.6-0.6,9.1-2,13.3-4
			c-4.6,1.1-9,2.4-13.4,4H444.1z M464.3,353.2h-0.6C463.9,353.1,464.1,353.1,464.3,353.2L464.3,353.2z M459.6,296.6
			c-5.3,0-10.4,1-15.4,2.9l7.3-1.5c3.3-0.6,6.5-1.1,9.7-1.4L459.6,296.6z M444,334.7c4.6-0.6,9.1-2,13.3-4
			C452.8,331.8,448.4,333.1,444,334.7z M464.2,353.2h-0.6C463.8,353.1,464,353.1,464.2,353.2L464.2,353.2z M459.5,296.6
			c-5.3,0-10.4,1-15.4,2.9l7.3-1.5c3.3-0.6,6.5-1.1,9.7-1.4L459.5,296.6z M443.9,334.7c4.6-0.6,9.1-2,13.3-4
			c-4.5,1.1-8.9,2.4-13.2,4H443.9z M459.5,296.6c-5.3,0-10.4,1-15.4,2.9l7.3-1.5c3.3-0.6,6.5-1.1,9.7-1.4L459.5,296.6z M443.9,334.7
			c4.6-0.6,9.1-2,13.3-4c-4.5,1.1-8.9,2.4-13.2,4H443.9z M459.5,296.6c-5.3,0-10.4,1-15.4,2.9l7.3-1.5c3.3-0.6,6.5-1.1,9.7-1.4
			L459.5,296.6z M443.9,334.7c4.6-0.6,9.1-2,13.3-4c-4.5,1.1-8.9,2.4-13.2,4H443.9z M443.9,334.7c4.6-0.6,9.1-2,13.3-4
			c-4.5,1.1-8.9,2.4-13.2,4H443.9z M459.5,296.6c-5.3,0-10.4,1-15.4,2.9l7.3-1.5c3.3-0.6,6.5-1.1,9.7-1.4L459.5,296.6z M443.9,334.7
			c4.6-0.6,9.1-2,13.3-4c-4.5,1.1-8.9,2.4-13.2,4H443.9z M459.5,296.6c-5.3,0-10.4,1-15.4,2.9l7.3-1.5c3.3-0.6,6.5-1.1,9.7-1.4
			L459.5,296.6z M443.9,334.7c4.6-0.6,9.1-2,13.3-4c-4.5,1.1-8.9,2.4-13.2,4H443.9z M459.5,296.6c-5.3,0-10.4,1-15.4,2.9l7.3-1.5
			c3.3-0.6,6.5-1.1,9.7-1.4L459.5,296.6z M464.2,353.2h-0.6C463.8,353.1,464,353.1,464.2,353.2L464.2,353.2z M444,334.7
			c4.6-0.6,9.1-2,13.3-4C452.8,331.8,448.4,333.1,444,334.7z M464.2,353.2h-0.6C463.8,353.1,464,353.1,464.2,353.2L464.2,353.2z
			 M444,334.7c4.6-0.6,9.1-2,13.3-4C452.8,331.8,448.4,333.1,444,334.7z M464.2,353.2h-0.6C463.8,353.1,464,353.1,464.2,353.2
			L464.2,353.2z M464.2,353.2h-0.6C463.8,353.1,464,353.1,464.2,353.2L464.2,353.2z M459.5,296.6c-5.3,0-10.4,1-15.4,2.9l7.3-1.5
			c3.3-0.6,6.5-1.1,9.7-1.4L459.5,296.6z M422.3,389.9L422.3,389.9v-0.4V389.9z M444,334.6c4.6-0.6,9.1-2,13.3-4
			c-4.5,1.1-9,2.5-13.3,4.1V334.6z"/>
		<path class="st0" d="M461.2,296.7h-1.6c-5.3,0-10.4,1-15.4,2.9l7.3-1.5C454.8,297.5,458,297,461.2,296.7z M457.4,330.7
			c-4.5,1.1-9,2.4-13.3,4C448.7,334.1,453.2,332.8,457.4,330.7z M461.2,296.7h-1.6c-5.3,0-10.4,1-15.4,2.9l7.3-1.5
			C454.8,297.5,458,297,461.2,296.7z M457.4,330.7c-4.5,1.1-9,2.4-13.3,4C448.7,334.1,453.2,332.8,457.4,330.7z"/>
		<path class="st0" d="M471.9,290.6c-3.6,0-7.2,0.2-10.7,0.6c-6.2,0.6-12.4,1.6-18.4,3.1c-3.3,0.8-6.5,1.6-10.1,2.6
			c-5,1.6-10.6,3.4-16,5.6v54.9c4.3-4.5,9.4-8.2,14.8-11.2h0.4c1.6-0.9,3.3-1.7,5-2.5l0.7-0.4c2.6-1.2,5.3-2.3,8.1-3.3
			c3.8-1.4,7.7-2.6,11.7-3.6l1.4-0.4c3.5-0.8,7.1-1.4,10.7-1.8c2.4-0.3,4.9-0.4,7.3-0.5c14.2,0,23.6,6.4,23.6,15.9
			c0.1,0.8,0.1,1.6,0,2.4c0,0.5,0,1,0,1.5c0,0.5,0,0,0,0c-0.1,0.5-0.2,0.9-0.4,1.4c-0.1,0.2-0.2,0.4-0.3,0.7c0,0.5-0.3,0.8-0.5,1.2
			v0.5c0,0,0,0.4-0.3,0.5c-1.5,3.1-3.5,5.9-5.9,8.4c-5.2,5.5-11.6,9.7-18.6,12.5c-1.3,0.6-2.7,1-4,1.5l-0.9-3.9l-4-17.6l-1.2-5
			c-0.2-0.1-0.4-0.1-0.6,0h0.6l-1.5-5.9l-3.8-0.4h-1.8c-7.6,0.1-15.1,2.1-21.7,5.9c-2.2,1.2-4.4,2.6-6.4,4.1l-2.1,9.5l-1.3,5.7
			l-1.2,5.5l-1.1,5l-1.4,6.4v0.4l0,0l-5.4,25.2l-1.1,5h5.7h1.4l0,0c4.4,0.5,10.1,0.8,16.6,0.8c3.9,0,7.7,0,11.4-0.4l5.6-0.6
			c7.4-0.8,14.7-2.3,21.8-4.3c17.1-4.4,32.6-13.4,45-26c3.5-3.8,6.6-7.9,9.2-12.3c5.2-9.1,8-19.4,8-29.8
			C540.6,314.4,512.3,290.6,471.9,290.6z M459.6,296.6h1.6c-3.2,0.3-6.4,0.8-9.7,1.4l-7.3,1.5C449.2,297.6,454.4,296.6,459.6,296.6z
			 M444,334.7c4.4-1.6,8.8-2.9,13.3-4C453.2,332.8,448.7,334.1,444,334.7z"/>
		<path class="st0" d="M302,472.6c0,6.4-3.7,11-12.3,11h-34.6v-37.8h33.3c8.6,0,11.2,4.4,11.2,10.1c-0.1,2.7-1.1,5.2-3,7.2
			C300.1,465,302.1,468.7,302,472.6z M264.8,460.7h20.1c2.6,0,5,0,5-3.9c0-3.9-2.4-3.9-5-3.9h-20.1V460.7z M292.3,472.2
			c0-4-2.4-4-5-4h-22.4v8h22.5C289.9,476.1,292.3,476.1,292.3,472.2L292.3,472.2z"/>
		<path class="st0" d="M347.8,467.6v16.1h-9.3v-3.9c-6,3-12.7,4.5-19.4,4.5c-8.9,0-14.5-2.9-14.5-10.1c0-8.3,9.1-10.9,19.2-10.9
			c5,0,9.9,0.7,14.6,2.3c0-6-7.8-6.5-12.1-6.5c-5.4,0-10.7,0.8-15.8,2.3l-3.3-6.7c6.3-2.1,12.9-3.3,19.5-3.3
			C340.1,451.3,347.7,455.6,347.8,467.6z M338.5,471.3c-4.4-1.4-9-2-13.5-2c-6.9,0-11.1,1.2-11.1,4.4s3.1,3.6,7.9,3.6
			c5.7-0.2,11.4-1.4,16.7-3.6V471.3z"/>
		<path class="st0" d="M386.1,452.3v7.8c-2.7-0.7-5.4-1.1-8.2-1.1c-6.1-0.1-12,1.9-16.8,5.6v19.1h-9.3v-31.9h9.3v5.4
			c4.5-4,10.3-6.1,16.3-5.9C380.4,451.3,383.3,451.6,386.1,452.3z"/>
		<path class="st0" d="M434,467.7c0,12.2-8.8,16.5-19,16.5c-5.8,0.4-11.6-1.6-15.9-5.5v5h-9.2v-43.3h9.3v16.4
			c4.3-3.9,10.1-5.9,15.9-5.5C425.2,451.3,434,455.6,434,467.7z M424.6,467.7c0-6.3-4.5-8.8-12.8-8.8c-8.3,0-12.8,2.4-12.8,8.8
			c0,6.3,4.5,8.7,12.8,8.7C420.2,476.4,424.7,474,424.6,467.7L424.6,467.7z"/>
		<path class="st0" d="M470.8,472.3h9.2c-2.1,8.1-10.1,11.9-21.8,11.9c-11.7,0-21.5-4.8-21.5-16.5s9.2-16.5,22-16.5
			c12.1,0,21.8,4.2,21.8,18.7h-34.4c1,5,5.9,6.7,12.1,6.7C464.4,476.6,468.4,475.5,470.8,472.3z M446.4,464.1h24.2
			c-1.6-4.5-6.1-5.7-11.9-5.7C452.8,458.3,448,459.5,446.4,464.1L446.4,464.1z"/>
		<path class="st0" d="M518.1,452.3v7.8c-2.7-0.7-5.4-1.1-8.2-1.1c-6-0.1-11.9,1.8-16.7,5.5v19.1H484v-31.8h9.3v5.4
			c4.5-4,10.3-6.1,16.3-5.9C512.4,451.3,515.3,451.6,518.1,452.3z"/>
	</g>
</g>
</svg>
