<svg id="Camada_1" data-name="Camada 1" xmlns="http://www.w3.org/2000/svg" viewBox="0 0 851.15 902.81"><defs><style>.cls-1{fill:#fff;}</style></defs><title>10-SIRIGUELLA COM FEIJÃO</title><g id="Camada_1-2" data-name="Camada 1"><path class="cls-1" d="M24.85,451.18h0Z" transform="translate(-0.05 0)"/><path class="cls-1" d="M25.88,453.21Z" transform="translate(-0.05 0)"/><path class="cls-1" d="M29.86,460.22h0v0Z" transform="translate(-0.05 0)"/><path class="cls-1" d="M33.84,466.23h0Z" transform="translate(-0.05 0)"/><path class="cls-1" d="M36.86,471.22Z" transform="translate(-0.05 0)"/><path class="cls-1" d="M850.25,179.14c-1.21-14.77-4.91-28.85-9.37-42.73-8.6-26.77-23.82-49.84-42.63-70.44-17.89-19.58-38.63-35.47-63.09-46.41a223.59,223.59,0,0,0-61-17.47C660.34.19,646.37.42,632.57.35,529.76-.14,427,.08,324.15.08c-2.1,0-4.35-.53-6.14,1.17h-3c-3.72,3-7.82,2.15-11.93,1.18a152.47,152.47,0,0,0-35.52,9.68C248.31,20,230.13,29.75,214,43l-2,2c-.37,1-1.15,1.12-2,1.06l-2,2-4,3.2-.84.82L202,53.23l-1.1.81-5,5c-.24.33-.49.67-.74,1l0,0a1.24,1.24,0,0,0-.18.84c-1.39,0-2.16.63-2.09,2.09l-1.14,1-.75.93L186.89,69l-.93.94L185,71l-.75,1a2,2,0,0,0-.21,1l-1.08,1.1L182,75l-1.06,1.07-.85,1v.09c-.08.81-.26,1.57-1.15,1.89-2.21,2.8-4.65,5.44-6.59,8.42-8.34,12.78-15.83,26-21.24,40.36-4.14,11-8.62,21.83-9,33.78-.07,2.44-1.62,3.5-3.47,4.28-6.56,2.78-13.3,5.17-19.7,8.28-16.32,7.92-31.92,17-45.69,29C59.7,215,47.3,227.72,36.89,242.39a202.24,202.24,0,0,0-26.75,53.83,193.58,193.58,0,0,0-10,54.63C-.46,369,2,387,6.14,404.61A158.2,158.2,0,0,0,23,448.12h0a1.9,1.9,0,0,1,.25,0l.39.08a1.76,1.76,0,0,1,.32.12c1,.49,1,1.65.89,2.83v0l0,0c.9.35,1,1.12,1,2h0a4.55,4.55,0,0,1,.58.12c.17,0,.32.09.47.15,2,.78,2,2.76,2,4.74v.07a1.59,1.59,0,0,0,.17.83l.06.09c.23.34.46.67.7,1h.06c3.64.44,3.88,3.14,3.94,5.93v.06h.09c2.89.45,3,2.66,2.91,4.93v0l.11,0a5.16,5.16,0,0,1,.59.11l.06,0c3.39.84,4.13,3.58,4.24,6.77v.08l1,1h.1c1.74,0,2,1,2,2.22,0,.26,0,.52,0,.79v.07a22.23,22.23,0,0,0,2,3.31c11,12.52,22.65,24.14,36,34.23,30.48,23,65.16,34.49,102.58,38,11.81,1.11,23.86,1.17,35.82,1.27,72.1.6,144.2-1.07,216.3.91,25.37.7,50.78.11,76.16.27,11.77.07,23.63,0,35.07-2.46,21.17-4.55,41.64-11.48,60.71-22,25-13.79,46.71-31.73,63.71-54.75,18.73-25.36,31.66-53.5,37.69-84.62a4.91,4.91,0,0,1,3.58-4.19c10.88-2.59,20.46-8,30.32-13,18-9.12,33.74-21.23,48.16-35,9.32-8.91,16.75-19.62,23.92-30.36a204.58,204.58,0,0,0,22.52-45.24c5.57-15.61,10-31.39,11.14-47.73A280.41,280.41,0,0,0,850.25,179.14ZM691.83,384.72v0c-.07.36-.15.71-.24,1.06a25.57,25.57,0,0,1-1,3.19,181.49,181.49,0,0,1-28.89,70.62,178,178,0,0,1-59.84,54.71c-20,11.34-41.46,18.22-64.08,21.82-10.39,1.66-20.86,1.29-31.3,1.27q-148.47-.3-296.94-.72c-25.16,0-49.68-3.38-73.17-12.68-31-12.25-56.41-32-76.65-58.26-27-35.07-38.8-75.12-36.67-119.16,1.19-24.59,8.36-47.68,19-69.9,8.63-18.06,20.56-33.5,35-47.08,15.29-14.42,32.16-26.68,51.8-34.84,7-2.91,14-5.75,21.23-8.14,12-4.15,24.58-6,37.15-6.6,46.88-2.22,93.82-1.78,140.74-1.86q43.47-.07,86.94.13c34.47.2,69-.11,103.4,1.12,36.17,1.28,69.39,12.22,99.19,33.5,32.46,23.17,54.24,54,66.78,91.37a161.79,161.79,0,0,1,4.42,15.7v0c.28,1.17.53,2.33.77,3.5h0q.38,1.75.69,3.51c.32,1.77.63,3.54.9,5.32.19,1.18.35,2.36.51,3.54A203.82,203.82,0,0,1,691.83,384.72ZM770,334.83c-.77.68-1.55,1.35-2.33,2q-2.67,2.3-5.45,4.47c-1.93,1.51-3.88,3-5.87,4.44l-2,1.43q-2,1.41-4.06,2.79c-.68.46-1.37.91-2.06,1.36l-1.73,1.12c-1.82,1.15-3.66,2.29-5.54,3.39q-1.48.89-3,1.74c-.75.44-1.5.86-2.25,1.27l-2,1.07-.67.36c-.64.35-1.29.69-1.94,1q-2.76,1.45-5.59,2.85c-1,.5-2,1-3.07,1.48l-3.29,1.54c-1.11.51-2.21,1-3.33,1.5v-7.51c.31-45.77-13.44-86.93-40.6-123.7-.5-.67-1-1.37-1.9-1.43l-1.27-1.13h.12l0,0c-9.63-14.71-22.3-26.43-36.32-36.82A136.52,136.52,0,0,0,603.08,178c-6.45-2.85-12.47-6.64-19.25-8.81-7-2.24-14-4.57-21-6.87l0,0c-27.87-5.42-56.09-6.38-84.35-6.52h0a8.27,8.27,0,0,1-1.1.23,10.89,10.89,0,0,1-1.14.07,8,8,0,0,1-1.3-.1h0a9,9,0,0,1-1.27-.3h0l-11-.16a0,0,0,0,0,0,0h0a31.94,31.94,0,0,1-3.39.37H381.35l-48.86,0-1-.08-.24,0-.48-.06-.29,0-.29,0-.57-.11h-.05l-117.15.26h-5.77c-12.8.43-25.62.53-38.31,2.57a4.05,4.05,0,0,1-3-.3,1.13,1.13,0,0,1-.2-.17,1.74,1.74,0,0,1-.17-.21,2.31,2.31,0,0,1-.18-.35,4.39,4.39,0,0,1,.22-2.86c6.37-19.6,14.34-38.45,26.25-55.4,25.37-36.13,59.75-59.53,101.93-71.77,4.11-1.19,8.46-1.59,12.7-2.35,12.59-3.48,25.54-3.24,38.39-3.33,90.71-.58,181.42.21,272.13.57.66,0,1.32.11,2,.16q6.68-.39,13.36-.39,9,0,17.88.69l4.43.14a1,1,0,0,1,1.39-.25.92.92,0,0,1,.31.34,170.08,170.08,0,0,1,56.38,10.81c1.53.58,3.15.92,4.73,1.36.53-.81.87-1.91,1.61-2.37a3.46,3.46,0,0,1,4.48.31,2,2,0,0,1,.52.79s0,.08,0,.13c.18,1.08-1.61,1.59-1.82,2.58l0,.08a.49.49,0,0,0,0,.24.13.13,0,0,0,0,.06.5.5,0,0,0,.2.29c1.44,2.38,4.24,2.23,6.36,3.32,29.61,15.34,54.46,36,72.56,64.3a180.65,180.65,0,0,1,13.8,25.85c.55,1.27,1.09,2.56,1.62,3.85.08.21.16.42.25.63.26.61.5,1.22.73,1.83l.81,2.1c.24.61.46,1.22.68,1.84a4.84,4.84,0,0,0,.18.49l.67,1.9c.25.71.49,1.42.73,2.13l.66,2a2.25,2.25,0,0,0,.08.24c.45,1.39.88,2.79,1.28,4.19l.54,1.85q1.32,4.68,2.39,9.45c.1.44.2.87.29,1.31.2.9.39,1.81.57,2.72.3,1.47.58,3,.84,4.44.12.65.23,1.31.34,2,.22,1.28.44,2.56.64,3.85.26,1.66.51,3.33.74,5l.27,2.07c.44,3.47.78,6.93,1,10.4a117.32,117.32,0,0,1-.1,16.45h0a188.26,188.26,0,0,1-29.36,88,170.25,170.25,0,0,1-28.29,33.66C771.47,333.55,770.75,334.19,770,334.83Z" transform="translate(-0.05 0)"/><path class="cls-1" d="M315,1.24c-3.72,3-7.82,2.15-11.93,1.18C307.09,2.35,310.92.45,315,1.24Z" transform="translate(-0.05 0)"/><path class="cls-1" d="M41.93,478.24h0a17.62,17.62,0,0,1-5-7h0C41,471.84,41.81,474.78,41.93,478.24Z" transform="translate(-0.05 0)"/><path class="cls-1" d="M33.9,466.24h0l-.06-.06a13.44,13.44,0,0,1-4-6h0C33.61,460.64,33.83,463.39,33.9,466.24Z" transform="translate(-0.05 0)"/><path class="cls-1" d="M29,458.3c-2-1.13-2.56-3.06-3.07-5.06h0C29,453.67,28.94,456,29,458.3Z" transform="translate(-0.05 0)"/><path class="cls-1" d="M36.91,471.23h0c-1.88-1.13-2.5-3-3-5H34C37,466.66,37,468.93,36.91,471.23Z" transform="translate(-0.05 0)"/><path class="cls-1" d="M24.93,451.22h-.07c-1.22-.67-2.06-1.56-1.82-3.1C25.13,448.27,25,449.73,24.93,451.22Z" transform="translate(-0.05 0)"/><path class="cls-1" d="M45,482.28a3.31,3.31,0,0,1-2.08-3.08h0C45.14,479.18,45,480.74,45,482.28Z" transform="translate(-0.05 0)"/><path class="cls-1" d="M212,45c-.37,1-1.15,1.12-2,1.06h0C210.21,44.92,211.22,45.2,212,45Z" transform="translate(-0.05 0)"/><path class="cls-1" d="M180,77.19c-.08.81-.26,1.57-1.15,1.89C179.26,78.45,179.64,77.82,180,77.19Z" transform="translate(-0.05 0)"/><path class="cls-1" d="M25.93,453.22h0c-1.06-.3-.84-1.27-1-2H25C25.87,451.57,26,452.35,25.93,453.22Z" transform="translate(-0.05 0)"/><path class="cls-1" d="M184.93,71h0l-.75,1C184,71.42,184.4,71.17,184.93,71Z" transform="translate(-0.05 0)"/><path class="cls-1" d="M202,53.23l-1.1.81C201.07,53.5,201.33,53.1,202,53.23Z" transform="translate(-0.05 0)"/><path class="cls-1" d="M204,51.26l-.84.82C203.06,51.44,203.33,51.16,204,51.26Z" transform="translate(-0.05 0)"/><path class="cls-1" d="M29.93,460.28h-.06c-.51-.19-.89-.47-.74-1.13.25.37.5.73.76,1.09Z" transform="translate(-0.05 0)"/><path class="cls-1" d="M195.93,59h0c-.25.34-.51.7-.77,1C195,59.43,195.4,59.17,195.93,59Z" transform="translate(-0.05 0)"/><path class="cls-1" d="M198.94,56l-1,1Z" transform="translate(-0.05 0)"/><path class="cls-1" d="M672.14,234.88Z" transform="translate(-0.05 0)"/><path class="cls-1" d="M830,194.79a117.32,117.32,0,0,1-.1,16.45h0a188.26,188.26,0,0,1-29.36,88,170.25,170.25,0,0,1-28.29,33.66,169.24,169.24,0,0,0,28.41-33.73,188.23,188.23,0,0,0,29.36-88A117.82,117.82,0,0,0,830,194.79ZM762.25,341.32c-1.93,1.51-3.88,3-5.87,4.44Q759.36,343.62,762.25,341.32Zm-7.87,5.87q-2,1.41-4.06,2.79C751.69,349.07,753,348.15,754.38,347.19ZM721.75,36.71a.53.53,0,0,1,.06-.24h0A.49.49,0,0,0,721.75,36.71ZM346,23.28a5.22,5.22,0,0,1,1.19-.05A4.69,4.69,0,0,0,346,23.28Zm-.41.08a5.66,5.66,0,0,0-1.15.41A7.18,7.18,0,0,1,345.6,23.36ZM168.37,158.26a4.05,4.05,0,0,1-3-.3,4,4,0,0,0,3,.33c12.69-2,25.51-2.14,38.31-2.57l0,0h-.06C193.88,156.12,181.06,156.22,168.37,158.26Z" transform="translate(-0.05 0)"/><path class="cls-1" d="M649.74,22.63c-10.43.46-20.83.84-31.23-.3A230.83,230.83,0,0,1,649.74,22.63Z" transform="translate(-0.05 0)"/><path class="cls-1" d="M721.82,36.47h0l-.75,0a8.77,8.77,0,0,1-1.15-.07,2.89,2.89,0,0,1-.41-.06c-.14,0-.28-.06-.42-.09l-.18-.06a3.51,3.51,0,0,1-.73-.3l-.24-.14a4.16,4.16,0,0,1-.69-.52L717,35c.53-.81.87-1.91,1.61-2.37a3.46,3.46,0,0,1,4.48.31,2.27,2.27,0,0,1,.5.71s0,.08,0,.13C723.91,34.94,722,35.45,721.82,36.47Z" transform="translate(-0.05 0)"/><path class="cls-1" d="M655.88,22.86l-1.7-.09a1,1,0,0,1,1.39-.25A.92.92,0,0,1,655.88,22.86Z" transform="translate(-0.05 0)"/><path class="cls-1" d="M691.53,335.9q-.24-1.77-.51-3.54c-.27-1.78-.58-3.55-.9-5.32q-.33-1.75-.69-3.51h0c-.25-1.17-.51-2.34-.77-3.5v0q-1.83-7.89-4.43-15.67C671.69,267,649.91,236.13,617.45,213c-29.8-21.28-63-32.22-99.19-33.5-34.44-1.23-68.93-.92-103.4-1.12q-43.47-.25-86.94-.13c-46.92.08-93.86-.36-140.74,1.86-12.57.59-25.1,2.45-37.14,6.6h0c-.15,15.25.16,30.44,2.83,45.56a212.86,212.86,0,0,0,13,44.21c.65,1.58,1.49,3.09,1.36,4.85a1.52,1.52,0,0,1,0,.3s0,0,0,.07l.45.23a4.7,4.7,0,0,1,.74.52l.21.19a3.88,3.88,0,0,1,.39.42l.18.23a1.51,1.51,0,0,1,.18.26,5.62,5.62,0,0,1,.46.79c.56,1.09.93,2.3,1.49,3.38a189.52,189.52,0,0,0,55.09,65,191.71,191.71,0,0,0,73.27,33.7,149.38,149.38,0,0,0,27.29,3.52l1.84.06c70.45,2.09,140.93.21,211.38,1.39,37.64.63,75.27.68,112.91.65,8.64,0,17.28-.63,25.92-1l11.62-2a25.57,25.57,0,0,0,1-3.19c.09-.36.17-.73.24-1.09A203.82,203.82,0,0,0,691.53,335.9Zm-314.72-5c-.39,4,0,8-.19,12-.08,2.14-.16,4.62-3.54,4l-3.14.1-4.83-.12-8.19,0a13.16,13.16,0,0,1-5.79,0h-9a19.23,19.23,0,0,1-7.29-.16c-11.93,1.94-23.1-2.11-34.16-5.17a119.09,119.09,0,0,1-41.54-20.73C242.8,308.1,231.08,292,222.37,273.47c-7.1-15.14-10-31.27-12.36-47.6-.56-4,.54-6,5-5.76a84.32,84.32,0,0,0,12-.16c4.3-.38,5.63,1.27,6.19,5.52,2.53,19.51,8.13,38,19.56,54.34,17.52,25,41.72,39.26,71.77,43.45,15.35,2.14,30.87,2.1,46.35,1.79C375.33,324.94,377.29,326.1,376.81,330.91Zm263.93,14.15a3,3,0,0,1-.09.45,2.15,2.15,0,0,1-.15.38h0a1.55,1.55,0,0,1-.2.32,2,2,0,0,1-1,.7,1,1,0,0,1-.29.1,1.15,1.15,0,0,1-.32.08,7.83,7.83,0,0,1-1.77.14l-4.87-.12c-3.36-.08-6.72-.12-10.09.12a4.9,4.9,0,0,1-3.47-.74,1.42,1.42,0,0,1-.29-.26A1.21,1.21,0,0,1,618,346a7.19,7.19,0,0,1-1-3.68,123.25,123.25,0,0,0-4-22.12c-.2-.79-.42-1.57-.68-2.35s-.46-1.55-.72-2.32c-.73-2.31-1.55-4.6-2.46-6.84-.34-.87-.7-1.73-1.06-2.59a104.49,104.49,0,0,0-6.22-12.26c-.36-.62-.74-1.23-1.12-1.84s-.68-1.08-1-1.62c-.44-.7-.91-1.4-1.38-2.09-.31-.46-.62-.91-.94-1.36-.82-1.17-1.66-2.32-2.54-3.46L593.74,282c-.19-.25-.38-.49-.58-.73l-.59-.72c-.38-.47-.77-.93-1.17-1.4-.82-1-1.67-1.94-2.55-2.9-.29-.3-.57-.61-.85-.92s-.32-.35-.49-.52l-1.25-1.3c-.43-.45-.88-.9-1.34-1.35-19-18.84-42.49-27.72-69-29q-18.46-.87-37-.76a7.37,7.37,0,0,1-3.52-.68l-.13-.07-.25-.16a.8.8,0,0,1-.19-.13,1.67,1.67,0,0,1-.28-.25s0,0,0,0a4.13,4.13,0,0,1-.28-.31c-.75-1-.93-2.51-.82-4.42a96.33,96.33,0,0,0,.38-10.47c-.19-3.76,1.37-5,5-5,2,0,4,0,6,0h1.5c5,0,10,0,15,0,13.08.07,26.16-.09,39.06,3a141.15,141.15,0,0,1,38.57,15.54c21.34,12.61,36.73,29.09,46.82,49,.26.49.51,1,.75,1.49,1,2.13,2,4.3,3,6.51.25.54.47,1.09.68,1.64l.66,1.66c.39,1,.77,2,1.13,3l.12.34c.21.56.4,1.13.59,1.7s.38,1.11.56,1.67q.36,1.08.69,2.16c.68,2.17,1.3,4.38,1.88,6.63.23.89.45,1.79.66,2.69.46,1.94.89,3.91,1.27,5.9.16.78.3,1.56.45,2.34,0,0,0,0,0,.07.14.81.28,1.62.41,2.44.27,1.63.51,3.28.73,4.93.2,1.49.35,3,.53,4.5.14,1.19.29,2.36.49,3.53,0,.2.07.4.11.6s.11.58.17.87a7.32,7.32,0,0,1,.18,1.5A3.79,3.79,0,0,1,640.74,345.06Z" transform="translate(-0.05 0)"/><path class="cls-1" d="M672.26,234.93h0Z" transform="translate(-0.05 0)"/><path class="cls-1" d="M462.58,155.5a30.83,30.83,0,0,1-3.42.38q-63.32,0-126.64-.06a20.43,20.43,0,0,1-2.89-.38c1.65-.1,3.3-.28,5-.28H457.71C459.3,155.2,460.94,155.39,462.58,155.5Z" transform="translate(-0.05 0)"/><path class="cls-1" d="M478.43,155.76a8.62,8.62,0,0,1-4.88-.1A6.54,6.54,0,0,1,478.43,155.76Z" transform="translate(-0.05 0)"/><path class="cls-1" d="M208.33,155.76h-1.62a1.26,1.26,0,0,1,.2-.2.47.47,0,0,1,.12-.09l.09-.06a.7.7,0,0,1,.57-.1h.13l.16.08A1.39,1.39,0,0,1,208.33,155.76Z" transform="translate(-0.05 0)"/><path class="cls-1" d="M212.46,155.7h-.87C211.88,155.22,212.17,155.23,212.46,155.7Z" transform="translate(-0.05 0)"/><path class="cls-1" d="M350.43,24.25c-3,1.19-4.89.89-6.75-.08a7.08,7.08,0,0,1,.77-.4,5.66,5.66,0,0,1,1.15-.41,2.7,2.7,0,0,1,.41-.08,4.69,4.69,0,0,1,1.19-.05h.11l.53.07a4.09,4.09,0,0,1,.56.13l.22.06a9.78,9.78,0,0,1,1.3.5Z" transform="translate(-0.05 0)"/><path class="cls-1" d="M167.22,281.33c.13-1.76-.71-3.27-1.36-4.85a212.86,212.86,0,0,1-13-44.21c-2.67-15.12-3-30.31-2.83-45.56h0c-.15,15.23.16,30.39,2.83,45.49a212.86,212.86,0,0,0,13,44.21C166.52,278,167.38,279.53,167.22,281.33Z" transform="translate(-0.05 0)"/><path class="cls-1" d="M326.93,389.94a149.38,149.38,0,0,1-27.29-3.52,191.71,191.71,0,0,1-73.27-33.7,189.52,189.52,0,0,1-55.09-65c-.56-1.08-.93-2.29-1.49-3.38a5.62,5.62,0,0,0-.46-.79,1.51,1.51,0,0,0-.18-.26l-.18-.23a3.88,3.88,0,0,0-.39-.42l-.21-.19a4.7,4.7,0,0,0-.74-.52l-.45-.23s0,0,0-.07l.45.22a4.7,4.7,0,0,1,.74.52l.21.19a3.89,3.89,0,0,1,.39.42l.18.23a1.51,1.51,0,0,1,.18.26,7.75,7.75,0,0,1,.46.79c.56,1.09.93,2.3,1.49,3.38a189.52,189.52,0,0,0,55.09,65,191.71,191.71,0,0,0,73.27,33.7A151.93,151.93,0,0,0,326.93,389.94Z" transform="translate(-0.05 0)"/><path class="cls-1" d="M478.75,220.84l6,.09c-2,0-4,0-6,0-3.63,0-5.19,1.24-5,5a96.33,96.33,0,0,1-.38,10.47c-.11,1.91.07,3.4.82,4.42-.79-1-1-2.52-.86-4.46a96.33,96.33,0,0,0,.38-10.47C473.56,222.08,475.12,220.84,478.75,220.84Z" transform="translate(-0.05 0)"/><path class="cls-1" d="M609.17,308.69c.91,2.24,1.73,4.53,2.46,6.84C610.89,313.22,610.07,310.93,609.17,308.69Z" transform="translate(-0.05 0)"/><path class="cls-1" d="M611.63,315.53c.26.77.51,1.54.72,2.32C612.12,317.08,611.88,316.3,611.63,315.53Z" transform="translate(-0.05 0)"/><path class="cls-1" d="M612.35,317.85c.26.78.48,1.56.68,2.35C612.81,319.41,612.59,318.63,612.35,317.85Z" transform="translate(-0.05 0)"/><path class="cls-1" d="M617,342.32a7.19,7.19,0,0,0,1,3.68,7.06,7.06,0,0,1-1.07-3.73A126.3,126.3,0,0,0,613,320.2,123.25,123.25,0,0,1,617,342.32Z" transform="translate(-0.05 0)"/><path class="cls-1" d="M639.32,333.68c.2,1.46.34,2.93.5,4.39-.18-1.5-.33-3-.53-4.5-.22-1.65-.46-3.3-.73-4.93C638.84,330.3,639.09,332,639.32,333.68Z" transform="translate(-0.05 0)"/><path class="cls-1" d="M640.3,346.22a2.05,2.05,0,0,0,.35-.71A2,2,0,0,1,640.3,346.22Z" transform="translate(-0.05 0)"/><path class="cls-1" d="M369.93,347a3.6,3.6,0,0,0-4.81-.12A3.58,3.58,0,0,1,369.93,347Z" transform="translate(-0.05 0)"/><path class="cls-1" d="M356.92,346.84a13.16,13.16,0,0,1-5.79,0A5.45,5.45,0,0,1,356.92,346.84Z" transform="translate(-0.05 0)"/><path class="cls-1" d="M369.93,347l-4.81-.12A3.58,3.58,0,0,1,369.93,347Z" transform="translate(-0.05 0)"/><path class="cls-1" d="M345.91,346.85h-3.77a4.22,4.22,0,0,1,.41-.33,2.74,2.74,0,0,1,2.94,0,4.22,4.22,0,0,1,.41.33Z" transform="translate(-0.05 0)"/></g><g id="Camada_2" data-name="Camada 2"><path class="cls-1" d="M47.69,686.12a9,9,0,0,0,9,9h9.45a35.13,35.13,0,0,1,1.19,70.25H22.77V738.62H65.69a9,9,0,1,0,0-18H57.9a35.13,35.13,0,0,1-1.21-70.23H135.9v26.75H56.69A9,9,0,0,0,47.69,686.12Z" transform="translate(-0.05 0)"/><rect class="cls-1" x="111.97" y="695.12" width="23.83" height="70.25"/><path class="cls-1" d="M260.37,765.37h-33.7L180,718.72v46.65H156.19V695.12h18.94a.27.27,0,0,1,0-.12h32.58a9.42,9.42,0,0,0,1.51.12,9.29,9.29,0,0,0,1.5-.12,9.5,9.5,0,0,0-1.5-18.88h-62V650.37H209a35.19,35.19,0,0,1,7.52,69.56l-1.32.27Z" transform="translate(-0.05 0)"/><rect class="cls-1" x="252.72" y="695.12" width="23.83" height="70.25"/><rect class="cls-1" x="252.72" y="650.37" width="23.83" height="25.75"/><rect class="cls-1" x="382.72" y="650.37" width="23.83" height="25.75"/><rect class="cls-1" x="445.3" y="650.37" width="23.83" height="25.75"/><polygon class="cls-1" points="650.97 739.62 650.97 765.43 574.3 765.43 574.3 650.37 598.13 650.37 598.13 739.62 650.97 739.62"/><rect class="cls-1" x="681.72" y="752.62" width="32.75" height="12.81"/><polygon class="cls-1" points="850.69 764.32 848.77 765.43 749.4 765.43 764.3 739.62 805.75 739.62 780.06 695.12 754.37 739.62 747.14 752.15 739.47 765.43 721.72 765.43 721.72 747.37 674.22 747.37 674.22 765.43 660.88 765.43 660.88 650.37 684.71 650.37 684.71 739.62 723.69 739.62 764.72 668.55 780.06 641.98 795.4 668.55 836.43 739.62 850.69 764.32"/><rect class="cls-1" x="478.72" y="650.37" width="85.25" height="25.75"/><polygon class="cls-1" points="502.55 739.68 563.97 739.68 563.97 765.43 478.72 765.43 478.72 695.02 555.64 695.02 529.89 720.77 502.55 720.77 502.55 739.68"/><path class="cls-1" d="M300.77,708a31.89,31.89,0,0,0,47,28.06V720.74H306.94V718.8L330.63,695h31.12a.61.61,0,0,1,0,.12h11.72v70.31h-39a57.83,57.83,0,0,1-58-56.79v-1.48A57,57,0,0,1,288,673.6a58,58,0,0,1,46.53-23.23h39v25.75H332.64A31.87,31.87,0,0,0,300.77,708Z" transform="translate(-0.05 0)"/><path class="cls-1" d="M469.18,695v27.2a43.09,43.09,0,0,1-2.09,13.32,45,45,0,0,1-1.77,4.57H431.85a26.07,26.07,0,0,0-19.07,7.71,25.11,25.11,0,0,0-7.12,12.54,43.12,43.12,0,0,1-22.89-38.14V695H406.6v22.81a19.38,19.38,0,0,0,38.75.88q0-.44,0-.88V695Z" transform="translate(-0.05 0)"/><path class="cls-1" d="M42.21,848.29h69.65v20.5H42.21a20.39,20.39,0,0,1-15.06-6.34,20.94,20.94,0,0,1-6.25-15.26V799.61a20.94,20.94,0,0,1,6.25-15.26A20.39,20.39,0,0,1,42.21,778h69.34v20.5H42.21a1,1,0,0,0-1.08,1.1v47.58a1,1,0,0,0,.88,1.11Z" transform="translate(-0.05 0)"/><path class="cls-1" d="M210.61,784.34A20.4,20.4,0,0,0,195.55,778H147.21a20.38,20.38,0,0,0-15.06,6.35,21,21,0,0,0-6.25,15.26v47.57a21,21,0,0,0,6.25,15.26,20.4,20.4,0,0,0,15.06,6.34h48.34a20.4,20.4,0,0,0,15.06-6.34,21,21,0,0,0,6.25-15.26V799.6A21,21,0,0,0,210.61,784.34Zm-14,62.84a.6.6,0,0,1,0,.19,1,1,0,0,1-1.08.91H147a1,1,0,0,1-.89-1.1V799.6a.6.6,0,0,1,0-.19,1,1,0,0,1,1.08-.91h48.34v0h.18a1,1,0,0,1,.9,1.09Z" transform="translate(-0.05 0)"/><path class="cls-1" d="M343.07,778a20.39,20.39,0,0,1,15.06,6.34,20.94,20.94,0,0,1,6.25,15.26v69.17H344.3V799.61c0-.73-.41-1.1-1.24-1.1H309.4c-.62,0-.93.37-.93,1.1v69.17H288.09V799.61c0-.73-.31-1.1-.93-1.1H253.34a1,1,0,0,0-1.08,1.1v69.17H232V778Z" transform="translate(-0.05 0)"/><path class="cls-1" d="M436.1,768.94q-1.08,0-1.08.94V778h34.9v20.5H435v70.27H414.78V769.88A21.07,21.07,0,0,1,421,754.62a20.31,20.31,0,0,1,15.13-6.34H470v20.66Z" transform="translate(-0.05 0)"/><path class="cls-1" d="M567,833.73V799.61a20.92,20.92,0,0,0-6.23-15.27A20.4,20.4,0,0,0,545.71,778H497.37a20.38,20.38,0,0,0-15.06,6.35,21,21,0,0,0-6.25,15.26v47.58a21,21,0,0,0,6.25,15.26,20.4,20.4,0,0,0,15.06,6.34H567v-20.5H497.37a1.2,1.2,0,0,1-.19,0,1,1,0,0,1-.89-1.1V833.73Zm-70.71-34.12a.61.61,0,0,1,0-.19,1,1,0,0,1,1.08-.91h48.34a1.2,1.2,0,0,1,.19,0,1,1,0,0,1,.89,1.1v13.45h-50.5Z" transform="translate(-0.05 0)"/><path class="cls-1" d="M733.25,784.34A20.4,20.4,0,0,0,718.19,778H648.54v20.51H718.2a1.2,1.2,0,0,1,.19,0,1,1,0,0,1,.89,1.1v13.46H648.55v34.1a21,21,0,0,0,6.25,15.26,20.4,20.4,0,0,0,15.06,6.34H739.5V799.6A21,21,0,0,0,733.25,784.34Zm-14,63.93-49.42,0a1.2,1.2,0,0,1-.19,0,1,1,0,0,1-.89-1.1V833.73h50.5Z" transform="translate(-0.05 0)"/><path class="cls-1" d="M843.4,784.34A20.4,20.4,0,0,0,828.34,778H780a20.37,20.37,0,0,0-15,6.35,21,21,0,0,0-6.25,15.26v47.58A21,21,0,0,0,765,862.45a20.41,20.41,0,0,0,15,6.33h48.34a20.4,20.4,0,0,0,15.06-6.34,21,21,0,0,0,6.25-15.26V799.6A21,21,0,0,0,843.4,784.34Zm-14,62.84a.6.6,0,0,1,0,.19,1,1,0,0,1-1.08.91H779.81a1,1,0,0,1-.89-1.1V799.6a.6.6,0,0,1,0-.19,1,1,0,0,1,1.08-.91h48.34l0,0h.15a1,1,0,0,1,.9,1.09Z" transform="translate(-0.05 0)"/><path class="cls-1" d="M615.32,809.25v75.67q0,.78-1.08.78H575.63v17.11h38.61a22.66,22.66,0,0,0,15.06-5.25q6.25-5.25,6.26-12.64V809.25Zm0-31.62V797.4h20.24V777.63Z" transform="translate(-0.05 0)"/><path class="cls-1" d="M581,777.63v19.29h18.09V777.63Zm0,31.49v59.67h18.09V809.12Z" transform="translate(-0.05 0)"/><rect class="cls-1" x="681.72" y="752.62" width="32.75" height="12.81"/><rect class="cls-1" x="681.72" y="752.62" width="32.75" height="12.81"/></g></svg>