<svg id="Camada_1" data-name="Camada 1" xmlns="http://www.w3.org/2000/svg" viewBox="0 0 2663.61 686.27"><defs><style>.cls-1{fill:#fff;}</style></defs><title>11-SIMPLICIO GOVERNADOR</title><path class="cls-1" d="M985,449.2v68H807v-297c.1-2,.1-2,1.1-3h82c.3,75.9.7,151.8,1,230l93,1a4.07,4.07,0,0,0,.9,1Z"/><path class="cls-1" d="M1063,217.2c1.9,1.9,1.1,4.9,1.1,7.5V370.6q0,45.3-.1,90.7H996V217.2Z"/><path class="cls-1" d="M1316.9,399.4V220.3a6.37,6.37,0,0,1,1.1-3.2c8.4,0,16.9-.1,25.3-.1,3.9,0,7.8,0,11.8-.1h25.2c2.7.2,2.7.2,4.7,2.2a16.28,16.28,0,0,1,.3,4V370.9c0,30.1-.1,60.1-.1,90.2h-64.4c-2.7-.1-2.7-.1-3.7-1.1-.1-3.1-.1-6.2-.1-9.3V413.2C1316.9,408.8,1316.9,404.1,1316.9,399.4Z"/><path class="cls-1" d="M2663.3,27.9c-.8,7-3.3,13.7-5.4,20.4-1.6,5-3,10.1-4.5,15.1-.6,2-1.2,4.1-1.8,6.1-1,3.3-1.9,6.6-2.9,9.9-1.9,6.7-3.9,13.3-5.9,20-.4,1.3-.8,2.6-1.2,4-.8,2.6-1.6,5.2-2.3,7.7-2.3,7.5-4.4,14.9-6.3,22.5-1.5,5.7-3.1,11.3-4.7,17-.3,1.2-.7,2.4-1,3.6q-3.45,12-7.2,24c-3.2,10.1-6.1,20.3-8.9,30.6-2.5,9.2-5.1,18.4-7.7,27.5-.4,1.5-.8,3-1.3,4.5-2.5,8.9-5.2,17.8-8,26.7-1.9,6-3.7,12-5.5,18-.4,1.2-.7,2.3-1.1,3.5l-1,3.4-.9,3a87.61,87.61,0,0,0-1.8,8.9h66c-.1.3-.1.7-.2,1-.5,3-1.1,5.8-1.7,8.6-.2,1.1-.5,2.1-.7,3.2-.2.7-.4,1.5-.6,2.2-.4,1.6-.9,3.3-1.4,4.9-.5,1.8-1.1,3.5-1.6,5.2-.4,1.4-.4,1.4-.9,2.8-.1.5-.3,1-.4,1.4h0c-.8,2.6-1.5,5.2-2.3,7.7s-1.4,4.9-2.1,7.3c-.3,1.2-.7,2.4-1,3.6-.7,2.4-1.4,4.8-2.1,7.3-2,7-4,14.1-6,21.1l-5.1,18c-6.3,22.2-6.3,22.2-9.8,33-.8,2.7-1.6,5.5-2.4,8.3v.1a21.7,21.7,0,0,1-.7,2.4c-.3,1.3-.7,2.5-1,3.8h-1c-17.6.3-35.1.5-53,.8-4.6.1-9.3.1-14,.2l-.6,1.8h0c-2.1,6.9-4.2,13.8-6.2,20.8-2.7,9.7-5.6,19.3-8.4,28.9-1.7,5.8-3.4,11.5-4.9,17.3-5.7,20.9-11.6,41.7-18,62.4-4.6,15.1-9,30.4-13.3,45.6-2.3,8.1-4.7,16.1-7.2,24.2-1.7,5.4-3.2,10.9-4.6,16.4-1.8,7-3.8,13.8-8.6,19.3a1.38,1.38,0,0,0-.3.4c-.1.2-.3.3-.4.5a1.21,1.21,0,0,1-.5.5,31.4,31.4,0,0,1-7.2.7h-68.8c-9.6,0-19.2,0-28.9.1-8.3,0-16.5.1-24.8.1h-33.8c-12.8.2-12.8.2-17.1-2.8a20.18,20.18,0,0,1-4.8-8.2c-.3-1.2-.5-2.3-.7-3.6,0-.2-.1-.5-.1-.7a54.65,54.65,0,0,1-.1-5.8,15,15,0,0,1,.2-2.2h0a38.49,38.49,0,0,1,.8-4.9c.7-3.3,1.6-6.6,2.6-10,.4-1.2.7-2.5,1.1-3.7l3.6-12c.4-1.4.8-2.8,1.3-4.2l4.5-15V613c.4-1.3.8-2.6,1.2-4,.6-2,1.2-4.1,1.9-6.1,1.4-4.7,2.9-9.4,4.3-14.2.2-.8.5-1.5.7-2.3,1.3-4.3,2.6-8.7,3.8-13,2.6-9.1,5.3-18.2,8.4-27.2,2.2-6.5,4.1-13,5.9-19.6.5-1.8,1-3.7,1.5-5.5V521l.6-2.1c.2-.7.4-1.4.6-2s.3-.9.4-1.3.3-1,.4-1.5c.4-1.4.8-2.8,1.3-4.2s.9-2.8,1.3-4.2c1-3.2,2.1-6.5,3.1-9.7.7-2.3,1.5-4.5,2.2-6.8l1.8-5.7a3.59,3.59,0,0,1,.4-1.1c.2-.7.4-1.3.6-2,.6-1.8,1.1-3.7,1.7-5.6,1.6-5.2,3.1-10.5,4.6-15.7.5-1.9,1.1-3.8,1.6-5.7a.31.31,0,0,1,.1-.2c.7-2.3,1.3-4.6,2-7h-85c.1-.6.3-1.1.4-1.6.2-.8.4-1.5.6-2.3.3-1.3.7-2.6,1-3.9.5-2.1,1.1-4.1,1.7-6.2.3-1.2.7-2.4,1-3.6.9-3.2,1.9-6.3,3-9.6.3-1,.6-1.9.9-2.9h0c0-.1.1-.2.1-.3q1.35-4.35,2.4-8.7c2.2-8.3,4.8-16.4,7.5-24.6.2-.7.4-1.3.6-2,.3-1,.7-2.1,1-3.1a10.94,10.94,0,0,0,.5-1.7h0c2.1-6.6,4.2-13.1,6.2-19.7,0-.1.1-.1.1-.2.7-2.2,1.3-4.3,2-6.4,2.8-9.3,5.7-18.7,8.6-27.9.5-1.5.9-2.9,1.4-4.4l1.2-3.6c.2-.6.4-1.3.6-1.9s.3-.9.4-1.4c.3-1,.6-1.9.9-2.9.8-2.2.8-2.2,1.8-3.2,2.6-.1,5.2-.1,7.8-.1h76.3c1.1-3.6,2.2-7.1,3.2-10.7v-.1c.2-.8.5-1.6.7-2.4.4-1.2.7-2.4,1.1-3.6l.3-.9c1.8-6.1,3.7-12.2,5.5-18.3.4-1.3.8-2.5,1.1-3.8l2.7-9c.4-1.4.8-2.7,1.2-4.1h0c.8-2.6,1.6-5.3,2.4-7.9l2.7-8.7,1.8-5.7a10.94,10.94,0,0,0,.5-1.7c1.3-4,2.4-8,3.6-12,.6-2.1,1.2-4.2,1.8-6.4q2.85-9.9,6-19.8c1-3.2,1.9-6.4,2.8-9.6.3-1,.5-2,.8-3,.2-.8.4-1.5.6-2.3H2425c-30.3.1-60.7.3-91,.3h-13.5c-12,0-24.1.1-36.1.1-12.3.1-24.7.1-37,.1-7.6,0-15.2,0-22.9.1H2190c-.9,0-1.9,0-2.9.1-6.3-.1-6.3-.1-9.2-2.4-3.9-4.5-5.2-7.4-5.3-13.4V146.4c0-4.9-.1-9.8-.1-14.6v-2.5c0-7.8-.1-15.7-.1-23.5,0-10-.1-20.1-.2-30.1-.1-7-.1-14.1-.1-21.2,0-4.2,0-8.4-.1-12.6,0-4-.1-7.9,0-11.9V25.7c-.1-9.5-.2-11.7,1.9-14.6.1-.1.1-.1.1-.2.6-.8,1.3-1.7,2.3-2.8a16.36,16.36,0,0,1,5.2-3.5,12.85,12.85,0,0,1,3.4-.7c1.3-.1,2.8-.1,4.5-.1H2385q34.2,0,68.4-.1,36.15,0,72.3-.1H2647a16.2,16.2,0,0,1,4,.5,13.16,13.16,0,0,1,3.9,1.5,36.83,36.83,0,0,1,5.8,4.1C2664.5,14.4,2663.6,22.2,2663.3,27.9Z"/><path class="cls-1" d="M2249,305.2c-.4,1.6-.8,3.1-1.2,4.3-.5,2-.9,3.5-1.3,4.8h0c-.7,2.7-1.1,4.1-1.6,5.9-.2.8-.5,1.6-.8,2.7-.5,1.8-.5,1.8-1,3.7-.4,1.3-.7,2.6-1.1,3.9l-.6,2.1-.6,2.1c-.4,1.5-.8,2.9-1.2,4.4-.2.7-.4,1.5-.6,2.3-1.3,4.7-2.6,9.4-4,14.1-.1.5-.3,1-.4,1.4-.6,2.1-1.2,4.1-1.7,6.2-.8,3-1.7,5.9-2.5,8.9v.1c-.1.5-.3.9-.4,1.3v.1c-3.3,11.6-6.7,23.2-10.3,34.7-3.9,12.6-7.2,25.3-10.6,38l-71,1c-4.7,16.5-4.7,16.5-9.4,33.1-2.5,8.9-5,17.8-7.6,26.7-2.8,9.7-5.5,19.3-8.1,29-6.1,22.1-12.5,44-19.4,65.8a17.21,17.21,0,0,1-.7,2.1c-.6,1.8-1.2,3.6-1.7,5.4-1.3,4.1-2.3,8.3-3.3,12.5-1.4,5.6-2.9,11.1-4.3,16.7-.4,1.3-.7,2.6-1,4a179.47,179.47,0,0,1-5.9,19.3c-.2.5-.4,1-.6,1.4-.4,1-.7,2-1,3-.1.4-.3.8-.4,1.2-.3.8-.6,1.6-.8,2.3l-.6,1.8c-.2.7-.5,1.4-.7,2.2s-.5,1.5-.7,2h0c-1,2.6-1.3,3.1-2.5,4a5.54,5.54,0,0,1-.8.6c-.1,0-.1,0-.2.1-3.1,1-6,1-9.3,1h-14.7c-4.7,0-9.4,0-14.1.1h-8.8c-9.2,0-18.4,0-27.6.1-10.6,0-21.3,0-31.9.1-8.2,0-16.4.1-24.7.1h-33.6c-14.4.2-14.4.2-18.9-3.5a16.2,16.2,0,0,1-3.5-5.3c-1.3-3.2-1.4-6.5-1.3-10.7a62.29,62.29,0,0,1,3-13.6c.1-.3.2-.6.3-1,.1-.2.1-.4.2-.5s.1-.2.1-.3c.2-.6.3-.9.5-1.6,0-.1.1-.3.1-.4s.1-.2.1-.3c.6-2.1,1.3-4.2,2-6.4v-.1c.3-.8.5-1.6.8-2.4l2.7-8.7c.6-1.8,1.1-3.6,1.7-5.4l6-19.8c.5-1.8,1.1-3.6,1.6-5.4a5.65,5.65,0,0,1,.4-1.2c2.9-10,6-19.9,9-29.9v-.1c1-3.3,2-6.5,3-9.8.6-2,1.3-4.1,1.9-6.1,1.2-4,2.5-8,3.7-12,.4-1.4.9-2.8,1.3-4.3h0c.3-1.1.6-2.1.9-3.2a12.11,12.11,0,0,0,.5-1.8c.5-1.6,1-3.3,1.4-4.9.8-2.9,1.7-5.8,2.5-8.8.3-1.3.7-2.5,1.1-3.8.3-1,.5-1.9.8-2.9.4-1.5.9-3.1,1.3-4.6v-.1c2.7-9.1,5.5-18,8.4-27,.7-2.1,1.4-4.3,2.1-6.4.3-1,.6-2,1-3,.6-1.8,1.2-3.7,1.8-5.5.3-.8.5-1.6.8-2.5a17.21,17.21,0,0,1,.7-2.1c.1-.5.3-1,.4-1.6,0-.1.1-.2.1-.3.8-2.9,1.5-5.8,2.2-8.6h-83c.1-.7.3-1.5.4-2.2a125.8,125.8,0,0,1,3.2-13.8h0c.4-1.2.8-2.4,1.2-3.7,2-5.7,3.8-11.4,5.5-17.2.8-2.6,1.5-5.3,2.3-7.9l.3-.9c.8-2.6,1.5-5.2,2.3-7.7s1.5-4.8,2.2-7.2c.2-.6.4-1.3.6-1.9,2.3-7.3,4.6-14.6,7.2-21.8,1.3-3.5,2.5-7.1,3.6-10.7v-.1c.4-1.3.8-2.7,1.2-4,.5-1.6.9-3.2,1.4-4.8,1.8-6.4,3.7-12.7,5.6-19,.2-.8.5-1.5.7-2.3.4-1.3.8-2.5,1.1-3.8s.8-2.5,1.1-3.8a.31.31,0,0,1,.1-.2c.3-1,.6-1.9.9-2.9,0-.1.1-.2.1-.4s.1-.2.1-.3a20.12,20.12,0,0,1,1.8-4.4c27.4-.3,54.8-.7,83-1,1.3-4.6,2.7-9.2,4-13.8,1-3.4,2-6.7,3-10.2,1.7-5.7,3.4-11.3,5.3-16.9.3-.8.5-1.6.8-2.4v-.1l3-9.3c.9-2.8,1.7-5.7,2.5-8.6.2-.8.5-1.7.7-2.5,0-.1,0-.1.1-.2v-.1c.6-2.3,1.3-4.6,1.9-6.9.9-3.4,1.8-6.7,2.8-10,1.1-3.7,2.2-7.5,3.3-11.2.1-.3.1-.5.2-.8,1.4-4.7,2.9-9.3,4.3-14,0-.1,0-.1.1-.2.5-1.7,1.1-3.3,1.6-5,.2-.7.5-1.5.7-2.2a.76.76,0,0,0,.1-.4,17.22,17.22,0,0,1,.7-2.1c.3-1,.7-2.1,1-3.1.8-2.7,3.9-13.1,3.9-13.1h-3.8q-45.15.15-90.3.1h-13.3c-11.9,0-23.9,0-35.8.1-12.3,0-24.5.1-36.8.1h-59.8c-6.4,0-9.7-1-14.4-5.7-2.1-3.3-2.2-5.2-2.2-9.1V12.5a15.49,15.49,0,0,1,6.7-10.8,20.16,20.16,0,0,1,2.8-1.1,12.61,12.61,0,0,1,2.8-.5c1.1-.1,2.4-.1,3.8-.1h100.3c19.1,0,38.2,0,57.3.1,18.5,0,37.1,0,55.6.1h20.7q71.4,0,142.7.2c-.6.8-1.2,1.5-1.9,2.3h0c-.2.3-.4.5-.6.8-.5.7-.9,1.4-1.3,2h0a15.43,15.43,0,0,0-1.4,3.7c-.1.3-.1.5-.2.8a29.9,29.9,0,0,0-.3,4.5V161.3c0,4.6-.1,9,.8,13.3a24,24,0,0,0,4.9,10.8c.8.5,1.5.8,2.2,1.2h.1a14,14,0,0,0,3.5,1,24.58,24.58,0,0,0,2.8.2,24.37,24.37,0,0,1,2.7.1h2.9c1,0,2,0,3,.1,3.2.1,6.3.1,9.5.2,2.1,0,4.3.1,6.4.1l15.8.3c-.8,4.4-2,8.8-3.2,13.1a21.7,21.7,0,0,1-.7,2.4c-.7,2.6-1.4,5.1-2.2,7.7-.4,1.3-.4,1.3-.8,2.7-3,10.6-6.1,21.2-9.4,31.8-2.9,9.1-5.5,18.3-8.1,27.4-.3,1.1-.6,2.3-1,3.5-2.5,9.1-4.6,18.3-6.8,27.5H2249Z"/><path class="cls-1" d="M594.1,512.2v6c0,.7-.1,1.1-.1,1.5a1.42,1.42,0,0,1-.2.6,3.14,3.14,0,0,1-.8,1c-2.5.1-5.1.1-7.6.1H516.3c-5.2,0-5.2,0-6.3-1.1a5,5,0,0,1-.2-1.2c-1.1-6.3-.9-12.6-1-18.9V487.7c0-4.5,0-9-.1-13.5-.1-10.3-.1-20.7-.2-31,0-9.5-.1-19-.2-28.5,0-4.5,0-8.9-.1-13.4V380.9c0-2.6,0-2.6-1.1-5.5-.3,1.1-.5,2.2-.8,3.3q-1.05,4.35-1.8,8.1c-7,31.5-7.3,32.5-10.8,46.8-.7,2.8-1.3,5.6-2,8.4s-1.3,5.4-1.9,8.1c-.3,1.3-.6,2.7-.9,4-.4,1.9-.9,3.7-1.3,5.5l-.8,3.2a22.4,22.4,0,0,1-1.8,4.4H400c-3.4-9-3.4-9-4.3-13.1-.2-.9-.4-1.8-.6-2.8-.3-1.5-.3-1.5-.7-3-.2-1-.5-2.1-.7-3.1-.7-3.3-1.5-6.5-2.2-9.8s-1.5-6.5-2.2-9.8c-.5-2-.9-4-1.4-6.1-1.3-5.7-2.7-11.3-4.3-16.8-1.1-4.4-1.9-8.8-2.7-13.2-.3-1.8-.7-3.5-1-5.3-.1-.5-.2-1.1-.3-1.6,0-.2-.1-.5-.1-.7a.37.37,0,0,0-.1-.3l-1.5-6.6c0-.1-.1-.3-.1-.4-.4-1.5-.4-1.7-.9-3.5v2.3c0,6.9-.1,13.8-.1,20.7,0,11.3-.1,22.6-.2,33.9-.1,8.8-.1,17.6-.1,26.4,0,7.7-.1,15.3-.1,23,0,4.1-.1,8.1-.1,12.2,0,3.8,0,7.7-.1,11.5v13.8a22508610.62,22508610.62,0,0,1-.2,1.2v.1h0v.3a4.42,4.42,0,0,1-.5,1.5,9.74,9.74,0,0,1-.5,1.1,9.25,9.25,0,0,1-.5,1,9.29,9.29,0,0,0-.5,1H292a4.87,4.87,0,0,1-.3-.7,6.9,6.9,0,0,0-.3-.8v-.2h0a11.63,11.63,0,0,1-.4-1.8v-.4c-.1-.9,0-1.9,0-3.1V219.2a.35.35,0,0,0,.2-.1c.4-.2.9-.4,1.3-.6a15.31,15.31,0,0,1,4.5-1.3h0c.6-.1,1.1-.1,1.7-.2a3.75,3.75,0,0,0,1-.1c.9,0,1.9-.1,2.9-.1h2.3c2.5,0,5.1-.1,7.6-.1h2.6c4.6,0,9.2-.1,13.8-.1s9.5-.1,14.2-.1c3.6,0,7.3-.1,11-.1,1.8,0,3.5,0,5.2-.1,15.4-.3,15.4-.3,20.5,4.2a40.69,40.69,0,0,1,3,3.6c.7.8,1.3,1.6,2,2.4.5.7,1,1.5,1.5,2.2.6.9,1.1,1.7,1.7,2.6s1.2,1.8,1.8,2.8c1,1.5,1,1.5,2,3.1a185.53,185.53,0,0,1,10.3,18.5c1.2,2.4,2.4,4.7,3.7,7.1,9.2,16.3,16.1,33.4,23.2,50.4l.9,2.1,5.4,13.2c.5,1.1.9,2.2,1.4,3.3a107.78,107.78,0,0,1,5.3,15.4h2l.3-1.8a84.63,84.63,0,0,1,5.8-18.5c.4-1,.8-1.9,1.2-2.9.8-2,1.7-3.9,2.5-5.9,1.1-2.6,2.2-5.3,3.3-7.9C489,234,490.9,229.5,506,219.3h.1c.9-.6,1.9-1.3,3-2,2.6-.2,5.1-.3,7.7-.3h67.7a19.18,19.18,0,0,1,7.4,1.2c.7.3,1.4.6,2.2,1V508.8C594.1,510.4,594.1,510.4,594.1,512.2Z"/><path class="cls-1" d="M1418,436.2c2.2,3.6,4.4,7.2,6.8,10.5h0a12.14,12.14,0,0,0,1,1.4,93.56,93.56,0,0,0,8.1,9.8c1.2,1.3,2.4,2.5,3.5,3.9l.5.5c8.3,9.8,18.7,17.8,29.7,24.6.8.5,1.6,1,2.4,1.4s1.6.9,2.4,1.4l2.7,1.5A151.92,151.92,0,0,0,1509,505c.2.1.5.1.7.2a134.79,134.79,0,0,0,36.1,4.4c1.7,0,3.4,0,5.1-.1s3.4,0,5.1,0h4.6a14.77,14.77,0,0,0,2.1-.1c.8,0,1.5-.1,2.2-.1s1.3-.1,1.9-.1,1.1-.1,1.6-.1h.1c2.2-.2,4.4-.5,6.6-.8,1.9-.3,3.9-.7,5.9-1.2.7-.2,1.3-.3,2-.5a92.1,92.1,0,0,0,13.5-4.3,96.68,96.68,0,0,1,12.8-4.4,12.09,12.09,0,0,1,1.8-.5s6.1-2.9,9.6-5c.7-.4,1.5-.9,2.2-1.3,11.9-7.1,23.3-15.1,32.9-25.2.8-.9,1.6-1.7,2.4-2.5,1.8-1.8,3.5-3.7,5.2-5.5,2.3-2.6,4.4-5.2,6.5-7.9a122.48,122.48,0,0,0,8.2-12.5c.4-.7.8-1.4,1.1-2,11.1-19.3,18.3-40.8,18.9-63.1a27.16,27.16,0,0,1,.1-2.9c.2-9.2.6-18.6-.4-27.7l-.6-3.3c-3.7-21-10.8-40.1-22.8-57.8-.8-1.1-1.5-2.1-2.2-3.2a115.47,115.47,0,0,0-19.9-22.5l-4.1-3.5c-11.3-10.8-24.9-18.6-39-25.1-.7-.3-1.3-.6-2-.9-22.7-10.3-48.9-13.7-73.9-10.8a149.67,149.67,0,0,0-16.5,2.9c-1.8.5-1.8.5-3.7.9l-1.3.3c-1.1.3-2.3.5-3.4.8a143.79,143.79,0,0,0-25.1,8.9h0c-2.1,1-4.3,2-6.3,3.1-.1,0-.1.1-.2.1-1.2.6-2.3,1.2-3.5,1.9-.1,0-.1.1-.2.1s-.1.1-.2.1-.2.1-.4.2q-2.25,1.2-4.5,2.7c-.1,0-.1.1-.2.1-1.6,1-3.3,2.1-4.8,3.1-1.1.7-2.1,1.5-3.2,2.2a136.77,136.77,0,0,0-22.2,20.3c-.6.8-1.3,1.5-1.9,2.3-.5.6-1,1.2-1.6,1.8a4.62,4.62,0,0,1-.7.7c-.8.8-1.5,1.6-2.3,2.5a117.15,117.15,0,0,0-10.5,14.1h0v.1c-1.2,1.9-2.4,3.8-3.5,5.7-1.2,2.2-2.4,4.4-3.5,6.6a116.44,116.44,0,0,0-5.1,11.4c-.4,1.1-.9,2.2-1.3,3.3-1.8,4.8-3.4,9.8-4.8,14.8a25,25,0,0,0-.7,2.6c-.2.7-.4,1.5-.6,2.2-.5,2-.9,4-1.3,6,0,.1-.1.3-.1.4h0c-.1.5-.2,1-.3,1.4h0a137.36,137.36,0,0,0-.7,43.4v.1c.1.9.3,1.7.4,2.6s.3,1.7.4,2.5.3,1.7.5,2.6a145,145,0,0,0,11.2,34.1h0c1.8,3.7,3.7,7.4,5.8,10.9m180-24.3c-.7.7-1.3,1.4-2.1,2.1a63.83,63.83,0,0,1-25.3,14.9c-5.3-.2-14.6,3-14.6,3-1.9.2-3.7.3-5.6.4-16.6-.8-31.3-5.2-44.4-15.4l-2.1-1.5c-11.8-9.5-20.9-25.5-22.9-40.5-.9-13.6-.1-25.5,4.3-36.7h0a25.59,25.59,0,0,0,3.3-7.1,72.28,72.28,0,0,1,7.5-11.1c9.1-10.4,19.3-18.2,32.8-22,1.2-.4,2.4-.7,3.7-1.1a54.37,54.37,0,0,1,14.5-1.2h2.8a75.18,75.18,0,0,1,18,2.5s13.4,5.2,15,6.1c-.3.2,8.6,6,12.9,10,2.1,2,13.1,14.1,15.8,19.9-.2-.1,6.2,22.8,6.2,22.8.1,1-1.4,24-1.4,24A69.86,69.86,0,0,1,1597,410.2Z"/><path class="cls-1" d="M204.1,445.9a111.43,111.43,0,0,1-1.5,11.6c-.4,2.1-.8,4.3-1.2,6.4-.4,1.4-.8,2.8-1.2,4.1l-.3.9a13.35,13.35,0,0,1-.7,1.8h0a65.87,65.87,0,0,1-8.4,15.4c-.4.6-.9,1.2-1.3,1.8-1.1,1.5-2.3,2.9-3.5,4.3-.6.7-1.2,1.3-1.8,2-.1.1-.1.2-.2.3-.8.8-1.5,1.6-2.3,2.3l-.2.2a57.63,57.63,0,0,1-12.7,9c-6.4,3.4-13.4,5.8-20.7,8.2-1,.3-1.9.6-2.9.9-2.7.8-5.4,1.4-8.1,2.1-1.6.4-1.6.4-3.3.8-3.5.7-7,1.2-10.4,1.6h-.1c-2.6.3-5.2.5-7.9.6-9.5.6-19.1.3-28.6.3H64a175.65,175.65,0,0,1-26.2-1.8h-.3a.9.9,0,0,1-.5-.1c-1-.1-2-.3-3-.5-3-.5-6-1.2-9-1.9-.2-9.3.4-18.5,1.1-27.8.2-2.4.4-4.8.5-7.2,2.1-26.6,2.1-26.6,5.3-33.1,1.9.2,3.8.3,5.7.6l4.3.6c3.7.5,7.5,1.2,11.2,1.9,1,.2,2.1.4,3.1.5l2.1.3h.2A170.13,170.13,0,0,0,80,454.1a14.77,14.77,0,0,1,2.1.1c15.6.5,15.6.5,29.9-5.1,5.6-5.4,9-9.9,9.4-17.8-.2-7.9-4-13.6-9.4-19.2a47.92,47.92,0,0,0-16.9-9.5c-.8-.3-1.6-.6-2.5-.9-6.5-2.3-13-4.4-19.5-6.5a93.6,93.6,0,0,1-16.2-7.1s-8.2-5.5-11-8.3l-1.5-1.5C29.1,363.8,19.2,350.1,12.9,330c-.3-1-.7-2.1-1-3.1a55.61,55.61,0,0,1-1.8-9.9c0-.5-.1-.9-.1-1.4h0a166.66,166.66,0,0,1-.1-18.7v-1.3c.1-2.1.1-4.2.1-6.3a50.34,50.34,0,0,1,1.6-10.9v-.1a64,64,0,0,1,6.2-15.1.35.35,0,0,1,.1-.2,82.73,82.73,0,0,1,14-18c1.3-1.2,2.7-2.3,4-3.4,1-.8,2-1.6,3-2.3,1.2-.9,2.4-1.8,3.6-2.6.5-.3,1-.7,1.5-1,2.3-1.5,4.7-2.9,7.1-4.2s4.8-2.4,7.2-3.5l1.5-.6a99,99,0,0,1,13.3-4.5h.1A164.88,164.88,0,0,1,91,219c1.1-.2,2.2-.4,3.3-.5a191.8,191.8,0,0,1,30.3-1.7h2.5c2.3,0,4.6,0,6.8.1l10.1.3c7.3.3,14.7.9,22,1.8,1.3.2,2.5.3,3.8.4h.2l2.4.3h.2c2,.2,4,.5,6,.7h.2c2.2.3,4.5.5,6.7.8l2.6.3a7.83,7.83,0,0,1,1.4.3c.2.1.4.1.5.2h0a5.77,5.77,0,0,1,1,.8c.1,3-1.5,25.5-1.7,28.2-.1,1.7-.2,3.4-.4,5-.2,2.7-.4,5.3-.5,8s-.4,5.1-.5,7.7c0,.8-.1,1.6-.1,2.4a38.59,38.59,0,0,1-.6,4.9,12.86,12.86,0,0,1-.4,1.9c-.3,1.4-.7,2.8-1.1,4.2a45.87,45.87,0,0,1-1.7,4.8,52.26,52.26,0,0,1-5.6,0,14.92,14.92,0,0,1-2.1-.2,50.75,50.75,0,0,1-6.2-1.1,227.78,227.78,0,0,0-46.6-5.1,26.2,26.2,0,0,1-2.8-.1,34.92,34.92,0,0,0-12.3,2.2c-1.8.7-8.5,5.3-8.5,5.3-.6.6-1.2,1.1-1.8,1.7a20.37,20.37,0,0,0-4.8,8.2,33.35,33.35,0,0,0-1,5.8c.3,7.9,5.1,15.3,10.8,20.7,8.5,6.4,18,9.4,28,12.4,4,1.2,7.8,2.5,11.6,4,.4.1.7.3,1.1.4h.1A86.13,86.13,0,0,1,168,358.2c.6.5,1.3,1.1,1.9,1.7,1,.8,2,1.7,3,2.5,1.3,1.1,2.6,2.3,3.8,3.5h0a71.48,71.48,0,0,1,12.2,15c.7,1.1,1.3,2.1,2,3.2C202.3,402.8,205.8,424.6,204.1,445.9Z"/><path class="cls-1" d="M789.5,256.2l-1.5-3a62.05,62.05,0,0,0-13.2-17.7c-17.6-16.4-38.4-18.2-61.3-17.9-3.6,0-7.3.1-10.9.1-6.9,0-13.8,0-20.7.1-7.9.1-15.8.1-23.7.1l-51.1.3V431.4c0,4.1.1,17,0,19.2V453c0,2.6-.1,4.1,1.1,6.4a12,12,0,0,0,6.8,2.2h18.7c3.3,0,6.5,0,9.7-.1,10.5,0,20.6-.1,30.8-.1v-69c10.4.1,20.6.1,30.7.2,4.5,0,9,.1,13.5.1h3.7c12,.2,23.7-.6,34.7-6,.8-.4,1.6-.9,2.4-1.3,18.5-9.8,28.9-24.7,35.5-44.1C803,314.5,802.1,281.4,789.5,256.2Zm-58,49c-.5,9.8-4,17.7-10.5,25-.8,1-1.7,2-2.5,3.1-3.2,3.2-5.6,3.6-10,3.6a20.08,20.08,0,0,0-2.5-.1h-2.6c-2.7,0-5.4-.1-8.1-.2-1.8,0-3.7,0-5.5-.1-13.3-.2-13.3-.2-15.8-1.4V277.5c.3-5,4.5-3.6,8.6-3.6h7.1c2.4,0,4.9-.1,7.3-.1,10.3-.1,17.9.5,25.9,7.5C729.3,288.6,731.7,295.5,731.5,305.2Z"/><path class="cls-1" d="M1083.1,300.4a99,99,0,0,1,5.8-14.1c.4-.7.7-1.4,1.1-2.1,2-3.7,4.1-7.2,6.4-10.7a2.09,2.09,0,0,1,.4-.6,141.26,141.26,0,0,1,19.3-23.5c2.5-2.5,5.2-4.9,7.9-7.2a.1.1,0,0,0,.1-.1q3.6-3,7.5-5.7l.1-.1c2.5-1.8,5-3.4,7.7-5h0a110.93,110.93,0,0,1,15.8-7.9h.1c1-.4,1.9-.8,2.9-1.1,2.2-.8,4.5-1.6,6.8-2.3,3.3-1,6.7-1.9,10.1-2.7.7-.2,1.4-.4,2.2-.6h0c.2,0,.4-.1.6-.1,2.1-.5,4.1-.9,6.2-1.3h.1a117.81,117.81,0,0,1,31.4-1,8.75,8.75,0,0,1,1.6.2,156.41,156.41,0,0,1,23.8,4.6l1.1.3,3.1.9c.9.3,1.8.5,2.7.8,19.9,6,46.6,21.6,57.3,40.2a15.15,15.15,0,0,1,0,6,18.93,18.93,0,0,1-4,4c-.8.7-1.6,1.3-2.5,2-2.9,2.2-5.8,4.5-8.7,6.6-1.6,1.2-3.1,2.4-4.7,3.7-2.1,1.6-7.6,6.4-9.4,7.7-.5.4-1.1.8-1.6,1.2-2.7,2-5.5,4-8.3,6l-3,2.1c-.9.6-1.8,1.3-2.7,1.9a21.31,21.31,0,0,0-2.1,1.6c-.3.4-5.6,2.3-8.3.3-.8-.8-1.6-1.6-2.4-2.3-.4-.4-.8-.7-1.2-1.1a78,78,0,0,0-9.4-7.4h0a60.17,60.17,0,0,0-6.5-3.7c-8.8-4.3-18.4-6.2-29.8-6-16.3.6-28.8,8.2-40,19.7-7,8.5-12.6,19.4-12.4,30.5,0,1.3-.1,2.7-.1,4-.4,16.6,2.8,30.5,14.5,43,11.9,12,25.9,17.6,42.8,18.2,1,0,2,0,3-.1h.2c14.1-1,27.3-7.3,37.6-17,.5-.6,1.1-1.1,1.6-1.7.8-.8,1.6-1.7,2.4-2.5l2-2c10.4,1.4,20,12.2,27.9,18.7,3.8,3.1,7.7,6.2,11.6,9.3,1.1.9,2.3,1.8,3.4,2.7l5.4,4.2c2.5,2,4.3,3.5,5.6,6.5,0,3.4-1.2,4.7-3.4,7l-1.5,1.5-1.6,1.6c-1,1.1-2,2.1-3.1,3.1s-2.2,2.3-3.2,3.4c-5.2,5.6-11.7,10-18.2,14,0,0-12.6,7.4-18,10-1,.5-1.9,1-3,1.5a108.65,108.65,0,0,1-26,8h0a125.69,125.69,0,0,1-39.2.6c-.4-.1-.8-.1-1.2-.2-1-.2-2-.3-2.9-.5-2.9-.5-5.8-1-8.7-1.7a112.22,112.22,0,0,1-11.7-3.3c-1.5-.5-2.9-1-4.4-1.5a131.46,131.46,0,0,1-22.2-11.1,144.09,144.09,0,0,1-21.7-16.9c-.7-.6-1.4-1.3-2-1.9s-1.1-1.1-1.7-1.6c-1.2-1.1-2.2-2.2-3.3-3.4h0a98.58,98.58,0,0,1-8-10.1c-.5-.8-1-1.5-1.6-2.3l-1.2-1.8a146.21,146.21,0,0,1-10.9-19.1,123.65,123.65,0,0,1-5.3-13.6,10.67,10.67,0,0,0-.7-1.9c-6.2-19.3-6.5-43.2-1.7-64.6"/><path class="cls-1" d="M985,449.3v67.9H807v-297c.1-2,.1-2,1.1-3h82c.3,75.9.7,151.8,1,230l93,1a7.3,7.3,0,0,0,.9,1.1Z"/><path class="cls-1" d="M1064.1,224.7V370.6q0,45.3-.1,90.7H996V217.2h67C1064.9,219.1,1064.1,222.1,1064.1,224.7Z"/><path class="cls-1" d="M1385.2,228.6V371c0,30.1-.1,60.1-.1,90.2h-64.4c-2.7-.1-2.7-.1-3.7-1.1-.1-3.1-.1-6.2-.1-9.3V220.1a6.37,6.37,0,0,1,1.1-3.2c8.4,0,16.9-.1,25.3-.1,3.9,0,7.8,0,11.8-.1h25.2c2.7.2,2.7.2,4.7,2.2a16.28,16.28,0,0,1,.3,4v2.6A29.15,29.15,0,0,1,1385.2,228.6Z"/><path class="cls-1" d="M279,219.2v242H211V221.1c.1-1.8.1-1.8,1.1-3.8,8.2,0,16.3-.1,24.4-.1,3.8,0,7.6,0,11.3-.1h24.4c.9.1,1.6.1,2.2.2a1.85,1.85,0,0,1,.7.2c.5.2,1.1.4,2,.8a9.25,9.25,0,0,1,1,.5C278.3,218.9,278.6,219,279,219.2Z"/><path class="cls-1" d="M1086,173.2c-2.3,1.7-4.5,3.2-6.9,4.7-1.6,1-3.1,2-4.7,2.9-.8.5-1.7,1.1-2.6,1.6l-15.6,9.9-3.3,2.1c-2.2,1.4-4.3,2.8-6.5,4.2h0c-1.3.8-2.5,1.6-3.7,2.5-2.1,1.4-4.3,2.9-6.3,4.3-12.1,8.5-12.1,8.5-17.4,8.8a17.48,17.48,0,0,1-4.3-4.3c-.8-.9-1.5-1.8-2.3-2.8l-2.3-2.9c-1.1-1.3-1.1-1.3-2.2-2.7-1.9-2.4-3.9-4.8-5.8-7.3-.7-.9-1.5-1.8-2.2-2.7a53.89,53.89,0,0,0-3.8-4.3v-3.4c.1-.9.5-1.3,1.3-2.2.1-.1.2-.1.2-.2s.3-.2.4-.3.3-.3.5-.4a9.68,9.68,0,0,1,.9-.7c.1-.1.3-.2.4-.3.4-.3.7-.6,1.1-.9,1.4-1.1,2.7-2.3,4-3.5,1.1-1,2.3-2,3.4-3,.2-.2.4-.3.6-.5,3.4-3.1,6.9-6.1,10.6-9,4-3.2,7.8-6.6,11.6-10.1,4.7-4.4,9.5-8.5,14.5-12.5,2.2-1.8,4.3-3.7,6.4-5.6,3.1-2.4,3.1-2.4,5.1-2.2,8.9,3.7,15.7,18.1,21,25.8.4.6.9,1.3,1.3,1.9,1.1,1.6,2.3,3.3,3.4,5,.9,1.4.9,1.4,1.9,2.8C1086,170.2,1086,170.2,1086,173.2Z"/><path class="cls-1" d="M486,463.2c-.3,1.3-.7,2.6-1,4H400c-.3-1.3-.7-2.6-1-4l2,1a12.09,12.09,0,0,0,1.8.5h0a31.37,31.37,0,0,0,8.7.7h64.3c4,.1,4,.1,7.1-2.3H486Z"/><path class="cls-1" d="M1772,80.2l2,1a47.87,47.87,0,0,1,.7,4.9l.3,2.7c.1,2.4.1,2.4-.9,5.4,0,3.6,0,7.3.1,10.9,0,2,0,4-.1,6.1l-2,2C1772,102.3,1772,91.4,1772,80.2Z"/><path class="cls-1" d="M1773,60.2c1.5,2.9,1.5,5.7,1.8,8.9.1,1.2.2,2.5.4,3.8-.1,3.3-.1,3.3-1.6,5-.5.4-1,.9-1.5,1.3,0-3,0-6-.1-8.9V62.9C1772,61.2,1772,61.2,1773,60.2Z"/><path class="cls-1" d="M410,466.2v1H400c-.3-1.3-.7-2.6-1-4l2.1.9c.6.2,1.2.4,1.7.6h0A43.84,43.84,0,0,0,410,466.2Z"/><path class="cls-1" d="M2587,279.2c1,.3,2,.7,3,1-.7,1.6-1.3,3.3-2,5-1-.3-2-.7-3-1C2585.9,280.3,2585.9,280.3,2587,279.2Z"/><path class="cls-1" d="M60.7,101.2V83.1h43.1v37.1q-12.45,8.1-21.9,11.1c-6.3,2-13.9,2.9-22.6,2.9-10.7,0-19.5-1.8-26.2-5.3a36.31,36.31,0,0,1-15.7-15.8,50.6,50.6,0,0,1-5.6-24c0-9.5,2-17.8,6.1-24.8a38.86,38.86,0,0,1,17.9-16c6.1-2.8,14.4-4.2,24.7-4.2,10,0,17.5.9,22.4,2.6a27.66,27.66,0,0,1,12.3,8.1,36.22,36.22,0,0,1,7.4,13.9L75.7,73.3a13.92,13.92,0,0,0-5.6-7.5A18.47,18.47,0,0,0,60,63.2c-6.1,0-11,2.1-14.6,6.2S39.9,80,39.9,88.9c0,9.4,1.8,16.2,5.5,20.2s8.8,6.1,15.4,6.1a29,29,0,0,0,8.9-1.3,50.45,50.45,0,0,0,9.7-4.5v-8.2Z"/><path class="cls-1" d="M118.9,89.2c0-14.2,4.1-25.3,12.3-33.2s19.7-11.9,34.3-11.9q22.5,0,34.8,11.7c8.1,7.8,12.2,18.7,12.2,32.7,0,10.2-1.8,18.5-5.3,25.1a37.59,37.59,0,0,1-15.4,15.2c-6.7,3.6-15.1,5.4-25.1,5.4-10.2,0-18.6-1.6-25.3-4.7a36.85,36.85,0,0,1-16.2-14.9C121,107.9,118.9,99.4,118.9,89.2Zm27.9.1c0,8.8,1.7,15.1,5.1,19s8,5.8,13.8,5.8c6,0,10.6-1.9,13.9-5.6s4.9-10.5,4.9-20.3q0-12.3-5.1-18c-3.4-3.8-8.1-5.7-14-5.7-5.6,0-10.2,1.9-13.6,5.8C148.6,74.1,146.8,80.5,146.8,89.3Z"/><path class="cls-1" d="M215.3,45.6h29.2l20.3,62.7,20.1-62.7h28.3l-33.6,87.1H249.3Z"/><path class="cls-1" d="M324.3,45.6h74.8V64.2H352.3V78h43.5V95.8H352.3V113h48.2v19.7H324.3Z"/><path class="cls-1" d="M418,132.7V45.6h46.5q12.9,0,19.8,2.1a21,21,0,0,1,11,7.9,23.53,23.53,0,0,1,4.2,14.1,23.06,23.06,0,0,1-12,21,34.65,34.65,0,0,1-9.8,3.4,30.5,30.5,0,0,1,7.3,3.2,27.77,27.77,0,0,1,4.5,4.6,30.68,30.68,0,0,1,3.9,5.4l13.5,25.2H475.3l-14.9-26.6c-1.9-3.4-3.6-5.7-5.1-6.7a12.32,12.32,0,0,0-6.8-2H446v35.4H418Zm28-51.8h11.8a43.4,43.4,0,0,0,7.4-1.2,7.77,7.77,0,0,0,4.5-2.7,8,8,0,0,0,1.8-5.1,7.8,7.8,0,0,0-2.8-6.5c-1.8-1.5-5.3-2.3-10.4-2.3H446Z"/><path class="cls-1" d="M518,45.6h26.1l34,48.2V45.6h26.3v87.1H578.1L544.3,84.9v47.8H518Z"/><path class="cls-1" d="M679.3,118.3H647.6l-4.4,14.4H614.7l34-87.1h30.5l34,87.1H684Zm-5.8-18.8-10-31.3-9.9,31.3Z"/><path class="cls-1" d="M724.3,45.6h41.5c8.2,0,14.8,1.1,19.8,3.2A32.11,32.11,0,0,1,798.1,58a38,38,0,0,1,7.2,14,61.63,61.63,0,0,1,2.2,16.9c0,9.3-1.1,16.5-3.3,21.7a36.6,36.6,0,0,1-9.2,12.9,29.16,29.16,0,0,1-12.6,6.9,66.42,66.42,0,0,1-16.6,2.4H724.3V45.6Zm28,19.7v47.6h6.8c5.8,0,10-.6,12.5-1.9a12.48,12.48,0,0,0,5.8-6.5c1.4-3.1,2.1-8.2,2.1-15.1,0-9.2-1.6-15.6-4.7-19s-8.3-5.1-15.5-5.1Z"/><path class="cls-1" d="M820.7,89.2c0-14.2,4.1-25.3,12.3-33.2s19.7-11.9,34.3-11.9q22.5,0,34.8,11.7c8.2,7.8,12.2,18.7,12.2,32.7,0,10.2-1.8,18.5-5.3,25.1a37.59,37.59,0,0,1-15.4,15.2c-6.7,3.6-15.1,5.4-25.1,5.4-10.2,0-18.6-1.6-25.3-4.7A36.85,36.85,0,0,1,827,114.6C822.7,107.9,820.7,99.4,820.7,89.2Zm27.9.1c0,8.8,1.7,15.1,5.1,19s8,5.8,13.8,5.8c6,0,10.6-1.9,13.9-5.6s4.9-10.5,4.9-20.3q0-12.3-5.1-18c-3.4-3.8-8.1-5.7-14-5.7-5.6,0-10.2,1.9-13.6,5.8S848.6,80.5,848.6,89.3Z"/><path class="cls-1" d="M931.7,132.7V45.6h46.5q12.9,0,19.8,2.1a21,21,0,0,1,11,7.9,23.53,23.53,0,0,1,4.2,14.1,23.06,23.06,0,0,1-12,21,34.65,34.65,0,0,1-9.8,3.4,30.5,30.5,0,0,1,7.3,3.2,27.77,27.77,0,0,1,4.5,4.6,26.12,26.12,0,0,1,3.9,5.4l13.5,25.2H989l-14.9-26.6c-1.9-3.4-3.6-5.7-5.1-6.7a12.32,12.32,0,0,0-6.8-2h-2.5v35.4h-28Zm28.1-51.8h11.8a43.4,43.4,0,0,0,7.4-1.2,7.77,7.77,0,0,0,4.5-2.7,8,8,0,0,0,1.8-5.1,7.8,7.8,0,0,0-2.8-6.5c-1.8-1.5-5.3-2.3-10.4-2.3H959.8Z"/><path class="cls-1" d="M22.8,657.8,0,599.2H8.4l15.3,42.6c1.2,3.4,2.3,6.6,3.1,9.6.9-3.2,2-6.4,3.2-9.6l15.9-42.6h7.9l-23,58.6Z"/><path class="cls-1" d="M83.4,657.8V599.2h7.8v58.6Z"/><path class="cls-1" d="M168.2,637.2l7.8,2c-1.6,6.4-4.6,11.2-8.8,14.6a24.41,24.41,0,0,1-15.5,5c-6.3,0-11.5-1.3-15.5-3.9a24.26,24.26,0,0,1-9.1-11.2A39.28,39.28,0,0,1,124,628a35.24,35.24,0,0,1,3.5-16,23.7,23.7,0,0,1,10-10.3,28.86,28.86,0,0,1,14.3-3.5c5.9,0,10.8,1.5,14.8,4.5a23.57,23.57,0,0,1,8.4,12.6l-7.7,1.8c-1.4-4.3-3.3-7.4-5.9-9.3a16.26,16.26,0,0,0-9.8-2.9,19.33,19.33,0,0,0-11.3,3.2,17.06,17.06,0,0,0-6.4,8.7,35.49,35.49,0,0,0-1.8,11.2,34.37,34.37,0,0,0,2.2,13,16.16,16.16,0,0,0,6.8,8.3,19.59,19.59,0,0,0,10,2.8,17,17,0,0,0,11.1-3.8C165.1,645.9,167.2,642.2,168.2,637.2Z"/><path class="cls-1" d="M207.1,657.8V599.2h42.5v6.9H214.9V624h32.5v6.9H214.9v19.9H251v6.9H207.1Z"/><path class="cls-1" d="M346.2,658V573.6h25.2l15.1,57.5,15-57.5h25.3V658H411.2V591.6L394.6,658H378.4l-16.5-66.4V658Z"/><path class="cls-1" d="M553.7,658H535.4l-7.3-19.2H494.8L487.9,658H470l32.5-84.4h17.8Zm-31-33.4-11.5-31.3-11.3,31.3Z"/><path class="cls-1" d="M597.6,658V573.6h35.5c8.9,0,15.4.8,19.4,2.3a19.1,19.1,0,0,1,9.7,8.1,24.78,24.78,0,0,1,3.6,13.3c0,6.3-1.8,11.6-5.5,15.7s-9.2,6.7-16.5,7.8a38.72,38.72,0,0,1,9,7.1c2.4,2.6,5.6,7.1,9.6,13.7l10.2,16.5H652.5l-12.2-18.4c-4.3-6.6-7.3-10.7-8.9-12.4a12.66,12.66,0,0,0-5.1-3.5,29,29,0,0,0-8.5-.9h-3.4v35.2H597.6Zm16.9-48.7H627c8.1,0,13.1-.3,15.1-1a9,9,0,0,0,4.7-3.6,11.38,11.38,0,0,0,1.7-6.3,10.39,10.39,0,0,0-2.2-6.9,10.68,10.68,0,0,0-6.3-3.3q-2.1-.3-12.3-.3H614.6v21.4Z"/><path class="cls-1" d="M717.2,658V574.3H734v69.5h41.9V658Z"/><path class="cls-1" d="M834.1,658V622.5l-30.6-48.9h19.7L842.8,607,862,573.6h19.4l-30.7,49V658Z"/><path class="cls-1" d="M1008.9,658V587.9H984.1V573.6h66.3v14.3h-24.7V658Z"/><path class="cls-1" d="M1162.8,658h-18.3l-7.3-19.2h-33.3L1097,658h-17.9l32.5-84.4h17.8Zm-31-33.4-11.5-31.3L1109,624.6Z"/><path class="cls-1" d="M1219.4,658l-29.8-84.4h18.3L1229,636l20.4-62.4h17.9L1237.4,658Z"/><path class="cls-1" d="M1377.4,658H1359l-7.3-19.2h-33.3l-6.9,19.2h-17.9l32.5-84.4h17.8Zm-31.1-33.4-11.5-31.3-11.3,31.3Z"/><path class="cls-1" d="M1421.3,658V573.6h35.5c8.9,0,15.4.8,19.4,2.3a19.09,19.09,0,0,1,9.7,8.1,24.78,24.78,0,0,1,3.6,13.3c0,6.3-1.8,11.6-5.5,15.7s-9.2,6.7-16.5,7.8a38.72,38.72,0,0,1,9,7.1c2.4,2.6,5.6,7.1,9.6,13.7l10.2,16.5h-20.1L1464,639.7c-4.3-6.6-7.3-10.7-8.9-12.4a12.66,12.66,0,0,0-5.1-3.5,29,29,0,0,0-8.5-.9h-3.4v35.2h-16.8Zm16.9-48.7h12.5c8.1,0,13.1-.3,15.1-1a9,9,0,0,0,4.7-3.6,11.38,11.38,0,0,0,1.7-6.3,10.39,10.39,0,0,0-2.2-6.9,10.68,10.68,0,0,0-6.3-3.3q-2.1-.3-12.3-.3h-13.1v21.4Z"/><path class="cls-1" d="M1540.4,658V573.6h61.9v14.3h-45v18.7h41.9v14.2h-41.9v23h46.6V658Z"/><path class="cls-1" d="M1648.8,630.6l16.4-1.6c1,5.6,3,9.6,6,12.3s7.1,3.9,12.2,3.9c5.4,0,9.5-1.2,12.3-3.5a10.13,10.13,0,0,0,4.1-8.1,8,8,0,0,0-1.7-5.1c-1.2-1.4-3.2-2.6-6.1-3.7-2-.7-6.5-1.9-13.5-3.7-9-2.3-15.4-5-19-8.3a22.43,22.43,0,0,1-4.1-29.1,22.58,22.58,0,0,1,10.4-8.5c4.5-2,10-2.9,16.4-2.9,10.5,0,18.4,2.3,23.6,7s8.1,10.8,8.3,18.6l-16.8.7c-.7-4.3-2.3-7.5-4.6-9.4s-5.9-2.8-10.7-2.8-8.7,1-11.5,3a6.19,6.19,0,0,0-2.7,5.2,6.34,6.34,0,0,0,2.5,5.1c2.1,1.8,7.3,3.7,15.5,5.6s14.3,4,18.2,6.1a23.13,23.13,0,0,1,9.2,8.6,25.35,25.35,0,0,1,3.3,13.4,24.79,24.79,0,0,1-4,13.6,23.82,23.82,0,0,1-11.3,9.4c-4.9,2.1-10.9,3.1-18.2,3.1-10.5,0-18.6-2.5-24.3-7.4C1653.3,647.2,1649.9,640,1648.8,630.6Z"/></svg>