<svg id="NORMAL" xmlns="http://www.w3.org/2000/svg" viewBox="0 0 4767.3 2211.6"><defs><style>.cls-1{isolation:isolate;}.cls-2{fill:#fff;}</style></defs><title>11-SOFT HARMONY</title><g class="cls-1"><polygon class="cls-2" points="1382.7 2170.7 1382.7 2185 1306.2 2185 1306.2 2073.5 1381.4 2073.5 1381.4 2087.8 1321.5 2087.8 1321.5 2121.2 1373.7 2121.2 1373.7 2135 1321.5 2135 1321.5 2170.7 1382.7 2170.7"/><path class="cls-2" d="M1514.3,2154.6a29.59,29.59,0,0,1-3.19,14,28.79,28.79,0,0,1-8.64,9.85,37.07,37.07,0,0,1-13.1,5.71,69.23,69.23,0,0,1-15.87,1.77c-17.36,0-32.31-5.42-44.45-16.12l-1.56-1.38,7.86-13.1,2.26,2.38a43.53,43.53,0,0,0,14.95,9.81,53.49,53.49,0,0,0,21,4.11c8.08,0,14.18-1.38,18.66-4.21,4.07-2.54,6-6.4,6-11.79a13.77,13.77,0,0,0-1.65-7,15.88,15.88,0,0,0-5.28-5,43.69,43.69,0,0,0-9.49-4c-4.3-1.25-8.83-2.42-13.83-3.55-6.16-1.43-10.9-2.72-14.94-4.07a38.63,38.63,0,0,1-11.32-5.68,21.61,21.61,0,0,1-7.13-8.49,26.23,26.23,0,0,1-2.46-12,31.6,31.6,0,0,1,3.06-14.22,28.6,28.6,0,0,1,8.52-10.47,39.15,39.15,0,0,1,12.84-6.22,55.91,55.91,0,0,1,16.08-2.09,55.11,55.11,0,0,1,19.69,3.36,53.76,53.76,0,0,1,15.85,9.55l1.58,1.37-7.83,13.15-2.26-2.58a29.9,29.9,0,0,0-11.18-7.64,41.48,41.48,0,0,0-16.05-3c-8.83,0-15.26,1.59-19.12,4.74s-5.58,7.25-5.58,12.56a14.47,14.47,0,0,0,1.42,6.74,11.22,11.22,0,0,0,4.47,4.32,36,36,0,0,0,8.72,3.64c3.8,1.1,8.22,2.2,13.12,3.26a140.2,140.2,0,0,1,15.56,4.07,47.43,47.43,0,0,1,12.24,5.92,27,27,0,0,1,8.16,9.15A28.42,28.42,0,0,1,1514.3,2154.6Z"/></g><g class="cls-1"><polygon class="cls-2" points="1639 2073.4 1639 2087.7 1601 2087.7 1601 2184.9 1585.5 2184.9 1585.5 2087.7 1547.6 2087.7 1547.6 2073.4 1639 2073.4"/></g><g class="cls-1"><polygon class="cls-2" points="1765.7 2170.7 1765.7 2185 1689.2 2185 1689.2 2073.5 1764.4 2073.5 1764.4 2087.8 1704.5 2087.8 1704.5 2121.2 1756.7 2121.2 1756.7 2135 1704.5 2135 1704.5 2170.7 1765.7 2170.7"/><polygon class="cls-2" points="1747.73 2042.4 1730.55 2064.38 1719.13 2060.18 1730.43 2042.4 1747.73 2042.4"/></g><g class="cls-1"><polygon class="cls-2" points="1891.7 2073.4 1891.7 2087.7 1853.7 2087.7 1853.7 2184.9 1838.2 2184.9 1838.2 2087.7 1800.3 2087.7 1800.3 2073.4 1891.7 2073.4"/></g><g class="cls-1"><rect class="cls-2" x="1941.9" y="2073.7" width="15.3" height="111.3"/><path class="cls-2" d="M2108.41,2157.74l-.91,2.14a35.61,35.61,0,0,1-7.73,11.39,48.47,48.47,0,0,1-11,8.12,53.06,53.06,0,0,1-12.69,5,52.35,52.35,0,0,1-13.12,1.78,45.21,45.21,0,0,1-21.26-5.09,56,56,0,0,1-16.53-13.08,61.49,61.49,0,0,1-10.74-18.23l0-.12a66.52,66.52,0,0,1-3.72-21.18,58,58,0,0,1,3.55-20,57.36,57.36,0,0,1,10.25-17.77,52.35,52.35,0,0,1,16.7-12.81,50,50,0,0,1,22.6-5c9.83,0,18.45,2.28,25.63,6.78a43.12,43.12,0,0,1,15.93,17.84l1,2-12.68,7.7-1.2-2.47a30.24,30.24,0,0,0-5.62-8.12,30.82,30.82,0,0,0-7.21-5.47,29.25,29.25,0,0,0-8-2.95,43.07,43.07,0,0,0-8.41-1,32.63,32.63,0,0,0-15.71,3.6,37,37,0,0,0-11.65,9.57,40.64,40.64,0,0,0-7.16,13.39,49.23,49.23,0,0,0-2.38,15.24,44.28,44.28,0,0,0,2.93,16.09,43,43,0,0,0,7.95,13.56,35.82,35.82,0,0,0,11.82,9.31,31.5,31.5,0,0,0,14.7,3.44,39.47,39.47,0,0,0,8.65-1,36.42,36.42,0,0,0,8.44-3.35,37.49,37.49,0,0,0,7.68-5.71,28.64,28.64,0,0,0,5.78-8.19l1.12-2.31Z"/></g><g class="cls-1"><path class="cls-2" d="M2196.17,2073.5h-11.83L2137.75,2185h16.52l13.7-33.3h44.26L2226,2185h16.72Zm11.82,64.9h-35.74l18.12-43.61Z"/></g><g class="cls-1"><path class="cls-2" d="M2404,2073.5h-11.84L2345.55,2185h16.32l13.7-33.3H2420l13.8,33.3h16.72Zm11.82,64.9H2380l18.12-43.61Z"/></g><g class="cls-1"><polygon class="cls-2" points="2580.85 2073.5 2534.37 2185 2521.93 2185 2475.45 2073.5 2491.78 2073.5 2528.19 2162.85 2564.31 2073.5 2580.85 2073.5"/></g><g class="cls-1"><path class="cls-2" d="M2664.47,2073.5h-11.93L2605.95,2185h16.52l13.71-33.3h44.45l13.7,33.3H2711Zm11.72,64.9h-35.74l18.12-43.61Z"/></g><g class="cls-1"><polygon class="cls-2" points="2852.3 2073.7 2852.3 2185 2839.6 2185 2773.8 2102.63 2773.8 2185 2758.4 2185 2758.4 2073.5 2770.21 2073.5 2837 2157.54 2837 2073.7 2852.3 2073.7"/><path class="cls-2" d="M2990.47,2151l-1.12,2.31a28.64,28.64,0,0,1-5.78,8.19,35.49,35.49,0,0,1-16.22,9.06,39.47,39.47,0,0,1-8.65,1,31.39,31.39,0,0,1-14.7-3.45,35.66,35.66,0,0,1-11.82-9.3,43.13,43.13,0,0,1-7.95-13.56,44.28,44.28,0,0,1-2.93-16.09,49.23,49.23,0,0,1,2.38-15.24,40.64,40.64,0,0,1,7.16-13.39,37,37,0,0,1,11.63-9.56,33.37,33.37,0,0,1,15.83-3.61,42.72,42.72,0,0,1,8.31,1,29.13,29.13,0,0,1,8,2.95,30.94,30.94,0,0,1,7.25,5.51,27.88,27.88,0,0,1,5.68,8.08l1.2,2.47,12.68-7.7-1-2a43.12,43.12,0,0,0-15.93-17.84c-7.18-4.5-15.8-6.78-25.63-6.78-8.58,0-16,1.63-22.5,5a52.24,52.24,0,0,0-16.7,12.81,57.17,57.17,0,0,0-10.25,17.77,58,58,0,0,0-3.55,20,61.77,61.77,0,0,0,13.75,38.17,54.51,54.51,0,0,0,15.64,13.22,46.85,46.85,0,0,0,16.33,5.43l-8,14.93,1.25-.48-4.6,7.77,2.71,1.08a51,51,0,0,0,7.24,2.13,44.13,44.13,0,0,0,8.59.85c5.57,0,9.77-1,12.82-3.15a11.44,11.44,0,0,0,5-9.85,10.51,10.51,0,0,0-4.1-8.8,16,16,0,0,0-9.8-2.8H2962l.63-1a60.24,60.24,0,0,0,11-2.29,51,51,0,0,0,11.72-5.12,43,43,0,0,0,10.09-8,37.12,37.12,0,0,0,7.06-10.72l.93-2.14Zm-25.28,45.73c.22.14.81.5.81,2.07,0,.77,0,2.8-6,2.8a33.14,33.14,0,0,1-6.89-.73,26.06,26.06,0,0,1-5.19-1.71l-.65-.32,2.63-1a41.61,41.61,0,0,1,5-1.29,28.42,28.42,0,0,1,6.07-.64A8.66,8.66,0,0,1,2965.19,2196.73Z"/></g><g class="cls-1"><path class="cls-2" d="M3091.46,2073.5h-11.83L3033,2185h16.42l13.71-33.3h44.45l13.8,33.3h16.73Zm-23.91,64.9,18.12-43.61,17.62,43.61Z"/></g><g class="cls-1"><path class="cls-2" d="M3274.38,2107.73a50.29,50.29,0,0,0-10-17.8,48.44,48.44,0,0,0-16.86-12,57.88,57.88,0,0,0-23.3-4.41h-38.5V2185h38.5a59.45,59.45,0,0,0,22-4,46.38,46.38,0,0,0,17-11.41,50.55,50.55,0,0,0,10.73-17.66,66.7,66.7,0,0,0,3.75-22.85A68.61,68.61,0,0,0,3274.38,2107.73Zm-73.48-20h23.2a42,42,0,0,1,16.29,3,33.77,33.77,0,0,1,11.85,8.48,37.22,37.22,0,0,1,7.39,13,52.09,52.09,0,0,1,2.57,16.8,50.89,50.89,0,0,1-2.58,16.65,36.45,36.45,0,0,1-7.22,13.13,33.41,33.41,0,0,1-11.83,8.64,39.35,39.35,0,0,1-16.47,3.18h-23.2Z"/></g><g class="cls-1"><path class="cls-2" d="M3368.67,2073.5h-11.94L3310.15,2185h16.53l13.6-33.3h44.55l13.8,33.3h16.62Zm11.72,64.9h-35.74l18.12-43.61Z"/></g><g class="cls-1"><path class="cls-2" d="M342.1,1865.6a91.58,91.58,0,0,1-17.4,54.09c-10.18,14.29-24.59,26.73-42.81,37-31.83,17.88-74,28.14-115.69,28.14-33.32,0-69.41-9-98.4-16.32-14.21-3.57-32.83-8.23-41.7-8.68v7.1H0v-12.5c0-6.19,2.39-15.18,6-28.8,5.8-21.83,14.58-54.82,14.58-85.4v-12.5H46.7v12.5c0,42.94,25.17,115.6,119.5,115.6,30.41,0,57.43-6.16,76.07-17.33,20.86-12.5,31.43-31.2,31.43-55.57,0-39.25-27.49-55-107-94.79-10-5-20.25-10.14-31.29-15.78-50.36-25.86-81.59-46.44-101.31-66.73-20.75-21.36-30-43.35-30-71.3,0-29.1,13.63-55.91,38.38-75.51,27.58-21.84,67.8-33.39,116.32-33.39,22.79,0,49.49,4.08,73,7.68,18.14,2.77,44.62,6.82,54.45,5.35V1530H313v12.5c0,6.11-2.24,13.79-5.62,25.42-6,20.5-15,51.47-15,88.28v12.5H265.7v-12.5c0-68.43-35-101.7-106.9-101.7-67.94,0-92.6,37-92.6,61.9,0,28.47,5.66,48.82,117.2,106,6.87,3.53,13.89,7,21.33,10.75,30,15,64,32,90,52.27C326.61,1810.24,342.1,1836.47,342.1,1865.6Z"/></g><g class="cls-1"><path class="cls-2" d="M566.5,1525.4c-62.4,0-115.07,22.49-152.33,65C377.82,1632,358.6,1689.8,358.6,1757.7c0,63.63,21,121.48,59,162.89s90.92,64.21,148.91,64.21c61.9,0,114.42-22.6,151.88-65.36,36.65-41.84,56-99.74,56-167.44C774.4,1620.7,687,1525.4,566.5,1525.4Zm7.5,430.3c-37.23,0-74-19.07-100.82-52.33-21.8-27-47.78-76.19-47.78-157.27,0-132.29,78.18-191.8,133.7-191.8,37.23,0,74,19.07,100.82,52.33,21.8,27,47.78,76.19,47.78,157.27,0,65.53-16.92,118.17-48.93,152.24C635.49,1940.91,603.8,1955.7,574,1955.7Z"/></g><g class="cls-1"><path class="cls-2" d="M1074.4,1639.1v-12.5c0-15.17-12.17-29.6-34.28-40.63-30.48-15.2-78.5-23.35-138.87-23.57-3.6,0-8.09,0-9.68.48-.77,1.2-2.68,5.9-3.64,23.7-.93,17.28-.93,43.11-.93,82.22v83.54c42.85-37.5,124.08-42.94,193.7-42.94h12.5v26.2h-7.54c-4.27,8.78-11.36,35.21-11.36,66.5v21.07l-26.1-14.25v-7.42c0-31.64-32-43.54-45.71-47.19-38.57-10.25-92.37,0-112,34.39l-3.45,6v42.46c-.26,42.82.3,68.6,1.87,86.29,1.72,19.25,4.5,24.93,5.52,26.41h12v26.2H802.6v-26.2h11.73c1.11-1.72,3.7-7.62,5.41-26.58,1.58-17.59,2.26-43.34,2.26-86.12V1669.3c0-41.31-.68-66.24-2.26-83.35-1.71-18.44-4.34-24.23-5.38-25.85H802.64l0-26.2h90.7c31,0,57.32.11,78.43.2,48.47.21,80.11.34,91.27-1.45v-7.45h26.1v12.5c0,12.27,2.84,28,5.59,43.13,2.86,15.78,5.81,32.08,5.81,45.77v12.5Z"/></g><g class="cls-1"><path class="cls-2" d="M1513,1657.8v12.5h-26.1v-12.5c0-11-7.23-35.31-27.14-57-16.12-17.54-45.53-38.44-94.06-38.44-3.78,0-8.91,0-10.43.59-.76,1-2.84,5.28-3.95,23.29-1,17.07-1.12,42.56-1.12,82.52v168.4c0,42.31.64,67.78,2.15,85.17,1.67,19.32,4.25,25.6,5.43,27.53h11.32v26.2H1266.4v-26.2H1278c1.11-1.79,3.61-7.8,5.28-26.72,1.53-17.3,2.25-42.22,2.47-86V1668.7c0-39.88-.07-65.32-1.1-82.42-1.06-17.9-3.09-22.38-3.86-23.45-1.54-.53-6.37-.53-9.94-.53-48.57,0-78.11,20.92-94.34,38.46-20.07,21.71-27.36,45.94-27.36,56.94v12.5h-26.1v-12.5c0-11.85,3.66-26.74,7.89-44,5.68-23.09,12.11-49.27,12.11-76v-12.5h26.1v5.1c6,1.16,19.31,2.76,48,3.49,25.81.66,53.49.37,70,.2,4.9,0,8.73-.09,11.12-.09h39.4c2.43,0,6.35,0,11.36.1,16.54.18,44.23.48,70-.17,28.65-.72,41.89-2.33,47.88-3.5v-5.13h26v12.6c0,26.77,6.43,52.94,12.11,76C1509.34,1631.06,1513,1645.95,1513,1657.8Z"/></g><g class="cls-1"><path class="cls-2" d="M2162.49,1950h19.74l-13.11,26.2H2071.2V1950h11.73c1.11-1.72,3.7-7.62,5.41-26.58,1.58-17.59,2.26-43.34,2.26-86.12v-37c-23.58-3-50.11-17.94-78-33.61-31.2-17.51-63.46-35.62-89.38-35.62-19.21,0-33.75,6.23-43.23,18.51-10.27,13.32-11.07,28.62-11.07,33v58.78c-.26,40.82.28,65.6,1.82,82.86,1.62,18.3,4.23,24.11,5.28,25.76h11.67l0,26.2H1784.4V1950h11.73c1.11-1.72,3.7-7.62,5.41-26.58,1.58-17.59,2.26-43.34,2.26-86.12V1669.4c0-41.31-.68-66.24-2.26-83.35-1.71-18.44-4.34-24.23-5.38-25.85h-11.71l-.05-26.2h103.3v26.2H1876c-1.08,1.76-3.53,7.61-5.1,25.93-1.44,16.79-2,40.77-2,82.77V1719c14.16-11,32.81-17,54.3-17,34.42,0,70.39,21.13,105.18,41.56,22.18,13,45,26.43,62.22,30.14V1669.4c0-41.31-.68-66.24-2.26-83.35-1.71-18.44-4.34-24.23-5.38-25.85h-11.72l0-26.2h97.92l13.11,26.2h-19.67c-1.05,1.63-3.53,7.32-5.07,25.92-1.57,19-1.89,46.82-1.89,82.78v172.48c-.27,41.4.23,66.19,1.65,82.88C2158.84,1942.91,2161.49,1948.51,2162.49,1950Z"/></g><g class="cls-1"><path class="cls-2" d="M2586.4,1949.9c-1.38,0-4,0-10.39-11.29-7.64-13.4-17.95-38.29-34.48-83.22L2445,1592.81l-.67-1.81c-2.48-6.59-8-21.3-10.53-30.9h1.7v-26.2h-55.15l-5.24-12-4.34,12H2355.1v26.2h2.35c-.29.84-.61,1.78-1,2.82l-44.6,122.27c-9.61,26.21-16,50.31-19,72h-7.47l-3.08,8c-15.84,41.2-33.79,87.89-49.32,123.89-19.69,45.61-28.58,57.64-31.79,60.8h-10v26.2h103.3v-26.2H2282c-3.46,0-5-1.15-6.27-3-8.25-11.74-7.5-53.49,17.78-133.57,2.81,13.89,7.85,26.07,15.06,36.4,15.16,21.71,40.41,34.68,67.53,34.68,43.72,0,74.26-28,92-47.18,10.57,29.2,19,53.19,25.08,71.51,7.73,23.38,10.68,35.2,11.65,41.17h-7.39v26.2h101.5v-26.2ZM2455,1813c-13.19,14.83-37.75,42.44-78.85,42.44-8.57,0-30-2.15-44-22.06-13-18.52-22.47-57,6-135.5l38.7-107.37c1.32,3.46,2.69,7.14,4.12,11.07l57.69,155.79q10.35,28,19.25,52.31C2457.08,1810.68,2456.08,1811.8,2455,1813Z"/></g><g class="cls-1"><path class="cls-2" d="M2974.94,1949.9c-.05,0-5.76-1.23-16.08-24-7.86-17.34-16-41.67-24.6-67.42-6.48-19.43-13.19-39.51-20.75-59.76-16.82-44.87-38.55-64.06-72.66-64.11h-1c52.22-22,98.77-52.14,99.07-98.79,0-76-93.83-110.6-181-110.6-13.82,0-31.74,1.66-52.49,3.58-25.86,2.4-55.17,5.12-82.91,5.12H2610l.05,26.2h11.71c1,1.62,3.67,7.41,5.38,25.85,1.58,17.11,2.26,42,2.26,83.35v171.9c0,41.08-.68,65.89-2.26,82.93-1.71,18.39-4.35,24.15-5.39,25.77H2610v26.2h103.3l0-26.2h-11.72c-1-1.62-3.67-7.37-5.31-25.73-1.55-17.24-2.09-42-1.83-83v-35.62c15.53,5.51,39.07-4,68.07-15.73,20.35-8.23,43.4-17.55,56.52-17.55h.28c12.45.33,15.16,5.13,26.29,34.54,1.06,2.79,2.17,5.72,3.35,8.79,13.56,36.58,26.38,71.49,34.15,96.67,6.89,22.29,8.47,32.77,8.63,37.6h-7.59v26.2h103.3l0-26.2ZM2747.4,1737.22c-17.34,5.95-32.32,11.1-43.78,16.85a80.17,80.17,0,0,0-9.22,5.25V1588.5c0-22.18,8.92-34.2,56-34.2,37.63,0,68.43,7,89.07,20.1,22,14,32.63,34.47,32.63,62.53-.14,25-13.21,45.66-39.94,63.31C2807.3,1716.65,2775.47,1727.58,2747.4,1737.22Z"/></g><g class="cls-1"><path class="cls-2" d="M3466,1662.48V1841.3c0,41.08.68,65.89,2.26,82.93,1.71,18.38,4.34,24.15,5.39,25.77h11.71l0,26.2h-97.92l-13.11-26.2h19.49c1-1.61,3.67-7.37,5.31-25.73,1.55-17.24,2.09-42,1.83-82.89V1729.77c-5.21,27.41-11.6,55-19.22,81.15-14.75,50.61-32.52,90.88-52.83,119.68-25.36,36-54.74,54.2-87.35,54.2-17.93,0-36.53-2.77-51.13-22.83-10.58-14.53-18.47-36-32.17-78.75l-84-262.4c1,133.35,3.54,209.11,8.51,258.92,6.82,68.25,17.54,70.16,17.65,70.16H3113v26.2H3009.8v-26.2h12.5c.14,0,.51,0,1.45-.94,5.87-5.88,13.89-26.57,18.79-91.74,4.08-54.31,5.79-133.08,5.56-255.4v-40.39a38.78,38.78,0,0,0-11.6-1.33h-7.72l-13.11-26.2H3127.2v25.21c2.18,10.66,7.05,28.75,12.51,45.9l86.3,271.81c10,31.54,17.6,51.08,23.85,61.5,5,8.28,7.3,8.28,8.84,8.28,19.85,0,37.59-20.13,49-37,16-23.75,31.53-58.68,44.86-101C3377,1731,3392.8,1633.69,3393,1560.1h-12.6v-26.2h105v26.2h-12.24c-.95,1.65-3.07,7-4.6,23S3466.24,1623.69,3466,1662.48Z"/></g><g class="cls-1"><path class="cls-2" d="M3721.4,1525.4c-62.4,0-115.07,22.49-152.33,65-36.35,41.52-55.57,99.36-55.57,167.26,0,63.63,20.95,121.48,59,162.89s90.92,64.21,148.91,64.21c61.9,0,114.42-22.6,151.88-65.36,36.65-41.84,56-99.74,56-167.44C3929.3,1620.7,3841.87,1525.4,3721.4,1525.4Zm92.27,390.74c-23.28,24.77-55,39.56-84.77,39.56-37.23,0-74-19.07-100.82-52.33-21.8-27-47.78-76.19-47.78-157.27,0-132.29,78.18-191.8,133.7-191.8,37.23,0,74,19.07,100.82,52.33,21.8,27,47.78,76.19,47.78,157.27C3862.6,1829.43,3845.68,1882.07,3813.67,1916.14Z"/></g><g class="cls-1"><path class="cls-2" d="M4344.6,1791.7c0,22.19-2,65.34-15.23,105.06-19.22,57.59-55.62,88-105.27,88-47.06,0-78.67-16.33-102.5-52.93-21.56-33.13-35.75-80.63-55.4-146.37l-.88-2.92-49.08-161.07c1,132.93,3.54,208.51,8.51,258.23,6.82,68.25,17.54,70.16,17.65,70.16h12.5v26.2H3951.6v-26.2h12.5c.14,0,.51,0,1.45-.94,5.87-5.88,13.89-26.57,18.79-91.74,4.08-54.31,5.79-133.08,5.56-255.4v-40.59a42.5,42.5,0,0,0-11.4-1.13h-7.72l-13.13-26.2H4069.2v26.2h-2.84a81.42,81.42,0,0,0,2.94,16.31l52.57,174.18c26,86,48,139.45,69.06,168,17.21,23.31,31.9,27.87,51.47,27.87,24.19,0,43.07-16.61,56.1-49.37,10.87-27.32,17.1-65.75,17.1-105.43,0-74.91-16.85-134.29-26.89-163-7.3-20.88-15.51-38.69-23.76-51.51-9.59-14.91-15.24-16.91-15.8-17.07H4236.8v-26.2h103.8v26.2h-12.5a8.21,8.21,0,0,0-3.06.4c-.3.42-2,3.34-1.36,15,.59,10.82,2.85,25.33,5.72,43.7C4335.82,1660.31,4344.6,1716.54,4344.6,1791.7Z"/></g><g class="cls-1"><path class="cls-2" d="M4767.3,1533.9v26.2H4756c-8.39,3.92-36.73,33.46-73.49,87-39.4,57.37-72.48,119-90.76,169.1l-3,8.22q1.51,16,1.51,31.9c0,33.28.66,53.92,2.2,69,1.75,17.14,4.38,22.92,5.51,24.68h11.19v26.2h-97.93l-13.09-26.2h19.22c1.1-1.57,3.87-7.1,5.68-24.55,1.56-14.93,2.22-35.61,2.22-69.15,0-54.56-24.22-126-66.45-196.1-17-28.22-35.93-54.25-53.27-73.28-19.57-21.49-30.41-26.65-32.93-26.82H4360l0-13.7v-12.5h103.3v21.92c3.71,5.5,9.32,13,14.49,19.93,18.56,24.82,46.6,62.32,70,109.68a423.53,423.53,0,0,1,32.47,88.75c14.8-34.94,32.56-70.62,48.7-103,14-28.2,27.29-54.84,36-75.78,9.21-22.25,10.42-31.69,10.36-35.27H4664v-26.2Z"/></g><path class="cls-2" d="M2128.93,935.7c-11.27,56.49-35.2,107.41-71.12,151.35-4.1,5-8.59,9.87-12.93,14.61l-3,3.25q-6-4.71-11.89-9.59a257.82,257.82,0,0,0,21.35-15.33c17.06-14,28.06-33.5,34.61-61.24,7.32-31.47,1.1-61.16-5.94-86.06-9.92-34.85-25.67-69.68-51.05-112.95-23.42-39.73-47.45-79.95-70.69-118.85q-9.73-16.32-19.49-32.64c-16.85-28.29-27.55-60-31.79-94.36-12.56-102.47,40.41-203.14,131.78-250.5a260.09,260.09,0,0,1,59.77-21.86c-2.07,11.76-4.19,23.83-6.2,35.65q-8.59,50.1-17.19,100.37l-.45,2.62q-1.61,9.33-3.22,18.66c-4.21,24.31-8.56,49.44-12.61,74.17-1.15,7.08-2.38,14.28-3.56,21.25-3.82,22.52-7.77,45.8-10.13,68.93-3.83,37.07,1,74.77,14.71,115.26,10.51,30.9,27.51,61.12,53.46,95.08,7.83,10.41,15.93,21.18,24,31.69l.1.13a12.31,12.31,0,0,1,2.52,10.45l0,.15c-1.85,9.42-3.55,19-5.2,28.26C2132.92,914.54,2131,925.23,2128.93,935.7Z"/><path class="cls-2" d="M2028,1064.46a70,70,0,0,1-20,11.7q-9-8.28-17.72-17a570,570,0,0,1-121.95-180.86,568.08,568.08,0,0,1,52.46-539.54,570.56,570.56,0,0,1,250.35-206.17,570.92,570.92,0,0,1,442.91,0q20.19,8.54,39.74,18.68c-17.78,21.16-41.27,39.73-73.33,58A361.36,361.36,0,0,1,2449,254.12c-21.41,3-43.48,4.09-64.82,5.18l-7.65.39c-30.21,1.62-61,2.63-90.78,3.6h-.35c-18,.55-36.22,1-53.88,1.46-26.49.67-53.88,1.36-80.8,2.34-82.53,3-151.39,34.71-204.67,94.27-34,38-55.81,82.93-64.85,133.49-11.67,65.38-.79,127.73,32.32,185.31,13.68,23.8,28.16,47.58,42.16,70.57,8.17,13.42,16.61,27.29,24.8,41,21,35.3,43,73.16,60.2,113.71,11.6,27.31,18,52,19.59,75.52C2062.73,1016.49,2052.17,1043.8,2028,1064.46Z"/><path class="cls-2" d="M2460.27,846.42c-5.81-7-11.82-14.27-18-21s-14.07-9.26-23-7c-6.3,1.62-12.72,3.9-18.94,6.11l-1.49.53c-9.78,3.45-18.64,1.83-26.36-4.8-2.82-2.43-5.77-4.82-8.62-7.14l-3.14-2.55-.13-.12c-5.5-4.83-11.31-7-19.9-7.4l-2,.59a57.83,57.83,0,0,0-10.81,4c-6.95,3.58-13.85,7.79-20.51,11.85l-1,.59,5.64.84c5.1.75,10.39,1.52,15.61,2.41,16.22,2.91,29,11.3,39.42,19.11,11.34,8.48,22.38,10,34.74,4.73,10.95-4.67,21.81-6.16,32.27-4.4,7.12,1.17,14.32,2.46,21.28,3.71l5.73,1Zm4,26.69c-4.65-.74-9.46-1.5-14.19-2.65-18.16-4.45-34.18-3.64-49,2.47-6.59,2.75-14.22,3.23-23.3,1.47-9.57-1.9-17.06-6.95-24.3-11.84L2351,860.9l-2.83-1.94c-5.2-3.58-10.57-7.28-15.93-8.69-11.21-2.92-23-4.85-34.39-6.72l-5.41-.89c6.32,8.15,12.73,16.35,19.13,24.45,5,6.39,9.49,12,13.77,17.19,8.13,9.82,17.94,15.59,30,17.61,10.88,1.7,21.87,3.67,32.49,5.58l8.16,1.45c8.11-.66,14.28-1.79,19.78-5.12,13.68-8.18,27.53-16.59,40.92-24.71l9.4-5.71Zm0,0c-4.65-.74-9.46-1.5-14.19-2.65-18.16-4.45-34.18-3.64-49,2.47-6.59,2.75-14.22,3.23-23.3,1.47-9.57-1.9-17.06-6.95-24.3-11.84L2351,860.9l-2.83-1.94c-5.2-3.58-10.57-7.28-15.93-8.69-11.21-2.92-23-4.85-34.39-6.72l-5.41-.89c6.32,8.15,12.73,16.35,19.13,24.45,5,6.39,9.49,12,13.77,17.19,8.13,9.82,17.94,15.59,30,17.61,10.88,1.7,21.87,3.67,32.49,5.58l8.16,1.45c8.11-.66,14.28-1.79,19.78-5.12,13.68-8.18,27.53-16.59,40.92-24.71l9.4-5.71Zm-4-26.69c-5.81-7-11.82-14.27-18-21s-14.07-9.26-23-7c-6.3,1.62-12.72,3.9-18.94,6.11l-1.49.53c-9.78,3.45-18.64,1.83-26.36-4.8-2.82-2.43-5.77-4.82-8.62-7.14l-3.14-2.55-.13-.12c-5.5-4.83-11.31-7-19.9-7.4l-2,.59a57.83,57.83,0,0,0-10.81,4c-6.95,3.58-13.85,7.79-20.51,11.85l-1,.59,5.64.84c5.1.75,10.39,1.52,15.61,2.41,16.22,2.91,29,11.3,39.42,19.11,11.34,8.48,22.38,10,34.74,4.73,10.95-4.67,21.81-6.16,32.27-4.4,7.12,1.17,14.32,2.46,21.28,3.71l5.73,1Zm0,0c-5.81-7-11.82-14.27-18-21s-14.07-9.26-23-7c-6.3,1.62-12.72,3.9-18.94,6.11l-1.49.53c-9.78,3.45-18.64,1.83-26.36-4.8-2.82-2.43-5.77-4.82-8.62-7.14l-3.14-2.55-.13-.12c-5.5-4.83-11.31-7-19.9-7.4l-2,.59a57.83,57.83,0,0,0-10.81,4c-6.95,3.58-13.85,7.79-20.51,11.85l-1,.59,5.64.84c5.1.75,10.39,1.52,15.61,2.41,16.22,2.91,29,11.3,39.42,19.11,11.34,8.48,22.38,10,34.74,4.73,10.95-4.67,21.81-6.16,32.27-4.4,7.12,1.17,14.32,2.46,21.28,3.71l5.73,1Zm4,26.69c-4.65-.74-9.46-1.5-14.19-2.65-18.16-4.45-34.18-3.64-49,2.47-6.59,2.75-14.22,3.23-23.3,1.47-9.57-1.9-17.06-6.95-24.3-11.84L2351,860.9l-2.83-1.94c-5.2-3.58-10.57-7.28-15.93-8.69-11.21-2.92-23-4.85-34.39-6.72l-5.41-.89c6.32,8.15,12.73,16.35,19.13,24.45,5,6.39,9.49,12,13.77,17.19,8.13,9.82,17.94,15.59,30,17.61,10.88,1.7,21.87,3.67,32.49,5.58l8.16,1.45c8.11-.66,14.28-1.79,19.78-5.12,13.68-8.18,27.53-16.59,40.92-24.71l9.4-5.71Zm0,0c-4.65-.74-9.46-1.5-14.19-2.65-18.16-4.45-34.18-3.64-49,2.47-6.59,2.75-14.22,3.23-23.3,1.47-9.57-1.9-17.06-6.95-24.3-11.84L2351,860.9l-2.83-1.94c-5.2-3.58-10.57-7.28-15.93-8.69-11.21-2.92-23-4.85-34.39-6.72l-5.41-.89c6.32,8.15,12.73,16.35,19.13,24.45,5,6.39,9.49,12,13.77,17.19,8.13,9.82,17.94,15.59,30,17.61,10.88,1.7,21.87,3.67,32.49,5.58l8.16,1.45c8.11-.66,14.28-1.79,19.78-5.12,13.68-8.18,27.53-16.59,40.92-24.71l9.4-5.71Zm-136.6-49.88c16.22,2.91,29,11.3,39.42,19.11,11.34,8.48,22.38,10,34.74,4.73,10.95-4.67,21.81-6.16,32.27-4.4,7.12,1.17,14.32,2.46,21.28,3.71l5.73,1-.82-1c-5.81-7-11.82-14.27-18-21s-14.07-9.26-23-7c-6.3,1.62-12.72,3.9-18.94,6.11l-1.49.53c-9.78,3.45-18.64,1.83-26.36-4.8-2.82-2.43-5.77-4.82-8.62-7.14l-3.14-2.55-.13-.12c-5.5-4.83-11.31-7-19.9-7.4l-2,.59a57.83,57.83,0,0,0-10.81,4c-6.95,3.58-13.85,7.79-20.51,11.85l-1,.59,5.64.84C2317.14,821.57,2322.43,822.34,2327.65,823.23ZM2850.39,537c-5.65-27.7-12.46-50.15-21.27-70-3.48,18.1-6.48,34.24-9.15,49.17q-4.52,24.89-9,49.76c-4.89,27.27-9.95,55.46-15.1,83.21-6.3,33.76-12.55,66.83-19.83,100.34-3.14,14.23-6.38,28.93-4.71,44.16,1,9.05,1.37,18.22,1.72,27.09.17,4.08.33,8.29.56,12.42.38,8.28-3.64,12.3-7.07,14.22a13.42,13.42,0,0,1-13.12.43c-4.54-2.43-7.41-7.3-7.87-13.36-.7-10.54-1.32-21.24-1.92-31.59l-.08-1.42-5.43-95.59c-.36-6.44-.79-13-1.23-19.38-7.11,6.72-11.14,13.75-12.54,21.85-.35,2-.58,4.14-.82,6.36-.28,2.58-.57,5.26-1.08,7.93A13.49,13.49,0,0,1,2709.06,734c-7.25,0-12.68-4.92-13.21-11.95-.42-5.75-.68-13.24,1-20.27,6.65-26.41,22.77-43.82,47.93-51.79,4.66-1.49,8.72-1.25,12.07.74s5.67,5.66,6.65,10.77l0,.12c.15.91.28,1.82.38,2.74,4.32-24.18,8.62-48.39,12.81-72l3-16.89c8.85-50.34,17.52-100.2,25.77-148.18.51-3,.14-6.59-.82-8-1.91-2.75-3.82-5.53-5.74-8.31-10.31-15-21-30.44-32.69-44.5-15.1-18.05-31.36-35.77-47.08-52.9q-7.45-8.15-14.9-16.29c-16.81-18.5-34-37.22-50.58-55.32q-12.69-13.84-25.37-27.69a9.89,9.89,0,0,0-1.8-1.63,10.34,10.34,0,0,0-2.23,1.24l-3.15,2.13c-3.89,2.63-7.92,5.36-12,7.9-61.94,39.06-135.36,60-224.44,64-16.92.76-34.06,1.19-50.64,1.6-9.18.23-18.67.47-28,.76-35.92,1.06-73.06,2.16-109.81,3.16-20.94.64-42,1.46-62.65,2.44-5.08.23-5.08.23-6,6.23-2.42,16.73-5.35,36.5-8.7,56.17-5.06,30.05-10.49,60.58-15.74,90.11-2.31,13.17-4.72,26.55-7.06,39.49-4.13,22.93-8.41,46.63-12.28,70-3.89,23.59-7.91,48-10,72.31-2.82,33.44,2.12,67.51,15.11,104.16,10.81,30.53,28.52,56.37,44.41,77.62C2178,871.37,2223.28,931.5,2267,989.65a205.48,205.48,0,0,0,22.39,24.67c12,11.09,27.93,15.23,42,17.82l8.5,1.55c13.4,2.47,27.25,5,40.91,6.35,18.42,1.79,36.66-3.62,57.39-17q18.87-12.23,37.77-24.54c16.44-10.71,33.45-21.78,50.22-32.61l5.67-3.65c13.11-8.41,26.66-17.11,38-28,6.65-6.4,14.5-6.65,20.49-.67a13.49,13.49,0,0,1,4.24,9.76c0,3.86-1.84,7.61-5.22,10.86l-4,3.88c-6,5.89-12.16,12-18.78,17.37-23.63,19.14-40.53,39.39-51.67,61.91-3.05,6.19-6.6,12-10.27,18-4,6.43-11.16,8.51-17.79,5.19-6.6-3.16-9.47-10.4-6.9-17.55l0-.1a85.38,85.38,0,0,1,4.24-9.61c1.54-2.78,3.11-5.7,4.78-8.86-4.5,2.91-9,5.84-13.35,8.7-7.47,4.89-15.19,9.94-22.87,14.79-26.8,16.9-53,23.71-80.07,20.82-14.3-1.52-28.63-4.07-42.48-6.54l-3.71-.66c-30.84-5.46-55.91-20.38-74.52-44.36-13.2-17-26.37-34.44-39.11-51.3l-14.73-19.46c-12-15.86-23.38-30.71-34.56-45.25-1.58,7.35-3,14.18-4.3,20.77-5.47,27.17-11.15,53.65-20.46,79.07a354.08,354.08,0,0,1-74.22,121c3.27,2.33,6.56,4.6,9.88,6.84a566.11,566.11,0,0,0,318.09,97.16,578.3,578.3,0,0,0,72.65-4.56c-1.14-6.77-2.2-13.53-3.17-20.19a328.39,328.39,0,0,1-2.2-74.13,25.33,25.33,0,0,1,2.46-9.06c2.42-5.25,7.31-8,13.38-7.43a12.87,12.87,0,0,1,11.61,9.68,28.11,28.11,0,0,1,1.06,8.52c-.1,2.89-.33,5.8-.55,8.61a96.09,96.09,0,0,0-.45,14.26c1,13.48,2.16,27.17,3.32,40.41.72,8.24,1.45,16.69,2.14,25.12A560.54,560.54,0,0,0,2582,1193.6c1.29-7.1,3.3-14.41,8.17-21.19,18.7-25.94,37.64-52.36,56-77.91s37.17-51.85,55.82-77.73c17.5-24.21,24.82-51.5,21.78-81.12-.75-7.49-2.76-14.81-4.89-22.57-1-3.69-2.06-7.51-3-11.34C2702,841.62,2682.14,782.08,2663,724.49q-5.67-17-11.29-34s0,0,0-.06l-.4.48c-8.85,11.12-12.08,23.2-9.89,36.93.11.61.23,1.26.36,1.91.57,2.93,1.21,6.25.51,9.65-.85,4-4.26,8.81-8.53,10.18s-9.53.09-12.75-1.82c-3.59-2.12-5.34-6.49-6.18-9.81a68.7,68.7,0,0,1,0-36.52c5.54-20.31,17.64-35.71,36-45.74,4.93-2.68,9.15-3.33,12.9-2s6.74,4.62,9,10a25.15,25.15,0,0,1,1,2.9c.09.32.18.64.28,1,3.57,10.84,7.17,21.78,10.76,32.73L2695,731.83l2,5.91c16.64,50.34,33.85,102.39,46.18,155,1.78,7.66,3.9,15.43,6,23q44-83.43,88-166.76c-8.78-1.74-18.92,3.07-23.9,11.48-2.59,4.39-5.1,9-7.53,13.46-1.94,3.55-3.94,7.22-6,10.81-5.77,10.21-14.11,10.49-20,7.34a13.17,13.17,0,0,1-7.09-9.09c-.74-3.61,0-7.54,2.24-11.69.8-1.49,1.59-3,2.38-4.48,3.39-6.39,6.89-13,10.79-19.37a72.75,72.75,0,0,1,10.76-13.59c10.07-9.69,23.05-14.09,38.66-13.12,1.06.07,3.23.21,3.69-.08a3,3,0,0,0,.59-1.33c10-35.33,15.14-68.91,15.83-102.67A356.94,356.94,0,0,0,2850.39,537Zm-369,562.59h-.27a14.44,14.44,0,0,1-14.5-14.13,13.42,13.42,0,0,1,3.84-9.59,14.7,14.7,0,0,1,10.3-4.45,14.1,14.1,0,0,1,10,3.85,13.86,13.86,0,0,1,4.4,9.92A14.46,14.46,0,0,1,2481.36,1099.57Zm-94.77-371.75c12.4,9.59,25.81,10.91,41,4,1-.47,2.05-1,3.16-1.63a53.57,53.57,0,0,1,5-2.5c7.59-3.22,14.75-.94,18.67,5.94a14.37,14.37,0,0,1-5.31,19.38,95.76,95.76,0,0,1-17,8.06l-.16,0a109.65,109.65,0,0,1-12.76,3c-2.26.44-4.4.86-6.52,1.35l-.68.16-.7,0c-24.51-1.19-44.12-10.8-58.28-28.55-5.48-6.88-5.35-14.9.32-20.44s13.42-5.61,20.36.19c1.5,1.29,3,2.56,4.39,3.83C2381,723.16,2383.69,725.56,2386.59,727.82Zm-225.9-396.67.14,0a107.63,107.63,0,0,1,13.56-1.8c5.08-.31,10.32-.54,15.4-.76l7.1-.32h.14c38.52-.8,72.55,4.36,104.08,15.76,28.83,10.4,49.38,25.45,62.8,46,4.59,7,7.61,14.86,10.53,22.48l.45,1.16a14,14,0,0,1-.22,11.25,15.43,15.43,0,0,1-13.33,8c-5,0-10.05-2.79-12.61-10.69-6.45-20.2-20.37-34.67-43.83-45.57a186.49,186.49,0,0,0-73.13-17.71c-13.07-.52-26.36-.6-39.2-.68-7.54,0-15.33-.09-23-.23h0a38.29,38.29,0,0,1-9-1c-6-1.46-9.7-6.41-9.7-12.91S2154.59,332.51,2160.69,331.15Zm16.46,199.11c-5.51,3.7-12.76,7-20-.46-5.6-5.88-5.53-13.31.13-19,6.37-6.37,14.14-10.87,24.45-14.16.33-.1.67-.23,1-.36a7.83,7.83,0,0,0-1-.88,42,42,0,0,0-23-8.14c-7,1.55-14.3,3.14-21.61,4.82-8.65,1.93-14.84-1.47-17.45-9.58-2.2-6.89.47-13,6.79-15.49,30.89-12.69,57.6-8.87,79.33,11.38q3.23,3,6.42,6.11c7.32,7,14.9,14.29,23.11,19.92,26.19,18,55.6,23.17,87.44,15.29a70.77,70.77,0,0,1,10.94-1.94c7.75-.66,13.32,3.35,15,10.74s-2.44,13.69-9.7,15.54c-3.27.81-6.62,1.78-9.86,2.72-9.34,2.7-19,5.49-28.87,5.49h-.74c-30.58-.41-57.06-8.06-78.7-22.75C2206.3,519.68,2192.43,519.9,2177.15,530.26Zm335.69,337.49c-.28,4-2.82,7.47-7.74,10.58-22.74,14.35-46.18,29.15-69.51,43.44-12.4,7.56-25.26,11-41.54,11h-1.68l-.39-.07c-8.51-1.46-19.71-3.41-30.88-5.43-1.82-.33-3.66-.63-5.49-.93a143.2,143.2,0,0,1-14.37-2.87c-19-5.09-31.43-18.59-40.17-29.79l-.18-.24c-14.17-18.24-28.82-37.09-43.31-55.64-5.07-6.51-7.87-11.57-6.18-16.66s6.93-7.39,14.31-9.42c13.37-3.61,25.26-10.73,35.37-17.12l1.87-1.19c9.53-6.06,19.39-12.33,31.61-14.18,17.29-2.63,31.44,1.61,42.06,12.59,8.3,8.54,16.78,10.24,27.47,5.5,22.77-10.07,44.42-4.43,61,15.89,14.06,17.21,27.69,31.31,41.67,43.1C2511.14,860,2513.13,863.77,2512.84,867.75ZM2661.29,822c9.28,14.64,16.05,26.75,21.3,38.12,3.15,6.82,5.1,15.48,5.78,25.73,1,15.78,1.49,31.77,2,47.23q.22,6.93.46,13.84h.64v5c0,.87,0,1.74,0,2.6,0,1.89.08,3.84-.05,5.87-.51,8.75-6,14.44-13.95,14.44s-13.69-5.91-14.21-14.37c-.49-9.18-.9-18.42-1.3-27.36q-.3-6.64-.6-13.32c-.17-3.6-.32-7.2-.48-10.81-.44-10.36-.91-21.07-1.51-31.55v-.11a10.8,10.8,0,0,0-1.41-4.92c-4.16-7-8.32-14.19-12.35-21.11-15.85-27.23-32.23-55.39-51.19-81.15-.19-.26-.41-.52-.63-.79a6.06,6.06,0,0,0-.48.89c-3.13,7.62-2.59,15.54,1.67,24.22q5,10.41,10.12,20.74c8.31,17,16.92,34.58,25,52.07l0,.1a59,59,0,0,1,4.94,22.22c.6,14.55.51,29.78-.28,46.48a32.28,32.28,0,0,1-5.77,16.73l-2,2.81c-19.64,27.26-39.95,55.45-56.89,85.08a261.12,261.12,0,0,0-20.4,45.67c-1.21,3.54-3.06,7.89-6.69,10.39a16.57,16.57,0,0,1-9.07,2.71,11.69,11.69,0,0,1-4.16-.7c-4.25-1.64-8.12-6.76-8.43-11.19-.34-5.41,1.15-10.89,2.48-15.08,6.7-21.87,18.08-41.08,28.32-57,14.32-22,29.49-44,44.17-65.17l5.75-8.31c2.66-3.88,4.43-7.39,4.36-11.9,0-6.41.08-12.86.19-19.1.13-7,.27-14.15.17-21.16a24.64,24.64,0,0,0-2.27-10.12c-7.73-16.3-15.79-32.88-23.59-48.91q-6-12.24-11.89-24.5c-12.13-25-6.42-52.77,14.23-69.21,3.5-2.83,8.26-6,13.72-5.15s8.93,5.29,11.1,8.56C2629.36,772.5,2646.25,798.39,2661.29,822Zm24.24-200.18c-1-1.19-2-2.44-2.94-3.64a60.29,60.29,0,0,0-4.55-5.37c-8.44-8.59-18.68-11.68-30.44-9.22-28.19,6-53.36,5.21-76.91-2.49a130.84,130.84,0,0,1-44-23.9c-4.79-4-6.07-8.09-6.3-10.8a12.91,12.91,0,0,1,3.26-9.55c4.1-4.92,9.43-6.4,14.61-4.06a75.5,75.5,0,0,1,11,5.79l.09.06c15.68,10.52,31.21,16.88,47.47,19.47,22.3,3.51,43.74,0,65.54-10.84,9.62-4.77,20-9.56,31.82-11.23a60.73,60.73,0,0,1,38.76,7.09c6.26,3.4,11.89,7.69,17.34,11.85l.89.68a17.14,17.14,0,0,1,4.73,5.7c.14.25.27.47.38.64l.8,1.2,0,1.45a15.33,15.33,0,0,1-6.83,13.44,13.27,13.27,0,0,1-13,.86,92.93,92.93,0,0,1-9.9-6c-1.18-.78-2.36-1.57-3.54-2.33-11.12-7.09-22.41-8.6-34.48-4.58l2.35,2.38c5.08,5.12,10.32,10.41,15.22,15.91,3.64,4.15,5,9.1,3.71,13.61s-5,8-10.24,9.6a12.74,12.74,0,0,1-3.79.6C2690.86,628.17,2687.24,623.88,2685.53,621.86Zm-235.47,248.6c-18.16-4.45-34.18-3.64-49,2.47-6.59,2.75-14.22,3.23-23.3,1.47-9.57-1.9-17.06-6.95-24.3-11.84L2351,860.9l-2.83-1.94c-5.2-3.58-10.57-7.28-15.93-8.69-11.21-2.92-23-4.85-34.39-6.72l-5.41-.89c6.32,8.15,12.73,16.35,19.13,24.45,5,6.39,9.49,12,13.77,17.19,8.13,9.82,17.94,15.59,30,17.61,10.88,1.7,21.87,3.67,32.49,5.58l8.16,1.45c8.11-.66,14.28-1.79,19.78-5.12,13.68-8.18,27.53-16.59,40.92-24.71l9.4-5.71-1.81-.29C2459.6,872.37,2454.79,871.61,2450.06,870.46Zm-122.41-47.23c16.22,2.91,29,11.3,39.42,19.11,11.34,8.48,22.38,10,34.74,4.73,10.95-4.67,21.81-6.16,32.27-4.4,7.12,1.17,14.32,2.46,21.28,3.71l5.73,1-.82-1c-5.81-7-11.82-14.27-18-21s-14.07-9.26-23-7c-6.3,1.62-12.72,3.9-18.94,6.11l-1.49.53c-9.78,3.45-18.64,1.83-26.36-4.8-2.82-2.43-5.77-4.82-8.62-7.14l-3.14-2.55-.13-.12c-5.5-4.83-11.31-7-19.9-7.4l-2,.59a57.83,57.83,0,0,0-10.81,4c-6.95,3.58-13.85,7.79-20.51,11.85l-1,.59,5.64.84C2317.14,821.57,2322.43,822.34,2327.65,823.23Zm132.62,23.19c-5.81-7-11.82-14.27-18-21s-14.07-9.26-23-7c-6.3,1.62-12.72,3.9-18.94,6.11l-1.49.53c-9.78,3.45-18.64,1.83-26.36-4.8-2.82-2.43-5.77-4.82-8.62-7.14l-3.14-2.55-.13-.12c-5.5-4.83-11.31-7-19.9-7.4l-2,.59a57.83,57.83,0,0,0-10.81,4c-6.95,3.58-13.85,7.79-20.51,11.85l-1,.59,5.64.84c5.1.75,10.39,1.52,15.61,2.41,16.22,2.91,29,11.3,39.42,19.11,11.34,8.48,22.38,10,34.74,4.73,10.95-4.67,21.81-6.16,32.27-4.4,7.12,1.17,14.32,2.46,21.28,3.71l5.73,1Zm4,26.69c-4.65-.74-9.46-1.5-14.19-2.65-18.16-4.45-34.18-3.64-49,2.47-6.59,2.75-14.22,3.23-23.3,1.47-9.57-1.9-17.06-6.95-24.3-11.84L2351,860.9l-2.83-1.94c-5.2-3.58-10.57-7.28-15.93-8.69-11.21-2.92-23-4.85-34.39-6.72l-5.41-.89c6.32,8.15,12.73,16.35,19.13,24.45,5,6.39,9.49,12,13.77,17.19,8.13,9.82,17.94,15.59,30,17.61,10.88,1.7,21.87,3.67,32.49,5.58l8.16,1.45c8.11-.66,14.28-1.79,19.78-5.12,13.68-8.18,27.53-16.59,40.92-24.71l9.4-5.71Zm0,0c-4.65-.74-9.46-1.5-14.19-2.65-18.16-4.45-34.18-3.64-49,2.47-6.59,2.75-14.22,3.23-23.3,1.47-9.57-1.9-17.06-6.95-24.3-11.84L2351,860.9l-2.83-1.94c-5.2-3.58-10.57-7.28-15.93-8.69-11.21-2.92-23-4.85-34.39-6.72l-5.41-.89c6.32,8.15,12.73,16.35,19.13,24.45,5,6.39,9.49,12,13.77,17.19,8.13,9.82,17.94,15.59,30,17.61,10.88,1.7,21.87,3.67,32.49,5.58l8.16,1.45c8.11-.66,14.28-1.79,19.78-5.12,13.68-8.18,27.53-16.59,40.92-24.71l9.4-5.71Zm-4-26.69c-5.81-7-11.82-14.27-18-21s-14.07-9.26-23-7c-6.3,1.62-12.72,3.9-18.94,6.11l-1.49.53c-9.78,3.45-18.64,1.83-26.36-4.8-2.82-2.43-5.77-4.82-8.62-7.14l-3.14-2.55-.13-.12c-5.5-4.83-11.31-7-19.9-7.4l-2,.59a57.83,57.83,0,0,0-10.81,4c-6.95,3.58-13.85,7.79-20.51,11.85l-1,.59,5.64.84c5.1.75,10.39,1.52,15.61,2.41,16.22,2.91,29,11.3,39.42,19.11,11.34,8.48,22.38,10,34.74,4.73,10.95-4.67,21.81-6.16,32.27-4.4,7.12,1.17,14.32,2.46,21.28,3.71l5.73,1Zm0,0c-5.81-7-11.82-14.27-18-21s-14.07-9.26-23-7c-6.3,1.62-12.72,3.9-18.94,6.11l-1.49.53c-9.78,3.45-18.64,1.83-26.36-4.8-2.82-2.43-5.77-4.82-8.62-7.14l-3.14-2.55-.13-.12c-5.5-4.83-11.31-7-19.9-7.4l-2,.59a57.83,57.83,0,0,0-10.81,4c-6.95,3.58-13.85,7.79-20.51,11.85l-1,.59,5.64.84c5.1.75,10.39,1.52,15.61,2.41,16.22,2.91,29,11.3,39.42,19.11,11.34,8.48,22.38,10,34.74,4.73,10.95-4.67,21.81-6.16,32.27-4.4,7.12,1.17,14.32,2.46,21.28,3.71l5.73,1Zm4,26.69c-4.65-.74-9.46-1.5-14.19-2.65-18.16-4.45-34.18-3.64-49,2.47-6.59,2.75-14.22,3.23-23.3,1.47-9.57-1.9-17.06-6.95-24.3-11.84L2351,860.9l-2.83-1.94c-5.2-3.58-10.57-7.28-15.93-8.69-11.21-2.92-23-4.85-34.39-6.72l-5.41-.89c6.32,8.15,12.73,16.35,19.13,24.45,5,6.39,9.49,12,13.77,17.19,8.13,9.82,17.94,15.59,30,17.61,10.88,1.7,21.87,3.67,32.49,5.58l8.16,1.45c8.11-.66,14.28-1.79,19.78-5.12,13.68-8.18,27.53-16.59,40.92-24.71l9.4-5.71Zm0,0c-4.65-.74-9.46-1.5-14.19-2.65-18.16-4.45-34.18-3.64-49,2.47-6.59,2.75-14.22,3.23-23.3,1.47-9.57-1.9-17.06-6.95-24.3-11.84L2351,860.9l-2.83-1.94c-5.2-3.58-10.57-7.28-15.93-8.69-11.21-2.92-23-4.85-34.39-6.72l-5.41-.89c6.32,8.15,12.73,16.35,19.13,24.45,5,6.39,9.49,12,13.77,17.19,8.13,9.82,17.94,15.59,30,17.61,10.88,1.7,21.87,3.67,32.49,5.58l8.16,1.45c8.11-.66,14.28-1.79,19.78-5.12,13.68-8.18,27.53-16.59,40.92-24.71l9.4-5.71Zm-4-26.69c-5.81-7-11.82-14.27-18-21s-14.07-9.26-23-7c-6.3,1.62-12.72,3.9-18.94,6.11l-1.49.53c-9.78,3.45-18.64,1.83-26.36-4.8-2.82-2.43-5.77-4.82-8.62-7.14l-3.14-2.55-.13-.12c-5.5-4.83-11.31-7-19.9-7.4l-2,.59a57.83,57.83,0,0,0-10.81,4c-6.95,3.58-13.85,7.79-20.51,11.85l-1,.59,5.64.84c5.1.75,10.39,1.52,15.61,2.41,16.22,2.91,29,11.3,39.42,19.11,11.34,8.48,22.38,10,34.74,4.73,10.95-4.67,21.81-6.16,32.27-4.4,7.12,1.17,14.32,2.46,21.28,3.71l5.73,1Z"/><path class="cls-2" d="M2961.6,656.89A566.25,566.25,0,0,1,2864.45,975a571,571,0,0,1-243.75,203.33c38.17-53.79,77.94-109.63,118.35-166.15a30.19,30.19,0,0,0,5.83-15.19c1.56-15.08,8-28.9,14.63-41.59Q2813,854.19,2866.4,753.1c2.34-4.4,6.67-12.51.22-21.07a13.93,13.93,0,0,1,.41-2.73c1.57-6.62,3.23-13.32,4.84-19.81,3.11-12.54,6.33-25.52,9-38.46,5.49-26,5.41-52.55,4.72-72.72-2.35-73.67-23.85-143.07-63.9-206.27-12.25-19.29-27.57-36.25-42.38-52.65l-2.72-3L2655.37,202.93c-1.51-1.68-3-3.31-4.52-4.89l-2.32-2.49,0,0a.46.46,0,0,0,.07-.07l9.36-9.28c6.93-6.86,14-13.91,21.11-21q16.19,9.42,31.7,19.91A570.71,570.71,0,0,1,2916.9,435.43,565.43,565.43,0,0,1,2961.6,656.89Z"/><path class="cls-2" d="M2392.64,0C2030,0,1736,294,1736,656.66s294,656.67,656.67,656.67,656.66-294,656.66-656.67S2755.3,0,2392.64,0Zm509.53,971.87c-.84,1.35-1.67,2.69-2.52,4-1.14,1.81-2.29,3.63-3.46,5.43q-1.43,2.22-2.88,4.43a604,604,0,0,1-37,50.33l0,0q-2.82,3.45-5.7,6.86l-.73.86q-1.48,1.76-3,3.49c-.33.4-.68.81-1,1.21l-2.83,3.24a4.52,4.52,0,0,1-.42.48q-1.58,1.78-3.18,3.57l-3,3.33-.43.47c-.86,1-1.73,1.9-2.6,2.84l-.69.74q-1.76,1.91-3.53,3.78a.31.31,0,0,1-.1.1c-.93,1-1.88,2-2.82,3s-2,2.07-3,3.09l-.28.29c-1.11,1.14-2.22,2.28-3.35,3.42q-3,3-6,6l-3.41,3.35-2.5,2.41-1.73,1.65-2.55,2.41c-.33.32-.66.64-1,.95l-1.27,1.18-2.28,2.12-.24.22q-1.89,1.76-3.8,3.47c-.75.69-1.51,1.38-2.27,2.05-1.82,1.65-3.66,3.27-5.5,4.88-1,.87-2,1.72-3,2.58l-2.6,2.23c-.93.81-1.86,1.61-2.8,2.38l-1.91,1.61c-.78.67-1.57,1.32-2.36,2l-1.18,1c-.39.33-.79.66-1.18,1-.57.48-1.15.94-1.72,1.4s-1,.86-1.57,1.28l-.76.61-2,1.63q-.3.25-.6.48l-1.44,1.14-2.71,2.14-1.25,1-.46.35-1.21.94c-.68.53-1.36,1.06-2.05,1.58l-.36.28-.5.38-.31.24c-1.16.89-2.33,1.77-3.5,2.64-1,.76-2,1.52-3,2.27l-2.15,1.59-2.92,2.13-2.18,1.59-2.25,1.6c-.83.6-1.67,1.18-2.51,1.77l-2.5,1.75c-1.46,1-2.91,2-4.38,3l-1.33.91-.11.07-.7.48-.53.36-.12.08-.34.23-.07.05a0,0,0,0,0,0,0l-.54.36-3.89,2.6h0q-2.73,1.81-5.48,3.58l-.47.3c-1.43.93-2.87,1.84-4.31,2.75s-3.14,2-4.73,3q-1.86,1.16-3.72,2.28c-1.51.93-3,1.84-4.54,2.75-1.3.78-2.62,1.55-3.93,2.32q-4.17,2.48-8.39,4.82l-3.36,1.89q-2.07,1.16-4.15,2.28l-4,2.17q-4,2.15-8.08,4.24c-1.35.7-2.71,1.39-4.07,2.07l-4.35,2.18-1.08.53-.16.08-2.33,1.14c-1.43.69-2.85,1.38-4.29,2.06l-3.7,1.75-4,1.86-4,1.83c-2.69,1.21-5.4,2.4-8.11,3.57-1.35.59-2.71,1.17-4.07,1.74l-3.91,1.64-4.35,1.79-3.73,1.49c-1.49.59-3,1.18-4.46,1.75l-2.74,1.06-.14,0c-.68.27-1.37.53-2,.78l-3.9,1.46-3.92,1.43q-2.43.89-4.88,1.74c-.9.33-1.8.64-2.7,1l-4.25,1.46-5.91,2-.12,0-5.91,1.89-4,1.25-2.88.88-.7.22-4.46,1.32q-2,.6-4.05,1.17t-4.05,1.14l-4.95,1.36q-3.84,1-7.71,2-2.86.73-5.73,1.43c-2.05.51-4.11,1-6.18,1.49a575.39,575.39,0,0,1-98.88,14.32q-19,1.09-37.83,1.09a618.58,618.58,0,0,1-88.77-6.31,594.67,594.67,0,0,1-176.66-55.51q-.57-.27-1.14-.57-29.4-14.86-56.47-32.12a601.73,601.73,0,0,1-197.57-208.62,655.8,655.8,0,0,1-44.39-97.7q-1.23-3.42-2.41-6.87c-.07-.19-.13-.39-.2-.58a594.41,594.41,0,0,1-22.18-88.06l-.51-3q-2.36-14.36-4.08-29-1.53-13-2.5-25.95c0-.11,0-.21,0-.32-.1-1.34-.19-2.68-.28-4l-.12-1.82q-1-16.38-1.18-33c0-1.73,0-3.46,0-5.2,0-1,0-2,0-3l0-3.4q.15-11.76.79-23.4a637.34,637.34,0,0,1,15.86-111.26l.36-1.48a596,596,0,0,1,96-207.76l2.68-3.66q8.15-11,16.87-21.81a621.71,621.71,0,0,1,60.15-64.44c1.15-1.07,2.31-2.14,3.47-3.19q2.35-2.15,4.73-4.25l1.31-1.16c.24-.22.48-.44.73-.64q7.65-6.77,15.53-13.23,2.57-2.12,5.16-4.21l.44-.35c1.83-1.47,3.66-2.92,5.51-4.37q2.28-1.79,4.59-3.56c.55-.44,1.1-.86,1.66-1.28l3.92-3c.63-.48,1.26-1,1.89-1.42l5-3.68q2.55-1.86,5.13-3.7l1.05-.74q2.72-1.94,5.46-3.83,2-1.39,4-2.76c1-.69,2-1.37,3-2l4.05-2.7,2.24-1.48q2.17-1.42,4.37-2.83l.33-.21q2-1.26,3.94-2.49c.35-.23.69-.45,1-.66.89-.56,1.78-1.12,2.68-1.67l1.45-.9,1.46-.89.64-.39,1.14-.7,1.19-.72,1.8-1.08,2.74-1.63.12-.07a618.3,618.3,0,0,1,145.23-61.2,563.59,563.59,0,0,1,107.12-19.25c6.83-.59,13.75-1.06,20.54-1.51l4.61-.3c.67-.09,2.26-.2,4.06-.31h0q4.38-.16,8.78-.26h0c2.11.17,14.51,0,18.52-.15h.06l3.12,0h0l.44.05c.87.11,1.73.2,2.59.29l2,.22,1,.11h9.85l4.61.22A628.35,628.35,0,0,1,2522,72.42c105.3,23.44,198.78,72.44,277.88,145.64,73.11,67.85,126.71,150.23,159.31,244.85a594.07,594.07,0,0,1,31.57,166.62l-2.7-.9a6.2,6.2,0,0,0-3.89,0l-3.4,1.13h0v9c0,1.46,0,2.84-.08,4.23l0,.27v.07l-.29,5h.37c0,1.35,0,2.69,0,4,0,.81,0,1.6,0,2.38,0,.44,0,.87,0,1.31,0,1.15,0,2.3-.07,3.45l-.19,5.19h.27v19h6l3.85-1c-2.81,60.11-13.85,118-32.84,172.23a601.48,601.48,0,0,1-53.5,113.49Z"/><path class="cls-2" d="M1797.8,727.19q-1.53-13-2.5-25.95,2,27.87,6.58,55Q1799.52,741.87,1797.8,727.19Zm-4.08-76.66q.15-11.76.79-23.4a637.34,637.34,0,0,1,15.86-111.26A600.28,600.28,0,0,0,1793.72,650.53Zm33.46,204.2q-1.23-3.42-2.41-6.87a594.61,594.61,0,0,0,46.8,104.57A655.8,655.8,0,0,1,1827.18,854.73ZM1909.42,303q8.15-11,16.87-21.81a621.71,621.71,0,0,1,60.15-64.44A599.31,599.31,0,0,0,1909.42,303ZM2069.14,1161a595.85,595.85,0,0,0,56.47,32.12Q2096.21,1178.31,2069.14,1161Zm19.12-1020.12a618.3,618.3,0,0,1,145.23-61.2,563.59,563.59,0,0,1,107.12-19.25c6.83-.59,13.75-1.06,20.54-1.51l4.61-.3c.67-.09,2.26-.2,4.06-.31A595.61,595.61,0,0,0,2088.26,140.93Zm304.38-83q-7,0-14,.17c2.11.17,14.51,0,18.52-.15Zm238,1148.7c-1.35.59-2.71,1.17-4.07,1.74l-3.91,1.64-4.35,1.79-3.73,1.49c-1.49.59-3,1.18-4.46,1.75l-2.74,1.06-.14,0c-.68.27-1.37.53-2,.78-1.3.5-2.6,1-3.9,1.46l-3.92,1.43q-2.43.9-4.88,1.74c-.9.33-1.8.64-2.7,1l-4.25,1.46-5.91,2-.12,0-5.91,1.89-4,1.25-2.88.88-.7.22-4.46,1.32q-2,.6-4.05,1.17t-4.05,1.14c-1.65.46-3.3.92-4.95,1.36q-3.84,1-7.71,2-2.86.73-5.73,1.43-3.08.76-6.18,1.49a575.39,575.39,0,0,1-98.88,14.32q-19,1.09-37.83,1.09a618.58,618.58,0,0,1-88.77-6.31,603.52,603.52,0,0,0,89.23,6.6,596.22,596.22,0,0,0,246.11-52.79C2636.06,1204.27,2633.35,1205.46,2630.64,1206.63Zm36.13-17.07q4.06-2.07,8.08-4.24Q2670.83,1187.47,2666.77,1189.56Zm60.69-36,.54-.36.16-.12Zm73.63-58.7,1.27-1.18c.34-.31.67-.63,1-.95C2802.6,1093.42,2801.85,1094.14,2801.09,1094.84ZM2755,1133.72l.31-.23h0Zm236.56-479q0-4.06-.08-8.11c0-.93,0-1.86-.05-2.78,0-1.83-.09-3.66-.15-5.48,0-1.51-.09-3-.15-4.52s-.11-2.8-.17-4.2C2976.84,314,2718.51,62,2400.41,58l.44.05c.87.11,1.73.2,2.59.29l2,.22,1,.11h9.85l4.61.22A628.35,628.35,0,0,1,2522,72.42c105.3,23.44,198.78,72.44,277.88,145.64,73.11,67.85,126.71,150.23,159.31,244.85a594.07,594.07,0,0,1,31.57,166.62l-2.7-.9a6.2,6.2,0,0,0-3.89,0l-3.4,1.13h0v9c0,1.46,0,2.84-.08,4.23l0,.27v.07l-.29,5h.37c0,1.35,0,2.69,0,4,0,.81,0,1.6,0,2.38,0,.44,0,.87,0,1.31,0,1.15,0,2.3-.07,3.45l-.19,5.19h.27v19h6l3.85-1c-2.81,60.11-13.85,118-32.84,172.23a601.48,601.48,0,0,1-53.5,113.49A595.2,595.2,0,0,0,2991,682.61q.16-3.64.27-7.3.11-3.18.16-6.37l0-1.74q.06-3.61.08-7.25v0c0-.85,0-1.7,0-2.55v-.47C2991.6,656.16,2991.6,655.42,2991.59,654.69Z"/><path class="cls-2" d="M2755.34,1133.48l-.31.24.31-.23.5-.39ZM2084.78,143l-1.18.72,1.8-1.08Z"/><path class="cls-2" d="M2727.46,1153.54l.54-.36.16-.12Z"/><path class="cls-2" d="M2773.14,453.94c-2.91,7.49-10.8,10.58-19.21,7.52-6.46-2.37-13-4.85-19.27-7.26-12.23-4.66-24.88-9.48-37.45-13.58-24.84-8.08-51.92-11.19-80.5-9.26-23.05,1.62-41,10.26-55,26.4l-.09.1-.62.7a34.25,34.25,0,0,1-2.47,2.58,14.88,14.88,0,0,1-10.17,4.52,12.62,12.62,0,0,1-8.08-3.05c-6.35-5.27-7.28-12.19-2.56-19a82.67,82.67,0,0,1,32.8-28.07c18.34-9.08,41.93-13.6,66.38-12.7,38.46-1,76.29,12.16,111.46,26.51,2.17.9,4.34,1.76,6.5,2.62,3.09,1.22,6.28,2.49,9.42,3.84C2772.42,439.33,2776,446.62,2773.14,453.94Z"/></svg>