<svg id="Camada_1" data-name="Camada 1" xmlns="http://www.w3.org/2000/svg" viewBox="0 0 526.9 375.94"><defs><style>.cls-1{fill:#fff;}</style></defs><title>12-SOLANGE ALMEIDA</title><path class="cls-1" d="M286.9,206.87c1,8.09-1.41,16.82-3.43,25-7.55,30.48-26.35,51.63-54.94,64.23-13.22,5.83-27.29,6.91-41.47,7q-73.25.17-146.48.19H29.18C44.26,287.61,58.32,273,72.41,258.43c5.79-6,11.44-12.13,17.56-17.77a13.48,13.48,0,0,1,8.15-3.52c30-.24,60,0,90-.26a49.43,49.43,0,0,0,17.42-3.1c9.53-3.81,13.92-11.89,14.44-22,.54-10.67-3.3-19.42-12.61-24.85-3.24-1.89-7.59-2.55-11.45-2.59-22.16-.25-44.34.46-66.48-.31-37-1.29-64.77-19.38-81.17-51.87-19.52-38.69-9-79.67,20.36-107.22C81.05,13.26,95.55,5.26,112.19,1.89,119.61.39,127.44.48,135.08.45L294.61.26c-2.85,3-61.06,61.66-61.06,61.66-3.31,3.45-6,3.8-10.17,3.76h-93A23.46,23.46,0,0,0,107.6,85.07c-2.5,14.61,3,26.47,14.53,31.12a19.31,19.31,0,0,0,6.87,1.07c24,.32,48.07-.67,72,1.1,31.08,2.3,55,17.84,72,44.22C281.68,176.19,285.1,191.44,286.9,206.87Z"/><path class="cls-1" d="M493.61,302.55c-16,0-31.45,1.22-46.58-.31-19.18-1.93-34-12.92-43.31-29.47-11.48-20.39-21.42-41.65-32.09-62.5Q358,183.68,344.25,157.16c-.75-1.45-1.79-2.75-3-4.51l-29.85,67.84V200.17c.14-27.59-11.19-49.85-31.73-67.68-2.79-2.43-2.19-4.38-.91-6.9,9.3-18.2,18.67-36.36,27.85-54.62,11.43-22.71,34.94-69.61,35.9-71Z"/><path class="cls-1" d="M0,370.32l5-6.06a16.3,16.3,0,0,0,10.19,4.09c3.71,0,5.42-1.44,5.42-3.43,0-2.77-2.3-3.49-6-5l-5-2.17c-4.3-1.62-8.19-5-8.19-10.71,0-6.5,5.78-11.67,14.08-11.67a18.46,18.46,0,0,1,12.79,5.17L24,346.07a13.46,13.46,0,0,0-8.84-3.13c-2.89,0-4.83,1.26-4.83,3.55s2.59,3.25,6.31,4.63l4.66,2c5.07,1.93,8.25,5.11,8.25,10.65,0,6.5-5.36,12.15-14.91,12.15A21.91,21.91,0,0,1,0,370.32Z"/><path class="cls-1" d="M34.65,355.46c0-13.11,6.35-20.2,15.44-20.2s15.44,7,15.44,20.16c0,13.42-6.31,20.52-15.44,20.52S34.65,368.88,34.65,355.46Zm22,0c0-8.12-2.53-12.51-6.54-12.51s-6.54,4.39-6.54,12.51c0,8.48,2.53,12.88,6.54,12.88s6.52-4.4,6.52-12.88Z"/><path class="cls-1" d="M74.07,336h8.66V367.8H99.82v7.46H74.07Z"/><path class="cls-1" d="M115.61,336H126l12,39.23h-9.19l-2.3-9.33H114.85l-2.36,9.33h-8.84Zm1,23h8.07l-.88-3.61c-1-3.91-2.18-8.48-3.06-12.63h-.24c-.94,4.15-2,8.72-3,12.63Z"/><path class="cls-1" d="M142.37,336h8.9l8.07,19.49,3.3,8.66h.24c-.41-4.15-1.24-9.63-1.24-14.26V336h8.31v39.24H161l-8-19.56-3.3-8.54h-.24c.41,4.33,1.24,9.57,1.24,14.2v13.9h-8.31Z"/><path class="cls-1" d="M176.43,355.88c0-13.12,7.78-20.58,17.74-20.58a15.36,15.36,0,0,1,11.26,5l-4.77,5.47a8.27,8.27,0,0,0-6.48-2.83c-5,0-8.78,4.75-8.78,12.63,0,8.06,3.06,12.75,9.13,12.75a5.69,5.69,0,0,0,3.77-1.2v-6.74h-5.6v-7.22h13.38v18a18.25,18.25,0,0,1-12,4.75C184.21,376,176.43,369.06,176.43,355.88Z"/><path class="cls-1" d="M214.61,336h25.46v7.46H223.33v7.88h14.2v7.4h-14.2v9h17.33v7.49h-26Z"/><path class="cls-1" d="M292.39,336h10.37l12,39.23h-9.19l-2.3-9.33H291.63l-2.36,9.33h-8.84Zm1,23h8.07l-.88-3.61c-1-3.91-2.18-8.48-3.06-12.63h-.24c-.94,4.15-2,8.72-3,12.63Z"/><path class="cls-1" d="M321.56,336h8.66V367.8h17.09v7.46H321.56Z"/><path class="cls-1" d="M354,336h9.08l3.77,13.9,1.3,5.42h.24l1.3-5.42,3.77-13.9h9.08v39.23h-7.31V363.1c0-4.39.77-14,1.12-18.17h-.18l-3,10.47-3,9.45H366l-3-9.45-2.77-10.47h-.18c.41,4.21,1.12,13.78,1.12,18.17v12.16H354Z"/><path class="cls-1" d="M391.39,336h25.46v7.46H400.11v7.88h14.2v7.4h-14.2v9h17.33v7.49h-26Z"/><path class="cls-1" d="M425.69,367.79h9v-24.3h-9V336h26.64v7.46h-9V367.8h9v7.46H425.69Z"/><path class="cls-1" d="M460.81,336h10.61c11.2,0,18.5,6,18.5,19.43s-7.31,19.79-18,19.79H460.81ZM471,368.1c6,0,10.08-3.25,10.08-12.63S477,343.2,471,343.2h-1.41v24.91Z"/><path class="cls-1" d="M504.53,336H514.9l12,39.23h-9.19l-2.3-9.33H503.76l-2.35,9.33h-8.84Zm1,23h8.07l-.88-3.61c-1-3.91-2.18-8.48-3.06-12.63h-.24c-.94,4.15-2,8.72-3,12.63Z"/></svg>