<svg id="logo_soodermaria-HORIZ_Imagem" data-name="logo_soodermaria-HORIZ Imagem" xmlns="http://www.w3.org/2000/svg" viewBox="0 0 321.22 86.35"><defs><style>.cls-1{fill:#fff;}</style></defs><title>13-SOODER MARIA</title><path class="cls-1" d="M43,0C18,.48.13,20.14,0,42.92S17.54,86.18,43,86.24c23.3.06,42.35-17.68,43.31-43.12C85.3,17.42,65.93.41,43,0Zm.06,83.84C20.76,84.06,2.34,65.48,2.36,43.13S20.79,2.3,43.06,2.5c22.85.2,40.34,18.07,40.69,40.65C83.41,65.73,66,83.62,43.1,83.84Z"/><path class="cls-1" d="M243.73,42.71c-.22,1.59.17,1.87,1.72,1.58.5-.09,1-.13,1.45-.19.12.18.19.24.2.31.36,2.34.36,2.35-2,2.93-1.86.46-3.72.93-5.58,1.37-1.56.37-1.89,0-1.64-1.55q1.38-8.82,2.77-17.64a1.71,1.71,0,0,0-.12-1c-.18.36-.37.7-.55,1.06q-3.37,6.95-6.77,13.89a3,3,0,0,1-3,1.59c-.82-.14-.73-.76-.8-1.37-.53-4.52-1.09-9-1.64-13.55a.79.79,0,0,0-.36-.56c-.28,1.62-.55,3.23-.84,4.84a27.88,27.88,0,0,1-3.32,9.43c-2.58,4.32-7.66,5.83-11.63,3.31-.83-.53-1.94-1-1.8-2.31.13-1.13,1.7-2.92,2.8-3a2.15,2.15,0,0,1,1.41.72c.63.6,1,1.43,1.71,2a2.42,2.42,0,0,0,3.55-.31,8.33,8.33,0,0,0,2.26-4.67c1.06-6.42,2.06-12.86,3.08-19.29a2.33,2.33,0,0,0,0-.5,4.39,4.39,0,0,0-3.66,2.21,9.66,9.66,0,0,0-1.51,5,3.73,3.73,0,0,1-3.48,3.35c-.93,0-1.45-.32-1.39-1.33.41-6.51,4.07-11.54,11.16-12.19,3.83-.34,3.86-.34,4.81,3.4.64,2.52,1.23,5,1.74,7.59s.91,5,1.39,7.73c.28-.51.47-.84.64-1.18,2.63-5.42,5.27-10.84,7.87-16.29a2.12,2.12,0,0,1,2-1.51,15.49,15.49,0,0,0,2-.3c1.37-.22,1.7.09,1.47,1.46-.58,3.46-1.24,6.92-1.78,10.39C245.1,32.9,244.4,37.81,243.73,42.71Z"/><path class="cls-1" d="M178,11.51a10.49,10.49,0,0,0-9.48,1.94,15.88,15.88,0,0,0-5.68,9.19,2,2,0,0,1-2.29,1.87,8.33,8.33,0,0,0-5.73,2.09c-5.13,4.75-7.75,10.6-7.21,17.63.31,4,4.07,5.54,7.25,3.14a21.75,21.75,0,0,0,2.92-3,23.85,23.85,0,0,0,1.44-2c0,1,0,1.87,0,2.74.18,2.66,1.91,4,4.42,3.07a17.14,17.14,0,0,0,3.9-2.43c1.71-1.21,1.43-2.83.77-4.64L164.84,45l-.53-.37c.06-.73.06-1.48.17-2.2.76-5,1.45-10,2.34-14.91a86.66,86.66,0,0,1,2.4-10.22c.79-2.54,2.7-3.09,5.19-2a3.14,3.14,0,0,0,4.5-2.06C179.19,12.35,179,11.75,178,11.51ZM153.58,44l-.65-.14c0-1.33-.16-2.66-.06-4a24.29,24.29,0,0,1,2.74-9.72c1.45-2.71,3.07-3.09,6-1.56A27.82,27.82,0,0,1,153.58,44Z"/><path class="cls-1" d="M269,40.31a8.12,8.12,0,0,0-1.32,1c-1.07,1.17-2.08,2.39-3.12,3.58l-.44-.23a10.76,10.76,0,0,1,.06-1.14c.93-5.8,1.84-11.59,2.84-17.37.2-1.15-.14-1.57-1.21-1.61-1.44-.06-2.87-.17-4.31-.17a10.47,10.47,0,0,0-7.73,3.26,22.17,22.17,0,0,0-5.61,10.29,15,15,0,0,0-.23,7.36,3.91,3.91,0,0,0,5.44,2.91A5.42,5.42,0,0,0,255.28,47c1.34-1.39,2.58-2.88,3.86-4.32,0,.82-.06,1.72,0,2.61.21,2.54,1.86,3.72,4.3,2.95a9.65,9.65,0,0,0,3-1.69A12.55,12.55,0,0,0,268.77,44a4.32,4.32,0,0,0,.69-2.07A4.77,4.77,0,0,0,269,40.31ZM253.51,44l-.42-.07a13.27,13.27,0,0,1-.32-2.4,24.26,24.26,0,0,1,1.67-8.88,11.44,11.44,0,0,1,1.8-2.93,4.36,4.36,0,0,1,5.12-1.11A25.79,25.79,0,0,1,253.51,44Z"/><path class="cls-1" d="M321.16,41.36a1.35,1.35,0,0,0-.84-.86c-.25-.07-.7.28-.94.54-.54.59-1,1.28-1.51,1.86s-1.31,1.3-2,1.94l-.29-.2c0-.54,0-1.09.12-1.63.92-5.67,1.83-11.35,2.82-17,.18-1.07-.2-1.4-1.12-1.45l-3.6-.17a11,11,0,0,0-6.1,1.37c-5.46,3.11-9.77,12.87-8.37,19,.58,2.52,2,3.9,4.11,3.68a6.12,6.12,0,0,0,3.22-1.33,49.43,49.43,0,0,0,4-4.39,20.84,20.84,0,0,0,0,2.84c.3,2.37,1.83,3.38,4.16,2.81a6.82,6.82,0,0,0,1.44-.56A13.2,13.2,0,0,0,321,43.06,2.56,2.56,0,0,0,321.16,41.36Zm-16.37,2.88a8.25,8.25,0,0,1-.42-1.49c-.19-4.48.45-8.78,3.12-12.53,1.56-2.18,3.29-2.67,5.42-1.65A26.24,26.24,0,0,1,304.79,44.24Z"/><path class="cls-1" d="M113.48,19.24c-.14,1.19-.32,2.38-.54,3.56A1.3,1.3,0,0,1,111.55,24a1.34,1.34,0,0,1-1.45-1.29c0-.28-.1-.55-.12-.83a3.1,3.1,0,0,0-2.12-2.8,3.55,3.55,0,0,0-3.8.73,5,5,0,0,0-.59,6.66c1.35,1.78,2.89,3.42,4.35,5.11a12.49,12.49,0,0,1,3.27,5.5c.81,3.75-1.42,8.13-5.09,10.13a12.41,12.41,0,0,1-6.3,1.48,10,10,0,0,1-5.78-1.78,2.11,2.11,0,0,1-.81-1.45,3.21,3.21,0,0,1,2-2.92c1.08-.56,1.76.16,2.55.75a13.64,13.64,0,0,0,3,1.89c3,1.2,5.68-.61,5.91-3.85a6.73,6.73,0,0,0-1.86-4.91c-1.64-2-3.33-3.89-5-5.81-2.7-3.07-1.83-7.79-.06-10.4a9.37,9.37,0,0,1,12.76-3A2,2,0,0,1,113.48,19.24Z"/><path class="cls-1" d="M147.81,29.38c-.53-2.78-2.58-4.88-4.85-5.15A7.78,7.78,0,0,0,136.82,26,19,19,0,0,0,130,40.51a26.79,26.79,0,0,0,.37,2.84c.84,3.6,3.49,5.64,6.73,5a12.79,12.79,0,0,0,4-1.66,13.91,13.91,0,0,0,4.68-5.51A17.54,17.54,0,0,0,147.81,29.38Zm-7.69,14.06c-.63,1-1.33,2.1-2.7,1.81s-1.61-1.65-1.8-2.83a20.15,20.15,0,0,1,1.46-11.47,11.85,11.85,0,0,1,1.6-2.64c1.31-1.64,2.76-1.36,3.49.6a5.72,5.72,0,0,1,.3,1.15c.15,1.15.25,2.3.31,2.93C142.65,37,142.07,40.43,140.12,43.44Z"/><path class="cls-1" d="M130,30.35c-.49-4.16-3.26-6.66-7-6.07a8.13,8.13,0,0,0-4.06,1.81,25.14,25.14,0,0,0-4.54,5.48,16,16,0,0,0-2.1,11.52c.88,4.5,4.46,6.46,8.71,4.75A9.94,9.94,0,0,0,124,46a18.61,18.61,0,0,0,6.1-13.73C130.12,31.79,130.13,31.07,130,30.35Zm-6.92,11.31a8.56,8.56,0,0,1-1.48,2.43,3.1,3.1,0,0,1-2.16,1.09,2.74,2.74,0,0,1-1.58-1.83,18.87,18.87,0,0,1,2.51-14.68c.06-.1.12-.23.22-.28.7-.37,1.45-1.06,2.1-1s1.29,1,1.47,1.62a36.7,36.7,0,0,1,.73,4.46A22.59,22.59,0,0,1,123.12,41.66Z"/><path class="cls-1" d="M185,41.21c-1-.82-1.51.38-2.21.75a45.4,45.4,0,0,1-5,2.61A1.9,1.9,0,0,1,175,43.09a34.66,34.66,0,0,1-.67-3.65,9.45,9.45,0,0,1,1.1-.27,11,11,0,0,0,6-2.63c2.78-2.4,4.35-5.31,3.5-9.1a4,4,0,0,0-4.56-3.28A7.43,7.43,0,0,0,176,26a19.11,19.11,0,0,0-6.77,14.53c-.12,6.79,4.8,9.79,10.74,6.54a36.59,36.59,0,0,0,4.23-2.92C185.17,43.47,185.6,41.72,185,41.21ZM178,28.45a5.4,5.4,0,0,1,1.62-.84,6.74,6.74,0,0,1,.7,1.56c.55,3.51-1.85,6.63-5.69,7.29A14.6,14.6,0,0,1,178,28.45Z"/><path class="cls-1" d="M206.68,26.25c-.57.92-1.11,1.85-1.64,2.79a1.13,1.13,0,0,1-1.88.43,1.24,1.24,0,0,0-2,.27c-1.51,2.1-3,4.23-4.39,6.39-2,3.11-2.4,6.71-2.91,10.27-.23,1.59-.34,1.7-2,1.79L190,48.3c-1.41.1-1.64-.14-1.4-1.53.83-5,1.69-9.92,2.5-14.88.21-1.27.26-2.57.39-3.85l-.6-.26c-1.07,1.26-2.12,2.55-3.24,3.77a5.71,5.71,0,0,1-1.29.79c-.16-.5-.53-1-.44-1.48a5.45,5.45,0,0,1,.93-2.36,19.82,19.82,0,0,1,3.22-3.19,6.24,6.24,0,0,1,2.71-1.11c2-.34,3.24.59,3.56,2.61a29.06,29.06,0,0,1,.18,3.58c.52-.72,1-1.44,1.5-2.06a26,26,0,0,1,2.81-2.93,4.74,4.74,0,0,1,5.36-.74C207.07,25,207.15,25.52,206.68,26.25Z"/><path class="cls-1" d="M288.46,26.17c-.57.92-1.11,1.86-1.63,2.8s-1.11,1.09-1.86.5a1.22,1.22,0,0,0-2,.25c-1.44,2-2.81,4.06-4.17,6.11-2.15,3.25-2.48,7-3,10.74-.15,1.05-.6,1.46-1.63,1.45-.79,0-1.59.13-2.39.19-1,.06-1.39-.26-1.2-1.34q1.35-7.8,2.59-15.61c.17-1.07.16-2.18.23-3.27l-.32-.13a17.88,17.88,0,0,0-1.37,1.23c-.64.72-1.2,1.5-1.83,2.23-.4.47-.65,1.41-1.53.9a1.52,1.52,0,0,1-.5-2.22c1.42-2.3,3.07-4.44,5.65-5.52,2.74-1.14,4.69.15,4.86,3.1.05.86,0,1.72,0,2.5,1.37-1.53,2.65-3.15,4.13-4.56a4.65,4.65,0,0,1,5.44-.85C288.7,25,288.9,25.45,288.46,26.17Z"/><path class="cls-1" d="M297.32,45.42c-1.31,1.18-2.52,2.45-4.31,2.9-2.31.58-4.07-.42-4.13-2.78a46.22,46.22,0,0,1,.67-7.12c.27-2.14.68-4.26.95-6.4a21.58,21.58,0,0,0,0-2.68,5.21,5.21,0,0,1-1,.16c-.5,0-1.41-.11-1.42-.23a5,5,0,0,1,.26-1.87c.08-.24.5-.39.78-.51,1.95-.83,3.9-1.66,5.85-2.46,1.47-.6,1.94-.25,1.68,1.35-.82,5.21-1.7,10.4-2.55,15.6-.17,1.06-.27,2.12-.41,3.19l.4.2L298,40.59C298.17,42.33,298.9,44,297.32,45.42Z"/><path class="cls-1" d="M297.74,19.15a3.53,3.53,0,0,1-3.32,3.56,3.47,3.47,0,0,1-3.34-3.63,3.41,3.41,0,0,1,3.29-3.53A3.45,3.45,0,0,1,297.74,19.15Z"/><path class="cls-1" d="M39.1,33.57l-2,.12c0,.63-.62,1.81,1.5.85l-.15-.06Zm0,0-2,.12c0,.63-.62,1.81,1.5.85l-.15-.06Zm0,0-2,.12c0,.63-.62,1.81,1.5.85l-.15-.06Zm0,0-2,.12c0,.63-.62,1.81,1.5.85l-.15-.06Zm0,0-2,.12c0,.63-.62,1.81,1.5.85l-.15-.06Zm0,0-2,.12c0,.63-.62,1.81,1.5.85l-.15-.06Zm0,0-2,.12c0,.63-.62,1.81,1.5.85l-.15-.06Zm0,0-2,.12c0,.63-.62,1.81,1.5.85l-.15-.06Zm0,0-2,.12c0,.63-.62,1.81,1.5.85l-.15-.06Zm0,0-2,.12c0,.63-.62,1.81,1.5.85l-.15-.06Zm0,0-2,.12c0,.63-.62,1.81,1.5.85l-.15-.06Zm0,0-2,.12c0,.63-.62,1.81,1.5.85l-.15-.06Zm0,0-2,.12c0,.63-.62,1.81,1.5.85l-.15-.06Zm3.87-11A20.53,20.53,0,1,0,63.53,43.12,20.6,20.6,0,0,0,43,22.57Zm-.89,31.35A2.52,2.52,0,0,0,41.37,55c-.25.79-.82,1-1.45,1.49a15.05,15.05,0,0,0-3.24,3.46c-.24.31.18,1.12.34,1.91a8.22,8.22,0,0,1-3.11-5.54,4.29,4.29,0,0,0-1.62-3.12,5.88,5.88,0,0,1-1.73-2.53,3,3,0,0,1,.19-2.09c.43-1,.29-1.42-.69-1.87a4.8,4.8,0,0,1-1.3-1.25c-.61-.67-1-1.48-2-1.82-.54-.19-1.32-.77-1.35-1.22-.2-2.48-1.51-5-.35-7.45a19.21,19.21,0,0,1,8.13-9,5.87,5.87,0,0,1,5-.51c.92.27,1.7.58,1.63,1.78,0,.24.35.49.54.73-1.16,1.71-2.45,1.68-3.83.13l1.7-.52c-.22-.78-.35-1.28-1.26-.65a16.91,16.91,0,0,1-2.53,1.23c-.47.22-.94.43-1.39.69-.82.46-.87,1-.24,1.74a11.3,11.3,0,0,1,1,1.59c.44-.64.93-1.47,1.53-2.22.33-.41.91-1,1.26-.93s.85.75,1.41,1.31l.69-.25c.43,1.7,1.78,3.08,1.68,5.11l-1.71-.66h0c-.15.23-.31.48-.47.71a7.84,7.84,0,0,1-2.09.13c-.62-.12-1-.26-1.31.47-.08.19-.42.28-.64.41-.61.36-1.47.46-1.46,1.44a.35.35,0,0,1-.2.28c-1.58.45-2,1.61-1.66,3.35-.55-.89-.8-1.72-1.32-2a2.66,2.66,0,0,0-2,.16c-.85.39-.78,2.23.07,3.46l.93-.85a5.14,5.14,0,0,1,.26.66c0,.07-.08.17-.06.23.35,1,.44,2.32,1.13,3s1.86.41,2.82.35a6.2,6.2,0,0,1,3.07.66c.66.51,1.4.94,2.09,1.42.23.15.56.33.61.54.36,1.79,1.87,2,3.22,2.53C43.2,52.11,43.29,52.78,42.08,53.92Zm5.1-25.21a3.07,3.07,0,0,0-2.74,1.53c-.43,1-1.24.78-1.58.27a5.66,5.66,0,0,1-.7-2.46,5.5,5.5,0,0,1,.33-1.65c.19-.84-.31-1.06-1-1.31-.26-.1-.3-.81-.46-1.3a1.67,1.67,0,0,1,.52-.17,17.46,17.46,0,0,1,6.11,1c1,.42,1,1.45,1.12,2.16A1.57,1.57,0,0,1,47.18,28.71Zm1.25.54,2.49.61-.09.42C49.47,31,49,30.84,48.43,29.25ZM50.58,60.5C51.79,58.83,53,57.29,54,55.72a5.34,5.34,0,0,0,.62-1.52,8.57,8.57,0,0,1,.4-1.73c.42-.75-.22-1-.53-1.35a1.24,1.24,0,0,0-1-.23c-2.62.51-4.37-1.35-3.83-4.24A4.91,4.91,0,0,1,52,43.08a.76.76,0,0,0,.34-.47c.15-1.18,1.11-1.25,1.94-1.33,1-.1,2.07,0,3.17,0l1.45,2.64.83-.93c1.79.91,2,.85,2.09-.53l-1.69-1.91c0,.17-.09.42-.16.79l-1.59-2.64-.2.12,1,2-.31.16-1.65-2.3a3.38,3.38,0,0,0-2.37,1.65c-.18.36-1.1.45-1.67.43-.19,0-.45-.71-.5-1.12a6.57,6.57,0,0,1,.16-1.55l2,.25L54,36.52l1.2-.47-1.6-.22V34.41c-.16.18-.24.32-.34.36-.31.13-.64.23-1,.34,0-.36,0-.84.19-1s.77-.39.37-.95c0,0,.17-.34.24-.33a.86.86,0,0,1,.59.23c.55.86,1.06,1.76,1.77,3,.32-.92.57-1.64.81-2.35-1.32-.47-1.67-1.3-1.21-2.42.15-.37,0-.86.13-1.26a1.74,1.74,0,0,1,.59-.95c.15-.1.63.13.87.33a15,15,0,0,1,5.26,8.09c.16.6.23,1.23.35,1.91L61,38.63c-.1.51-.21,1-.34,1.63l1.82-.2C64.52,48.34,58.33,58.76,50.58,60.5Zm-12-26-.15-.06.69-.91-2,.12C37.05,34.32,36.44,35.5,38.56,34.54Zm.54-1-2,.12c0,.63-.62,1.81,1.5.85l-.15-.06Zm0,0-2,.12c0,.63-.62,1.81,1.5.85l-.15-.06Zm0,0-2,.12c0,.63-.62,1.81,1.5.85l-.15-.06Zm0,0-2,.12c0,.63-.62,1.81,1.5.85l-.15-.06Zm0,0-2,.12c0,.63-.62,1.81,1.5.85l-.15-.06Zm0,0-2,.12c0,.63-.62,1.81,1.5.85l-.15-.06Zm0,0-2,.12c0,.63-.62,1.81,1.5.85l-.15-.06Zm0,0-2,.12c0,.63-.62,1.81,1.5.85l-.15-.06Zm0,0-2,.12c0,.63-.62,1.81,1.5.85l-.15-.06Zm0,0-2,.12c0,.63-.62,1.81,1.5.85l-.15-.06Zm0,0-2,.12c0,.63-.62,1.81,1.5.85l-.15-.06Zm0,0-2,.12c0,.63-.62,1.81,1.5.85l-.15-.06Z"/><path class="cls-1" d="M72.76,55.63a2.87,2.87,0,0,1-1.31,1,4.82,4.82,0,0,0-2.8,4c-.3,2.1-.62,4.19-1,6.27a4.18,4.18,0,0,1-.74,1.73c-1,1.31-2.11,2.51-3.07,3.84a9.13,9.13,0,0,1-4.29,2.92c-1,.38-1.92.79-2.88,1.17-.75.3-1.35.27-1.36-.49l-1.63-.6c.22-.47.33-1.13.71-1.39a39.71,39.71,0,0,1,4-2.33,1.24,1.24,0,0,1,1.1.27c1.13,1.13,2.18,1,2.83-.54s1.2-3.13,1.86-4.67a23.4,23.4,0,0,0,1.1-2.54,2.81,2.81,0,0,0-.46.52q-1.32,2.75-2.59,5.51a7.3,7.3,0,0,1-.5,1.21c-.24.33-.69.77-1,.72a1.38,1.38,0,0,1-1-.87,7,7,0,0,1-.07-2.57c.17-.84.76-1.59,1-2.43a17.07,17.07,0,0,0,.55-3.47c0-1-.21-2.07-.26-3.1a7.15,7.15,0,0,1,3.33-6.77c3.09-1.95,6.36-3.61,9.57-5.4,0,0,.15.06.16.12A12,12,0,0,1,72.76,55.63Z"/><path class="cls-1" d="M23.76,67.95a11.35,11.35,0,0,1-1.7-.76c-1.14-.81-2.26-1.65-3.35-2.53a4.34,4.34,0,0,1-1.73-4,3.93,3.93,0,0,0-1.47-3.51c-1.76-1.45-3.58-2.83-5.26-4.36a8.15,8.15,0,0,1-1.64-2.42c-.5-1-.78-2.1-1.24-3.11a8.86,8.86,0,0,1-.76-5.48c.24-1.22.34-2.46.53-3.68.12-.81.53-1.13,1.16-.75l1.21-1.17c.31.51.86,1,.9,1.53a27.8,27.8,0,0,1,0,4.28,1.3,1.3,0,0,1-.78.94c-1.59.46-2,1.38-1,2.72.84,1.11,1.79,2.15,2.62,3.27.71.95,1.32,2,2,3l.33-.21c-1-1.56-2.07-3.13-3.14-4.66a21.3,21.3,0,0,1-1.38-1.66c-.24-.42-.42-1.19-.19-1.47a1.54,1.54,0,0,1,1.47-.29,6.07,6.07,0,0,1,2.44,1.79,10.69,10.69,0,0,0,5.57,4.46,7.81,7.81,0,0,1,5.38,7.74C23.79,60.93,23.76,64.27,23.76,67.95Z"/><path class="cls-1" d="M79.45,43.7A41.63,41.63,0,0,1,78.93,48c-.12.8-.41,1.41-1.18.94l-1.29,1.17c-.3-.53-.82-1-.87-1.58a38.46,38.46,0,0,1,0-4.16,1,1,0,0,1,1-1.12c1.33-.18,1.71-1.06,1.07-2.24a3.32,3.32,0,0,0-.33-.5l-4.7-6.08a3,3,0,0,0,.23.66c1.18,1.71,2.38,3.41,3.57,5.1a5.82,5.82,0,0,1,.78,1,1.4,1.4,0,0,1,.06,1.11,1.49,1.49,0,0,1-1.13.42,3.78,3.78,0,0,1-3-2,9.68,9.68,0,0,0-5.37-4.31,7.82,7.82,0,0,1-5.43-7.7c0-3.38,0-6.76,0-10.35a4.65,4.65,0,0,1,1.21.4,48.2,48.2,0,0,1,4.64,3.76,3.83,3.83,0,0,1,.89,2.6,5.15,5.15,0,0,0,2.16,4.55c1.51,1.18,3.06,2.33,4.46,3.63a8.71,8.71,0,0,1,1.8,2.6,27.32,27.32,0,0,1,1.65,4.36A11.13,11.13,0,0,1,79.45,43.7Z"/><path class="cls-1" d="M32.23,11.49a3.6,3.6,0,0,1-1.12,1c-1,.64-2,1.22-3.08,1.79-.65.36-1.17.46-1.72-.32a1.25,1.25,0,0,0-2.2.08,5,5,0,0,0-.55,1c-.93,2.08-1.84,4.16-2.75,6.24a4.44,4.44,0,0,0-.19.51L21,22c.84-1.73,1.69-3.44,2.5-5.18.29-.61.36-1.33.7-1.91.25-.42.81-1,1.17-.94a1.49,1.49,0,0,1,1,1.12,8.73,8.73,0,0,1-.54,3.56,8.9,8.9,0,0,0-.9,6A10.05,10.05,0,0,1,25,27.45a7.33,7.33,0,0,1-3.46,5.87c-1.36.9-2.85,1.61-4.27,2.42s-3,1.72-4.45,2.58c-.23.13-.47.23-.86.42a5.32,5.32,0,0,1-.2-1.37c.16-1.58.34-3.17.59-4.74a4.06,4.06,0,0,1,2.46-3.18,4.1,4.1,0,0,0,2.4-3.24c.34-2,.55-4.12,1-6.14a14,14,0,0,1,1.46-3.18c.22-.41.69-.69.92-1.1,1.87-3.36,5-4.86,8.46-6,1.15-.4,1.38-.32,1.64.72a5.29,5.29,0,0,1,.78-.13C32.31,10.31,32.65,10.83,32.23,11.49Z"/><path class="cls-1" d="M65.28,15.94c.18.67.32,1.16.45,1.65-.59,0-1.28.31-1.75.09a39.12,39.12,0,0,1-3.82-2.18.88.88,0,0,1-.39-1.29c.53-1.17-.1-2-1.4-2.06a10.31,10.31,0,0,0-1.54.2,54.69,54.69,0,0,0-6.54,1.08c1.86-.13,3.73-.23,5.6-.4.71-.06,1.41-.34,2.12-.35.45,0,1.23.21,1.31.49a1.64,1.64,0,0,1-.43,1.44,6,6,0,0,1-2.75,1.26,11.13,11.13,0,0,0-6.84,2.71,7.67,7.67,0,0,1-9.18.71c-2.93-1.67-5.77-3.5-8.68-5.27,0,0,0-.13,0-.17A12.32,12.32,0,0,1,38.69,11a4,4,0,0,1,2,.77,4.36,4.36,0,0,0,4,.48c2.13-.8,4.24-1.68,6.4-2.38a7.5,7.5,0,0,1,2.68-.19c1,.06,2,.42,3,.44,3.66,0,6,2.47,8.61,4.53C66,15.22,65.87,15.42,65.28,15.94Z"/><path class="cls-1" d="M54.69,72.33c-1.37,1.33-3.13,1.79-4.77,2.47a4.83,4.83,0,0,1-5-.55,3.49,3.49,0,0,0-3.33-.36c-2.1.78-4.16,1.67-6.29,2.33a10.42,10.42,0,0,1-3.26.28c-1.06,0-2.12-.35-3.19-.46a9,9,0,0,1-5.23-2.14c-.93-.81-2-1.5-2.9-2.32-.67-.58-.61-.72.18-1.41a2.47,2.47,0,0,1-.41-.52c-.12-.31-.31-.75-.18-.93a1.06,1.06,0,0,1,.92-.34A5.1,5.1,0,0,1,22.8,69c.91.48,1.8,1,2.67,1.54.61.38,1.2.72.71,1.69s.09,1.73,1.13,1.91a1.55,1.55,0,0,0,.48,0c2.63-.35,5.27-.71,7.9-1.31-2,.15-3.92.29-5.88.47-.71.07-1.42.3-2.12.32a1.24,1.24,0,0,1-1-.48,1.48,1.48,0,0,1,.17-1.19,3.75,3.75,0,0,1,3.21-1.61,9.89,9.89,0,0,0,6.51-2.56A7.81,7.81,0,0,1,46,67C48.88,68.66,51.68,70.48,54.69,72.33Z"/><path class="cls-1" d="M38.64,34.5l0,0h0Z"/><path class="cls-1" d="M58.46,34.75l-1,.13c.12-.68.23-1.26.33-1.84l.33,0Z"/><path class="cls-1" d="M116.59,67.55h0L117.86,60h2.56V70.63h-1.74V63h0l-1.24,7.62h-1.74l-1.34-7.52h0v7.52h-1.61V60h2.56Z"/><path class="cls-1" d="M121.77,60h1.84V70.63h-1.84Z"/><path class="cls-1" d="M127.43,59.88a2.42,2.42,0,0,1,2.71,2.67v.34H128.4v-.44c0-.76-.33-1-.92-1s-.92.29-.92,1,.37,1.35,1.58,2.31c1.54,1.23,2,2.11,2,3.33a2.75,2.75,0,0,1-5.5,0v-.65h1.74v.76c0,.76.37,1,1,1s1-.27,1-1-.37-1.35-1.58-2.31c-1.54-1.23-2-2.11-2-3.33A2.42,2.42,0,0,1,127.43,59.88Z"/><path class="cls-1" d="M133.07,64.48h2.53V66h-2.53v3.11h3.18v1.52h-5V60h5v1.52h-3.18Z"/><path class="cls-1" d="M141.25,70.63a3,3,0,0,1-.17-1.31V67.65c0-1-.37-1.35-1.21-1.35h-.64v4.33h-1.84V60h2.78c1.91,0,2.73.8,2.73,2.44v.84a2.06,2.06,0,0,1-1.21,2.14v0c.92.35,1.22,1.14,1.22,2.25v1.64a2.86,2.86,0,0,0,.2,1.29Zm-2-9.11v3.26H140c.69,0,1.11-.27,1.11-1.12v-1c0-.76-.29-1.09-.94-1.09Z"/><path class="cls-1" d="M144.13,60H146V70.63h-1.84Z"/><path class="cls-1" d="M152.66,66.67v1.41a2.75,2.75,0,0,1-5.5,0V62.55a2.75,2.75,0,0,1,5.5,0v1h-1.74V62.45c0-.76-.37-1-1-1s-1,.29-1,1v5.74c0,.76.37,1,1,1s1-.27,1-1V66.67Z"/><path class="cls-1" d="M153.64,62.55a2.8,2.8,0,0,1,5.6,0v5.53a2.8,2.8,0,0,1-5.6,0Zm4.78-4.8-1.71,1.69h-1.24l1.14-1.69Zm-2.93,10.43c0,.76.37,1,1,1s1-.29,1-1V62.45c0-.76-.37-1-1-1s-1,.29-1,1Z"/><path class="cls-1" d="M164.28,70.63a3,3,0,0,1-.17-1.31V67.65c0-1-.37-1.35-1.21-1.35h-.64v4.33h-1.84V60h2.78c1.91,0,2.73.8,2.73,2.44v.84a2.06,2.06,0,0,1-1.21,2.14v0c.92.35,1.22,1.14,1.22,2.25v1.64a2.86,2.86,0,0,0,.2,1.29Zm-2-9.11v3.26H163c.69,0,1.11-.27,1.11-1.12v-1c0-.76-.29-1.09-.94-1.09Z"/><path class="cls-1" d="M167.17,60h2.92c1.84,0,2.75.93,2.75,2.63V68c0,1.7-.91,2.63-2.75,2.63h-2.92ZM169,61.52v7.59h1c.59,0,.94-.27.94-1V62.55c0-.76-.35-1-.94-1Z"/><path class="cls-1" d="M174,60h1.84V70.63H174Z"/><path class="cls-1" d="M183.16,70.63H181.3L181,68.7h-2.26l-.32,1.93h-1.69L178.59,60h2.7ZM179,67.26h1.78l-.87-5.38h0Z"/><path class="cls-1" d="M191.18,68V62.33a2.58,2.58,0,0,1,5.15,0v1.2h-1.61v-1.2a.95.95,0,1,0-1.89,0V68a.95.95,0,1,0,1.89,0V66.54h1.61V68a2.58,2.58,0,0,1-5.15,0Z"/><path class="cls-1" d="M201.09,68h-1.77L199,70.29h-1.65L199.11,60h2.21l1.8,10.25h-1.68Zm-.22-1.49-.67-4.29-.67,4.29Z"/><path class="cls-1" d="M208.09,70.29l-1.19-4.23H206v4.23H204.4V60H207a2.36,2.36,0,0,1,2.58,2.45v1.13a2.3,2.3,0,0,1-1.13,2.09l1.38,4.58Zm-2-5.7h.85a.9.9,0,0,0,1-1V62.46a.9.9,0,0,0-1-1H206Z"/><path class="cls-1" d="M211.16,60h1.65V70.29h-1.65Z"/><path class="cls-1" d="M214.6,60h2.58a2.36,2.36,0,0,1,2.58,2.45v5.36a2.36,2.36,0,0,1-2.58,2.45H214.6Zm2.5,8.79a.9.9,0,0,0,1-1V62.46a.9.9,0,0,0-1-1h-.85v7.32Z"/><path class="cls-1" d="M224.64,68h-1.77l-.36,2.27h-1.65L222.67,60h2.21l1.8,10.25H225Zm-.22-1.49-.67-4.29-.67,4.29Z"/><path class="cls-1" d="M228,60h2.58a2.36,2.36,0,0,1,2.58,2.45v5.36a2.36,2.36,0,0,1-2.58,2.45H228Zm2.5,8.79a.9.9,0,0,0,1-1V62.46a.9.9,0,0,0-1-1h-.85v7.32Z"/><path class="cls-1" d="M234.76,60h4.67V61.5h-3v2.86h2.41v1.46H236.4v3h3v1.46h-4.67Z"/><path class="cls-1" d="M247.71,60.14h1.83V70.48h-1.83Z"/><path class="cls-1" d="M253.6,64.72h2.56V68a2.73,2.73,0,0,1-5.44,0V62.62a2.73,2.73,0,0,1,5.44,0v1h-1.73V62.52c0-.74-.36-1-.95-1s-.95.28-.95,1V68.1c0,.74.36,1,.95,1s.95-.27.95-1V66.19h-.83Z"/><path class="cls-1" d="M259.09,60.14v8c0,.74.36,1,.95,1s.95-.27.95-1v-8h1.73V68a2.73,2.73,0,0,1-5.44,0V60.14Z"/><path class="cls-1" d="M269.86,70.48H268l-.31-1.88h-2.24l-.32,1.88h-1.68l1.86-10.34H268ZM265.7,67.2h1.76L266.59,62h0Z"/><path class="cls-1" d="M270.71,60.14h1.83V69h3v1.48h-4.83Z"/><path class="cls-1" d="M276.34,60.14h2.89c1.83,0,2.72.9,2.72,2.56v5.23c0,1.65-.9,2.56-2.72,2.56h-2.89Zm1.83,1.48V69h1c.58,0,.93-.27.93-1V62.62c0-.74-.35-1-.93-1Z"/><path class="cls-1" d="M289,70.48h-1.84l-.31-1.88h-2.24l-.32,1.88h-1.68l1.86-10.34h2.67Zm-4.17-3.28h1.76L285.74,62h0Z"/><path class="cls-1" d="M289.86,60.14h2.89c1.83,0,2.72.9,2.72,2.56v5.23c0,1.65-.9,2.56-2.72,2.56h-2.89Zm1.83,1.48V69h1c.58,0,.93-.27.93-1V62.62c0-.74-.35-1-.93-1Z"/><path class="cls-1" d="M298.47,64.49H301V66h-2.51v3h3.15v1.48h-5V60.14h5v1.48h-3.15Z"/><path class="cls-1" d="M185.68,66.59h2.4v1.2h-2.4Z"/><path class="cls-1" d="M242,66.6h2.4v1.2H242Z"/><path class="cls-1" d="M143.87,82.65l2.29-3.82h1V85h-1v-4.3l-1.85,3.08h-.88l-1.87-3.1V85h-1V78.83h1.05Z"/><path class="cls-1" d="M153,79.76h-3.33v1.68h3v.92h-3v1.7h3.42V85h-4.5V78.83H153Z"/><path class="cls-1" d="M158.12,85l-1.45-2.13-.4,0h-1.1V85H154.1V78.83h2.17c1.64,0,2.66.8,2.66,2a1.87,1.87,0,0,1-1.25,1.78L159.33,85Zm-1.83-3c1.06,0,1.59-.4,1.59-1.11s-.55-1.12-1.59-1.12h-1.11V82Z"/><path class="cls-1" d="M163,78.71a3.14,3.14,0,0,1,2.69,1.39l-.92.5a2.06,2.06,0,0,0-1.77-.92,2.23,2.23,0,0,0,0,4.46,2.06,2.06,0,0,0,1.77-.92l.92.51A3.15,3.15,0,0,1,163,85.11a3.2,3.2,0,1,1,0-6.4Z"/><path class="cls-1" d="M167.15,78.83l1.78,3,1.79-3h1.17l-2.44,4V85h-1.07v-2.2l-2.44-4Z"/><path class="cls-1" d="M177.5,83.2h-3.17v-.91h3.17Z"/><path class="cls-1" d="M183.38,78.71a3.14,3.14,0,0,1,2.69,1.39l-.92.5a2.06,2.06,0,0,0-1.77-.92,2.23,2.23,0,0,0,0,4.46,2.06,2.06,0,0,0,1.77-.92l.92.51a3.15,3.15,0,0,1-2.69,1.39,3.2,3.2,0,1,1,0-6.4Z"/><path class="cls-1" d="M188.13,81.43h3.29v-2.6h1.07V85h-1.07V82.37h-3.29V85h-1.08V78.83h1.08Z"/><path class="cls-1" d="M197.71,83.59H194.9L194.34,85h-1.11l2.54-6.16h1.09L199.4,85h-1.14Zm-.34-.88-1.06-2.65-1.06,2.65Z"/><path class="cls-1" d="M204.15,85l-1.45-2.13-.4,0h-1.1V85h-1.07V78.83h2.17c1.64,0,2.66.8,2.66,2a1.87,1.87,0,0,1-1.25,1.78L205.37,85Zm-1.83-3c1.06,0,1.59-.4,1.59-1.11s-.55-1.12-1.59-1.12H201.2V82Z"/><path class="cls-1" d="M207.21,85h-1.08V78.83h1.08Z"/><path class="cls-1" d="M208,78.83h5.27v.93h-2.1V85h-1.08V79.76H208Z"/><path class="cls-1" d="M215,78.83l1.78,3,1.79-3h1.17l-2.44,4V85h-1.07v-2.2l-2.44-4Z"/><path class="cls-1" d="M225.36,83.2h-3.17v-.91h3.17Z"/><path class="cls-1" d="M232.68,79.76h-3.33v1.68h3v.92h-3v1.7h3.42V85h-4.5V78.83h4.41Z"/><path class="cls-1" d="M240.16,86.1a2.35,2.35,0,0,1-1.11.25,2.37,2.37,0,0,1-2-1.27l-.42,0a3.12,3.12,0,1,1,1.51-.34,1.14,1.14,0,0,0,1,.65,1.55,1.55,0,0,0,.78-.18Zm-1.44-4.19a2.14,2.14,0,1,0-2.14,2.22A2.12,2.12,0,0,0,238.72,81.91Z"/><path class="cls-1" d="M240.78,78.83h1.08v3.43c0,1.26.53,1.89,1.59,1.89s1.59-.63,1.59-1.89V78.83h1.07v3.43c0,1.87-1,2.86-2.66,2.86s-2.67-1-2.67-2.86Z"/><path class="cls-1" d="M251,83.59h-2.81L247.68,85h-1.11l2.54-6.16h1.09L252.75,85h-1.14Zm-.34-.88-1.06-2.65-1.06,2.65Z"/><path class="cls-1" d="M254.56,84.06h3.25V85h-4.32V78.83h1.08Z"/><path class="cls-1" d="M259.71,85h-1.08V78.83h1.08Z"/><path class="cls-1" d="M260.5,78.83h5.27v.93h-2.1V85h-1.08V79.76H260.5Z"/><path class="cls-1" d="M267.5,78.83l1.78,3,1.79-3h1.17l-2.44,4V85h-1.07v-2.2l-2.44-4Z"/></svg>