<svg id="Camada_2" data-name="Camada 2" xmlns="http://www.w3.org/2000/svg" viewBox="0 0 423.7 421.9"><defs><style>.cls-1{fill:#fff;}.cls-2{isolation:isolate;}</style></defs><title>14-TBT WS</title><path class="cls-1" d="M249.1,62.9V76.5c-.8-.9-1.3-1.6-1.9-2.3a33.68,33.68,0,0,0-15-9.3,41.49,41.49,0,0,0-14-1.8H88.5a2.77,2.77,0,0,0-.9.1v23h28.8v90H147V87c0-.7.2-.9.9-.8h3.3c21.5.1,43,.1,64.5.2a10.54,10.54,0,0,1,4.9,1.3,4.73,4.73,0,0,1,2.7,4.3c.1,3.6.1,7.1,0,10.7a3.61,3.61,0,0,1-.6,2,8.74,8.74,0,0,1-7.8,4.9c-6.3.2-12.5.1-18.8.2-.8,0-.8-.4-.8-1,0-5.8.1-11.6.1-17.4V90.2H164.6V176h64a36.69,36.69,0,0,0,9.3-.9c8.3-1.9,15.3-5.9,20.5-12.7a22.28,22.28,0,0,0,4.2-9.1c.9-4.1.7-8.3.6-12.5A23.76,23.76,0,0,0,261,131c-2.9-6.2-7.7-10.6-13.6-13.8-.4-.3-.9-.5-1.4-.8.3-.3.4-.5.6-.6a25.32,25.32,0,0,0,7.1-13c.9-4.3.6-8.8.4-13.1-.1-1.2-.3-2.4-.4-3.6H278v90h30.8V86h28.7V62.9ZM232.5,145a8.35,8.35,0,0,1-6.4,8.1,18,18,0,0,1-4.6.5c-8.5.1-17,.1-25.5.1h-.5V129.3h1.6c8.6,0,17.1.1,25.6,0a10.41,10.41,0,0,1,6.6,2.1,7.66,7.66,0,0,1,3.3,6.5C232.6,140.3,232.6,142.6,232.5,145Z" transform="translate(-0.9)"/><path class="cls-1" d="M331.5,264.8a32.14,32.14,0,0,1-10,17.9A42.15,42.15,0,0,1,297,294.2c-9.3,1.1-18.7,1.3-27.9-.6-11.5-2.4-20.8-8.4-26.9-18.6a31.53,31.53,0,0,1-4.4-15v-.6h28.5a20.79,20.79,0,0,0,.3,2.3,10,10,0,0,0,3.2,5.5,13.11,13.11,0,0,0,8.6,3.8,113.39,113.39,0,0,0,14.3-.3,12,12,0,0,0,10.1-7.6c1.5-3.8.6-7.3-1.9-10.3-2.7-3.4-6.6-4.7-10.8-4.9-5.5-.3-10.9,0-16.4-.5a42.22,42.22,0,0,1-26.8-12,29.16,29.16,0,0,1-9-19.2,2,2,0,0,0-.4-1.3L218,289.2h-.3c-.1-.2-.2-.5-.3-.7-1.7-6.4-3.4-12.8-5.2-19.2-2.7-9.6-5.3-19.3-8.1-28.9a12.32,12.32,0,0,1,.3-6.6c2.7-10.3,5.3-20.6,7.9-30.9l5.7-22.2c.2-.6.4-.8,1-.8,8.8,0,17.7,0,26.6-.1H247l-5,18.8.2.1a6.07,6.07,0,0,0,.7-1,32.83,32.83,0,0,1,10.5-11.1,45.34,45.34,0,0,1,26.9-8.1c4.6,0,9.3-.1,13.9.2,12.2,1,22.6,5.8,30.6,15.2a30.53,30.53,0,0,1,7.4,19.1v.8c-.3,0-.6.1-1,.1h-26c-.9,0-1.2-.1-1.4-1.1-1.1-5.5-4.7-8.6-9.9-10a14.87,14.87,0,0,0-3.6-.5c-4.3,0-8.6-.1-13,.3a11.62,11.62,0,0,0-8.3,4.7c-4.5,5.6-2.6,12.8,4.1,15.4a14.58,14.58,0,0,0,4.6,1c4.2.2,8.4.2,12.6.3a47.71,47.71,0,0,1,25.2,7.3c6.5,4.1,11.7,9.6,14.6,16.8A31.62,31.62,0,0,1,331.5,264.8Z" transform="translate(-0.9)"/><path class="cls-1" d="M214.7,292.9c-.4,0-.6.1-.9.1H187a1.46,1.46,0,0,1-1.7-1.2c-2.7-9.7-5.5-19.4-8.2-29-2.1-7.5-4.2-14.9-6.3-22.4-.3-1-.6-1.9-.9-2.9h-.3l-.3.6c-2.1,7.8-4.3,15.7-6.4,23.5-2.4,8.8-4.9,17.5-7.4,26.2-.4,1.5-.8,3-1.3,4.5a1.15,1.15,0,0,1-.9.6c-1.4.1-2.7,0-4.1,0H123.9c-.8,0-1.3-.2-1.5-1.1-2.4-9.4-4.9-18.8-7.3-28.1-3.8-14.4-7.6-28.7-11.3-43-3.3-12.8-6.7-25.6-10-38.4-.2-.8-.3-1.6-.5-2.4.3,0,.5-.1.8-.1,9,0,18,.1,26.9.1.8,0,1,.3,1.1,1,2,8.1,4.1,16.3,6.2,24.4l9,35.4c.4,1.4.6,2.9.9,4.4h.4c.6-1.8,1.1-3.5,1.6-5.3,4.1-13.9,8.1-27.9,12.2-41.8,1.6-5.6,3.3-11.2,4.8-16.9.3-1.2.8-1.4,1.9-1.4H182c1.1,0,1.5.2,1.8,1.4,1.7,6.4,3.4,12.7,5.2,19,1.9,6.9,3.8,13.9,5.7,20.8,3.8,13.6,7.6,27.2,11.4,40.7,2.6,9.3,5.2,18.7,7.8,28.1C214.2,290.9,214.4,291.9,214.7,292.9Z" transform="translate(-0.9)"/><path class="cls-1" d="M344.5,15A40.65,40.65,0,0,1,385,55.5v245A40.46,40.46,0,0,1,344.5,341H80.5A40.46,40.46,0,0,1,40,300.5V55.5A40.52,40.52,0,0,1,80.5,15h264m0-15H80.5A55.7,55.7,0,0,0,25,55.5v245A55.7,55.7,0,0,0,80.5,356h264A55.7,55.7,0,0,0,400,300.5V55.5A55.7,55.7,0,0,0,344.5,0Z" transform="translate(-0.9)"/><g class="cls-2"><path class="cls-1" d="M16.4,384.8h7.2c.8,0,1.4-.1,1.8-.1a4.3,4.3,0,0,0,1.2-.2l.9-.3a6.9,6.9,0,0,0,1-.4h.3l2.7,15.1h-.3a58.5,58.5,0,0,0-9.2-7.4,22.63,22.63,0,0,0-8.9-3.5v13.1a11.45,11.45,0,0,0,4-2,13.49,13.49,0,0,0,3.8-4.8h.5v16.1H21a11,11,0,0,0-1.7-2.5,18.88,18.88,0,0,0-2-2,12.78,12.78,0,0,0-2.1-1.4,6.42,6.42,0,0,0-2-.8,20.34,20.34,0,0,0,.1,2.2c0,.9.1,2,.2,3.1s.3,2.3.4,3.6.4,2.4.6,3.5a16.63,16.63,0,0,0,.9,2.9,7.2,7.2,0,0,0,1,1.8v.3H.9v-.3a7.4,7.4,0,0,0,1.8-3.7,44.33,44.33,0,0,0,1.1-6.4c.2-2.4.4-5,.4-7.8a65.66,65.66,0,0,0-.4-7.8,35.32,35.32,0,0,0-1.1-6.4A8.44,8.44,0,0,0,.9,385v-.3H16.4Z" transform="translate(-0.9)"/><path class="cls-1" d="M46.1,420.5a19.71,19.71,0,0,1-7-4.3,17.07,17.07,0,0,1-4.2-6.2,19,19,0,0,1-1.4-7,18.6,18.6,0,0,1,1.4-7,16.72,16.72,0,0,1,4.2-6.1,19.3,19.3,0,0,1,7.1-4.3,18,18,0,0,1,4-1,29.55,29.55,0,0,1,8.4,0,26,26,0,0,1,4,1,20.22,20.22,0,0,1,7.5,4.6,19.47,19.47,0,0,1,4.2,6.6,17.3,17.3,0,0,1,1,7.5,18.62,18.62,0,0,1-2.1,7.3,18.18,18.18,0,0,1-5.1,6,20.16,20.16,0,0,1-8.1,3.7,23.25,23.25,0,0,1-2.8.5,26.2,26.2,0,0,1-2.8.1,19.92,19.92,0,0,1-4.2-.4A17.58,17.58,0,0,1,46.1,420.5Zm5.2-2.1a6.85,6.85,0,0,0,3.6.8,8.42,8.42,0,0,0,2.7-.4,8,8,0,0,0,2.4-1.3,8.94,8.94,0,0,0,2.8-3.9,19.32,19.32,0,0,0,1.4-5.5,25.55,25.55,0,0,0,.1-6.2,29,29,0,0,0-1.1-6,19.81,19.81,0,0,0-2.3-5.1,9.91,9.91,0,0,0-3.5-3.3,8.63,8.63,0,0,0-3.6-.8,8.36,8.36,0,0,0-5.1,1.6,9.1,9.1,0,0,0-2.9,3.9,17.84,17.84,0,0,0-1.4,5.4,31.85,31.85,0,0,0-.1,6.2,29,29,0,0,0,1.2,6,20,20,0,0,0,2.4,5.1A9.54,9.54,0,0,0,51.3,418.4ZM49,402.9l5.2-5.1h.4l5.2,5.1v.4l-5.2,5.1h-.4L49,403.3Z" transform="translate(-0.9)"/></g><g class="cls-2"><path class="cls-1" d="M77.2,384.8H97a15.91,15.91,0,0,1,7,1.3,10.35,10.35,0,0,1,4.3,3.2,8,8,0,0,1,1.7,4.4,9.11,9.11,0,0,1-.7,4.6,9.61,9.61,0,0,1-3.1,3.9,11.92,11.92,0,0,1-5.2,2.4c.8,1.4,1.8,2.9,2.8,4.6s2.1,3.2,3.3,4.7a49.07,49.07,0,0,0,3.3,4.1,13.1,13.1,0,0,0,3,2.6v.3H97.2v-.3a7.05,7.05,0,0,0,.2-2.6,23.26,23.26,0,0,0-.6-3.3,24.15,24.15,0,0,0-1.2-3.5,15.71,15.71,0,0,0-1.8-3.1,8.89,8.89,0,0,0-2.1-2.2,3.73,3.73,0,0,0-2.3-.9v16H77.2v-.3A7.4,7.4,0,0,0,79,417a44.33,44.33,0,0,0,1.1-6.4c.2-2.4.4-5,.4-7.8a65.66,65.66,0,0,0-.4-7.8,35.32,35.32,0,0,0-1.1-6.4,8.44,8.44,0,0,0-1.8-3.7Zm17.1,17.1a5.78,5.78,0,0,0,3.5-1,6.55,6.55,0,0,0,2.2-2.5,7.31,7.31,0,0,0,.8-3.3,8.81,8.81,0,0,0-.6-3.3,6,6,0,0,0-2-2.5,5.58,5.58,0,0,0-3.5-1H89.5v13.6h4.8Z" transform="translate(-0.9)"/></g><g class="cls-2"><path class="cls-1" d="M114.4,383.8a9.78,9.78,0,0,0,4.1.9h23.8a9.46,9.46,0,0,0,4.1-.9h.2l.7,15.2h-.2a39.53,39.53,0,0,0-6-7,16.66,16.66,0,0,0-6.1-3.7v10.4c0,2.2.1,4.5.2,6.8s.3,4.6.5,6.6a32.73,32.73,0,0,0,1,5.4,6.74,6.74,0,0,0,1.6,3.2v.3H122.8v-.3a6.37,6.37,0,0,0,1.6-3.2,32.73,32.73,0,0,0,1-5.4c.2-2.1.4-4.3.5-6.6s.1-4.6.2-6.8V388.3a15,15,0,0,0-6.2,3.7,44.78,44.78,0,0,0-6.1,7.1h-.2l.7-15.2h.1Z" transform="translate(-0.9)"/></g><g class="cls-2"><path class="cls-1" d="M169.7,384.8v.3a3.5,3.5,0,0,0-.4,2.3,17.58,17.58,0,0,0,.6,4.1,46.85,46.85,0,0,0,1.4,5.3c.6,1.9,1.2,3.9,2,5.9s1.5,4,2.3,5.9,1.7,3.7,2.5,5.4,1.7,3,2.4,4.2a8.82,8.82,0,0,0,2.1,2.4v.3H167.7v-.3a4.47,4.47,0,0,0,.6-2.7,17.72,17.72,0,0,0-.6-4.3H155a29.69,29.69,0,0,0-.8,4.4,3.77,3.77,0,0,0,.5,2.6v.3H143v-.3a9,9,0,0,0,2.6-2.8,42.35,42.35,0,0,0,2.9-4.9c1-1.9,2-4,3-6.2s1.9-4.5,2.7-6.7a64.58,64.58,0,0,0,2-6.3,35,35,0,0,0,1.1-5.2,3.4,3.4,0,0,0-.3-2,3.16,3.16,0,0,0-1.4-1.4v-.3h14.1Zm-3.3,23.5c-.2-.8-.6-1.7-1-3s-.9-2.5-1.4-3.9-.9-2.6-1.4-3.8-.8-2.1-1.1-2.7c-.3.8-.7,1.7-1.1,2.8s-.8,2.1-1.3,3.3-.9,2.3-1.3,3.6-.9,2.5-1.3,3.7Z" transform="translate(-0.9)"/><path class="cls-1" d="M196.8,417.7a18.25,18.25,0,0,0,4.7-1.5,35.36,35.36,0,0,0,5-2.7,33.1,33.1,0,0,0,5-3.6,49.07,49.07,0,0,0,4.8-4.3h.3l-2.3,15.3H184.5v-.3a7.4,7.4,0,0,0,1.8-3.7,44.33,44.33,0,0,0,1.1-6.4c.2-2.4.4-5,.4-7.8a65.66,65.66,0,0,0-.4-7.8,35.32,35.32,0,0,0-1.1-6.4,8.44,8.44,0,0,0-1.8-3.7v-.3H200v.3a6,6,0,0,0-1.6,3.2,37.27,37.27,0,0,0-1,5.4c-.2,2-.4,4.3-.5,6.7s-.2,4.7-.2,6.9v6.1C196.7,415.2,196.8,416.7,196.8,417.7Z" transform="translate(-0.9)"/><path class="cls-1" d="M234,384.8h7.8c.8,0,1.5-.1,2-.1a3.73,3.73,0,0,0,1.2-.2l.9-.3a6.9,6.9,0,0,0,1-.4h.3L250,399h-.3a59.21,59.21,0,0,0-9.7-7.8,19.92,19.92,0,0,0-9.4-3.2v13.2a9.69,9.69,0,0,0,2-.5,9,9,0,0,0,2.4-1.2,14.6,14.6,0,0,0,2.5-2,15.4,15.4,0,0,0,2.2-3.1h.5v16.1h-.5a12.07,12.07,0,0,0-2.1-2.8,15.67,15.67,0,0,0-2.5-2,18.69,18.69,0,0,0-2.5-1.2,13.6,13.6,0,0,0-2-.6v13.9a18.25,18.25,0,0,0,4.7-1.5,35.36,35.36,0,0,0,5-2.7c1.7-1.1,3.3-2.3,5-3.6a47.93,47.93,0,0,0,4.7-4.3h.3L248,421H218.3v-.3a7.4,7.4,0,0,0,1.8-3.7,44.33,44.33,0,0,0,1.1-6.4c.2-2.4.4-5,.4-7.8a65.66,65.66,0,0,0-.4-7.8,35.32,35.32,0,0,0-1.1-6.4,8.44,8.44,0,0,0-1.8-3.7v-.3H234Z" transform="translate(-0.9)"/></g><g class="cls-2"><path class="cls-1" d="M252.3,421v-.3a15.21,15.21,0,0,0,2.1-2.2q1.5-1.95,3.6-4.8c1.4-1.9,2.9-4.1,4.5-6.4s3.1-4.7,4.7-7,2.9-4.6,4.1-6.7,2.2-3.9,2.9-5.3a20.86,20.86,0,0,0-4.9,1.3,28.79,28.79,0,0,0-4.6,2.4,31.93,31.93,0,0,0-4.3,3.2c-1.4,1.2-2.8,2.5-4.1,3.8h-.2l2.7-15.1h.2c.4.2.8.3,1,.4l.9.3c.3.1.7.1,1.2.2s1,.1,1.8.1H291v.3a12.38,12.38,0,0,0-2.5,2.4c-1.2,1.3-2.5,2.9-3.9,4.7s-3,4-4.5,6.3-3.1,4.6-4.6,6.9-2.8,4.5-3.9,6.6a42.77,42.77,0,0,0-2.6,5.5h0a21.14,21.14,0,0,0,6-1.5,33.12,33.12,0,0,0,5.6-2.9,47.43,47.43,0,0,0,5.1-3.7c1.6-1.4,3.1-2.7,4.5-4.1h.2L287.8,421H252.3Z" transform="translate(-0.9)"/></g><g class="cls-2"><path class="cls-1" d="M317.7,384.8v.3a3.5,3.5,0,0,0-.4,2.3,17.58,17.58,0,0,0,.6,4.1,46.85,46.85,0,0,0,1.4,5.3c.6,1.9,1.2,3.9,2,5.9s1.5,4,2.3,5.9,1.7,3.7,2.5,5.4a48.14,48.14,0,0,0,2.4,4.2,8.81,8.81,0,0,0,2.1,2.4v.3H315.7v-.3a4.47,4.47,0,0,0,.6-2.7,17.72,17.72,0,0,0-.6-4.3H303a29.69,29.69,0,0,0-.8,4.4,3.63,3.63,0,0,0,.5,2.6v.3H291v-.3a9,9,0,0,0,2.6-2.8c.9-1.4,1.9-3,2.9-4.9s2-4,3-6.2,1.9-4.5,2.7-6.7a64.59,64.59,0,0,0,2-6.3,35,35,0,0,0,1.1-5.2,3.4,3.4,0,0,0-.3-2,3.16,3.16,0,0,0-1.4-1.4v-.3h14.1Zm-3.3,23.5c-.2-.8-.6-1.7-1-3s-.9-2.5-1.4-3.9-.9-2.6-1.4-3.8-.8-2.1-1.1-2.7c-.3.8-.7,1.7-1.1,2.8s-.8,2.1-1.3,3.3-.9,2.3-1.3,3.6-.9,2.5-1.3,3.7Z" transform="translate(-0.9)"/></g><g class="cls-2"><path class="cls-1" d="M349.6,406.3a3.2,3.2,0,0,0-1.3-.5,10.08,10.08,0,0,0-2-.4,19.48,19.48,0,0,0-2.5-.2c-.9,0-1.8-.1-2.8-.1a23.48,23.48,0,0,0-2.7.1,16.59,16.59,0,0,0-2.4.2,9,9,0,0,0-1.9.4,7.26,7.26,0,0,0-1.2.5h-.1v-6.9h.1a2.7,2.7,0,0,0,1.2.5c.6.1,1.2.3,1.9.4a18.09,18.09,0,0,0,2.5.2c.9,0,1.8.1,2.8.1a25.28,25.28,0,0,0,2.8-.1,19.48,19.48,0,0,0,2.5-.2,10.09,10.09,0,0,0,2-.4,3.53,3.53,0,0,0,1.2-.5h.1v6.9Z" transform="translate(-0.9)"/></g><g class="cls-2"><path class="cls-1" d="M382.6,403.1a22.2,22.2,0,0,0-.9-6.5,25.93,25.93,0,0,0-2.1-5,11.6,11.6,0,0,0-3-3.2,5.8,5.8,0,0,0-3.5-1.1,9.33,9.33,0,0,0-4.5,1,8.63,8.63,0,0,0-3.1,2.9,11.15,11.15,0,0,0-1.6,4.2,21.23,21.23,0,0,0-.3,5.1,20,20,0,0,0,1.6,6.7,18.11,18.11,0,0,0,3.3,5,13.1,13.1,0,0,0,4.4,3.1,12.63,12.63,0,0,0,5.1,1.1,13.29,13.29,0,0,0,5.7-1.4,15.37,15.37,0,0,0,5.1-4.5l2.3,1.2a19.89,19.89,0,0,1-7.9,7.7,23.37,23.37,0,0,1-5,1.9,23.93,23.93,0,0,1-5.3.6,21.85,21.85,0,0,1-8-1.5,21.43,21.43,0,0,1-5.9-3.5,15.1,15.1,0,0,1-3.9-4.9,19.35,19.35,0,0,1-2-5.7,17.28,17.28,0,0,1-.1-6,20.51,20.51,0,0,1,1.8-5.8,19.23,19.23,0,0,1,3.6-5,17.63,17.63,0,0,1,6.7-4.2,22.81,22.81,0,0,1,7.8-1.3,24.91,24.91,0,0,1,10.4,2.2c.8.3,1.6.6,2.3.8a9.69,9.69,0,0,0,2.3.3,5.82,5.82,0,0,0,1.9-.3l.2.1-6.9,16.1h-.5Z" transform="translate(-0.9)"/><path class="cls-1" d="M408.4,384.8h7.8c.8,0,1.5-.1,2-.1a3.73,3.73,0,0,0,1.2-.2l.9-.3a6.9,6.9,0,0,0,1-.4h.3l2.7,15.1H424a59.21,59.21,0,0,0-9.7-7.8,19.92,19.92,0,0,0-9.4-3.2v13.2a9.69,9.69,0,0,0,2-.5,9,9,0,0,0,2.4-1.2,14.6,14.6,0,0,0,2.5-2,15.4,15.4,0,0,0,2.2-3.1h.5v16.1H414a12.06,12.06,0,0,0-2.1-2.8,15.67,15.67,0,0,0-2.5-2,18.69,18.69,0,0,0-2.5-1.2,13.6,13.6,0,0,0-2-.6v13.9a18.25,18.25,0,0,0,4.7-1.5,35.36,35.36,0,0,0,5-2.7c1.7-1.1,3.3-2.3,5-3.6a47.92,47.92,0,0,0,4.7-4.3h.3l-2.3,15.3H392.6v-.3a7.4,7.4,0,0,0,1.8-3.7,44.33,44.33,0,0,0,1.1-6.4c.2-2.4.4-5,.4-7.8a65.66,65.66,0,0,0-.4-7.8,35.32,35.32,0,0,0-1.1-6.4,8.44,8.44,0,0,0-1.8-3.7v-.3h15.8Z" transform="translate(-0.9)"/></g></svg>