<svg id="Camada_1" data-name="Camada 1" xmlns="http://www.w3.org/2000/svg" viewBox="0 0 2222.43 499.26"><defs><style>.cls-1{fill:#fff;}</style></defs><title>15-TEXNET</title><path class="cls-1" d="M2185.4,1c-20.2,4.1-31.7,26-23.4,44.6,2.7,6.3,10.2,13.8,16.3,16.5,7.9,3.5,19.3,3.3,26.9-.4,24.6-12.1,24.2-47.1-.6-58.2C2198.6.8,2191.2-.2,2185.4,1Zm20.1,8.5c18,10.5,16.8,37.6-1.9,47.2-6.9,3.6-17,3.8-23.6.4-12.2-6.3-18.2-19-14.6-31.3C2170.5,8.2,2189.9.3,2205.5,9.5Z" transform="translate(-1 -0.5)"/><path class="cls-1" d="M2177,32.9V50h6V36h3.4c3.7,0,7.4,3.4,11.1,10.3,1.6,3.1,2.5,3.7,5.2,3.7h3.3l-3-4.8a54.71,54.71,0,0,0-5.4-7.5l-2.5-2.7,3.3-1.5c5.8-2.8,7.3-9.4,3.2-14.2-2.3-2.7-2.8-2.8-13.5-3.1l-11.1-.4Zm18-11.6a5.33,5.33,0,0,1,2.8,3.9c.4,3.7-3,5.8-9.5,5.8H2183V20h4.8A19.72,19.72,0,0,1,2195,21.3Z" transform="translate(-1 -0.5)"/><path class="cls-1" d="M1154.2,216.7l.3,155.8,39.8.3,39.7.2V274.4c0-54.2.4-98.4.8-98.2s42,44.5,92.3,98.5l91.4,98.2,39.8.1H1498V61h-80l-.2,98.3-.3,98.4L1326,159.4l-91.5-98.3h-40.3L1154,61Z" transform="translate(-1 -0.5)"/><path class="cls-1" d="M1547,219V377h270V308H1627V251h190V182H1627V130h190V61H1547Z" transform="translate(-1 -0.5)"/><path class="cls-1" d="M1863,95.5V130h95V377h80V130h95V61H1863Z" transform="translate(-1 -0.5)"/><path class="cls-1" d="M1,106.5V148H121V487h82V148l60.3-.2,60.2-.3.3-41.3L324,65H1Z" transform="translate(-1 -0.5)"/><path class="cls-1" d="M373,276V487H651V405l-97.7-.2-97.8-.3-.3-43.8L455,317H651V235H455V148H651V65H373Z" transform="translate(-1 -0.5)"/><path class="cls-1" d="M699.2,66c.2.6,33.8,46.7,74.8,102.6s74.4,101.8,74.2,102.2-36.1,48.7-80,107.5-79.8,107.2-80,107.7,6.6,1,19,1.1c10.6.1,34.2.4,52.3.8s33.7.3,34.7-.1,25.4-33.2,54.4-72.8c49.7-67.8,52.9-71.9,54.5-70.3.9,1,24.5,33,52.4,71.1s51.7,69.9,52.9,70.6c1.6.9,13.6,1,54.1.3,28.6-.5,52.1-1.1,52.3-1.2s-35.1-47.7-78.4-105.7-79.3-106.3-80.1-107.5c-1.3-2,2.6-7.6,73.1-103.7,41.1-55.9,74.6-101.8,74.6-102.1s-23.1-.5-51.3-.5h-51.2L952,132.4c-27.2,36.6-49.8,66.5-50.1,66.5s-23-30-50.5-66.9L801.5,65.1,750.2,65C716,65,698.9,65.3,699.2,66Z" transform="translate(-1 -0.5)"/><path class="cls-1" d="M1526.1,424.9c-2.7,2.7-2.8,6.1-.1,6.1,1.1,0,2-.6,2-1.4,0-2.1,2.1-2.4,5.7-.9,6.2,2.5,11.3.8,11.3-3.8,0-2.4-2.8-2.5-4.6-.2-1.1,1.6-1.6,1.7-4.6.4C1529.9,422.7,1528.3,422.7,1526.1,424.9Z" transform="translate(-1 -0.5)"/><path class="cls-1" d="M1327.2,434.9c-10.5,3.6-16.5,12.6-16.5,24.5,0,14.9,8.4,24.2,23,25.4,17.3,1.4,28.7-9.1,28.7-26.3,0-12.1-6.1-20.8-16.8-24A27.68,27.68,0,0,0,1327.2,434.9Zm15,4.3c4.9,1.5,10.3,7.4,11.9,13,2.7,10.2-1.5,21.9-9.4,25.7s-15.7,2.3-21.4-4.2c-9.4-10.7-5.4-29.8,7.2-34.2C1335.5,437.7,1337.3,437.7,1342.2,439.2Z" transform="translate(-1 -0.5)"/><path class="cls-1" d="M1482.7,434c-13.2,3.4-20.9,12.8-20.9,25.7-.1,12.1,7.1,21.3,18.7,24.2,4.9,1.2,5.2,1.6,3,4.5-1.4,1.9-1.3,2.1,1.7,3,4.8,1.6,4.3,4.1-.7,4.1-2.2,0-4.4.6-4.8,1.3-1.1,1.8-.6,2.2,3.4,2.8,4.6.7,8.7-1,10.1-4.2,1.1-2.5,1-2.9-2-5.4-4.1-3.4-3-4.5,5-5.4,7.8-.8,8.6-1.3,8-4.2-.4-2.2-.7-2.4-4.1-1.7a49.18,49.18,0,0,1-10.3.7c-5.6-.1-7.6-.6-11.5-3-13.1-8.2-12-28.4,1.9-35.5,4.4-2.2,12.7-2.9,19.1-1.6,3.3.7,3.8.6,4.6-1.5.6-1.6.5-2.5-.5-3.1C1501.3,433.5,1486.8,433,1482.7,434Z" transform="translate(-1 -0.5)"/><path class="cls-1" d="M1579.2,434.9a26.68,26.68,0,0,0-14.5,12.6c-2.8,5.4-3,18.3-.3,23.5a26.33,26.33,0,0,0,11.1,11.3c5.9,3.2,19.3,3.1,25.4-.1,9.2-4.9,13-11.8,13.1-23.3,0-6.1-.5-8.5-2.5-12.6C1605.8,435,1592.5,430.3,1579.2,434.9Zm15.1,4.5c4.8,1.8,7.4,4.1,9.8,8.8a23.33,23.33,0,0,1,1.5,18c-4.8,16.6-26,18.8-33.2,3.4-4.3-9.3-2.6-20.5,4.2-26.7C1581.7,438.2,1587.6,437.1,1594.3,439.4Z" transform="translate(-1 -0.5)"/><path class="cls-1" d="M1160.6,454.2c-4.3,11.2-8.7,22.4-9.7,25L1149,484h3.8c3.7,0,3.7,0,6.7-7.8l3-7.7,10.1-.3,10.1-.3,3,7.8c3,7.6,3.1,7.8,6.7,8.1,2,.2,3.6-.1,3.6-.5s-4.2-11.7-9.3-24.9l-9.3-23.9-4.5-.3-4.5-.3Zm16.3-2.7c2.2,6,3.9,11.1,3.7,11.3a65.59,65.59,0,0,1-8.3,0l-7.9-.3,4-11.2c2.3-6.1,4.2-11,4.3-11S1174.6,445.4,1176.9,451.5Z" transform="translate(-1 -0.5)"/><path class="cls-1" d="M1223,459v25h33v-5h-25V461h22v-6h-22V439h23v-5h-31Z" transform="translate(-1 -0.5)"/><path class="cls-1" d="M1262.5,440.2c1.3,3.5,5.4,14.7,9.2,25.1l6.8,18.8,4.4-.3,4.3-.3,9.9-24.4c5.4-13.4,9.9-24.6,9.9-24.7s-1.7-.4-3.8-.4h-3.8l-3.3,8.7c-1.9,4.9-5.5,14.6-8.2,21.8s-5,12.3-5.2,11.5c-.9-2.8-10.9-31.5-12.9-36.8-1.9-5-2.1-5.2-5.8-5.2h-3.9Z" transform="translate(-1 -0.5)"/><path class="cls-1" d="M1373,459v25h31v-5h-24V434h-7Z" transform="translate(-1 -0.5)"/><path class="cls-1" d="M1410,452.2c0,19.4.9,23.8,5.6,28,7.7,6.8,23.1,6.3,30.7-1,4.5-4.3,5.7-10.5,5.7-28.9V434h-8v18c0,14.4-.3,18.7-1.5,21.1-4.5,8.5-17.7,9.2-23.1,1.2-1.7-2.5-1.9-5.1-2.2-21.6l-.4-18.7H1410Z" transform="translate(-1 -0.5)"/><path class="cls-1" d="M1529.6,434.8c-.8,1.3-18.6,47.6-18.6,48.4,0,.5,1.5.8,3.4.8,3.4,0,3.5-.2,6.4-7.8l2.9-7.7h20.6l3,7.8,3,7.7h7.7l-1.8-4.8c-1-2.6-5.4-13.8-9.7-25l-7.8-20.2h-4.3C1532,434,1529.9,434.4,1529.6,434.8Zm8.4,16c1.9,5.3,3.6,10.3,3.8,10.9.3,1-1.8,1.3-7.8,1.3s-8.1-.3-7.8-1.3c.9-3.6,7.4-20.7,7.8-20.7S1536.1,445.4,1538,450.8Z" transform="translate(-1 -0.5)"/><path class="cls-1" d="M1642.7,434.7c-.4.3-.7,11.6-.7,24.9v24.3l5.6.7c6.7.8,17.6-.2,24.6-2.2,6.4-1.9,13.8-9.1,15.6-15,1.8-6.1,1.5-15.2-.7-20-2.4-5.2-8.3-10.1-14.5-11.9C1667.5,434,1644,433.3,1642.7,434.7Zm28.1,6.3c5.9,2.7,8.9,6.3,10.3,12.5a19.6,19.6,0,0,1,0,10.2c-2.7,10.5-9.7,15.3-22.9,15.6l-7.7.2-.3-20.3L1650,439h8.2C1664.2,439,1667.7,439.6,1670.8,441Z" transform="translate(-1 -0.5)"/><path class="cls-1" d="M1712.3,435.7c-.3,1-4.6,12.1-9.5,24.7s-8.8,23-8.8,23.3,1.7.3,3.7.1c3.7-.3,3.8-.4,6.7-8.1l2.9-7.8,10.1.3,10.1.3,3,7.7,3,7.8h3.8c3.2,0,3.7-.3,3.3-1.8-.3-.9-4.6-12.1-9.5-24.7l-8.9-23-4.6-.3C1713.9,433.9,1712.9,434.2,1712.3,435.7Zm11.6,22,2.1,5.3h-8.6c-7.8,0-8.5-.2-8-1.7.4-1,2.4-6.2,4.4-11.6l3.6-9.9,2.2,6.4C1720.8,449.6,1722.7,454.9,1723.9,457.7Z" transform="translate(-1 -0.5)"/><path class="cls-1" d="M1768,459v25h7V434h-7Z" transform="translate(-1 -0.5)"/><path class="cls-1" d="M1789,459v25h6V441.5l2.9,5c1.6,2.7,8,12.2,14.3,21l11.3,16,4.3.3,4.2.3V434h-7v41.4l-3.5-5.8c-1.9-3.3-8.3-12.6-14.2-20.7-10.5-14.7-10.7-14.9-14.5-14.9H1789Z" transform="translate(-1 -0.5)"/><path class="cls-1" d="M1838,436.5c0,2.4.2,2.4,8.8,2.7l8.7.3.3,22.2.2,22.3h7V439h8.5c8.4,0,8.5,0,8.5-2.5V434h-42Z" transform="translate(-1 -0.5)"/><path class="cls-1" d="M1887,459v25h32v-5h-25V461.1l11.3-.3,11.2-.3v-5l-11.2-.3-11.3-.3V439h24v-5h-31Z" transform="translate(-1 -0.5)"/><path class="cls-1" d="M1929.7,434.7c-.4.3-.7,11.6-.7,25V484h6.9l.3-10.8.3-10.7,3.2-.3c4.7-.5,10.9,1.5,12.5,4.1.8,1.2,2.5,5.7,3.8,9.9l2.3,7.8h7.5l-2.9-9.2c-2.1-6.9-3.6-10-5.9-12l-3-2.8,3.1-1.5a13.18,13.18,0,0,0,5.4-17.4c-2.6-5.1-8.6-7.1-21.1-7.1C1935.3,434,1930,434.3,1929.7,434.7Zm23.3,6.2c5.2,3.8,5.1,10.5-.2,14.4-2.1,1.6-4.4,2.1-9.5,2.1l-6.8.1-.3-9.2-.3-9.2,2.8-.4C1943.4,437.9,1950.4,439,1953,440.9Z" transform="translate(-1 -0.5)"/><path class="cls-1" d="M1975,459v25h7.3l-.5-21.1-.6-21.1,4.9,7.7c2.8,4.3,9.3,13.8,14.5,21.1,9.5,13.3,9.6,13.4,13.5,13.4h3.9V434h-7.1l.3,20.5c.2,11.3.2,20.5.1,20.5s-1.6-2.4-3.3-5.3-8.2-12.1-14.2-20.5c-10.9-15.2-10.9-15.2-14.9-15.2H1975Z" transform="translate(-1 -0.5)"/><path class="cls-1" d="M2031,459v25h32v-5h-25V461h22v-6h-22V439h24v-5h-31Z" transform="translate(-1 -0.5)"/><path class="cls-1" d="M2068,436.5c0,2.5.1,2.5,8.5,2.5h8.5v45h7l.2-22.3.3-22.2,8.8-.3c8.5-.3,8.7-.3,8.7-2.7V434h-42Z" transform="translate(-1 -0.5)"/></svg>