<svg id="Camada_1" data-name="Camada 1" xmlns="http://www.w3.org/2000/svg" viewBox="0 0 1532.68 1507.13"><defs><style>.cls-1{fill:#fff;}</style></defs><title>16-VISITE CEARA</title><path class="cls-1" d="M0,1195a108.11,108.11,0,0,0,12.48-.22c3.69-.43,5.09,1.47,6,4.33,7.53,22.54,15,45.1,22.58,67.62,5.59,16.57,11.38,33.06,17,49.6,2.67,7.82,5.33,15.64,7.81,23.52a7.92,7.92,0,0,0,2.85,4.42c3-8.57,6-16.92,8.88-25.33,4.5-13.26,8.89-26.56,13.34-39.85l18-53.58q4.63-13.85,9.19-27.72c.65-2,1.8-2.8,4-3,14-1,14-1.06,9.41,12.27q-20.92,60.67-41.86,121.33C85.8,1339.61,81.77,1350.78,78,1362c-.73,2.18-1.84,2.95-3.92,2.91s-4,0-6,0c-8.5,0-8.79.1-11.52-7.64-6.72-19.12-13.07-38.36-19.72-57.51-4.65-13.39-9.67-26.66-14.33-40.05-5.64-16.2-11-32.51-16.66-48.69C4.12,1206,3.12,1200.58,0,1196Z"/><path class="cls-1" d="M916,1500.2c-.67-2.68-3.33-1.53-5.1-1.52-2.59,0-4.52-.81-5.8-3s.2-3.62,1.4-5.27c.85-1.16,1.12-2.72,1.74-4.07,1.07-2.33,1.7-5.14,5.41-4.37,1.49.32,2.67-.38,2.51-2.17-.15-1.56.88-4.06-1-4.44a29.71,29.71,0,0,0-9.41-.11c-2.48.31-1.29,3-2,4.57-.89,1.78-1.66,3.62-2.6,5.38-1,1.94-2.07,2.28-3.51.09-1.8-2.73-4-5.22-5.94-7.85-4-5.3-4-5.31,1.48-8.56,7.31-4.36,9-12.53,3.83-18.41s-12.16-6.7-18.83-2.53c-5.78,3.62-8,10.33-4.55,17,2.1,4,1.36,5.4-2.42,7.46-9,4.89-10.84,17.39-5.2,25.83,2.71,4.07,7.58,5,10.1,8.83h11c3.22-2.21,7.2-3.15,10-6.11.91-1,2.32-1.11,2.92.18,2.75,5.84,8,4,12.57,4.33C916.89,1505.74,916.58,1502.75,916,1500.2Zm-29.83-48v0c4-.09,6.13,1.9,6.44,5.87,0,3.38-4.8,8.4-8.11,7.92-4-.59-4.31-4.19-4.63-7.22C879.39,1454.79,882,1452.27,886.12,1452.18Zm7.4,43a10.38,10.38,0,0,1-7.77,4.79c-8.38.77-14.81-5-14.81-14.72a8.28,8.28,0,0,1,1.68-5.25c4.39-5.7,7.25-5.82,11.53-.18,2.28,3,4.84,5.82,6.73,9C892,1490.82,895.39,1492.41,893.52,1495.2Z"/><path class="cls-1" d="M407,1507c-3.88-3.63-9.13-5-13.08-8.88-13.84-13.65-10.24-47.17,13.67-51.72a34.27,34.27,0,0,1,22.91,3.1c1.69.85,3.61,3,4.42-1.24.48-2.53,3.41-1,5.21-1.19,2-.19,1.73,1.55,1.74,2.83,0,3.17.17,6.34-.06,9.49-.11,1.57,1.32,4.11-1.47,4.51-2.32.33-5,.93-6.76-1.76a22.55,22.55,0,0,0-10.14-8.31c-11.8-5.12-24.83,1.8-28,16-2.44,10.85,2.22,22.69,10.76,27.73,10.74,6.33,23.79.47,28.69-10.76.76-1.75.58-4.45,3.65-2.8,2.22,1.19,5.53,1.4,3.69,5.85-3.45,8.33-9.69,13.05-17.89,15.75-.89.29-2.07.07-2.31,1.41Z"/><path class="cls-1" d="M241.93,1486.1c8.65.13,17.32,0,26,.08,3.13,0,4-.88,3.53-4.1-1.71-10.53-10.29-18.68-20.5-19.08-8.47-.33-18.7,6.87-20.91,14.73-3.08,11,.72,21.33,9.76,26.2,2.29,1.24,4.81,2.06,7.22,3.07h9c4.51-2.17,9.55-3.51,12.83-7.64.87-1.1,3.22-2.18,1.45-4.06a5.47,5.47,0,0,0-5.44-1.53c-1,.28-1.67,1.54-2.54,2.31-8.17,7.26-19.67,4.65-23.94-5C236.35,1486.48,238,1486,241.93,1486.1Zm-3-9.32h0c2.06-4.29,7.25-7.07,12.74-6.76,4.51.26,10.79,4.73,12,8.49.77,2.4-.81,2.41-2.39,2.42H250.83c-3.15,0-6.31-.13-9.45,0C237.59,1481.17,237.65,1479.44,238.92,1476.78Z"/><path class="cls-1" d="M1405,1486.08c8.82.18,17.64-.09,26.46.14,3.39.08,3.73-1.26,3.45-4.11-1.47-14.49-19.23-23.53-30.5-16.65-7.56,4.62-11.81,10.71-12.08,19s3.41,15.3,11.22,19.58c1.81,1,4.18,1,5.48,2.91h10c4.71-1.93,9.76-3.38,13.17-7.44.91-1.09,3.47-2.54,1.29-4.44-1.77-1.55-4.11-2.21-6.34-.5-.52.39-.78,1.09-1.26,1.53-8.1,7.23-20.78,4.31-24.19-5.39C1400.41,1487.16,1401.12,1486,1405,1486.08Zm-3.16-8.32h0c1.59-4.51,6.85-7.89,12.56-7.74,5.08.12,11.27,4.39,12.42,8.39.65,2.25-.5,2.55-2.26,2.54h-20.34C1401.82,1481,1400.92,1480.35,1401.84,1477.76Z"/><path class="cls-1" d="M633,1495.3c-1.65-1.33-3.87-2.8-6.24-.94-.64.5-1.14,1.19-1.75,1.74-7.9,7.11-20.27,4.54-24-4.85-1.46-3.68-1.19-5.35,3.43-5.19,8.47.28,17-.11,25.44.17,3.67.12,4.43-1.13,4.15-4.52-1-12.58-17.33-23.46-30.13-16.4-7.83,4.31-12.18,10.71-12.33,19.4-.15,8.46,3.54,15.2,11.31,19.46,2,1.09,4.49,1,6.06,2.83h10c4.3-2.5,9.68-3.36,12.67-7.85C632.39,1498.07,635.33,1497.12,633,1495.3Zm-31.84-17.85c1.74-4.46,7.27-7.67,12.78-7.43,5,.21,11.1,4.57,12.35,8.64.66,2.13-.71,2.24-2.09,2.26-3.64,0-7.28,0-10.92,0h-9.94C600.62,1481,600.38,1479.57,601.21,1477.45Z"/><path class="cls-1" d="M1499,1507c-5.76-4.73-6.05-11.22-5.84-17.92.13-4,0-8,0-12,0-2.78.74-5.8-3.94-5.52-2.39.15-1.94-2.22-2-3.81s.43-3,2.47-3c2.66,0,5.34.16,8-.06s3.33.93,3.3,3.45c-.13,8.65-.08,17.31,0,26,0,4.81,1.65,6.63,6.34,5.74,7-1.33,12-3.92,10.82-11.35-.52-3.42-.13-7-.08-10.47s.84-7.26-5-6.49c-2.75.36-2.12-2.3-2.26-4s.54-2.8,2.51-2.76c3,.06,6,.15,9,0s3.65,1,3.6,3.77c-.15,8.65,0,17.31-.11,26,0,2.81.38,4.58,3.73,4.15,2.5-.32,3.13,1.25,3.14,3.37s-.69,3.49-3.17,3.4c-2.83-.1-5.66,0-8.49,0-.33,0-.84.12-1-.05-5.29-6.64-8.7,1.25-13.06,1.68Z"/><path class="cls-1" d="M1322,1507c-5.85-5.13-6.07-11.94-5.8-19,.15-4,0-8,.05-12,.06-2.53.1-4.66-3.49-4.41-2.82.19-2.41-2.11-2.44-3.91,0-2,.86-2.81,3-3,10.69-1,10.68-1.11,10.68,9.5,0,6.82.06,13.65,0,20.47,0,3.84,1.81,5.35,5.49,5.33,7.31,0,11.65-4.27,11.65-11.51,0-3.5-.07-7,0-10.49s.74-7.21-5-6.46c-2.72.35-2.11-2.31-2.25-4.05s.6-2.83,2.55-2.73h1.5c11-.3,11-.3,11,10.75,0,6.49.08,13,0,19.47,0,2.43.48,3.92,3.25,3.6,3-.36,3.71,1.35,3.61,3.93-.11,2.92-2.06,2.93-4.18,2.87s-4.33,0-6.49,0c-.67,0-1.67.25-1.95-.08-5.33-6.54-8.72,1.28-13.08,1.71Z"/><path class="cls-1" d="M1480.52,1498.6c-2.89.33-3.69-1.06-3.61-3.81.16-5.82.1-11.65,0-17.47-.06-4.21-.74-8.35-4.33-11.09-6.81-5.19-18.76-4-25.17,2.23-1.17,1.14-3.48,2.57-2.23,3.81a6.24,6.24,0,0,0,6.31,1.18c.58-.22,1-.88,1.51-1.27a12.42,12.42,0,0,1,9-2.15c5.23.49,8.71,5.3,7.16,11.34-1.47,5.67-4.51-1.41-6.86.25-.41.3-1.51-.51-2.32-.63-6.37-.9-13.45,2.85-15.56,8.2-2.46,6.24-.5,11.46,6,16,.68.47,1.46.82,1.54,1.79h9c2.34-2.52,6.07-3,8.21-6,1.21,4.4,1.21,4.4,5.62,4.42,1.83,0,3.67-.08,5.49,0,2.41.13,3.68-.54,3.65-3.31C1483.94,1499.53,1483.15,1498.31,1480.52,1498.6Zm-21.62,1.48c-5.72.07-8.24-1.82-8.21-6.17s2.54-6,8.34-6c6.21,0,10.28,2.43,10.25,6.05C1469.26,1497.33,1464.72,1500,1458.9,1500.08Z"/><path class="cls-1" d="M355.5,1498.61c-3.48.44-3.66-1.63-3.6-4.29.12-5.65.14-11.31,0-17-.11-4.18-.75-8.39-4.36-11.13-6.77-5.15-19-4-25.26,2.11-1.17,1.15-3.32,2.81-2.08,4a6,6,0,0,0,6.3,1.14c1.33-.6,2.39-1.77,3.7-2.43,4.31-2.17,9.49-1.3,12.27,2a9.1,9.1,0,0,1,1.24,9.85c-1.19,2.49-3.35-1.7-5.52-1-.52.17-1.25-.33-1.89-.48-6.79-1.62-14.12,1.66-16.71,7.45q-4.25,9.52,5.86,16.43c.68.46,1.48.78,1.56,1.76h9c2.29-2.55,6-3,9-7.25-.77,5.53,1.59,6,4.75,5.66a31.33,31.33,0,0,1,5.48,0c2.38.13,3.72-.47,3.68-3.28C358.86,1499.62,358.17,1498.27,355.5,1498.61Zm-21.09,1.47c-4,.2-7.84-.15-8.86-5-1-4.68,2.16-7.24,8.53-7.19,6.13,0,10.19,2.47,10.17,6.07C344.23,1497.13,340,1499.81,334.41,1500.08Z"/><path class="cls-1" d="M194.67,1498.61c-3.42.38-3.69-1.65-3.64-4.33q.18-8.75,0-17.5c-.08-3.85-.67-7.69-3.93-10.3-6.64-5.32-19.06-4.47-25.22,1.7-1.11,1.12-3.31,2-2.68,3.86s3.2.83,4.74,1.8c1.21.78,2.06-.56,2.91-1.31,2.87-2.5,6.28-2.9,9.85-2.46,4.78.6,8.75,6.4,7,11.23s-4.88-.58-7.37.21c-.12,0-.29-.15-.45-.19-6.64-1.63-14.27,1.65-16.93,7.25q-4.38,9.24,5.62,16.58c.67.49,1.43.88,1.48,1.85h8c3.38-1.61,6.81-3.15,10.07-6.38-.31,4.07,1.33,5.16,4.43,4.8a37.57,37.57,0,0,1,6,0c2.39.12,3.68-.53,3.65-3.31C198.13,1499.49,197.26,1498.32,194.67,1498.61Zm-12.79-1.31a14.85,14.85,0,0,1-9.28,2.84c-5.46,0-7.69-1.74-7.74-6s2.16-6.1,7.47-6.3c3.6-.14,6.86.41,9.72,2.79C184.59,1492.72,184.61,1495.45,181.88,1497.3Z"/><path class="cls-1" d="M774.3,1466c-9.41-5.08-18.81-3.69-26.25,3.88-6.22,6.33-7.33,17.11-3.49,25.3,3,6.48,8.75,9,14.44,11.8h11c.14-1.81,1.89-1.73,2.94-2.27A21,21,0,0,0,784.51,1489C786.19,1480,781.92,1470.14,774.3,1466Zm-10.84,34c-7.69,0-13.35-6.29-13.38-14.82,0-8.76,5.73-15.16,13.65-15.16,7.51,0,13.23,6.45,13.26,14.93C777,1493.92,771.51,1500,763.46,1500Z"/><path class="cls-1" d="M482,1465.92c-9.66-4.94-18.45-3.52-25.83,3.88-6.09,6.11-7.12,17.14-3.75,24.9,3,6.77,8.77,9.38,14.61,12.3h11c.14-1.82,1.9-1.73,3-2.25,6.92-3.48,10.62-9.13,11.81-16.64C494.15,1479.39,489.5,1469.78,482,1465.92ZM471.68,1500c-7.93,0-13.68-6.41-13.57-15.15s6-15,14-14.83c7.46.11,12.94,6.59,12.9,15.26S479.54,1500,471.68,1500Z"/><path class="cls-1" d="M85.9,1476.71c-3.51-10.71-17.75-17.87-29.82-11-7.48,4.28-11.16,10.65-11.2,19s3,15.09,10.62,19.33c1.31.73,3.43.66,3.5,2.93H71c.28-1.37,1.55-.95,2.38-1.3C87,1499.93,89.61,1488,85.9,1476.71ZM66,1500c-8,0-13-5.92-13-15.27-1.27-7.87,6.86-15.27,13.2-14.84,7.86.54,13.21,6.4,13.11,15.51C79.2,1494.26,74,1500,66,1500Z"/><path class="cls-1" d="M1147.05,1465.9c-9.93-5.4-18.69-2.75-25.82,3.88-6.24,5.82-7.1,17.25-3.81,24.91,2.91,6.79,8.75,9.37,14.58,12.31h11c.14-1.82,1.91-1.72,2.95-2.24,6.92-3.46,10.62-9.11,11.83-16.61C1159.19,1479.45,1154.45,1469.93,1147.05,1465.9Zm-10.31,34.21c-6.67.42-13.73-6.3-13.61-15.22.11-8.74,5.94-15,13.93-14.87,7.47.1,13,6.58,12.95,15.21S1144.53,1499.62,1136.74,1500.11Z"/><path class="cls-1" d="M1038,1507c-2.91-1.79-5.4-4.1-9.49-1.82-2.24,1.25-5,.17-4.45-3.65.22-1.63,0-3.33.06-5,.08-1.37-.67-3.38,1.53-3.62,2-.22,4-.73,5.58,1.88,3.14,5.31,9.05,6.85,14.61,4.42,2-.86,3.52-2,3.47-4.35s-1.5-3.2-3.55-4.14c-4.53-2.09-9.63-2.23-14.05-4.66-6.6-3.63-9.12-9.37-6.46-15.59,2.19-5.12,10.54-8.93,16.06-7.07,3.32,1.12,6.23,3.12,10.14,1.5,2.38-1,4.08.34,3.74,3.38a50.28,50.28,0,0,0,0,5.49c0,1.61.42,3.6-2.21,3.54-1.85,0-3.63.59-4.81-2.14-2-4.52-8.82-6.68-13.24-4.7-2.1.94-3.66,2.56-3.54,5,.1,2.14,1.31,3.39,3.69,3.94a98.78,98.78,0,0,1,13.73,4c6.5,2.52,8.43,5.71,8.31,11.92-.12,6-3.93,8.74-8.94,10.54A15.33,15.33,0,0,0,1046,1507Z"/><path class="cls-1" d="M1215,1507c-3-1.48-5.31-4.47-9.5-1.83-2.14,1.34-4.94.2-4.48-3.6.2-1.64,0-3.33.06-5,.08-1.37-.68-3.37,1.49-3.66s4.06-.63,5.62,1.87c3.33,5.32,9.11,6.84,14.61,4.43,2-.86,3.51-2,3.47-4.36s-1.49-3.18-3.54-4.14c-4.53-2.11-9.63-2.21-14.05-4.66-6.62-3.67-9.1-9.29-6.43-15.59,2.2-5.17,10.48-8.94,16-7.06,3.31,1.12,6.22,3.16,10.13,1.5,2.4-1,4,.39,3.71,3.4a50.28,50.28,0,0,0,0,5.49c0,1.61.4,3.62-2.22,3.51-1.81-.07-3.67.73-4.82-2.1-1.84-4.53-8.71-6.72-13.19-4.75-2.12.93-3.63,2.59-3.52,5,.1,2.11,1.24,3.41,3.66,3.94a95.1,95.1,0,0,1,13.74,4c6.52,2.53,8.44,5.7,8.33,11.91-.11,6-3.95,8.73-8.94,10.55A15.29,15.29,0,0,0,1223,1507Z"/><path class="cls-1" d="M414,.81A6.69,6.69,0,0,0,414,0h697a1.26,1.26,0,0,1-.6,1.67c-2.33,1.2-4.87,1-7.35,1H421.94C419.19,2.61,416.2,3.23,414,.81Z"/><path class="cls-1" d="M1098,1507c-4.6-4-4.51-9.5-4.67-14.86-.15-5,0-10,0-15,0-2.7.89-5.72-3.79-5.7-2.39,0-1.24-2.6-1.44-4.07s-.07-2.75,1.94-2.64c2.2.12,3.35-.69,3.35-3.15,0-4.68,3.91-6.2,6.85-8.89,1.21,2.07.79,3.74.71,5.29-.21,4.1-.31,7.73,5.68,6.83,2.63-.39,2,2,2.06,3.57.12,1.82-.2,3.64-2.56,3.22-5.48-1-5.31,2.33-5.18,6.14.2,6,.06,12,.1,17.95,0,2,.07,4,2.94,4.3,1.55.17,3.76-1.48,4.64,1.22s-.85,4.22-2.59,5.73Z"/><path class="cls-1" d="M141,1507c-4.65-4.38-4.63-10.15-4.69-15.88v-14c0-2.77.73-5.65-3.83-5.71-2.28,0-1.2-2.64-1.41-4.13s.25-2.66,2.1-2.53c2.35.16,3.16-.93,3.2-3.26.07-4.65,3.89-6.2,7.6-9.33,0,3,.11,4.73,0,6.48-.3,3.88-.07,7.08,5.3,6.15,2.46-.43,2.5,1.44,2.49,3.22s0,4.09-2.68,3.62c-5-.86-5.3,1.86-5.15,5.71.25,6.14.08,12.3.12,18.45,0,2.08.2,4,3,4.23,1.54.15,3.74-1.49,4.61,1.25s-1,4.17-2.67,5.69Z"/><path class="cls-1" d="M703,1507c-4.47-2.26-6.25-5.9-6.12-10.89.18-6.81,0-13.64,0-20.46,0-2.07.21-4.1-2.9-4-2.69.12-2.63-2-2.71-3.82s.57-3.21,2.83-3.12c1.8.08,2.88-.79,2.75-2.69-.35-4.93,3.56-6.51,6.58-9.05,1.34,1.78.87,3.5.77,5-.28,4.23-.12,7.72,5.77,6.81,2.82-.44,2,2,2,3.46s.4,3.78-2.24,3.35c-5.52-.91-5.78,2.2-5.57,6.39.3,6,.08,12,.26,18,.06,1.9.15,4,3.17,4.11,1.39.07,3.74-2.09,4.38,1.08.54,2.67-.34,4.71-3,5.81Z"/><path class="cls-1" d="M1111,.85V0h9V.86C1117,3.14,1114,3.15,1111,.85Z"/><path class="cls-1" d="M1111,.85h9c14.7,1.25,29.35,3.26,43.46,7.44,32.15,9.53,60.89,25.37,85.52,48.4a207.46,207.46,0,0,1,43,56.58,212.14,212.14,0,0,1,17.2,45.62c4.81,19,5.95,38.27,5.92,57.79q-.25,165.18.06,330.36c0,5.25-1.47,6.36-6.33,6.08-27.6-1.58-55.24-1.12-82.87-1.06-5.62,0-11.19,1.56-17.82.4,15.27-10.84,32-16.12,50.31-20.07-4.85-2.84-9.42-2.91-13.58-4.06-34.05-9.43-60.37-29.33-79.86-58.45-17.81-26.61-26.06-56.12-23.66-88,2.18-29,13.14-54.8,31.4-77.43,4.83-6,9.83-11.85,16-16.54a3.51,3.51,0,0,0,1.69-2.63c0-.7-.89-.61-1.49-.33a132.87,132.87,0,0,1-46.84,7.89q-55.24-1.23-96.3-38.53c-18.11-16.52-31.22-36.46-38.27-59.79-5.92-19.61-8.58-39.77-5-60.47,1.58-9.15,3.18-18.19,6.21-27a2.86,2.86,0,0,0-.29-2.84c-39.72,42-87.54,59-144,44.7C807.61,134.51,775.56,95.22,760.87,38c-13.38,57.66-47.31,95.76-102.73,111.63-56.69,16.22-104.24-2.85-145.07-45,18,56.61,7.45,106.57-32.77,148.21-40.93,42.39-91.45,50.65-148.15,34,43.25,40.36,60.07,88.7,45.59,145.16-14.56,56.83-54.14,89-110.15,102.91,3.75,2.83,8.29,2.64,12.29,3.77,39.48,11.17,68.3,35.33,87.66,71.18,12.52,23.19,18.13,48,16.22,74.26-2.74,37.59-18.87,69-46.06,94.81a15.39,15.39,0,0,1-1.6,1.18c-.89.48-.37,2-1.62,2.21,1.2,0,2.43.49,3.57-.27A137.72,137.72,0,0,1,392,775.11a148.26,148.26,0,0,1,44.7,10.62c4.33,1.73,3,3,.3,4.85C420.51,802,404.33,813.71,388.53,826a1188,1188,0,0,0-102.86,89.37c-21.34,20.9-42,42.35-61.79,64.74a29.34,29.34,0,0,1-3.53,2.91c-7.6-21.88-10.69-44.16-10.7-66.87q-.08-352.65,0-705.3A208.21,208.21,0,0,1,327.84,21.43C350,10.74,373.34,3.81,398,1.79c5.3-.43,10.6-.66,15.9-1,2,.06,4,.18,6,.18h685.61C1107.37,1,1109.2.9,1111,.85Z"/><path class="cls-1" d="M1315.2,797.32c0,4.3-.7,5.54-5.35,5q-35.17-3.93-70.42-7.12c-12.91-1.16-25.88-1.66-38.83-2.42-17.93-1-35.88-1.56-53.84-2.15-26.11-.86-52.22-1.84-78.35-1.43q-34.92.54-69.83,2c-22.08,1-44.18,2.1-66.2,4-18.52,1.63-37,3.37-55.55,5.36q-31.2,3.36-62.26,7.66c-20.84,2.9-41.67,6-62.33,10.16-15.12,3-30.33,5.54-45.41,8.72-19.42,4.09-38.75,8.58-58,13.31-22,5.4-43.91,11.23-65.64,17.69q-40.59,12.06-80.48,26.33Q457.26,900.71,413.13,920q-43.66,19.17-85.79,41.57c-26.34,14-52,29.16-77.44,44.66-7.62,4.64-14.94,9.79-22.47,14.59-1.35.86-2.88,3.37-4.57,1.33-1.84-2.23-3.21-4.83-.36-7.9,8.1-8.74,15.73-17.91,23.89-26.58C265.31,967.6,284.79,948,305,929.23s41.06-36.79,62.51-54.12a1182.12,1182.12,0,0,1,106-76.35q40.42-25.86,82.81-48.47C575.6,740,595.13,730,614.94,720.72s39.88-18,60.16-26.28Q709.72,680.28,745,668c27.93-9.67,56.06-18.7,84.66-26.24,8-2.11,15.75-5.12,24-6h0a2.3,2.3,0,0,1,1.53,0c1.83.21,3.66.51,5.5.81h0c2,.32,4,.64,6,.83a35,35,0,0,0,3.55.16c13.45,1.67,26.91,3.31,40.14,6.35.76.35,1.62.58,2.35,1a3.3,3.3,0,0,1,1.17,1,3,3,0,0,1,.48,1.44l-.12.33a3.25,3.25,0,0,1-.14.33c-1.16,2.56-3.76,3.36-6.12,4.34-5.63,2.38-11,5.33-17.14,8.42,8.55,5,17.23,7.86,25,12.43a11.68,11.68,0,0,0,1.26.8,13.11,13.11,0,0,0,2.12,1c.34.12.68.23,1,.32,21.51,9.39,42.55,19.77,63.92,29.48a175.39,175.39,0,0,1,16.5,8.29,10.52,10.52,0,0,0,4.39,2,191,191,0,0,1,18.55,8.43c3.38,1.77,5.58,1.42,8.18-1.48,4.64-5.18,8.86-10.77,14.07-15.44a8.34,8.34,0,0,0,2.89-3.52,98.21,98.21,0,0,1,10.28-11.94,7.83,7.83,0,0,0,3-3.81c8.46-10.45,17.75-20.17,26.24-30.59a11.13,11.13,0,0,0,2.34-3.23c-1.45-1.81-3.41-1.06-5.09-1.06-16.43.06-32.72-2.34-49.11-2.89-3.65-.12-7.3,0-10.95-.19-1.71-.07-3.47-.09-4.86-1h0a2.94,2.94,0,0,1-.46-.35,4.4,4.4,0,0,1-1.15-1.45c-.88-7-1.3-14-1.68-21.09a21.53,21.53,0,0,0,.08-4,37,37,0,0,0-.57-4.32c-.31-1.7-.68-3.39-1-5.07-.06-3.28-2.3-6.56,0-9.87h0c13.31-1.77,26.61-3.68,40-5.27,15-1.79,30-3.47,45.07-4.86,23.16-2.15,46.37-3.76,69.6-5,28.09-1.56,56.2-2.16,84.31-2.24,19.12-.05,38.28-.11,57.4,1.11,2.2.14,3,.81,2.79,2.93,0,.83,0,1.67,0,2.5Q1315.1,694.32,1315.2,797.32Z"/><path class="cls-1" d="M663.09,671.09h0c-1.22.93-2.75,1.21-4.07,1.9h0A5,5,0,0,1,663.09,671.09Z"/><path class="cls-1" d="M1006.19,557.45c1.38,4.39,1.67,9.1,3.73,13.31l-.11,0c-2.37-1.17-2.71-3.62-3.26-5.76-8.72-34.19-22.35-66.35-40-96.86a18.47,18.47,0,0,1-1.08-2.24,7.77,7.77,0,0,0-.63-1.62h0a7.12,7.12,0,0,0-.66-1.05,8.9,8.9,0,0,0-.7-.8,6.56,6.56,0,0,1-1.55-2.86,5.47,5.47,0,0,0-.39-1.14,4,4,0,0,0-.4-.69,5.07,5.07,0,0,0-1.21-1.28c-4.46-6.08-8.75-12.28-12.75-18.66a14.22,14.22,0,0,0-2.87-3.76c-14.82-19.28-30.72-37.62-48.69-54a389.21,389.21,0,0,0-85.86-59.49c-9.78-5-19.87-9.3-29.86-13.83a12.3,12.3,0,0,0-4.83-1.76c-11-3.86-21.91-7.94-33.15-11-17.65-4.89-35.46-9.08-53.67-11.33-1.42-.18-3.29-.73-4.12.81-.68,1.27.71,2.43,1.42,3.52a548.48,548.48,0,0,1,45.29,85.53A442.15,442.15,0,0,1,754.1,443a355.3,355.3,0,0,1,7.78,43.19,360.86,360.86,0,0,1,.87,61.32c-1.14,18-4.69,35.59-9.11,53-1.19,4.69-2.75,9.27-4.38,13.79-1.23,3.42-.88,5.11,3,6,5.55,1.26,11.17,1.67,16.78,2.4,4.79.63,9.88.47,13.89,3.94a125.07,125.07,0,0,0-23.48-3.54c-4-.3-7.64-2.17-11.71-2.23-2.42,0-1.54-2-1-3.39a205.15,205.15,0,0,0,7.06-23.27,303.19,303.19,0,0,0,7.39-44c1.14-12.81.8-25.59.81-38.38,0-18.79-2.88-37.26-6.39-55.66a375.05,375.05,0,0,0-13.07-49.35c-4.3-12.77-9.3-25.36-14.75-37.76-6.92-15.75-14.18-31.33-22.53-46.35-7.22-13-14.39-26-23.1-38.13-.59-.82-1.3-1.62-.81-2.68.64-1.39,2-.94,3.09-.94,8.17.05,16.1,1.93,24.06,3.42,17.1,3.2,33.82,7.94,50.4,13.16,5.8,1.83,11.4,4.28,17.1,6.45,1.71-.11,3.21.21,4,1.93,6.89,1.58,13,5.08,19.19,8.08A350.21,350.21,0,0,1,832,331.31c16.64,10.16,32.84,21,47.82,33.63a430,430,0,0,1,36,33.47c10.1,10.71,19.4,22.11,28.49,33.67a6.37,6.37,0,0,1,.68,1.84l.19.16c0-.06,0-.13-.08-.19,1.83.22,2.24,1.78,2.9,3.11l-.19,0,.08.05,13,19s0,.05.06.08v-.06a2.83,2.83,0,0,1,2,3h-.06l1.11,2.88.08.09c1.88.16,1.92,1.51,1.92,2.91,8.54,13.52,15.42,27.91,22,42.47C995.3,523.63,1000.85,540.5,1006.19,557.45Z"/><path class="cls-1" d="M1052.25,545.79c0,4.8-1.11,9.58-1,14.43a6.1,6.1,0,0,1-2.16,4.82H1049c.65-7.26,1.7-14.51,1.86-21.78.34-14.8,1-29.7-1.14-44.35-2-13.53-4-27.09-7.55-40.41a294.43,294.43,0,0,0-37.39-84.58A286.06,286.06,0,0,0,934,298.8a265.59,265.59,0,0,0-55.94-32,330.13,330.13,0,0,0-55.22-17.12c-25.58-5.72-51.34-6.31-77.21-5.47-12.51.41-24.88,2.88-37.24,5.25-12.74,2.43-25,6.1-37.34,10-11.38,3.58-22.22,8.47-32.9,13.63a262.72,262.72,0,0,0-44.28,27.06,305.74,305.74,0,0,0-53,51.31A280,280,0,0,0,507.52,404a261.78,261.78,0,0,0-17,43.84c-2.9,10.06-5.37,20.17-7.33,30.39-2.17,11.37-4.08,22.89-4.15,34.49-.09,15.29-1.07,30.61.84,45.88A363.51,363.51,0,0,0,487.32,600a283.26,283.26,0,0,0,22.83,60.72,266.48,266.48,0,0,0,35.38,53c1.91,2.23,3.66,4.59,5.49,6.89l-.14.08c-1.8-.55-3-1.94-4.12-3.28a283.71,283.71,0,0,1-47.37-76.6,271.42,271.42,0,0,1-20.65-82A312.18,312.18,0,0,1,480,490.08a281.89,281.89,0,0,1,25.87-85.66A275.27,275.27,0,0,1,540,350.49a290.91,290.91,0,0,1,84-71.44A275.63,275.63,0,0,1,698.6,250c19.78-4.47,39.78-7.9,60.25-7.36,12.81.34,25.69-.64,38.41,1.23,15.78,2.33,31.55,4.91,46.89,9.48,21.61,6.43,42.4,14.78,62,26,27.38,15.71,51.94,34.85,72.92,58.51,25.62,28.88,45.07,61.36,57.64,97.94,6.13,17.84,10.07,36.09,13.07,54.73C1052.78,509,1052.14,527.35,1052.25,545.79Z"/><path class="cls-1" d="M245.52,1039.12c10-6.19,19-11.84,28.14-17.46,26.64-16.45,54-31.55,81.93-45.77,24.73-12.61,49.94-24.24,75.45-35.22Q472,923,514,908c20.4-7.31,41-14.07,61.71-20.43,25-7.69,50.28-14.57,75.62-21.13,15.19-3.93,30.61-6.94,45.88-10.54,23.91-5.63,48.07-10.07,72.23-14.37,16.79-3,33.68-5.5,50.58-7.88,16.74-2.35,33.47-4.78,50.27-6.65q26-2.9,52.06-5.18c22.2-1.92,44.42-3.45,66.65-4.77,43.24-2.57,86.54-2.54,129.83-2.29,11.83.07,23.66.07,35.48.49,32.9,1.16,57.16,2.74,90,5.58,21.17,1.83,42.31,4.13,63.47,6.11,5,.47,7,2.13,7,7.9-.33,44.16-.23,88.33-.15,132.49,0,13.15-1.11,26.21-2.38,39.27-.34,3.47,7.41,5,3.43,3-22.44-10.8-54.56-18.75-78.61-25-20.48-5.35-32.58-9.49-53.49-13-31.33-5.2-62.81-8.55-94.46-10.9-20.91-1.56-41.85-2.14-62.79-3-32.31-1.36-64.62-.79-96.92-.5-25.94.23-51.89,1.51-77.8,2.93-29.54,1.62-59,3.73-88.55,6-22.35,1.7-44.7,3.53-67,6.08-24.37,2.8-48.77,5.35-73.13,8.29q-31.41,3.79-62.81,7.68c-19.76,2.42-39.43,5.65-59.13,8.52-21.48,3.12-43,6-64.43,9.41-24.41,3.85-48.77,8.07-73.14,12.25-20.25,3.48-40.49,7-60.69,10.76-17.41,3.22-34.76,6.76-52.13,10.17A7.73,7.73,0,0,1,245.52,1039.12Z"/><path class="cls-1" d="M1009.92,570.76l-.11,0c-15.53,2.77-31.06,5.48-46.51,8.79-27.84,6-55.39,13-82.84,20.44-30.14,8.16-60.13,16.85-90.2,25.26a60.65,60.65,0,0,1-7.33,1.37,125.07,125.07,0,0,0-23.48-3.54c-4-.3-7.64-2.17-11.71-2.23-2.42,0-1.54-2-1-3.39a205.15,205.15,0,0,0,7.06-23.27,303.19,303.19,0,0,0,7.39-44c1.14-12.81.8-25.59.81-38.38,0-18.79-2.88-37.26-6.39-55.66a375.05,375.05,0,0,0-13.07-49.35c-4.3-12.77-9.3-25.36-14.75-37.76-6.92-15.75-14.18-31.33-22.53-46.35-7.22-13-14.39-26-23.1-38.13-.59-.82-1.3-1.62-.81-2.68.64-1.39,2-.94,3.09-.94,8.17.05,16.1,1.93,24.06,3.42,17.1,3.2,33.82,7.94,50.4,13.16,5.8,1.83,11.4,4.28,17.1,6.45,1.3.75,2.84,1,4,1.93,6.89,1.58,13,5.08,19.19,8.08A350.21,350.21,0,0,1,832,331.31c16.64,10.16,32.84,21,47.82,33.63a430,430,0,0,1,36,33.47c10.1,10.71,19.4,22.11,28.49,33.67a6.37,6.37,0,0,1,.68,1.84l.19.16c1,.82,1.45,2.21,2.63,2.9l.08.05,13,19s0,.05.06.08c.77.89,1,2.14,1.94,2.92h0l1.11,2.88.08.09c.85.84,1.07,2.09,1.92,2.91,8.54,13.52,15.42,27.91,22,42.47,7.3,16.24,12.85,33.11,18.19,50.06C1007.57,561.84,1007.86,566.55,1009.92,570.76Z"/><path class="cls-1" d="M1064.92,537.64c-.18,7.63-1.14,15.24-1.69,22.86-.13,1.83-.48,3.12-2.77,3.28-3.8.29-7.56.83-11.37,1.26H1049c.65-7.26,1.7-14.51,1.86-21.78.34-14.8,1-29.7-1.14-44.35-2-13.53-4-27.09-7.55-40.41a294.43,294.43,0,0,0-37.39-84.58A286.06,286.06,0,0,0,934,298.8a265.59,265.59,0,0,0-55.94-32,330.13,330.13,0,0,0-55.22-17.12c-25.58-5.72-51.34-6.31-77.21-5.47-12.51.41-24.88,2.88-37.24,5.25-12.74,2.43-25,6.1-37.34,10-11.38,3.58-22.22,8.47-32.9,13.63a262.72,262.72,0,0,0-44.28,27.06,305.74,305.74,0,0,0-53,51.31A280,280,0,0,0,507.52,404a261.78,261.78,0,0,0-17,43.84c-2.9,10.06-5.37,20.17-7.33,30.39-2.17,11.37-4.08,22.89-4.15,34.49-.09,15.29-1.07,30.61.84,45.88A363.51,363.51,0,0,0,487.32,600a283.26,283.26,0,0,0,22.83,60.72,266.48,266.48,0,0,0,35.38,53c1.91,2.23,3.66,4.59,5.49,6.89l-.14.08c-4.73,2.58-9.5,5.1-14.17,7.78-2.51,1.44-4,1.42-6.13-1.18a316.65,316.65,0,0,1-43.29-69.06,282.55,282.55,0,0,1-20.85-63.41c-5.72-29.08-8.21-58.4-5-88.2,2.59-24.06,7.2-47.55,14.86-70.4a290.81,290.81,0,0,1,34.51-69.94,302.23,302.23,0,0,1,57.86-64.43,316.46,316.46,0,0,1,60.93-39.6A292.44,292.44,0,0,1,754,231.6a316.49,316.49,0,0,1,57.45,3.57A292.64,292.64,0,0,1,879.64,255,305.27,305.27,0,0,1,1004,351.82a299.34,299.34,0,0,1,33.4,55.55,290.22,290.22,0,0,1,20.72,62A294.47,294.47,0,0,1,1064.92,537.64Z"/><path class="cls-1" d="M1350.48,1359.55c-4.23-3.33-5.25-8.14-5.64-13.27-.7-9.15-.32-18.31-.54-27.46-.35-14-3.42-26.75-17.66-33.49-2.56-1.21-1.8-2.31,0-3.35,3.45-2,7.1-3.61,9.91-6.53,18.28-19,17-52.72-5.33-70.74-9.68-7.82-21.09-9.81-33.06-9.82-26.48,0-53,.1-79.46-.11-4.45,0-5.61,1.25-5.58,5.61.19,26.32.09,52.64.09,79,0,26.66.06,53.31-.06,80,0,4.15,1,6,5.6,5.77,7.64-.38,15.33-.37,23,0,4.77.23,6.28-1.2,6.21-6.1-.27-18.82-.11-37.64-.11-56.47,0-2.34-.38-4.68,3.36-4.63,12.32.18,24.66-.19,37,.27,11.36.41,16.42,4.12,19,13.39,2,7.08,1.9,14.44,1.8,21.76-.13,9.5.38,18.92,2.91,28.17.7,2.57,1.71,3.58,4.37,3.55,10.66-.1,21.32,0,32-.07,1.37,0,3.25.63,3.66-1.54A3.56,3.56,0,0,0,1350.48,1359.55Zm-58.78-89.69c-13.46.53-27,.14-40.44.27-2.6,0-3.49-.86-3.47-3.45q.13-19.72,0-39.45c0-2.71,1-3.4,3.54-3.36,7,.12,14,0,21,0v0c6.5,0,13-.16,19.48,0,14,.41,21.66,8.14,22.16,22.07C1314.48,1261.21,1307.31,1269.26,1291.7,1269.86Z"/><path class="cls-1" d="M884.14,1279.67c0-26.33.1-52.66-.1-79,0-4.53,1.13-5.93,5.83-5.91q56.74.29,113.49,0c4.81,0,5.88,1.52,5.64,5.91a154.12,154.12,0,0,0,0,18.49c.3,4.64-1.66,5.7-5.78,5.59-7.66-.2-15.33-.06-23-.06-18.83,0-37.67.11-56.5-.09-4,0-5.2,1.12-5.07,5.09.28,8.82.3,17.67,0,26.49-.14,4.11,1.35,4.92,5.14,4.9,24-.16,48,0,72-.18,4.41,0,6.3.87,6,5.7a166.3,166.3,0,0,0,0,18.49c.17,3.9-1.07,5.11-5.08,5.08-24.16-.19-48.33,0-72.49-.2-4.51,0-5.62,1.28-5.5,5.62.31,10.66.1,21.33.1,32,0,6.6,0,6.6,6.39,6.6,27.33,0,54.66.12,82-.11,4.93,0,6.29,1.49,6,6.23-.38,7-.2,14,0,21,.06,2.82-.87,3.73-3.71,3.73q-60.5-.11-121,0c-4.34,0-4.32-2.3-4.32-5.39Q884.19,1319.67,884.14,1279.67Z"/><path class="cls-1" d="M1531.73,1361c-3.12-8.85-6.46-17.63-9.62-26.46q-13.44-37.53-26.81-75.08c-7.3-20.56-14.59-41.12-21.7-61.74-.84-2.45-2.07-2.89-4.28-2.85-5.66.11-11.33,0-17,0h-7c-4.31.09-9.57-1.23-12.66.77-2.8,1.82-3.31,7.26-4.69,11.14-7.76,21.76-15.43,43.53-23.21,65.28-6,16.65-12.07,33.24-18,49.89-4.66,13-9.16,26.14-13.82,39.18-1.07,3-.57,4,2.85,3.91,8.66-.23,17.33-.08,26-.08,7.27,0,7.13,0,9.28-7.36,2.28-7.74,4.86-15.38,7.3-23.07,1.06-3.31,2.85-4.74,6.77-4.68q26.49.45,53,0c4.19-.07,5.79,1.53,6.9,5.17,2.75,9,5.95,17.89,8.65,26.91.76,2.52,2,3,4.28,3,10.33,0,20.66-.12,31,0C1532.3,1365.08,1532.55,1363.3,1531.73,1361Zm-69.06-60.06v.06h-26.49c-6.46,0-6.51-.06-4.41-6.42,2.75-8.31,5.54-16.62,8.3-24.94,3.71-11.22,7.41-22.44,11.4-34.51,3.5,3.7,3.65,7.57,4.74,10.86,4.88,14.69,9.3,29.54,13.88,44.33a.93.93,0,0,0,.09.49C1473.19,1300.94,1473.19,1300.94,1462.67,1300.94Z"/><path class="cls-1" d="M1189.27,1360.93q-5.23-13.84-10.13-27.82c-7.88-22.47-15.6-45-23.52-67.44-7.19-20.41-14.57-40.74-21.83-61.12-3.45-9.66-3.41-9.67-13.94-9.67h-9.5c-5.33,0-10.68.26-16-.09-3.52-.24-5.1,1.26-6.17,4.27-9.27,26-18.66,51.9-27.88,77.89-10,28.15-19.75,56.39-29.88,84.49-1.31,3.64.05,3.56,2.62,3.55,9.83,0,19.67-.07,29.5,0,2.6,0,3.86-1,4.64-3.45,2.87-9.13,6-18.18,8.91-27.28.89-2.73,2-4.42,5.5-4.38,18.5.2,37,.13,55.5,0,2.47,0,3.88.47,4.67,3.12,2.6,8.7,5.61,17.28,8.21,26,1.16,3.9,2.64,6.23,7.41,6,9.65-.39,19.33-.2,29-.08C1189.7,1365.07,1190.48,1364.11,1189.27,1360.93Zm-62-59.93,0-.07c-11.82-.06-23.64-.14-35.46,0-4.14.06-4.2-1.38-3.05-4.76,6-17.61,11.73-35.3,17.58-53,.87-2.65,1.81-5.28,3-8.55,3.5,4.44,3.86,9.27,5.34,13.56,5.51,16,10.38,32.32,15.66,48.45C1131.39,1300,1130.46,1301,1127.29,1301Z"/><path class="cls-1" d="M836.19,1251c-4.33,0-8.67-.19-13,.06-3.21.19-4.62-.9-5.55-4.07-2.6-8.79-7-16.55-15.58-20.84-17.86-8.94-42-6.08-53,15.5-9.57,18.86-9.68,38.94-6.54,59.28,2,13.07,7.53,24.07,18.64,31.9,16.11,11.35,47.45,9.27,55.69-19.58,1.37-4.79,3.14-6.77,8.36-6.41a206.78,206.78,0,0,0,23.47,0c4.34-.2,5.39.93,4.43,5.18-6.45,28.33-26.36,52.58-58.6,56.67-28.87,3.66-54.09-3.35-72.73-26.94-9-11.32-13.58-24.83-15.63-39.08a145.91,145.91,0,0,1,0-43.29c4.41-28.37,17.75-50.88,45-62.7,11.47-5,23.89-6.12,36.58-5.06,10.18.85,20.09,2.33,29.34,6.63,20.74,9.65,32.53,26.24,36.88,48.45.65,3.33-.42,4.5-3.81,4.34C845.52,1250.84,840.85,1251,836.19,1251Z"/><path class="cls-1" d="M278.44,1190.12c14.24-.13,27.63,2.66,39.23,11.6s16.58,21.47,18.26,35.6c.08.65.25,1.64-.09,1.94-3.71,3.24-8.19.92-12.29,1.53-2.79.41-3.23-1.55-3.33-3.77-.73-15.62-9.47-25.55-23.47-30.6-9.93-3.59-20.45-3.42-31-1.61-9.8,1.69-18,5.94-23.76,13.86-10.33,14.19-7.54,33.77,10.68,42.49,13.21,6.32,27.54,8.17,41.43,11.79,11.42,3,22.94,5.94,32.24,13.48,11.76,9.53,15.19,22.65,14.23,37.33C338.81,1350.6,320.18,1364,296,1368c-18.41,3.09-36.49,2.15-53.27-6.88-17.29-9.31-25.16-24.48-25.85-43.79-.1-2.7.8-3.68,3.38-3.32a9.23,9.23,0,0,0,1,0c3.32.09,7-.72,9.85.52,3.25,1.42,1.46,5.7,2.27,8.66,4.91,18.06,16.66,28.53,35,31.49,14.71,2.38,29.17,2,42.25-6.47,10.82-7,14.57-17.57,14.13-29.89-.47-13-8.44-20.66-19.48-25.77-10.72-5-22.39-6.65-33.71-9.6-14.53-3.79-29.49-6.82-40.37-18.57-10.5-11.33-12.48-24.83-8.91-39.19,5.86-23.54,27.91-33.27,49.16-35C273.76,1190,276.11,1190.12,278.44,1190.12Z"/><path class="cls-1" d="M568.13,1279.79c0-26.66.08-53.32-.09-80,0-4,1.17-5,5.08-5q51.74.21,103.48,0c4.47,0,5.24,1.68,5.15,5.55-.22,9.14.23,7.61-7.4,7.63-28.33,0-56.66.09-85-.07-4,0-5.48.84-5.41,5.17q.37,25.74,0,51.49c-.07,4.57,1.56,5.54,5.79,5.51,25.83-.17,51.66,0,77.48-.19,4.07,0,5,1.21,4.86,5-.24,8.14,0,8.15-8.11,8.15-24.66,0-49.32.1-74-.09-4.4,0-6.13.89-6.06,5.74.28,19.16.23,38.33,0,57.49,0,4,1.17,5,5,4.93,30-.15,60,0,90-.19,4.26,0,5.27,1.16,5.13,5.25-.3,8.83-.08,8.83-9.12,8.83-33.66,0-67.32-.08-101,.09-4.47,0-6-1-6-5.79C568.26,1332.78,568.13,1306.29,568.13,1279.79Z"/><path class="cls-1" d="M868.59,631.85s0,0,0,0h0a37.4,37.4,0,0,0,4.35-1.65h0C872,631.92,870.39,632.17,868.59,631.85Z"/><path class="cls-1" d="M1021.2,661.4c-.14,2.67-1.93,3.64-4.49,3.16-3.72-.69-7.38-1.63-11-2.52a13,13,0,0,0-2.44-1.09,12.33,12.33,0,0,0-2.61-.59h0a13,13,0,0,0-2.72,0,12.83,12.83,0,0,1-2.13-.29,24.84,24.84,0,0,0-3.6-.61,6.83,6.83,0,0,0-1.56,0c-9.48-.65-18.65-3.22-28-4.57-10.84-1.56-21.6-3.74-32.46-5.29-4.3-.61-8.46-1.83-12.75-2.38-.19-.08-.38-.17-.57-.24s-.52-.23-.79-.33q-1-.41-2-.75c-1-.33-1.93-.62-2.92-.87l-.09,0-41-6.19h0c-4.88-1.7-10.18-1-15.08-2.64l-.12,0-1.1-.38a2.3,2.3,0,0,1,1.53,0c1.83.21,3.66.51,5.5.81h0a25,25,0,0,1,6,.83,35,35,0,0,0,3.55.16c13.45,1.67,26.91,3.31,40.14,6.35.76.35,1.62.58,2.35,1a8.81,8.81,0,0,1,4.25,1.22h0l.07,0c11.27,1.76,22.54,3.46,33.79,5.3,13.38,2.19,26.73,4.5,40.1,6.75h0c2.38-.62,4.49.93,6.79.91h0c2.48.18,5.29-1,7.09,1.75a116.89,116.89,0,0,1,11.59,2.28c3.21,1,3.71-.27,3.66-3-.08-4,0-8,0-12.07a4.4,4.4,0,0,1-1.15-1.45c-.88-7-1.3-14-1.68-21.09a21.53,21.53,0,0,0,.08-4,22.43,22.43,0,0,1-.57-4.32c-.31-1.7-.68-3.39-1-5.07-.06-3.28-2.3-6.56,0-9.87h0l1.18,9.71c0,.05,0,.09,0,.14.47,4.34.86,8.7,1.67,13l1.48,22.2v0c.15.35.29.71.41,1.06h0C1022.17,652.63,1021.43,657,1021.2,661.4Z"/><path class="cls-1" d="M491,1286.81c0,24.32-.1,48.65.09,73,0,4.18-1.16,5.38-5.31,5.29-10.77-.22-10.77,0-10.77-10.69,0-47,0-94,.09-140.94,0-4.21-.74-5.72-5.39-5.61-14.49.35-29,0-43.48.21-3.9.06-5.28-1-5.15-5,.3-9.62-.42-8.12,8-8.13,36.82,0,73.64.07,110.46-.13,4.55,0,6.45,1.13,5.62,5.71a3.17,3.17,0,0,0,0,.5c-.14,8.16,1.07,6.92-6.74,7-14.16.07-28.32.16-42.48-.07-3.92-.06-5,1-5,5C491.06,1237.5,491,1262.16,491,1286.81Z"/><path class="cls-1" d="M392,1279.71c0,26.64-.07,53.28.08,79.91,0,3.91-.67,5.57-5.1,5.47-11-.25-11,0-11-10.94q0-76.92-.09-153.84c0-4.21.72-5.73,5.35-5.57,10.76.38,10.77.1,10.77,11Q392,1242.75,392,1279.71Z"/><path class="cls-1" d="M181.08,1280.09c0,26.63-.07,53.26.08,79.9,0,3.87-.91,5.18-5,5.1-10.51-.2-10.51,0-10.51-10.55,0-51.27.07-102.53-.12-153.8,0-5,1.41-6.15,6.14-6,9.38.36,9.39.1,9.39,9.42Q181.08,1242.14,181.08,1280.09Z"/><path class="cls-1" d="M1296,1476c-1.06-1.07-.95-2,.24-2.92a12.42,12.42,0,0,0,5.08-13c-1.22-6.12-4.25-10.91-11.32-12.2-9-1.63-17.93-.38-26.88-.91-2.78-.16-3.28,1.18-3.31,3.6s.78,3.85,3.42,3.42c3.53-.57,4.05,1.23,4,4.27q-.22,17.49,0,35c0,3.41-.16,6-4.63,5.4-2.69-.34-2.73,1.61-2.76,3.6s.58,3.22,2.79,3.11c9.78-.48,19.64,1.12,29.36-1.2a15.78,15.78,0,0,0,12.6-13.73C1305.31,1485.35,1301.57,1479.08,1296,1476Zm-20.27-13.18,0,0a1.34,1.34,0,0,1,0-.49c1-3.13-3.11-8.81,4.84-8.45,9.15.42,12.4,2.36,12.44,9q.06,8.93-9.74,9.16a17.11,17.11,0,0,0-2.48,0c-4.24.7-5.67-1.2-5.09-5.23A29.19,29.19,0,0,0,1275.73,1462.82Zm14.34,34.76c-3.85,1.43-7.84,1-11.8,1-1.9,0-2.55-1.12-2.51-2.93.07-3.33,0-6.66,0-10,.09-7.66-.88-6.51,7.53-6.65a17.39,17.39,0,0,1,6.49.81c4,1.44,6.16,4.17,6.27,8.55S1294.36,1496,1290.07,1497.58Z"/><path class="cls-1" d="M944.72,1447c2.5,0,5,.06,7.49,0,2.22-.07,3.91.11,3.84,3.08,0,2.47-.24,4.33-3.44,4-2.59-.29-3.07.53-2,3.13C954.85,1468,958.86,1479,963,1490c.35.94.85,1.92,2,1.89s1-1.19,1.21-1.9c4.09-10.8,8.11-21.61,12.25-32.39,1-2.46.8-4-2.28-3.53-3.34.47-3.17-1.54-3.31-3.9-.17-2.9,1.19-3.24,3.56-3.18,5.16.13,10.33.19,15.48,0,3.06-.12,3,1.56,3,3.74s-.21,3.79-2.87,3.3c-4.11-.76-5.28,1.65-6.47,5-5.15,14.41-10.59,28.71-15.91,43.06-.82,2.21-2,3.61-4.71,3.42-2.54-.18-4.44,0-5.64-3.24-5.5-14.8-11.54-29.4-17-44.2-1.12-3-2.28-4.54-5.49-4-3,.5-3.53-1.05-3.55-3.71s.92-3.52,3.48-3.34S942,1447,944.72,1447Z"/><path class="cls-1" d="M24.76,1447c6.16,0,12.34.19,18.49-.08,3.21-.14,4,.95,3.81,3.94a80.12,80.12,0,0,0,0,10.49c.17,2.84-1.47,2.78-3.43,2.73s-3.42.15-3.62-2.69c-.53-7.4-.69-7.39-8.18-7.39h-.5c-15,0-14.9,0-13.57,15.17.19,2.14.84,2.92,3,2.86,4-.11,8,.11,12-.08,2.79-.13,4.23.31,4.16,3.69-.06,3.16-1.43,3.48-4,3.39-4-.14-8,.07-12-.08-2.38-.09-3.25.73-3.16,3.13.15,4.16.21,8.34,0,12.49-.17,3.06.92,4.42,4,4s3.39,1.32,3.43,3.83-1.12,3-3.32,3c-5.66-.1-11.33-.12-17,0-2.43.05-3.14-.89-3.13-3.21s.32-4,3.2-3.59c3.72.55,4.35-1.36,4.3-4.63q-.25-17.74,0-35.48c0-3.25-.47-5.16-4.22-4.5-3.31.59-3.16-1.55-3.3-3.89-.18-2.94,1.3-3.18,3.6-3.15C11.77,1447,18.27,1447,24.76,1447Z"/><path class="cls-1" d="M1489.55,1146.1c-8.78,9.29-18.2,18.19-26.3,28.15-7.87,9.67-18,5.9-27.45,6.48-3.56.22-1.29-2.33-.69-3.3,4.57-7.4,9.94-14.38,13.8-22.13,4-8,9.46-10.43,18-9.48,7.39.82,14.94.18,22.42.2C1489.64,1146,1489.92,1146.25,1489.55,1146.1Z"/><path class="cls-1" d="M673.13,1489.08c0-4.33.15-8.66,0-13-.22-5-2.73-6.87-7.53-6-6.82,1.21-9.55,4.44-9.55,11.28v10.48c0,3.48-1.29,7.72,5,6.93,1.94-.25,1.8,2,1.83,3.44,0,1.63-.26,3.1-2.32,3.11H643.09c-2.2,0-2-1.71-2-3.22,0-1.68-.19-3.75,2.31-3.43,5.18.66,5.06-2.51,5-6.12-.15-5.65-.13-11.32,0-17,.06-2.59-.43-4.27-3.48-3.87s-3.87-1.2-3.88-4.1c0-3.25,2-2.83,4-2.84h7.49c.83,0,2.24-.24,2.41.11,2.78,5.7,5.64.9,8.12-.08,11.09-4.39,17.87.07,18,12.08,0,5.82.09,11.65,0,17.47-.06,2.66.11,4.7,3.61,4.27,2.83-.35,3.29,1.47,3.26,3.74s-1.32,2.93-3.52,3.06c-11.06.67-11,.73-11-10.36Q673.14,1492.07,673.13,1489.08Z"/><path class="cls-1" d="M823.78,1489.44c0-4.33.2-8.67,0-13-.33-5.64-4-7.89-9.29-6-7.24,2.57-8.34,4.13-8.34,11.82,0,3.33.1,6.67,0,10-.14,3.65-.59,7.16,5,6.5,2.49-.29,1.92,2.12,2,3.69.13,1.77-.44,2.92-2.44,2.92h-17c-2.44,0-2.48-1.62-2.47-3.4s.06-3.64,2.5-3.31c5.32.72,5.37-2.46,5.23-6.32-.21-5.49-.18-11,0-16.49.09-2.81-.4-4.56-3.71-4.15-2.51.31-4.12-.31-4.06-3.43s1.43-3.68,4.06-3.53,5.33,0,8,.05c1.07,0,2.51-.44,2.8,1.27.42,2.5,1.63,1.76,3.15,1a73.55,73.55,0,0,1,7.28-3.2c6.59-2.47,12.57.53,13.91,7.31,1.5,7.56.44,15.27.57,22.91,0,2.9.3,5,3.94,4.55,2.89-.35,3.13,1.46,3.17,3.74,0,2.58-1.28,2.92-3.41,3.05-10.87.69-10.87.73-10.87-10v-6Z"/><path class="cls-1" d="M531.79,1489c0-4.17.19-8.34,0-12.49-.34-5.91-4.11-8.11-9.64-5.91-7.43,3-8,3.78-8,12,0,3.17.06,6.33,0,9.5-.09,3.55-.76,7.26,5,6.56,2.49-.3,2,2,2.13,3.63s-.35,3-2.38,3h-17c-2.36,0-2.54-1.72-2.53-3.47s.42-3.53,2.74-3.23c4.57.58,5.12-1.86,4.94-5.63-.27-5.65-.21-11.33,0-17,.11-3.08-.56-4.81-4-4.33-2.4.33-3.73-.5-3.71-3.26s1.08-3.9,3.89-3.69c2.49.18,5,0,7.5,0,.67,0,1.72-.24,1.94.08,3.79,5.51,7.17.45,10.34-.64,9.44-3.24,15.85.76,16.11,10.75.17,6.49.15,13,0,19.49-.07,2.89.63,4.52,3.83,4.15,2.78-.31,3.28,1.24,3.28,3.65s-1.1,3-3.32,3.16c-11,.77-11,.82-11-9.88V1489Z"/><path class="cls-1" d="M301.72,1471.71c-4.92,0-8.57.2-12.2-.06s-6.26.3-5.44,4.93c.37,2.06-.87,2.59-2.66,2.42-1.56-.15-3.55.48-3.64-2.15v-1c-.84-11.08-.84-11.08,10.26-11.08,6,0,12-.09,18,.06,1.64,0,4.3-1.13,4.73,1.12s1.19,5-1.3,7.36c-7.27,7-14.19,14.31-21.3,21.45a5.91,5.91,0,0,0-2.23,3.82h15.57c2.8,0,2.8-1.89,2.55-3.75-.41-3.11.83-3.89,3.88-4,3.5-.07,3.09,1.9,3.12,4.1.13,10.39.15,10.39-10.29,10.39-6.5,0-13,.1-19.49-.07-1.75,0-4.5,1.3-5.11-1.33-.57-2.43-.8-5.1,1.53-7.4,7.2-7.13,14.17-14.48,21.23-21.76C299.56,1474.13,300.18,1473.41,301.72,1471.71Z"/><path class="cls-1" d="M559,1472.41l9,22.81,8.53-21c.73-1.79-.1-2.55-1.79-2.44-3.24.21-3.39-1.91-3.38-4.23,0-3.05,2.19-2.76,4.21-2.75,3.67,0,7.34-.11,11,.05,1.82.08,4.52-1.26,4.55,2.62,0,3-.42,4.84-4,4.31-2-.29-2.71.83-3.42,2.71-3.47,9.28-7.21,18.45-10.86,27.66-.73,1.83-1.21,3.53-4,3.37-2.62-.14-4.5-.67-5.5-3.23-3.42-8.77-7-17.46-10.19-26.32-1-3-2.21-4.72-5.51-4.23-2.82.42-3.65-.73-3.72-3.59-.08-3.19,1.36-3.49,3.9-3.39,4.16.15,8.33,0,12.5.06,1.67,0,3.86-.68,3.86,2.37,0,2.46.23,4.85-3.38,4.63A6.27,6.27,0,0,0,559,1472.41Z"/><path class="cls-1" d="M106.16,1471.7c4.1-3.64,7.4-6.9,12-8.25,2.05-.61,4.78-1.39,6,.38,1,1.52.72,4.22.3,6.26-.52,2.51-3,1.51-4.63,1.6-7.49.42-9.5,2.13-11.18,9.25-1.16,4.94-.51,9.93-.71,14.89-.13,3.17,2.22,2.74,4.15,2.76,2.51,0,5-.47,4.88,3.59-.1,4.32-3,3.13-5.24,3.17-5.48.11-11,0-16.45.06-2.28,0-3.28-.73-3.27-3.16s.47-4,3.25-3.61c4.47.68,5.2-1.57,5-5.43-.29-5.8-.19-11.63,0-17.45.08-2.8-.35-4.53-3.71-4.06-2.9.41-4.65-.3-4.56-3.93.1-4,2.81-2.75,4.87-3a19.08,19.08,0,0,1,2,0C103.19,1464.58,108,1463.88,106.16,1471.7Z"/><path class="cls-1" d="M1376.89,1469.88A17.92,17.92,0,0,1,1389,1463c2.58-.32,4.24.34,3.87,3.44-.28,2.31.83,5.47-3.3,5.25-10.74-.56-13.24,4.55-13.59,15-.05,1.5.09,3,0,4.49-.43,4.78-.17,8.75,6.49,7.52,2.34-.43,2.53,1.46,2.52,3.28s0,3.42-2.45,3.41h-20c-2.45,0-2.44-1.63-2.44-3.4s.1-3.7,2.48-3.3c5.86,1,6-2.42,5.82-6.72-.23-5.31-.2-10.65,0-16,.11-3.06-.55-4.77-4-4.3-2.65.36-4.32-.22-4.36-3.63-.05-3.85,2.3-3.27,4.59-3.28a26.94,26.94,0,0,0,4.48,0c4.32-.76,5.67,1.19,5.06,5.16C1375,1471.36,1376,1471,1376.89,1469.88Z"/><path class="cls-1" d="M1176.48,1472.28c4.44-4.17,7.64-7.51,12.26-8.89,5-1.5,6.56-.24,6.39,5-.09,2.76-1.35,3.21-3.71,3.35-9.78.58-11.62,2.37-12.82,12.11-.28,2.3-.27,4.64-.54,6.95-.59,5-.18,9,6.65,7.85,2.54-.44,2.37,1.62,2.36,3.3s.31,3.44-2.32,3.42c-6.66-.06-13.31,0-20,0-2.44,0-2.35-1.73-2.4-3.48-.06-1.93.39-3.56,2.64-3.2,6.06,1,6.23-2.54,6-7-.29-5.31-.23-10.66,0-16,.13-3-.76-4.3-3.88-4-2.63.28-4.87.21-4.83-3.69,0-4.36,3-3,5.19-3.2.82-.09,1.67.06,2.49,0C1174.55,1464.27,1178.17,1464.84,1176.48,1472.28Z"/><path class="cls-1" d="M217.17,1472.48c0,7.15.08,14.29,0,21.44,0,2.82.16,5.06,3.83,4.7,3-.3,2.86,1.73,3,3.85.14,2.72-1.45,2.92-3.45,2.91-5,0-10-.08-15,0-2.51.05-3.48-.78-3.48-3.44s1-3.68,3.52-3.34c3.8.51,4.32-1.53,4.28-4.71-.13-11.8-.16-23.6,0-35.4,0-3.3-.6-5.13-4.3-4.51-3,.5-3.49-1.07-3.52-3.71s.93-3.27,3.45-3.36c11.69-.41,11.69-.49,11.69,11.09Q217.17,1465.25,217.17,1472.48Z"/><path class="cls-1" d="M730.61,1481.42c0,4.5.09,9,0,13.49-.07,2.43.61,4,3.3,3.66,3.43-.42,3,1.79,3.18,4,.16,2.77-1.42,2.84-3.43,2.81-4.49-.06-9-.08-13.49,0-2.13,0-3.57-.26-3.36-2.92.16-2-.37-4.22,2.85-3.9,3,.31,3.53-1.41,3.48-4-.12-6.49-.09-13,0-19.48,0-2.14-.35-3.71-2.93-3.38-3.19.41-3.31-1.47-3.43-3.93-.14-3,1.49-3,3.71-3.08,10.16-.26,10.16-.31,10.16,9.69Q730.61,1477.92,730.61,1481.42Z"/><path class="cls-1" d="M1077.11,1481.54c0,3.83.09,7.66,0,11.49-.09,3.2-.26,6,4.43,5.7,2.59-.18,1.72,2.27,1.86,3.77.16,1.69-.26,2.91-2.38,2.88-5.16-.06-10.33-.09-15.49,0-2.5.05-2.54-1.43-2.51-3.23s-.3-3.92,2.61-3.56c3.25.4,3.89-1.26,3.82-4.13-.16-6.49-.11-13,0-19.48,0-2.22-.49-3.61-3-3.27-3.13.43-3.38-1.33-3.47-3.86-.11-3,1.36-3.08,3.64-3.15,10.54-.28,10.54-.34,10.54,10.32Z"/><path class="cls-1" d="M1012.29,1481.58V1492c0,3.47-.86,7.15,4.89,6.75,2.37-.16,1.4,2.5,1.57,4s-.47,2.56-2.2,2.56h-16c-2.47,0-2.51-1.56-2.46-3.33s-.24-3.7,2.32-3.39c3.91.47,4.32-1.67,4.24-4.78-.15-6.15-.09-12.3,0-18.45,0-2.24-.17-4.09-3.12-3.71s-3.4-1.36-3.49-3.9c-.1-3,1.56-3,3.75-3.08,10.49-.32,10.48-.35,10.48,9.86Z"/><path class="cls-1" d="M1078,1450c-1.39,1.75-2.28,4.27-5.1,3.9-2.5-.32-4.2-1.75-4-4.7.19-2.79,2.25-3.82,4.33-3.77C1075.63,1445.52,1077.14,1447.45,1078,1450Z"/><path class="cls-1" d="M1013.16,1449.55c-1,2.21-2.25,4.31-4.74,4.36s-4.36-1.22-4.51-4.11,1.93-4.24,4.23-4.33S1012,1447.37,1013.16,1449.55Z"/><path class="cls-1" d="M731.13,1449.84c-.86,2.24-2.07,4.26-4.8,4.1a4.16,4.16,0,0,1-4.1-4.62,4.05,4.05,0,0,1,4.19-3.91h.12C729,1445.53,730.68,1447.15,731.13,1449.84Z"/><path class="cls-1" d="M1189,285c.69-1.11,1.47-2.46,2.93-1.27s-.15,2-.8,2.64a12.61,12.61,0,0,1-2.32,1.58C1188.66,286.91,1190.52,286,1189,285Z"/><path class="cls-1" d="M338,782c-1.15,1.16-2.84,1.83-3.86.72-.64-.69.87-2,1.91-2.65C336,781.53,336.87,781.93,338,782Z"/><path class="cls-1" d="M1376.89,1469.88c-.55,1-.56,2.86-2.23,2.53-1-.2-.68-1.58-.54-2.51Z"/><path class="cls-1" d="M873,630.17c-1,1.75-2.61,2-4.41,1.68,0,0,0,0,0,0h0a4.18,4.18,0,0,1,4.35-1.65Z"/><path class="cls-1" d="M663.09,671.09h0A4.23,4.23,0,0,1,659,673h0A5,5,0,0,1,663.09,671.09Z"/><path class="cls-1" d="M1296,1476c-.77-.07-1.66-.11-1.6-1.17s.89-1.52,1.84-1.75Z"/><path class="cls-1" d="M1093.44,651.87c-.57-1-1.78-.72-2.72-.72-13.46.26-26.8-1.59-40.22-2.12-10.07-.4-20.14-1.16-30.2-1.77h0V648c0,4-.08,8,0,12.07,0,2.73-.45,4-3.66,3A116.89,116.89,0,0,0,1005,660.8a17.84,17.84,0,0,0-6.65-1.32h-.72a16.58,16.58,0,0,1-6.54-1.35h0c-13.37-2.25-26.72-4.56-40.1-6.75-11.25-1.84-22.52-3.54-33.79-5.3l-.07,0a10,10,0,0,1-1,.51,5,5,0,0,0-1.68,1,2.28,2.28,0,0,0-.26.28l-.06,0h0c-7.12,3.43-14.25,6.8-21.31,10.35-1.2.6-3.18,1-3.13,2.72,0,1.46,1.87,1.67,3,2.2,7.77,3.65,15.6,7.19,23.4,10.76,1.17,1,2.86.93,4,2q18.84,8.91,37.76,17.8,21.63,10.14,43.24,20.26l0,0c1.16,1,2.71,1.2,4,2l0,0c6.42,3,12.89,5.86,19.24,9,3.18,1.55,5.4,1.86,8-1.45,4.57-5.81,9.79-11.11,14.74-16.63a18.24,18.24,0,0,1,2.9-3.18L1060,692a15.16,15.16,0,0,1,2.75-3.12l.09-.08a8,8,0,0,1,.9-1.75q14.16-16.21,28.34-32.4C1092.79,653.87,1094.26,653.31,1093.44,651.87Zm-5,4.83c-8.49,10.42-17.78,20.14-26.24,30.59a7.83,7.83,0,0,1-3,3.81A98.21,98.21,0,0,0,1048.87,703a8.34,8.34,0,0,1-2.89,3.52c-5.21,4.67-9.43,10.26-14.07,15.44-2.6,2.9-4.8,3.25-8.18,1.48a191,191,0,0,0-18.55-8.43,10.52,10.52,0,0,1-4.39-2,175.39,175.39,0,0,0-16.5-8.29c-21.37-9.71-42.41-20.09-63.92-29.48-.34-.09-.68-.2-1-.32a3.11,3.11,0,0,0-2.12-1,11.68,11.68,0,0,1-1.26-.8c-7.77-4.57-16.45-7.43-25-12.43,6.14-3.09,11.51-6,17.14-8.42,2.36-1,5-1.78,6.12-4.34,1.12.09,2.13,0,2.61-1,.19.07.38.16.57.24,4.29.55,8.45,1.77,12.75,2.38,10.86,1.55,21.62,3.73,32.46,5.29,9.35,1.35,18.52,3.92,28,4.57a6.83,6.83,0,0,1,1.56,0,5.63,5.63,0,0,0,3.6.61,12.83,12.83,0,0,0,2.13.29,13,13,0,0,1,2.72,0h0a14.71,14.71,0,0,0,2.61.59,13,13,0,0,1,2.44,1.09c3.62.89,7.28,1.83,11,2.52,2.56.48,4.35-.49,4.49-3.16.23-4.35,1-8.77-.48-13,1.39.87,3.15.89,4.86,1,3.65.19,7.3.07,10.95.19,16.39.55,32.68,2.95,49.11,2.89,1.68,0,3.64-.75,5.09,1.06A11.13,11.13,0,0,1,1088.39,656.7Z"/><path class="cls-1" d="M870.06,638.84c-5.19-.19-10.36-.53-15.2-2.68h.06c1.91.28,3.87.31,5.81.4h0a25,25,0,0,1,6,.83,12.67,12.67,0,0,1,3.2,1.4h0Z"/><path class="cls-1" d="M1018.82,625.06a17.18,17.18,0,0,1-1.32-3.6,22.43,22.43,0,0,1-.57-4.32,41.92,41.92,0,0,1,.18-5.24s0,.1,0,.15C1018.38,616.3,1019.37,620.58,1018.82,625.06Z"/><path class="cls-1" d="M917.09,646.12h0a2.69,2.69,0,0,1-.25.84c-.48,1-1.49,1.11-2.61,1l-.18,0h0c.17-2.18-2.32-1.63-3-2.94h.05a8.54,8.54,0,0,1,1.75-.12A8.81,8.81,0,0,1,917.09,646.12Z"/><path class="cls-1" d="M920,676a3.77,3.77,0,0,1-4-2,7.3,7.3,0,0,1,1.23,0,3.11,3.11,0,0,1,2.12,1A3.77,3.77,0,0,1,920,676Z"/><path class="cls-1" d="M1001,714.06a4.77,4.77,0,0,1,4,2C1003.26,716.16,1001.79,715.76,1001,714.06Z"/><path class="cls-1" d="M1047,707a3.31,3.31,0,0,1,2.9-3.18A4.65,4.65,0,0,1,1047,707Z"/><path class="cls-1" d="M1060,692a3.28,3.28,0,0,1,2.92-3.15A4.76,4.76,0,0,1,1060,692Z"/><path class="cls-1" d="M966,464.92V465a2.81,2.81,0,0,1-1.16-.7h0a2.8,2.8,0,0,1-.66-1.05A2.76,2.76,0,0,1,964,462h.08C966,462.17,966,463.52,966,464.92Z"/><path class="cls-1" d="M963,459.05h-.06a2,2,0,0,1-1.36-.59,1.76,1.76,0,0,1-.4-.69,5.43,5.43,0,0,1-.18-1.65v-.06A2.83,2.83,0,0,1,963,459.05Z"/><path class="cls-1" d="M948,437l-.19,0c-1.68-.21-2.08-1.62-2.63-2.9,0-.06,0-.13-.08-.19C946.93,434.11,947.34,435.67,948,437Z"/><path class="cls-1" d="M780,305.92a5,5,0,0,1-4-1.93C777.71,303.88,779.21,304.2,780,305.92Z"/><path class="cls-1" d="M1005,660.8a4.9,4.9,0,0,1-1.73.15,14.71,14.71,0,0,1-2.61-.59h0a8.46,8.46,0,0,0-2.54-.43h0c-.29-.11-.44-.25-.44-.42a.44.44,0,0,1,0-.1c.07-.21.14-.32.23-.34h0C1000.39,659.23,1003.2,658,1005,660.8Z"/><path class="cls-1" d="M998.09,659.92h0a22.57,22.57,0,0,0-2.31.08,5.63,5.63,0,0,1-3.6-.61,4.11,4.11,0,0,1-1.2-1.22l.11,0c2.38-.62,4.49.93,6.79.91h0c0,.14,0,.29.08.43S998.06,659.78,998.09,659.92Z"/><path class="cls-1" d="M0,0Z"/></svg>