<svg id="Camada_4" data-name="Camada 4" xmlns="http://www.w3.org/2000/svg" viewBox="0 0 819.46 523.46"><defs><style>.cls-1{fill:#fff;}</style></defs><title>2-CARLOS HIGOR</title><g id="Camada_3" data-name="Camada 3"><path class="cls-1" d="M46.45,434.29a19,19,0,0,1-18.16,19H19a19,19,0,0,1-19-19s0,0,0-.05V319.54a19,19,0,0,1,18.95-19h9.34c10.13.21,18.16,8.78,18.16,19v22.91c0,4.92-2.11,7.28-4,8.14l-11,5.14V322.11a8.13,8.13,0,1,0-16.26,0V431.5a8.13,8.13,0,1,0,16.26,0h0V411.38c0-4.92,2.11-7.28,4-8.35,1.27-.64,7.18-3.21,11-4.92Z" transform="translate(0)"/><path class="cls-1" d="M125.69,451.84H109L95.71,348.65,82.41,451.84H65.73L88.11,302h8.23c6.33,0,7.39,4.07,8,8.13Z" transform="translate(0)"/><path class="cls-1" d="M174.4,451.84V397c0-7.28-3.8-9.63-7.81-9.63h-8v64.44h-15.2V302H171a18.74,18.74,0,0,1,18.58,18.84v46.24s.63,11.77-5.49,13.27c5.91,3,5.49,14.13,5.49,14.13v57.37Zm-7.81-79c4,0,7.81-1.71,7.81-8.56V324c0-5.57-3.8-7.71-7.81-7.71h-8v56.52Z" transform="translate(0)"/><path class="cls-1" d="M273.91,436.64c-1.69,3.85-4.22,9.85-4.86,11.13-1.06,1.93-3.38,4.07-8.23,4.07H224.51V302h10.56a4.87,4.87,0,0,1,4.64,4.71V436.64Z" transform="translate(0)"/><path class="cls-1" d="M315.92,300.49a19.17,19.17,0,0,1,18.37,19v115a19.13,19.13,0,0,1-18.37,18.84H304.31a19.24,19.24,0,0,1-19-18.84v-115a19,19,0,0,1,18.95-19h11.66Zm-5.07,139.37a8.13,8.13,0,0,0,8-8.26V322.32a8.13,8.13,0,0,0-7.91-8.35h-2.41a8.41,8.41,0,0,0-8,8.35V431.5a8.41,8.41,0,0,0,8,8.35Z" transform="translate(0)"/><path class="cls-1" d="M394.45,339.66V322.32a8,8,0,0,0-16,0v14.34c0,8.78,6.54,20.12,6.54,20.12l18.16,34.68c7.39,13.7,6.76,23.76,6.76,23.76v19a19,19,0,0,1-18.95,19h-9.55a19.32,19.32,0,0,1-18.41-19V418.87c0-4.92,2.32-7.28,4.22-8.35,1.27-.43,7.39-3.21,11.19-4.92v26.12a8,8,0,0,0,16-.21h0V414.38c0-8.78-6.54-20.34-6.54-20.34l-18.16-34.47c-7.39-13.7-6.76-23.76-6.76-23.76V320.4c0-10.49,8.44-19.91,19-19.91h9.5c10.13.21,18.37,9.63,18.37,19.91v5.78c0,4.92-2.32,7.28-4.22,8.35C404.38,335.17,398.47,338,394.45,339.66Z" transform="translate(0)"/><path class="cls-1" d="M532.64,302a5.71,5.71,0,0,1,6.12,6V451.84h-15.2V386.55a3.69,3.69,0,0,0-3.59-3.42H503.51v68.72h-15.2V308a5.71,5.71,0,0,1,6.12-6h9.08v60.58c0,4.28,1.69,5.35,5.28,5.35h14.78V302Z" transform="translate(0)"/><path class="cls-1" d="M580,302a5.83,5.83,0,0,1,6.12,5.53q0,.23,0,.47V451.84H575.41c-3.59,0-4.22-2.14-4.43-3.21V302Z" transform="translate(0)"/><path class="cls-1" d="M667.85,342.87c0,5.14-2.11,7.28-4.22,8.35-1.06.64-7,3.43-11,5.14V322.11a8,8,0,0,0-16,0V431.72a8,8,0,0,0,16,0V387H652c-3.38,0-5.49-4.92-5.49-4.92l-5.07-10.7h19c4.64,0,7.39,2.57,7.39,8.35v54.59a19.17,19.17,0,0,1-18.37,19H640.2a19,19,0,0,1-18.79-19V319.54a19,19,0,0,1,18.79-19h9.29a19.17,19.17,0,0,1,18.37,19Z" transform="translate(0)"/><path class="cls-1" d="M726.75,300.49a19.17,19.17,0,0,1,18.37,19v115a19.13,19.13,0,0,1-18.37,18.84H715.14a19.24,19.24,0,0,1-19-18.84v-115a19,19,0,0,1,18.95-19h11.66Zm-5.07,139.37a8.13,8.13,0,0,0,8-8.26V322.32a8.13,8.13,0,0,0-7.91-8.35h-2.41a8.41,8.41,0,0,0-8,8.35V431.5a8.41,8.41,0,0,0,8,8.35Z" transform="translate(0)"/><path class="cls-1" d="M804.23,451.84V397c0-7.28-3.8-9.63-7.81-9.63h-8v64.44H773.2V302h27.66a18.74,18.74,0,0,1,18.58,18.84v46.24s.63,11.77-5.49,13.27c5.91,3,5.49,14.13,5.49,14.13v57.37Zm-7.81-79c4,0,7.81-1.71,7.81-8.56V324c0-5.57-3.8-7.71-7.81-7.71h-8v56.52Z" transform="translate(0)"/><path class="cls-1" d="M162.44,512.68V475.06h4.44v15.45h17.44V475.06h4.44v37.62h-4.44V495H166.88v17.73Z" transform="translate(0)"/><path class="cls-1" d="M211.52,509.32a15.32,15.32,0,0,1-4.3,3,11.21,11.21,0,0,1-4.63,1,8.53,8.53,0,0,1-6.05-2.1,7.37,7.37,0,0,1-2.26-5.67,8.16,8.16,0,0,1,1.06-4.18,7.56,7.56,0,0,1,2.9-2.85,16.24,16.24,0,0,1,5.58-1.51,33.43,33.43,0,0,0,7.37-1.62v-1.18q0-2.8-1.09-3.93a6.16,6.16,0,0,0-4.72-1.64,5.48,5.48,0,0,0-6.39,5.21l-4-.62a10.1,10.1,0,0,1,3.5-6.39q2.64-2,7.55-2a11.55,11.55,0,0,1,6,1.32,5.77,5.77,0,0,1,2.75,3.27,21.49,21.49,0,0,1,.57,5.7v6.16a72.13,72.13,0,0,0,.27,8.15,11.41,11.41,0,0,0,1,3.27h-4.3A10.66,10.66,0,0,1,211.52,509.32ZM211.18,499a27.84,27.84,0,0,1-6.72,1.74,13.55,13.55,0,0,0-3.63.94,3.87,3.87,0,0,0-1.6,1.49,4.26,4.26,0,0,0-.57,2.22,4,4,0,0,0,1.31,3.12,5.26,5.26,0,0,0,3.63,1.17,7.79,7.79,0,0,0,4-1,6.76,6.76,0,0,0,2.69-2.81,11.62,11.62,0,0,0,.89-5.12Z" transform="translate(0)"/><path class="cls-1" d="M221.76,512.68V485.43h3.71v4.13a11.58,11.58,0,0,1,2.61-3.81,4.19,4.19,0,0,1,2.66-.94A7.4,7.4,0,0,1,235,486.3l-1.4,4.29a5.47,5.47,0,0,0-3-1,3.82,3.82,0,0,0-2.4.85,4.5,4.5,0,0,0-1.53,2.36,19.73,19.73,0,0,0-.78,5.62v14.27Z" transform="translate(0)"/><path class="cls-1" d="M237.38,512.68V485.43h3.68v3.8a8.89,8.89,0,0,1,3.15-3.27,8,8,0,0,1,4.21-1.15,7.48,7.48,0,0,1,4.33,1.21,6.58,6.58,0,0,1,2.52,3.54,10.67,10.67,0,0,1,3.35-3.56,7.71,7.71,0,0,1,4.19-1.19,7.14,7.14,0,0,1,5.52,2.18q2,2.18,2,7V512.7h-4.1V495.49a13,13,0,0,0-.46-4.15,3.77,3.77,0,0,0-1.5-1.89,4.22,4.22,0,0,0-2.33-.67,5.49,5.49,0,0,0-4.35,1.94q-1.68,1.94-1.68,6.1v15.85h-4.1V495q0-3.39-1.13-4.78a3.79,3.79,0,0,0-3.11-1.39,5.34,5.34,0,0,0-4.45,2.09q-1.63,2.09-1.63,7.64v14.15Z" transform="translate(0)"/><path class="cls-1" d="M274.82,499q0-7.06,3.22-10.65a11,11,0,0,1,15.54-.74q.39.35.74.74,3.26,3.59,3.26,10.37,0,7.34-3.21,10.93a11,11,0,0,1-15.54.77q-.41-.37-.77-.77Q274.82,506.08,274.82,499Zm4.21,0q0,5.29,2.09,7.87a6.43,6.43,0,0,0,5.19,2.58,6.2,6.2,0,0,0,5-2.61q2.08-2.61,2.08-7.85t-2.09-7.85a6.43,6.43,0,0,0-5.19-2.58,6.19,6.19,0,0,0-5,2.59Q279,493.8,279,499Z" transform="translate(0)"/><path class="cls-1" d="M302.44,512.68V485.43h3.71v3.85a9.13,9.13,0,0,1,3.27-3.35,8.77,8.77,0,0,1,4.44-1.11,9.12,9.12,0,0,1,3.61.71,7.4,7.4,0,0,1,2.67,1.85,7.29,7.29,0,0,1,1.52,3,22.85,22.85,0,0,1,.5,5.59v16.75h-4.1V496.08a12.66,12.66,0,0,0-.56-4.39,4.44,4.44,0,0,0-1.74-2.15,5,5,0,0,0-2.75-.76,5.92,5.92,0,0,0-4.71,2q-1.76,2-1.76,7v14.9Z" transform="translate(0)"/><path class="cls-1" d="M328.5,480.37v-5.31h4.1v5.31Zm0,32.3V485.43h4.1v27.25Z" transform="translate(0)"/><path class="cls-1" d="M336.79,512.68v-3.75L352.28,489q-2.65.15-4.66.15h-9.91V485.4H357.6v3l-13.2,17.29-2.54,3.16q2.76-.23,5.19-.23H358.3v4Z" transform="translate(0)"/><path class="cls-1" d="M378.17,509.32a15.32,15.32,0,0,1-4.3,3,11.21,11.21,0,0,1-4.63,1,8.53,8.53,0,0,1-6-2.1,7.37,7.37,0,0,1-2.26-5.67,8.16,8.16,0,0,1,1.06-4.18,7.56,7.56,0,0,1,2.9-2.85,16.24,16.24,0,0,1,5.58-1.51,33.43,33.43,0,0,0,7.37-1.62v-1.18q0-2.8-1.09-3.93a6.16,6.16,0,0,0-4.72-1.64,5.48,5.48,0,0,0-6.39,5.21l-4-.62a10.1,10.1,0,0,1,3.5-6.39q2.64-2,7.55-2a11.55,11.55,0,0,1,6,1.32,5.77,5.77,0,0,1,2.75,3.27,21.49,21.49,0,0,1,.57,5.7v6.16a72.13,72.13,0,0,0,.27,8.15,11.41,11.41,0,0,0,1,3.27H379A10.66,10.66,0,0,1,378.17,509.32ZM377.83,499a27.84,27.84,0,0,1-6.72,1.74,13.55,13.55,0,0,0-3.63.94,3.87,3.87,0,0,0-1.6,1.49,4.26,4.26,0,0,0-.57,2.22,4,4,0,0,0,1.31,3.12,5.26,5.26,0,0,0,3.63,1.17,7.79,7.79,0,0,0,4-1,6.76,6.76,0,0,0,2.69-2.81,11.62,11.62,0,0,0,.89-5.12Z" transform="translate(0)"/><path class="cls-1" d="M404.31,502.7l4,.59a12,12,0,0,1-3.5,7.44,9.63,9.63,0,0,1-6.74,2.57,9.88,9.88,0,0,1-7.85-3.61q-3.08-3.6-3.08-10.66t3.11-10.66a10.14,10.14,0,0,1,8-3.55A9.57,9.57,0,0,1,404.6,487a10.29,10.29,0,0,1,3.31,6.47l-4,.67a7.71,7.71,0,0,0-2-4.12,4.91,4.91,0,0,0-3.49-1.37,6.2,6.2,0,0,0-5,2.48q-2,2.48-2,7.86,0,5.57,1.91,8.06a5.91,5.91,0,0,0,4.9,2.49,5.46,5.46,0,0,0,4-1.66A8.63,8.63,0,0,0,404.31,502.7Zm-8.68,13.93,1.2-4.54h3.07l-.78,2.75a4.82,4.82,0,0,1,2.92,1.3,3.51,3.51,0,0,1,1,2.53,4.21,4.21,0,0,1-1.74,3.39,7.38,7.38,0,0,1-4.74,1.39,16.32,16.32,0,0,1-3.39-.31l.22-3q1.48.1,2.26.1a5.25,5.25,0,0,0,2.72-.54,1.6,1.6,0,0,0,.85-1.38,1.39,1.39,0,0,0-.77-1.25A6.34,6.34,0,0,0,395.63,516.63Z" transform="translate(0)"/><path class="cls-1" d="M427.66,509.32a15.31,15.31,0,0,1-4.3,3,11.21,11.21,0,0,1-4.63,1,8.53,8.53,0,0,1-6-2.1,7.37,7.37,0,0,1-2.26-5.67,8.15,8.15,0,0,1,1.06-4.18,7.55,7.55,0,0,1,2.9-2.85A16.23,16.23,0,0,1,420,497a33.42,33.42,0,0,0,7.37-1.62V494.2q0-2.8-1.09-3.93a6.16,6.16,0,0,0-4.72-1.64,5.48,5.48,0,0,0-6.39,5.21l-4-.62a10.1,10.1,0,0,1,3.5-6.39q2.64-2,7.55-2a11.55,11.55,0,0,1,6,1.32,5.78,5.78,0,0,1,2.75,3.27,21.52,21.52,0,0,1,.57,5.7v6.16a72.2,72.2,0,0,0,.27,8.15,11.44,11.44,0,0,0,1,3.27h-4.3A10.67,10.67,0,0,1,427.66,509.32ZM413.85,482a6.18,6.18,0,0,1,1.34-4.29,4.2,4.2,0,0,1,3.29-1.53,8.57,8.57,0,0,1,3.88,1.39,4.71,4.71,0,0,0,2.15.77,1.4,1.4,0,0,0,1.13-.44,3.61,3.61,0,0,0,.54-1.76h3a6.79,6.79,0,0,1-1.35,4.38,4,4,0,0,1-3.17,1.44,8,8,0,0,1-3.77-1.44,5.26,5.26,0,0,0-2.23-.92,1.57,1.57,0,0,0-1.25.6,2.77,2.77,0,0,0-.5,1.82Zm13.48,17a27.83,27.83,0,0,1-6.72,1.74,13.55,13.55,0,0,0-3.63.94,3.86,3.86,0,0,0-1.6,1.49,4.27,4.27,0,0,0-.57,2.22,4,4,0,0,0,1.31,3.12,5.26,5.26,0,0,0,3.63,1.17,7.79,7.79,0,0,0,4-1,6.76,6.76,0,0,0,2.69-2.81,11.61,11.61,0,0,0,.89-5.12Z" transform="translate(0)"/><path class="cls-1" d="M436.34,499q0-7.06,3.22-10.65a11,11,0,0,1,15.54-.74q.39.35.74.74,3.26,3.59,3.26,10.37,0,7.34-3.21,10.93a11,11,0,0,1-15.54.77q-.41-.37-.77-.77Q436.34,506.08,436.34,499Zm4.21,0q0,5.29,2.09,7.87a6.43,6.43,0,0,0,5.19,2.58,6.2,6.2,0,0,0,5-2.61q2.08-2.61,2.08-7.85t-2.09-7.85a6.43,6.43,0,0,0-5.19-2.58,6.19,6.19,0,0,0-5,2.59q-2.08,2.6-2.08,7.8Z" transform="translate(0)"/><path class="cls-1" d="M476.32,494.36q0-9.62,4.6-14.79a15.31,15.31,0,0,1,19.56-2.86,15.9,15.9,0,0,1,5.79,6.71,23.8,23.8,0,0,1,2.13,10.48q0,8.37-4.13,13.63a14.42,14.42,0,0,1-11.91,5.8,14.27,14.27,0,0,1-11.94-6A20.85,20.85,0,0,1,476.32,494.36Zm4.58.06q0,7,3.33,10.8a10.53,10.53,0,0,0,16.29,0q3.31-3.88,3.31-11.4a21.16,21.16,0,0,0-1.7-8.68,10.86,10.86,0,0,0-4-4.69,10.18,10.18,0,0,0-5.76-1.76,10.35,10.35,0,0,0-8.27,3.85q-3.26,3.82-3.26,11.88Z" transform="translate(0)"/><path class="cls-1" d="M513.45,512.68V485.43h3.71v4.13a11.56,11.56,0,0,1,2.61-3.81,4.19,4.19,0,0,1,2.67-.94,7.4,7.4,0,0,1,4.21,1.49l-1.4,4.29a5.47,5.47,0,0,0-3-1,3.82,3.82,0,0,0-2.4.85,4.5,4.5,0,0,0-1.53,2.36,19.71,19.71,0,0,0-.78,5.62v14.27Z" transform="translate(0)"/><path class="cls-1" d="M527.49,499q0-7.06,3.22-10.65a11,11,0,0,1,15.54-.74q.39.35.74.74,3.26,3.59,3.26,10.37,0,7.34-3.21,10.93a11,11,0,0,1-15.54.77q-.41-.37-.77-.77Q527.49,506.08,527.49,499Zm4.21,0q0,5.29,2.09,7.87A6.43,6.43,0,0,0,539,509.5a6.2,6.2,0,0,0,5-2.61q2-2.61,2-7.89t-2.09-7.85a6.43,6.43,0,0,0-5.19-2.58,6.19,6.19,0,0,0-5,2.59q-2,2.64-2,7.84Z" transform="translate(0)"/><path class="cls-1" d="M556.25,512.68V489H552.6v-3.59h3.65v-2.9a12.19,12.19,0,0,1,.73-4.81,5.21,5.21,0,0,1,2.22-2.45,7.56,7.56,0,0,1,3.76-.85,17.15,17.15,0,0,1,3.86.49l-.61,4a12.42,12.42,0,0,0-2.43-.26,3.39,3.39,0,0,0-2.64.89,5.21,5.21,0,0,0-.8,3.37v2.51h4.74V489h-4.74v23.66Z" transform="translate(0)"/><path class="cls-1" d="M584,509.32a15.31,15.31,0,0,1-4.3,3,11.21,11.21,0,0,1-4.63,1,8.53,8.53,0,0,1-6-2.1,7.37,7.37,0,0,1-2.26-5.67,8.16,8.16,0,0,1,1.06-4.18,7.55,7.55,0,0,1,2.9-2.85A16.23,16.23,0,0,1,576.3,497a33.42,33.42,0,0,0,7.37-1.62v-1.18q0-2.8-1.09-3.93a6.16,6.16,0,0,0-4.72-1.64,5.48,5.48,0,0,0-6.39,5.21l-4-.62a10.1,10.1,0,0,1,3.5-6.39q2.64-2,7.55-2a11.55,11.55,0,0,1,6,1.32,5.78,5.78,0,0,1,2.75,3.27,21.52,21.52,0,0,1,.57,5.7v6.16a72.2,72.2,0,0,0,.27,8.15,11.44,11.44,0,0,0,1,3.27h-4.3A10.67,10.67,0,0,1,584,509.32ZM583.62,499a27.83,27.83,0,0,1-6.72,1.74,13.55,13.55,0,0,0-3.63.94,3.86,3.86,0,0,0-1.6,1.49,4.27,4.27,0,0,0-.57,2.22,4,4,0,0,0,1.31,3.12,5.26,5.26,0,0,0,3.63,1.17,7.79,7.79,0,0,0,4-1,6.76,6.76,0,0,0,2.69-2.81,11.61,11.61,0,0,0,.89-5.12Z" transform="translate(0)"/><path class="cls-1" d="M610.1,502.7l4,.59a12,12,0,0,1-3.5,7.44,9.63,9.63,0,0,1-6.74,2.57,9.88,9.88,0,0,1-7.85-3.61q-3-3.61-3-10.69t3.11-10.66a10.14,10.14,0,0,1,8-3.55,9.57,9.57,0,0,1,6.35,2.16,10.29,10.29,0,0,1,3.31,6.47l-4,.67a7.71,7.71,0,0,0-2-4.12,4.91,4.91,0,0,0-3.49-1.37,6.2,6.2,0,0,0-5,2.48q-2,2.48-2,7.86,0,5.57,1.91,8.06a5.91,5.91,0,0,0,4.9,2.49,5.46,5.46,0,0,0,4-1.66A8.63,8.63,0,0,0,610.1,502.7Z" transform="translate(0)"/><path class="cls-1" d="M617.63,480.37v-5.31h4.1v5.31Zm0,32.3V485.43h4.1v27.25Z" transform="translate(0)"/><path class="cls-1" d="M643.86,509.32a15.31,15.31,0,0,1-4.3,3,11.21,11.21,0,0,1-4.63,1,8.53,8.53,0,0,1-6-2.1,7.37,7.37,0,0,1-2.26-5.67,8.16,8.16,0,0,1,1.06-4.18,7.55,7.55,0,0,1,2.9-2.85,16.23,16.23,0,0,1,5.58-1.51,33.42,33.42,0,0,0,7.37-1.62v-1.18q0-2.8-1.09-3.93a6.16,6.16,0,0,0-4.72-1.64,5.48,5.48,0,0,0-6.39,5.21l-4-.62a10.1,10.1,0,0,1,3.5-6.39q2.64-2,7.55-2a11.55,11.55,0,0,1,6,1.32,5.78,5.78,0,0,1,2.75,3.27,21.52,21.52,0,0,1,.57,5.7v6.16a72.2,72.2,0,0,0,.27,8.15,11.44,11.44,0,0,0,1,3.27h-4.3A10.67,10.67,0,0,1,643.86,509.32ZM643.52,499a27.83,27.83,0,0,1-6.72,1.74,13.55,13.55,0,0,0-3.63.94,3.86,3.86,0,0,0-1.6,1.49,4.27,4.27,0,0,0-.57,2.22,4,4,0,0,0,1.31,3.12,5.26,5.26,0,0,0,3.63,1.17,7.79,7.79,0,0,0,4-1,6.76,6.76,0,0,0,2.69-2.81,11.61,11.61,0,0,0,.89-5.12Z" transform="translate(0)"/><path class="cls-1" d="M654,512.68V475.06h4.1v37.62Z" transform="translate(0)"/></g><g id="Camada_2" data-name="Camada 2"><path class="cls-1" d="M449.06,118.46l-7,7,12.21,12.21,34.21,34.21,8.58,8.58-4.17,4.17h0l-1.63,1.63-.15.15L489.44,188l-.2.2L410.7,266.79h59.1V270h-72l3.17-3.17,83.42-83.43.19-.19,1.65-1.65-3.69-3.69L419.9,240.52l-.51.5a82.55,82.55,0,0,1-25,16.92A81.64,81.64,0,0,1,378.11,263l-.87.18a82.81,82.81,0,0,1-74.75-22.74L296,234a88.42,88.42,0,0,1,0-125l48.28-48.28L404.93,0h68.41L423.51,49.83l-34.1,34.1-4.91,4.91-1.06,1.06-55.56,55.56a40.63,40.63,0,0,0-11.23,21.12l1.91-1.91,69.83-69.82,6-6L478,5.25l4.89,4.89L399.25,93.77l-6,6L324,169a18.42,18.42,0,0,0,3,22l5.63,5.63a18.37,18.37,0,0,0,15.66,5.17,27.22,27.22,0,0,1-2.61,1,32.81,32.81,0,0,1-15.66.42c.34.33.69.66,1,1-.91-.11-1.79-.27-2.66-.46a42.8,42.8,0,0,0,30.73,12.09l.49-.49h1.13l68.06-68.07,4.33,4.33L370.71,214c.56-.17,1.11-.35,1.66-.54a42.81,42.81,0,0,0,16.25-10.2l54.12-54.11,5.57-5.58-12.21-12.2L430.53,137l-60.35,60.34a16.49,16.49,0,0,1-18.09,3.53h0c-.35-.15-.69-.31-1-.48a16.43,16.43,0,0,1-4.21-3.05l-8.53-8.54a19.77,19.77,0,0,1,0-28l0,0,2.2-2.2,55.81-55.82,6-6,34.1-34.1L499.1,0l34.2,34.21-50,50,46.42,46.41,3.69,3.69,37.39-37.4,4.88,4.89-37.39,37.39,3.06,3.06L591.6,92l34.2,34.21L487,265H418.56l88.54-88.5-45.84-45.84Z" transform="translate(0)"/><path class="cls-1" d="M345.66,202.87A32.52,32.52,0,0,1,331,204.25a7.87,7.87,0,0,1-1-1,32.81,32.81,0,0,0,15.66-.42Z" transform="translate(0)"/><path class="cls-1" d="M428.79,147.31l-68.06,68.07H359.6l68.63-68.64Z" transform="translate(0)"/><path class="cls-1" d="M362.33,268c-28,6-59-1.07-80.62-22.65l-8.93-8.93c-24.57-24.57-29.92-61.54-18.3-91.61a80.48,80.48,0,0,1,15.58-25.35l50.29-50.3h0L383.24,6.29H393L338.71,60.6l-6.25,6.26a.38.38,0,0,0-.09.09h0L282,117.33a83,83,0,0,0,0,117l8.93,8.93A86.89,86.89,0,0,0,362.33,268Z" transform="translate(0)"/><path class="cls-1" d="M332.32,67,282,117.33,332.27,67Z" transform="translate(0)"/><path class="cls-1" d="M332.32,67,282,117.33,332.27,67Z" transform="translate(0)"/><path class="cls-1" d="M345.66,202.87A32.52,32.52,0,0,1,331,204.25a7.87,7.87,0,0,1-1-1,32.81,32.81,0,0,0,15.66-.42Z" transform="translate(0)"/><path class="cls-1" d="M428.79,147.31l-68.06,68.07H359.6l68.63-68.64Z" transform="translate(0)"/><path class="cls-1" d="M332.32,67,282,117.33,332.27,67Z" transform="translate(0)"/></g></svg>