<svg id="Camada_2" data-name="Camada 2" xmlns="http://www.w3.org/2000/svg" viewBox="0 0 813.2 195.9"><defs><style>.cls-1{fill:#fff;}</style></defs><title>20-VILLAGE</title><polygon class="cls-1" points="0 0 62.7 195.9 0 195.9 0 0"/><polygon class="cls-1" points="134.4 0 98.3 138.2 60.1 0 134.4 0"/><polygon class="cls-1" points="133.1 195.9 152.4 132.6 152.4 195.9 133.1 195.9"/><polygon class="cls-1" points="152.4 0 192.9 0 152.4 132.6 152.4 0"/><rect class="cls-1" x="192.9" width="18.3" height="195.9"/><polygon class="cls-1" points="287 143 330.8 143 330.8 195.9 286.9 195.9 286.9 143 251.7 143 251.7 0 287 0 287 143"/><polygon class="cls-1" points="389.2 143 424.8 143 424.8 195.9 372 195.9 389.2 143"/><polygon class="cls-1" points="435.6 0 389.2 143 345.7 143 345.7 0 435.6 0"/><polygon class="cls-1" points="490.6 124.7 452.6 124.7 470.9 50.6 490.6 124.7"/><polygon class="cls-1" points="503.3 170.7 511.5 195.9 430.8 195.9 438 170.7 503.3 170.7"/><path class="cls-1" d="M517.8,37.8l53.6,157c-45.1-6.6-66.7-43.8-66.7-97.7,0-24.8,4.6-44.5,13-59.4L504.9,0h88.9C559,0,532.5,11.7,517.8,37.8Z" transform="translate(0 0)"/><path class="cls-1" d="M662.1,0V26.3C647.6,9.6,625.4,0,593.8,0Z" transform="translate(0 0)"/><path class="cls-1" d="M681.4,69.1H662.1V26.3c1.22,1.41,2.4,2.88,3.51,4.39.35.47.69,1,1,1.43.47.68.93,1.36,1.39,2s1,1.59,1.51,2.41c0,0,0,0,0,0,.32.54.64,1.08,1,1.62.88,1.53,1.71,3.09,2.49,4.7a0,0,0,0,1,0,0c.26.54.52,1.08.77,1.63.35.73.68,1.47,1,2.21q.57,1.34,1.11,2.7c.37.91.71,1.83,1,2.77s.66,1.87,1,2.83a.63.63,0,0,1,.06.18c.13.39.26.77.37,1.16l0,.1c.15.48.29,1,.43,1.45.39,1.29.75,2.61,1.07,3.94.14.56.28,1.12.41,1.69a1.32,1.32,0,0,1,.08.33c.17.66.32,1.34.46,2C681,67,681.2,68,681.4,69.1Z" transform="translate(0 0)"/><path class="cls-1" d="M681.9,195.8H813.1v.1H571.9l-.5-1.1a105.56,105.56,0,0,0,14.9,1c27.4,0,45.3-9.6,56.5-26.7l-.1,26.7H662V83.9H598.1v39.9H628c-2.82,9.59-8.32,16.69-18.24,20-.66.22-1.34.43-2,.62-.46.14-.94.26-1.42.36q-1.44.35-3,.57c-.52.09-1,.16-1.59.22-1.07.13-2.18.23-3.34.29-.23,0-.47,0-.7,0-.84,0-1.69.07-2.57.07h-.2c-.68,0-1.36,0-2-.06l-1-.07c-20-1.66-30.22-21-30.22-48.17,0-26.8,14.6-45.4,31.6-46.7,13.6-1,23.7,3.7,29.2,18.1h39.6V83.8h19.8Z" transform="translate(0 0)"/><polygon class="cls-1" points="813.1 50.9 813.1 72.6 720.9 72.5 720.9 50.9 813.1 50.9"/><polygon class="cls-1" points="720.9 123.1 813.1 123.2 813.1 144.9 720.9 144.9 720.9 123.1"/><rect class="cls-1" x="286.9" y="143" width="0.1" height="52.9"/><rect class="cls-1" x="286.9" y="143" width="0.1" height="52.9"/><rect class="cls-1" x="286.9" y="143" width="43.9" height="52.9"/><rect class="cls-1" x="192.9" width="18.3" height="195.9"/><polygon class="cls-1" points="192.9 0 152.4 132.6 152.4 0 192.9 0"/><polygon class="cls-1" points="424.8 143 424.8 195.9 372 195.9 389.2 143 424.8 143"/><path class="cls-1" d="M680.76,65.94c-.14-.67-.29-1.35-.46-2a1.32,1.32,0,0,0-.08-.33c-.13-.57-.27-1.13-.41-1.69-.34-1.33-.69-2.65-1.07-3.94-.14-.49-.28-1-.43-1.45l0-.1c-.11-.39-.24-.77-.37-1.16a.63.63,0,0,0-.06-.18c-.31-1-.63-1.9-1-2.83s-.68-1.85-1-2.77-.73-1.81-1.11-2.7c-.32-.74-.65-1.48-1-2.21-.25-.55-.51-1.09-.77-1.63a0,0,0,0,0,0,0q-1.18-2.4-2.49-4.7c-.31-.54-.63-1.08-1-1.62,0,0,0,0,0,0-.49-.82-1-1.62-1.51-2.41s-.92-1.37-1.39-2c-.34-.48-.68-1-1-1.43-1.11-1.51-2.29-3-3.51-4.39V69.1h19.3C681.2,68,681,67,680.76,65.94ZM662.1,83.8V195.9h19.8V83.8Z" transform="translate(0 0)"/><path class="cls-1" d="M598.37,145.9c1.15-.06,2.26-.16,3.34-.29C600.64,145.74,599.53,145.84,598.37,145.9Z" transform="translate(0 0)"/><path class="cls-1" d="M603.3,145.39q1.56-.24,3-.57Q604.86,145.17,603.3,145.39Z" transform="translate(0 0)"/><path class="cls-1" d="M627.9,123.8h.1c-3,10.23-9.07,17.63-20.28,20.66C618.86,141.42,624.9,134.08,627.9,123.8Z" transform="translate(0 0)"/><polygon class="cls-1" points="662 83.8 662 83.9 598.1 83.9 598.1 123.8 598 123.8 598 83.8 662 83.8"/><path class="cls-1" d="M571.4,194.8c-45.1-6.6-66.7-43.8-66.7-97.7,0-24.8,4.6-44.5,13-59.4Z" transform="translate(0 0)"/><path class="cls-1" d="M662.1,83.8V195.9h19.8V83.8Zm18.66-17.86c-.14-.67-.29-1.35-.46-2a1.32,1.32,0,0,0-.08-.33c-.13-.57-.27-1.13-.41-1.69-.34-1.33-.69-2.65-1.07-3.94-.14-.49-.28-1-.43-1.45l0-.1c-.11-.39-.24-.77-.37-1.16a.63.63,0,0,0-.06-.18c-.31-1-.63-1.9-1-2.83s-.68-1.85-1-2.77-.73-1.81-1.11-2.7c-.32-.74-.65-1.48-1-2.21-.25-.55-.51-1.09-.77-1.63a0,0,0,0,0,0,0q-1.18-2.4-2.49-4.7c-.31-.54-.63-1.08-1-1.62,0,0,0,0,0,0-.49-.82-1-1.62-1.51-2.41s-.92-1.37-1.39-2c-.34-.48-.68-1-1-1.43-1.11-1.51-2.29-3-3.51-4.39V69.1h19.3C681.2,68,681,67,680.76,65.94Z" transform="translate(0 0)"/><path class="cls-1" d="M662.1,69.2V83.9h-64v39.9H628c-2.82,9.59-8.32,16.69-18.24,20-.66.22-1.34.43-2,.62-.46.14-.94.26-1.42.36q-1.44.35-3,.57c-.52.09-1,.16-1.59.22-1.07.13-2.18.23-3.34.29-.23,0-.47,0-.7,0-.84,0-1.69.07-2.57.07h-.2c-.68,0-1.36,0-2-.06l-1-.07c-19.92-1.73-30-21-30.12-48.17-.1-26.8,14.6-45.3,31.6-46.6,13.6-1,23.6,3.7,29.1,18.1Z" transform="translate(0 0)"/><rect class="cls-1" x="813.1" y="72.6" width="0.1" height="50.6"/><rect class="cls-1" x="813.1" y="144.9" width="0.1" height="50.9"/></svg>