<svg id="logo_psd_Imagem" data-name="logo psd Imagem" xmlns="http://www.w3.org/2000/svg" viewBox="0 0 1642.91 1542.35"><defs><style>.cls-1{fill:#fff;}</style></defs><title>3-COSTA DO SOL</title><path class="cls-1" d="M675.18,1378.43C635,1443.07,576.73,1483.86,504.9,1506.6a275.71,275.71,0,0,1-65.59,12.28c-13.28.87-26.49,2.67-39.73,4.13a288.62,288.62,0,0,1-77.66-2.42c-43.78-7-87-16.54-128.64-32.11-70.07-26.19-123.1-71.54-157.72-138.33a188,188,0,0,1-21-76.41c-1.92-32.22.65-63.94,12-94.46,10.27-27.47,26.4-50.74,50.3-68.17,12.27-9,25.67-15.69,40.94-17.33a55.69,55.69,0,0,1,18.69,1.22c10.82,2.63,17.27,11.29,18.21,22.46.86,10.23-1.65,19.82-5.52,29.16-6.68,16.16-16.25,30.59-27.19,44.09-22.48,27.74-25.62,59.22-14.57,91.43,12.3,35.8,32.16,68,55.94,97.5a71.12,71.12,0,0,0,11.46,11.08c40.75,32,86.92,51.58,138.28,58.12,95.67,12.19,181.15-14.69,259.15-69.08,11.07-7.72,19.6-18.07,27-29.2,9.62-14.39,18.84-29,28.09-43.67a45.73,45.73,0,0,0,3.63-8.21c6.34-16.82,13-33.55,18.84-50.53,5.94-17.13,5.06-34.81,2.23-52.38a219.54,219.54,0,0,0-17.47-58.17c-12.43-26.66-33.48-41.32-62.54-45.27-21.49-2.92-42.5.52-63.61,3.39-20.45,2.77-40.84,6-61.35,8.28-22.5,2.46-44.4-2.3-66.23-7.17-32.88-7.34-65.3-16.06-96.13-30-28.56-12.86-54.21-29.95-76-52.52-50.47-52.31-63-113.21-39.34-181.53,15.51-44.8,44.25-78.45,87.37-99.35,33.58-16.28,68.61-27.21,105.89-30.58,20.2-1.82,40.37-3.91,60.55-5.88,42.28,2.34,83.88,6.69,123.75,21.54,27.23,10.13,51.58,24.82,71.89,45.78,9.6,9.91,17.2,21.1,22,34.19,14,38.22-15,76.36-51.88,80.4-23.89,2.62-31.6-2.41-40-25-3.61-9.67-6.58-19.57-10.18-29.24a142.9,142.9,0,0,0-7.32-16.39c-5.14-9.83-13-16.45-23.53-20.46-22.1-8.4-45.08-12-68.46-12.54-40.07-.82-78.93,5.91-116.06,21.42-20.78,8.67-39.92,20-55.67,36.36-30.74,32-32.06,73.53-3.31,107.22a132.52,132.52,0,0,0,13.4,13.41c14.64,12.84,31.28,22.64,48.79,31,38.76,18.46,79.65,30.11,121.82,37.38,14.38,2.48,28.6-.24,42.42-4.33,12.13-3.59,24-8.09,36.1-11.71,10.5-3.14,21.08-6.43,31.87-8.09a73.76,73.76,0,0,1,24.67.39A346.73,346.73,0,0,1,623,1008.58,76.1,76.1,0,0,1,656.3,1030c32.6,35.59,56.43,75.8,63.93,124.3C732.63,1234.47,718.1,1309.38,675.18,1378.43Z" transform="translate(0.03 0)"/><path class="cls-1" d="M1642.59,1446.29a83.5,83.5,0,0,0-8.69-30.54c-8.71-17-16.38-19.33-32.74-9.89-8.65,5-16.92,10.64-25.5,15.75-13.2,7.84-27.37,12.15-42.9,10.6-18.54-1.85-37.18-3.12-55.58-5.93-13.07-2-26.44-4.6-38.54-9.67-16.21-6.79-31.49-15.9-46.82-24.63a277.61,277.61,0,0,1-26.62-17.65c-8.88-6.51-14.28-15.48-17-26.31-1.12-4.49-.38-7.55,2.69-10.74,9-9.37,17.36-19.42,26.84-28.27,28.88-27,50.57-59.09,69.05-93.65,3.46-6.46,7.06-12.84,10.51-19.3,36.33-68,53.91-140.88,54.8-217.75.75-64.52-10.53-127.23-30.7-188.42-5.62-17.06-10.56-34.41-17.3-51-8.53-21-23.61-31.07-50.26-29.57-18.7,1.06-36.87,6-54.3,12.63a225.52,225.52,0,0,0-88.34,60.27c-30,33.06-48.84,72.06-60.48,114.71-14.15,51.89-17.7,104.82-15,158.42,2.88,57.44,12.39,113.76,26.85,169.32a882.86,882.86,0,0,0,31.64,97.82c1.53,3.94,3.44,7.45,0,12-14.72,19.78-28.52,40.23-43.48,59.82-28.6,37.43-65.4,63.32-111.11,75.69-43.59,11.8-88,14.45-132.72,9a543.08,543.08,0,0,1-102.27-22.4,141.43,141.43,0,0,1-57.23-35.48c-12.29-12.43-17.59-27.22-13.12-44.74.66-2.58,1.58-5.2,1.58-7.8,0-2.86,0-6.43-1.57-8.46-7.81-10.08-16.7-19.08-29.07-23.62-10.16-3.74-19.21-1.67-26.34,6.33a53.66,53.66,0,0,0-8.48,13.39c-5.06,11.11-6.45,23-6.11,35.13.61,21.14,8.2,40.32,16.91,59.1,7.81,16.82,19.89,30.09,36.31,38.69,12.35,6.48,25,12.89,38.14,17.25,22.4,7.43,45.25,13.57,68.08,19.62,35.18,9.32,70.92,15.64,107.39,16.27,49.63.87,98.2-6.17,145.87-20.13,54-15.8,100-43.1,133.47-89.51,7-9.7,15.56-18.25,23.25-27.45,2.34-2.79,4.21-6,6.54-9.34,5.44,4.38,8.81,7,12.11,9.75,35.51,29.27,74.06,53.62,117.92,68,34.75,11.42,70.14,21,105.42,30.68a147.71,147.71,0,0,0,53.51,4.56C1622.41,1505.62,1645.79,1479.9,1642.59,1446.29ZM1309.17,1269c-15.57-25.79-28.33-51.34-38-78.33A372.47,372.47,0,0,1,1250,1035.51c4.13-55.92,16.5-109.82,38.78-161.32,9.16-21.19,20.65-41.06,36.73-57.91,12.19-12.77,26.17-22.9,43.86-26.21a127.7,127.7,0,0,1,24.79-1.83c10.18.12,18.35,5.43,25.52,12.25,10.61,10.08,17.47,22.6,22.82,36a211.25,211.25,0,0,1,14.84,87c-1.56,41.58-4.13,83.12-6.56,124.66a145.54,145.54,0,0,1-12.47,51.12c-5,11.24-8.55,23.12-13.57,34.34-6.24,14-12.8,27.82-20.18,41.2-9.88,17.89-22.5,33.52-38.8,46.39C1346.63,1236.29,1328.55,1252.57,1309.17,1269Z" transform="translate(0.03 0)"/><path class="cls-1" d="M1602,76.08c-9.07,10.71-20.75,17.63-33.74,22.46-7.94,3-15.88,1.53-23.46-1.24-7.8-2.84-15.39-6.31-22.94-9.79-9.67-4.46-19.12-9.43-28.85-13.77a80.85,80.85,0,0,0-33-6.87c-54.31-.34-108.64-2.68-162.94.23-31.28,1.67-62.47,4.47-92.69,13.59-12.17,3.67-23.91,8.37-33.91,16.53-10.9,8.88-16,19.95-13.7,34.32,5.74,36.32,7.41,73,6.23,109.62-1.47,45.6-4.32,91.16-6.4,136.75-1.9,41.93-4.49,83.86-5,125.81-.3,25.23,3.51,50.49,4.13,75.77s5.84,49.54,10.19,74.11c.06.33.12.66.17,1,3,22.66-5,33.14-27.78,36-12.59,1.61-25.14,2.49-37.83.39-16.62-2.74-22.56-9.69-20.45-26.72,1.83-14.85,5.28-29.51,7.06-44.36,6.25-52.24,12.28-104.41,10.17-157.31-2.3-58-7.8-115.63-12.18-173.41-4.07-53.82-7.89-107.71-4.78-161.75,1.15-20-8.19-32.86-25.34-41.29A110.56,110.56,0,0,0,1014.7,75.1c-24.55-1.9-49.27-4.29-73.78-3.27C888,74,835.2,78.24,782.35,81.63c-1.33.09-2.74.62-4,.35C762,78.32,748.26,85.11,734.94,92.9c-12.07,7.06-23.53,15.17-35.62,22.2-6.85,4-14.33,6.91-21.7,9.88-5.69,2.29-11.12.61-16.14-2.56-16.67-10.53-24.42-26-24.34-45.37.08-21.4,10-36.61,29.42-46,19.72-9.49,40.65-14.66,62-18.4C773,4.92,818,3.64,863.46,2.8c45.49,1.37,91.39,2.84,137,9.17,20.41,2.83,41.15,3.79,61.78,4.41,37.63,1.12,75.3,2.36,112.92,1.65,31.6-.6,63.15-3.9,94.72-6,35.88-2.41,71.73-5.4,107.65-7.11q63.88-3,127.85-4.18a550.66,550.66,0,0,1,55.82,2.19c16.6,1.37,30.44,9,41.05,22.21C1615.62,41.66,1615.63,59.91,1602,76.08Z" transform="translate(0.03 0)"/><path class="cls-1" d="M599,178c-14.9,21.83-45,33.26-69.4,26.54-10.91-3-18.8-9.28-20.75-20.58-4.18-24.19-18-43.17-31.28-62.87-20.71-30.67-49.34-48.32-84.4-58C297.51,36.5,189.33,78.91,138.32,164.21c-25.83,43.19-46.13,89.14-53.59,139C73,382,91.52,453.42,143.59,514.93c26.77,31.62,59.57,56,93.81,78.84,38.29,25.55,80.38,36.07,125.91,35,28.9-.69,56.07-7.69,80.82-22.73,12.23-7.43,24.11-15.5,35.62-24,4.38-3.24,7.88-8.13,10.67-12.92,3.33-5.71,5.46-12.12,8.13-18.21,2.28-5.18,4.24-10.54,7-15.48,7.13-13,16.1-15.43,29.05-8.06a51.38,51.38,0,0,1,22,23.87,88.37,88.37,0,0,1,7.06,46.87c-1.38,12.06-7.21,22-15.48,30.67-12,12.52-26.53,21.12-42.15,28.1-26.9,12-55.24,19.38-83.9,25.66-26.45,5.8-53.18,9.11-81.53,8.63-51.85,1.64-101-13.2-147.21-37.73-71.72-38-125.71-94-160.71-167.22-44.12-92.28-42.53-185.53-1.3-278.34,38.45-86.53,102-147.79,189.45-184,11-4.55,23-6.66,34.37-10.38,93.55-30.58,212.72-7,289.71,48.56,13.48,9.73,26.89,19.75,39,31,7.64,7.11,13.9,16.25,18.94,25.49C613.9,138.85,612,158.93,599,178Z" transform="translate(0.03 0)"/><path class="cls-1" d="M1003.68,528.69c-3.74,17.55-7.39,35.21-12.7,52.32-11.46,37-36.45,61.1-73,73.61-26.27,9-53.49,13.58-80.69,18.42s-54.41,6.2-81.52,1.65c-44.39-7.47-86.41-22-124.57-46.39A124.62,124.62,0,0,1,611,612.11c-33.15-32.71-19.86-83.37,15.78-102.79,15.87-8.63,32.66-7.71,49.53-2.89,5.27,1.5,7.35,5.43,8.2,10.26,1.34,7.53,2.61,15.08,3.66,22.66,1.6,11.47,6.62,21.09,16.07,27.74q19.16,13.46,39.06,25.85c9.21,5.72,19.89,7.39,30.52,8.63,28.18,3.29,55.9,2.21,82.42-9.17C902.13,572.69,926.16,529.53,918,478c-2.19-13.87-9.83-23.77-21.61-30.77-13.68-8.14-28.83-11.91-44.32-14.61-30.73-5.36-61.72-4.57-92.7-3.86-10.31.24-20.64.81-30.9,1.86-38.75,4-69.6-11.48-95.13-39.06-26.57-28.7-41.45-63-42.23-102.09-1.37-70,42.76-127.2,102.68-144.92,5.35-1.58,11.11-1.78,16.66-2.69,18.06-2.93,36.19-5.42,54.13-8.95,29.15-5.73,58.28-5,87.5-1.27,11.55,1.46,23.06,3.2,34.61,4.72,8.21,1.08,15.16,4.84,21.49,9.9,24,19.16,31.35,57.78,16.09,84.39a59.52,59.52,0,0,1-6.3,9c-12.52,14.71-23.94,16.78-40.34,6.63-7.91-4.89-15.07-11-22.68-16.34-8.16-5.76-16.14-11.84-24.76-16.83-10.23-5.93-21.26-8.18-33.52-7.2-10.81.87-21.86-1.37-32.82-1.93-12.71-.65-25.28.3-37.45,4.5-13,4.5-23.75,12.2-31,24-15.36,25-19.7,52.14-12.78,80.63,4.39,18,15,29.87,34.08,35.17,41.23,11.43,83,15.51,125.54,13.34,22.65-1,45.28-1.52,67.68,3,23,4.69,42.73,16.61,62.27,28.64,4.78,2.94,8.56,8.58,11.16,13.79C1002.51,445.46,1012.86,485.54,1003.68,528.69Z" transform="translate(0.03 0)"/><path class="cls-1" d="M1616.33,601c-4.61-1.88-9.47-3.14-14.17-4.81-6.9-2.44-14-4.57-20.59-7.59-13.39-6.11-20-17-20.8-31.59-.65-12.5,1.83-24.46,6.19-36.16,5.68-15.28,11.49-30.53,16.46-46a170.2,170.2,0,0,0,6.45-75.06c-1.92-14.54-4.17-29-1.61-43.73a23.27,23.27,0,0,0-.08-7.94c-5.09-29-12.22-57.3-25.65-83.71-19.08-37.52-48.47-63.17-88.65-75.81a255.66,255.66,0,0,0-107.52-10.38c-26.22,3.07-52,7.64-77,16.42-15.81,5.57-31,12.38-43,24.51-12.59,12.68-18.06,27.86-14.28,45.58a128.05,128.05,0,0,0,7.24,23.78c10,23.18,30,33.27,54.5,26.52,11.75-3.24,23.18-8.35,34-14.07,14.7-7.79,28.39-17.46,43-25.4,14.29-7.77,28.95-15,43.94-21.31a66,66,0,0,1,34.29-4.72c20.78,2.7,37,13.24,48.72,30.06,22.22,31.79,29.19,67.38,24,105.49-.77,5.7-3.33,11.16-5.22,17.22-7.46-3.32-13.47-6.15-19.6-8.72-41.68-17.46-84.55-28.42-130.27-23.17-43.69,5-80.09,23.7-107.93,58.09-16.62,20.53-27.54,44-34.12,69.42-5.19,20-9.68,40.54-7.37,61.21,5.58,50,30.37,88.93,72.06,116.73,24,16,51,23,79.86,20,39.7-4.17,73.35-20.77,99.53-51.48,7.11-8.34,14.39-16.53,23-26.38,3.12,18.16,14.25,27.94,28.91,33.24a167.58,167.58,0,0,0,35.74,8.56A99.64,99.64,0,0,0,1607.3,653c7.51-3.09,14.29-7.34,19-14.08C1634.91,626.64,1635.51,608.82,1616.33,601Zm-140.8-63.64c-6.18,15.78-12.48,31.69-20.72,46.43a121.69,121.69,0,0,1-64.52,55.57c-23.71,9-46.13,5.5-65.62-10.78-21.22-17.72-37.12-40-42.49-67.11a146.15,146.15,0,0,1,9.09-86.22c13.36-31.62,37.61-47.15,72-46.87h19c17.68-.26,35.32,0,52.62,4.24a107.3,107.3,0,0,1,14.27,4.47c23.47,9.47,35.32,27.17,35.71,52.51.21,16.61-3.38,32.53-9.34,47.76Z" transform="translate(0.03 0)"/><path class="cls-1" d="M1180.56,1115c-6.62-42.46-21.19-81.81-46.69-116.64-25.74-35.14-58.53-60.81-101.07-72.7-19.36-5.42-39.2-7.5-59.24-8.63-7.32,0-14.69-.47-22,.16-4.88.43-9.6,2.53-14.44,3.66-6.15,1.43-12.3,3.13-18.55,3.86-26.44,3.11-49.94,13.52-71.92,28-34.16,22.53-61,51.78-78.42,88.8-28.09,59.59-39.25,121.75-21.42,186.43,17.3,62.75,56.11,106.68,119.32,126.35,26.34,8.19,53.16,15,80,21.19,17.8,4.09,36.07,6.59,54.5,3.08,7.52-1.44,15.08-2.63,22.59-4.09,24.85-4.84,49.58-10,73.18-19.62,35.31-14.39,58.41-39.75,69.57-76.15C1182.48,1225.15,1189.24,1170.76,1180.56,1115Zm-68,116.73c-.8,2.19-1.69,4.34-2.56,6.5-15.27,37.94-42.72,61.2-83.2,68.22-14.71,2.55-29.62,3.92-44.44,5.83-38.57-1.25-74.75-9.92-108-29.48-22.81-13.43-41.25-31.3-54.61-54.36-11.15-19.25-16.35-40.1-16.48-62.05C803,1118.83,815,1074.72,843,1035.81c21.09-29.33,49-49.75,85.4-53.84,56.55-6.35,109.12,3.39,150.87,46.22,22.49,23.07,35.33,51.35,41.87,82.63a217.92,217.92,0,0,1-8.58,120.9Z" transform="translate(0.03 0)"/><path class="cls-1" d="M532,361.69c-1.86-56.21-26.29-100.91-71.46-134.18-13.56-10-29-16.3-45.37-20.13-6.79-1.59-13.69-2.78-20.59-3.88-23.78-3.79-47.67-5.05-71.67-2.57-18.14,1.88-34.59,8.5-50.8,16.78-16.88,8.63-32.12,19-44.43,33.32-28.62,33.37-42.58,72.54-44.8,116.1a119,119,0,0,0,5.92,42.3c8.37,26.4,17.73,52.37,33.87,75.28,15,21.3,34.92,35.75,60.52,41,13.94,2.88,28.3,3.72,42.47,5.47a8.72,8.72,0,0,1,.14-1.13c9.31-.58,18.67-.7,27.91-1.86,12.84-1.61,26-2.55,38.29-6.36,24.44-7.61,48.31-17,72.47-25.57,6.84-2.41,12.12-6.56,16.78-12,18-21.07,30.57-45.11,39.63-71.12C526.73,396.45,532.62,379.47,532,361.69Zm-71.26,20.12c-5.37,22.59-17.25,41-35.7,55a123.55,123.55,0,0,1-66.45,24.9c-10,.75-20.78-1.21-30.35-4.46-44-15-68-47-75.64-92-1.11-6.55-1.42-13.23-1.8-16.85.12-35.5,13.91-60,42.48-75.87,13.21-7.35,27.36-12.11,42-15.61,9-2.17,18.17-4.09,27.26-6.14,22.41-5.05,42.38.55,59.88,14.72,23.42,19,35.46,44.42,40.06,73.72a109.46,109.46,0,0,1-1.7,42.59Z" transform="translate(0.03 0)"/><path class="cls-1" d="M929.3,784.31c-5.51-38.63-44.09-63.41-71.49-65.43-9.94-.74-19.83-2.19-29.73-3.37-21.79-2.6-43.56-5.44-65.38-7.76-8.62-.92-17.83-1.21-25.28,3.63-10.28,6.69-19.8,14.58-29.35,22.33-3.24,2.62-7.28,6.1-5.57,10.86,2,5.49,7.74,4.75,12.14,4.43,12.24-.91,24.53-1.89,36.63-3.89,25.78-4.25,39,3.22,44.9,28.5,3.34,14.45,3.94,29.54,5.77,44.34l-1.41.17v25C799.93,856.66,794,861,781,857.25c-3.51-1-6.9-2.42-10.39-3.51-7-2.18-13.88-4.77-21-6.25a52,52,0,0,0-15.84-.67c-6,.65-8.75,4.91-7.19,10.75a35.72,35.72,0,0,0,5.16,10.67c6.35,9.22,15,15.9,24.6,21.52,5.5,3.21,10.59,4,17,1.72a154.63,154.63,0,0,1,67.8-8.48c6,.6,11.91,1.22,17.85,2,15.35,1.94,27.25-4.06,36.73-15.74a192.87,192.87,0,0,0,27.55-45C928.71,811.57,931.29,798.26,929.3,784.31ZM894.18,809.4c-2.71,14.19-9.52,26.23-20.87,35.42-13.4,10.86-30.82,13.43-46.47,6.6,4.36-19.4,2-38.33.8-57.25-.64-10.3-1.18-20.61-1.39-30.93-.08-3.84.91-7.71,1.47-11.92,16.52-1.42,31.51.46,45.28,8.23C890.27,769.3,898.24,788.08,894.18,809.4Z" transform="translate(0.03 0)"/><path class="cls-1" d="M1025.19,715.14a16.86,16.86,0,0,0-7.67,1.52c-13.82,7.26-27.78,14.31-41.1,22.4A60.73,60.73,0,0,0,954,762.79c-23.18,44.2-12.8,93.36,36.83,116.61a147,147,0,0,0,13.92,5.44,135.93,135.93,0,0,0,45.13,7.28c34.42-.09,57.67-17.61,67.81-48.51,3.07-9.35,4-19.42,5.86-29.16C1122.41,758.32,1080.44,715.49,1025.19,715.14Zm67.31,100.92c-5.34,17.37-16.23,30.42-32.46,38.7-16,8.17-32.33,7.86-47.85-.88-18.73-10.55-29.17-27-30.32-48.61-1-18.81,7.4-32.71,24.1-41.41a57.9,57.9,0,0,1,25.39-6.89c13.06,1,25.63,2.18,37.42,7.45C1090.49,774.12,1099.48,793.29,1092.5,816.06Z" transform="translate(0.03 0)"/></svg>