<svg id="Camada_1" data-name="Camada 1" xmlns="http://www.w3.org/2000/svg" viewBox="0 0 1287.23 238.04"><defs><style>.cls-1{fill:#fff;}</style></defs><title>4-ELI DANTTAS</title><path class="cls-1" d="M1.49,0H119.08q1.37.25,1.37,1.37v77.1a1.21,1.21,0,0,1-1.37,1.37H96.66Q78.47,76.48,78.47,57.42V42H42.1V98H93.92q1.37.25,1.37,1.37v19.68q0,17.19-18.19,20.93h-35v56.05H78.47v-14.7q0-23.17,27.28-23.17h13.33a1.43,1.43,0,0,1,1.37,1.49v77a1.21,1.21,0,0,1-1.37,1.37H18.31Q2,238,0,213.5V1.37A1.43,1.43,0,0,1,1.49,0Z"/><path class="cls-1" d="M134.28,0h39.24q1.37.25,1.37,1.37V196.06h36.5V134.4q0-14.7,20.3-18.19H252q1.37.25,1.37,1.37v73.49q0,35.87-28,45.59a49.58,49.58,0,0,1-9.09,1.37h-82a1.21,1.21,0,0,1-1.37-1.37V1.37Q133.16,0,134.28,0Z"/><path class="cls-1" d="M267.19,0h40q1.37.25,1.37,1.37v210q0,21.93-15.45,26.66H267.19a1.21,1.21,0,0,1-1.37-1.37V1.37Q266.07,0,267.19,0Z"/><path class="cls-1" d="M372.94,0h95.91Q486,0,491.28,14.7l.75,4.24V199.55q0,26.91-30.89,37.74a34.42,34.42,0,0,1-7,.75H372.94a1.21,1.21,0,0,1-1.37-1.37V1.37Q371.82,0,372.94,0Zm40.61,42V196.06h44.84v-.75q-8.47-4.48-8.47-18.19V42Z"/><path class="cls-1" d="M505.85,0h93.8q25.91,0,25.91,25.91v187q0,19.31-14,24.41l-4.24.75H584.95a1.21,1.21,0,0,1-1.37-1.37V130.29q-1.12.25-37.12,37v69.38a1.21,1.21,0,0,1-1.37,1.37H521.92q-17.44-4.48-17.44-17.44V1.37Q504.6,0,505.85,0Zm43.6,42.1v65.77q1.12-.25,37.12-37V42.1Z"/><path class="cls-1" d="M639.38,0h37.87Q684,0,702.41,21.05l13.33,12.58V1.37Q716,0,717.11,0h39.24q1.37.25,1.37,1.37V219.85Q753.48,238,739.53,238H717.11a1.21,1.21,0,0,1-1.37-1.37V93.17q-1.12-2-35.75-35.75V236.67a1.21,1.21,0,0,1-1.37,1.37H656.2Q640,238,638,213.5V1.37Q638.26,0,639.38,0Z"/><path class="cls-1" d="M771.67,0H887.76q1.49.25,1.49,1.37V40.61q0,1.37-1.49,1.37h-37V236.67q0,1.37-1.49,1.37H827q-18.31-3.24-18.31-22.42V42h-20.3q-18.19-4.48-18.19-18.19V1.37A1.43,1.43,0,0,1,771.67,0Z"/><path class="cls-1" d="M903.21,0H1019.3q1.49.25,1.49,1.37V40.61q0,1.37-1.49,1.37h-37V236.67q0,1.37-1.49,1.37h-22.3q-18.31-3.24-18.31-22.42V42H919.9q-18.19-4.48-18.19-18.19V1.37A1.43,1.43,0,0,1,903.21,0Z"/><path class="cls-1" d="M1034.62,0h93.8q25.91,0,25.91,25.91v187q0,19.31-14,24.41l-4.24.75h-22.42a1.21,1.21,0,0,1-1.37-1.37V130.29q-1.12.25-37.12,37v69.38a1.21,1.21,0,0,1-1.37,1.37h-23.17q-17.44-4.48-17.44-17.44V1.37Q1033.37,0,1034.62,0Zm43.6,42.1v65.77q1.12-.25,37.12-37V42.1Z"/><path class="cls-1" d="M1168.15,0h117.71q1.37.25,1.37,1.37v77.1a1.21,1.21,0,0,1-1.37,1.37h-22.42q-14.7,0-18.19-20.3V42h-37.87v51.2q57.67,18.19,79.84,26.53V217q0,17.07-17.56,21.05H1168.15a1.21,1.21,0,0,1-1.37-1.37v-77q.25-1.49,1.37-1.49h14.08q20.05,0,24.54,12a14.45,14.45,0,0,1,2,7v18.93h36.5V147.73q-78.47-25-78.47-26.66V1.37Q1167,0,1168.15,0Z"/></svg>