<svg id="Camada_1" data-name="Camada 1" xmlns="http://www.w3.org/2000/svg" viewBox="0 0 1239.35 1341.28"><defs><style>.cls-1{fill:#fff;}</style></defs><title>5-ESTÚDIO DE ATORES</title><path class="cls-1" d="M922,318.13c-1.41-10.71-1-21.54-2.86-32.3-1.2-7-2.81-14-3.57-21.09a71.39,71.39,0,0,0-2.86-13.55c-3.06-9.87-6-19.79-9.08-29.65a229.35,229.35,0,0,0-11.42-28.64,331,331,0,0,0-24-43.25c-8.54-12.82-17.53-25.26-27.8-36.61a363.11,363.11,0,0,0-40.64-38.93,343.76,343.76,0,0,0-41.66-29,290.15,290.15,0,0,0-37-18.72c-6.45-2.66-12.75-5.92-19.43-7.77-10.07-2.79-19.93-6.25-30.14-8.68C661,7.43,650.49,4.77,640,3.53c-17.11-2-34.32-4.24-51.73-3.31a64.69,64.69,0,0,0-30,8.68c-23.84,14.21-35.41,35.8-35.86,63.36-.24,15.49,0,31,.07,46.49,0,3.39-1,6-4.29,7a302.47,302.47,0,0,0-31.39,12.43c-29.18,13.35-55.18,31.27-78.8,52.67-14,12.63-26.08,27-37.11,42.21a261.82,261.82,0,0,0-15.28,23.68,323.58,323.58,0,0,0-16.27,32.73,212.77,212.77,0,0,0-11.19,32,281.8,281.8,0,0,0-6.17,29c-2.06,14.32-3.69,28.65-4.31,43.06-.74,17,2.18,33.73,4.36,50.54a218.16,218.16,0,0,0,8.72,38.46,267.81,267.81,0,0,0,19.94,46.92A304.71,304.71,0,0,0,457,642.53a264.12,264.12,0,0,0,38.8,20.2c10.4,4.38,21.17,8,32,11.36,11.68,3.61,23.52,6.49,35.41,8.91,15.15,3.07,30.68,3.78,49.66,3.63,8.92-1.13,21.41-.06,33.86-2.35,9.59-1.77,19.18-3.39,28.7-5.62a195.81,195.81,0,0,0,28.18-8.88,306.61,306.61,0,0,0,30.24-14.07c15.78-8.44,30.65-18.16,44-30,16.22-14.31,31.12-30,43.19-48A259.71,259.71,0,0,0,839.45,545c3.44-7.24,6.38-14.64,9.23-22.08A186.3,186.3,0,0,0,857,493.53c1.45-7.11,2.46-14.33,3.59-21.51a143.6,143.6,0,0,0-.07-44.19c-1.12-7.38-1.31-14.87-3.24-22.17-1.07-4.07.41-6.36,5.39-6.52a42.33,42.33,0,0,0,13.48-2.87,77.16,77.16,0,0,0,27.28-18,64.69,64.69,0,0,0,17.28-31.74A81.08,81.08,0,0,0,922,318.13Zm-70.18,39c-20.66-.19-41.31,0-63.08,0,5.57,9.45,11,17.75,15.23,26.81,15.07,32.7,18.74,66.37,10.66,101.65-9.17,40-28.71,73.78-58.54,101.63-23.6,22-51.17,37.34-82.08,46.77-21.43,6.53-43.26,10.26-65.67,10.11-21.69-.16-42.84-3.72-63.72-9.73A254.84,254.84,0,0,1,416.37,550a245.81,245.81,0,0,1-38.76-65.37,226.73,226.73,0,0,1-14.82-60.78c-1.06-10.27-2-20.52-1.72-30.86,1.32-49.06,15.6-93.93,44.57-133.63C444.59,206,497,173,561.35,158.8c3.75-.83,4.66-2.4,4.63-6-.16-26.16.58-52.35-.32-78.49-.71-20.61,13.46-32.52,32.48-31.23a407.16,407.16,0,0,1,42.53,4.66A282.57,282.57,0,0,1,763.56,101c34.59,26.08,62.6,58,82.79,96.64a286.91,286.91,0,0,1,30,93.09,370.37,370.37,0,0,1,3.16,38.7c.65,16-13.46,27.85-27.67,27.73Z" transform="translate(0.02 0)"/><path class="cls-1" d="M1238.63,912.72c0-26.65.26-53.31-.12-80-.18-12.3-7-21.8-16.77-28.37a90.56,90.56,0,0,0-53.42-15.56c-19,.39-38,.15-57,0-10.64-.07-21,.62-31,5A81.5,81.5,0,0,0,1057,809.18c-10.9,10.2-14.55,23.53-14.61,37.8-.21,44.31,0,88.62,0,132.93,0,10.46,1.12,20.64,4.43,30.73,5.36,16.38,23.24,31,40.69,31.19,36.48.31,73,.12,109.44.08,4.88,0,9.47-1.91,13.61-4,17.92-9.16,26.15-25.14,27.65-44.24C1240.28,966.74,1238.71,939.7,1238.63,912.72Zm-66.78,50.81c-.7,15-1.87,15.87-17,17.44-8.92.92-17.9,1.36-26.83,2.38-8.4,1-11.95-2.45-12.37-10.85-1.46-29.59-3.3-59.16-4.3-88.77-.38-11.21,3.2-13.74,12-13.47,13.15.4,26.31.3,39.46.35,4.31,0,6.44,1.91,7.61,6.2A46.74,46.74,0,0,1,1172,889.6c-.05,11.82,0,23.64,0,35.47h0C1172,937.87,1172.45,950.71,1171.85,963.53Z" transform="translate(0.02 0)"/><path class="cls-1" d="M915.4,858.45a56.05,56.05,0,0,0-11.35-33c-6.31-8.5-14.15-15.39-21.47-22.84-12.79-13-28.27-19.25-46.68-19-28.82.32-57.64.34-86.45-.12-9.63-.15-14.61,4.48-14.58,14.83.09,37.31,0,74.63,0,111.94H735c0,37.15.14,74.29-.08,111.44-.07,12.21,4.72,16.89,17.08,17.28,6.49.21,13,.32,19.45,1,21.7,2.15,43.44,3.68,65.23,4.44,12.69.43,23.58-4.46,32.63-13.11,10-9.55,19.48-19.62,29.46-29.18,11.47-11,16.53-24.93,16.79-40.12Q916.38,910.13,915.4,858.45ZM828.85,980.77c-6.43,2.35-13.14,3.91-19.62,6.13-6,2-10.69-.82-10.68-7.39,0-9.16.31-18.33.93-27.46.76-11.15,1-22.31,1.26-37.14.51-16-.23-35.65,1.27-55.28.19-2.49.75-5,.78-7.44.1-6.72,4.84-8.48,9.45-6.88,6.71,2.32,13.84,1.34,20.46,4.06s9.52,5.82,9.53,13.19q.08,37,.06,74c0,9.17-.34,18.35.06,27.49C842.86,975.67,836.37,978,828.85,980.77Z" transform="translate(0.02 0)"/><path class="cls-1" d="M709.07,890.26H709c0,30.43.12,60.85-.05,91.27-.08,14.22-6,26.54-13.73,38.11-6.4,9.58-14.2,17.57-25.07,22.06a43.57,43.57,0,0,1-15.86,3.49c-20.22.21-40.48.68-60.67-.15-21.58-.9-37.4-12.23-48.33-30.54-5.61-9.41-7.16-20.06-7.24-30.63-.45-62-.54-124-.72-186,0-9.91,3.66-13.53,13.53-13.57,10,0,20.06.21,30.09-.07,12-.35,12.66,3.7,14.43,13.29a46.14,46.14,0,0,1,.28,8.5q-.11,76.47-.22,152.95a115.62,115.62,0,0,0,.59,12.51c.45,4.1,3.48,7.36,7,7.42,10.25.17,20.67,2,30.75-1.79,4-1.54,6.1-4.16,6.6-8.42,1.45-12.47,1.82-25,2.23-37.52C643.86,892,645.51,853,647,813.95q.34-8.78.61-17.54c.23-8.43,3.86-12.13,12.16-12.15h38.6c7,0,10.62,3.38,10.64,10.25C709.11,826.41,709.07,858.34,709.07,890.26Z" transform="translate(0.02 0)"/><path class="cls-1" d="M754.66,1188.26h.25c0-23.15-.06-46.3,0-69.46,0-11.44-4.54-20.57-13.49-27.44a73,73,0,0,0-43.1-15.33c-19.81-.55-39.64,0-59.46-.18-13.75-.11-26.36,3.25-37.9,10.79-14.34,9.37-22.35,22.38-22.38,39.63-.08,42.81.19,85.61.07,128.42a54.93,54.93,0,0,0,3.1,18.55c6.77,18.93,21,29.2,40.93,29.67,30.8.73,61.62.16,92.43.26a34.18,34.18,0,0,0,14.77-3.82c16.36-7.81,23.48-22.5,24.41-39.16C755.66,1236.28,754.66,1212.24,754.66,1188.26Zm-60.12,19.52c.12,10.32-.27,20.64-.56,31-.17,6-2.26,7.89-8,8.5-10.74,1.12-21.42,3-32.3,2.64-6.06-.19-8.72-2.2-9-8.21-.6-13.8-2.59-27.51-2.47-35.69,0-18.81-.41-32-1.56-45.06-.74-8.45,2.09-12.46,10-12.48,12.44,0,24.92-1.2,37.36.59,4.07.58,5.73,2.39,6.06,6.37C695.52,1172.85,694.34,1190.32,694.54,1207.78Z" transform="translate(0.02 0)"/><path class="cls-1" d="M338.59,852.22c-.23,8.38-1.46,11.55-12.18,11.45-21.16-.21-42.32-.09-63.49-.08-2,0-4-.12-5.9.72-3.27,1.45-7.06,2.11-6.89,7.16.17,4.82,1.08,8.48,6.32,10.48,5.39,2.07,11,3,16.42,4.83,5.18,1.71,10.54,2.57,15.77,3.93a134.2,134.2,0,0,1,18.61,5.92c14.91,6.34,24.4,14,25.32,32.83,1.18,24.31,1.83,48.64-.18,72.91-.9,10.92-6.42,19.93-14.64,27.09a56,56,0,0,1-24,12.23c-6.31,1.49-13,2.82-19.64,2.83-29.16.07-58.33,0-87.49.19-7.37,0-12.22-4.85-12.28-12.36-.1-13.66-.07-27.33,0-41,0-7.94,4.66-12.48,12.21-12.46,23,.09,46,0,69,0,5.08,0,9.93,0,12.58-5.73,3.85-8.4-.76-19.81-9.47-22.75-12.38-4.19-24.78-8.31-37.11-12.64S198,927.59,189.29,917.7a54.17,54.17,0,0,1-12.88-28.15c-2.36-15.11-2-30.23-1.69-45.35.19-10.21,1.78-20.34,7.37-29.39A42.7,42.7,0,0,1,204,797c10.2-3.83,20.92-4.69,31.72-4.71h40.49c16.66,0,33.34-.33,50,.13,10,.27,12.09,3.34,12.14,10.84C338.45,819.58,339,835.91,338.59,852.22Z" transform="translate(0.02 0)"/><path class="cls-1" d="M951,1326.19c-5.77-11.66-12.15-23.12-18.15-34.74-11.11-21.65-23-42.88-34.51-64.34a6.6,6.6,0,0,1,1.22-8.27c3.72-3.8,7.26-7.8,11.09-11.48,8.79-8.44,15.66-18,17.82-30.26,3.1-17.7,1.64-35.54,1.35-53.32-.16-9.93-2.1-19.61-7.83-28.12-10.19-15.15-25.13-21.66-42.67-22-26.64-.58-53.29-.36-79.94-.47-3.17,0-6.35-.15-9.49.14-7.29.69-11.92,4.66-11.89,12.81.12,34,0,68,0,102h0v72.39c0,10.5-.41,21,.15,31.48.45,8.4,3.35,11.33,10.69,11.43,8.49.12,17,.44,25.47.09,7.88-.33,11.51-4.21,11.49-12,0-15.53,3.38-30.79,3.28-46.32a87,87,0,0,1,1.14-11.91c.2-1.55,0-3.75,1.94-4.25s2.83,1.41,3.73,2.76q10.73,16,21.38,32.09,11.72,17.73,23.33,35.53,8.92,13.61,17.82,27.24c3.81,5.87,7.75,10.42,16.18,9.59,10.06-1,20.3-.48,30.45-.24C953,1336.14,954.53,1333.46,951,1326.19ZM864.76,1169.1c-6,7.24-11.94,14.67-19.26,20.77-2.76,2.29-5.37,2.76-8.7,1.36-3.17-1.34-2.62-3.91-2.6-6.3,0-11.14.22-22.27.26-33.41a18.8,18.8,0,0,1,1.74-7.7c1.28-2.92,3.82-3.94,6.67-4.43,6.44,2.35,13.42,2.63,19.43,5.76,7.58,3.95,9.11,15.93,2.46,23.95Z" transform="translate(0.02 0)"/><path class="cls-1" d="M153.17,999.53q.27,18.26,0,36.52c-.1,5.61-4.59,9.2-10.88,9.21H39.23c-7.17,0-14.35.11-21.51-.08-5-.14-10.17-1.9-12-6.45-1.59-3.91-3.13-8.19-3.1-12.9.2-36.85.11-73.71.11-110.57H2.32c0-35.85.34-71.7-.18-107.56-.19-13.47,7.41-17.85,18-17.9q59.79-.25,119.56-.13c9.37,0,12.9,4.79,13.24,13.29.68,17,.8,34-.09,51-.5,9.29-3.83,14.43-15.11,14.5-23.34.16-46.7,0-70,0-6,0-8.41,1.91-8.77,8.1-.38,6.48-.35,13-.15,19.49.14,4.48,4.62,8.1,10.81,8.45,17.43.94,34.56,4.69,52,5.52,5.1.24,9.88,2.76,15.17,2.7,2.45,0,3.6,2.16,3.6,4.62,0,8.34.12,16.68-.16,25-.16,4.79-3.79,8.21-8.78,8.24-18.84.13-37.68.24-56.51,0-14-.18-18.81,4.36-18.81,18.66,0,3.67,0,7.33.1,11,.19,7.55,2.71,10.27,10.29,10.4,20.17.33,40.34.48,60.52.71,6,.07,12,.08,18,.26C150.25,991.9,153,994.41,153.17,999.53Z" transform="translate(0.02 0)"/><path class="cls-1" d="M432.63,1335.53c-1.17-6.16-2.39-12.33-4-18.38-3-11-6.51-22-9.47-33s-5-22.08-8.35-32.88c-1.21-4-1.86-8-3.06-11.91-2.42-8-4.62-16-6.75-24.1s-4-16.25-6.11-24.34c-2.06-7.79-4.74-15.43-6.38-23.29-1.69-8.07-4.11-16-6.14-23.91s-4.3-15.77-6.52-23.6c-3.68-12.92-6.35-26.15-10.47-39a11.48,11.48,0,0,0-10.58-8.05c-9.56-.49-18.86,1.84-28.29,2.4-9.94.59-17.34,3-20.86,13.68-4,12.06-9.43,23.62-14,35.5-4,10.39-7.17,21.08-11.43,31.34s-7.87,20.74-12,31c-3,7.59-5.46,15.4-8.75,22.86-3.16,7.15-5.62,14.57-8.72,21.76-4.46,10.35-7.4,21.34-11.61,31.81-4.5,11.19-9,22.37-12.71,33.86-1.81,5.59,0,8.22,6,8.27,12.82.09,25.65,0,38.48,0a10.1,10.1,0,0,0,9.67-5.8,179.77,179.77,0,0,0,10.28-24.44c1.33-3.77,3.15-5.89,7.48-5.73,3.93.14,7.33,2.55,11.17,2.39,8.93-.37,17.36,2.79,26.18,3.45,3.8.28,9.23.28,11.4,4.67,3.19,6.45,5.6,13.3,8.31,20,4.38,10.76,8.44,21.67,13.23,32.24,2.61,5.75,7.43,9.15,14.32,8.94s14-.05,21-.05v-.08c7.82,0,15.65.08,23.48,0C431,1341,433.37,1339.34,432.63,1335.53ZM340,1231.22c0,6.56-3.35,8.93-9.39,7s-12.38-1.72-18.52-3.42c-7.78-2.14-10.52-6.11-7.49-13.63,3.19-7.92,4.49-16.43,7.35-24.42,1.72-4.79,1.88-10,4.51-14.55,1.42-2.45,3.07-4,5.7-4.07s4,1.9,5.44,3.79c3,3.87,2.79,8.79,4,13.12a134,134,0,0,1,3.62,15.85,107.5,107.5,0,0,0,3.72,14.77,16.59,16.59,0,0,1,1.06,5.51Z" transform="translate(0.02 0)"/><path class="cls-1" d="M1239.12,1131.86c-.09,8.62-1.4,10-9.9,10-18.49.13-37,.11-55.48.16a45.64,45.64,0,0,0-5.49.19c-5.19.65-8.31,3.63-8.66,8.1-.29,3.82,2.94,8.56,7.1,9.66,10.53,2.78,21.16,5.14,31.65,8,9.72,2.68,19.16,6.14,26.93,12.94,5.29,4.64,7.62,11,8.12,17.54a514.33,514.33,0,0,1,.44,65.93c-1,18.55-16.16,31.41-31,36.16-15.18,4.85-30.7,2.54-46.09,3.07-3.16.1-6.33,0-9.5,0h0c-14.83,0-29.66.06-44.49,0-7.32,0-9.24-2-9.3-9.14q-.13-19.25-.1-38.49c0-6.48,2.49-9,9.09-9,20.49,0,41-.11,61.49.08,10.86.1,11.55-3.39,13.52-10.49,1.72-6.2-2.32-12.93-8.37-15.62-9.51-4.22-19.53-6.93-29.35-10.27-12.39-4.21-24.44-9.35-33.41-19.39-7.79-8.72-12.42-19.09-12.74-30.88-.36-13.32-.18-26.66-.13-40,.07-20,12.41-34,29.83-39.07a63.6,63.6,0,0,1,18.13-2.87c28,.24,56,0,84,.52,15.68.31,13.76,2,13.89,14.26C1239.37,1106.2,1239.26,1119,1239.12,1131.86Z" transform="translate(0.02 0)"/><path class="cls-1" d="M515.41,865.2c-.11,8.62-2.47,10.4-11,10.4-9,0-18-.06-27-.07-7.13,0-9.27,2-9.5,9-.38,11.15-1.39,22.28-1.73,33.39-.76,25.11-3.59,50.13-3.44,75.27.08,14.35-2.11,28.54-2.69,42.84-.18,4.42-4.18,8-9.18,8.07q-21.48.27-43,.07c-5.87,0-8.87-3.06-8.9-9-.12-24.62,0-49.26,0-73.92H399v-70.4c0-1.33,0-2.67-.07-4-.6-10-1.92-11.33-11.71-11.48-6.32-.1-12.65,0-19-.17s-9-2.37-10.5-8.62a34.67,34.67,0,0,1-.76-8.41c0-18.31.07-36.62,0-54.94,0-4,.84-7.92,1.3-11.88.34-3,2.4-4.55,5.26-5.22a40.24,40.24,0,0,1,9.41-.88H503.28c9.11,0,12.15,2.27,12.26,11.51Q515.89,831,515.41,865.2Z" transform="translate(0.02 0)"/><path class="cls-1" d="M1071.17,1295.85c-.64,6.63-3.8,9-10.64,9.23-6.34.22-12.71.17-19.07.17H973.72a33.13,33.13,0,0,1-6-.5c-5.1-1-8-3.53-8.39-9.37-1.61-22.37-2-44.79-1.85-67.19.39-46.34-3.45-92.59-2.73-138.93.15-9.69,2-12,11.6-12,15.56-.15,31.12,0,46.67,0v0h48.07c6.89,0,8.43,1.16,9.84,7.82.81,3.81.42,7.64.42,11.48,0,11.51-.12,23-.07,34.54.05,12.43-3.16,14.31-14.84,15-12,.69-24,.63-36.05.13-8.78-.37-12.7,4.56-12.26,12.36.22,3.83,0,7.67.11,11.51.17,6.26,4,10.41,10.13,10.56,10.85.25,21.69.22,32.54.26,7.63,0,8.61.92,8.61,8.58,0,6.51-.2,13-.09,19.52.08,4.49-2.43,6.21-6.34,6.8-12.15,1.83-24.31,3.57-36.44,5.52-7.27,1.18-10.3,4.74-10.64,12.13-.19,4-.17,8-.09,12,.19,8.67,3.22,11.74,11.8,11.77h43.17c7.41,0,9,.83,9.95,8.16A136.65,136.65,0,0,1,1071.17,1295.85Z" transform="translate(0.02 0)"/><path class="cls-1" d="M559.06,1091.76c0,17.82-.19,35.65-.32,53.48,0,6.32-3.06,9-10.9,9.17-6.82.1-13.66-.13-20.46-.62-8.27-.6-10.47,1.42-11.11,9.76-3.36,44.19-3.61,88.54-7.26,132.71-.54,6.52-3.13,9.4-9.73,9.52q-17.73.33-35.49,0c-6.78-.11-10.46-4.43-10.48-11.8q-.06-33.5,0-67c.28-22,1-44-.15-66-.31-5.87-2.24-7.52-8.3-8.06-7.15-.63-14.29.62-21.45-.21-4.56-.53-6.41-2.71-6.41-7.1v-64c0-6,2.1-8.16,8-8.17q58-.14,116-.18h10c4.09,0,6.28,2,7.23,6.07S559.06,1087.6,559.06,1091.76Z" transform="translate(0.02 0)"/><path class="cls-1" d="M1016,916.05h0v120c0,7.44-1,8.34-8.39,8.35-21.66,0-43.32,0-65,.13-4.37,0-6.09-1.86-6-6,.27-14,.1-28,.93-42,.74-12.31,1.23-24.62,1.65-36.94,1.51-44.28,3.28-88.55,4.87-132.82.33-9.16.39-18.33.44-27.49.06-10.42,5.31-15.86,15.43-15.43,14.81.63,29.66.14,44.49.16,7.6,0,10.76,3.11,11.5,10.55.59,6,.13,12,.13,18Q1016,864.31,1016,916.05Z" transform="translate(0.02 0)"/><path class="cls-1" d="M109.52,1141.38c0-5-1.87-9.67-4-14.12-4-8.25-10.46-14.56-17.28-20.31-5.07-4.27-10.74-7.83-17.86-8.67-15.62-1.85-31.26-.59-46.88-1.12A82.26,82.26,0,0,0,9,1097.6c-4.91.71-6.72,3.1-6.68,8,.16,22.48.07,45,.07,67.43h0c0,21.65.25,43.3-.12,64.93-.15,9.32,2.76,11.48,10.82,11.16a42.91,42.91,0,0,1,10.45.62c14.68,3.08,29.52,1.79,44.31,2a11.26,11.26,0,0,0,5.64-1.51c11.6-6.15,19.69-16.25,28.27-25.6a30.75,30.75,0,0,0,7.79-20.87Q109.61,1172.59,109.52,1141.38ZM66.06,1203c0,5.74-2.84,9.07-8.34,10.65-3.3.94-6.48,2.34-9.68,3.61-5,2-8,.35-8-4.89.14-22.77-.33-45.57,2.45-68.25.08-.66.11-1.32.13-2,.19-8.57,1.48-9.66,10.13-7.68,4.66,1.07,10,1.06,12.25,6.87a15.5,15.5,0,0,1,1,5.8V1175h0Q66.11,1189,66.06,1203Z" transform="translate(0.02 0)"/><path class="cls-1" d="M201.55,1244.34c-.42,6.11-2.42,7.91-8.44,7.92H136c-7.44,0-9.6-2.07-9.82-9.73-.28-10.17-.58-20.35-.53-30.53.15-33.88-.44-67.75-2.17-101.59-.28-5.47,3.2-9.13,8.66-9.15h60.6c5.73,0,8.72,2.67,8.79,8.38.13,9.51.14,19-.11,28.53-.17,6.53-2.88,8.91-9.33,8.92-8.35,0-16.69,0-25.05-.09-3.28,0-5.14,1.18-6.54,4.21a18.11,18.11,0,0,0-1.06,12.21c1,4.35,3.6,7.3,8.85,7,6.32-.27,12.68-.06,19,0,4.88,0,6.58,1.76,6.54,6.54,0,2.5-.08,5-.11,7.51-.07,6.89-1.24,6.83-7.41,9.13-8,3-16.65.72-24.41,4.52-2.35,1.15-3.49,2.21-3.5,4.63,0,4.17.12,8.35,0,12.52-.08,3,1.42,4,4.12,4.53,8.78,1.69,17.6,1.53,26.44,1.09,10.85-.53,12.64,1.11,12.68,12C201.71,1236.68,201.81,1240.53,201.55,1244.34Z" transform="translate(0.02 0)"/><path class="cls-1" d="M202.13,1297.1c-.21,6.39-1.84,8.13-8.44,8.26-10.33.2-20.67.16-31,.17q-77.49.11-155,.16c-6.83,0-7.57-.69-7.59-7.29,0-5.83.3-11.68-.09-17.49-.33-4.83,1.7-5.88,6.06-5.86,31.16.13,62.33.07,85.91.07,38.88,1.93,70.18,3,101.52,2.88,6.59,0,8.5,1.94,8.73,8.6C202.37,1290.1,202.25,1293.6,202.13,1297.1Z" transform="translate(0.02 0)"/><path class="cls-1" d="M671.08,751.08c.09,3.66-.32,7.32-.33,11,0,4.51-1.79,6.28-6.6,6.17-13.65-.32-27.3-.11-41-.11h0c-13.65,0-27.31-.14-41,.08-4.73.07-6.42-1.6-6.45-6.35,0-9,1.25-11,10.34-11,14,0,27.88-2.12,41.73-3.47,11.34-1.11,22.9-1.16,34.14-3.75C668.56,742.09,670.92,744.31,671.08,751.08Z" transform="translate(0.02 0)"/><path class="cls-1" d="M825.12,299.6a230.67,230.67,0,0,0-20.67-69.46,236.2,236.2,0,0,0-70-86.61A231,231,0,0,0,674,110.11a246.75,246.75,0,0,0-51.24-12.79c-2.67-.38-5.18-1-5.11,3.57.24,15.82.17,31.65,0,47.47,0,3.55,1.15,4.73,4.58,4.63a102.72,102.72,0,0,1,18,.75c12.46,1.79,21.63,11,22.87,23,1.69,16.25-10.7,29.23-27.64,28.59-19.67-.74-39.25-.55-58.68,3.3C548,214.34,521.31,225,497.12,241.7c-25.8,17.77-46.51,40.24-61.46,67.83C419,340.25,412.26,373.16,413.43,408c1.22,36.77,13.18,69.7,33.82,99.69,24.23,35.2,56.58,60,96.63,75,33.59,12.54,68.12,16.79,103.18,8.79,63.83-14.56,106.51-52.38,123.5-116.79,5.4-20.51,4.7-41.2-2.62-61C751.71,369.87,720,342.95,674.49,333c-32.51-7.1-62.34-.19-87.88,21.54-19.35,16.47-31.52,37.55-31.3,63.31.35,39.68,31.41,67.85,70.12,69.91,26.77,1.42,49.66-16.42,56.49-42.32,3.35-12.71,13.31-18.84,25.16-15.47,10.27,2.91,15.73,14.34,12.48,25.82-2.13,7.53-4.5,15-8.3,21.85C695.4,506.53,670.6,522.42,638.52,527c-20.6,2.94-40.36-1.17-59.2-9.91C557.2,506.82,539.7,491.25,528,470c-18.76-34-18.81-69.22-1.93-103.51,26.42-53.72,72.32-77.58,130.5-79.18,23.17-.63,45.43,5.92,66.49,15.81a18.51,18.51,0,0,0,8.2,1.75c14.66-.06,29.33,0,44,0h0c15.17,0,30.33-.06,45.5,0C824.56,304.85,825.69,303.91,825.12,299.6ZM715.41,257.18c-21.82,0-39.25-17.73-39.26-40,0-20,18.23-38.06,38.62-38.26,21.3-.2,39.31,17.84,39.41,39.47C754.28,239.39,736.54,257.16,715.41,257.18Z" transform="translate(0.02 0)"/><path class="cls-1" d="M825.12,299.6a230.67,230.67,0,0,0-20.67-69.46,236.2,236.2,0,0,0-70-86.61A231,231,0,0,0,674,110.11a246.75,246.75,0,0,0-51.24-12.79c-2.67-.38-5.18-1-5.11,3.57.24,15.82.17,31.65,0,47.47,0,3.55,1.15,4.73,4.58,4.63a102.72,102.72,0,0,1,18,.75c12.46,1.79,21.63,11,22.87,23,1.69,16.25-10.7,29.23-27.64,28.59-19.67-.74-39.25-.55-58.68,3.3C548,214.34,521.31,225,497.12,241.7c-25.8,17.77-46.51,40.24-61.46,67.83C419,340.25,412.26,373.16,413.43,408c1.22,36.77,13.18,69.7,33.82,99.69,24.23,35.2,56.58,60,96.63,75,33.59,12.54,68.12,16.79,103.18,8.79,63.83-14.56,106.51-52.38,123.5-116.79,5.4-20.51,4.7-41.2-2.62-61C751.71,369.87,720,342.95,674.49,333c-32.51-7.1-62.34-.19-87.88,21.54-19.35,16.47-31.52,37.55-31.3,63.31.35,39.68,31.41,67.85,70.12,69.91,26.77,1.42,49.66-16.42,56.49-42.32,3.35-12.71,13.31-18.84,25.16-15.47,10.27,2.91,15.73,14.34,12.48,25.82-2.13,7.53-4.5,15-8.3,21.85C695.4,506.53,670.6,522.42,638.52,527c-20.6,2.94-40.36-1.17-59.2-9.91C557.2,506.82,539.7,491.25,528,470c-18.76-34-18.81-69.22-1.93-103.51,26.42-53.72,72.32-77.58,130.5-79.18,23.17-.63,45.43,5.92,66.49,15.81a18.51,18.51,0,0,0,8.2,1.75c14.66-.06,29.33,0,44,0h0c15.17,0,30.33-.06,45.5,0C824.56,304.85,825.69,303.91,825.12,299.6ZM715.41,257.18c-21.82,0-39.25-17.73-39.26-40,0-20,18.23-38.06,38.62-38.26,21.3-.2,39.31,17.84,39.41,39.47C754.28,239.39,736.54,257.16,715.41,257.18Z" transform="translate(0.02 0)"/><path class="cls-1" d="M922,318.13c-1.41-10.71-1-21.54-2.86-32.3-1.2-7-2.81-14-3.57-21.09a71.39,71.39,0,0,0-2.86-13.55c-3.06-9.87-6-19.79-9.08-29.65a229.35,229.35,0,0,0-11.42-28.64,331,331,0,0,0-24-43.25c-8.54-12.82-17.53-25.26-27.8-36.61a363.11,363.11,0,0,0-40.64-38.93,343.76,343.76,0,0,0-41.66-29,290.15,290.15,0,0,0-37-18.72c-6.45-2.66-12.75-5.92-19.43-7.77-10.07-2.79-19.93-6.25-30.14-8.68C661,7.43,650.49,4.77,640,3.53c-17.11-2-34.32-4.24-51.73-3.31a64.69,64.69,0,0,0-30,8.68c-23.84,14.21-35.41,35.8-35.86,63.36-.24,15.49,0,31,.07,46.49,0,3.39-1,6-4.29,7a302.47,302.47,0,0,0-31.39,12.43c-29.18,13.35-55.18,31.27-78.8,52.67-14,12.63-26.08,27-37.11,42.21a261.82,261.82,0,0,0-15.28,23.68,323.58,323.58,0,0,0-16.27,32.73,212.77,212.77,0,0,0-11.19,32,281.8,281.8,0,0,0-6.17,29c-2.06,14.32-3.69,28.65-4.31,43.06-.74,17,2.18,33.73,4.36,50.54a218.16,218.16,0,0,0,8.72,38.46,267.81,267.81,0,0,0,19.94,46.92A304.71,304.71,0,0,0,457,642.53a264.12,264.12,0,0,0,38.8,20.2c10.4,4.38,21.17,8,32,11.36,11.68,3.61,23.52,6.49,35.41,8.91,15.15,3.07,30.68,3.78,49.66,3.63,8.92-1.13,21.41-.06,33.86-2.35,9.59-1.77,19.18-3.39,28.7-5.62a195.81,195.81,0,0,0,28.18-8.88,306.61,306.61,0,0,0,30.24-14.07c15.78-8.44,30.65-18.16,44-30,16.22-14.31,31.12-30,43.19-48A259.71,259.71,0,0,0,839.45,545c3.44-7.24,6.38-14.64,9.23-22.08A186.3,186.3,0,0,0,857,493.53c1.45-7.11,2.46-14.33,3.59-21.51a143.6,143.6,0,0,0-.07-44.19c-1.12-7.38-1.31-14.87-3.24-22.17-1.07-4.07.41-6.36,5.39-6.52a42.33,42.33,0,0,0,13.48-2.87,77.16,77.16,0,0,0,27.28-18,64.69,64.69,0,0,0,17.28-31.74A81.08,81.08,0,0,0,922,318.13Zm-70.18,39c-20.66-.19-41.31,0-63.08,0,5.57,9.45,11,17.75,15.23,26.81,15.07,32.7,18.74,66.37,10.66,101.65-9.17,40-28.71,73.78-58.54,101.63-23.6,22-51.17,37.34-82.08,46.77-21.43,6.53-43.26,10.26-65.67,10.11-21.69-.16-42.84-3.72-63.72-9.73A254.84,254.84,0,0,1,416.37,550a245.81,245.81,0,0,1-38.76-65.37,226.73,226.73,0,0,1-14.82-60.78c-1.06-10.27-2-20.52-1.72-30.86,1.32-49.06,15.6-93.93,44.57-133.63C444.59,206,497,173,561.35,158.8c3.75-.83,4.66-2.4,4.63-6-.16-26.16.58-52.35-.32-78.49-.71-20.61,13.46-32.52,32.48-31.23a407.16,407.16,0,0,1,42.53,4.66A282.57,282.57,0,0,1,763.56,101c34.59,26.08,62.6,58,82.79,96.64a286.91,286.91,0,0,1,30,93.09,370.37,370.37,0,0,1,3.16,38.7c.65,16-13.46,27.85-27.67,27.73Z" transform="translate(0.02 0)"/></svg>