<svg id="Camada_1" data-name="Camada 1" xmlns="http://www.w3.org/2000/svg" viewBox="0 0 4532.5 1920"><defs><style>.cls-1{fill:#fff;}</style></defs><title>6-IMUNELAB</title><path class="cls-1" d="M4531,1560.7v-.3a2,2,0,0,0-.1-.8c-.2-2.4.5-4.9-.7-7.1h0a311.18,311.18,0,0,0-20.49-76.9c-44.58-110.5-147-184.3-271.27-183.1-18.29.2-36.58.6-54.77,2.6-22.79,2.5-45.48,5.9-66.57,15.9a3.18,3.18,0,0,1-4.1-.6V1143.9c0-9.8-.1-9.9-9.8-9.9h-89.9s-12.2-2.2-12.3,12.1V1520c.1,2.7,0,5.3.1,8,.2,3.9-1.1,5.9-5.2,6.9-18.7,4.4-37.7,7.5-56.6,10.8-2.8.5-4.5-.5-4.3-3.5v-5c-.7-29.3-4.1-58.3-12.7-86.4-21.4-69.6-64.4-119.8-133.3-145.8-33.2-12.5-67.7-18-103.2-18.6-39.3-.7-77.5,4.3-114.1,18.9-81.7,32.7-129.9,91.7-140,180.1-1,8.9,8,9.6,8,9.6h93.7s8.1-.7,9-8.5a90.27,90.27,0,0,1,25.5-53.9,112,112,0,0,1,33.8-24.4c45.5-20.6,92.3-23.6,139.7-8.2,34.8,11.3,61.3,32.8,76.1,67,10.1,23.3,10.2,47.8,8,72.4-.3,3.4-.1,7.2-2.2,10.7-4.3-1.2-8.1-2.2-11.9-3.3-32.2-9.5-65-16-98.3-20.6-31.7-4.4-63.5-4.9-95.4-4.2a292.54,292.54,0,0,0-89.8,15.9c-80,27.7-116.9,96.5-115.9,164q.15,12.15,0,24.3c-.4,28.9,7.8,55.4,22,80.3,23,40.3,57.4,67.5,99.6,85.3,34.7,14.7,70.8,21.5,108.7,21.1,26.8-.2,52.9-2.9,78.7-10,35.6-9.8,67.2-26.6,92.5-54.1l8.1-8.7c2.6,3.3,1.7,6,1.7,8.5.1,13.6,0,27.3.1,40.9.1,8.9.4,9.3,8.7,9.4,31.6.1,63.1.1,94.7,0,7.7,0,8-.3,8-7.9-.1-34.2.7-68.4,1.6-102.6.8-33.9.2-67.8.2-101.7,0-7.6.4-15.3-.1-22.9-.4-5.6,1.6-7.3,7-8.1,18.9-2.7,37.8-6,56.9-9.1,1.4,4.1.9,7.8.9,11.4,0,66.5.1,132.9-.1,199.4,0,6.5,1.7,9.9,8,12.8,51.8,23.1,106.1,36.3,162.4,40.6,35.1,2.6,70.3,1.1,105.1-5.6,52.6-10.2,101.3-29.6,143.8-62.6,63-49,98.1-113.9,108.9-192.5,1.3-3,.4-6.1.7-9.2a1.27,1.27,0,0,0-.1-.6v-.8c.2-2.4-.5-4.9,1-7.1v.2s.9-.2,1-.2V1566C4530.6,1564.3,4530.9,1562.5,4531,1560.7Zm-729.3,183.2a184.3,184.3,0,0,1-47.6,37.6c-24.3,13.7-50.1,23.2-77.9,26.1-6.6.7-13.3.1-20,.1-30.5.6-59.4-5.9-86.3-20.5a114.49,114.49,0,0,1-35.3-28.9,67.54,67.54,0,0,1,3.2-88.7c19-20.3,43.1-30.5,69.9-35.7,40-7.7,79.4-3.1,118.8,4.5,30.7,5.9,61,13.7,91.5,20.4,5.3,1.2,7.1,3.4,6.7,8.6a120.18,120.18,0,0,0,0,18C3826.7,1708.7,3816.6,1727.3,3801.7,1743.9Zm626.8-118.1c-7.3,77.7-54.9,136.4-129.2,159.9a258.22,258.22,0,0,1-85.5,11.9,303.13,303.13,0,0,1-92.8-17c-7.9-2.8-8-2.8-8-11.2V1437.6c0-12,0-12.1,11.4-16.4,17.9-6.8,36.6-9.5,55.4-11.7a333.87,333.87,0,0,1,91.5,2.6c35.2,5.7,68.5,16.7,96.4,40.1,28.7,24,45.1,55.5,54.2,91.2A241.52,241.52,0,0,1,4428.5,1625.8Z" transform="translate(-2 -2)"/><path class="cls-1" d="M2106.1,691c5.8,6.4,8.9,14,8.3,18.9-.5,18.3-7.3,28.6-20.1,34.7-13.4,6.4-26,4-36.9-5.6-6-5.2-11.1-11.4-16.5-17.3-12.2-13.2-24.3-26.4-36.5-39.6a72,72,0,0,1-5.2-6c-11.2-15.3-9.3-34.3,4.8-46.7s33.3-12.2,46.6,1.6C2069.5,650.6,2087.7,670.9,2106.1,691Z" transform="translate(-2 -2)"/><path class="cls-1" d="M2238.1,680.5c-.3,39.6-.1,79.3-.1,118.9V919.3c0,20.8-12.5,35.4-32.9,38.5-12.9,2-31-10.8-34.9-24.8a66.06,66.06,0,0,1-2.2-17.7c.1-72.6,0-145.2.2-217.8a22.91,22.91,0,0,0-6.6-16.8c-25.2-27.1-50-54.5-74.9-81.8-2-2.2-4-4.5-5.8-6.8-11.8-15.4-10-34.8,4.3-47.5,13.7-12.2,33.5-11.8,46.8,2.1,16.6,17.3,32.5,35.3,48.7,53,15.3,16.7,30.4,33.6,45.8,50.2C2234.4,658.5,2238.2,668.4,2238.1,680.5Z" transform="translate(-2 -2)"/><path class="cls-1" d="M2267,537.6c-24.6-.1-45.8-21.7-44.7-46.5-.5-23.6,20.9-45.4,46.2-45.1,25.5.3,45.8,22.8,45.3,46.1C2313.2,517.9,2293.1,537.7,2267,537.6Z" transform="translate(-2 -2)"/><path class="cls-1" d="M2455.3,594q-38.85,43.5-78.7,86.4a24.84,24.84,0,0,0-7.2,18.6c.3,70.9.1,141.9.2,212.8a107,107,0,0,1-1.2,17.9c-2.6,15.3-19.4,29.8-34.2,28-19.8-2.3-33.6-14.5-34.1-36.2-.6-23.3-.1-46.6-.1-69.9v-53c0-39.6.1-79.3-.1-118.9a41.67,41.67,0,0,1,11.5-29.8c31-33.9,61.8-68,92.8-101.9,13.8-15.1,34.5-16.3,49.1-3.3C2467.7,557.8,2469,578.7,2455.3,594Z" transform="translate(-2 -2)"/><path class="cls-1" d="M2542.4,646.9c3.3,11.7.5,22-7,30.5-18.1,20.4-36.5,40.5-55.5,60.1-10.3,10.7-23.3,13.6-37.5,7.7a34.08,34.08,0,0,1-21-32.2,29.35,29.35,0,0,1,8.2-21.8c18.1-19.9,36.2-39.9,54.7-59.5,9.4-9.9,21.2-13.7,34.5-9.5C2530.9,626,2538.9,634.2,2542.4,646.9Z" transform="translate(-2 -2)"/><path class="cls-1" d="M2692.3,667.2c0-3.3.6-6.7-.7-9.9-3-7.1-3.4-14.8-4.8-22.1-4.2-21.8-9.5-43.1-17-63.9-12.8-35.6-29.2-69.5-47.9-102.5-21.2-37.4-45.6-72.6-70.7-107.4-18.6-25.9-38.2-51.1-58-76.2-29.5-37.3-58.2-75.1-87.1-112.9-30.5-39.9-59.8-80.6-86.3-123.3-10.4-16.8-19.5-34.7-35.9-47h-30c-11.3,7.6-19,18.3-25.9,29.7-7.9,13-15.9,26.1-24.3,38.8-31.4,47.4-65.3,93-100.2,137.7-21.7,27.8-43.7,55.3-65.1,83.3-23.8,31.2-47.6,62.3-70,94.5-28.5,40.9-55.4,82.8-77.1,127.8a614.75,614.75,0,0,0-33.9,87.8c-4.3,13.9-6.4,28.3-9.1,42.4-1.3,6.7-4.4,13.2-4,20.3,1.8,35.8-3.7,71.7,3.4,107.3,1.6,7.8,2.5,15.7,4.1,23.4,2.6,12.6,6,25,9.7,37.3,8.2,27.7,19.6,54,33.3,79.4,17,31.5,38,60,62.2,86.3a388.92,388.92,0,0,0,46.1,42.8,439.51,439.51,0,0,0,83.5,52.2c18.6,8.8,37.6,17.1,57.3,22.5,17.7,4.8,35.4,10.4,53.9,12.7,14.8,1.9,29.3,4.4,44.3,4.1,18.7-.4,37.3.1,56-.2,9.5-.1,18.9-.1,28.6-2,13.6-2.7,27.3-4.7,40.8-7.8a401.72,401.72,0,0,0,100.8-38.3,432.76,432.76,0,0,0,155.4-141.7,406.82,406.82,0,0,0,40.4-77.4,366.86,366.86,0,0,0,15.6-46.8c3-12.1,5.8-24.3,7.7-36.8,2-12.7,5.2-25.1,5-38.2C2692,717.9,2692.3,692.5,2692.3,667.2Zm-77.5,100.4c-5.7,34.8-16.8,67.6-32.4,99a352.13,352.13,0,0,1-170.8,163,340.08,340.08,0,0,1-95.5,27.1,367.87,367.87,0,0,1-46.7,3.3,333.33,333.33,0,0,1-70.4-6.7,374,374,0,0,1-56.3-16.6,350.85,350.85,0,0,1-202-201.4,340.71,340.71,0,0,1-21.8-89.8,356.79,356.79,0,0,1-1.3-51.8c2-41.5,12.7-80.6,27.9-118.8,14.2-35.7,33.2-68.9,53.7-101.4,33.8-53.7,72.4-103.8,111.2-153.8,40.2-51.9,81.3-103.1,119.4-156.5,11-15.5,21.6-31.2,32.4-46.8,1.9-2.7,3.3-5.8,7.2-8.3,5.8,8.4,11.2,16.3,16.6,24.3,36.7,54.5,77.7,105.8,117.9,157.7,39.6,51.1,79.9,101.6,116,155.3,32,47.6,61.2,96.8,80.2,151.4,12.4,35.8,19.8,72.5,20.1,110.3A385.34,385.34,0,0,1,2614.8,767.6Z" transform="translate(-2 -2)"/><path class="cls-1" d="M1334.16,1920.2c-14.7-2.7-29.59-4.5-44.09-8.1-29.39-7.3-56.89-18.6-80.89-37.49-27.09-21.4-45.89-48.89-58.59-80.69-10.3-25.8-16.8-52.49-20.7-79.89a611.15,611.15,0,0,1-6-85.49q.3-155.37.1-310.85v-6.1c.1-8.7.1-8.8,8.9-8.8,29.3-.1,58.6,0,88,0,11,0,11.1,0,11.1,10.9v271c0,27.3-.1,54.7,2.5,81.9,2.5,25.9,7.5,51.3,19.8,74.8,17.6,33.4,44.8,55.1,81.1,64.7,70.4,18.7,130.4,0,179-53.6,24.7-27.3,38.8-60.1,42.2-97.3,1.1-12.3,1.4-24.6,1.4-36.9V1315.4c0-12.6-1.4-12.5,12.5-12.4h84.9c11.8,0,11.6-.9,11.6,11.3V1888c0,13.8,1.3,12.4-12.2,12.4-29.29.1-58.59,0-88,0-8.8,0-8.9-.1-8.9-8.7.1-18.7.3-37.29.4-56,0-1.8-.2-3.7-.3-5.9-1.1.8-1.9,1-2.1,1.4-14.8,35.69-43.89,56.09-77.39,71.19a204.21,204.21,0,0,1-58.39,16.5,37.71,37.71,0,0,0-5.8,1.4c-2.5,1.7-5.8-.5-8.1,1.7h-60C1342.56,1919.5,1338,1922.3,1334.16,1920.2Z" transform="translate(-2 -2)"/><path class="cls-1" d="M2,1152c32.6,0,65.3-.1,97.9-.1,8,0,8,.2,8.1,8.5v726.4c0,15.1,1.9,13.4-13.1,13.4-31,0-61.9-.1-92.9-.2Z" transform="translate(-2 -2)"/><path class="cls-1" d="M1333.9,1920.2c4.1-.1,8.5-1.4,12.1,1.8h-12A10.87,10.87,0,0,0,1333.9,1920.2Z" transform="translate(-2 -2)"/><path class="cls-1" d="M4530.3,1650c0-3.3,0-6.6-.1-9.8.9-2.2,2.4-.2,4.3,5-1.4,2.2-1.7,2.6-3.1,4.8h-1.1Z" transform="translate(-2 -2)"/><path class="cls-1" d="M4530.2,1559.8c0-2.6.1-5.3.1-7.9a9.71,9.71,0,0,1,1.7.1v8C4531.3,1560.9,4530.7,1560.9,4530.2,1559.8Z" transform="translate(-2 -2)"/><path class="cls-1" d="M4532,1640a11,11,0,0,1-1.8.2c-.1-2.9-1-6,1.8-8.2Z" transform="translate(-2 -2)"/><path class="cls-1" d="M1406,1922c2.2-3,5.3-1.8,8.1-1.7,0,.6-.1,1.2-.1,1.7Z" transform="translate(-2 -2)"/><path class="cls-1" d="M4530.2,1559.8a11,11,0,0,0,1.8.2v6C4529.7,1564.4,4529.9,1562.1,4530.2,1559.8Z" transform="translate(-2 -2)"/><path class="cls-1" d="M2852.9,1724.7c-3.5,0-5.8,2.7-8.5,4.4-21.9,14-44.1,27.6-67.5,39-46,22.4-94.4,33.9-145.5,33.9a281.17,281.17,0,0,1-28.9-1.5c-31.9-3.1-61.1-13-87.2-31.7-37.3-26.7-50.4-64.7-50.6-108.7a6,6,0,0,1,5.8-6.1c7.3-.4,14.6-1.6,21.9-1.4,22.3.3,44.6,1.5,66.9,2.9,23.9,1.6,48,1.3,72,1.4a398.19,398.19,0,0,0,87.1-9.7c20.3-4.4,39.9-10.7,57.8-21.6,26.8-16.3,47.4-38.7,64.2-64.9,24.6-38.5,30.7-80.4,21.4-124.7-9.1-43.4-33.7-77.2-67.5-104.6-37-30.1-81-43.2-127.5-46.7a327.52,327.52,0,0,0-130.9,16.8c-45.1,15.4-84.3,39.7-115.9,75.5-40.2,45.6-61.8,99.1-67,159.4-.5,6-.9,7.6-8.1,8.1-15.6,1.1-31.1,3-46.7,4.6-4.6.5-10,3.2-13.5,1.5-4.3-2.1-1.1-8.6-2.3-13a28.52,28.52,0,0,1-1.1-6.5c-.7-23.1-4.1-46-8.9-68.5-7-32.5-17.5-63.6-35.9-91.6-24.6-37.5-59.3-61.6-101.7-75.1-23.9-7.6-48.6-11.3-73.4-13.8-20.6-2.1-41.1-2.9-61.7,0-24.8,3.4-49.3,8.2-72.2,18.7-33.8,15.6-62.9,36.4-77.6,72.6-.1.2-.6.1-1,.2-1.3-1.3-.7-3-.7-4.5.1-19.3.3-38.7.4-58,.1-8.8,0-8.9-8.7-8.9-29.7-.1-59.4,0-89,0-12.2,0-11.9-1.1-11.9,12v576.3c.1,8.9.1,9.5,7.93,9.5,21.68.1,43.46.1,65.14,0,9.94,0,19.77.1,29.71,0,7-.1,7-.2,7.23-7.4.1-2.3,0-4.7,0-7V1580.4c0-10.6.6-21.3,1.51-31.9,3.31-39.1,19-72.9,45.47-101.2,41.55-44.4,93.14-63.5,153.86-55.2,25.49,3.5,49.28,12.1,69.85,28.2,26.8,21,41.25,49.2,48.78,81.6,6.82,29.4,7.93,59.4,8,89.4q.3,149.1.1,298.2c0,10.4,0,10.5,10.24,10.5h87.37c8.7,0,8.7-.1,8.8-8.8V1673.1c0-12.3.1-12.3,12.2-14.6,1-.2,2-.2,3-.4,16.1-3.1,32.6-.7,48.7-4,3-.6,4.3,1.2,4.1,4-.6,6.1,1.3,11.9,1.7,17.9,3.2,46.9,17.8,90.1,44.4,128.9,35.8,52.2,86.2,83.1,146.6,99.1,30.9,8.2,62.3,10.2,94.1,9.7a342.69,342.69,0,0,0,65.5-6.9c53.1-11.1,100.1-35.8,145.1-65,4.8-3.1,6.2-7,6.2-12.5-.2-32.7-.1-65.4-.1-98.1C2854.3,1729.2,2855.1,1726.7,2852.9,1724.7Zm-324.7-296.8c29.9-21.6,64-32.1,100.2-36.3,25.3-2.9,50.5-3,75.2,4.3a148.48,148.48,0,0,1,26.7,11c20.3,10.8,30.3,28.2,32.1,50.7.3,3,.1,6,.2,9,1.2,30.8-14.2,51-40.9,63.7-22.1,10.6-45.9,13.5-69.9,13.9-34.6.5-69.3,1.2-103.9-.9-15.6-1-31.2-1.6-46.8-1.2-9.6.3-19.2,2-28.8,1.6-2.6-.1-5.3.5-8.1-1.4C2468.6,1494.8,2489.1,1456.1,2528.2,1427.9Z" transform="translate(-2 -2)"/><path class="cls-1" d="M655.9,1356.35c9.8-12.1,19.6-22.5,31.29-30.79,32.89-23.4,69.39-37.49,109.38-43.09,19-2.7,37.79-2.1,56.69.1,22.5,2.6,44.79,6.1,66.29,13.5,41.19,14.2,72.19,40.49,93.18,78.58,19.2,34.69,28.29,72.29,33.79,111.08,4.7,32.69,5.9,65.59,5.8,98.48q-.3,150-.1,299.94c0,2.3-.2,4.7,0,7,.6,5.4-2.1,6.7-7.1,6.7-31.29-.1-62.69,0-94-.1-6.9,0-6.9-.2-7.1-7.5-.1-2.3,0-4.7,0-7q0-132.42,0-264.95c0-31-.5-62-2.5-92.88-1.4-21.6-4.6-43-12.3-63.49-14.7-39.39-42.89-62.29-84.18-69.49a155.91,155.91,0,0,0-81.48,7.3c-45.79,16.7-70.79,51.09-81.38,97.38-4.1,17.6-4.2,35.59-4.2,53.59v333.73c0,14.72,1.19,13-13.52,13.13-27.85.1-55.69,0-83.54,0-10.84,0-10.94,0-10.94-10.74V1584c0-22.73.4-45.36-1.4-68-1.3-16.22-3.3-32.54-8.71-48.06-15-42.45-44.66-67.89-88.91-75.8-30.84-5.51-61.18-2-90.52,8.21-37.35,12.92-61.88,39.35-76.3,75.7-10.41,26.43-14.12,54.07-14.42,82.21-1.2,109.14-.2,218.28-.6,327.42-.1,16.82,1.7,14.42-14.22,14.52-28.34.1-56.77,0-85.11,0-9.71,0-9.71-.1-9.81-9.81V1318.15c0-2.7-.1-5.3,0-8,.2-7.4.2-7.6,8-7.6q46.49-.15,93,0c7.7,0,7.9.2,7.9,7.8.1,11.7,0,23.3.1,35,0,2.5-1,5.3.9,7.4,1.9.2,2.4-1.1,3.1-2.2,19.3-30.09,48.09-47.49,81.08-58.39,34.29-11.2,69.39-14.1,105.38-10.2,22.8,2.5,45.59,4.5,68,10.1,31,7.8,59.79,20.6,85.08,40.49C641,1339.35,648.31,1347.15,655.9,1356.35Z" transform="translate(-2 -2)"/><path class="cls-1" d="M3410.63,1900H2948c-13.77,0-12,1.3-12-12.51V1163.31c0-13.51-1.6-12.31,12.28-12.31h81.84c10.38,0,9.88-.5,9.88,9.71v623.53c0,12.86-2.09,11.77,11.47,11.77h284.08c2.69,0,5.28,0,8,.1s4.19,1.3,5,3.89c11.37,37.59,34.2,67.8,60.63,95.92C3409.63,1896.51,3409.73,1897.61,3410.63,1900Z" transform="translate(-2 -2)"/><path class="cls-1" d="M2106.1,691c5.8,6.4,8.9,14,8.3,18.9-.5,18.3-7.3,28.6-20.1,34.7-13.4,6.4-26,4-36.9-5.6-6-5.2-11.1-11.4-16.5-17.3-12.2-13.2-24.3-26.4-36.5-39.6a72,72,0,0,1-5.2-6c-11.2-15.3-9.3-34.3,4.8-46.7s33.3-12.2,46.6,1.6C2069.5,650.6,2087.7,670.9,2106.1,691Z" transform="translate(-2 -2)"/><path class="cls-1" d="M2238.1,680.5c-.3,39.6-.1,79.3-.1,118.9V919.3c0,20.8-12.5,35.4-32.9,38.5-12.9,2-31-10.8-34.9-24.8a66.06,66.06,0,0,1-2.2-17.7c.1-72.6,0-145.2.2-217.8a22.91,22.91,0,0,0-6.6-16.8c-25.2-27.1-50-54.5-74.9-81.8-2-2.2-4-4.5-5.8-6.8-11.8-15.4-10-34.8,4.3-47.5,13.7-12.2,33.5-11.8,46.8,2.1,16.6,17.3,32.5,35.3,48.7,53,15.3,16.7,30.4,33.6,45.8,50.2C2234.4,658.5,2238.2,668.4,2238.1,680.5Z" transform="translate(-2 -2)"/><path class="cls-1" d="M2267,537.6c-24.6-.1-45.8-21.7-44.7-46.5-.5-23.6,20.9-45.4,46.2-45.1,25.5.3,45.8,22.8,45.3,46.1C2313.2,517.9,2293.1,537.7,2267,537.6Z" transform="translate(-2 -2)"/><path class="cls-1" d="M2376.6,680.4a24.84,24.84,0,0,0-7.2,18.6c.3,70.9.1,141.9.2,212.8a107,107,0,0,1-1.2,17.9c-2.6,15.3-19.4,29.8-34.2,28-19.8-2.3-33.6-14.5-34.1-36.2-.6-23.3-.1-46.6-.1-69.9v-53c0-39.6.1-79.3-.1-118.9a41.67,41.67,0,0,1,11.5-29.8c31-33.9,61.8-68,92.8-101.9,13.8-15.1,34.5-16.3,49.1-3.3s15.8,33.9,2.2,49.2Q2416.2,637.55,2376.6,680.4Z" transform="translate(-2 -2)"/><path class="cls-1" d="M2535.4,677.4c-18.1,20.4-36.5,40.5-55.5,60.1-10.3,10.7-23.3,13.6-37.5,7.7a34.08,34.08,0,0,1-21-32.2,29.35,29.35,0,0,1,8.2-21.8c18.1-19.9,36.2-39.9,54.7-59.5,9.4-9.9,21.2-13.7,34.5-9.5,12.2,3.9,20.1,12,23.7,24.7C2545.7,658.6,2542.9,668.9,2535.4,677.4Z" transform="translate(-2 -2)"/><path class="cls-1" d="M2238,799.4V919.3c0,20.8-12.5,35.4-32.9,38.5-12.9,2-31-10.8-34.9-24.8a66.06,66.06,0,0,1-2.2-17.7c.1-72.6,0-145.2.2-217.8a22.91,22.91,0,0,0-6.6-16.8c-25.2-27.1-50-54.5-74.9-81.8-2-2.2-4-4.5-5.8-6.8-11.8-15.4-10-34.8,4.3-47.5,13.7-12.2,33.5-11.8,46.8,2.1,16.6,17.3,32.5,35.3,48.7,53,15.3,16.7,30.4,33.6,45.8,50.2,8.1,8.7,11.9,18.7,11.8,30.7C2237.8,720.1,2238,759.8,2238,799.4Z" transform="translate(-2 -2)"/><path class="cls-1" d="M2455.3,594q-38.85,43.5-78.7,86.4a24.84,24.84,0,0,0-7.2,18.6c.3,70.9.1,141.9.2,212.8a107,107,0,0,1-1.2,17.9c-2.6,15.3-19.4,29.8-34.2,28-19.8-2.3-33.6-14.5-34.1-36.2-.6-23.3-.1-46.6-.1-69.9v-53c0-39.6.1-79.3-.1-118.9a41.67,41.67,0,0,1,11.5-29.8c31-33.9,61.8-68,92.8-101.9,13.8-15.1,34.5-16.3,49.1-3.3C2467.7,557.8,2469,578.7,2455.3,594Z" transform="translate(-2 -2)"/><path class="cls-1" d="M2114.5,709.8c-.5,18.3-7.3,28.6-20.1,34.7-13.4,6.4-26,4-36.9-5.6-6-5.2-11.1-11.4-16.5-17.3-12.2-13.2-24.3-26.4-36.5-39.6a72,72,0,0,1-5.2-6c-11.2-15.3-9.3-34.3,4.8-46.7s33.3-12.2,46.6,1.6c18.9,19.6,37.2,39.8,55.6,60C2111.9,697.3,2115,705,2114.5,709.8Z" transform="translate(-2 -2)"/><path class="cls-1" d="M2535.4,677.4c-18.1,20.4-36.5,40.5-55.5,60.1-10.3,10.7-23.3,13.6-37.5,7.7a34.08,34.08,0,0,1-21-32.2,29.35,29.35,0,0,1,8.2-21.8c18.1-19.9,36.2-39.9,54.7-59.5,9.4-9.9,21.2-13.7,34.5-9.5,12.2,3.9,20.1,12,23.7,24.7C2545.7,658.6,2542.9,668.9,2535.4,677.4Z" transform="translate(-2 -2)"/><path class="cls-1" d="M2313.8,492.1c-.6,25.8-20.8,45.6-46.8,45.5-24.6-.1-45.8-21.7-44.7-46.5-.5-23.6,20.9-45.4,46.2-45.1C2294,446.3,2314.4,468.8,2313.8,492.1Z" transform="translate(-2 -2)"/></svg>