<svg id="Camada_1" data-name="Camada 1" xmlns="http://www.w3.org/2000/svg" viewBox="0 0 1147.73 136.65"><defs><style>.cls-1{fill:#fff;}</style></defs><title>7-NIARA MEIRELE</title><path class="cls-1" d="M0,41.26H27.45v7.87a50.32,50.32,0,0,1,6.68-3.93,47,47,0,0,1,6.63-2.65A49.06,49.06,0,0,1,46.93,41a32.08,32.08,0,0,1,5.4-.5,52,52,0,0,1,7.46.59A44.15,44.15,0,0,1,68,43.18a40.45,40.45,0,0,1,8.1,3.93,28.45,28.45,0,0,1,7,6.18,29.61,29.61,0,0,1,4.85,8.83,35,35,0,0,1,1.83,11.8v62.67A27,27,0,0,1,79,134.44a28,28,0,0,1-8.78-5.86,27.29,27.29,0,0,1-8-19.44V63a17.4,17.4,0,0,0-3.8-11.4,11.47,11.47,0,0,0-4.85-3.39,20.73,20.73,0,0,0-7.23-1.1,23.47,23.47,0,0,0-9.83,2.29A55.88,55.88,0,0,0,27,54.89a70.45,70.45,0,0,0-8,6.63Q15.55,65,13.72,67.15a21.37,21.37,0,0,1,6.86,3.11A19.88,19.88,0,0,1,25.3,75.2a13.88,13.88,0,0,1,2.15,8.05v51.69H0Z" transform="translate(0 0)"/><path class="cls-1" d="M115.55,26.9a13.34,13.34,0,0,1-4.3-10.34,13.13,13.13,0,0,1,4.3-10.16,15.31,15.31,0,0,1,10.89-4.12,13.58,13.58,0,0,1,10,4.12,13.75,13.75,0,0,1,3.93,10.16,14,14,0,0,1-3.93,10.34,13.58,13.58,0,0,1-10,4.12A15.31,15.31,0,0,1,115.55,26.9ZM111.8,39.07v71.55a26.24,26.24,0,0,0,2.74,10.2,29.26,29.26,0,0,0,6.13,8.23,28,28,0,0,0,8.69,5.54,27.63,27.63,0,0,0,10.52,2V65.14a28.43,28.43,0,0,0-2.79-10.25A28,28,0,0,0,131,46.61a28.77,28.77,0,0,0-8.69-5.54A27.3,27.3,0,0,0,111.8,39.07Z" transform="translate(0 0)"/><path class="cls-1" d="M246.84,134.86A27.51,27.51,0,0,1,236,132.71a28,28,0,0,1-8.87-5.9A29.17,29.17,0,0,1,221,118a26.8,26.8,0,0,1-2.38-10.8v-1.74a18,18,0,0,1,1-6.45,14.49,14.49,0,0,1,2.47-4.3,11.51,11.51,0,0,1,3.25-2.65,15.45,15.45,0,0,1,3.34-1.37,12.85,12.85,0,0,1,2.7-.46h1.33a26.05,26.05,0,0,0-2.93-2.29q-1.74-1.19-3.66-2.33a43.84,43.84,0,0,0-3.89-2.06,24,24,0,0,0-3.61-1.37,39.31,39.31,0,0,0-11.16-1.46,22.14,22.14,0,0,0-8.55,1.65,20.51,20.51,0,0,0-7,4.71,22.39,22.39,0,0,0-4.71,7.46,26.91,26.91,0,0,0-1.74,10q0,10.34,4.48,17.2,4.39,6.59,11.8,6.59a18.91,18.91,0,0,0,12.08-4.21v3a38.11,38.11,0,0,1-25.43,9.51q-13.45,0-22.51-8.51a27.48,27.48,0,0,1-9.24-21.23q0-13.08,10.8-21.87,11-8.78,30.28-8.78,2.2,0,4.94.23t5.58.64q2.84.41,5.54,1a43,43,0,0,1,4.8,1.33V41.35A27.53,27.53,0,0,1,229.5,43.5a28.08,28.08,0,0,1,8.87,5.9,28.75,28.75,0,0,1,6,8.74,27,27,0,0,1,2.33,10.75h.09ZM187,62.49a12.21,12.21,0,0,1-3.84-9.24A12.41,12.41,0,0,1,187,44a13.81,13.81,0,0,1,4.44-2.74,15.35,15.35,0,0,1,5.44-.92A12.49,12.49,0,0,1,205.76,44a12.9,12.9,0,0,1,3.57,9.24,12.7,12.7,0,0,1-3.57,9.24,12.49,12.49,0,0,1-8.87,3.66,15.31,15.31,0,0,1-5.44-.92A13.76,13.76,0,0,1,187,62.49Z" transform="translate(0 0)"/><path class="cls-1" d="M269.35,39.07a27.3,27.3,0,0,1,10.48,2,28.77,28.77,0,0,1,8.69,5.54,28,28,0,0,1,6.13,8.28,28.45,28.45,0,0,1,2.79,10.25v71.45a27.63,27.63,0,0,1-10.52-2,28,28,0,0,1-8.69-5.54,29.26,29.26,0,0,1-6.13-8.23,26.23,26.23,0,0,1-2.74-10.2Zm36.78,23.42a12.21,12.21,0,0,1-3.84-9.24A12.41,12.41,0,0,1,306.13,44a14.25,14.25,0,0,1,9.79-3.66,12.6,12.6,0,0,1,9,3.66,12.9,12.9,0,0,1,3.57,9.24,12.36,12.36,0,0,1-11.81,12.89H316A14.24,14.24,0,0,1,306.13,62.49Z" transform="translate(0 0)"/><path class="cls-1" d="M428.08,134.86a27.51,27.51,0,0,1-10.84-2.15,28,28,0,0,1-8.87-5.9,29.17,29.17,0,0,1-6.08-8.78,26.8,26.8,0,0,1-2.38-10.8v-1.74a18,18,0,0,1,1-6.45,14.49,14.49,0,0,1,2.47-4.3,11.51,11.51,0,0,1,3.25-2.65A15.45,15.45,0,0,1,410,90.71a12.85,12.85,0,0,1,2.7-.46H414A26.05,26.05,0,0,0,411.1,88q-1.74-1.19-3.66-2.33a43.84,43.84,0,0,0-3.89-2.06,24,24,0,0,0-3.61-1.37,39.31,39.31,0,0,0-11.16-1.46,22.14,22.14,0,0,0-8.55,1.65,20.51,20.51,0,0,0-7,4.71,22.39,22.39,0,0,0-4.71,7.46,26.91,26.91,0,0,0-1.74,10q0,10.34,4.48,17.2,4.39,6.59,11.8,6.59a18.91,18.91,0,0,0,12.08-4.21v3a38.11,38.11,0,0,1-25.43,9.51q-13.45,0-22.51-8.51a27.48,27.48,0,0,1-9.2-21.28Q338,93.78,348.8,85q11-8.78,30.28-8.78,2.2,0,4.94.23t5.58.64q2.84.41,5.54,1a43,43,0,0,1,4.8,1.33V41.35a27.53,27.53,0,0,1,10.84,2.15,28.08,28.08,0,0,1,8.87,5.9,28.75,28.75,0,0,1,6,8.74A27,27,0,0,1,428,68.89h.09ZM368.25,62.49a12.21,12.21,0,0,1-3.84-9.24A12.41,12.41,0,0,1,368.25,44a13.81,13.81,0,0,1,4.44-2.74,15.35,15.35,0,0,1,5.44-.92A12.49,12.49,0,0,1,387,44a12.9,12.9,0,0,1,3.57,9.24A12.7,12.7,0,0,1,387,62.49a12.49,12.49,0,0,1-8.87,3.66,15.31,15.31,0,0,1-5.44-.92A13.76,13.76,0,0,1,368.25,62.49Z" transform="translate(0 0)"/><path class="cls-1" d="M613.16,40.53a52,52,0,0,1,7.46.59,43.1,43.1,0,0,1,8.19,2.06,40.89,40.89,0,0,1,8,3.93,28.44,28.44,0,0,1,7,6.18,29.59,29.59,0,0,1,4.85,8.83,35,35,0,0,1,1.83,11.8v62.67a27.37,27.37,0,0,1-27.44-27.44V63a17.4,17.4,0,0,0-3.9-11.4q-3.84-4.48-12.17-4.48a20.66,20.66,0,0,0-5.81.87,34,34,0,0,0-5.86,2.33,54.27,54.27,0,0,0-5.67,3.34q-2.79,1.88-5.26,3.89a73.48,73.48,0,0,0-5.86,5.21,55.51,55.51,0,0,0-4,4.39,21.37,21.37,0,0,1,6.86,3.11,19.89,19.89,0,0,1,4.71,4.94,13.88,13.88,0,0,1,2.15,8.05v53.34a27,27,0,0,1-10.7-2.15,28,28,0,0,1-8.78-5.86,27.3,27.3,0,0,1-8-19.44V63a17.4,17.4,0,0,0-3.86-11.4,11.47,11.47,0,0,0-4.9-3.39,20.72,20.72,0,0,0-7.23-1.1A23.47,23.47,0,0,0,535,49.4a55.93,55.93,0,0,0-9.42,5.49,70.49,70.49,0,0,0-8,6.63q-3.52,3.43-5.35,5.63a21.37,21.37,0,0,1,6.86,3.11,19.87,19.87,0,0,1,4.71,4.94,13.88,13.88,0,0,1,2.2,8.06v51.69H498.53V41.26H526v7.87a50.33,50.33,0,0,1,6.68-3.93,46.93,46.93,0,0,1,6.63-2.65A49,49,0,0,1,545.46,41a32.1,32.1,0,0,1,5.4-.5,50.16,50.16,0,0,1,7.55.64,45.11,45.11,0,0,1,8.37,2.15,40.48,40.48,0,0,1,8.14,4,28,28,0,0,1,7,6.36q1.83-1.28,3.52-2.56a34.81,34.81,0,0,1,2.88-2,58,58,0,0,1,13.4-6.5A38.22,38.22,0,0,1,613.16,40.53Z" transform="translate(0 0)"/><path class="cls-1" d="M742.53,129.18A23.6,23.6,0,0,0,753,119.39l2.2,1.1a24.78,24.78,0,0,1-5.44,6.54,34.8,34.8,0,0,1-8.46,5.26,52.68,52.68,0,0,1-6.68,2.52,42.72,42.72,0,0,1-7.32,1.51q-1.65.18-3.38.23t-3.57,0q-23.15,0-38-13.72t-15-34.4q0-20.49,14.27-34.22,14-13.63,34.86-13.63a63.39,63.39,0,0,1,18.94,2.79A38.83,38.83,0,0,1,751,52.47a19,19,0,0,1,3.2,4.21,21.47,21.47,0,0,1,2.33,6,24,24,0,0,1,.55,7A17.77,17.77,0,0,1,754.81,77a25,25,0,0,1-6.13,7.14,40.78,40.78,0,0,1-11,6.18A91.26,91.26,0,0,1,720.85,95a159.07,159.07,0,0,1-23.79,2.33q-2.65.18-5.44.23t-5.9.14a24.69,24.69,0,0,1,5.76,1.92,18,18,0,0,1,4.48,3.16,12,12,0,0,1,3.2,5.26q3.47,11.8,10.52,18.12t17.57,6.59A33.7,33.7,0,0,0,742.53,129.18ZM702.18,54.53q-5.67,11.35-6,29.09,0,2.74.09,5.4t.37,5.12a74.45,74.45,0,0,0,18.71-4,39.62,39.62,0,0,0,11.71-6.59,22.46,22.46,0,0,0,6.18-8,25.73,25.73,0,0,0,.09-20.45,22.74,22.74,0,0,0-6.45-8.55,16.06,16.06,0,0,0-10.29-3.16Q707.67,43.37,702.18,54.53Z" transform="translate(0 0)"/><path class="cls-1" d="M778,26.9a13.35,13.35,0,0,1-4.3-10.34A13.14,13.14,0,0,1,778,6.4a15.31,15.31,0,0,1,10.89-4.12,13.58,13.58,0,0,1,10,4.12,13.75,13.75,0,0,1,3.93,10.16,14,14,0,0,1-3.93,10.34,13.58,13.58,0,0,1-10,4.12A15.31,15.31,0,0,1,778,26.9Zm-3.75,12.17v71.55a26.24,26.24,0,0,0,2.75,10.2,29.25,29.25,0,0,0,6.13,8.23,28,28,0,0,0,8.69,5.54,27.63,27.63,0,0,0,10.52,2V65.14a28.45,28.45,0,0,0-2.79-10.25,28,28,0,0,0-6.13-8.28,28.76,28.76,0,0,0-8.69-5.54,27.3,27.3,0,0,0-10.45-2Z" transform="translate(0 0)"/><path class="cls-1" d="M825.79,39.07a27.3,27.3,0,0,1,10.48,2A28.79,28.79,0,0,1,845,46.61a28,28,0,0,1,6.13,8.28,28.43,28.43,0,0,1,2.79,10.25v71.45a27.64,27.64,0,0,1-10.52-2,28,28,0,0,1-8.69-5.54,29.28,29.28,0,0,1-6.13-8.23,26.25,26.25,0,0,1-2.74-10.2Zm36.78,23.42a12.22,12.22,0,0,1-3.84-9.24A12.41,12.41,0,0,1,862.56,44a14.25,14.25,0,0,1,9.79-3.66,12.6,12.6,0,0,1,9,3.66,12.9,12.9,0,0,1,3.57,9.24,12.36,12.36,0,0,1-11.81,12.89h-.72a14.24,14.24,0,0,1-9.83-3.65Z" transform="translate(0 0)"/><path class="cls-1" d="M970.62,129.18A23.6,23.6,0,0,0,981,119.39l2.2,1.1a24.78,24.78,0,0,1-5.4,6.51,34.8,34.8,0,0,1-8.46,5.26,52.68,52.68,0,0,1-6.68,2.52,42.72,42.72,0,0,1-7.32,1.51q-1.65.18-3.38.23t-3.57,0q-23.15,0-38-13.72-15-13.63-15-34.4,0-20.49,14.27-34.22,14-13.63,34.86-13.63a63.39,63.39,0,0,1,18.94,2.79A38.83,38.83,0,0,1,979,52.52a19,19,0,0,1,3.2,4.21,21.47,21.47,0,0,1,2.33,6,24,24,0,0,1,.55,7,17.77,17.77,0,0,1-2.24,7.41,25,25,0,0,1-6.13,7.14,40.78,40.78,0,0,1-11,6.18A91.26,91.26,0,0,1,948.93,95a159.07,159.07,0,0,1-23.79,2.33q-2.65.18-5.44.23t-5.9.14a24.69,24.69,0,0,1,5.76,1.92,18,18,0,0,1,4.48,3.16,12,12,0,0,1,3.2,5.26q3.47,11.8,10.52,18.12t17.57,6.59A33.7,33.7,0,0,0,970.62,129.18ZM930.27,54.53q-5.67,11.35-6,29.09,0,2.74.09,5.4t.37,5.12a74.45,74.45,0,0,0,18.71-4,39.62,39.62,0,0,0,11.71-6.59,22.46,22.46,0,0,0,6.18-8,25.73,25.73,0,0,0,.09-20.45A22.74,22.74,0,0,0,955,46.52a16.06,16.06,0,0,0-10.29-3.16Q935.76,43.37,930.27,54.53Z" transform="translate(0 0)"/><path class="cls-1" d="M1040.6,135.63a50.35,50.35,0,0,1-9.61,1,27.88,27.88,0,0,1-10.89-2.15,27.49,27.49,0,0,1-8.92-5.95,29.75,29.75,0,0,1-6.08-8.83,26.8,26.8,0,0,1-2.38-10.8V0a27.3,27.3,0,0,1,10.48,2,28.78,28.78,0,0,1,8.69,5.54,28,28,0,0,1,6.13,8.28,28.43,28.43,0,0,1,2.79,10.25l.18,91.12a15.19,15.19,0,0,0,3.66,10.34,11.54,11.54,0,0,0,9,4.12,11.26,11.26,0,0,0,4.12-.82l1.56,1.92A32.74,32.74,0,0,1,1040.6,135.63Z" transform="translate(0 0)"/><path class="cls-1" d="M1133.19,129.18a23.6,23.6,0,0,0,10.43-9.79l2.2,1.1a24.78,24.78,0,0,1-5.44,6.54,34.8,34.8,0,0,1-8.46,5.26,52.68,52.68,0,0,1-6.68,2.52,42.72,42.72,0,0,1-7.32,1.51q-1.65.18-3.38.23t-3.57,0q-23.15,0-38-13.72-15-13.63-15-34.4,0-20.49,14.27-34.22,14-13.63,34.86-13.63A63.39,63.39,0,0,1,1126,43.37a38.83,38.83,0,0,1,15.55,9.1,19,19,0,0,1,3.2,4.21,21.47,21.47,0,0,1,2.33,6,24,24,0,0,1,.55,7,17.77,17.77,0,0,1-2.24,7.41,25.05,25.05,0,0,1-6.13,7.14,40.78,40.78,0,0,1-11,6.18A91.26,91.26,0,0,1,1111.51,95a159.07,159.07,0,0,1-23.79,2.33q-2.65.18-5.44.23t-5.9.14a24.69,24.69,0,0,1,5.76,1.92,18,18,0,0,1,4.48,3.16,12,12,0,0,1,3.2,5.26q3.47,11.8,10.52,18.12t17.57,6.59A33.7,33.7,0,0,0,1133.19,129.18Zm-40.35-74.66q-5.67,11.35-5.95,29.09,0,2.74.09,5.4t.37,5.12a74.45,74.45,0,0,0,18.71-4,39.62,39.62,0,0,0,11.71-6.59,22.46,22.46,0,0,0,6.18-8,25.73,25.73,0,0,0,.09-20.45,22.74,22.74,0,0,0-6.45-8.55,16.06,16.06,0,0,0-10.29-3.16q-9,0-14.45,11.15Z" transform="translate(0 0)"/></svg>