<svg id="Camada_1" data-name="Camada 1" xmlns="http://www.w3.org/2000/svg" viewBox="0 0 1021 1112.5"><defs><style>.cls-1{fill:#fff;}</style></defs><title>8-RW7 FILMES</title><path class="cls-1" d="M925,338.51q-11.53,15.43-25,32.86-20.66,26.79-42.59,66.55t-40.18,97.17a426.25,426.25,0,0,0-10.89,42q-3.21,16.68-7,43.29t-6.73,40.73q-6.72,32.71-19.05,45.38t-32.82,12.67q-19.53,0-31.38-13.63t-11.85-40.25q0-20.52,8.65-55.8T734.31,525A823.67,823.67,0,0,1,852.78,320.86H681.47q-26.89,0-40.18-9.78T628,280.46q0-22.14,14.09-28.55t39.38-6.41H889.3C814.14,99.62,663.09,0,489,0,239.92,0,38,203.93,38,455.5c0,166.92,88.89,312.87,221.48,392.18a20.27,20.27,0,0,0-2.23,2.3Q251,857.46,251,872.06v210.88q0,14.23,6.42,21.9a20.76,20.76,0,0,0,16.7,7.66,21.79,21.79,0,0,0,17-7.39q6.59-7.39,6.59-22.17V872.06c0-1.38,0-2.71-.13-4A445.51,445.51,0,0,0,489,911c249.08,0,451-203.93,451-455.5A460.25,460.25,0,0,0,925,338.51ZM355.21,519.45q-7.79,7.45-16.82,7.45-3.39,0-16.37-4.24t-22.92-4.24q-13.54,0-22.12,7.22T263.66,547.1q-4.74,14.22-6.55,33.84t-1.81,47.83v52.31q0,19.05-8.8,28.57t-22.35,9.52a28,28,0,0,1-21.9-9.64q-8.59-9.63-8.58-28.45V506.72q0-42.22,30-42.22,15.36,0,22.13,9.87t7.45,29.13q11.05-19.27,22.69-29.13t31-9.87a78.43,78.43,0,0,1,37.7,9.87Q363,484.23,363,500.52,363,512,355.21,519.45ZM657.12,697.37a41.06,41.06,0,0,1-11.47,15.14q-7.83,6.66-21.45,6.66-14.08,0-22.14-7.12a43,43,0,0,1-11.92-17.43q-3.85-10.34-8.4-26.85L546.33,545.72,512,667.77q-6.81,25.47-14.75,38.43t-27.93,13q-10.21,0-17.37-4a33.53,33.53,0,0,1-11.91-11.47,86,86,0,0,1-8.4-17.67Q428,675.81,426,669.84L375.83,519.79q-7.5-21.11-7.5-29.13,0-10.09,8-18.13a26.42,26.42,0,0,1,19.52-8q15.45,0,20.89,8.83t11.58,30.17l40.41,140,36.78-130.09q5.89-20.41,8.74-27.88t10.67-14.22q7.83-6.77,21.46-6.77,13.84,0,21.68,6.77A38.61,38.61,0,0,1,579,486q3.18,7.92,8.85,27.42l36.78,130.09,40.87-140q4.08-15.14,6.58-21.91a29.06,29.06,0,0,1,8.4-11.93q5.91-5.16,17-5.16a27,27,0,0,1,19.3,7.8q8.17,7.8,8.17,18.36,0,9.63-7,29.13L667.33,669.84Q660.74,688.89,657.12,697.37Z"/><path class="cls-1" d="M97.27,842.5q-23.58,0-37.11,6.14A36.41,36.41,0,0,0,41,868.24q-5.69,13.44-5.68,36.24v14.6H23.92Q0,919.08,0,936.54a15.92,15.92,0,0,0,5.76,12.73q5.76,4.9,16.42,4.9H35.27v128.76q0,14.43,6.73,22a21.58,21.58,0,0,0,16.85,7.57,22.14,22.14,0,0,0,17.37-7.57q6.72-7.56,6.73-22V954.17h11.7q12.73,0,20-3.21t7.25-15.14q0-16.74-27.24-16.74H83V907.51q0-14.43,3.66-22.18t16.59-7.75a76.68,76.68,0,0,1,11.53,1.07,71,71,0,0,0,9.6,1.07,13.47,13.47,0,0,0,10.3-4.81A16.6,16.6,0,0,0,139,863.34Q139,842.51,97.27,842.5Z"/><path class="cls-1" d="M191.94,848.6a24.08,24.08,0,0,0-16.18-6.1,23.48,23.48,0,0,0-16.62,6.73A22.55,22.55,0,0,0,152,866.38q0,11.49,7,17.77a24.21,24.21,0,0,0,16.79,6.28,23.25,23.25,0,0,0,16.35-6.37q6.89-6.37,6.89-17.68Q199,854.71,191.94,848.6Zm.35,72a22.06,22.06,0,0,0-17-7.36,21.26,21.26,0,0,0-16.78,7.36Q152,928,152,942.49V1082.7q0,14.37,6.46,22.08a20.86,20.86,0,0,0,16.78,7.72,21.82,21.82,0,0,0,17-7.54q6.71-7.54,6.71-22.26V941.06Q199,928,192.29,920.59Z"/><path class="cls-1" d="M607,946a48.82,48.82,0,0,0-20.59-22.36q-13.78-7.81-32.85-7.81A62.16,62.16,0,0,0,523.82,923q-13.44,7.19-25.19,22.1-8.16-14.73-20.76-22t-30.12-7.27A65.93,65.93,0,0,0,417.12,923q-13.79,7.11-25.87,22.19v-4.62q0-11.7-6.38-18.37A21.18,21.18,0,0,0,369,915.5,19.88,19.88,0,0,0,353,922.6q-6,7.1-6,20.76V1082q0,15.09,6.72,22.81A21.85,21.85,0,0,0,371,1112.5q10.71,0,17.27-7.72t6.55-22.81v-65.48q0-30.52,7.24-46.86t30-16.33q11.4,0,16.68,6.48t6.47,16.6a259.41,259.41,0,0,1,1.19,28.39V1082q0,15.27,6.55,22.9a21.49,21.49,0,0,0,17.1,7.63q10.89,0,17.53-7.63t6.64-22.9v-64.42q0-31.06,5.11-43.3A38.07,38.07,0,0,1,522.21,959a30.29,30.29,0,0,1,17.44-5.68q11.4,0,17,6.39a29.31,29.31,0,0,1,6.89,15.8,194.54,194.54,0,0,1,1.28,25V1082q0,15.09,6.72,22.81a21.85,21.85,0,0,0,17.27,7.72q10.89,0,17.53-7.63T613,1082V987.38Q613,959.17,607,946Z"/><path class="cls-1" d="M809.35,1046.07q-6.62,0-10.17,3.19-8.66,8.49-14.08,13.46a101.17,101.17,0,0,1-11.87,9.3,48.23,48.23,0,0,1-13.31,6.38,53.17,53.17,0,0,1-15.17,2,42.07,42.07,0,0,1-22.64-6.38q-10.26-6.39-16.45-19t-6.35-29h90.54q18.13,0,28.15-5.41T828,997a84.09,84.09,0,0,0-9.67-38.62q-9.66-18.95-29.07-30.91t-46.55-12a99.45,99.45,0,0,0-38,7,77,77,0,0,0-28.82,20.11A88.61,88.61,0,0,0,658.1,974a125.2,125.2,0,0,0-6.1,39.77q0,45.54,24.75,72.11t69.35,26.57q19.5,0,34.51-5.31t24.92-13.38q9.93-8.05,14.84-16.83t4.92-15.32c0-5-1.47-8.8-4.41-11.52S814.1,1046.07,809.35,1046.07Zm-96.56-84.42q11.1-12.5,28.4-12.49,18.14,0,29.25,12.31t12.8,37.12H699.31Q701.68,974.14,712.79,961.65Z"/><path class="cls-1" d="M1013.95,1025.45q-7-10.38-20.72-18T958,994.3q-18.18-4.62-28.54-7.81T913,978.42a15.34,15.34,0,0,1-6.11-12.52q0-8.34,8.32-13.93t20.9-5.59q12.22,0,19.36,4.26A42.53,42.53,0,0,1,967.83,962a82.15,82.15,0,0,0,11.47,12.78A18.12,18.12,0,0,0,991.44,979q9.86,0,15.21-5.33A18.47,18.47,0,0,0,1012,960q0-7.63-5-15.62a50.79,50.79,0,0,0-14.61-14.55q-9.6-6.57-24-10.47a123.11,123.11,0,0,0-32.36-3.91q-22.94,0-39.16,7.72T872.36,943.9A50,50,0,0,0,864,971.4q0,16.33,9,27.52t24,18q15,6.82,39,13,21.22,5.33,30.49,11.18t9.25,18.64q0,8.34-8.91,14.82t-22.85,6.48q-17.16,0-27.1-6.39t-17.07-19.35a41.07,41.07,0,0,0-7.47-10.47q-3.91-3.72-11.21-3.73a18.25,18.25,0,0,0-13.76,5.68A19,19,0,0,0,862,1060.5q0,12.07,8.5,24t26.33,20q17.82,8,42.8,8,26.16,0,44.42-7.37t27.61-21.65q9.33-14.28,9.34-34.34A41.18,41.18,0,0,0,1013.95,1025.45Z"/></svg>