<svg id="Camada_1" data-name="Camada 1" xmlns="http://www.w3.org/2000/svg" viewBox="0 0 1377.9 1331.31"><defs><style>.cls-1{fill:#fff;}</style></defs><title>9-PEPSI 2024</title><path class="cls-1" d="M254.74,541.88H118.05V786h87.76V739.5l63-22.76c53.29-18.91,92.33-38.92,92.33-93.09C361.17,571.35,325.76,541.88,254.74,541.88ZM239,663.18l-33.22,13V602.91h35.57c19.52,0,30.87,9,30.87,24.56C272.25,646.4,260.28,655.48,239,663.18Z" transform="translate(0 0)"/><polygon class="cls-1" points="608.54 724.92 608.54 786.02 385.61 786.02 385.61 541.84 607.01 541.84 607.01 602.94 473.33 602.94 473.33 634.55 578.44 634.55 578.44 693.31 473.33 693.31 473.33 724.92 608.54 724.92"/><path class="cls-1" d="M780.46,541.88H643.77V786h87.76V739.5l63-22.76c53.28-18.91,92.33-38.92,92.33-93.09C886.89,571.35,851.48,541.88,780.46,541.88Zm-15.72,121.3-33.21,13V602.91h35.56c19.53,0,30.87,9,30.87,24.56C798,646.4,786,655.48,764.74,663.18Z" transform="translate(0 0)"/><path class="cls-1" d="M1145,713.21c0,51.71-49.25,81-119.78,81-74.08,0-123.78-19.94-140.43-61.78l70.44-25.64c9.69,19.18,33.64,27.78,69.45,27.78,23.84,0,35-6.24,35-16.67,0-34.5-157.23-10.41-157.23-103.9,0-50.24,48.51-77.65,114.21-77.65,78,0,113.56,26.06,122.48,60.19l-71.06,26c-5.66-17.41-21-26-48.84-26-20.11,0-31.47,7.19-31.47,16.67C987.75,645.79,1145,623.6,1145,713.21Z" transform="translate(0 0)"/><path class="cls-1" d="M1255.48,903.86c-99.61,215.64-321.82,358.8-567,358.8-245.49,0-467.64-141.56-565.65-358.8,66.12,22.1,151.34,32.28,245,32.28,214.36,0,430.7-74.37,638.83-74.37C1088.82,861.77,1178.93,878.8,1255.48,903.86Z" transform="translate(0 0)"/><path class="cls-1" d="M1255.14,428.19c-66.12-22.1-151.34-32.28-245-32.28-214.36,0-430.7,74.37-638.83,74.37-82.18,0-172.28-17-248.83-42.09,99.6-215.64,321.81-358.8,567-358.8C935,69.39,1157.13,210.95,1255.14,428.19Z" transform="translate(0 0)"/><polygon class="cls-1" points="1259.26 537.91 1259.26 786.02 1169.88 786.02 1170.52 568.28 1259.26 537.91"/><path class="cls-1" d="M1323.75,406.55c-34.7-79.27-84.37-150.46-147.64-211.58a688.55,688.55,0,0,0-219-142.65,713.48,713.48,0,0,0-536.36,0A688.55,688.55,0,0,0,201.79,195C138.52,256.09,88.85,327.28,54.15,406.55a647,647,0,0,0,0,518.22c34.7,79.27,84.37,150.45,147.64,211.58a688.35,688.35,0,0,0,219,142.64c85,34.72,175.18,52.32,268.18,52.32A705.38,705.38,0,0,0,957.13,1279a688.35,688.35,0,0,0,219-142.64c63.27-61.13,112.94-132.31,147.64-211.58a647,647,0,0,0,0-518.22ZM689,1306.74c-366.45,0-663.52-287-663.52-641.08S322.5,24.58,689,24.58s663.52,287,663.52,641.08S1055.4,1306.74,689,1306.74Z" transform="translate(0 0)"/><path d="M254.74,541.88H118.05V786h87.76V739.5l63-22.76c53.29-18.91,92.33-38.92,92.33-93.09C361.17,571.35,325.76,541.88,254.74,541.88ZM239,663.18l-33.22,13V602.91h35.57c19.52,0,30.87,9,30.87,24.56C272.25,646.4,260.28,655.48,239,663.18Z" transform="translate(0 0)"/><polygon points="608.54 724.92 608.54 786.02 385.61 786.02 385.61 541.84 607.01 541.84 607.01 602.94 473.33 602.94 473.33 634.55 578.44 634.55 578.44 693.31 473.33 693.31 473.33 724.92 608.54 724.92"/><path d="M780.46,541.88H643.77V786h87.76V739.5l63-22.76c53.28-18.91,92.33-38.92,92.33-93.09C886.89,571.35,851.48,541.88,780.46,541.88Zm-15.72,121.3-33.21,13V602.91h35.56c19.53,0,30.87,9,30.87,24.56C798,646.4,786,655.48,764.74,663.18Z" transform="translate(0 0)"/><path d="M1145,713.21c0,51.71-49.25,81-119.78,81-74.08,0-123.78-19.94-140.43-61.78l70.44-25.64c9.69,19.18,33.64,27.78,69.45,27.78,23.84,0,35-6.24,35-16.67,0-34.5-157.23-10.41-157.23-103.9,0-50.24,48.51-77.65,114.21-77.65,78,0,113.56,26.06,122.48,60.19l-71.06,26c-5.66-17.41-21-26-48.84-26-20.11,0-31.47,7.19-31.47,16.67C987.75,645.79,1145,623.6,1145,713.21Z" transform="translate(0 0)"/><path d="M1255.48,903.86c-99.61,215.64-321.82,358.8-567,358.8-245.49,0-467.64-141.56-565.65-358.8,66.12,22.1,151.34,32.28,245,32.28,214.36,0,430.7-74.37,638.83-74.37C1088.82,861.77,1178.93,878.8,1255.48,903.86Z" transform="translate(0 0)"/><path d="M1255.14,428.19c-66.12-22.1-151.34-32.28-245-32.28-214.36,0-430.7,74.37-638.83,74.37-82.18,0-172.28-17-248.83-42.09,99.6-215.64,321.81-358.8,567-358.8C935,69.39,1157.13,210.95,1255.14,428.19Z" transform="translate(0 0)"/><polygon points="1259.26 537.91 1259.26 786.02 1169.88 786.02 1170.52 568.28 1259.26 537.91"/><path class="cls-1" d="M1255.48,903.86c-99.61,215.64-321.82,358.8-567,358.8-245.49,0-467.64-141.56-565.65-358.8,66.12,22.1,151.34,32.28,245,32.28,214.36,0,430.7-74.37,638.83-74.37C1088.82,861.77,1178.93,878.8,1255.48,903.86Z" transform="translate(0 0)"/><path class="cls-1" d="M1255.14,428.19c-66.12-22.1-151.34-32.28-245-32.28-214.36,0-430.7,74.37-638.83,74.37-82.18,0-172.28-17-248.83-42.09,99.6-215.64,321.81-358.8,567-358.8C935,69.39,1157.13,210.95,1255.14,428.19Z" transform="translate(0 0)"/><path class="cls-1" d="M780.46,541.88H643.77V786h87.76V739.5l63-22.76c53.28-18.91,92.33-38.92,92.33-93.09C886.89,571.35,851.48,541.88,780.46,541.88Zm-15.72,121.3-33.21,13V602.91h35.56c19.53,0,30.87,9,30.87,24.56C798,646.4,786,655.48,764.74,663.18Zm-510-121.3H118.05V786h87.76V739.5l63-22.76c53.29-18.91,92.33-38.92,92.33-93.09C361.17,571.35,325.76,541.88,254.74,541.88ZM239,663.18l-33.22,13V602.91h35.57c19.52,0,30.87,9,30.87,24.56C272.25,646.4,260.28,655.48,239,663.18Zm748.72-50.07c0-9.48,11.36-16.67,31.47-16.67,27.88,0,43.18,8.63,48.84,26l71.06-26c-8.92-34.13-44.51-60.19-122.48-60.19-65.7,0-114.21,27.41-114.21,77.65,0,93.49,157.23,69.4,157.23,103.9,0,10.43-11.16,16.67-35,16.67-35.81,0-59.76-8.6-69.45-27.78L884.77,732.4c16.65,41.84,66.35,61.78,140.43,61.78,70.53,0,119.78-29.26,119.78-81C1145,623.6,987.75,645.79,987.75,613.11Zm182.77-44.83L1169.88,786h89.38V537.91ZM473.33,724.92V693.31H578.44V634.55H473.33V602.94H607v-61.1H385.61V786H608.54v-61.1Z" transform="translate(0 0)"/></svg>