<svg id="Camada_1" data-name="Camada 1" xmlns="http://www.w3.org/2000/svg" viewBox="0 0 1080.05 427.98"><defs><style>.cls-1{fill:#fff;}</style></defs><title>9-SE LIGA VM</title><g id="Camada_1-2" data-name="Camada 1"><path class="cls-1" d="M1077,169.23c-42.85,9-85.69,18.11-128.56,27-18.61,3.87-37.06,8.49-55.82,11.69-3.65.62-3.66-.29-2.45-3.19,3.18-7.64,6.33-15.32,5.63-23.89v-88A33.59,33.59,0,0,1,895,88c-.4-17.62-9.29-29.76-24.63-37.33-12.26-6-25.2-5.83-38-1.75-20.78,6.65-36.14,19.79-45.58,39.62-4.6,8.11-6.63,16.93-7.32,26.15-.22,2.88.89,3.51,3.49,3,8-1.73,16-3.36,23.93-5,1.55-.32,2.91-.8,3-2.73.25-5.8,3-10.82,5.11-16,2.48-2.65,4.75-5.55,7.47-7.93,12.25-10.73,32.6-13.44,41.58,4.9,2.43,9.71,1.12,18.81-4.41,27.24C855.3,124.88,848.92,129.27,842,133c-5.41.24-10.47,2-15.33,4.06-20.53,8.87-35.16,23.45-42.7,44.75a41.59,41.59,0,0,0-4.07,18.84c-1.18,7.73.32,15.1,2.91,22.34a10.79,10.79,0,0,0,.9,2.3c2.9,4.23,1.3,5.66-3.27,6.56-9.87,2-19.58,4.65-29.44,6.63-2.62.53-5.33,1.16-8.28.58-9.07-1.8-15-7.09-18.58-15.33q-.07-45.81-.18-91.61c0-3.13.37-6.32-.87-9.35-1.48-14.9-8.52-26.46-21.38-34.08-19.8-11.71-50-6.67-67.73,11-3.79,2.4-6.66,5.73-9.43,9.18-1.13,1-2.5,1.91-2.66,3.66a20.57,20.57,0,0,0-4.93,7.35h0a61,61,0,0,0-10,33c-.46,13.34-.38,26.68,0,40v45c-.33,14.66-6.69,25.89-19.2,33.59-19.15,7.79-30.17,3.38-36.7-14.7l-.15-54.91v-53q.09-14.4.2-28.8c0-2.12,0-4.27-3.1-3.51-9,2.18-18.24,3.14-27,6.23-1.45,1.94-.83,4.18-.83,6.28q0,63.39.06,126.77c0,3.81.12,7.61-.94,11.39-3.23,11.56-11.11,19-21.28,24.48a22.27,22.27,0,0,0-8,2c-9,.91-17.6,3.59-26.41,5.31-9.52,1.85-17.88.15-24.54-7.38-3.24-5.09-4.17-10.67-4.14-16.66.15-27.14.08-54.27.1-81.41q.06-93.89.11-187.77c0-4.44,0-5.87-1.74-5.87a16.09,16.09,0,0,0-3.56.75L420,2.86c-3-.27-5.94.65-8.85,1.32-7.22,1.67-7.25-.09-7.24,8.89q.12,131.86.21,263.71c0,5.66.21,11.32-1.34,16.85-2.83,7-7.47,12.66-12.84,17.8-4,2.08-7.62,4.87-12.11,5.83-29.79,6.39-59.56,12.92-89.41,19-12.49,2.57-23.22-5.32-25.43-18-.6-3.43-.65-7-1-10.42.45-6.45.46-6.52,6.74-5.33a49.77,49.77,0,0,0,20.8-.34q37-8.61,52.43-43.34a53.64,53.64,0,0,0,6.19-25.4c.07-8.31.11-16.63,0-24.94,0-3,.27-6-1.08-8.83-2.45-19.3-19.21-35.14-39.64-36.56-24.46-1.7-43.55,8.78-58.68,27.4-2.22,1.7-3.65-.1-5.27-1.16-10.76-7-22.64-10.12-35.24-7.86-18.83,3.37-37.72,6.61-56.26,11.4-15.16,3.92-27.19,12.86-37.1,24.82-8.49,10.26-14.47,21.68-16,35.12C96.51,265.25,98,277,104.7,288a51.31,51.31,0,0,0,4.15,6.15c12.35,13.72,27.91,17.72,45.61,14.45,9.21-1.7,17.49-.6,24.39,6.29,4.32,6.71,6.44,13.84,4.22,21.83-4.37,15.72-14.75,24.7-30.58,28-34.3,7.27-68.64,14.87-103,22.17-16.46,3.49-33,6.66-49.47,10v31c1.29-.34,2.57-.72,3.87-1l149.94-32c28.46-6.11,47.28-23.59,57.1-50.53,4.88-13.38,5.76-27.3-.72-40.78-2.87-4.62-4.57-9.86-8.68-13.84-12.35-11.92-27.17-15-43.44-12.27-6.68,1.14-12.88.87-19.06-1.67-9.37-6.31-11.65-15.38-10.1-25.94a30.5,30.5,0,0,1,1.69-5.58,41.85,41.85,0,0,1,19-20.13c.16-.1.33-.18.49-.27,17.3-4.23,34.85-7.28,52.29-10.83,9.53-2,17.83-.43,24.73,6.75A29.53,29.53,0,0,1,232,237.08c-.12,4.59.09,9.19.15,13.79q0,23.49,0,47c-.06,8.16-.2,16.32-.16,24.48.12,28.64,24.17,49.36,52.59,45.1,8.71-1.31,17.34-3.28,26-5.11,23.29-5,46.69-9.51,69.81-15.18,15.64-3.84,28.27-13,37.9-26.11a4.13,4.13,0,0,1,3.68,1c12.89,9.35,27.19,10.74,42.33,7.49,8-1.71,16-3.33,23.94-5C505,321.13,519.68,314,531,300.77c2.65-1,3.19-6.49,7.93-3,26,18.85,62.47,4.15,77.92-15,1-1.28,2.13-2.55,3.15-3.86,1.27-1.64,2.39-1.72,4.12-.37,11.84,9.24,25.35,11.22,39.71,8.52,6.63-1.24,12.9-.9,19,2,.59.58,1.14,1.21,1.78,1.73,7,5.69,9.84,13.06,7.91,21.78S684.2,325,676.09,327.5c-23.53,7.26-38.21,23.16-42.78,47.42-5,26.79,15.52,47.63,42.36,43.6,26.06-3.91,48.26-29.67,48.26-56v-40q0-24.73.07-49.48c0-2.23-.63-5,3.07-5a38.25,38.25,0,0,0,19.18,1.27c10.46-1.87,20.9-3.93,31.26-6.27,15.21-3.44,30.68-5.73,45.7-10.07,2.13-.33,4.28-.56,6.39-1q36.64-7.73,73.27-15.52c16.1-3.44,32.19-7,48.28-10.45,8.63-1.75,17.28-3.43,25.9-5.25q51.51-10.89,103-21.84v-30A29.35,29.35,0,0,0,1077,169.23ZM266.78,212.42c.41-.85.82-1.7,1.2-2.55A55,55,0,0,1,282.35,197l.9-.26h0a72.21,72.21,0,0,1,8.68-2.32c11.52-1.88,19.24,3,25.11,15.42,0,.28.08.55.1.83h0c1.06,8.33.52,16.71.63,25.07a39.31,39.31,0,0,1-3.36,16.16c-.43,1-.9,2-1.4,3-4.74,6.57-10.3,12.16-18,15.22-12.53,5-24.76,1.08-30.17-9.56-1.65-3.23-1.9-6.62-2-10.15-.28-7.28,1-14.61-.66-21.85l.08-.11h-.09C261.7,222.53,264.33,217.51,266.78,212.42ZM693,245.83v4.5c-.06,6.47,0,6.44-6.23,5.44a57.43,57.43,0,0,0-19.4,0c-15.44,2.76-21.87-.32-29.35-14a3.89,3.89,0,0,1-.78-1.85,16.91,16.91,0,0,1-.08-2.86c0-14.05-.07-28.1-.13-42.15a3.56,3.56,0,0,0,.84-.54L637,194c.31-13,.45-26.05,0-39.09v-1.26c-.13-11,2.84-20.87,10.13-29.21q.62-.71,1.26-1.38c6.06-5.13,12.87-8.63,20.9-9.21,12.28-.88,20.31,5.55,23.71,18.83l-.32.19h.38Zm-7.25,137.61c-5.7,4.66-13.8,5.29-18.36,1.29s-5.14-11.59-1.34-17.88a20.11,20.11,0,0,1,12-9.18A94.37,94.37,0,0,0,688.84,354c3.22-1.38,4.26-.43,4.16,2.79-.07,2.32,0,4.65,0,8.13.64,6.52-.91,13.36-7.23,18.52ZM865.26,186.18c-.15,15.29-12.73,31.2-27.82,34-10.35,2-20.24,0-26.37-13.35-.18-.72-.34-1.45-.47-2.16a35.77,35.77,0,0,1,2.61-20.83c.28-.66.58-1.32.89-2C820.69,171.6,830,165.53,842,163a51.41,51.41,0,0,0,21.19-10.26h0c.28-.21.57-.43.85-.66,1.51,1.26,1.19,3,1.19,4.64C865.27,166.54,865.35,176.36,865.26,186.18Z" transform="translate(0 0.08)"/></g><g id="Camada_3" data-name="Camada 3"><path class="cls-1" d="M517.41,72.17a18.36,18.36,0,1,1,0,.1Z" transform="translate(0 0.08)"/></g><g id="Camada_4" data-name="Camada 4"><polygon class="cls-1" points="814.33 284.92 833.64 284.92 806.03 357.23 788.07 357.23 760.46 284.92 779.77 284.92 797 334.1 814.33 284.92"/><polygon class="cls-1" points="899.61 284.75 916.94 284.75 916.94 357.05 897.74 357.05 897.74 317.06 881.34 342.61 873.66 342.61 857.26 317.06 857.26 357.05 838.06 357.05 838.06 284.75 855.39 284.75 877.5 319.99 899.61 284.75"/></g></svg>