<svg xmlns="http://www.w3.org/2000/svg" viewBox="0 0 460.8 259.2"><defs><style>.cls-1{isolation:isolate;}.cls-2{fill:#55993b;}.cls-3{fill:#ffffe2;fill-rule:evenodd;}</style></defs><title>1-Biel</title><g id="Ret창ngulo_1" data-name="Ret창ngulo 1" class="cls-1"><g id="Ret창ngulo_1-2" data-name="Ret창ngulo 1"><rect class="cls-2" width="460.8" height="259.2"/></g></g><g id="Forma_1" data-name="Forma 1" class="cls-1"><g id="Forma_1-2" data-name="Forma 1"><path class="cls-3" d="M182.7,138.81l.05.1c11.38-5.34,19.31-15.42,19.31-24.43a10.67,10.67,0,0,0-5.47-9.66,19.42,19.42,0,0,0,1.65-7.43c0-5.7-3.88-9.37-9.79-9.37C182,88,175,92.05,170,96l3.67-7.57H153.8l-.44,50.46H182.7Zm-17.53-16c0-7.57,14-17.3,24.85-17.3a15.11,15.11,0,0,1,3.75.5c-2.81,5.63-8.28,11.75-17.15,16.58C170.37,125.94,165.17,126,165.17,122.76Zm51.88-19.46a17,17,0,0,1-2,.9l-.16.06c-.31.11-.63.22-1,.32s-.58.17-.88.24l-.52.13-.51.1-.65.11a.14.14,0,0,1-.09,0c-.24,0-.48.07-.73.09a3.42,3.42,0,0,1-.46,0l-.41,0a13,13,0,0,1-2.42-.08L200,138.91h25.07l-7.51-33.43Zm-7.57.6c6.57,0,13.51-5.16,13.51-10.28,0-3.47-3-5.79-7.48-5.79C208.93,87.84,202,93,202,98.13,202,101.59,205,103.91,209.48,103.91Zm16.67,27.54a10.61,10.61,0,0,0,1.52,2.27c2.94,3.39,8.2,5.38,14.9,5.38,9.43,0,20.17-4.25,27-8.15l-2.74-15.34-26.21,12.14.63-9.31a26.48,26.48,0,0,0,4.12.19c8.78-.43,15.34-3.6,15.34-7.64,0-2.88-3.38-4.61-8.42-4.61A32.72,32.72,0,0,0,242,108l.54-7.87L267,105.36l2.59-16.22a60.66,60.66,0,0,0-12.9-1.3c-10.37,0-23.45,3.29-28.34,10.67a11.25,11.25,0,0,0-1.36,2.73,11.54,11.54,0,0,0-.62,3.75,11.33,11.33,0,0,0,.33,2.75,10.66,10.66,0,0,0,1.15,2.89,12.67,12.67,0,0,0,3.2,3.72c-3.68,3.46-6,7.79-6,12.25A10.82,10.82,0,0,0,226.15,131.44Zm78.24-17.58L286.3,125.4l12.25-37.13H273v50.39H307.2ZM180.65,147.61a7.89,7.89,0,0,0-5.06-1.75,5.61,5.61,0,0,0-.58,0,7.69,7.69,0,0,0-1.17.18,8,8,0,0,0-2.12.8,9.74,9.74,0,0,0-1.17.76,10,10,0,0,0-1.24,1.11,8.66,8.66,0,0,0-6.28-2.87,8,8,0,0,0-5.58,2.2,9.86,9.86,0,0,0-1.09,1.21c-1.91,2.53-3,6.34-3,11a31.24,31.24,0,0,0,2.14,11.27H166l-6.38-16.85h6.2a18.44,18.44,0,0,0-.83,5.55c0,4.07,1.78,7.16,4.28,7.16s4.28-3.08,4.28-7.16a18.43,18.43,0,0,0-.84-5.54H179l-6.38,16.83H183.1a31,31,0,0,0,2.14-11.27c0-5-1.27-9.09-3.5-11.59A8.22,8.22,0,0,0,180.65,147.61Zm27,7,1.3-8.18a30.83,30.83,0,0,0-6.5-.65c-5.23,0-11.81,1.66-14.29,5.38a5.94,5.94,0,0,0-.69,1.38,5.86,5.86,0,0,0-.14,3.28,5.37,5.37,0,0,0,.58,1.45,6.38,6.38,0,0,0,1.61,1.88,8.68,8.68,0,0,0-3,6.18,5.33,5.33,0,0,0,1.31,3.57c1.48,1.71,4.14,2.71,7.51,2.71,4.75,0,10.16-2.14,13.62-4.1l-1.38-7.74-13.22,6.12.32-4.68a14.1,14.1,0,0,0,2.08.09c4.42-.22,7.72-1.81,7.72-3.85,0-1.45-1.7-2.32-4.24-2.32a16.28,16.28,0,0,0-5.2.85l.27-4Zm75.44,0,1.31-8.18a30.83,30.83,0,0,0-6.5-.65c-5.23,0-11.82,1.66-14.29,5.38a6,6,0,0,0-.69,1.38,5.86,5.86,0,0,0-.14,3.28,5.37,5.37,0,0,0,.58,1.45,6.38,6.38,0,0,0,1.61,1.88,8.68,8.68,0,0,0-3,6.18,5.43,5.43,0,0,0,.55,2.43,5,5,0,0,0,.76,1.14c1.48,1.71,4.14,2.71,7.51,2.71,4.75,0,10.16-2.14,13.62-4.1L283,159.76l-13.22,6.12.32-4.68a14.1,14.1,0,0,0,2.08.09c4.42-.22,7.72-1.81,7.72-3.85,0-1.45-1.7-2.32-4.24-2.32a16.29,16.29,0,0,0-5.2.85l.27-4Zm13.07,10.16,10.93-12.54V146H285.65l1.54,10.86,8.75-4.64-10.2,12.1v7.12H307.2l-1.71-11.55Zm-68.31-19a13.83,13.83,0,0,0-8.14,3.16l1.53-2.94h-11v25.43H218l-2.38-10.54L226.45,154l-6.78,17.45H233.4l-.79-10-2.8,1.27c3.26-3.63,5-7.23,5-10.35C234.85,148.44,232,145.79,227.85,145.79Zm19.3-.15a19.41,19.41,0,0,0-2.13.12,24.51,24.51,0,0,0-3.66.61c-.65.15-1.3.32-2,.52-1,.31-2.1.68-3.17,1.11v10.94a12.05,12.05,0,0,1,3-2.22l.08-.05c.32-.18.65-.34,1-.5l.14-.07c.52-.24,1.05-.46,1.6-.66a21.37,21.37,0,0,1,2.32-.71l.28-.07a18.34,18.34,0,0,1,2.12-.35,12.41,12.41,0,0,1,1.46-.09c2.83,0,4.69,1.27,4.69,3.16a2.11,2.11,0,0,1,0,.47c0,.1,0,.2,0,.3s0,0,0,0a1.34,1.34,0,0,1-.07.27.5.5,0,0,0-.05.13c0,.09-.06.16-.09.23l0,.1s0,.07-.05.1a6.44,6.44,0,0,1-1.13,1.66,10.3,10.3,0,0,1-3.7,2.48c-.26.11-.53.2-.8.29l-.18-.78-.79-3.5-.23-1v-.06l-.25-1.1-.74-.08h-.35a9,9,0,0,0-4.32,1.17,9.21,9.21,0,0,0-1.27.82l-.41,1.88L238,162l-.23,1.1-.22,1-.27,1.27,0,.06-1.07,5-.22,1h1.13l.28,0h0a33,33,0,0,0,3.3.16c.77,0,1.52,0,2.27-.08l1.12-.11a26.55,26.55,0,0,0,4.33-.86,19.31,19.31,0,0,0,9-5.23,14,14,0,0,0,1.82-2.45,11.82,11.82,0,0,0,1.58-5.9C260.8,150.36,255.18,145.64,247.15,145.64Z" transform="translate(0 0)"/></g></g></svg>