<svg xmlns="http://www.w3.org/2000/svg" viewBox="0 0 460.8 259.2"><defs><style>.cls-1{isolation:isolate;}.cls-2{fill:#fff;fill-rule:evenodd;}</style></defs><title>11-Biel</title><g id="Retângulo_1_Camada_2_Inverter_1_Imagem" data-name="Retângulo 1 + Camada 2 + Inverter 1 Imagem"><rect width="460.8" height="259.2"/></g><g id="Forma_1" data-name="Forma 1" class="cls-1"><g id="Forma_1-2" data-name="Forma 1"><path class="cls-2" d="M258.84,60.24c-58.79,0-121,46.59-121,90.65,0,28.76,25.75,48.07,64.08,48.07,58.79,0,121-46.59,121-90.64C322.92,79.56,297.17,60.24,258.84,60.24Zm-53,129.37c-33.16,0-55.45-16.72-55.45-41.59,0-38.11,53.78-78.44,104.64-78.44,33.16,0,55.46,16.72,55.46,41.6C310.45,149.29,256.65,189.61,205.8,189.61Zm48.4-70.93a24.52,24.52,0,0,0,2.08-9.37c0-7.19-4.91-11.82-12.35-11.82-8.17,0-17,5.09-23.24,10.09L225.32,98H200.25l-.54,63.66h37v-.13l.06.13c14.35-6.73,24.34-19.46,24.34-30.83A13.46,13.46,0,0,0,254.2,118.69ZM229,141.05c-7.89,4.28-14.44,4.37-14.44.28,0-9.55,17.62-21.82,31.32-21.82a19,19,0,0,1,4.73.63C247.11,127.24,240.21,135,229,141.05Z"/></g></g></svg>