<svg xmlns="http://www.w3.org/2000/svg" viewBox="0 0 460.8 90.8"><defs><style>.cls-1{isolation:isolate;}.cls-2{fill:#111;}.cls-3{fill:#d9d621;}.cls-4{fill:#fff;}</style></defs><title>4-Biel</title><g id="Retângulo_1" data-name="Retângulo 1" class="cls-1"><g id="Retângulo_1-2" data-name="Retângulo 1"><rect class="cls-2" width="460.8" height="90.8"/></g></g><g id="Três_pilares_para_o_desenvolvimento_do_branding" data-name="Três pilares para o desenvolvimento do branding"><path class="cls-3" d="M64,58.06a2.57,2.57,0,0,1-2.68,2.68h-2.9v1.64h-2.6v-7h5.5A2.57,2.57,0,0,1,64,58.06Zm-2.6,0c0-.48-.32-.48-.58-.48h-2.4v1h2.4C61.1,58.54,61.42,58.54,61.42,58.06Z" transform="translate(0 0)"/><path class="cls-3" d="M67,57.38V58h4.8v1.7H67v.65h4.8v2h-7.4v-7h7.4v2Z" transform="translate(0 0)"/><path class="cls-3" d="M79.35,60.37l1.24,2H77.51l-1-1.64H75v1.64h-2.6v-7h5.5a2.71,2.71,0,0,1,1.44,5ZM75,58.54h2.4c.26,0,.58,0,.58-.48s-.32-.48-.58-.48H75Z" transform="translate(0 0)"/><path class="cls-3" d="M83.42,59.91c0,.34.32.57,2,.57s1.77-.1,1.77-.36-.23-.34-1.87-.39c-3.16-.1-4.37-.62-4.37-2.25s1.51-2.2,4.27-2.2,4.27.66,4.27,2.45h-2.6c0-.37-.6-.45-1.87-.45s-1.47.06-1.47.33.25.26,1.77.32c2.76.11,4.47.3,4.47,2.13s-1.6,2.42-4.47,2.42-4.47-.49-4.47-2.57Z" transform="translate(0 0)"/><path class="cls-3" d="M90,58.87c0-2.43,1.32-3.59,4.4-3.59s4.4,1.17,4.4,3.59-1.33,3.61-4.4,3.61S90,61.31,90,58.87Zm6.2,0c0-.73-.26-1.39-1.8-1.39s-1.8.65-1.8,1.39.27,1.41,1.8,1.41S96.19,59.61,96.19,58.87Z" transform="translate(0 0)"/><path class="cls-3" d="M108.28,55.38v7h-3.4l-3-4.13v4.13h-2.6v-7h3.4l3,4.13V55.38Z" transform="translate(0 0)"/><path class="cls-3" d="M114.91,61.12h-3l-.48,1.26h-2.86l2.9-7h3.86l2.9,7h-2.86Zm-.68-1.8-.81-2.14-.81,2.14Z" transform="translate(0 0)"/><path class="cls-3" d="M125.76,60.18v2.2h-7.2v-7h2.6v4.8Z" transform="translate(0 0)"/><path class="cls-3" d="M128.67,62.38h-2.6v-7h2.6Z" transform="translate(0 0)"/><path class="cls-3" d="M137.81,58.88a3.2,3.2,0,0,1-3.28,3.5h-5.2v-7h5.2A3.2,3.2,0,0,1,137.81,58.88Zm-2.6,0c0-1.3-.92-1.3-1.48-1.3h-1.8v2.6h1.8C134.29,60.18,135.21,60.18,135.21,58.88Z" transform="translate(0 0)"/><path class="cls-3" d="M143.91,61.12h-3l-.48,1.26h-2.86l2.9-7h3.86l2.9,7h-2.86Zm-.68-1.8-.81-2.14-.81,2.14Z" transform="translate(0 0)"/><path class="cls-3" d="M156,58.88a3.2,3.2,0,0,1-3.28,3.5h-5.2v-7h5.2A3.2,3.2,0,0,1,156,58.88Zm-2.6,0c0-1.3-.92-1.3-1.48-1.3h-1.8v2.6H152C152.52,60.18,153.44,60.18,153.44,58.88Z" transform="translate(0 0)"/><path class="cls-3" d="M159.1,57.38V58h4.8v1.7h-4.8v.65h4.8v2h-7.4v-7h7.4v2Z" transform="translate(0 0)"/><path class="cls-3" d="M177.2,59.69H174v2.69h-1.71V59.69H169.2V58.27h3.06V55.58H174v2.69h3.23Z" transform="translate(0 0)"/><path class="cls-3" d="M188.82,61.12h-3l-.48,1.26H182.5l2.9-7h3.86l2.9,7H189.3Zm-.68-1.8-.81-2.14-.81,2.14Z" transform="translate(0 0)"/><path class="cls-3" d="M200.08,57.58h-3v4.8h-2.6v-4.8h-3v-2.2h8.6Z" transform="translate(0 0)"/><path class="cls-3" d="M203,57.38V58h4.8v1.7H203v.65h4.8v2h-7.4v-7h7.4v2Z" transform="translate(0 0)"/><path class="cls-3" d="M219.15,62.38h-2.6V59.05l-1.91,3.33h-1.7L211,59.05v3.33h-2.6v-7h3.2l2.16,4,2.16-4h3.2Z" transform="translate(0 0)"/><path class="cls-3" d="M228,58.06a2.57,2.57,0,0,1-2.68,2.68h-2.9v1.64h-2.6v-7h5.5A2.57,2.57,0,0,1,228,58.06Zm-2.6,0c0-.48-.32-.48-.58-.48h-2.4v1h2.4C225.1,58.54,225.42,58.54,225.42,58.06Z" transform="translate(0 0)"/><path class="cls-3" d="M228.28,58.87c0-2.43,1.32-3.59,4.4-3.59s4.4,1.17,4.4,3.59-1.33,3.61-4.4,3.61S228.28,61.31,228.28,58.87Zm6.2,0c0-.73-.26-1.39-1.8-1.39s-1.8.65-1.8,1.39.27,1.41,1.8,1.41S234.47,59.61,234.47,58.87Z" transform="translate(0 0)"/><path class="cls-3" d="M244.48,60.37l1.24,2h-3.08l-1-1.64h-1.53v1.64h-2.6v-7H243a2.71,2.71,0,0,1,1.44,5Zm-4.34-1.83h2.4c.26,0,.58,0,.58-.48s-.32-.48-.58-.48h-2.4Z" transform="translate(0 0)"/><path class="cls-3" d="M252.29,61.12h-3l-.48,1.26H246l2.9-7h3.86l2.9,7h-2.86Zm-.68-1.8-.81-2.14L250,59.32Z" transform="translate(0 0)"/><path class="cls-3" d="M263.15,60.18v2.2H256v-7h2.6v4.8Z" transform="translate(0 0)"/><path class="cls-3" d="M266.06,62.38h-2.6v-7h2.6Z" transform="translate(0 0)"/><path class="cls-3" d="M275.2,58.88a3.2,3.2,0,0,1-3.28,3.5h-5.2v-7h5.2A3.2,3.2,0,0,1,275.2,58.88Zm-2.6,0c0-1.3-.92-1.3-1.48-1.3h-1.8v2.6h1.8C271.68,60.18,272.6,60.18,272.6,58.88Z" transform="translate(0 0)"/><path class="cls-3" d="M281.29,61.12h-3l-.48,1.26H275l2.9-7h3.86l2.9,7h-2.86Zm-.68-1.8-.81-2.14L279,59.32Z" transform="translate(0 0)"/><path class="cls-3" d="M293.42,58.88a3.2,3.2,0,0,1-3.28,3.5h-5.2v-7h5.2A3.2,3.2,0,0,1,293.42,58.88Zm-2.6,0c0-1.3-.92-1.3-1.48-1.3h-1.8v2.6h1.8C289.9,60.18,290.82,60.18,290.82,58.88Z" transform="translate(0 0)"/><path class="cls-3" d="M296.49,57.38V58h4.8v1.7h-4.8v.65h4.8v2h-7.4v-7h7.4v2Z" transform="translate(0 0)"/><path class="cls-3" d="M314.58,59.69h-3.23v2.69h-1.71V59.69h-3.06V58.27h3.06V55.58h1.71v2.69h3.23Z" transform="translate(0 0)"/><path class="cls-3" d="M326.2,61.12h-3l-.48,1.26h-2.86l2.9-7h3.86l2.9,7h-2.86Zm-.68-1.8-.81-2.14-.81,2.14Z" transform="translate(0 0)"/><path class="cls-3" d="M332.46,57.58v.75h4.2v2.2h-4.2v1.85h-2.6v-7h7.4v2.2Z" transform="translate(0 0)"/><path class="cls-3" d="M340.3,57.38V58h4.8v1.7h-4.8v.65h4.8v2h-7.4v-7h7.4v2Z" transform="translate(0 0)"/><path class="cls-3" d="M354,57.58h-3v4.8h-2.6v-4.8h-3v-2.2H354Z" transform="translate(0 0)"/><path class="cls-3" d="M356.87,62.38h-2.6v-7h2.6Z" transform="translate(0 0)"/><path class="cls-3" d="M366.81,55.38l-2.9,7h-3.86l-2.9-7H360l2,5.2,2-5.2Z" transform="translate(0 0)"/><path class="cls-3" d="M369.73,62.38h-2.6v-7h2.6Z" transform="translate(0 0)"/><path class="cls-3" d="M378.87,58.88a3.2,3.2,0,0,1-3.28,3.5h-5.2v-7h5.2A3.2,3.2,0,0,1,378.87,58.88Zm-2.6,0c0-1.3-.92-1.3-1.48-1.3H373v2.6h1.8C375.35,60.18,376.27,60.18,376.27,58.88Z" transform="translate(0 0)"/><path class="cls-3" d="M385,61.12h-3l-.48,1.26h-2.86l2.9-7h3.86l2.9,7h-2.86Zm-.68-1.8-.81-2.14-.81,2.14Z" transform="translate(0 0)"/><path class="cls-3" d="M397.09,58.88a3.2,3.2,0,0,1-3.28,3.5h-5.2v-7h5.2A3.2,3.2,0,0,1,397.09,58.88Zm-2.6,0c0-1.3-.92-1.3-1.48-1.3h-1.8v2.6H393C393.57,60.18,394.49,60.18,394.49,58.88Z" transform="translate(0 0)"/><path class="cls-3" d="M400.16,57.38V58H405v1.7h-4.8v.65H405v2h-7.4v-7H405v2Z" transform="translate(0 0)"/><path class="cls-4" d="M100.87,36H100V29.63H97.74v-.79h5.35v.79h-2.22Z" transform="translate(0 0)"/><path class="cls-4" d="M106.31,30.52a3,3,0,0,1,.63.06l-.11.81a2.6,2.6,0,0,0-.58-.07,1.43,1.43,0,0,0-.79.23,1.59,1.59,0,0,0-.57.65,2,2,0,0,0-.21.92V36h-.88V30.62h.72l.1,1h0a2.32,2.32,0,0,1,.73-.81A1.64,1.64,0,0,1,106.31,30.52Z" transform="translate(0 0)"/><path class="cls-4" d="M110.12,36.08a2.47,2.47,0,0,1-1.89-.73,2.81,2.81,0,0,1-.69-2,3.1,3.1,0,0,1,.64-2.05,2.14,2.14,0,0,1,1.73-.76,2.08,2.08,0,0,1,1.61.65,2.5,2.5,0,0,1,.6,1.77v.53h-3.67a2.06,2.06,0,0,0,.46,1.39,1.61,1.61,0,0,0,1.25.47,4.24,4.24,0,0,0,.82-.08,4.65,4.65,0,0,0,.9-.3v.77A4.25,4.25,0,0,1,111,36,4.74,4.74,0,0,1,110.12,36.08Zm-1.89-6.27q.61-.65.86-1a4,4,0,0,0,.37-.52h.9a7.39,7.39,0,0,0,1.25,1.49v.11H111a6.14,6.14,0,0,1-1.09-.9,7.09,7.09,0,0,1-1.07.9h-.6Zm1.67,1.43a1.28,1.28,0,0,0-1,.41,1.9,1.9,0,0,0-.43,1.13h2.73a1.74,1.74,0,0,0-.35-1.14A1.19,1.19,0,0,0,109.9,31.24Z" transform="translate(0 0)"/><path class="cls-4" d="M117,34.5a1.36,1.36,0,0,1-.56,1.16,2.62,2.62,0,0,1-1.58.41,3.57,3.57,0,0,1-1.68-.34v-.8a3.89,3.89,0,0,0,1.7.43,1.7,1.7,0,0,0,1-.21.67.67,0,0,0,.3-.58.65.65,0,0,0-.29-.54,4.56,4.56,0,0,0-1-.5,5.91,5.91,0,0,1-1.06-.5,1.39,1.39,0,0,1-.45-.47,1.27,1.27,0,0,1-.14-.63,1.21,1.21,0,0,1,.54-1,2.51,2.51,0,0,1,1.47-.38,4.08,4.08,0,0,1,1.71.36l-.3.7a3.85,3.85,0,0,0-1.47-.34,1.61,1.61,0,0,0-.83.17.53.53,0,0,0-.28.48.6.6,0,0,0,.24.49,5.26,5.26,0,0,0,1.14.53,5,5,0,0,1,1,.46,1.45,1.45,0,0,1,.47.48A1.29,1.29,0,0,1,117,34.5Z" transform="translate(0 0)"/><path class="cls-4" d="M123.41,36.08a2,2,0,0,1-1.66-.78h-.06l0,.2a6.63,6.63,0,0,1,0,.68v2.2h-.88V30.62h.72l.12.73h0a1.9,1.9,0,0,1,.72-.63,2.18,2.18,0,0,1,.95-.2,2,2,0,0,1,1.62.73,3.2,3.2,0,0,1,.58,2,3.23,3.23,0,0,1-.58,2.05A2,2,0,0,1,123.41,36.08Zm-.15-4.82a1.38,1.38,0,0,0-1.15.45,2.32,2.32,0,0,0-.36,1.41v.17a2.68,2.68,0,0,0,.36,1.57,1.37,1.37,0,0,0,1.17.49,1.21,1.21,0,0,0,1.05-.55,2.65,2.65,0,0,0,.38-1.52,2.53,2.53,0,0,0-.38-1.5A1.25,1.25,0,0,0,123.26,31.26Z" transform="translate(0 0)"/><path class="cls-4" d="M127,29.17a.54.54,0,0,1,.15-.42.52.52,0,0,1,.88.42.54.54,0,0,1-.15.42.55.55,0,0,1-.73,0A.55.55,0,0,1,127,29.17ZM127.9,36H127V30.62h.88Z" transform="translate(0 0)"/><path class="cls-4" d="M130.48,36h-.88v-7.6h.88Z" transform="translate(0 0)"/><path class="cls-4" d="M135.49,36l-.17-.76h0a2.25,2.25,0,0,1-.8.68,2.47,2.47,0,0,1-1,.18,1.76,1.76,0,0,1-1.24-.42,1.52,1.52,0,0,1-.45-1.17q0-1.63,2.57-1.71l.91,0v-.32a1.31,1.31,0,0,0-.26-.9,1.09,1.09,0,0,0-.84-.29,2.51,2.51,0,0,0-.8.13,6.57,6.57,0,0,0-.71.28l-.27-.66a4,4,0,0,1,.88-.34,3.82,3.82,0,0,1,.95-.12,2.09,2.09,0,0,1,1.45.43,1.76,1.76,0,0,1,.47,1.37V36Zm-1.81-.61a1.63,1.63,0,0,0,1.16-.4,1.48,1.48,0,0,0,.42-1.13v-.48l-.79,0a2.88,2.88,0,0,0-1.34.29.89.89,0,0,0-.42.82.81.81,0,0,0,.26.64A1.06,1.06,0,0,0,133.68,35.37Z" transform="translate(0 0)"/><path class="cls-4" d="M140.29,30.52a3,3,0,0,1,.63.06l-.11.81a2.6,2.6,0,0,0-.58-.07,1.43,1.43,0,0,0-.79.23,1.59,1.59,0,0,0-.57.65,2,2,0,0,0-.21.92V36h-.88V30.62h.72l.1,1h0a2.32,2.32,0,0,1,.73-.81A1.64,1.64,0,0,1,140.29,30.52Z" transform="translate(0 0)"/><path class="cls-4" d="M144.1,36.08a2.47,2.47,0,0,1-1.89-.73,2.81,2.81,0,0,1-.69-2,3.1,3.1,0,0,1,.64-2.05,2.14,2.14,0,0,1,1.73-.76,2.08,2.08,0,0,1,1.61.65,2.5,2.5,0,0,1,.6,1.77v.53h-3.67a2.06,2.06,0,0,0,.46,1.39,1.61,1.61,0,0,0,1.25.47,4.24,4.24,0,0,0,.82-.08,4.65,4.65,0,0,0,.9-.3v.77A4.25,4.25,0,0,1,145,36,4.74,4.74,0,0,1,144.1,36.08Zm-.22-4.84a1.28,1.28,0,0,0-1,.41,1.9,1.9,0,0,0-.43,1.13h2.73a1.74,1.74,0,0,0-.35-1.14A1.19,1.19,0,0,0,143.88,31.24Z" transform="translate(0 0)"/><path class="cls-4" d="M151,34.5a1.36,1.36,0,0,1-.56,1.16,2.62,2.62,0,0,1-1.58.41,3.57,3.57,0,0,1-1.68-.34v-.8a3.89,3.89,0,0,0,1.7.43,1.7,1.7,0,0,0,1-.21.67.67,0,0,0,.3-.58.65.65,0,0,0-.29-.54,4.56,4.56,0,0,0-1-.5,5.91,5.91,0,0,1-1.06-.5,1.39,1.39,0,0,1-.45-.47,1.27,1.27,0,0,1-.14-.63,1.21,1.21,0,0,1,.54-1,2.51,2.51,0,0,1,1.47-.38,4.08,4.08,0,0,1,1.71.36l-.3.7a3.85,3.85,0,0,0-1.47-.34,1.61,1.61,0,0,0-.83.17.53.53,0,0,0-.28.48.6.6,0,0,0,.24.49,5.26,5.26,0,0,0,1.14.53,5,5,0,0,1,1,.46,1.45,1.45,0,0,1,.47.48A1.29,1.29,0,0,1,151,34.5Z" transform="translate(0 0)"/><path class="cls-4" d="M157.39,36.08a2,2,0,0,1-1.66-.78h-.06l0,.2a6.63,6.63,0,0,1,0,.68v2.2h-.88V30.62h.72l.12.73h0a1.9,1.9,0,0,1,.72-.63,2.18,2.18,0,0,1,.95-.2,2,2,0,0,1,1.62.73,3.2,3.2,0,0,1,.58,2,3.23,3.23,0,0,1-.58,2.05A2,2,0,0,1,157.39,36.08Zm-.15-4.82a1.38,1.38,0,0,0-1.15.45,2.32,2.32,0,0,0-.36,1.41v.17a2.68,2.68,0,0,0,.36,1.57,1.37,1.37,0,0,0,1.17.49,1.21,1.21,0,0,0,1.05-.55,2.65,2.65,0,0,0,.38-1.52,2.53,2.53,0,0,0-.38-1.5A1.25,1.25,0,0,0,157.24,31.26Z" transform="translate(0 0)"/><path class="cls-4" d="M164.31,36l-.17-.76h0a2.25,2.25,0,0,1-.8.68,2.47,2.47,0,0,1-1,.18,1.76,1.76,0,0,1-1.24-.42,1.52,1.52,0,0,1-.45-1.17q0-1.63,2.57-1.71l.91,0v-.32a1.31,1.31,0,0,0-.26-.9,1.09,1.09,0,0,0-.84-.29,2.51,2.51,0,0,0-.8.13,6.57,6.57,0,0,0-.71.28L161.2,31a4,4,0,0,1,.88-.34,3.82,3.82,0,0,1,.95-.12,2.09,2.09,0,0,1,1.45.43,1.76,1.76,0,0,1,.47,1.37V36Zm-1.81-.61a1.63,1.63,0,0,0,1.16-.4,1.48,1.48,0,0,0,.42-1.13v-.48l-.79,0a2.88,2.88,0,0,0-1.34.29.89.89,0,0,0-.42.82.81.81,0,0,0,.26.64A1.06,1.06,0,0,0,162.5,35.37Z" transform="translate(0 0)"/><path class="cls-4" d="M169.11,30.52a3,3,0,0,1,.63.06l-.11.81a2.6,2.6,0,0,0-.58-.07,1.43,1.43,0,0,0-.79.23,1.59,1.59,0,0,0-.57.65,2,2,0,0,0-.21.92V36h-.88V30.62h.72l.1,1h0a2.32,2.32,0,0,1,.73-.81A1.64,1.64,0,0,1,169.11,30.52Z" transform="translate(0 0)"/><path class="cls-4" d="M174,36l-.17-.76h0a2.25,2.25,0,0,1-.8.68,2.47,2.47,0,0,1-1,.18,1.76,1.76,0,0,1-1.24-.42,1.52,1.52,0,0,1-.45-1.17q0-1.63,2.57-1.71l.91,0v-.32a1.31,1.31,0,0,0-.26-.9,1.09,1.09,0,0,0-.84-.29,2.51,2.51,0,0,0-.8.13,6.57,6.57,0,0,0-.71.28l-.27-.66a4,4,0,0,1,.88-.34,3.82,3.82,0,0,1,.95-.12,2.09,2.09,0,0,1,1.45.43,1.76,1.76,0,0,1,.47,1.37V36Zm-1.81-.61a1.63,1.63,0,0,0,1.16-.4,1.48,1.48,0,0,0,.42-1.13v-.48l-.79,0a2.88,2.88,0,0,0-1.34.29.89.89,0,0,0-.42.82.81.81,0,0,0,.26.64A1.06,1.06,0,0,0,172.14,35.37Z" transform="translate(0 0)"/><path class="cls-4" d="M183.51,33.29a3,3,0,0,1-.66,2.05,2.34,2.34,0,0,1-1.84.74,2.45,2.45,0,0,1-1.29-.34,2.23,2.23,0,0,1-.86-1,3.4,3.4,0,0,1-.3-1.47,3,3,0,0,1,.65-2,2.34,2.34,0,0,1,1.84-.73,2.29,2.29,0,0,1,1.8.74A2.92,2.92,0,0,1,183.51,33.29Zm-4,0a2.51,2.51,0,0,0,.4,1.54,1.57,1.57,0,0,0,2.34,0,2.5,2.5,0,0,0,.4-1.54,2.42,2.42,0,0,0-.4-1.52,1.41,1.41,0,0,0-1.18-.51Q179.46,31.26,179.46,33.29Z" transform="translate(0 0)"/><path class="cls-4" d="M189.4,36.08a2,2,0,0,1-1.62-.72,3.21,3.21,0,0,1-.58-2,3.25,3.25,0,0,1,.58-2.05,2.15,2.15,0,0,1,3.29.05h.06c0-.06,0-.2,0-.39s0-.33,0-.4V28.38h.88V36h-.71l-.13-.72h0A1.89,1.89,0,0,1,189.4,36.08Zm.14-.73a1.45,1.45,0,0,0,1.17-.44,2.22,2.22,0,0,0,.37-1.43v-.16a2.62,2.62,0,0,0-.37-1.59,1.4,1.4,0,0,0-1.17-.48,1.2,1.2,0,0,0-1,.54,2.71,2.71,0,0,0-.37,1.54,2.57,2.57,0,0,0,.37,1.51A1.23,1.23,0,0,0,189.54,35.35Z" transform="translate(0 0)"/><path class="cls-4" d="M195.93,36.08a2.47,2.47,0,0,1-1.89-.73,2.81,2.81,0,0,1-.69-2,3.1,3.1,0,0,1,.64-2.05,2.14,2.14,0,0,1,1.73-.76,2.08,2.08,0,0,1,1.61.65,2.5,2.5,0,0,1,.6,1.77v.53h-3.67a2.06,2.06,0,0,0,.46,1.39,1.61,1.61,0,0,0,1.25.47,4.24,4.24,0,0,0,.82-.08,4.65,4.65,0,0,0,.9-.3v.77a4.25,4.25,0,0,1-.83.27A4.74,4.74,0,0,1,195.93,36.08Zm-.22-4.84a1.28,1.28,0,0,0-1,.41,1.9,1.9,0,0,0-.43,1.13H197a1.74,1.74,0,0,0-.35-1.14A1.19,1.19,0,0,0,195.71,31.24Z" transform="translate(0 0)"/><path class="cls-4" d="M202.78,34.5a1.36,1.36,0,0,1-.56,1.16,2.62,2.62,0,0,1-1.58.41,3.57,3.57,0,0,1-1.68-.34v-.8a3.89,3.89,0,0,0,1.7.43,1.7,1.7,0,0,0,1-.21.67.67,0,0,0,.3-.58.65.65,0,0,0-.29-.54,4.56,4.56,0,0,0-1-.5,5.91,5.91,0,0,1-1.06-.5,1.39,1.39,0,0,1-.45-.47,1.27,1.27,0,0,1-.14-.63,1.21,1.21,0,0,1,.54-1,2.51,2.51,0,0,1,1.47-.38,4.08,4.08,0,0,1,1.71.36l-.3.7a3.85,3.85,0,0,0-1.47-.34,1.61,1.61,0,0,0-.83.17.53.53,0,0,0-.28.48.6.6,0,0,0,.24.49,5.26,5.26,0,0,0,1.14.53,5,5,0,0,1,1,.46,1.45,1.45,0,0,1,.47.48A1.29,1.29,0,0,1,202.78,34.5Z" transform="translate(0 0)"/><path class="cls-4" d="M206.36,36.08a2.47,2.47,0,0,1-1.89-.73,2.81,2.81,0,0,1-.69-2,3.1,3.1,0,0,1,.64-2.05,2.14,2.14,0,0,1,1.73-.76,2.08,2.08,0,0,1,1.61.65,2.5,2.5,0,0,1,.6,1.77v.53h-3.67a2.06,2.06,0,0,0,.46,1.39,1.61,1.61,0,0,0,1.25.47,4.24,4.24,0,0,0,.82-.08,4.65,4.65,0,0,0,.9-.3v.77a4.25,4.25,0,0,1-.83.27A4.74,4.74,0,0,1,206.36,36.08Zm-.22-4.84a1.28,1.28,0,0,0-1,.41,1.9,1.9,0,0,0-.43,1.13h2.73a1.74,1.74,0,0,0-.35-1.14A1.19,1.19,0,0,0,206.14,31.24Z" transform="translate(0 0)"/><path class="cls-4" d="M213.37,36V32.55a1.41,1.41,0,0,0-.29-1,1.18,1.18,0,0,0-.91-.32,1.46,1.46,0,0,0-1.2.46,2.35,2.35,0,0,0-.37,1.49V36h-.88V30.62h.71l.13.73h0a1.66,1.66,0,0,1,.7-.61,2.24,2.24,0,0,1,1-.22,2,2,0,0,1,1.46.48,2,2,0,0,1,.48,1.49V36Z" transform="translate(0 0)"/><path class="cls-4" d="M217.08,36l-2-5.36H216l1.14,3.16a11.33,11.33,0,0,1,.43,1.42h0l0-.14.05-.18.36-1.1,1.14-3.16h.94l-2,5.36Z" transform="translate(0 0)"/><path class="cls-4" d="M225.64,33.29a3,3,0,0,1-.66,2.05,2.34,2.34,0,0,1-1.84.74,2.44,2.44,0,0,1-1.29-.34,2.23,2.23,0,0,1-.86-1,3.38,3.38,0,0,1-.3-1.47,3,3,0,0,1,.65-2,2.34,2.34,0,0,1,1.84-.73,2.29,2.29,0,0,1,1.8.74A2.92,2.92,0,0,1,225.64,33.29Zm-4,0a2.51,2.51,0,0,0,.4,1.54,1.57,1.57,0,0,0,2.34,0,2.5,2.5,0,0,0,.4-1.54,2.42,2.42,0,0,0-.4-1.52,1.41,1.41,0,0,0-1.18-.51Q221.59,31.26,221.59,33.29Z" transform="translate(0 0)"/><path class="cls-4" d="M227.91,36H227v-7.6h.88Z" transform="translate(0 0)"/><path class="cls-4" d="M230.79,36l-2-5.36h.94l1.14,3.16a11.33,11.33,0,0,1,.43,1.42h0l0-.14.05-.18.36-1.1,1.14-3.16h.94l-2,5.36Z" transform="translate(0 0)"/><path class="cls-4" d="M234.62,29.17a.54.54,0,0,1,.15-.42.52.52,0,0,1,.88.42.54.54,0,0,1-.15.42.55.55,0,0,1-.73,0A.55.55,0,0,1,234.62,29.17Zm.95,6.81h-.88V30.62h.88Z" transform="translate(0 0)"/><path class="cls-4" d="M244.09,36V32.53q0-1.27-1.09-1.27a1.33,1.33,0,0,0-1.1.43,2.09,2.09,0,0,0-.35,1.33v3h-.87V32.53a1.46,1.46,0,0,0-.27-1,1,1,0,0,0-.83-.32,1.27,1.27,0,0,0-1.09.45,2.5,2.5,0,0,0-.34,1.49V36h-.88V30.62H238l.13.73h0a1.6,1.6,0,0,1,.65-.61,2,2,0,0,1,.93-.22,1.59,1.59,0,0,1,1.64.9h0a1.77,1.77,0,0,1,.71-.66,2.15,2.15,0,0,1,1-.23,1.81,1.81,0,0,1,1.36.47,2.1,2.1,0,0,1,.45,1.5V36Z" transform="translate(0 0)"/><path class="cls-4" d="M248.9,36.08a2.47,2.47,0,0,1-1.89-.73,2.81,2.81,0,0,1-.69-2,3.09,3.09,0,0,1,.64-2.05,2.14,2.14,0,0,1,1.73-.76,2.08,2.08,0,0,1,1.61.65,2.5,2.5,0,0,1,.6,1.77v.53h-3.67a2.06,2.06,0,0,0,.46,1.39,1.61,1.61,0,0,0,1.25.47,4.24,4.24,0,0,0,.82-.08,4.67,4.67,0,0,0,.9-.3v.77a4.25,4.25,0,0,1-.83.27A4.75,4.75,0,0,1,248.9,36.08Zm-.22-4.84a1.28,1.28,0,0,0-1,.41,1.9,1.9,0,0,0-.43,1.13H250a1.74,1.74,0,0,0-.35-1.14A1.19,1.19,0,0,0,248.68,31.24Z" transform="translate(0 0)"/><path class="cls-4" d="M255.91,36V32.55a1.41,1.41,0,0,0-.29-1,1.18,1.18,0,0,0-.91-.32,1.46,1.46,0,0,0-1.2.46,2.35,2.35,0,0,0-.37,1.49V36h-.88V30.62H253l.13.73h0a1.65,1.65,0,0,1,.7-.61,2.24,2.24,0,0,1,1-.22,2,2,0,0,1,1.46.48,2,2,0,0,1,.48,1.49V36Z" transform="translate(0 0)"/><path class="cls-4" d="M260.23,35.36l.4,0a1.81,1.81,0,0,0,.35-.08v.67a2,2,0,0,1-.38.1,2.65,2.65,0,0,1-.52.05q-1.57,0-1.57-1.66V31.3h-.76v-.42l.77-.35.35-1.14h.52v1.23h1.55v.68h-1.55v3.1a1,1,0,0,0,.22.71A.78.78,0,0,0,260.23,35.36Z" transform="translate(0 0)"/><path class="cls-4" d="M266.7,33.29a3,3,0,0,1-.66,2.05,2.34,2.34,0,0,1-1.84.74,2.44,2.44,0,0,1-1.29-.34,2.23,2.23,0,0,1-.86-1,3.38,3.38,0,0,1-.3-1.47,3,3,0,0,1,.65-2,2.34,2.34,0,0,1,1.84-.73,2.29,2.29,0,0,1,1.8.74A2.92,2.92,0,0,1,266.7,33.29Zm-4,0a2.51,2.51,0,0,0,.4,1.54,1.57,1.57,0,0,0,2.34,0,2.5,2.5,0,0,0,.4-1.54,2.42,2.42,0,0,0-.4-1.52,1.41,1.41,0,0,0-1.18-.51Q262.66,31.26,262.66,33.29Z" transform="translate(0 0)"/><path class="cls-4" d="M272.59,36.08a2,2,0,0,1-1.62-.72,3.21,3.21,0,0,1-.58-2,3.25,3.25,0,0,1,.58-2.05,2.15,2.15,0,0,1,3.29.05h.06c0-.06,0-.2,0-.39s0-.33,0-.4V28.38h.88V36h-.71l-.13-.72h0A1.89,1.89,0,0,1,272.59,36.08Zm.14-.73a1.45,1.45,0,0,0,1.17-.44,2.22,2.22,0,0,0,.37-1.43v-.16a2.62,2.62,0,0,0-.37-1.59,1.4,1.4,0,0,0-1.17-.48,1.2,1.2,0,0,0-1,.54,2.71,2.71,0,0,0-.37,1.54,2.57,2.57,0,0,0,.37,1.51A1.23,1.23,0,0,0,272.73,35.35Z" transform="translate(0 0)"/><path class="cls-4" d="M280.16,36l-.17-.76h0a2.25,2.25,0,0,1-.8.68,2.47,2.47,0,0,1-1,.18,1.76,1.76,0,0,1-1.24-.42,1.52,1.52,0,0,1-.45-1.17q0-1.63,2.57-1.71l.91,0v-.32a1.31,1.31,0,0,0-.26-.9,1.09,1.09,0,0,0-.84-.29,2.51,2.51,0,0,0-.8.13,6.57,6.57,0,0,0-.71.28L277,31a4,4,0,0,1,.88-.34,3.82,3.82,0,0,1,.95-.12,2.09,2.09,0,0,1,1.45.43,1.76,1.76,0,0,1,.47,1.37V36Zm-1.81-.61a1.63,1.63,0,0,0,1.16-.4,1.48,1.48,0,0,0,.42-1.13v-.48l-.79,0a2.88,2.88,0,0,0-1.34.29.89.89,0,0,0-.42.82.81.81,0,0,0,.26.64A1.05,1.05,0,0,0,278.35,35.37Z" transform="translate(0 0)"/><path class="cls-4" d="M285,29.17a.54.54,0,0,1,.15-.42.52.52,0,0,1,.88.42.54.54,0,0,1-.15.42.55.55,0,0,1-.73,0A.55.55,0,0,1,285,29.17Zm.95,6.81h-.88V30.62h.88Z" transform="translate(0 0)"/><path class="cls-4" d="M289.53,36.08a2,2,0,0,1-1.62-.72,3.21,3.21,0,0,1-.58-2,3.25,3.25,0,0,1,.58-2.05,2.15,2.15,0,0,1,3.29.05h.06c0-.06,0-.2,0-.39s0-.33,0-.4V28.38h.88V36h-.71l-.13-.72h0A1.89,1.89,0,0,1,289.53,36.08Zm.14-.73a1.45,1.45,0,0,0,1.17-.44,2.22,2.22,0,0,0,.37-1.43v-.16a2.62,2.62,0,0,0-.37-1.59,1.4,1.4,0,0,0-1.17-.48,1.2,1.2,0,0,0-1,.54,2.71,2.71,0,0,0-.37,1.54,2.57,2.57,0,0,0,.37,1.51A1.23,1.23,0,0,0,289.67,35.35Z" transform="translate(0 0)"/><path class="cls-4" d="M296.06,36.08a2.47,2.47,0,0,1-1.89-.73,2.81,2.81,0,0,1-.69-2,3.09,3.09,0,0,1,.64-2.05,2.14,2.14,0,0,1,1.73-.76,2.08,2.08,0,0,1,1.61.65,2.5,2.5,0,0,1,.6,1.77v.53h-3.67a2.06,2.06,0,0,0,.46,1.39,1.61,1.61,0,0,0,1.25.47,4.24,4.24,0,0,0,.82-.08,4.67,4.67,0,0,0,.9-.3v.77A4.25,4.25,0,0,1,297,36,4.75,4.75,0,0,1,296.06,36.08Zm-.22-4.84a1.28,1.28,0,0,0-1,.41,1.9,1.9,0,0,0-.43,1.13h2.73a1.74,1.74,0,0,0-.35-1.14A1.19,1.19,0,0,0,295.84,31.24Z" transform="translate(0 0)"/><path class="cls-4" d="M303.08,36V32.55a1.41,1.41,0,0,0-.29-1,1.18,1.18,0,0,0-.91-.32,1.46,1.46,0,0,0-1.2.46,2.35,2.35,0,0,0-.37,1.49V36h-.88V30.62h.71l.13.73h0a1.65,1.65,0,0,1,.7-.61,2.24,2.24,0,0,1,1-.22,2,2,0,0,1,1.46.48,2,2,0,0,1,.48,1.49V36Z" transform="translate(0 0)"/><path class="cls-4" d="M307.4,35.36l.4,0a1.81,1.81,0,0,0,.35-.08v.67a2,2,0,0,1-.38.1,2.65,2.65,0,0,1-.52.05q-1.57,0-1.57-1.66V31.3h-.76v-.42l.77-.35.35-1.14h.52v1.23h1.55v.68h-1.55v3.1a1,1,0,0,0,.22.71A.78.78,0,0,0,307.4,35.36Z" transform="translate(0 0)"/><path class="cls-4" d="M309.15,29.17a.54.54,0,0,1,.15-.42.52.52,0,0,1,.88.42.54.54,0,0,1-.15.42.55.55,0,0,1-.73,0A.55.55,0,0,1,309.15,29.17Zm.95,6.81h-.88V30.62h.88Z" transform="translate(0 0)"/><path class="cls-4" d="M313.69,36.08a2,2,0,0,1-1.62-.72,3.21,3.21,0,0,1-.58-2,3.25,3.25,0,0,1,.58-2.05,2.15,2.15,0,0,1,3.29.05h.06c0-.06,0-.2,0-.39s0-.33,0-.4V28.38h.88V36h-.71l-.13-.72h0A1.89,1.89,0,0,1,313.69,36.08Zm.14-.73a1.45,1.45,0,0,0,1.17-.44,2.22,2.22,0,0,0,.37-1.43v-.16a2.62,2.62,0,0,0-.37-1.59,1.4,1.4,0,0,0-1.17-.48,1.2,1.2,0,0,0-1,.54,2.71,2.71,0,0,0-.37,1.54,2.57,2.57,0,0,0,.37,1.51A1.23,1.23,0,0,0,313.83,35.35Z" transform="translate(0 0)"/><path class="cls-4" d="M321.25,36l-.17-.76h0a2.25,2.25,0,0,1-.8.68,2.47,2.47,0,0,1-1,.18,1.76,1.76,0,0,1-1.24-.42,1.52,1.52,0,0,1-.45-1.17q0-1.63,2.57-1.71l.91,0v-.32a1.31,1.31,0,0,0-.26-.9,1.09,1.09,0,0,0-.84-.29,2.51,2.51,0,0,0-.8.13,6.57,6.57,0,0,0-.71.28l-.27-.66a4,4,0,0,1,.88-.34,3.82,3.82,0,0,1,.95-.12,2.09,2.09,0,0,1,1.45.43,1.76,1.76,0,0,1,.47,1.37V36Zm-1.81-.61a1.63,1.63,0,0,0,1.16-.4,1.48,1.48,0,0,0,.42-1.13v-.48l-.79,0a2.88,2.88,0,0,0-1.34.29.89.89,0,0,0-.42.82.81.81,0,0,0,.26.64A1.05,1.05,0,0,0,319.44,35.37Z" transform="translate(0 0)"/><path class="cls-4" d="M325.45,36.08a2,2,0,0,1-1.62-.72,3.21,3.21,0,0,1-.58-2,3.25,3.25,0,0,1,.58-2.05,2.15,2.15,0,0,1,3.29.05h.06c0-.06,0-.2,0-.39s0-.33,0-.4V28.38H328V36h-.71l-.13-.72h0A1.89,1.89,0,0,1,325.45,36.08Zm.14-.73a1.45,1.45,0,0,0,1.17-.44,2.22,2.22,0,0,0,.37-1.43v-.16a2.62,2.62,0,0,0-.37-1.59,1.4,1.4,0,0,0-1.17-.48,1.2,1.2,0,0,0-1,.54,2.71,2.71,0,0,0-.37,1.54,2.57,2.57,0,0,0,.37,1.51A1.23,1.23,0,0,0,325.6,35.35Z" transform="translate(0 0)"/><path class="cls-4" d="M332,36.08a2.47,2.47,0,0,1-1.89-.73,2.81,2.81,0,0,1-.69-2,3.09,3.09,0,0,1,.64-2.05,2.14,2.14,0,0,1,1.73-.76,2.08,2.08,0,0,1,1.61.65,2.5,2.5,0,0,1,.6,1.77v.53h-3.67a2.06,2.06,0,0,0,.46,1.39,1.61,1.61,0,0,0,1.25.47,4.24,4.24,0,0,0,.82-.08,4.67,4.67,0,0,0,.9-.3v.77a4.25,4.25,0,0,1-.83.27A4.75,4.75,0,0,1,332,36.08Zm-.22-4.84a1.28,1.28,0,0,0-1,.41,1.9,1.9,0,0,0-.43,1.13h2.73a1.74,1.74,0,0,0-.35-1.14A1.19,1.19,0,0,0,331.77,31.24Z" transform="translate(0 0)"/><path class="cls-4" d="M339.13,36l-2-5.36H338l1.14,3.16a11.33,11.33,0,0,1,.43,1.42h0l0-.14.05-.18.36-1.1,1.14-3.16h.94l-2,5.36Z" transform="translate(0 0)"/><path class="cls-4" d="M343,29.17a.54.54,0,0,1,.15-.42.52.52,0,0,1,.88.42.54.54,0,0,1-.15.42.55.55,0,0,1-.73,0A.55.55,0,0,1,343,29.17ZM343.9,36H343V30.62h.88Z" transform="translate(0 0)"/><path class="cls-4" d="M349.09,34.5a1.36,1.36,0,0,1-.56,1.16,2.62,2.62,0,0,1-1.58.41,3.57,3.57,0,0,1-1.68-.34v-.8a3.89,3.89,0,0,0,1.7.43,1.7,1.7,0,0,0,1-.21.67.67,0,0,0,.3-.58A.65.65,0,0,0,348,34a4.56,4.56,0,0,0-1-.5,5.88,5.88,0,0,1-1.06-.5,1.39,1.39,0,0,1-.45-.47,1.27,1.27,0,0,1-.14-.63,1.21,1.21,0,0,1,.54-1,2.51,2.51,0,0,1,1.47-.38,4.09,4.09,0,0,1,1.71.36l-.3.7a3.85,3.85,0,0,0-1.47-.34,1.61,1.61,0,0,0-.83.17.53.53,0,0,0-.28.48.59.59,0,0,0,.24.49,5.26,5.26,0,0,0,1.14.53,5,5,0,0,1,1,.46,1.45,1.45,0,0,1,.47.48A1.3,1.3,0,0,1,349.09,34.5Z" transform="translate(0 0)"/><path class="cls-4" d="M351.22,30.62v3.45a1.38,1.38,0,0,0,.29,1,1.17,1.17,0,0,0,.9.31,1.46,1.46,0,0,0,1.2-.46,2.33,2.33,0,0,0,.38-1.48V30.62h.88V36h-.72l-.13-.71h0a1.57,1.57,0,0,1-.68.6,2.34,2.34,0,0,1-1,.21,2,2,0,0,1-1.46-.46,2,2,0,0,1-.49-1.48V30.62Z" transform="translate(0 0)"/><path class="cls-4" d="M359.88,36l-.17-.76h0a2.25,2.25,0,0,1-.8.68,2.47,2.47,0,0,1-1,.18,1.76,1.76,0,0,1-1.24-.42,1.52,1.52,0,0,1-.45-1.17q0-1.63,2.57-1.71l.91,0v-.32a1.31,1.31,0,0,0-.26-.9,1.09,1.09,0,0,0-.84-.29,2.51,2.51,0,0,0-.8.13,6.57,6.57,0,0,0-.71.28l-.27-.66a4,4,0,0,1,.88-.34,3.82,3.82,0,0,1,.95-.12A2.09,2.09,0,0,1,360,31a1.76,1.76,0,0,1,.47,1.37V36Zm-1.81-.61a1.63,1.63,0,0,0,1.16-.4,1.48,1.48,0,0,0,.42-1.13v-.48l-.79,0a2.88,2.88,0,0,0-1.34.29.89.89,0,0,0-.42.82.81.81,0,0,0,.26.64A1.05,1.05,0,0,0,358.07,35.37Z" transform="translate(0 0)"/><path class="cls-4" d="M363.06,36h-.88v-7.6h.88Z" transform="translate(0 0)"/></g></svg>