<svg xmlns="http://www.w3.org/2000/svg" viewBox="0 0 460.8 259.2"><defs><style>.cls-1{isolation:isolate;}.cls-2{fill:#d9d621;}.cls-3{fill:#55993b;}.cls-4{fill:#fff;fill-rule:evenodd;}.cls-5{fill:#111;}</style></defs><title>4-Biel</title><g id="Retângulo_1" data-name="Retângulo 1" class="cls-1"><g id="Retângulo_1-2" data-name="Retângulo 1"><rect class="cls-2" width="230.4" height="259.2"/></g></g><g id="Retângulo_2" data-name="Retângulo 2" class="cls-1"><g id="Retângulo_2-2" data-name="Retângulo 2"><rect class="cls-3" x="230.4" width="230.4" height="259.2"/></g></g><g id="Forma_1" data-name="Forma 1" class="cls-1"><g id="Forma_1-2" data-name="Forma 1"><path class="cls-4" d="M67.5,138.57l.05.1c11.38-5.34,19.31-15.42,19.31-24.43a10.67,10.67,0,0,0-5.47-9.66A19.41,19.41,0,0,0,83,97.15c0-5.7-3.88-9.37-9.79-9.37-6.48,0-13.47,4-18.44,8l3.67-7.57H38.6l-.44,50.46H67.5ZM50,122.52c0-7.57,14-17.3,24.85-17.3a15.11,15.11,0,0,1,3.75.5c-2.81,5.63-8.28,11.75-17.15,16.58C55.17,125.7,50,125.77,50,122.52Zm51.88-19.46a17,17,0,0,1-2,.9l-.16.06c-.31.11-.63.22-1,.32s-.58.17-.88.24l-.52.13-.51.1-.65.11a.14.14,0,0,1-.09,0c-.24,0-.48.07-.73.09a3.42,3.42,0,0,1-.46,0l-.41,0a13,13,0,0,1-2.42-.08l-7.28,33.66h25.07l-7.51-33.43Zm-7.57.6c6.57,0,13.51-5.16,13.51-10.28,0-3.47-3-5.79-7.48-5.79-6.57,0-13.51,5.17-13.51,10.29C86.8,101.35,89.84,103.67,94.28,103.67Zm16.67,27.54a10.61,10.61,0,0,0,1.52,2.27c2.94,3.39,8.2,5.38,14.9,5.38,9.43,0,20.17-4.25,27-8.15l-2.74-15.34L125.42,127.5l.63-9.31a26.48,26.48,0,0,0,4.12.19c8.78-.43,15.34-3.6,15.34-7.64,0-2.88-3.38-4.61-8.42-4.61a32.72,32.72,0,0,0-10.32,1.68l.54-7.87,24.48,5.17,2.59-16.22a60.66,60.66,0,0,0-12.9-1.3c-10.37,0-23.45,3.29-28.34,10.67a11.25,11.25,0,0,0-1.36,2.73,11.54,11.54,0,0,0-.62,3.75,11.33,11.33,0,0,0,.33,2.75,10.66,10.66,0,0,0,1.15,2.89,12.67,12.67,0,0,0,3.2,3.72c-3.68,3.46-6,7.79-6,12.25A10.82,10.82,0,0,0,110.95,131.2Zm78.24-17.58L171.1,125.16,183.36,88H157.78v50.39H192ZM65.45,147.37a7.89,7.89,0,0,0-5.06-1.75,5.62,5.62,0,0,0-.58,0,7.69,7.69,0,0,0-1.17.18,8,8,0,0,0-2.12.8,9.75,9.75,0,0,0-1.17.76,10,10,0,0,0-1.24,1.11,8.66,8.66,0,0,0-6.28-2.87,8,8,0,0,0-5.58,2.2A9.86,9.86,0,0,0,41.15,149c-1.91,2.53-3,6.34-3,11a31.24,31.24,0,0,0,2.14,11.27H50.84l-6.38-16.85h6.2a18.45,18.45,0,0,0-.83,5.55c0,4.07,1.78,7.16,4.28,7.16S58.39,164,58.39,160a18.43,18.43,0,0,0-.84-5.54h6.2l-6.38,16.83H67.9A31,31,0,0,0,70,160c0-5-1.27-9.09-3.5-11.59A8.22,8.22,0,0,0,65.45,147.37Zm27,7,1.3-8.18a30.83,30.83,0,0,0-6.5-.65c-5.23,0-11.81,1.66-14.29,5.38a5.94,5.94,0,0,0-.69,1.38,5.86,5.86,0,0,0-.14,3.28A5.38,5.38,0,0,0,72.7,157a6.38,6.38,0,0,0,1.61,1.88,8.68,8.68,0,0,0-3,6.18,5.33,5.33,0,0,0,1.31,3.57c1.48,1.71,4.14,2.71,7.51,2.71,4.75,0,10.16-2.14,13.62-4.1l-1.38-7.74-13.22,6.12.32-4.68a14.11,14.11,0,0,0,2.08.09c4.42-.22,7.72-1.81,7.72-3.85,0-1.45-1.7-2.32-4.24-2.32a16.28,16.28,0,0,0-5.2.85l.27-4Zm75.44,0,1.31-8.18a30.83,30.83,0,0,0-6.5-.65c-5.23,0-11.82,1.66-14.29,5.38a6,6,0,0,0-.69,1.38,5.86,5.86,0,0,0-.14,3.28,5.37,5.37,0,0,0,.58,1.45,6.38,6.38,0,0,0,1.61,1.88,8.68,8.68,0,0,0-3,6.18,5.43,5.43,0,0,0,.55,2.43,5,5,0,0,0,.76,1.14c1.48,1.71,4.14,2.71,7.51,2.71,4.75,0,10.16-2.14,13.62-4.1l-1.38-7.74-13.22,6.12.32-4.68A14.11,14.11,0,0,0,157,161c4.42-.22,7.72-1.81,7.72-3.85,0-1.45-1.7-2.32-4.24-2.32a16.29,16.29,0,0,0-5.2.85l.27-4ZM181,164.51,191.89,152v-6.25H170.45L172,156.59l8.75-4.64L170.54,164v7.12H192l-1.71-11.55Zm-68.31-19a13.83,13.83,0,0,0-8.14,3.16l1.53-2.94H95V171.2h7.84l-2.38-10.54,10.78-6.91-6.78,17.45H118.2l-.79-10-2.8,1.27c3.26-3.63,5-7.23,5-10.35C119.65,148.2,116.82,145.55,112.65,145.55Zm19.3-.15a19.41,19.41,0,0,0-2.13.12,24.51,24.51,0,0,0-3.66.61c-.65.15-1.3.32-2,.52-1,.31-2.1.68-3.17,1.11V158.7a12.06,12.06,0,0,1,3-2.22l.08-.05c.32-.18.65-.34,1-.5l.14-.07c.52-.24,1.05-.46,1.6-.66a21.37,21.37,0,0,1,2.32-.71l.28-.07a18.35,18.35,0,0,1,2.12-.35A12.42,12.42,0,0,1,133,154c2.83,0,4.69,1.27,4.69,3.16a2.11,2.11,0,0,1,0,.47c0,.1,0,.2,0,.3s0,0,0,0a1.34,1.34,0,0,1-.07.27.5.5,0,0,0-.05.13c0,.09-.06.16-.09.23l0,.1s0,.07-.05.1a6.44,6.44,0,0,1-1.13,1.66,10.3,10.3,0,0,1-3.7,2.48c-.26.11-.53.2-.8.29l-.18-.78-.79-3.5-.23-1v-.06l-.25-1.1-.74-.08h-.35a9,9,0,0,0-4.32,1.17,9.21,9.21,0,0,0-1.27.82l-.41,1.88-.26,1.2-.23,1.1-.22,1-.27,1.27,0,.06-1.07,5-.22,1h1.13l.28,0h0a33,33,0,0,0,3.3.16c.77,0,1.52,0,2.27-.08l1.12-.11a26.55,26.55,0,0,0,4.33-.86,19.31,19.31,0,0,0,9-5.23A14,14,0,0,0,144,162.6a11.82,11.82,0,0,0,1.58-5.9C145.6,150.12,140,145.4,131.95,145.4Z" transform="translate(0 0)"/></g></g><g id="Forma_2" data-name="Forma 2" class="cls-1"><g id="Forma_2-2" data-name="Forma 2"><path class="cls-4" d="M368.25,74.64c-46.59,0-95.85,36.92-95.85,71.83,0,22.79,20.41,38.09,50.79,38.09,46.59,0,95.85-36.92,95.85-71.82C419,90,398.63,74.64,368.25,74.64Zm-42,102.51c-26.28,0-43.94-13.25-43.94-33C282.28,114,324.9,82,365.21,82c26.28,0,44,13.25,44,33C409.16,145.2,366.53,177.15,326.22,177.15ZM364.58,121a19.42,19.42,0,0,0,1.65-7.43c0-5.69-3.89-9.37-9.78-9.37-6.48,0-13.46,4-18.42,8l3.67-7.57H321.83L321.4,155h29.31v-.1l0,.1C362.13,149.7,370,139.62,370,130.61A10.67,10.67,0,0,0,364.58,121Zm-19.94,17.72c-6.26,3.39-11.44,3.46-11.44.22,0-7.57,14-17.29,24.82-17.29a15.08,15.08,0,0,1,3.75.5C359,127.73,353.49,133.85,344.64,138.68Z" transform="translate(0 0)"/></g></g><g id="LOGOTIPO"><path class="cls-5" d="M95.38,18.71v1.21H89.62v-5.6h1.44v4.39Z" transform="translate(0 0)"/><path class="cls-5" d="M95.59,17.11c0-1.85,1.06-2.87,3.52-2.87s3.52,1,3.52,2.87S101.56,20,99.11,20,95.59,19,95.59,17.11Zm5.6,0c0-1.14-.58-1.66-2.08-1.66S97,16,97,17.11s.58,1.68,2.08,1.68S101.19,18.26,101.19,17.11Z" transform="translate(0 0)"/><path class="cls-5" d="M106.53,16.92h3.55v3H109L109,19a3.33,3.33,0,0,1-2.56,1c-2.06,0-3.33-1-3.33-2.88s1.26-2.88,3.57-2.88,3.36.87,3.45,2.26h-1.46c-.08-.42-.46-1.06-2-1.06-1.87,0-2.13,1-2.13,1.7s.26,1.74,2.13,1.74c1.39,0,2-.61,2-1h-2.09Z" transform="translate(0 0)"/><path class="cls-5" d="M110.53,17.11c0-1.85,1.06-2.87,3.52-2.87s3.52,1,3.52,2.87S116.5,20,114,20,110.53,19,110.53,17.11Zm5.6,0c0-1.14-.58-1.66-2.08-1.66S112,16,112,17.11s.58,1.68,2.08,1.68S116.13,18.26,116.13,17.11Z" transform="translate(0 0)"/><path class="cls-5" d="M124.52,15.53h-2.72v4.39h-1.44V15.53h-2.72V14.32h6.88Z" transform="translate(0 0)"/><path class="cls-5" d="M126.44,19.92H125v-5.6h1.44Z" transform="translate(0 0)"/><path class="cls-5" d="M133.62,16.38a2,2,0,0,1-2.14,2h-3v1.5h-1.44v-5.6h4.4A2,2,0,0,1,133.62,16.38Zm-1.44,0c0-.85-.67-.85-1.1-.85h-2.56v1.69h2.56C131.51,17.22,132.18,17.22,132.18,16.38Z" transform="translate(0 0)"/><path class="cls-5" d="M134,17.11c0-1.85,1.06-2.87,3.52-2.87s3.52,1,3.52,2.87S140,20,137.53,20,134,19,134,17.11Zm5.6,0c0-1.14-.58-1.66-2.08-1.66s-2.08.52-2.08,1.66.58,1.68,2.08,1.68S139.61,18.26,139.61,17.11Z" transform="translate(0 0)"/></g><g id="ISOTIPO"><path class="cls-5" d="M327.22,19.85h-1.44v-5.6h1.44Z" transform="translate(0 0)"/><path class="cls-5" d="M329.14,17.93c0,.59.48.86,2.3.86,1.51,0,2-.17,2-.61s-.32-.54-2.13-.63c-2.44-.11-3.41-.5-3.41-1.75s1.26-1.62,3.35-1.62,3.39.53,3.39,1.91h-1.44c0-.62-.62-.77-2.11-.77s-1.75.14-1.75.55.34.51,2,.61c2.21.12,3.57.24,3.57,1.65s-1.42,1.8-3.49,1.8c-2.29,0-3.66-.39-3.66-2Z" transform="translate(0 0)"/><path class="cls-5" d="M335.21,17c0-1.85,1.06-2.87,3.52-2.87s3.52,1,3.52,2.87-1.06,2.89-3.52,2.89S335.21,18.91,335.21,17Zm5.6,0c0-1.14-.58-1.66-2.08-1.66s-2.08.52-2.08,1.66.58,1.68,2.08,1.68S340.8,18.19,340.8,17Z" transform="translate(0 0)"/><path class="cls-5" d="M349.2,15.46h-2.72v4.39H345V15.46h-2.72V14.26h6.88Z" transform="translate(0 0)"/><path class="cls-5" d="M351.12,19.85h-1.44v-5.6h1.44Z" transform="translate(0 0)"/><path class="cls-5" d="M358.3,16.31a2,2,0,0,1-2.14,2h-3v1.5h-1.44v-5.6h4.4A2,2,0,0,1,358.3,16.31Zm-1.44,0c0-.85-.67-.85-1.1-.85H353.2v1.69h2.56C356.19,17.15,356.86,17.15,356.86,16.31Z" transform="translate(0 0)"/><path class="cls-5" d="M358.7,17c0-1.85,1.06-2.87,3.52-2.87s3.52,1,3.52,2.87-1.06,2.89-3.52,2.89S358.7,18.91,358.7,17Zm5.6,0c0-1.14-.58-1.66-2.08-1.66s-2.08.52-2.08,1.66.58,1.68,2.08,1.68S364.29,18.19,364.29,17Z" transform="translate(0 0)"/></g></svg>