<svg xmlns="http://www.w3.org/2000/svg" viewBox="0 0 460.8 259.2"><defs><style>.cls-1{isolation:isolate;}.cls-2{fill:#d9d621;}.cls-3{fill:#111;}.cls-4{fill:#55993b;fill-rule:evenodd;}</style></defs><title>6-Biel</title><g id="Ret창ngulo_1" data-name="Ret창ngulo 1" class="cls-1"><g id="Ret창ngulo_1-2" data-name="Ret창ngulo 1"><rect class="cls-2" width="460.8" height="259.2"/></g></g><g id="LOGOTIPO_TAGLINE" data-name="LOGOTIPO + TAGLINE"><path class="cls-3" d="M181.54,18.71v1.21h-5.76v-5.6h1.44v4.39Z" transform="translate(0 0)"/><path class="cls-3" d="M181.75,17.11c0-1.85,1.06-2.87,3.52-2.87s3.52,1,3.52,2.87S187.72,20,185.27,20,181.75,19,181.75,17.11Zm5.6,0c0-1.14-.58-1.66-2.08-1.66s-2.08.52-2.08,1.66.58,1.68,2.08,1.68S187.35,18.26,187.35,17.11Z" transform="translate(0 0)"/><path class="cls-3" d="M192.69,16.92h3.55v3h-1.06l-.06-.88a3.33,3.33,0,0,1-2.56,1c-2.06,0-3.33-1-3.33-2.88s1.26-2.88,3.57-2.88,3.36.87,3.45,2.26h-1.46c-.08-.42-.46-1.06-2-1.06-1.87,0-2.13,1-2.13,1.7s.26,1.74,2.13,1.74c1.39,0,2-.61,2-1h-2.09Z" transform="translate(0 0)"/><path class="cls-3" d="M196.69,17.11c0-1.85,1.06-2.87,3.52-2.87s3.52,1,3.52,2.87S202.66,20,200.21,20,196.69,19,196.69,17.11Zm5.6,0c0-1.14-.58-1.66-2.08-1.66s-2.08.52-2.08,1.66.58,1.68,2.08,1.68S202.29,18.26,202.29,17.11Z" transform="translate(0 0)"/><path class="cls-3" d="M210.68,15.53H208v4.39h-1.44V15.53h-2.72V14.32h6.88Z" transform="translate(0 0)"/><path class="cls-3" d="M212.6,19.92h-1.44v-5.6h1.44Z" transform="translate(0 0)"/><path class="cls-3" d="M219.78,16.38a2,2,0,0,1-2.14,2h-3v1.5h-1.44v-5.6h4.4A2,2,0,0,1,219.78,16.38Zm-1.44,0c0-.85-.67-.85-1.1-.85h-2.56v1.69h2.56C217.67,17.22,218.34,17.22,218.34,16.38Z" transform="translate(0 0)"/><path class="cls-3" d="M220.18,17.11c0-1.85,1.06-2.87,3.52-2.87s3.52,1,3.52,2.87S226.15,20,223.69,20,220.18,19,220.18,17.11Zm5.6,0c0-1.14-.58-1.66-2.08-1.66s-2.08.52-2.08,1.66.58,1.68,2.08,1.68S225.77,18.26,225.77,17.11Z" transform="translate(0 0)"/><path class="cls-3" d="M238,17.77h-2.58v2.15h-1.37V17.77h-2.45V16.63h2.45V14.48h1.37v2.15H238Z" transform="translate(0 0)"/><path class="cls-3" d="M249.34,15.53h-2.72v4.39h-1.44V15.53h-2.72V14.32h6.88Z" transform="translate(0 0)"/><path class="cls-3" d="M253.62,18.73h-3.35l-.6,1.19h-1.58l2.89-5.6h1.94l2.89,5.6h-1.59Zm-.54-1.07-1.13-2.27-1.14,2.27Z" transform="translate(0 0)"/><path class="cls-3" d="M258.9,16.92h3.55v3h-1.06l-.06-.88a3.33,3.33,0,0,1-2.56,1c-2.06,0-3.33-1-3.33-2.88s1.26-2.88,3.57-2.88,3.36.87,3.45,2.26H261c-.08-.42-.46-1.06-2-1.06-1.87,0-2.13,1-2.13,1.7s.26,1.74,2.13,1.74c1.39,0,2-.61,2-1H258.9Z" transform="translate(0 0)"/><path class="cls-3" d="M268.77,18.71v1.21H263v-5.6h1.44v4.39Z" transform="translate(0 0)"/><path class="cls-3" d="M270.77,19.92h-1.44v-5.6h1.44Z" transform="translate(0 0)"/><path class="cls-3" d="M278.63,14.32v5.6h-2l-3.81-4.2v4.2h-1.44v-5.6h2l3.82,4.21V14.32Z" transform="translate(0 0)"/><path class="cls-3" d="M280.71,15.47V16.6h4.48v1h-4.48v1.14h4.48v1.14h-5.92v-5.6h5.92v1.14Z" transform="translate(0 0)"/></g><g id="Forma_1" data-name="Forma 1" class="cls-1"><g id="Forma_1-2" data-name="Forma 1"><path class="cls-4" d="M155.09,134.06l.08.16c18-8.43,30.51-24.37,30.51-38.61A16.86,16.86,0,0,0,177,80.35a30.68,30.68,0,0,0,2.61-11.74c0-9-6.13-14.8-15.48-14.8-10.24,0-21.28,6.37-29.14,12.64l5.8-12H109.42l-.7,79.73h46.37Zm-27.7-25.35c0-12,22.09-27.33,39.27-27.33a23.88,23.88,0,0,1,5.93.79c-4.44,8.89-13.09,18.57-27.1,26.19C135.6,113.72,127.39,113.83,127.39,108.71Zm82-30.75a26.9,26.9,0,0,1-3.15,1.42l-.25.09c-.49.17-1,.35-1.52.51s-.92.27-1.39.38c-.27.08-.54.14-.82.21s-.54.11-.81.16-.68.13-1,.17a.22.22,0,0,1-.14,0c-.38.06-.76.11-1.15.14a5.41,5.41,0,0,1-.73.06c-.21,0-.43,0-.65,0a20.6,20.6,0,0,1-3.83-.13l-11.51,53.19H222L210.15,81.39Zm-12,.95c10.39,0,21.34-8.16,21.34-16.24,0-5.49-4.81-9.14-11.83-9.14-10.39,0-21.34,8.18-21.34,16.26C185.59,75.25,190.39,78.91,197.41,78.91ZM222,114.8a17.1,17.1,0,0,0,1.72,7.62,16.76,16.76,0,0,0,2.4,3.59c4.65,5.36,13,8.49,23.54,8.49,14.91,0,31.87-6.72,42.69-12.88L288,97.38l-41.42,19.19,1-14.71a41.85,41.85,0,0,0,6.51.3c13.88-.68,24.24-5.69,24.24-12.07,0-4.56-5.34-7.29-13.31-7.29a51.72,51.72,0,0,0-16.32,2.66L249.6,73l38.69,8.18,4.09-25.62A95.88,95.88,0,0,0,272,53.52c-16.39,0-37.06,5.2-44.79,16.86a17.78,17.78,0,0,0-2.15,4.32,18.23,18.23,0,0,0-1,5.93A17.91,17.91,0,0,0,224.6,85a16.84,16.84,0,0,0,1.82,4.57,20,20,0,0,0,5.06,5.88C225.66,100.91,222,107.74,222,114.8ZM347.4,94.64l-28.58,18.22L338.18,54.2H297.76v79.62h54.08ZM151.85,148a12.47,12.47,0,0,0-8-2.77,8.88,8.88,0,0,0-.92,0,12.15,12.15,0,0,0-1.85.28,12.69,12.69,0,0,0-3.35,1.27,15.41,15.41,0,0,0-1.85,1.2,15.71,15.71,0,0,0-2,1.76A13.69,13.69,0,0,0,124,145.2a12.56,12.56,0,0,0-8.82,3.48,15.57,15.57,0,0,0-1.72,1.91c-3,4-4.73,10-4.73,17.34a49.35,49.35,0,0,0,3.38,17.81h16.65l-10.09-26.62h9.8a29.15,29.15,0,0,0-1.31,8.76c0,6.44,2.81,11.31,6.77,11.31s6.77-4.87,6.77-11.31a29.12,29.12,0,0,0-1.33-8.75l9.8,0-10.09,26.59h16.65a49,49,0,0,0,3.38-17.81c0-8-2-14.36-5.53-18.32A13,13,0,0,0,151.85,148Zm42.53,19.2-20.88,9.66.51-7.4a22.29,22.29,0,0,0,3.29.14c7-.35,12.2-2.86,12.2-6.09,0-2.29-2.69-3.67-6.7-3.67a25.74,25.74,0,0,0-8.22,1.34l.43-6.26L194.5,159l2.06-12.92a48.73,48.73,0,0,0-10.28-1c-8.27,0-18.67,2.63-22.58,8.49a9.39,9.39,0,0,0-1.09,2.18,9.26,9.26,0,0,0-.22,5.19,8.49,8.49,0,0,0,.92,2.29,10.08,10.08,0,0,0,2.55,3c-2.92,2.75-4.76,6.2-4.76,9.76a8.42,8.42,0,0,0,2.07,5.65c2.34,2.7,6.55,4.29,11.87,4.29,7.51,0,16.06-3.38,21.52-6.48ZM313.72,159l2.07-12.92a48.72,48.72,0,0,0-10.28-1c-8.27,0-18.69,2.63-22.58,8.49a9.39,9.39,0,0,0-1.09,2.18,9.26,9.26,0,0,0-.22,5.19,8.48,8.48,0,0,0,.92,2.29,10.09,10.09,0,0,0,2.55,3c-2.92,2.75-4.76,6.2-4.76,9.76a8.58,8.58,0,0,0,.87,3.84,8,8,0,0,0,1.2,1.8c2.34,2.7,6.55,4.29,11.87,4.29,7.51,0,16.06-3.38,21.52-6.48l-2.18-12.23-20.88,9.66.51-7.4a22.29,22.29,0,0,0,3.29.14c7-.35,12.2-2.86,12.2-6.09,0-2.29-2.69-3.67-6.7-3.67a25.74,25.74,0,0,0-8.22,1.34l.43-6.26Zm20.66,16.05,17.28-19.82v-9.87H317.79l2.43,17.16,13.83-7.34-16.13,19.12v11.25h33.91l-2.7-18.25Zm-107.95-30c-4.14,0-8.66,1.79-12.87,5l2.42-4.65H198.55v40.19h12.39L207.18,169l17-10.91-10.72,27.57h21.71L234,169.89l-4.43,2c5.15-5.74,8-11.42,8-16.35C237.51,149.28,233,145.08,226.44,145.08Zm30.5-.24a30.66,30.66,0,0,0-3.37.19,38.74,38.74,0,0,0-5.79,1c-1,.24-2.06.51-3.1.82-1.64.49-3.32,1.08-5,1.76v17.29a19,19,0,0,1,4.66-3.51.88.88,0,0,1,.13-.08c.51-.28,1-.54,1.57-.79l.22-.11c.82-.38,1.66-.73,2.53-1a33.78,33.78,0,0,1,3.67-1.12,4.51,4.51,0,0,1,.44-.11,29,29,0,0,1,3.35-.55,19.63,19.63,0,0,1,2.31-.14c4.47,0,7.41,2,7.41,5a3.33,3.33,0,0,1,0,.74c0,.16,0,.32-.08.47s0,0,0,0a2.13,2.13,0,0,1-.11.43.79.79,0,0,0-.08.21c0,.14-.09.25-.14.36a1.1,1.1,0,0,0-.06.16s0,.11-.08.16a10.18,10.18,0,0,1-1.79,2.63,16.28,16.28,0,0,1-5.85,3.92c-.41.17-.84.32-1.26.46l-.28-1.23-1.25-5.54-.36-1.6,0-.09-.4-1.74-1.17-.13c-.19,0-.36,0-.55,0a14.26,14.26,0,0,0-6.83,1.85,14.54,14.54,0,0,0-2,1.3l-.65,3-.41,1.9-.36,1.74-.35,1.57-.43,2,0,.09-1.69,7.88-.35,1.61h1.79l.44,0h0c1.38.14,3.21.25,5.22.25,1.22,0,2.4,0,3.59-.13.6,0,1.19-.11,1.77-.17a42,42,0,0,0,6.85-1.36,30.52,30.52,0,0,0,14.15-8.27A22.15,22.15,0,0,0,276,172a18.68,18.68,0,0,0,2.5-9.32C278.52,152.31,269.63,144.85,256.93,144.85Zm-55,54.21a3.48,3.48,0,0,0,.93-2.31c0-1.75-.83-3.13-3.53-3.13H188.84v11.89h10.87c2.7,0,3.87-1.46,3.87-3.47A3.36,3.36,0,0,0,201.9,199.05Zm-10-3.23h6.3c.83,0,1.58,0,1.58,1.22s-.75,1.24-1.56,1.24h-6.32Zm7.07,7.32h-7.07v-2.51H199c.82,0,1.56,0,1.56,1.26S199.77,203.15,199,203.15Zm12.43-7.82a19.59,19.59,0,0,0-6.13,1l1,2.12a16.72,16.72,0,0,1,5-.73c1.36,0,3.8.15,3.8,2.06a14.54,14.54,0,0,0-4.6-.71c-3.18,0-6,.82-6,3.42,0,2.26,1.75,3.16,4.55,3.16a13.43,13.43,0,0,0,6.08-1.41v1.24H218v-5C217.94,196.67,215.56,195.33,211.39,195.33Zm3.67,7.07a14.93,14.93,0,0,1-5.25,1.14c-1.51,0-2.48-.08-2.48-1.14s1.31-1.39,3.48-1.39a13.82,13.82,0,0,1,4.25.61Zm7.11-5.2v-1.7h-2.9v10h2.9v-6a8.31,8.31,0,0,1,5.26-1.75,10.05,10.05,0,0,1,2.56.34v-2.43a10.49,10.49,0,0,0-2.7-.34A7.41,7.41,0,0,0,222.16,197.2Zm16.91-1.87a6.75,6.75,0,0,0-5,1.73v-5.15h-2.9v13.59h2.9v-1.56a6.75,6.75,0,0,0,5,1.73c3.21,0,6-1.34,6-5.17S242.29,195.33,239.08,195.33Zm-1,7.92c-2.6,0-4-.76-4-2.74s1.43-2.75,4-2.75,4,.76,4,2.75S240.71,203.25,238.11,203.25Zm14.69-7.92c-4.06,0-6.93,1.5-6.93,5.18s3,5.17,6.76,5.17,6.18-1.21,6.84-3.75h-2.89c-.73,1-2,1.39-4,1.39s-3.46-.53-3.79-2.12h10.8C259.64,196.64,256.6,195.33,252.79,195.33Zm-3.86,4c.46-1.41,1.85-1.8,3.84-1.8,1.83,0,3.26.39,3.75,1.8Zm14.7-2.14v-1.7h-2.9v10h2.9v-6a8.31,8.31,0,0,1,5.26-1.75,10.05,10.05,0,0,1,2.56.34v-2.43a10.49,10.49,0,0,0-2.7-.34A7.41,7.41,0,0,0,263.64,197.2Z" transform="translate(0 0)"/></g></g></svg>