<svg xmlns="http://www.w3.org/2000/svg" viewBox="0 0 460.8 259.2"><defs><style>.cls-1{isolation:isolate;}.cls-2{fill:#55993b;}.cls-3{fill:#fff;fill-rule:evenodd;}.cls-4{fill:#111;}</style></defs><title>7-Biel</title><g id="Ret창ngulo_1" data-name="Ret창ngulo 1" class="cls-1"><g id="Ret창ngulo_1-2" data-name="Ret창ngulo 1"><rect class="cls-2" width="460.8" height="259.2"/></g></g><g id="Forma_1" data-name="Forma 1" class="cls-1"><g id="Forma_1-2" data-name="Forma 1"><path class="cls-3" d="M224.58,104.31a15.42,15.42,0,0,1-10.35.33c0-.31.06-.57.1-.83A7,7,0,0,0,200.85,100a29.61,29.61,0,0,0-1.06,3,1.26,1.26,0,0,1-1.47,1.07q-22.9,0-45.8,0l-6.12,0s0,4.29,0,6.19c0,.78,0,2.35,0,2.35s0,2.25,0,2.35V121l6.19,0s12.53,0,28.44,0h4.17s1.05-2.42,1.62-3.6c1.15-2.4,2.35-4.77,3.56-7.13.14-.27.46-.61.71-.62,2,0,3.93,0,6,0-.1.26-.15.42-.22.58a94.84,94.84,0,0,1-16.51,25.78,132.5,132.5,0,0,1-13.83,13.09,8.13,8.13,0,0,0,9.9,12.9,91.76,91.76,0,0,0,22.25-22.65,108.32,108.32,0,0,0,13.5-28.08c.12-.38.26-.75.39-1.1,1.19.23,2.25.49,3.33.65a20,20,0,0,0,10.93-1.35Zm-41.93,8.86c-.6,1.9-1.76,2.3-3.66,2.27-8.59-.12-17.18-.05-25.76-.05h-1.11v-5.63h32.19A26,26,0,0,0,182.66,113.18Zm26-9.92c-.65,2.21-1.27,4.43-2,6.61A99.59,99.59,0,0,1,192,139a86,86,0,0,1-18.73,18.34,10.4,10.4,0,0,1-1.63.8,2.73,2.73,0,0,1-2.33-1.69,2.32,2.32,0,0,1,.66-2.73c1.22-1.07,2.48-2.1,3.71-3.15a104.48,104.48,0,0,0,32.09-47.36c.09-.25.16-.51.25-.76.35-1,1-1.41,1.78-1.19A1.47,1.47,0,0,1,208.65,103.26Z" transform="translate(0 0)"/></g></g><g id="Forma_2" data-name="Forma 2" class="cls-1"><g id="Forma_2-2" data-name="Forma 2"><path class="cls-3" d="M314.55,101c-.27.05-.54.14-.82.18-1.33.19-2.66.44-4,.54a10,10,0,0,1-7-2.39,16.14,16.14,0,0,0-5.83-3.11,22,22,0,0,0-16.13,2.06,1.3,1.3,0,0,1-1,.11,22.29,22.29,0,0,0-9.36-2.78,16.9,16.9,0,0,0-10.74,2.31c-1.06.68-2.09,1.42-3.12,2.14a9.35,9.35,0,0,1-6.63,1.62c-1.28-.15-2.55-.36-3.82-.6l-3.43,3.72s3.64,7.58,7.25,10l.24.16c.13,2.76.61,12.32.88,14.45a41.72,41.72,0,0,0,7.93,20,24.43,24.43,0,0,0,2.51,2.52,22.88,22.88,0,0,0,2.3-2.78l1.48-2.46c.14.33.23.53.31.73,2.92,7.8,8.58,12.68,16.37,15.25.63.21,2.52.76,2.52.76s.65-1.49.9-2.34a11.14,11.14,0,0,1,4.4-5.87,14.13,14.13,0,0,0,5-6.93c.14-.42.3-.83.5-1.39.47.78.88,1.44,1.27,2.11.67,1.15,2.52,3.88,2.52,3.88s1.71-2.62,2.42-3.57a40.77,40.77,0,0,0,6.84-14.5c1-3.86,1.49-15,1.53-19.6q.56-.37,1.12-.78a17.6,17.6,0,0,0,6.86-10.08Zm-10.15,22.63a45,45,0,0,1-3.52,16.06c-.51,1.13-1.11,2.23-1.61,3.22-1.37-1.29-2.59-2.62-4-3.7a2.65,2.65,0,0,0-4.32,1.82q-.24,1.36-.51,2.72a12.07,12.07,0,0,1-5,8.13,12,12,0,0,0-3.87,4.48,1.66,1.66,0,0,1-.27.31,19.59,19.59,0,0,1-7.36-5.38,21.64,21.64,0,0,1-4.49-10.19,2.77,2.77,0,0,0-1.83-2.31,2.43,2.43,0,0,0-2.54.43c-1.34,1.17-2.61,2.43-3.93,3.67.06.05,0,0-.06-.06-.2-.34-.4-.68-.58-1-3.07-5.83-6-16.92-5.18-24.07a24.51,24.51,0,0,0,23.7-2.14,1.93,1.93,0,0,1,2.37,0c4.11,2.54,8.49,4.32,13.47,4.21a30,30,0,0,0,9.6-1.82A52.82,52.82,0,0,1,304.39,123.63Zm1.79-12.47c-5.28,3-10.88,4.33-16.78,2.32a37.6,37.6,0,0,1-7.07-3.64,3.54,3.54,0,0,0-4.33,0,23.3,23.3,0,0,1-8.52,4.07A20.49,20.49,0,0,1,251,108.69a15.36,15.36,0,0,1-1.25-1.42c1.75-.19,3.4-.27,5-.57A15.37,15.37,0,0,0,261,103.5a10.84,10.84,0,0,1,4.71-2.31c4.58-.7,8.88-.05,12.68,2.82a2.75,2.75,0,0,0,3.56,0,15.75,15.75,0,0,1,12.92-2.74,12,12,0,0,1,3.36,1.47,26.2,26.2,0,0,1,2.56,1.76,14.31,14.31,0,0,0,9,2.6h.59s.09.05.18.11A13.36,13.36,0,0,1,306.19,111.16Zm-11.13,13a9.18,9.18,0,0,1-8.09,3.47,10,10,0,0,1-4.84-1.77,3.07,3.07,0,0,0-4,.06,3.65,3.65,0,0,1-.35.23c-3,1.8-6.16,2.32-9.44.68a10.56,10.56,0,0,1-3.75-3.31l-4.37,3.16a14.62,14.62,0,0,0,19.29,4.67,1.32,1.32,0,0,1,1.38,0,15,15,0,0,0,7,1.73A14.8,14.8,0,0,0,300,126.59l-4.28-3.24C295.51,123.63,295.3,123.93,295.06,124.2Z" transform="translate(0 0)"/></g></g><g id="Forma_3" data-name="Forma 3" class="cls-1"><g id="Forma_3-2" data-name="Forma 3"><path class="cls-3" d="M390.2,154.41a8.17,8.17,0,0,0-1.62-4.68,8.58,8.58,0,0,0-9.19-3.38l-.45-.69-7.08-11.45c1.66-3.52,5.67-12.1,6.67-14.4a42.9,42.9,0,0,0,3.18-9,81.6,81.6,0,0,0,1.07-13.88L378,95.52l-4.88,7.89L363,119.8,348,95.56l-4.8,1.38c.08,2.66.14,5.32.33,8a32.4,32.4,0,0,0,1.53,8.82,179,179,0,0,0,9.17,20.35c-1.6,2.56-6.16,9.81-7,11.33-.44.78-.91,1.06-1.75.76a2.76,2.76,0,0,0-.84-.08,8.68,8.68,0,1,0,8.35,7.34,9.07,9.07,0,0,0-2.15-4.5l6.41-10.42a2.68,2.68,0,0,0,.85.12,21.41,21.41,0,0,1,8.69,1.91c2.68,1.14,5.08,2.63,6.51,5.32a26.37,26.37,0,0,0,1.51,2.43.84.84,0,0,1-.05,1.2,8.52,8.52,0,0,0-.4,10,8.67,8.67,0,0,0,9.4,3.6,9.2,9.2,0,0,0,3.93-2.24c.09,0,.13,0,.14,0l.53.44a8.49,8.49,0,0,0,5.61,2.06l.12-4.95C391.53,158.28,390.31,157,390.2,154.41Zm-46.48,4a3.72,3.72,0,1,1,4.41-3.63A3.73,3.73,0,0,1,343.72,158.42Zm17.8-24.48a.49.49,0,0,0-.15,0c-1.56.18-2.16-.79-2.78-2-2.95-6-6-12.05-8.39-18.33a21.51,21.51,0,0,1-1.47-7.33L366.56,135Zm7.34-4.6-3-4.81c2.75-4.46,8.69-14.07,10.91-17.65.14-.23.3-.45.45-.68l.25.11a33.92,33.92,0,0,1-1.18,5.42C374.78,115.7,371,124.44,368.86,129.34Zm16.32,26.21a3.71,3.71,0,1,1-4.21-4.45A3.71,3.71,0,0,1,385.18,155.55Z" transform="translate(0 0)"/></g></g><g id="Forma_4" data-name="Forma 4" class="cls-1"><g id="Forma_4-2" data-name="Forma 4"><path class="cls-3" d="M112.2,119.87v4.86h3.61v9.74c-.79,0-1.52,0-2.24,0a.75.75,0,0,1-.85-.54,6.92,6.92,0,0,0-3.6-3.64.87.87,0,0,1-.59-1c0-5.48,0-11,0-16.43a7.32,7.32,0,0,0-4.39-7,1,1,0,0,1-.45-.71c0-1.55,0-4.64,0-4.64v-5H84.25v5s0,3.09,0,4.64a.9.9,0,0,1-.4.67A7.34,7.34,0,0,0,79.39,113c0,5.45,0,10.9,0,16.35,0,.34.07.66-.39.86a7.26,7.26,0,0,0-3.88,3.87.68.68,0,0,1-.47.36c-.82,0-1.65,0-2.49,0v-9.74h3.59s0-1.13,0-2.42,0-2.42,0-2.42H63.6v4.83l3.64,0v.89q0,4.26,0,8.52a4.88,4.88,0,0,0,5.16,5.2h2.12c0,.8,0,1.48,0,2.16,0,.91,0,2.71,0,2.71h13c-.09.7,0,6-.07,6.7a29.09,29.09,0,0,1-1.29,7.91H82v4.86h23.9v-4.86h-4.29c-.32-2-.7-3.88-.95-5.83-.17-1.3-.14-7.2-.24-8.52q0-.13,0-.26h13s0-1.81,0-2.66,0-1.45,0-2.22h2.14a4.87,4.87,0,0,0,5.14-5.15q0-4.3,0-8.6v-.86h3.64v-4.86ZM89.14,100.43h9.62v4.78H89.14ZM84.25,113c0-1.92.93-2.86,2.83-2.86h13.81a2.49,2.49,0,0,1,2.79,2.81q0,7.95,0,15.89v.74H84.25Zm7,45.8c0-.26.07-.48.13-.7.69-3,.88-10.53.89-13.55a2.88,2.88,0,0,0,0-.33h3.4c-.07,1.4-.08,4.88-.07,5.21a40.23,40.23,0,0,0,1.06,9.37Zm17.25-19.5H79.4c0-.89,0-1.72,0-2.55A2.43,2.43,0,0,1,82,134.47H105.8a2.47,2.47,0,0,1,2.74,2.72C108.54,137.87,108.54,138.55,108.54,139.28Z" transform="translate(0 0)"/></g></g><g id="Forma_5" data-name="Forma 5" class="cls-1"><g id="Forma_5-2" data-name="Forma 5"><path class="cls-3" d="M43.34,145.36c0-3.28,0-20.29,0-26.94,0-.11,0-3.25,0-4.79l2.23-.08V109.1a20.66,20.66,0,0,1-2.41-.05,11.32,11.32,0,0,0-10.4-13.51,10.81,10.81,0,0,0-8.58,3.24A11.1,11.1,0,0,0,21,109a23.94,23.94,0,0,1-2.48,0l0,2.43,0,2.09s1.75-.06,2.27,0c0,4,0,24.57,0,31.73-.53,0-2.21.05-2.21.05v4.5a19.2,19.2,0,0,1,2.42,0,11.33,11.33,0,0,0,10.55,13.52A10.83,10.83,0,0,0,40,160.09a11.1,11.1,0,0,0,3.09-10.16,21.07,21.07,0,0,1,2.47-.08v-4.37S43.91,145.42,43.34,145.36ZM30.45,100.25a6.71,6.71,0,0,1,8.21,5.27,14.11,14.11,0,0,1-.11,3.06c0,.44-.3.54-.72.53-1.93,0-3.85,0-5.78,0s-3.85,0-5.78,0a.63.63,0,0,1-.72-.55A6.73,6.73,0,0,1,30.45,100.25Zm1.38,13.39h7c0,1.61,0,4.83,0,5L25.36,122a.9.9,0,0,1-.07-.17c0-1,0-6.35,0-8.24ZM25.32,131.1v-4.39l13.48-3.38v4.39Zm13.47,1.29v4.37L38,137l-12.74,3.15c0-1.58,0-3,0-3.6v-.74ZM35.7,157.83a6.7,6.7,0,0,1-8.51-1,6.36,6.36,0,0,1-1.63-6.45c.06-.21.33-.5.5-.5,4.09,0,8.18,0,12.28,0A6.64,6.64,0,0,1,35.7,157.83Zm-.82-12.5H25.26c0-.15,0-.34,0-.54l13.62-3.36v3.9Z" transform="translate(0 0)"/></g></g><g id="Forma_6" data-name="Forma 6" class="cls-1"><g id="Forma_6-2" data-name="Forma 6"><path class="cls-3" d="M442.31,102.84c0-1.54,0-7.07,0-7.07h-4.68s0,5.36,0,6.8a2.36,2.36,0,0,1-2.54,2.57H416.7a2.34,2.34,0,0,1-2.52-2.52c0-1.46,0-6.85,0-6.85h-4.67s0,4.83,0,6a7.4,7.4,0,0,0,3.07,6.84l-.44.7a15.69,15.69,0,0,0-2.34,5.24,18,18,0,0,0,.43,8.47c.78,2.88,1.86,5.68,2.91,8.48a15.84,15.84,0,0,1,1.1,5.47,147.22,147.22,0,0,0,1.41,17.85,10.31,10.31,0,0,0,7.71,8.55,10.46,10.46,0,0,0,10.93-3.89,11.52,11.52,0,0,0,2.12-6.21c.4-5.3.92-10.59,1.18-15.9a17.76,17.76,0,0,1,1.32-6.31,39,39,0,0,0,3.23-10.66c.4-3.19.3-6.28-1.28-9.18-.49-.89-1-1.76-1.54-2.65A7.05,7.05,0,0,0,442.31,102.84Zm-5.39,19.62a74.54,74.54,0,0,1-2.57,7.29,22.23,22.23,0,0,0-1.47,7.17c-.27,5.38-.78,10.74-1.19,16.12a6.74,6.74,0,0,1-1.13,3.58,5.73,5.73,0,0,1-10.37-2.8,177.56,177.56,0,0,1-1.35-18.67,15.2,15.2,0,0,0-1.25-5c-1-2.74-2-5.48-2.85-8.27a13.14,13.14,0,0,1-.41-6.15A12.68,12.68,0,0,1,417.4,110a1,1,0,0,1,.71-.22c2.59,0,5.18,0,7.77,0h7.77c.25,0,.6,0,.73.18,1.72,2.15,3.36,4.38,3.22,7.32A23.47,23.47,0,0,1,436.92,122.46Zm-18.09-19.67a2.35,2.35,0,0,0,2.37-2.21c0-.44,0-.88,0-1.32s0-3.5,0-3.5h-4.7s0,3.93,0,4.81A2.34,2.34,0,0,0,418.83,102.79Zm4.73-2.27a2.34,2.34,0,0,0,4.67,0c0-.85,0-4.79,0-4.79h-2.37c-1.25,0-2.33,0-2.33,0s0,3.1,0,3.52S423.54,100.11,423.56,100.52Zm7,.11a2.35,2.35,0,0,0,2.28,2.16,2.32,2.32,0,0,0,2.38-2.12c.06-.92,0-4.9,0-4.9h-4.7s0,3,0,3.47S430.57,100.17,430.6,100.63Zm-4.68,23.24a3.51,3.51,0,1,0,3.49,3.5A3.53,3.53,0,0,0,425.92,123.87Z" transform="translate(0 0)"/></g></g><g id="ICONS"><path class="cls-4" d="M216.1,19.92h-1.44v-5.6h1.44Z" transform="translate(0 0)"/><path class="cls-4" d="M220.1,14.24c2.23,0,3.35.85,3.49,2.46h-1.46c-.14-.9-.83-1.26-2-1.26-1.46,0-2.08.52-2.08,1.66s.62,1.68,2.08,1.68c1.19,0,1.9-.36,2-1.27h1.46c-.14,1.62-1.26,2.48-3.49,2.48-2.46,0-3.52-1-3.52-2.89S217.64,14.24,220.1,14.24Z" transform="translate(0 0)"/><path class="cls-4" d="M224,17.11c0-1.85,1.06-2.87,3.52-2.87s3.52,1,3.52,2.87S230,20,227.56,20,224,19,224,17.11Zm5.6,0c0-1.14-.58-1.66-2.08-1.66s-2.08.52-2.08,1.66.58,1.68,2.08,1.68S229.64,18.26,229.64,17.11Z" transform="translate(0 0)"/><path class="cls-4" d="M238.81,14.32v5.6h-2L233,15.72v4.2H231.6v-5.6h2l3.82,4.21V14.32Z" transform="translate(0 0)"/><path class="cls-4" d="M240.73,18c0,.59.48.86,2.3.86,1.51,0,2-.17,2-.61s-.32-.54-2.13-.63c-2.44-.11-3.41-.5-3.41-1.75s1.26-1.62,3.35-1.62,3.39.53,3.39,1.91h-1.44c0-.62-.62-.77-2.11-.77s-1.75.14-1.75.55.34.51,2,.61c2.21.12,3.57.24,3.57,1.65S245,20,242.95,20c-2.29,0-3.66-.39-3.66-2Z" transform="translate(0 0)"/></g></svg>