<svg id="Camada_1" data-name="Camada 1" xmlns="http://www.w3.org/2000/svg" viewBox="0 0 599.74 450.24"><defs><style>.cls-1{fill:#fff;}</style></defs><title>10-COSTADOSOL</title><rect width="599.74" height="450.24"/><path class="cls-1" d="M278.06,318.67c-6.17,9.92-15.11,16.18-26.13,19.67a42.3,42.3,0,0,1-10.06,1.88c-2,.13-4.06.41-6.1.63a44.28,44.28,0,0,1-11.92-.37,102,102,0,0,1-19.74-4.93,43.31,43.31,0,0,1-24.2-21.22,28.85,28.85,0,0,1-3.22-11.72,35,35,0,0,1,1.84-14.49,22.17,22.17,0,0,1,7.72-10.46,13,13,0,0,1,6.28-2.66,8.55,8.55,0,0,1,2.87.19,3.65,3.65,0,0,1,2.79,3.45,9.5,9.5,0,0,1-.85,4.47,27.47,27.47,0,0,1-4.17,6.76c-3.45,4.26-3.93,9.09-2.24,14a49.74,49.74,0,0,0,8.58,15,10.91,10.91,0,0,0,1.76,1.7,42.51,42.51,0,0,0,21.22,8.92c14.68,1.87,27.79-2.25,39.76-10.6a16.29,16.29,0,0,0,4.14-4.48c1.48-2.21,2.89-4.45,4.31-6.7a7,7,0,0,0,.56-1.26c1-2.58,2-5.15,2.89-7.75a16.26,16.26,0,0,0,.34-8,33.69,33.69,0,0,0-2.68-8.93,11.64,11.64,0,0,0-9.6-6.95c-3.3-.45-6.52.08-9.76.52s-6.27.92-9.41,1.27c-3.45.38-6.81-.35-10.16-1.1a75.25,75.25,0,0,1-14.75-4.6,37.22,37.22,0,0,1-11.66-8.06c-7.74-8-9.66-17.37-6-27.85a25.57,25.57,0,0,1,13.41-15.24A46.65,46.65,0,0,1,230.1,215c3.1-.28,6.19-.6,9.29-.9,6.49.36,12.87,1,19,3.3a29.28,29.28,0,0,1,11,7,14.85,14.85,0,0,1,3.38,5.25c2.15,5.86-2.3,11.72-8,12.34-3.67.4-4.85-.37-6.14-3.84-.55-1.48-1-3-1.56-4.49a21.93,21.93,0,0,0-1.12-2.51A6.5,6.5,0,0,0,252.4,228a31.35,31.35,0,0,0-10.5-1.92,43.41,43.41,0,0,0-17.81,3.29,24.87,24.87,0,0,0-8.54,5.58c-4.72,4.91-4.92,11.28-.51,16.45a20.33,20.33,0,0,0,2.06,2.06,32.27,32.27,0,0,0,7.49,4.76A71.33,71.33,0,0,0,243.27,264a14.29,14.29,0,0,0,6.51-.66c1.86-.55,3.68-1.24,5.54-1.8a36.76,36.76,0,0,1,4.89-1.24,11.32,11.32,0,0,1,3.79.06,53.2,53.2,0,0,1,6.06,1.58,11.68,11.68,0,0,1,5.11,3.29c5,5.46,8.66,11.63,9.81,19.07A49,49,0,0,1,278.06,318.67Z"/><path class="cls-1" d="M426.49,329.09a12.81,12.81,0,0,0-1.33-4.69c-1.34-2.61-2.51-3-5-1.52-1.33.77-2.6,1.63-3.91,2.42a10.6,10.6,0,0,1-6.58,1.63c-2.84-.28-5.7-.48-8.53-.91a25.22,25.22,0,0,1-5.91-1.48,67.37,67.37,0,0,1-7.18-3.78,42.59,42.59,0,0,1-4.08-2.71,6.89,6.89,0,0,1-2.61-4,1.56,1.56,0,0,1,.41-1.65c1.38-1.44,2.66-3,4.12-4.34a54.22,54.22,0,0,0,10.59-14.37c.53-1,1.08-2,1.61-3a71.63,71.63,0,0,0,8.41-33.41,88.6,88.6,0,0,0-4.71-28.91c-.86-2.62-1.62-5.28-2.65-7.83-1.31-3.22-3.62-4.77-7.71-4.54a28,28,0,0,0-8.33,1.94,34.6,34.6,0,0,0-13.55,9.25,42.12,42.12,0,0,0-9.28,17.6,77,77,0,0,0-2.3,24.31,128.47,128.47,0,0,0,4.12,26,135.46,135.46,0,0,0,4.85,15c.23.6.53,1.14,0,1.84-2.26,3-4.38,6.17-6.67,9.18a31.34,31.34,0,0,1-17,11.61,52.85,52.85,0,0,1-20.36,1.38,83.33,83.33,0,0,1-15.69-3.44,21.7,21.7,0,0,1-8.78-5.44,6.85,6.85,0,0,1-2-6.86,5,5,0,0,0,.24-1.2,2.28,2.28,0,0,0-.24-1.3,10.21,10.21,0,0,0-4.46-3.62,3.44,3.44,0,0,0-4,1,8.23,8.23,0,0,0-1.3,2.05,12,12,0,0,0-.94,5.39,23.15,23.15,0,0,0,2.59,9.07,12.44,12.44,0,0,0,5.57,5.94,39.77,39.77,0,0,0,5.85,2.65c3.44,1.14,6.94,2.08,10.45,3a68.93,68.93,0,0,0,16.48,2.5,74.57,74.57,0,0,0,22.38-3.09c8.29-2.42,15.34-6.61,20.48-13.73,1.07-1.49,2.39-2.8,3.57-4.21.36-.43.65-.92,1-1.43.83.67,1.35,1.07,1.86,1.5a56,56,0,0,0,18.09,10.43c5.33,1.75,10.76,3.22,16.18,4.71a22.66,22.66,0,0,0,8.21.7C423.4,338.19,427,334.24,426.49,329.09Zm-51.16-27.2a66.63,66.63,0,0,1-5.83-12,57.15,57.15,0,0,1-3.25-23.81,75.91,75.91,0,0,1,6-24.75,29.68,29.68,0,0,1,5.64-8.89,12.52,12.52,0,0,1,6.73-4,19.59,19.59,0,0,1,3.8-.28,5.79,5.79,0,0,1,3.92,1.88,15.12,15.12,0,0,1,3.5,5.52,32.41,32.41,0,0,1,2.28,13.35c-.24,6.38-.63,12.75-1,19.13a22.33,22.33,0,0,1-1.91,7.84c-.77,1.72-1.31,3.55-2.08,5.27-1,2.15-2,4.27-3.1,6.32a23.2,23.2,0,0,1-6,7.12C381.08,296.86,378.31,299.36,375.34,301.88Z"/><path class="cls-1" d="M420.27,118.85a12.09,12.09,0,0,1-5.18,3.45,5,5,0,0,1-3.6-.19c-1.2-.44-2.36-1-3.52-1.5-1.48-.68-2.93-1.45-4.43-2.11a12.41,12.41,0,0,0-5.06-1.05c-8.33-.05-16.67-.41-25,0a59.87,59.87,0,0,0-14.22,2.09,14.74,14.74,0,0,0-5.2,2.54,5.3,5.3,0,0,0-2.1,5.27,89.22,89.22,0,0,1,1,16.82c-.23,7-.66,14-1,21-.29,6.43-.69,12.87-.77,19.3,0,3.87.54,7.75.63,11.63a75.59,75.59,0,0,0,1.56,11.37l0,.15c.46,3.48-.77,5.08-4.26,5.52a19.83,19.83,0,0,1-5.8.06c-2.55-.42-3.46-1.49-3.14-4.1.28-2.28.81-4.53,1.08-6.81,1-8,1.88-16,1.56-24.14-.35-8.9-1.2-17.74-1.87-26.61a186.65,186.65,0,0,1-.73-24.82c.18-3.07-1.26-5-3.89-6.34a17,17,0,0,0-6.18-1.7,95.77,95.77,0,0,0-11.32-.5c-8.12.33-16.22,1-24.33,1.5a2.35,2.35,0,0,1-.61.05c-2.51-.56-4.62.48-6.66,1.68-1.85,1.08-3.61,2.33-5.47,3.41a25.25,25.25,0,0,1-3.33,1.52A2.64,2.64,0,0,1,276,126a7.7,7.7,0,0,1-3.73-7,7.35,7.35,0,0,1,4.51-7.06,36,36,0,0,1,9.51-2.82,134.91,134.91,0,0,1,20.7-1.51A195.3,195.3,0,0,1,328,109a88.44,88.44,0,0,0,9.48.68c5.77.17,11.55.36,17.33.25,4.85-.09,9.69-.6,14.53-.92,5.51-.37,11-.83,16.52-1.09q9.8-.46,19.62-.64a84.49,84.49,0,0,1,8.56.34,8.78,8.78,0,0,1,6.3,3.41A5.69,5.69,0,0,1,420.27,118.85Z"/><path class="cls-1" d="M266.37,134.49a10.26,10.26,0,0,1-10.65,4.07,3.93,3.93,0,0,1-3.18-3.16c-.64-3.71-2.76-6.62-4.8-9.65a21.83,21.83,0,0,0-12.95-8.9c-14.68-4.08-31.28,2.43-39.1,15.52-4,6.63-7.08,13.68-8.22,21.33-1.8,12.09,1,23,9,32.49,4.11,4.85,9.14,8.59,14.39,12.1a32.46,32.46,0,0,0,19.32,5.37,24.56,24.56,0,0,0,12.4-3.49c1.88-1.14,3.7-2.38,5.47-3.68a6.55,6.55,0,0,0,1.64-2A26.87,26.87,0,0,0,251,191.7c.35-.79.65-1.62,1.07-2.38,1.09-2,2.47-2.37,4.46-1.24a7.88,7.88,0,0,1,3.38,3.66,13.56,13.56,0,0,1,1.08,7.19,8.08,8.08,0,0,1-2.38,4.71A20,20,0,0,1,252.1,208a66,66,0,0,1-12.87,3.94,53.52,53.52,0,0,1-12.51,1.32c-8,.25-15.5-2-22.59-5.79a55.53,55.53,0,0,1-24.66-25.66c-6.77-14.16-6.53-28.47-.2-42.71a52.81,52.81,0,0,1,29.07-28.23c1.69-.7,3.53-1,5.27-1.59,14.35-4.69,32.64-1.07,44.45,7.45a62.21,62.21,0,0,1,6,4.76,15.46,15.46,0,0,1,2.91,3.91A8.22,8.22,0,0,1,266.37,134.49Z"/><path class="cls-1" d="M328.46,188.29c-.57,2.69-1.13,5.4-1.95,8a16.69,16.69,0,0,1-11.2,11.29,82.31,82.31,0,0,1-12.38,2.83,36.5,36.5,0,0,1-12.51.25,50.64,50.64,0,0,1-19.11-7.12,19.12,19.12,0,0,1-3.1-2.48c-5.09-5-3-12.79,2.42-15.77a9.72,9.72,0,0,1,7.6-.44,1.75,1.75,0,0,1,1.26,1.57c.21,1.16.4,2.31.56,3.48a6,6,0,0,0,2.47,4.26q2.94,2.07,6,4a11.09,11.09,0,0,0,4.68,1.32,24.25,24.25,0,0,0,12.65-1.41c7-3,10.73-9.65,9.48-17.55A6.47,6.47,0,0,0,312,175.8a19.59,19.59,0,0,0-6.8-2.24A72.64,72.64,0,0,0,291,173c-1.58,0-3.17.12-4.74.29-5.95.61-10.68-1.76-14.6-6a23.25,23.25,0,0,1-6.48-15.66,22.4,22.4,0,0,1,15.75-22.24,21,21,0,0,1,2.56-.41c2.77-.45,5.55-.83,8.31-1.37a41.67,41.67,0,0,1,13.43-.19c1.77.22,3.54.49,5.31.72a6.63,6.63,0,0,1,3.3,1.52,10.6,10.6,0,0,1,2.47,12.95,9.13,9.13,0,0,1-1,1.38c-1.92,2.26-3.67,2.57-6.19,1-1.21-.75-2.31-1.69-3.48-2.51s-2.48-1.82-3.8-2.58a8.58,8.58,0,0,0-5.14-1.1,39,39,0,0,1-5-.3,15.05,15.05,0,0,0-5.75.69,8.73,8.73,0,0,0-4.76,3.68,15.77,15.77,0,0,0-2,12.37,6.88,6.88,0,0,0,5.23,5.4,60.06,60.06,0,0,0,19.26,2,42.64,42.64,0,0,1,10.38.46c3.53.72,6.56,2.55,9.55,4.39a5.24,5.24,0,0,1,1.71,2.12C328.28,175.52,329.87,181.67,328.46,188.29Z"/><path class="cls-1" d="M422.47,199.4c-.71-.29-1.45-.48-2.17-.74-1.06-.37-2.15-.7-3.16-1.16a5.26,5.26,0,0,1-3.19-4.85,13.71,13.71,0,0,1,.95-5.55c.87-2.34,1.76-4.68,2.53-7.06a26.11,26.11,0,0,0,1-11.52,22,22,0,0,1-.25-6.71,3.57,3.57,0,0,0,0-1.22,45.14,45.14,0,0,0-3.94-12.84,22.27,22.27,0,0,0-13.6-11.63,39.23,39.23,0,0,0-16.5-1.59A54.46,54.46,0,0,0,372.3,137a16.73,16.73,0,0,0-6.6,3.76,7.31,7.31,0,0,0-2.19,7,19.65,19.65,0,0,0,1.11,3.65c1.53,3.56,4.6,5.1,8.36,4.07a26.24,26.24,0,0,0,5.22-2.16c2.26-1.2,4.36-2.68,6.6-3.9s4.44-2.3,6.74-3.27a10.13,10.13,0,0,1,5.26-.72,10.47,10.47,0,0,1,7.48,4.61A22.09,22.09,0,0,1,408,166.27a17.13,17.13,0,0,1-.8,2.64c-1.14-.51-2.07-.94-3-1.34-6.4-2.68-13-4.36-20-3.56a24,24,0,0,0-16.56,8.91,27.72,27.72,0,0,0-5.24,10.65,26,26,0,0,0-1.13,9.39,23.93,23.93,0,0,0,11.06,17.91A18.24,18.24,0,0,0,384.54,214a22.42,22.42,0,0,0,15.27-7.9c1.09-1.28,2.21-2.54,3.53-4a6.28,6.28,0,0,0,4.44,5.1,25.71,25.71,0,0,0,5.48,1.31,15.29,15.29,0,0,0,7.82-1.06A6.35,6.35,0,0,0,424,205.2C425.32,203.32,425.41,200.59,422.47,199.4Zm-21.6-9.76a57.43,57.43,0,0,1-3.18,7.12,18.67,18.67,0,0,1-9.9,8.53,9.56,9.56,0,0,1-10.07-1.65,18.05,18.05,0,0,1-6.52-10.3,22.42,22.42,0,0,1,1.39-13.23c2-4.85,5.77-7.23,11-7.19h2.92a31.69,31.69,0,0,1,8.07.65,16.46,16.46,0,0,1,2.19.69,8.17,8.17,0,0,1,5.48,8.06,19.35,19.35,0,0,1-1.43,7.33Z"/><path class="cls-1" d="M355.6,278.25a40.23,40.23,0,0,0-7.16-17.9,28.46,28.46,0,0,0-15.51-11.15,42.33,42.33,0,0,0-9.09-1.32c-1.12,0-2.25-.07-3.38,0a16.51,16.51,0,0,0-2.22.56,26,26,0,0,1-2.85.59,25.29,25.29,0,0,0-11,4.3,33.06,33.06,0,0,0-12,13.63c-4.31,9.14-6,18.68-3.29,28.6,2.65,9.63,8.61,16.37,18.31,19.39,4,1.26,8.16,2.3,12.27,3.25a20.21,20.21,0,0,0,8.36.47c1.15-.22,2.31-.4,3.47-.63a59.56,59.56,0,0,0,11.23-3,17.59,17.59,0,0,0,10.67-11.68A55.36,55.36,0,0,0,355.6,278.25Zm-10.43,17.91c-.12.34-.26.67-.39,1-2.34,5.82-6.55,9.39-12.77,10.47-2.26.39-4.54.6-6.82.89A34.17,34.17,0,0,1,308.62,304a22.9,22.9,0,0,1-8.38-8.34,18.91,18.91,0,0,1-2.53-9.52,33.08,33.08,0,0,1,6.1-20c3.24-4.5,7.52-7.63,13.1-8.26,8.68-1,16.74.52,23.15,7.09a25,25,0,0,1,6.42,12.68,33.44,33.44,0,0,1-1.32,18.55Z"/><path class="cls-1" d="M256.09,162.67a25.53,25.53,0,0,0-11-20.59,18.78,18.78,0,0,0-7-3.09c-1-.24-2.1-.43-3.16-.6a42.11,42.11,0,0,0-11-.39,22.1,22.1,0,0,0-7.79,2.57,21.84,21.84,0,0,0-6.82,5.11,28.8,28.8,0,0,0-6.87,17.81,18.26,18.26,0,0,0,.91,6.49,41.16,41.16,0,0,0,5.2,11.55,14.76,14.76,0,0,0,9.29,6.29c2.14.44,4.34.57,6.52.84a1.34,1.34,0,0,1,0-.17c1.43-.09,2.86-.11,4.28-.29a34.15,34.15,0,0,0,5.88-1c3.75-1.17,7.41-2.61,11.12-3.92a5.94,5.94,0,0,0,2.57-1.84,33.49,33.49,0,0,0,6.08-10.91A21.81,21.81,0,0,0,256.09,162.67Zm-10.93,3.09a14.5,14.5,0,0,1-5.48,8.44,19,19,0,0,1-10.2,3.82,12.09,12.09,0,0,1-4.66-.68c-6.75-2.3-10.43-7.21-11.61-14.12-.17-1-.22-2-.28-2.59,0-5.45,2.13-9.21,6.52-11.64a25.12,25.12,0,0,1,6.44-2.4c1.38-.33,2.79-.63,4.18-.94a10.37,10.37,0,0,1,9.19,2.26,17.4,17.4,0,0,1,6.15,11.31,16.79,16.79,0,0,1-.26,6.53Z"/><path class="cls-1" d="M317.05,227.52c-.85-5.93-6.76-9.73-11-10-1.53-.11-3-.34-4.56-.52-3.34-.4-6.68-.83-10-1.19a5.85,5.85,0,0,0-3.88.56,54.14,54.14,0,0,0-4.5,3.43c-.5.4-1.12.94-.85,1.67s1.19.73,1.86.68c1.88-.14,3.76-.29,5.62-.6,4-.65,6,.49,6.89,4.37a66.33,66.33,0,0,1,.89,6.8l-.22,0v3.84c-.09,2.08-1,2.74-3,2.17-.54-.15-1.06-.37-1.59-.54-1.07-.33-2.13-.73-3.22-1a8,8,0,0,0-2.43-.1,1.2,1.2,0,0,0-1.1,1.65,5.48,5.48,0,0,0,.79,1.64,11.41,11.41,0,0,0,3.77,3.3,2.83,2.83,0,0,0,2.6.26,23.73,23.73,0,0,1,10.4-1.3c.92.09,1.83.19,2.74.31a5.93,5.93,0,0,0,5.64-2.42,29.59,29.59,0,0,0,4.23-6.9A11.23,11.23,0,0,0,317.05,227.52Zm-5.39,3.85a9,9,0,0,1-3.2,5.43,6.83,6.83,0,0,1-7.13,1c.67-3,.31-5.88.12-8.78-.1-1.58-.18-3.16-.21-4.75a12.51,12.51,0,0,1,.23-1.83,11.63,11.63,0,0,1,6.95,1.26A6.9,6.9,0,0,1,311.66,231.36Z"/><path class="cls-1" d="M331.76,216.9a2.59,2.59,0,0,0-1.18.23c-2.12,1.11-4.26,2.2-6.31,3.44a9.32,9.32,0,0,0-3.44,3.64c-3.56,6.78-2,14.32,5.65,17.89a22.55,22.55,0,0,0,2.14.83,20.86,20.86,0,0,0,6.92,1.12c5.28,0,8.85-2.7,10.4-7.44a35.86,35.86,0,0,0,.9-4.47C346.68,223.53,340.24,217,331.76,216.9Zm10.33,15.48a9.61,9.61,0,0,1-5,5.94,7.41,7.41,0,0,1-7.34-.14,8.68,8.68,0,0,1-4.65-7.46,6.35,6.35,0,0,1,3.7-6.35,8.88,8.88,0,0,1,3.9-1.06,16.91,16.91,0,0,1,5.74,1.14A6.15,6.15,0,0,1,342.09,232.39Z"/></svg>