<svg id="Camada_1" data-name="Camada 1" xmlns="http://www.w3.org/2000/svg" viewBox="0 0 599.74 450.24"><defs><style>.cls-1{fill:#fff;}</style></defs><title>11-LPFTURISMO</title><rect width="599.74" height="450.24"/><path class="cls-1" d="M301.93,250.61c.14-2.4.29-4.5.39-6.61.2-4.47.34-8.95.56-13.42.18-3.77.44-7.54.64-11.31.22-4.47.43-8.95.64-13.42a8.28,8.28,0,0,1,.12-.86l35.65,12.81c0-3.24,0-6.25,0-9.27,0-.29-.41-.66-.72-.85q-5.69-3.46-11.42-6.87c-7.35-4.39-14.71-8.76-22-13.18a1.75,1.75,0,0,1-.67-1.31c0-2.23.14-4.47.28-6.69a82.6,82.6,0,0,0-.22-14,20.38,20.38,0,0,0-1.86-7.66c-.63-1.19-1.4-2.25-2.95-2.37a3.26,3.26,0,0,0-3,1.26,12.46,12.46,0,0,0-2.33,6.57c-.23,1.89-.29,3.8-.41,5.71s-.31,3.51-.31,5.27c0,2.65.11,5.29.23,7.94a32.26,32.26,0,0,0,.38,3.8,1.39,1.39,0,0,1-.87,1.58l-12.33,7.33-20.92,12.53a1.5,1.5,0,0,0-.86,1.49c0,2.43,0,4.86,0,7.3,0,.36,0,.72.06,1.33L295.32,205a19.44,19.44,0,0,1,.38,2.19q.35,6.34.63,12.68c.12,2.79.13,5.59.27,8.38.13,2.64.35,5.27.52,7.9.12,1.8.23,3.59.32,5.39.14,2.93.26,5.86.4,9-1.46-.81-2.79-1.55-4.11-2.29l-36.76-21c-5.55-3.17-11.11-6.34-16.58-9.65a9.52,9.52,0,0,1-4.7-8.7q.06-29.68.06-59.36a20.77,20.77,0,0,1,.47-5c.7-2.79,2.65-4.66,5.12-6.06L273,120.5C279.71,116.69,286.46,113,293,109c4.71-2.92,9-2.82,13.73,0,8,4.75,16.14,9.24,24.22,13.85l27.19,15.53c2.61,1.49,4.72,3.4,5.56,6.39a10.9,10.9,0,0,1,.43,2.92q0,31-.05,61.9a9.4,9.4,0,0,1-4.87,8.28c-3.51,2.15-7.12,4.13-10.69,6.17l-25.83,14.79L304.6,249.1Z"/><path class="cls-1" d="M224.47,260.16h14V311H270.1v12.7H224.47Z"/><path class="cls-1" d="M273.62,260.16h25.94q11.24,0,17.87,6.17,6.44,6,6.44,16,0,10.61-7.53,16.69-7,5.62-18.13,5.62H287.6v19h-14Zm25,32a11.44,11.44,0,0,0,8.16-2.81,9,9,0,0,0,2.9-7,8.76,8.76,0,0,0-3.08-7.17q-2.9-2.45-8.25-2.45H287.59v19.41Z"/><path class="cls-1" d="M326.92,260.16h48.34v12.7H340.89v13.51h30.29v12.7H340.89v24.58h-14Z"/><path class="cls-1" d="M251.07,333.85h-3.58v-2.39h9.76v2.39h-3.59v9.39h-2.58Z"/><path class="cls-1" d="M264.47,342.11a5.32,5.32,0,0,1-1.36-3.92v-6.73h2.59v6.66a3.2,3.2,0,0,0,.66,2.17,2.3,2.3,0,0,0,1.87.74,2.42,2.42,0,0,0,1.87-.71,3.07,3.07,0,0,0,.66-2.12v-6.75h2.59v6.65a5.3,5.3,0,0,1-1.4,4,5.14,5.14,0,0,1-3.77,1.33A5,5,0,0,1,264.47,342.11Z"/><path class="cls-1" d="M296.79,331.61h2.59v11.78h-2.59Z"/><path class="cls-1" d="M305.45,341.52l1.53-1.84a5.51,5.51,0,0,0,3.52,1.43q1.7,0,1.7-1.15a.93.93,0,0,0-.45-.81,7.29,7.29,0,0,0-1.92-.69,8,8,0,0,1-2.84-1.16,2.93,2.93,0,0,1-1.06-2.47,3.2,3.2,0,0,1,1.16-2.58,4.41,4.41,0,0,1,3-1,6.79,6.79,0,0,1,4.38,1.5l-1.35,2a5.49,5.49,0,0,0-3.06-1.16,1.84,1.84,0,0,0-1.13.3.9.9,0,0,0-.39.76,1,1,0,0,0,.5.88,9.74,9.74,0,0,0,2,.66,7,7,0,0,1,2.76,1.23,3,3,0,0,1,1,2.34,3.31,3.31,0,0,1-1.21,2.71,4.79,4.79,0,0,1-3.11.94A7.24,7.24,0,0,1,305.45,341.52Z"/><path class="cls-1" d="M321.44,331.46h2.79l3.1,5,3.1-5h2.79v11.78h-2.57v-7.69l-3.32,5h-.07l-3.28-5v7.64h-2.54Z"/><path class="cls-1" d="M341.42,341.66a6.23,6.23,0,1,1,9,0,6.19,6.19,0,0,1-4.51,1.78A6.06,6.06,0,0,1,341.42,341.66Zm7.07-1.68a3.73,3.73,0,0,0,1-2.62,3.67,3.67,0,0,0-1-2.61,3.38,3.38,0,0,0-2.58-1.09,3.3,3.3,0,0,0-2.55,1.08,3.69,3.69,0,0,0-1,2.62,3.64,3.64,0,0,0,1,2.61,3.56,3.56,0,0,0,5,.1l.09-.09Z"/><path class="cls-1" d="M280.37,331.61h5.39a4.65,4.65,0,0,1,3.43,1.19,3.68,3.68,0,0,1,1,2.73,3.59,3.59,0,0,1-2.52,3.65l2.87,4.2h-3L285,339.63h-2v3.76h-2.59Zm5.22,5.72a2.11,2.11,0,0,0,1.46-.47,1.55,1.55,0,0,0,.52-1.23q0-1.68-2-1.68H283v3.38Z"/></svg>