<svg id="Camada_1" data-name="Camada 1" xmlns="http://www.w3.org/2000/svg" viewBox="0 0 599.74 450.24"><defs><style>.cls-1{fill:#fff;}</style></defs><title>11-VUMBORA</title><rect width="599.74" height="450.24"/><path class="cls-1" d="M182.75,174.8c-11.43,18.06-18.6,37.77-22.5,58.72A203.66,203.66,0,0,0,157,272.66a14.81,14.81,0,0,1-.35,4.78,11.1,11.1,0,0,1-2.87,4.8c-4.16,3.5-8.54,6.76-12.94,10s-6.8,2.69-10.11-1.49c-5.11-6.44-8.16-14-10.7-21.69A235.86,235.86,0,0,1,110.89,232c-1.06-6.71-1.77-13.48-2.44-20.25-.44-4.42-.53-8.88-.76-13.3a4.55,4.55,0,0,1,3.47-4.92c4.26-1.28,8.55-2.48,12.88-3.37,3.7-.74,5.8,1.15,5.95,5,.1,3,0,5.95,0,8.92a169.43,169.43,0,0,0,8.52,49.16c.16.5.69.83,1,1.24a5.91,5.91,0,0,0,.74-1.55c1.17-8,2.17-16,3.47-24,3.51-21.45,8.78-42.37,18.49-62,1.67-3.38,4-5.54,8-5.65a34.74,34.74,0,0,0,5.35-.69c5-.93,7.43.91,8.66,6.65A10.06,10.06,0,0,1,182.75,174.8Z"/><path class="cls-1" d="M435.92,248.88a12.76,12.76,0,0,1-2.88,8,27.49,27.49,0,0,1-21,9.95c-3.23.07-6.48-.86-9.71-1.45-17.28-3.17-34.59-6.14-52.1-7.83a449.78,449.78,0,0,0-55.83-2.08,479.42,479.42,0,0,0-58,5.33A487.3,487.3,0,0,0,186.77,271c-3,.79-5.9.88-8.59-2.25,1.44-.91,2.69-2.09,4.17-2.58,21.87-7.22,44-13.45,66.68-17.67,15.15-2.82,30.38-5.06,45.74-6.54a516.73,516.73,0,0,1,60.1-2.37c19.13.39,38.2,1.91,57.23,3.89,6.22.64,12.45,1.09,18.68,1.65a12.11,12.11,0,0,1,2.9.53A3,3,0,0,1,435.92,248.88Z"/><path class="cls-1" d="M322.79,188.6a30.51,30.51,0,0,0-6.41.89c-5.18,1.25-9.67,4-14.19,6.75a5.38,5.38,0,0,1-1.8.34,6.52,6.52,0,0,1,.27-1.69q3.72-8.42,7.52-16.77c2.56-5.63,5.15-11.25,7.72-16.91,1-2.21.85-2.83-1.42-3.67a25,25,0,0,0-4.52-.79c-2,.18-3.85-.19-4.84.55a19,19,0,0,0-5.45,5.71c-7.23,13.69-13.76,27.72-18.21,42.61a66.81,66.81,0,0,0-3.25,19.15,8.59,8.59,0,0,0,5.76,8.66,5.45,5.45,0,0,1,2.14,1.87c1.4,1.94,3.16,3,5.55,2.54a19.82,19.82,0,0,0,3.4-.92,51.61,51.61,0,0,0,26.51-21.14c4.07-6.36,6.74-13.18,7.07-20.81C328.81,190.83,326.89,188.51,322.79,188.6Zm-22.41,31c-3.21.86-6.22-1.36-5.64-4.21a3.53,3.53,0,0,1,.91-1.75q4-3.76,8-7.4c1-.94,2.42-1.77,3.66-.81.9.69,1.26,2.07,1.86,3.14C308.75,212.79,304.27,218.54,300.38,219.58Z"/><path class="cls-1" d="M272.65,236.8c-4,.29-7.69-3-8.48-7.34-.56-3.08-.56-3.08-1.71-3.79-4,5.36-7.77,10.58-11.67,15.75-1.26,1.68-2.87,1.84-4.78.73-4.9-2.85-6.38-6.28-5.14-11.87.24-1.09.47-2.18.61-3.28a20.41,20.41,0,0,0,0-2.48c-.9.74-1.57,1.21-2.15,1.78l-16.52,16.56c-3.21,3.23-5.5,3-8.08-.72a12.76,12.76,0,0,1-1.8-11.48l7.93-26.87a26.26,26.26,0,0,0,.76-3.06c.8-5,4-8.25,8.12-10.7A8.92,8.92,0,0,1,232.5,189c3-.59,4.66.81,4.54,3.86-.22,5.89-2.07,11.4-3.91,16.92a36,36,0,0,0-1.13,4.11,11.27,11.27,0,0,0,0,2.28l.45.26a35.37,35.37,0,0,0,2.8-2.71c4.28-5.13,8.5-10.32,12.78-15.46a18.62,18.62,0,0,1,2.85-2.91,6.06,6.06,0,0,1,2.82-1.23c3.78-.43,5.29,1.25,4.69,5L255.68,216a11.22,11.22,0,0,0,0,1.25c2.33-3,4.36-5.71,6.44-8.35,1-1.26,2-2.48,3.11-3.69a5.55,5.55,0,0,1,5-1.84,2.75,2.75,0,0,1,1.93,1.32,11.83,11.83,0,0,1,.85,4.13c0,3.59,0,7.18-.23,10.77A29.15,29.15,0,0,0,275,233C276.21,235.68,275.55,236.59,272.65,236.8Z"/><path class="cls-1" d="M443,191.54a10.35,10.35,0,0,0-1.66.07c-4.29.63-8.57,1.25-12.84,1.92a55.45,55.45,0,0,0-26.79,12c-4.64,3.76-8.92,7.84-11.25,13.58-2.5,6.22.5,11.45,7.12,12.29,5.83.75,11.47-.33,17.08-1.73l11-2.76c.34,1.49.56,2.85,1,4.13.63,2,1.66,2.73,3.74,2.52a8.56,8.56,0,0,0,7.8-6.44q4.64-15,9.1-30C448.42,192.93,447.37,191.63,443,191.54Zm-11.82,13.84c-1.46,5.42-9.27,12.07-14.82,12.69a2.63,2.63,0,0,1-1.45,0c-1.11-.66-2.7-1.28-3-2.28-.5-1.46.67-2.73,2.11-3.47l17-9.15A7.81,7.81,0,0,1,431.14,205.38Z"/><path class="cls-1" d="M208.92,249.31,190.23,257c-3.78,1.55-7.58,3.06-11.35,4.62a6.57,6.57,0,0,1-6.67-.86A15,15,0,0,1,165.51,248a65.25,65.25,0,0,1,5.95-29c1.61-3.47,3-7.05,4.6-10.55a12.84,12.84,0,0,1,1.81-3c1.56-1.83,3.19-2.3,5.29-1.13a52.41,52.41,0,0,1,6.16,4.38c1.25,1,.65,2.27.3,3.43-1.49,4.86-3,9.69-4.46,14.55-.92,3.08-1.83,6.17-2.59,9.29a5.74,5.74,0,0,0,2.52,6.62c1.36.85,2.9,1.06,4,0a15.33,15.33,0,0,0,3.69-5.15c1.77-5,3.07-10,4.6-15.08a14.43,14.43,0,0,1,1.26-3.27c1.93-3.23,7.15-3.29,9.08,0a5.42,5.42,0,0,1,.41,3.33c-.71,4.64-1.66,9.24-2.39,13.87a16.14,16.14,0,0,0,2.74,12.17c.17.25.32.53.47.79C208.95,249.21,208.92,249.29,208.92,249.31Z"/><path class="cls-1" d="M421.6,186.24c-4.72,2-9.13,3.75-13.42,5.75a76.15,76.15,0,0,0-24,17.23,23.37,23.37,0,0,0-6.12,11.68,7.93,7.93,0,0,0,0,2.74c.5,3-.14,4.83-2.87,5.9a62.88,62.88,0,0,1-10.27,3.13c-3.81.77-5.59-1.41-4.33-5.14,2.08-6.15,4.5-12.19,6.56-18.33q3-8.79,5.4-17.73a29.13,29.13,0,0,0,.57-6.63c.07-1.58.58-2.76,2.15-3.29a53.8,53.8,0,0,1,6.84-2.23c2.94-.57,4.54,1.29,3.67,4.18-1,3.19-2.21,6.3-3.32,9.44-.12.34-.26.67-.41,1.05,5-4.06,9.83-8.1,14.8-12a72.38,72.38,0,0,1,7.85-5.27c3.9-2.28,6.94-2,10.07,1.25C417.24,180.48,419.27,183.37,421.6,186.24Z"/><path class="cls-1" d="M365.24,192.8c-.68-6-5.22-8.15-9.29-7.38a34.09,34.09,0,0,0-22,13.57,30.07,30.07,0,0,0-6.19,20.7,8,8,0,0,0,4.39,6.88c5.45,2.77,11.09,3.08,16.29-.29,11-7.12,16.3-17.56,17-30.5C365.36,194.77,365.36,193.78,365.24,192.8Zm-14.56,14.93c-1,3-2.34,5.84-5.48,7a5,5,0,0,1-3.92-.06c-1.22-.81-.92-2.53-.22-3.9,1.18-2.31,2.38-4.61,3.51-6.94a7.43,7.43,0,0,1,4.52-3.87C351.35,202.34,351.61,204.86,350.67,207.73Z"/><path class="cls-1" d="M493.32,191.17c-.55.9-1,2.38-2,3.18-12,9.62-19.88,22.24-26.62,35.75-1.57,3.14-3.47,6.11-5.27,9.15-1,1.7-2.67,2.14-4.46,2.12-1.43,0-3.35-2.89-3-4.5,3.93-18,9.28-35.54,19-51.43.5-.84,1.07-1.67,1.63-2.48,3.4-5,8.19-6.14,13.42-3.21C490.23,182.12,492.39,185.95,493.32,191.17Z"/><path class="cls-1" d="M450.15,271.34c-1.53.21-3.08.23-4.77.35-2-.21-4.19-.31-6.31-.71-3.22-.61-4.19-2.18-3.33-5.34,2.18-8,7.06-13.46,15-16.06,6.44-2.1,10.3.38,11.15,7.15C462.83,264.15,457.94,270.26,450.15,271.34Z"/></svg>