<svg id="Camada_1" data-name="Camada 1" xmlns="http://www.w3.org/2000/svg" viewBox="0 0 599.74 450.24"><defs><style>.cls-1{fill:#fff;}</style></defs><title>13-TEXNET</title><rect width="599.74" height="450.24"/><path class="cls-1" d="M486.09,181.89a5.63,5.63,0,0,0-4.06,7.74,6.45,6.45,0,0,0,2.83,2.86,6,6,0,0,0,4.67-.07,5.57,5.57,0,0,0-.1-10.1A5.77,5.77,0,0,0,486.09,181.89Zm3.49,1.47a4.71,4.71,0,0,1-.33,8.19,4.83,4.83,0,0,1-4.1.07,4.64,4.64,0,0,1-2.53-5.43A4.7,4.7,0,0,1,489.57,183.37Z"/><path class="cls-1" d="M484.63,187.43v3h1V188h.59c.64,0,1.28.59,1.93,1.79.28.54.43.64.9.64h.57l-.52-.83a9.49,9.49,0,0,0-.94-1.3l-.43-.47.57-.26a1.54,1.54,0,0,0,.56-2.46c-.4-.47-.49-.49-2.34-.54l-1.93-.07Zm3.12-2a.92.92,0,0,1,.49.68c.07.64-.52,1-1.65,1h-.92v-1.91h.83A3.42,3.42,0,0,1,487.75,185.41Z"/><path class="cls-1" d="M307.16,219.32l.05,27,6.91.05,6.89,0V229.33c0-9.4.07-17.07.14-17s7.29,7.72,16,17.09l15.86,17,6.91,0h6.89V192.3H352.93l0,17.06-.05,17.07L337,209.38l-15.88-17.06h-7l-7,0Z"/><path class="cls-1" d="M375.31,219.72v27.42h46.85v-12h-33v-9.89h33v-12h-33v-9h33v-12H375.31Z"/><path class="cls-1" d="M430.14,198.29v6h16.48v42.86h13.88V204.28H477v-12H430.14Z"/><path class="cls-1" d="M107.05,200.2v7.2h20.82v58.82h14.23V207.4l10.46,0,10.45-.05.05-7.17,0-7.15h-56Z"/><path class="cls-1" d="M171.6,229.61v36.61h48.24V252l-17,0-17-.05-.05-7.6,0-7.58h34V222.5h-34V207.4h34V193H171.6Z"/><path class="cls-1" d="M228.2,193.17c0,.1,5.86,8.1,13,17.8s12.91,17.66,12.88,17.73-6.26,8.45-13.88,18.65S226.33,266,226.3,266a13,13,0,0,0,3.3.19c1.84,0,5.93.07,9.07.14s5.85.05,6,0,4.41-5.76,9.44-12.63c8.62-11.76,9.18-12.48,9.46-12.2s4.25,5.73,9.09,12.34,9,12.13,9.18,12.25,2.36.17,9.39.05c5-.09,9-.19,9.07-.21s-6.09-8.28-13.6-18.34S273,229.18,272.82,229s.45-1.32,12.68-18c7.13-9.7,12.94-17.66,12.94-17.72s-4-.09-8.9-.09h-8.88l-8.59,11.52c-4.72,6.35-8.64,11.54-8.69,11.54s-4-5.21-8.76-11.61L246,193l-8.9,0C231.12,193,228.15,193,228.2,193.17Z"/><path class="cls-1" d="M371.69,255.45c-.47.47-.49,1.06,0,1.06.19,0,.35-.1.35-.24,0-.36.36-.42,1-.16,1.08.43,2,.14,2-.66,0-.42-.49-.43-.8,0s-.28.29-.8.07C372.35,255.06,372.07,255.06,371.69,255.45Z"/><path class="cls-1" d="M337.17,257.18a4.21,4.21,0,0,0-2.86,4.25,4,4,0,0,0,4,4.41,4.28,4.28,0,0,0,5-4.56,4,4,0,0,0-2.92-4.16A4.8,4.8,0,0,0,337.17,257.18Zm2.6.75a3.62,3.62,0,0,1,2.06,2.26c.47,1.77-.26,3.8-1.63,4.46a3,3,0,0,1-3.71-.73c-1.63-1.86-.94-5.17,1.25-5.93A2.51,2.51,0,0,1,339.78,257.93Z"/><path class="cls-1" d="M364.16,257a4.44,4.44,0,0,0-3.63,4.46,4.12,4.12,0,0,0,3.24,4.2c.85.21.9.28.52.78-.24.33-.23.36.29.52.83.28.75.71-.12.71a1.22,1.22,0,0,0-.83.23c-.19.31-.1.38.59.49a1.58,1.58,0,0,0,1.75-.73c.19-.43.17-.5-.35-.94-.71-.59-.52-.78.87-.94s1.49-.23,1.39-.73-.12-.42-.71-.29a8.53,8.53,0,0,1-1.79.12,3.15,3.15,0,0,1-2-.52,3.58,3.58,0,0,1,.33-6.16,5.91,5.91,0,0,1,3.31-.28c.57.12.66.1.8-.26s.09-.43-.09-.54A11,11,0,0,0,364.16,257Z"/><path class="cls-1" d="M380.9,257.18a4.63,4.63,0,0,0-2.52,2.19,6,6,0,0,0-.05,4.08,4.57,4.57,0,0,0,1.93,2,6,6,0,0,0,4.41,0,4.06,4.06,0,0,0,2.27-4,4.1,4.1,0,0,0-.43-2.19A4.44,4.44,0,0,0,380.9,257.18Zm2.62.78a2.79,2.79,0,0,1,1.7,1.53,4,4,0,0,1,.26,3.12,3.05,3.05,0,0,1-5.76.59,4.06,4.06,0,0,1,.73-4.63A2.86,2.86,0,0,1,383.52,258Z"/><path class="cls-1" d="M308.27,260.53c-.75,1.94-1.51,3.89-1.68,4.34l-.33.83h.66c.64,0,.64,0,1.16-1.35l.52-1.34,1.75-.05,1.75-.05.52,1.35c.52,1.32.54,1.35,1.16,1.41.35,0,.62,0,.62-.09s-.73-2-1.61-4.32l-1.61-4.15-.78-.05-.78-.05Zm2.83-.47a14.52,14.52,0,0,1,.64,2,11.38,11.38,0,0,1-1.44,0l-1.37-.05.69-1.94c.4-1.06.73-1.91.75-1.91S310.7,259,311.09,260.06Z"/><path class="cls-1" d="M319.09,261.36v4.34h5.73v-.87h-4.34v-3.12h3.82v-1h-3.82v-2.78h4V257h-5.38Z"/><path class="cls-1" d="M325.95,258.1l1.6,4.36,1.18,3.26.76-.05.75-.05,1.72-4.23c.94-2.33,1.72-4.27,1.72-4.29A1.7,1.7,0,0,0,333,257h-.66l-.57,1.51c-.33.85-1,2.53-1.42,3.78a6.64,6.64,0,0,1-.9,2c-.16-.49-1.89-5.47-2.24-6.39s-.36-.9-1-.9h-.68Z"/><path class="cls-1" d="M345.12,261.36v4.34h5.38v-.87h-4.16V257h-1.21Z"/><path class="cls-1" d="M351.54,260.18c0,3.37.16,4.13,1,4.86a4.33,4.33,0,0,0,5.33-.17c.78-.75,1-1.82,1-5V257h-1.39v3.12c0,2.5-.05,3.24-.26,3.66a2.41,2.41,0,0,1-4,.21c-.29-.43-.33-.88-.38-3.75l-.07-3.24h-1.18Z"/><path class="cls-1" d="M372.29,257.16c-.14.23-3.23,8.26-3.23,8.4s.26.14.59.14c.59,0,.61,0,1.11-1.35l.5-1.34h3.57l.52,1.35.52,1.34h1.34l-.31-.83c-.17-.45-.94-2.39-1.68-4.34L373.87,257h-.75A1.7,1.7,0,0,0,372.29,257.16Zm1.46,2.78c.33.92.62,1.79.66,1.89s-.31.23-1.35.23-1.41-.05-1.35-.23a34.83,34.83,0,0,1,1.35-3.59A9.78,9.78,0,0,1,373.75,259.94Z"/><path class="cls-1" d="M391.92,257.15a39.77,39.77,0,0,0-.12,4.32v4.22l1,.12a12.86,12.86,0,0,0,4.27-.38,4.66,4.66,0,0,0,2.71-2.6,5.85,5.85,0,0,0-.12-3.47,4.2,4.2,0,0,0-2.52-2.06A18.42,18.42,0,0,0,391.92,257.15Zm4.88,1.09a2.85,2.85,0,0,1,1.79,2.17,3.4,3.4,0,0,1,0,1.77c-.47,1.82-1.68,2.65-4,2.71l-1.34,0-.05-3.52,0-3.51h1.42A5.06,5.06,0,0,1,396.79,258.24Z"/><path class="cls-1" d="M404,257.32c-.05.17-.8,2.1-1.65,4.29s-1.53,4-1.53,4a1.48,1.48,0,0,0,.64,0c.64-.05.66-.07,1.16-1.41l.5-1.35,1.75.05,1.75.05.52,1.34.52,1.35h.66c.56,0,.64-.05.57-.31s-.8-2.1-1.65-4.29l-1.54-4-.8-.05C404.27,257,404.1,257.06,404,257.32Zm2,3.82.36.92h-1.49c-1.35,0-1.47,0-1.39-.29s.42-1.08.76-2l.62-1.72.38,1.11C405.47,259.73,405.8,260.65,406,261.14Z"/><path class="cls-1" d="M413.66,261.36v4.34h1.21V257h-1.21Z"/><path class="cls-1" d="M417.3,261.36v4.34h1v-7.37l.5.87c.28.47,1.39,2.12,2.48,3.64l2,2.78.75.05.73.05V257h-1.21v7.18l-.61-1c-.33-.57-1.44-2.19-2.46-3.59-1.82-2.55-1.86-2.59-2.52-2.59h-.66Z"/><path class="cls-1" d="M425.81,257.46c0,.42,0,.42,1.53.47l1.51.05.05,3.85,0,3.87h1.21v-7.81h1.47c1.46,0,1.47,0,1.47-.43V257h-7.29Z"/><path class="cls-1" d="M434.31,261.36v4.34h5.55v-.87h-4.34v-3.11l2-.05,1.94-.05v-.87l-1.94-.05-2-.05v-2.76h4.16V257h-5.38Z"/><path class="cls-1" d="M441.72,257.15a40,40,0,0,0-.12,4.34v4.22h1.2l.05-1.87.05-1.86.56-.05a2.66,2.66,0,0,1,2.17.71,10.24,10.24,0,0,1,.66,1.72l.4,1.35H448l-.5-1.6a4.24,4.24,0,0,0-1-2.08l-.52-.49.54-.26a2.29,2.29,0,0,0,.94-3c-.45-.88-1.49-1.23-3.66-1.23A9.24,9.24,0,0,0,441.72,257.15Zm4,1.08a1.48,1.48,0,0,1,0,2.5,2.46,2.46,0,0,1-1.65.36l-1.18,0-.05-1.6-.05-1.6.49-.07A4.12,4.12,0,0,1,445.76,258.22Z"/><path class="cls-1" d="M449.58,261.36v4.34h1.27l-.09-3.66-.1-3.66.85,1.34c.49.75,1.61,2.39,2.52,3.66,1.65,2.31,1.67,2.33,2.34,2.33H457V257h-1.23l.05,3.56c0,2,0,3.56,0,3.56s-.28-.42-.57-.92-1.42-2.1-2.46-3.56c-1.89-2.64-1.89-2.64-2.59-2.64h-.68Z"/><path class="cls-1" d="M459.3,261.36v4.34h5.55v-.87h-4.34v-3.12h3.82v-1h-3.82v-2.78h4.16V257H459.3Z"/><path class="cls-1" d="M465.72,257.46c0,.43,0,.43,1.47.43h1.47v7.81h1.21l0-3.87L470,258l1.53-.05c1.47-.05,1.51-.05,1.51-.47V257h-7.29Z"/></svg>