<svg id="Camada_1" data-name="Camada 1" xmlns="http://www.w3.org/2000/svg" viewBox="0 0 599.74 450.24"><defs><style>.cls-1{fill:#fff;}</style></defs><title>13-VILLAGE</title><rect width="599.74" height="450.24"/><rect class="cls-1" x="130.27" y="181.39" width="363" height="87.46"/><polygon points="198.31 181.39 198.31 240.58 189.69 268.84 158.27 268.84 130.28 181.39 157.11 181.39 174.16 243.08 190.28 181.39 198.31 181.39"/><polygon points="258.4 245.23 258.4 268.84 224.56 268.84 224.56 181.39 242.64 181.39 242.64 245.23 258.4 245.23"/><polygon points="258.4 245.23 258.4 268.84 224.56 268.84 224.56 181.39 242.64 181.39 242.64 245.23 258.4 245.23"/><polygon points="304.03 245.23 296.35 268.84 277.95 268.84 277.95 245.23 258.4 245.23 258.4 181.39 284.61 181.39 284.61 245.23 304.03 245.23"/><rect class="cls-1" x="258.36" y="245.23" width="19.6" height="23.62"/><polygon points="216.39 181.39 216.39 268.84 198.31 268.84 198.31 240.58 216.39 181.39"/><rect class="cls-1" x="216.39" y="181.39" width="8.17" height="87.46"/><polygon class="cls-1" points="216.39 181.39 198.31 240.58 198.31 181.39 216.39 181.39"/><polygon class="cls-1" points="319.92 245.23 319.92 268.84 296.35 268.84 304.03 245.23 319.92 245.23"/><path d="M385.37,268.35c-20.13-2.95-29.78-19.55-29.78-43.62,0-11.07,2.05-19.87,5.8-26.52l-5.71-16.83H324.74L304,245.23h15.89v23.62h2.68l3.21-11.25H355l3.66,11.25h27Zm-53-31.3L340.5,204l8.79,33.08Z"/><path class="cls-1" d="M425.86,218.8v50h8.84v-50Zm0-25.67v19.11h8.62C433,204.69,430.23,198.17,425.86,193.13Z"/><path d="M381,225c0,12.72,5,21.56,14.78,21.56,8.79,0,13-3.79,14.78-9.91H397.24V218.8h28.57v50H417.2l0-11.92c-5,7.63-13,11.92-25.22,11.92a47.12,47.12,0,0,1-6.65-.45l-23.93-70.09c6.56-11.65,18.39-16.88,33.93-16.88,14.11,0,24,4.29,30.49,11.74v19.11H408.18c-2.46-6.43-7-8.53-13-8.08C387.55,204.74,381,213,381,225Z"/><path class="cls-1" d="M385.37,268.35c-20.13-2.95-29.78-19.55-29.78-43.62,0-11.07,2.05-19.87,5.8-26.52Z"/><path class="cls-1" d="M425.86,193.13v19.11h8.62C433,204.69,430.23,198.17,425.86,193.13Zm0,25.67v50h8.84v-50Z"/><path class="cls-1" d="M397.29,218.8v17.86h13.35c-1.79,6.07-6,9.91-14.78,9.91-9.78,0-14.73-8.84-14.78-21.56,0-12,6.52-20.22,14.11-20.8,6.07-.45,10.54,1.65,13,8.08h17.68v6.56H397.29Z"/><path d="M452.11,236.34v9.73h41.21V268.8H434.7v-50h-8.84v-6.56h8.62c-1.43-7.59-4.24-14.06-8.62-19.11V181.39h67.41v22.72H452.11v9.64l41.21,0v22.59Z"/><path class="cls-1" d="M121,255c3.88,0,5.09,2.77,5.09,6.92v7H108v-7c0-4.64,1.92-6.07,4.87-6.07a3.53,3.53,0,0,1,3.79,2.9C117.19,255.85,118.8,255,121,255Zm-11.25,6.88v5H116v-5.13c0-3.08-1.12-3.88-3.08-3.88C110.45,257.77,109.74,259.16,109.74,261.83Zm14.69,0c0-3.79-1.21-4.87-3.44-4.87-2.54,0-3.35,1.52-3.35,4.73v5.09h6.79Z"/><path class="cls-1" d="M124.43,248.71V239.6h1.7v11.16h-18v-2.05Z"/><path class="cls-1" d="M117.15,237.95c-6.56,0-9.46-2.72-9.46-8.39,0-6,3.26-8.39,9.46-8.39,6.52,0,9.38,2.68,9.38,8.39C126.52,235.54,123.36,237.95,117.15,237.95Zm0-14.73c-5.31,0-7.77,1.88-7.77,6.34s2.46,6.34,7.77,6.34,7.63-1.83,7.63-6.38-2.41-6.29-7.63-6.29Z"/><path class="cls-1" d="M117.15,217.5c-6.61,0-9.46-2.54-9.46-8,0-4.6,2.23-7.23,6.21-7.95v2.1c-3.13.71-4.46,2.81-4.46,5.85,0,4.38,2.41,6,7.77,6s7.63-1.65,7.63-6c0-3.48-1.74-5.49-5-6v-2.05c4.64.54,6.74,3.66,6.74,8.08C126.52,215.36,123.4,217.5,117.15,217.5Z"/><path class="cls-1" d="M117.15,198.17c-6.56,0-9.46-2.72-9.46-8.39,0-6,3.21-8.39,9.46-8.39,6.52,0,9.38,2.68,9.38,8.39C126.52,195.81,123.36,198.17,117.15,198.17Zm0-14.73c-5.31,0-7.77,1.88-7.77,6.34s2.46,6.34,7.77,6.34,7.63-1.83,7.63-6.34-2.41-6.34-7.63-6.34Z"/></svg>