<svg id="Camada_1" data-name="Camada 1" xmlns="http://www.w3.org/2000/svg" xmlns:xlink="http://www.w3.org/1999/xlink" viewBox="0 0 599.74 450.24"><defs><style>.cls-1{fill:#fff;}.cls-2{mask:url(#mask);}.cls-3{mask:url(#mask-2-2);}.cls-4{mask:url(#mask-3);}.cls-5{mask:url(#mask-4-2);}.cls-6{mask:url(#mask-5);}</style><mask id="mask" x="107.5" y="186.91" width="18.67" height="98.86" maskUnits="userSpaceOnUse"><g id="mask-2"><polygon id="path-1" class="cls-1" points="107.5 186.91 126.17 186.91 126.17 285.77 107.5 285.77 107.5 186.91"/></g></mask><mask id="mask-2-2" x="216.34" y="183.21" width="75.82" height="104.41" maskUnits="userSpaceOnUse"><g id="mask-4"><polygon id="path-3" class="cls-1" points="216.34 183.22 292.16 183.22 292.16 287.63 216.34 287.63 216.34 183.22"/></g></mask><mask id="mask-3" x="298.42" y="213.01" width="76.22" height="74.68" maskUnits="userSpaceOnUse"><g id="mask-6"><polygon id="path-5" class="cls-1" points="298.42 213.01 374.63 213.01 374.63 287.69 298.42 287.69 298.42 213.01"/></g></mask><mask id="mask-4-2" x="416.02" y="213.01" width="76.22" height="74.68" maskUnits="userSpaceOnUse"><g id="mask-8"><polygon id="path-7" class="cls-1" points="416.02 213.01 492.24 213.01 492.24 287.69 416.02 287.69 416.02 213.01"/></g></mask><mask id="mask-5" x="440.39" y="162.54" width="33.09" height="44.5" maskUnits="userSpaceOnUse"><g id="mask-10"><polygon id="path-9" class="cls-1" points="440.39 162.54 473.48 162.54 473.48 207.04 440.39 207.04 440.39 162.54"/></g></mask></defs><title>15-INDAIA</title><rect width="599.74" height="450.24"/><g id="Page-1"><g id="Produtos"><g id="Carrossel-logos"><g id="_2-copy" data-name="2-copy"><g id="Group-20"><g id="Group-3"><g class="cls-2"><path id="Fill-1" class="cls-1" d="M116.94,186.91a8.58,8.58,0,0,1,6.44,3,10.29,10.29,0,0,1,0,14.09,8.87,8.87,0,0,1-13.15,0,10,10,0,0,1-2.72-7.12,9.88,9.88,0,0,1,2.72-7,8.72,8.72,0,0,1,6.71-3m-9.43,94.73V216.87q-.13-4.27,3.92-4.13h10.76q3.92-.14,3.85,4.13v64.76q.06,4.27-3.85,4.13H111.43q-4.05.14-3.92-4.13"/></g></g><path id="Fill-4" class="cls-1" d="M160.68,216.9a26.31,26.31,0,0,1,14.47-4q15.72,0,24.07,9.63,7.3,8.41,7.3,22.85v38.09q.14,4.31-4,4.17H191.22q-4.18.14-4-4.17v-37.8a12.54,12.54,0,0,0-3.62-9.05,12.34,12.34,0,0,0-17.32-.36,11.48,11.48,0,0,0-3.83,8.55v38.66q.07,4.31-4,4.17H147.11q-4.24.14-4.11-4.17V218.27q-.14-4.31,4.11-4.17h10.3q3.06-.07,3.27,2.8"/><g id="Group-8"><g class="cls-3"><path id="Fill-6" class="cls-1" d="M253.93,231.32a16.92,16.92,0,0,0-12.58,5.25,18.7,18.7,0,0,0,0,26.07,17.08,17.08,0,0,0,12.72,5.26,17.32,17.32,0,0,0,12.79-5.26,18.89,18.89,0,0,0,0-26.07,17.35,17.35,0,0,0-12.93-5.25m18.29-15.05V187.39q-.07-4.32,4.15-4.17h11.57q4.36-.14,4.22,4.17v94.9q.14,4.32-4.22,4.18h-10.5q-4.15.22-4.22-3.67v-.43a40.21,40.21,0,0,1-19.08,5.26,36.24,36.24,0,0,1-26.65-11.23,37.75,37.75,0,0,1,0-53.57,36.23,36.23,0,0,1,26.65-11.23,38,38,0,0,1,18.08,4.68"/></g></g><g id="Group-11"><g class="cls-4"><path id="Fill-9" class="cls-1" d="M336.27,232.39a17.41,17.41,0,0,0-12.67,5.16,18.22,18.22,0,0,0,0,25.6,18.56,18.56,0,0,0,25.69,0,18.22,18.22,0,0,0,0-25.6,17.69,17.69,0,0,0-13-5.16m20.08-13.93v-.64q0-3.82,4.17-3.68h9.93q4.32-.14,4.17,4.1v64.21q.14,4.24-4.17,4.1h-9.93q-4.17.14-4.17-3.68v-.5a38.62,38.62,0,0,1-19.72,5.31,37.13,37.13,0,0,1-27-11,36.43,36.43,0,0,1,0-52.61,37,37,0,0,1,26.84-11,39.64,39.64,0,0,1,19.86,5.44"/></g></g><path id="Fill-12" class="cls-1" d="M395.35,186.79a8.58,8.58,0,0,1,6.45,3,10.32,10.32,0,0,1,0,14.12,8.87,8.87,0,0,1-13.16,0,10.07,10.07,0,0,1-2.73-7.13,9.89,9.89,0,0,1,2.73-7,8.72,8.72,0,0,1,6.71-3m-9.44,94.89V216.81q-.13-4.28,3.92-4.14H400.6q3.92-.14,3.86,4.14v64.88q.06,4.28-3.86,4.13H389.83q-4.06.14-3.92-4.13"/><g id="Group-16"><g class="cls-5"><path id="Fill-14" class="cls-1" d="M453.88,232.39a17.41,17.41,0,0,0-12.67,5.16,18.22,18.22,0,0,0,0,25.6,18.56,18.56,0,0,0,25.69,0,18.22,18.22,0,0,0,0-25.6,17.7,17.7,0,0,0-13-5.16M474,218.46v-.64q0-3.82,4.17-3.68h9.93q4.32-.14,4.17,4.1v64.21q.14,4.24-4.17,4.1h-9.93q-4.17.14-4.17-3.68v-.5a38.62,38.62,0,0,1-19.72,5.31,37.12,37.12,0,0,1-27-11,36.43,36.43,0,0,1,0-52.61,37,37,0,0,1,26.84-11A39.64,39.64,0,0,1,474,218.46"/></g></g><g id="Group-19"><g class="cls-6"><path id="Fill-17" class="cls-1" d="M473.48,190.29a16.55,16.55,0,1,1-33.09,0c0-7.62,11.21-22.18,15.18-27.09a1.75,1.75,0,0,1,2.74,0c4,4.91,15.18,19.47,15.18,27.09"/></g></g></g></g></g></g></g></svg>