<svg id="Camada_1" data-name="Camada 1" xmlns="http://www.w3.org/2000/svg" viewBox="0 0 599.74 450.24"><defs><style>.cls-1{fill:#531985;}.cls-2{fill:#4e1670;}.cls-3{fill:#fff;}.cls-4{fill:#feec2d;}.cls-5{fill:#da7004;}.cls-6{fill:#feeb26;}</style></defs><title>19-SIRIGUELLACOMFEIJAO</title><rect width="599.74" height="450.24"/><g id="Camada_1-2" data-name="Camada 1"><path class="cls-1" d="M194.55,225.44h0Z"/><path class="cls-1" d="M194.82,226Z"/><path class="cls-1" d="M195.87,227.81h0v0Z"/><path class="cls-1" d="M196.91,229.38h0Z"/><path class="cls-1" d="M197.7,230.69Z"/><path class="cls-2" d="M364.22,168.74Zm0,0Z"/><path class="cls-3" d="M410.91,154.13a53.22,53.22,0,0,0-30.17-41.83,58.59,58.59,0,0,0-16-4.58,82.93,82.93,0,0,0-10.9-.46c-26.95-.13-53.9-.07-80.84-.07-.55,0-1.14-.14-1.61.31h-.79c-1,.79-2,.56-3.13.31a40,40,0,0,0-9.31,2.54,54.16,54.16,0,0,0-14,8.1h0l-.26.26-.26.26c-.1.26-.3.29-.52.28l-.26.26-.26.26-1,.84-.22.21-.3.3-.29.21-.26.26-.52.52-.26.26-.26.26-.2.26a.32.32,0,0,0,0,.22c-.36,0-.57.17-.55.55l-.3.26-.2.24-.26.26-.28.28-.26.26-.26.26-.24.25-.26.28-.2.26a.52.52,0,0,0-.06.27l-.28.29-.24.24-.28.28-.22.26v0c0,.21-.07.41-.3.5-.58.73-1.22,1.43-1.73,2.21a54.76,54.76,0,0,0-5.57,10.58c-1.09,2.88-2.26,5.72-2.36,8.85a1.21,1.21,0,0,1-.91,1.12c-1.72.73-3.49,1.36-5.16,2.17a53.42,53.42,0,0,0-12,7.6,59.24,59.24,0,0,0-9.53,10.28,53,53,0,0,0-7,14.11,50.72,50.72,0,0,0-2.62,14.32,54.41,54.41,0,0,0,1.57,14.09,41.42,41.42,0,0,0,4.42,11.41c.55,0,.52.42.5.81.25.09.28.3.26.52.8.12.79.73.79,1.33a.42.42,0,0,0,0,.22l.2.29c1,.11,1,.83,1,1.57.79.11.8.71.79,1.31,1.07.16,1.28.93,1.31,1.83l.26.26h0c.59,0,.56.4.54.81a5.91,5.91,0,0,0,.52.87,64,64,0,0,0,9.44,9c8,6,17.08,9,26.89,10,3.1.29,6.25.31,9.39.33,18.9.16,37.8-.28,56.7.24,6.65.18,13.31,0,20,.07a42.53,42.53,0,0,0,9.19-.64,57.88,57.88,0,0,0,15.91-5.77,51.08,51.08,0,0,0,16.7-14.35,54.45,54.45,0,0,0,9.88-22.18,1.29,1.29,0,0,1,.94-1.1,36.46,36.46,0,0,0,7.95-3.41,53.08,53.08,0,0,0,12.62-9.17,46.4,46.4,0,0,0,6.27-8,53.57,53.57,0,0,0,5.9-11.86A46.57,46.57,0,0,0,411,165.09,73.46,73.46,0,0,0,410.91,154.13ZM369.38,208a6.8,6.8,0,0,1-.32,1.11,47.57,47.57,0,0,1-7.57,18.51A46.66,46.66,0,0,1,345.8,242a49.4,49.4,0,0,1-16.8,5.72,51.1,51.1,0,0,1-8.2.33q-38.92-.08-77.84-.19a51.46,51.46,0,0,1-19.18-3.32,46.72,46.72,0,0,1-20.09-15.27A46.06,46.06,0,0,1,194.08,198a47.54,47.54,0,0,1,5-18.32,41.54,41.54,0,0,1,9.16-12.34,45,45,0,0,1,13.58-9.13c1.83-.76,3.67-1.51,5.56-2.13a34.78,34.78,0,0,1,9.74-1.73c12.29-.58,24.59-.47,36.89-.49q11.39,0,22.79,0c9,.05,18.09,0,27.1.29a47.25,47.25,0,0,1,43.5,32.73A49,49,0,0,1,369.38,208Zm36.17-45.48a49.35,49.35,0,0,1-7.7,23.07c-5.41,8.44-13,14.15-22.17,18.2v-2a52.65,52.65,0,0,0-10.64-32.42c-.13-.18-.26-.36-.5-.37l-.33-.3h0a38.28,38.28,0,0,0-9.53-9.66,35.76,35.76,0,0,0-8.6-5.26,51.86,51.86,0,0,0-5-2.31c-1.83-.59-3.67-1.2-5.5-1.8h0A118.38,118.38,0,0,0,313.45,148h0a2.26,2.26,0,0,1-1.28,0l-2.88,0h0a8.08,8.08,0,0,1-.9.1l-33.2,0a5.36,5.36,0,0,1-.76-.1l-30.71.07h-1.51a79.9,79.9,0,0,0-10,.67c-.94.15-1.1-.28-.86-1a53.77,53.77,0,0,1,6.88-14.52,47.92,47.92,0,0,1,26.72-18.81,32.67,32.67,0,0,1,3.33-.62c3.3-.91,6.69-.85,10.06-.87,23.78-.15,47.55.06,71.33.15.17,0,.35,0,.52,0h0a60.55,60.55,0,0,1,8.19.08l1.16,0a.26.26,0,0,1,.45,0A44.58,44.58,0,0,1,374.73,116c.4.15.83.24,1.24.36.14-.21.23-.5.42-.62a.91.91,0,0,1,1.17.08c.45.46-.26.59-.33.92a.14.14,0,0,0,0,.18c.38.62,1.11.58,1.67.87a48.23,48.23,0,0,1,19,16.85,47.55,47.55,0,0,1,6.85,17.52,40.68,40.68,0,0,1,.75,10.41Z"/><path class="cls-1" d="M270.61,107.5c-1,.79-2,.56-3.13.31C268.53,107.79,269.54,107.29,270.61,107.5Z"/><path class="cls-2" d="M199,232.53h0a4.62,4.62,0,0,1-1.31-1.83h0C198.79,230.86,199,231.63,199,232.53Z"/><path class="cls-2" d="M196.92,229.39h0l0,0a3.52,3.52,0,0,1-1-1.57h0C196.85,227.92,196.91,228.64,196.92,229.39Z"/><path class="cls-2" d="M195.64,227.31a1.86,1.86,0,0,1-.8-1.33h0C195.64,226.09,195.62,226.7,195.64,227.31Z"/><path class="cls-2" d="M197.71,230.7h0a1.9,1.9,0,0,1-.79-1.31h0C197.72,229.5,197.74,230.09,197.71,230.7Z"/><path class="cls-2" d="M194.57,225.45h0a.75.75,0,0,1-.48-.81C194.63,224.68,194.59,225.06,194.57,225.45Z"/><path class="cls-2" d="M199.83,233.59a.87.87,0,0,1-.55-.81h0C199.87,232.78,199.83,233.19,199.83,233.59Z"/><path class="cls-2" d="M243.61,119c-.1.26-.3.29-.52.28h0C243.14,118.95,243.4,119,243.61,119Z"/><path class="cls-2" d="M235.22,127.41c0,.21-.07.41-.3.5C235,127.74,235.13,127.57,235.22,127.41Z"/><path class="cls-2" d="M194.84,226h0c-.28-.08-.22-.33-.26-.52h0C194.82,225.54,194.85,225.75,194.84,226Z"/><path class="cls-2" d="M236.51,125.79h0l-.2.26C236.27,125.9,236.37,125.83,236.51,125.79Z"/><path class="cls-2" d="M241,121.13l-.29.21C240.74,121.2,240.81,121.09,241,121.13Z"/><path class="cls-2" d="M241.51,120.61l-.22.21C241.27,120.66,241.34,120.58,241.51,120.61Z"/><path class="cls-2" d="M195.88,227.83h0c-.13,0-.23-.12-.19-.3l.2.29Z"/><path class="cls-2" d="M239.4,122.64h0l-.2.26C239.15,122.75,239.26,122.68,239.4,122.64Z"/><path class="cls-2" d="M240.19,121.85l-.26.26Z"/><path class="cls-4" d="M364.22,168.74Z"/><path d="M404.82,152.13a47.55,47.55,0,0,0-6.84-17.5,48.26,48.26,0,0,0-19-16.85c-.56-.29-1.29-.25-1.67-.87a.14.14,0,0,1,0-.18,1.49,1.49,0,0,1-1.27-.38c-.41-.12-.84-.2-1.24-.36A44.58,44.58,0,0,0,360,113.17l-.45,0-1.16,0a53.37,53.37,0,0,1-8.19-.08h0c-.17,0-.35,0-.52,0-23.77-.09-47.55-.31-71.33-.15-3.37,0-6.76,0-10.06.87a32.67,32.67,0,0,0-3.33.62,48,48,0,0,0-26.72,18.8,54,54,0,0,0-6.88,14.52c-.24.74-.08,1.17.86,1a81.92,81.92,0,0,1,10-.67l.05-.05,0,0,0,0a.18.18,0,0,1,.15,0h0l0,0,.09.08h.85c.08-.13.15-.13.23,0l30.71-.07c.43,0,.87-.07,1.31-.07H308c.43,0,.86,0,1.29.08h0l2.88,0a1.71,1.71,0,0,1,1.28,0h0a118.38,118.38,0,0,1,22.11,1.71h0c1.83.6,3.67,1.21,5.5,1.8a54.48,54.48,0,0,1,5,2.31,35.76,35.76,0,0,1,8.61,5.26,38.41,38.41,0,0,1,9.53,9.66h0l.33.3c.26,0,.37.2.5.37a52.65,52.65,0,0,1,10.64,32.42v2c9.19-4,16.75-9.76,22.17-18.2a49.34,49.34,0,0,0,7.7-23.07A41.45,41.45,0,0,0,404.82,152.13ZM278.13,113.51a1.63,1.63,0,0,1,1.77,0A1.91,1.91,0,0,1,278.13,113.51Z"/><path class="cls-5" d="M358.35,113.11a53.37,53.37,0,0,1-8.19-.08A60.55,60.55,0,0,1,358.35,113.11Z"/><path class="cls-2" d="M377.24,116.73a1.49,1.49,0,0,1-1.27-.38c.14-.21.23-.5.42-.62a.91.91,0,0,1,1.17.08C378,116.28,377.32,116.41,377.24,116.73Z"/><path class="cls-5" d="M360,113.17l-.45,0a.26.26,0,0,1,.45,0Z"/><path class="cls-3" d="M367.39,186.95a47.26,47.26,0,0,0-43.5-32.72c-9-.32-18.07-.24-27.1-.29q-11.39-.07-22.79,0c-12.3,0-24.6-.09-36.89.49a34.75,34.75,0,0,0-9.74,1.73,64.64,64.64,0,0,0,.74,11.94,55.65,55.65,0,0,0,3.41,11.59,2.58,2.58,0,0,1,.35,1.37l.12.06.19.14.06,0,.1.11,0,.06,0,.07a1.47,1.47,0,0,1,.12.21c.15.29.24.6.39.89a49.7,49.7,0,0,0,14.44,17,50.26,50.26,0,0,0,19.21,8.83,39.59,39.59,0,0,0,7.64.94c18.47.55,36.94.06,55.41.36,9.87.17,19.73.18,29.6.17,2.26,0,4.53-.17,6.79-.26l3-.53a6.8,6.8,0,0,0,.32-1.12A48.93,48.93,0,0,0,367.39,186.95Zm-80.58,7c-.1,1,0,2.1,0,3.15,0,.56,0,1.21-.93,1l-.82,0-1.27,0H281.6a3.45,3.45,0,0,1-1.52,0h-2.36a5,5,0,0,1-1.91,0c-3.13.51-6.06-.55-9-1.36A31.19,31.19,0,0,1,256,191.26a33,33,0,0,1-9.64-12.4,43.48,43.48,0,0,1-3.24-12.48c-.15-1,.14-1.57,1.31-1.51a22,22,0,0,0,3.15,0c1.13-.1,1.48.33,1.62,1.45a31.31,31.31,0,0,0,5.13,14.24,26.51,26.51,0,0,0,18.81,11.39,76.75,76.75,0,0,0,12.15.47C286.42,192.35,286.94,192.65,286.81,193.91Zm68.2,4.28c-1.31,0-2.62-.09-3.93,0-1,.06-1.23-.39-1.31-1.29a28.7,28.7,0,0,0-8.41-18.39,26.57,26.57,0,0,0-18.09-7.6q-4.84-.23-9.7-.2c-1.24,0-1.5-.56-1.44-1.59a25.27,25.27,0,0,0,.1-2.74c0-1,.36-1.31,1.31-1.31,2,0,3.93,0,5.9,0a44.48,44.48,0,0,1,10.24.79,37,37,0,0,1,10.11,4.07c9.4,5.56,14.4,14,15.83,24.68.11.82.16,1.65.34,2.46S355.78,198.21,355,198.19Z"/><path class="cls-1" d="M364.25,168.76h0Z"/><path class="cls-5" d="M309.29,147.93a8.08,8.08,0,0,1-.9.1l-33.2,0a5.36,5.36,0,0,1-.76-.1c.43,0,.87-.07,1.31-.07H308C308.43,147.86,308.86,147.91,309.29,147.93Z"/><path class="cls-5" d="M313.45,148a2.26,2.26,0,0,1-1.28,0A1.71,1.71,0,0,1,313.45,148Z"/><path class="cls-5" d="M242.65,148h-.42l.05-.05,0,0,0,0a.18.18,0,0,1,.15,0h0l0,0A.36.36,0,0,1,242.65,148Z"/><path class="cls-5" d="M243.73,148h-.23C243.58,147.86,243.65,147.86,243.73,148Z"/><path class="cls-6" d="M279.89,113.53a1.91,1.91,0,0,1-1.77,0A1.62,1.62,0,0,1,279.89,113.53Z"/><path d="M369.06,209.14a47.57,47.57,0,0,1-7.57,18.51A46.66,46.66,0,0,1,345.8,242a49.4,49.4,0,0,1-16.8,5.72,51.1,51.1,0,0,1-8.2.33q-38.92-.08-77.84-.19a51.46,51.46,0,0,1-19.18-3.32,46.72,46.72,0,0,1-20.09-15.27A46.06,46.06,0,0,1,194.08,198a47.54,47.54,0,0,1,5-18.32,41.54,41.54,0,0,1,9.16-12.34,45,45,0,0,1,13.58-9.13c1.83-.76,3.67-1.51,5.56-2.13a64.64,64.64,0,0,0,.74,11.94,55.65,55.65,0,0,0,3.41,11.59,2.58,2.58,0,0,1,.35,1.37h0l.12.06.19.14.06,0,.1.11,0,.06,0,.07a1.79,1.79,0,0,1,.12.21c.15.29.24.6.39.89a49.7,49.7,0,0,0,14.44,17,50.26,50.26,0,0,0,19.21,8.83,39.59,39.59,0,0,0,7.63,1c18.47.55,36.94.06,55.41.36,9.87.17,19.73.18,29.6.17,2.26,0,4.53-.17,6.79-.26Z"/><path d="M319.44,165.09a43.9,43.9,0,0,1,10.24.8A36.92,36.92,0,0,1,339.79,170c9.4,5.56,14.4,14,15.83,24.68.11.82.16,1.65.33,2.46s-.18,1.11-1,1.09c-1.31,0-2.62-.09-3.93,0-1,.06-1.23-.39-1.31-1.29a28.69,28.69,0,0,0-8.41-18.39,26.57,26.57,0,0,0-18.09-7.6q-4.84-.23-9.7-.2c-1.24,0-1.5-.56-1.44-1.59a25.43,25.43,0,0,0,.1-2.74c0-1,.36-1.31,1.31-1.31C315.51,165.1,317.48,165.09,319.44,165.09Z"/><path d="M286.81,193.91c-.1,1,0,2.1,0,3.15,0,.56,0,1.21-.93,1l-.82,0a.94.94,0,0,0-1.27,0H281.6a1.42,1.42,0,0,0-1.52,0h-1.37a.71.71,0,0,0-1,0,5,5,0,0,1-1.91,0c-3.13.51-6.06-.55-9-1.36A31.19,31.19,0,0,1,256,191.26a33,33,0,0,1-9.64-12.4,43.48,43.48,0,0,1-3.24-12.48c-.15-1,.14-1.57,1.31-1.51a22,22,0,0,0,3.15,0c1.13-.1,1.48.33,1.62,1.45a31.31,31.31,0,0,0,5.13,14.24,26.51,26.51,0,0,0,18.81,11.39,76.75,76.75,0,0,0,12.15.47C286.42,192.35,286.94,192.65,286.81,193.91Z"/><path class="cls-2" d="M281.6,198.09a3.45,3.45,0,0,1-1.52,0A1.42,1.42,0,0,1,281.6,198.09Z"/><path class="cls-2" d="M285,198.13l-1.27,0A.94.94,0,0,1,285,198.13Z"/><path class="cls-2" d="M278.71,198.09h-1A.71.71,0,0,1,278.71,198.09Z"/></g><g id="Camada_2" data-name="Camada 2"><path class="cls-3" d="M200.54,287a2.36,2.36,0,0,0,2.36,2.36h2.48a9.21,9.21,0,0,1,.31,18.41H194v-7h11.25a2.36,2.36,0,0,0,0-4.72h-2a9.21,9.21,0,0,1-.32-18.41h20.76v7H202.9A2.36,2.36,0,0,0,200.54,287Z"/><rect class="cls-3" x="217.4" y="289.38" width="6.25" height="18.41"/><path class="cls-3" d="M256.29,307.8h-8.83l-12.23-12.23V307.8H229V289.38h5a.07.07,0,0,1,0,0h8.54a2.47,2.47,0,0,0,.4,0,2.44,2.44,0,0,0,.39,0,2.49,2.49,0,0,0-.39-4.95H226.63v-6.75h16.19a9.22,9.22,0,0,1,2,18.23l-.35.07Z"/><rect class="cls-3" x="254.3" y="289.38" width="6.25" height="18.41"/><rect class="cls-3" x="254.3" y="277.65" width="6.25" height="6.75"/><rect class="cls-3" x="288.37" y="277.65" width="6.25" height="6.75"/><rect class="cls-3" x="304.78" y="277.65" width="6.25" height="6.75"/><polygon class="cls-3" points="358.69 301.05 358.69 307.81 338.59 307.81 338.59 277.65 344.84 277.65 344.84 301.05 358.69 301.05"/><rect class="cls-3" x="366.75" y="304.45" width="8.58" height="3.36"/><polygon class="cls-3" points="411.04 307.52 410.54 307.81 384.49 307.81 388.39 301.05 399.26 301.05 392.52 289.38 385.79 301.05 383.89 304.33 381.88 307.81 377.23 307.81 377.23 303.08 364.78 303.08 364.78 307.81 361.28 307.81 361.28 277.65 367.53 277.65 367.53 301.05 377.75 301.05 388.5 282.42 392.52 275.45 396.55 282.42 407.3 301.05 411.04 307.52"/><rect class="cls-3" x="313.54" y="277.65" width="22.35" height="6.75"/><polygon class="cls-3" points="319.78 301.06 335.88 301.06 335.88 307.81 313.54 307.81 313.54 289.36 333.7 289.36 326.95 296.11 319.78 296.11 319.78 301.06"/><path class="cls-3" d="M266.88,292.76a8.36,8.36,0,0,0,12.32,7.36v-4h-10.7v-.51l6.21-6.24h8.16v0h3.07v18.43H275.72a15.16,15.16,0,0,1-15.2-14.89v-.39a14.94,14.94,0,0,1,3-8.8,15.2,15.2,0,0,1,12.2-6.09h10.22v6.75H275.23a8.35,8.35,0,0,0-8.35,8.35Z"/><path class="cls-3" d="M311,289.35v7.13a11.29,11.29,0,0,1-.55,3.49,11.8,11.8,0,0,1-.46,1.2h-8.77a6.83,6.83,0,0,0-5,2,6.58,6.58,0,0,0-1.87,3.29,11.3,11.3,0,0,1-6-10v-7.13h6.25v6a5.08,5.08,0,1,0,10.16.23q0-.12,0-.23v-6Z"/><path class="cls-3" d="M199.1,329.53h18.26v5.37H199.1a5.34,5.34,0,0,1-3.95-1.66,5.49,5.49,0,0,1-1.64-4V316.77a5.49,5.49,0,0,1,1.64-4,5.34,5.34,0,0,1,3.95-1.66h18.18v5.37H199.1a.26.26,0,0,0-.28.29v12.47a.26.26,0,0,0,.23.29Z"/><path class="cls-3" d="M226.63,311.11H239.3a5.34,5.34,0,0,1,3.95,1.66,5.49,5.49,0,0,1,1.64,4v12.47a5.49,5.49,0,0,1-1.64,4,5.34,5.34,0,0,1-3.95,1.66H226.63a5.34,5.34,0,0,1-3.95-1.66,5.49,5.49,0,0,1-1.64-4V316.77a5.49,5.49,0,0,1,1.64-4A5.34,5.34,0,0,1,226.63,311.11Zm12.67,5.37H226.63a.26.26,0,0,0-.28.29v12.47a.26.26,0,0,0,.23.29H239.3a.26.26,0,0,0,.28-.29V316.77a.26.26,0,0,0-.24-.29h0Z"/><path class="cls-3" d="M278,311.11a5.34,5.34,0,0,1,3.95,1.66,5.49,5.49,0,0,1,1.64,4V334.9h-5.26V316.77c0-.19-.11-.29-.33-.29h-8.82c-.16,0-.24.1-.24.29V334.9h-5.34V316.77c0-.19-.08-.29-.24-.29h-8.87a.26.26,0,0,0-.28.29V334.9h-5.31v-23.8Z"/><path class="cls-3" d="M302.35,308.73q-.28,0-.28.25v2.13h9.15v5.37h-9.15V334.9h-5.3V309a5.52,5.52,0,0,1,1.63-4,5.32,5.32,0,0,1,4-1.66h8.87v5.42Z"/><path class="cls-3" d="M331.08,311.11a5.34,5.34,0,0,1,3.95,1.66,5.49,5.49,0,0,1,1.63,4v8.94H318.13v3.53a.26.26,0,0,0,.23.29h18.3v5.37H318.41a5.34,5.34,0,0,1-3.95-1.66,5.49,5.49,0,0,1-1.64-4V316.77a5.49,5.49,0,0,1,1.64-4,5.34,5.34,0,0,1,3.95-1.66Zm-13,9.19h13.24v-3.53a.26.26,0,0,0-.23-.29H318.41a.26.26,0,0,0-.28.29Z"/><path class="cls-3" d="M376.29,311.11a5.34,5.34,0,0,1,3.95,1.66,5.49,5.49,0,0,1,1.64,4V334.9H363.62a5.34,5.34,0,0,1-3.95-1.66,5.49,5.49,0,0,1-1.64-4V320.3h18.54v-3.53a.26.26,0,0,0-.23-.29H358v-5.38Zm.28,18.42v-3.81H363.34v3.53a.26.26,0,0,0,.23.29h13Z"/><path class="cls-3" d="M392.5,311.11h12.67a5.34,5.34,0,0,1,3.95,1.66,5.49,5.49,0,0,1,1.64,4v12.47a5.49,5.49,0,0,1-1.64,4,5.34,5.34,0,0,1-3.95,1.66H392.5a5.34,5.34,0,0,1-3.93-1.66,5.49,5.49,0,0,1-1.64-4V316.77a5.49,5.49,0,0,1,1.64-4A5.34,5.34,0,0,1,392.5,311.11Zm12.67,5.37H392.5a.26.26,0,0,0-.28.29v12.47a.26.26,0,0,0,.23.29h12.72a.26.26,0,0,0,.28-.29V316.77a.26.26,0,0,0-.24-.28h0Z"/><path class="cls-3" d="M349.33,319.3v19.83q0,.2-.28.2H338.92v4.48H349a5.94,5.94,0,0,0,3.95-1.38,4.2,4.2,0,0,0,1.64-3.31V319.3Zm0-8.29v5.18h5.31V311Z"/><path class="cls-3" d="M340.33,311v5.06h4.74V311Zm0,8.25v15.64h4.74V319.26Z"/><rect class="cls-3" x="366.75" y="304.45" width="8.58" height="3.36"/><rect class="cls-3" x="366.75" y="304.45" width="8.58" height="3.36"/></g></svg>
