<svg id="Camada_1" data-name="Camada 1" xmlns="http://www.w3.org/2000/svg" viewBox="0 0 599.7 450.2"><defs><style>.cls-1{fill:#fff;}</style></defs><title>17-ETUHDE23</title><rect width="599.7" height="450.2"/><path class="cls-1" d="M245.08,185.22c3.95-1.47,15.33-4.85,27.62-2.48s23.9,5.86,24.57,6.54-14.77-81.61-15.11-82.18c2,17.7,1.13,37.09-10.93,53.09a113.48,113.48,0,0,1-26.15,25"/><path class="cls-1" d="M237.53,187.47c.87,3,4.73,15.11,32,13.75s29.31-1.58,34.8.2c-6-15.13-24-14.2-36.69-13.36s-25.93,1.78-30.13-.59"/><path class="cls-1" d="M305.37,137.95c2.68,3.25,9.6,12.9,11.39,25.28s2.29,24.5,1.88,25.36,72.27-40.7,72.69-41.2c-16.06,7.72-34.67,13.22-53.74,7.07a113.48,113.48,0,0,1-32.21-16.51"/><path class="cls-1" d="M300.76,131.55c-2.59,1.82-12.72,9.42-2.5,34.75s11.1,27.17,11.22,32.95c12.33-10.63,5.55-27.34.59-39s-10.17-23.91-9.31-28.66"/><path class="cls-1" d="M370.8,185.15c-2.44,3.43-10,12.61-21.47,17.55s-23.07,8.55-24,8.37,58,59.28,58.61,59.55c-11.61-13.51-21.74-30.07-20.73-50.09a113.47,113.47,0,0,1,7.61-35.39"/><path class="cls-1" d="M375.79,179c-2.43-2-12.39-9.85-34.22,6.58S318.2,203.37,312.65,205c13.46,9.16,27.84-1.71,37.87-9.53s20.47-16,25.27-16.41"/><path class="cls-1" d="M344,258.59c-4-1.42-14.85-6.16-22.73-15.88s-14.52-19.87-14.6-20.82-41.22,72-41.32,72.62c9.84-14.85,23-29.11,42.54-33.6A113.48,113.48,0,0,1,344,258.59"/><path class="cls-1" d="M351.25,261.73c1.29-2.89,6.1-14.61-15.65-31.13S312.15,212.94,309.09,208c-5.14,15.45,9.24,26.32,19.49,33.84s21,15.33,22.68,19.84"/><path class="cls-1" d="M267.19,257.5c.08-4.21,1.09-16,7.78-26.62s14.18-20.11,15.06-20.49-81.37-16.05-82-15.94c17.22,4.57,34.94,12.49,45.43,29.57a113.48,113.48,0,0,1,13.75,33.48"/><path class="cls-1" d="M266.54,265.35c3.15.3,15.79,1.11,24.49-24.78s9.23-27.86,12.89-32.33c-16.28.06-22,17.17-25.83,29.28s-7.81,24.79-11.55,27.83"/><path class="cls-1" d="M211,322.66v15.1h5.69v5H199.63v-5h5.69v-15.1h-5.69v-5h17.06v5Z"/><path class="cls-1" d="M226.92,330.91v-1.42l-8.46-11.8H225l6.75,9.6,6.79-9.6h6.54l-8.49,11.8v1.42l8.49,11.83h-6.54l-6.79-9.63L225,342.74h-6.54Z"/><path class="cls-1" d="M257.87,317.69h17.88v5H263.55v5H274v5H263.55v5.08h12.19v5H257.87Z"/><path class="cls-1" d="M300.3,322.66h-8.17v20.08h-5.69V322.66h-8.21v-5H300.3Z"/><path class="cls-1" d="M302.78,317.69h5.69v13.22c0,4.48.39,7.21,5.62,7.21s5.65-2.74,5.65-7.21V317.69h5.69v15.74c0,6.26-3.91,9.67-11.34,9.67s-11.3-3.41-11.3-9.67Z"/><path class="cls-1" d="M352.56,317.69v25.06h-5.69V333H334.3v9.7h-5.69V317.69h5.69v10.38h12.58V317.69Z"/><path class="cls-1" d="M379,330.2c0,10.8-7,12.55-13.65,12.55h-9.24V317.69h9.24C372,317.69,379,319.43,379,330.2Zm-5.69,0c0-7.18-3.52-7.53-8-7.53H361.8v15.1h3.55C369.79,337.77,373.31,337.41,373.31,330.2Z"/><path class="cls-1" d="M382.19,317.69h17.88v5H387.88v5h10.41v5H387.88v5.08h12.19v5H382.19Z"/></svg>