<svg id="Camada_1" data-name="Camada 1" xmlns="http://www.w3.org/2000/svg" viewBox="0 0 599.74 450.24"><defs><style>.cls-1{fill:#fff;stroke:#fff;stroke-miterlimit:10;}.cls-2{isolation:isolate;}</style></defs><title>17-IXETUHDE</title><rect width="599.74" height="450.24"/><path class="cls-1" d="M297.08,191.47a6.78,6.78,0,0,0-.67-.28c-1.47-.58-3-1.08-4.5-1.53-2.89-.86-5.78-1.64-8.69-2.36-4-1-7.94-1.86-11.94-2.64a42.21,42.21,0,0,0-4.94-.64c-1.56-.11-3.11-.17-4.67-.14s-3.39.14-5.08.33a60,60,0,0,0-7.36,1.28,56.35,56.35,0,0,0-5.61,1.64c-.11.14-.28.08-.44.22a.45.45,0,0,1,.36-.31c.11-.06.19-.19.33-.19l3-2.17a75.88,75.88,0,0,0,8.17-7.05,207.25,207.25,0,0,0,14.5-15.94,41.24,41.24,0,0,0,4.78-7.36,69,69,0,0,0,5.75-16.3,83,83,0,0,0,1.47-8.67c.31-2.61.5-5.25.61-7.89.08-2,.08-4,0-5.94s-.14-3.67-.33-5.5a6.28,6.28,0,0,1,0-.72c0-.06,0-.08,0-.14a15.05,15.05,0,0,1-.17-1.61h0c-.14-.22-.08-.44-.08-.78a1.54,1.54,0,0,1,.17.58l.75,3.75a.94.94,0,0,1,0,.28l.58,2.92,1.58,8.25c.58,3,1.14,6,1.69,9,.5,2.61,1,5.22,1.47,7.83.53,2.86,1.08,5.72,1.61,8.58.39,2.11.78,4.25,1.19,6.36l1.5,8.11c.56,3.11,1.14,6.19,1.69,9.3.47,2.58.94,5.19,1.39,7.78.42,2.28.81,4.55,1.19,6.86.28,1.64.58,3.25.75,4.89A.4.4,0,0,0,297.08,191.47Z"/><path class="cls-1" d="M289.55,213.25c-.06.22-.22.28-.36.42-.83.89-1.64,1.81-2.39,2.78a209.6,209.6,0,0,0-12.89,18.25,49.38,49.38,0,0,0-5.8,13.44,60.94,60.94,0,0,0-1.75,8.91c-.19,1.53-.28,3.08-.36,4.72a1.32,1.32,0,0,1-.17-.67c-.25-.92-.47-1.86-.72-2.78a80.77,80.77,0,0,0-4.72-13.08c-2.64-5.94-5.58-11.72-8.75-17.41a41.13,41.13,0,0,0-6.17-8.19,74.47,74.47,0,0,0-18.05-13.78,94.41,94.41,0,0,0-17.89-7.69c-.81-.25-1.61-.5-2.44-.72-.53-.08-1-.28-1.53-.39a1.33,1.33,0,0,1-.47-.14.76.76,0,0,1,.56.06c1,.17,2,.33,3.05.53s2.33.42,3.53.64a.47.47,0,0,1,.28.08c.86.08,1.69.28,2.56.44l9.94,1.86L236,202.61l10.33,2c3.08.58,6.17,1.19,9.22,1.78s6.33,1.22,9.53,1.86c4.67.92,9.33,1.86,14,2.78,3.11.61,6.22,1.25,9.3,1.94C288.72,213,289.14,213.14,289.55,213.25Z"/><path class="cls-1" d="M303.86,211.14s0,0,0,0l-1,1.31a26.64,26.64,0,0,0-3.19,5.94c-1.31,3.22-2.44,6.53-3.55,9.83-2,5.86-3.94,11.78-6,17.64a61.09,61.09,0,0,1-5.28,11.55,34.22,34.22,0,0,1-5.5,7.14,19.63,19.63,0,0,1-7.92,4.92,14.75,14.75,0,0,1-6,.58V270a15.49,15.49,0,0,0,2.92-4.14,73.39,73.39,0,0,0,3.75-8.89c1.69-4.67,3.19-9.39,4.69-14.11.11-.39.25-.78.39-1.17.31-1.08.64-2.19,1-3.28a78.46,78.46,0,0,1,4.72-11.89,35.72,35.72,0,0,1,5-7.78,20.63,20.63,0,0,1,15.58-7.67.71.71,0,0,1,.42,0S303.86,211.14,303.86,211.14Z"/><path class="cls-1" d="M304.36,204l0,.06,0-.06-2-.53a23.52,23.52,0,0,0-4.42-.64c-1.86-.11-3.72-.08-5.55-.06s-3.64.11-5.47.19c-1.36.06-2.72.11-4.08.19l-6.05.31-5.69.28c-1.53.08-3,.14-4.55.19-1.22.06-2.47.06-3.69,0a52.86,52.86,0,0,1-12.53-1.61,26,26,0,0,1-8.61-3.92,16.33,16.33,0,0,1-5.5-6.61,11.31,11.31,0,0,1-.72-2.06c0-.06.06-.06.11-.06a0,0,0,0,1,0,0,11.76,11.76,0,0,0,3.5,1,39.21,39.21,0,0,0,5.11.42c1.44.06,2.89.08,4.33,0,2.14-.06,4.28-.11,6.42-.22,1.39-.08,2.81-.14,4.22-.22l5.36-.36c.42,0,.83,0,1.25,0a2.28,2.28,0,0,1,.86-.08,10.24,10.24,0,0,1,1.61-.11,1.17,1.17,0,0,1,.61-.08,13.09,13.09,0,0,1,2.08-.11,2.57,2.57,0,0,1,.92-.08,6,6,0,0,1,1.22,0,2.59,2.59,0,0,1,1-.08h4.3a.39.39,0,0,1,.31.06,4.24,4.24,0,0,1,1,0,2.37,2.37,0,0,1,.89.08,19.39,19.39,0,0,1,2.19.14c.44,0,.89.11,1.33.17a.55.55,0,0,1,.42.08,20.87,20.87,0,0,1,2.64.42.3.3,0,0,1,.22.06,20.86,20.86,0,0,1,2.61.58,23.14,23.14,0,0,1,6.58,3,1.18,1.18,0,0,0,.19.14c.06,0,.08,0,.11.08s.14.06.11.11v-.06h.25c.06,0,.08,0,.11.08a.51.51,0,0,1,.28.19c.06,0,.08,0,.11.08a.84.84,0,0,1,.39.31h0a11.76,11.76,0,0,1,1.89,1.64,19.15,19.15,0,0,1,2.69,3.44.86.86,0,0,1,.17.36.24.24,0,0,1,.14.25.19.19,0,0,1,.11.19.23.23,0,0,1,.11.19c.06,0,.08.06.08.11a.45.45,0,0,1,.11.19v.08a.28.28,0,0,0,0,.08s0,.06.06.11l0,.06,0,.06a.1.1,0,0,1,0,.08l.06.11A15.52,15.52,0,0,1,304.36,204Z"/><path class="cls-1" d="M316.94,186.47a20.57,20.57,0,0,1-6,14.11,13.87,13.87,0,0,1-1.14,1.08c-.11.11-.17.08-.17-.06,0-.42,0-.83-.06-1.25a25.87,25.87,0,0,0-1.64-7.42c-1.56-4.5-3.36-8.89-5.11-13.3-1.83-4.61-3.75-9.19-5.53-13.8a64,64,0,0,1-3.11-10.64,41.32,41.32,0,0,1-.75-6.39,26.75,26.75,0,0,1,.69-7.28,16.63,16.63,0,0,1,4.05-7.61,16.45,16.45,0,0,1,2.22-1.92.17.17,0,0,1,.19-.06,18.17,18.17,0,0,0,.89,6.67,92.37,92.37,0,0,0,3.19,9.33c1.72,4.44,3.58,8.83,5.44,13.22a2.11,2.11,0,0,1,.11.31s0,.06,0,.11a.2.2,0,0,1,.08.17c1.14,2.42,2.17,4.89,3.05,7.39a65.5,65.5,0,0,1,2.78,9.78A30.31,30.31,0,0,1,316.94,186.47Z"/><path class="cls-1" d="M344.85,262.85a58.3,58.3,0,0,1-12.22-6.42,52,52,0,0,1-9-7.75c-1.58-1.72-3-3.58-4.44-5.42-3.75-4.86-7.36-9.8-10.66-15a27.74,27.74,0,0,1-1.61-2.78c-.06-.08,0-.22-.22-.25-.14.22-.31.42-.44.67-.67,1.11-1.33,2.19-2,3.3-7.36,12.61-14.55,25.3-21.75,38q-7.54,13.33-15,26.72c-.53.94-1.08,1.86-1.53,2.83a1.94,1.94,0,0,0-.36.67,1,1,0,0,1-.28.19h0a4.18,4.18,0,0,1-.39,1,5.34,5.34,0,0,0-.5.86,2.05,2.05,0,0,0-.39.78,1.13,1.13,0,0,0,.14-.25.81.81,0,0,0-.06.25l.39-.67a4.47,4.47,0,0,0,.47-.78.89.89,0,0,0,.28-.58h0c.14,0,.17-.06.17-.08s.06,0,0-.08.08-.06.08-.11a.09.09,0,0,0,.08-.08c0-.06.08-.08.11-.14a93.49,93.49,0,0,1,9.91-12,87.89,87.89,0,0,1,10.83-9.47,67.3,67.3,0,0,1,13.33-7.75,41,41,0,0,1,7.83-2.56c4-.78,8-1.42,12.08-2,3-.42,6.05-.78,9.11-1a78,78,0,0,1,8.83-.36l2.36.08,4.08.25a2.37,2.37,0,0,0,.89.08C345,262.88,344.9,262.88,344.85,262.85Zm-.5,0a.52.52,0,0,1-.22-.06l-.36,0a40.81,40.81,0,0,0-4.11-.25c-1.58,0-3.17-.17-4.75-.06l-5.28.31c-2.17.14-4.3.36-6.44.61q-5,.58-10,1.42c-2.31.39-4.58.72-6.83,1.31a45.76,45.76,0,0,0-10,3.86A73,73,0,0,0,288,275a88.91,88.91,0,0,0-10.47,8.67,78.67,78.67,0,0,0-5.89,6.28,84.62,84.62,0,0,0-5.94,7.69l-.08.11,0,.06-.08.11a.14.14,0,0,0-.06.11s-.06.06-.39.11h0c.31,0,.31,0,.28.06l0,.06c-.11.17-.22.33-.31.47l0,0h0c-.14.22-.28.47-.44.72l0,0h0a2.07,2.07,0,0,1-.19.33l.19-.33,0,0h0a6.11,6.11,0,0,0,.42-.72l0-.06.06-.06c.11-.17.19-.33.31-.5h0a1.2,1.2,0,0,1,.14-.33h0l0-.06a.21.21,0,0,0,.06-.11l.11-.22a4.75,4.75,0,0,1,.36-.64,0,0,0,0,1,0,0l.06-.08c.78-1.47,1.61-2.92,2.42-4.36,1.86-3.39,3.75-6.75,5.64-10.11,1.78-3.17,3.58-6.33,5.36-9.5s3.72-6.61,5.61-9.91l5.08-8.94c2.14-3.78,4.3-7.55,6.44-11.3s4.22-7.36,6.36-11c1.11-1.92,2.22-3.83,3.39-5.69.25-.39.28-.36.47,0a38.27,38.27,0,0,0,2.22,3.69c3.25,5,6.78,9.8,10.44,14.5a59.39,59.39,0,0,0,6.94,7.78,57.78,57.78,0,0,0,14.91,9.8,29.33,29.33,0,0,0,3.36,1.36.92.92,0,0,0-.42-.14Z"/><path class="cls-1" d="M353.1,265.68a2.1,2.1,0,0,1-.25.5q-.08,0-.08,0a14,14,0,0,0-3-4.08,81.49,81.49,0,0,0-8.08-7.08c-4-3.11-8.05-6.08-12.11-9.08-.11-.08-.22-.11-.28-.25-1.75-1.17-3.44-2.39-5.08-3.69a74,74,0,0,1-6.67-5.86,39,39,0,0,1-6.25-7.75,22.59,22.59,0,0,1-3-9,20.62,20.62,0,0,1,.69-7.47c.08-.31.17-.58.25-.86s.14-.11.19,0a8.87,8.87,0,0,1,.72,1.06,25.37,25.37,0,0,0,4.69,5.05c2.75,2.36,5.61,4.58,8.5,6.78l14.11,10.75a66.39,66.39,0,0,1,6.5,5.67,44.4,44.4,0,0,1,6.72,8.19,24.36,24.36,0,0,1,3.11,7.19A16.44,16.44,0,0,1,353.1,265.68Z"/><path class="cls-1" d="M378.06,180.89a1.27,1.27,0,0,1-.64.14,16.16,16.16,0,0,0-3.83,1.5,70.11,70.11,0,0,0-7.39,4.64c-4.25,3-8.36,6.19-12.47,9.39-.5.39-1,.81-1.53,1.17-1.28,1.08-2.56,2.11-3.89,3.11a76,76,0,0,1-9.47,6.19,39.05,39.05,0,0,1-7.75,3.33,20.17,20.17,0,0,1-4.47.83,16.38,16.38,0,0,1-2.33.08,4.75,4.75,0,0,1-.89,0,17.62,17.62,0,0,1-4.8-.83,12.22,12.22,0,0,1-2.36-.92,20.17,20.17,0,0,1-3.14-1.69c-.06,0-.11-.08-.08-.14a.55.55,0,0,1,.39-.17,24.7,24.7,0,0,0,6.39-2.94c2.75-1.75,5.36-3.67,8-5.61,3.14-2.33,6.25-4.69,9.39-7,2.53-1.89,5-3.83,7.58-5.67a67.12,67.12,0,0,1,8.64-5.28,38.74,38.74,0,0,1,8.67-3.22,23.07,23.07,0,0,1,6.47-.61,15.83,15.83,0,0,1,9.3,3.44C377.9,180.7,378,180.75,378.06,180.89Z"/><path class="cls-1" d="M386.37,275.29a.07.07,0,0,1-.08-.08v0a.61.61,0,0,1-.28-.25,4.42,4.42,0,0,1-.81-.81,3.36,3.36,0,0,1-.44-.44l-.25-.19c-1.22-1.19-2.42-2.39-3.61-3.61a.5.5,0,0,1-.14-.19,1.28,1.28,0,0,1-.19-.19.09.09,0,0,1-.08-.08c-.94-.92-1.86-1.83-2.81-2.78-1.86-1.86-3.69-3.69-5.53-5.55-3.19-3.19-6.36-6.42-9.55-9.61L354.21,243c-2.69-2.72-5.36-5.44-8.05-8.19-1.69-1.72-3.42-3.47-5.11-5.22-2.53-2.58-5.08-5.19-7.61-7.8-2.08-2.17-4.17-4.33-6.25-6.53a9.64,9.64,0,0,1-1.11-1.28,58.36,58.36,0,0,0,7.89-2.28q8.54-2.83,16.83-6.39a50.83,50.83,0,0,0,11.69-7.11,59,59,0,0,0,9.66-9.86,1.8,1.8,0,0,1,.22-.25l.39-.56a.19.19,0,0,1,.36-.14c0,.11,0,.22-.11.25a.12.12,0,0,1-.14,0,1.06,1.06,0,0,1-.22.47c-.5,1.36-1,2.69-1.47,4.05a74.94,74.94,0,0,0-2.58,9.89c-.56,2.75-1,5.53-1.47,8.3-.33,2.22-.64,4.44-.92,6.69-.22,1.94-.44,3.92-.64,5.86a38.4,38.4,0,0,0-.14,5.36,45.75,45.75,0,0,0,.72,6.44,74,74,0,0,0,6.11,18.83A95,95,0,0,0,383,271.13l1.42,1.81c.06,0,.08.06.08.11h0a.19.19,0,0,1,.11.17c.06,0,.08.06.08.11s.08.06.08.11a2.39,2.39,0,0,1,.5.56,5.81,5.81,0,0,1,.67.78c.14.11.28.19.28.39a.14.14,0,0,1,.11.06Z"/><path class="cls-1" d="M386.45,275.24Z"/><path class="cls-1" d="M386.45,275.4a.07.07,0,0,1-.08-.08A.07.07,0,0,1,386.45,275.4Z"/><path class="cls-1" d="M386.48,275.4Z"/><path class="cls-1" d="M386.51,275.46h0v0Z"/><path class="cls-1" d="M392,149.45s-.06.06-.08.06l.17,0a.17.17,0,0,1,0-.11C392,149.43,392,149.43,392,149.45Zm-.53.33-.08.06.22-.06c0-.06,0-.08.08-.11l-.08.06A.16.16,0,0,0,391.45,149.79Zm-85-10.22Zm87.07,9a4.07,4.07,0,0,0-.78.39.1.1,0,0,0-.08,0l-.06,0-.08,0a1.42,1.42,0,0,0-.58.28s-.06,0-.06,0a.22.22,0,0,0-.19.08h0a.25.25,0,0,0-.19.08.22.22,0,0,0-.19.08.25.25,0,0,0-.22.11,1.23,1.23,0,0,0-.44.17c-2.75,1.22-5.58,2.33-8.44,3.28A89.68,89.68,0,0,1,365.32,157c-2.42.31-4.83.53-7.28.61a65.62,65.62,0,0,1-10.69-.44,41.52,41.52,0,0,1-6.89-1.42c-2.42-.72-4.72-1.67-7.05-2.61-4.86-1.92-9.64-4-14.3-6.28a80,80,0,0,1-7.75-4.19c-1.69-1.08-3.33-2.22-5-3.36a5.17,5.17,0,0,0-.78-.58.2.2,0,0,0-.25-.14.76.76,0,0,0,.22.28h0a6.73,6.73,0,0,0,.69.86l.17.28a58.74,58.74,0,0,1,7.47,13.16,50.13,50.13,0,0,1,3,10.22c.25,1.47.44,3,.64,4.47s.36,2.94.53,4.44c.14,1.33.28,2.64.39,4,.17,1.83.31,3.67.44,5.5.11,1.5.17,3,.22,4.5.06,1.17.08,2.33.06,3.5a7.54,7.54,0,0,1-.11,1.08,10.31,10.31,0,0,0,1.47-.72c3.47-1.83,6.92-3.78,10.33-5.69,9.89-5.53,19.77-11.14,29.61-16.75q13.25-7.54,26.47-15.19c.92-.53,1.83-1,2.72-1.61a8.84,8.84,0,0,0,1.11-.64,1.69,1.69,0,0,0,.67-.42.75.75,0,0,0,.47-.28,3.26,3.26,0,0,0,.75-.42c.06,0,.08,0,.11-.08s.06,0,.06,0l.67-.39a.78.78,0,0,0,.39-.28h0a.49.49,0,0,0-.39.17Zm.25,0-.06,0h0a6.63,6.63,0,0,0-.61.33h0l-.06,0,0,0-.17.08a5.88,5.88,0,0,1-.58.31l-.06,0h0l-.08.06s-.06.06-.08.06a1.13,1.13,0,0,1-.25.14l-.08.06a.21.21,0,0,1-.11.06l-.08.06a1.5,1.5,0,0,1-.36.19l-.17.08a8,8,0,0,1-1.17.67h0l-.17.11c-1.17.72-2.36,1.39-3.53,2.06q-7.71,4.46-15.41,8.86c-5.14,2.94-10.25,5.86-15.39,8.78l-13.89,7.89-8.5,4.8c-2.69,1.53-5.42,3-8.14,4.53-1.67.92-3.3,1.83-5,2.67-.36.17-.42.14-.36-.22a32.72,32.72,0,0,0-.06-5.47c-.06-1.75-.19-3.5-.33-5.28l-.33-4c-.19-2-.39-4-.67-6s-.5-4.14-.86-6.19a49,49,0,0,0-2.36-8.69,58.94,58.94,0,0,0-8.22-14.94l-.06-.08,0-.06h0l-.11-.14-.5-.58c-.06-.06,0,0,0,0h0a4.75,4.75,0,0,0,.56.5l.06.06.14.11a75.38,75.38,0,0,0,10.78,6.64q5.83,3,11.89,5.44c3.47,1.47,6.94,2.89,10.53,4.08a45.56,45.56,0,0,0,13.08,2.14,71.85,71.85,0,0,0,8.11-.14c2.19-.19,4.36-.42,6.53-.75A89.19,89.19,0,0,0,379.76,154a91.91,91.91,0,0,0,11.39-4.25l.22-.14.11-.06.14-.08.08-.06.14-.06.08,0,.17-.06.08,0,0,0h0l.47-.22.17-.08s.08,0,.11-.06h0l.06,0c.19-.11.42-.19.61-.31l0,0h0a1.7,1.7,0,0,1,.33-.14,1.2,1.2,0,0,0-.33.14Z"/><circle class="cls-1" cx="393.95" cy="148.31"/><path class="cls-1" d="M394.14,148.23l-.08.08C394.06,148.26,394.09,148.26,394.14,148.23Z"/><path class="cls-1" d="M394.14,148.34h-.08A.05.05,0,0,1,394.14,148.34Z"/><path class="cls-1" d="M264.58,299.56l-.39.67h-.11a1.72,1.72,0,0,1,.39-.78s.06,0,.06,0h0S264.56,299.54,264.58,299.56Z"/><path class="cls-1" d="M393.95,148.31Z"/><path class="cls-1" d="M394.23,148.23v.11h0C394.06,148.26,394.09,148.26,394.23,148.23Z"/><path class="cls-1" d="M345,263a2.37,2.37,0,0,1-.89-.08l-.42-.14c-.67-.22-1.36-.39-2.06-.56a78.78,78.78,0,0,0-12.44-2.42c-1.5-.17-3-.28-4.55-.33-1.08-.06-2.17-.08-3.25-.06a57.76,57.76,0,0,0-11.53,1.33,55,55,0,0,0-9.55,3.14,49,49,0,0,0-6.25,3.47,90.21,90.21,0,0,0-9.55,6.64,60.2,60.2,0,0,0-6.36,5.83,70.94,70.94,0,0,0-6.86,8.64c-1.75,2.58-3.36,5.22-4.92,7.92-.08.14-.14.39-.36.39a.17.17,0,0,1-.11,0c.47-1,1-1.89,1.53-2.83q7.46-13.37,15-26.72c7.19-12.69,14.36-25.41,21.75-38,.64-1.11,1.31-2.19,2-3.3.14-.22.31-.44.44-.67.19,0,.17.17.22.25a27.74,27.74,0,0,0,1.61,2.78c3.3,5.17,6.92,10.14,10.66,15,1.44,1.83,2.86,3.69,4.44,5.42a52,52,0,0,0,9,7.75,57.62,57.62,0,0,0,12.22,6.42C344.9,262.88,345,262.88,345,263Z"/><path class="cls-1" d="M297.08,191.45a6.78,6.78,0,0,0-.67-.28c-1.47-.58-3-1.08-4.5-1.53-2.89-.86-5.78-1.64-8.69-2.36-4-1-7.94-1.86-11.94-2.64a42.21,42.21,0,0,0-4.94-.64c-1.56-.11-3.11-.17-4.67-.14s-3.39.14-5.08.33a60,60,0,0,0-7.36,1.28,56.35,56.35,0,0,0-5.61,1.64c-.11,0-.11,0-.11-.11s.19-.19.33-.19c1.89-.94,3.8-1.75,5.67-2.72a72.88,72.88,0,0,0,13.8-9,54,54,0,0,0,10.39-11.53,48.14,48.14,0,0,0,4.28-7.89c.81-1.89,1.42-3.86,2-5.8.78-2.42,1.5-4.86,2.06-7.36a71.29,71.29,0,0,0,1.39-8,63,63,0,0,0,.36-8.86c-.06-2.25-.25-4.5-.5-6.75s-.64-4.69-1.06-7a.56.56,0,0,1,0-.47s0,0,.06,0h0a.05.05,0,0,1,.08,0l.58,2.92,1.58,8.25c.58,3,1.14,6,1.69,9,.5,2.61,1,5.22,1.47,7.83.53,2.86,1.08,5.72,1.61,8.58.39,2.11.78,4.25,1.19,6.36l1.5,8.11c.56,3.11,1.14,6.19,1.69,9.3.47,2.58.94,5.19,1.39,7.78.42,2.28.81,4.55,1.19,6.86.28,1.64.58,3.25.75,4.89A.75.75,0,0,1,297.08,191.45Z"/><path class="cls-1" d="M380.9,269.6v.08h0c0,.06-.08.06-.14.06s-.06-.08-.08-.08l-.19-.19c-.94-.92-1.86-1.83-2.81-2.78-1.86-1.86-3.69-3.69-5.53-5.55-3.19-3.19-6.36-6.42-9.55-9.61L354.21,243c-2.69-2.72-5.36-5.44-8.05-8.19-1.69-1.72-3.42-3.47-5.11-5.22-2.53-2.58-5.08-5.19-7.61-7.8-2.08-2.17-4.17-4.33-6.25-6.53a9.64,9.64,0,0,1-1.11-1.28,58.36,58.36,0,0,0,7.89-2.28c5.69-1.92,11.33-4.05,16.86-6.42a50.83,50.83,0,0,0,11.69-7.11,59.94,59.94,0,0,0,9.66-9.83,1.8,1.8,0,0,1,.22-.25.08.08,0,0,1,.11,0h0v0a.87.87,0,0,1-.31.72,81.45,81.45,0,0,0-4.36,7.75,66.55,66.55,0,0,0-5.94,17.41c-.31,1.69-.5,3.39-.67,5.08a46.56,46.56,0,0,0-.14,6.53,42.8,42.8,0,0,0,1.42,9.72c.81,2.83,1.61,5.67,2.56,8.47a64.91,64.91,0,0,0,7.55,15.39,80.18,80.18,0,0,0,6,7.69c.61.69,1.19,1.39,1.83,2A1.18,1.18,0,0,1,380.9,269.6Z"/><path class="cls-1" d="M289.55,213.25c-.06.22-.22.28-.36.42-.83.89-1.64,1.81-2.39,2.78a209.6,209.6,0,0,0-12.89,18.25,49.38,49.38,0,0,0-5.8,13.44,60.94,60.94,0,0,0-1.75,8.91c-.19,1.53-.28,3.08-.36,4.72a1.32,1.32,0,0,1-.17-.67,89.13,89.13,0,0,0-2.56-18.36,55.09,55.09,0,0,0-10.5-21,46,46,0,0,0-6.28-6.25c-2.36-2-4.78-3.89-7.28-5.67a66.09,66.09,0,0,0-7.44-4.58A65.28,65.28,0,0,0,221,200.81c-2.75-.89-5.55-1.58-8.36-2.22-.39-.08-.44-.11-.53-.28v-.06a.62.62,0,0,1,.39,0c.86.08,1.69.28,2.56.44l9.94,1.86L236,202.67l10.33,2c3.08.58,6.17,1.19,9.22,1.78s6.33,1.22,9.53,1.86c4.67.92,9.33,1.86,14,2.78,3.11.61,6.22,1.25,9.3,1.94A6.64,6.64,0,0,1,289.55,213.25Z"/><path class="cls-1" d="M389.78,150.84c-.89.58-1.81,1.08-2.72,1.61q-13.21,7.62-26.47,15.19-14.79,8.42-29.61,16.75c-3.44,1.92-6.86,3.86-10.33,5.69a10.14,10.14,0,0,1-1.47.69c0-.39.08-.72.11-1.08,0-1.17,0-2.33-.06-3.5-.08-1.5-.14-3-.22-4.5-.14-1.83-.28-3.67-.44-5.5-.11-1.33-.25-2.64-.39-4s-.33-2.94-.53-4.44-.39-3-.64-4.47a48.91,48.91,0,0,0-3-10.22,59.73,59.73,0,0,0-7.44-13.16l-.17-.28a.17.17,0,0,1,0-.11l0,0h0c.25,0,.36.19.5.33.58.56,1.11,1.19,1.69,1.78,1.14,1.19,2.36,2.28,3.58,3.42a74.52,74.52,0,0,0,6.08,5,57.37,57.37,0,0,0,16.8,8.75,49.43,49.43,0,0,0,9.86,2.08,71.2,71.2,0,0,0,8.78.14c2.11,0,4.22-.17,6.3-.36a70.31,70.31,0,0,0,8.33-1.33,67.47,67.47,0,0,0,13.5-4.67c2.47-1.14,4.89-2.39,7.28-3.72.17-.08.33-.25.56-.17T389.78,150.84Z"/><path class="cls-1" d="M304.24,203.94h0l-2-.53a23.52,23.52,0,0,0-4.42-.64c-1.86-.11-3.72-.08-5.55-.06s-3.64.11-5.47.19c-1.36.06-2.72.11-4.08.19l-6.05.28-5.69.28c-1.53.08-3,.14-4.55.19-1.22.06-2.47.06-3.69,0a52.86,52.86,0,0,1-12.53-1.61,26,26,0,0,1-8.61-3.92,16,16,0,0,1-5.47-6.61,11.31,11.31,0,0,1-.72-2.06c0-.06.06-.06.11-.06a0,0,0,0,1,0,0,11.76,11.76,0,0,0,3.5,1,39.21,39.21,0,0,0,5.11.42c1.44.06,2.89.08,4.33,0,2.14-.06,4.28-.11,6.42-.22,1.39-.08,2.81-.14,4.22-.22l5.36-.36c.42,0,.83,0,1.25,0a2.8,2.8,0,0,1,.83,0h0a5.8,5.8,0,0,0,.69,0,1.83,1.83,0,0,0,.39,0,4.5,4.5,0,0,1,.61,0,1,1,0,0,0,.28.06,4.14,4.14,0,0,1,.58.06l.22,0A72.59,72.59,0,0,1,290,196.56c3.61,1.72,7.22,3.47,10.78,5.28,1,.53,2.06,1.06,3,1.64C304,203.61,304.24,203.67,304.24,203.94Z"/><path class="cls-1" d="M378.06,180.89a1.27,1.27,0,0,1-.64.14,16.16,16.16,0,0,0-3.83,1.5,70.11,70.11,0,0,0-7.39,4.64c-4.25,3-8.36,6.19-12.47,9.39-.5.39-1,.81-1.53,1.17a64.85,64.85,0,0,1-20.33,7.55c-3.64.75-7.33,1.19-11,1.69-1.94.28-3.89.5-5.86.72-.44.06-.89.06-1.33.11a.76.76,0,0,1-.64-.14.55.55,0,0,1,.39-.17,24.7,24.7,0,0,0,6.39-2.94c2.75-1.75,5.36-3.67,8-5.61,3.14-2.33,6.25-4.69,9.39-7,2.53-1.89,5-3.83,7.58-5.67A67.12,67.12,0,0,1,353.4,181a38.74,38.74,0,0,1,8.67-3.22,23.07,23.07,0,0,1,6.47-.61,15.83,15.83,0,0,1,9.3,3.44C377.9,180.7,378,180.75,378.06,180.89Z"/><path class="cls-1" d="M312.38,181.17c-.06,1.56-.19,3.14-.39,4.69-.36,3.19-.69,6.39-1.14,9.58-.25,1.81-.47,3.58-.81,5.36-.06.31-.14.58-.22.89-.11.11-.17.08-.17-.06,0-.42,0-.83-.06-1.25A25.87,25.87,0,0,0,308,193c-1.56-4.5-3.36-8.89-5.11-13.3-1.83-4.61-3.75-9.19-5.53-13.8a64,64,0,0,1-3.11-10.64,41.32,41.32,0,0,1-.75-6.39,26.75,26.75,0,0,1,.69-7.28,16.63,16.63,0,0,1,4.05-7.61,16.45,16.45,0,0,1,2.22-1.92.17.17,0,0,1,.19-.06,18.17,18.17,0,0,0,.89,6.67,92.37,92.37,0,0,0,3.19,9.33c1.72,4.44,3.58,8.83,5.44,13.22a2.11,2.11,0,0,1,.11.31,1.2,1.2,0,0,0,0,.14h0v0h0c.17.67.42,1.33.56,2a76.82,76.82,0,0,1,1.28,9.08A56.55,56.55,0,0,1,312.38,181.17Z"/><path class="cls-1" d="M353.1,265.68a2.1,2.1,0,0,1-.25.5q-.08,0-.08,0a14,14,0,0,0-3-4.08,81.49,81.49,0,0,0-8.08-7.08c-4-3.11-8.05-6.08-12.11-9.08-.11-.08-.22-.11-.28-.25a10.27,10.27,0,0,0-.78-.78A63,63,0,0,1,323,238.3a71.72,71.72,0,0,1-5.5-8.61c-1.33-2.44-2.42-5-3.58-7.55-1.44-3.14-2.83-6.33-4.11-9.58-.14-.33-.25-.67-.36-1-.06-.17-.17-.36,0-.53a8.87,8.87,0,0,1,.72,1.06,25.37,25.37,0,0,0,4.69,5.05c2.75,2.36,5.61,4.58,8.5,6.78l14.11,10.75a70.13,70.13,0,0,1,6.53,5.67,44.4,44.4,0,0,1,6.72,8.19,24.36,24.36,0,0,1,3.11,7.19A16.74,16.74,0,0,1,353.1,265.68Z"/><path class="cls-1" d="M303.86,211.19l-1,1.31a26.64,26.64,0,0,0-3.19,5.94c-1.31,3.22-2.44,6.53-3.55,9.83-2,5.86-3.94,11.78-6,17.64a61.09,61.09,0,0,1-5.28,11.55,34.22,34.22,0,0,1-5.5,7.14,19.63,19.63,0,0,1-7.92,4.92,14.75,14.75,0,0,1-6,.58V270a15.49,15.49,0,0,0,2.92-4.14,73.39,73.39,0,0,0,3.75-8.89c1.69-4.67,3.19-9.39,4.69-14.11.11-.39.25-.78.39-1.17a34.61,34.61,0,0,1,3.17-5.92,76.93,76.93,0,0,1,5.92-8.14,68.33,68.33,0,0,1,6.22-6.47c1.08-1,2.14-2,3.22-3,1.58-1.44,3.17-2.89,4.78-4.3.92-.81,1.81-1.58,2.75-2.33C303.41,211.33,303.58,211.14,303.86,211.19Z"/><path class="cls-1" d="M392.14,149.37a3.62,3.62,0,0,1-.08.36H392v-.19a2.8,2.8,0,0,1-.42.19h-.14v.08h.11c-.22.14-.5.17-.67.42a6.37,6.37,0,0,1-1.11.64.5.5,0,0,0-.28.06l-.25.14c-2.22,1.28-4.5,2.44-6.8,3.53s-4.67,2.06-7.08,2.92a55.48,55.48,0,0,1-5.92,1.75c-1.72.42-3.44.78-5.19,1-1,.14-1.94.28-2.94.39s-2.06.22-3.08.28c-1.25.08-2.53.11-3.78.19-2.56.17-5.08,0-7.64.08q-.87,0-1.75-.17c-.56-.06-1.11-.14-1.67-.22a29.08,29.08,0,0,1-3.11-.53,52.55,52.55,0,0,1-6.8-1.89c-1.22-.44-2.42-.92-3.61-1.42s-2.22-1-3.3-1.56c-1.69-.89-3.33-1.83-4.94-2.86s-3.25-2.22-4.8-3.42c-1-.78-2-1.56-2.92-2.39-1.19-1-2.33-2.08-3.47-3.17-.72-.67-1.44-1.36-2.11-2.08l-1.58-1.67a2.5,2.5,0,0,0-.28-.25l-.08-.06a.26.26,0,0,1-.11-.17v-.08a0,0,0,0,1,0,0c0-.06.11-.06.17,0,1.64,1.14,3.28,2.28,5,3.36a74.65,74.65,0,0,0,7.75,4.22c4.69,2.33,9.47,4.39,14.33,6.3,2.33.92,4.67,1.86,7.05,2.61a41.85,41.85,0,0,0,6.92,1.42,65.49,65.49,0,0,0,10.69.44c2.44-.08,4.86-.31,7.28-.61a89.68,89.68,0,0,0,16.83-3.89,84.19,84.19,0,0,0,8.44-3.28,1.23,1.23,0,0,1,.44-.17c.06-.06.17,0,.22-.08h0c.06-.06.14,0,.19-.08s.14,0,.19-.06h0c.06-.11.14-.08.19-.14s0,0,.06,0a.17.17,0,0,1,.11,0s0,0,0,0Z"/><path class="cls-1" d="M265.92,260.65c0,.14,0,.28-.08.42-.25-.92-.47-1.86-.72-2.78a80.77,80.77,0,0,0-4.72-13.08c-2.64-5.94-5.58-11.72-8.75-17.41a41.13,41.13,0,0,0-6.17-8.19,74.47,74.47,0,0,0-18.05-13.78,92.55,92.55,0,0,0-17.89-7.67c-.81-.25-1.61-.5-2.44-.72.08-.25.31-.14.42-.11,1.5.28,3,.53,4.47.86,0,0,.06,0,.08.06l.06,0a5.74,5.74,0,0,0,1.36.33c1.44.33,2.89.69,4.3,1.08,1.75.47,3.5,1,5.22,1.61s3.44,1.25,5.11,2c.86.39,1.72.78,2.56,1.19a68.87,68.87,0,0,1,6.19,3.58c1.94,1.25,3.8,2.64,5.64,4,1.08.83,2.17,1.69,3.19,2.58s2,1.67,3,2.53,1.75,1.69,2.56,2.58c.47.53.92,1,1.36,1.56.81.94,1.56,1.94,2.28,2.94a46.26,46.26,0,0,1,2.58,4c.92,1.58,1.75,3.22,2.53,4.89.5,1.08.94,2.17,1.36,3.28.58,1.53,1.11,3.05,1.56,4.64.36,1.22.67,2.47,1,3.69s.56,2.58.78,3.89c.17.89.28,1.78.44,2.69.11.64.14,1.25.22,1.89s.19,1.58.28,2.36a10.74,10.74,0,0,1,.08,1.33,22.91,22.91,0,0,1,.11,2.39A11.29,11.29,0,0,1,265.92,260.65Z"/><path class="cls-1" d="M384.65,273.26Z"/><path class="cls-1" d="M384.76,273.62h0c-.14,0-.22-.11-.31-.19-1.17-1.14-2.28-2.31-3.42-3.47a.28.28,0,0,1-.11-.28h0c-.08,0-.08,0-.08-.06-.53-.72-1.19-1.31-1.75-2-.83-1-1.69-2-2.5-3s-1.67-2.11-2.47-3.19a56.13,56.13,0,0,1-3.39-5.11c-.92-1.53-1.75-3.08-2.53-4.69-.94-1.94-1.78-3.92-2.53-5.94-.53-1.39-1-2.81-1.47-4.22-.78-2.44-1.44-4.89-2.11-7.36a25.42,25.42,0,0,1-.64-3.22c-.14-1-.25-2-.33-3a62.73,62.73,0,0,1-.17-6.47c0-1.11.14-2.19.25-3.3q.12-1.37.33-2.75c.19-1.19.42-2.36.67-3.53a51.11,51.11,0,0,1,1.58-5.8c.56-1.61,1.14-3.22,1.81-4.8s1.47-3.36,2.31-5c1.22-2.39,2.5-4.72,3.92-7a5.3,5.3,0,0,0,.67-1.14h0c0-.08.08-.14.17-.11s0,.06,0,.11c-.5,1.36-1,2.69-1.47,4.05a74.94,74.94,0,0,0-2.58,9.89c-.56,2.75-1,5.53-1.47,8.3-.33,2.22-.64,4.44-.92,6.69-.22,1.94-.44,3.92-.64,5.86a38.4,38.4,0,0,0-.14,5.36,45.75,45.75,0,0,0,.72,6.44,74,74,0,0,0,6.11,18.83,95,95,0,0,0,10.78,17.58l1.42,1.81.08.11h0c.06.06,0,.17,0,.17h0a1.13,1.13,0,0,0,.28.08v-.08h0a.91.91,0,0,0,.08.17h0C384.87,273.57,384.81,273.6,384.76,273.62Z"/><path class="cls-1" d="M344.38,262.85h0c-.08.08-.14.06-.19.08l-4.08-.25c-.78-.06-1.56-.06-2.36-.08a72.26,72.26,0,0,0-8.83.36c-3.05.25-6.08.61-9.11,1-4.05.56-8.08,1.17-12.08,2a39.13,39.13,0,0,0-7.83,2.56,67.3,67.3,0,0,0-13.33,7.75,87.89,87.89,0,0,0-10.83,9.47,93.23,93.23,0,0,0-9.91,12c0,.06-.08.08-.11.14l-.08.08a.15.15,0,0,0-.08.11s0,.06,0,.08a.91.91,0,0,1-.17.08h0s0,0,.28-.06h0c-.33,0-.31-.06-.31-.11s.19-.56.19-.56h-.17v.14c.25,0,.22-.14.28-.19a1.94,1.94,0,0,1,.36-.67.19.19,0,0,0,.17-.11l.08-.14q2.5-4.5,5.42-8.75c1-1.42,2-2.81,3.08-4.14.94-1.17,1.89-2.28,2.89-3.39s2-2.14,3.08-3.14q1.29-1.21,2.67-2.33c1.36-1.11,2.75-2.19,4.14-3.25.33-.25.67-.5,1-.72,1.33-.92,2.67-1.81,4-2.67s2.69-1.64,4.05-2.47a29.67,29.67,0,0,1,4-2c1.53-.67,3.08-1.25,4.67-1.78a52.34,52.34,0,0,1,5.44-1.44c.92-.19,1.83-.36,2.78-.5s1.69-.28,2.56-.36l1.33-.14c.92-.11,1.86,0,2.78-.17h.33c.81,0,1.64,0,2.44,0,1,0,2,.08,3,.14s1.83.14,2.75.22,1.86.22,2.81.33,2,.31,3,.47c1.78.31,3.55.72,5.33,1.14,1.44.36,2.86.72,4.28,1.17A1.19,1.19,0,0,0,344.38,262.85Z"/><path class="cls-1" d="M283.89,129.9a23.41,23.41,0,0,1-.14,2.39c-.08.56-.11,1.14-.14,1.72-.06.83-.17,1.64-.28,2.47s-.31,1.83-.47,2.72c-.39,2.06-.86,4.08-1.39,6.11-.67,2.44-1.44,4.86-2.25,7.28a43.12,43.12,0,0,1-3,7.08,50.82,50.82,0,0,1-4.44,6.86c-.72.94-1.5,1.86-2.28,2.78q-1.62,1.87-3.42,3.58c-.72.69-1.5,1.36-2.25,2-1,.86-2.06,1.72-3.14,2.53-1.67,1.25-3.42,2.42-5.19,3.53a80.49,80.49,0,0,1-7.75,4.25c-1.14.56-2.31,1.06-3.44,1.58a1.13,1.13,0,0,1-.5.14l3-2.17a75.88,75.88,0,0,0,8.17-7.05,207.25,207.25,0,0,0,14.5-15.94,41.24,41.24,0,0,0,4.78-7.36,69,69,0,0,0,5.75-16.3,83,83,0,0,0,1.47-8.67c.31-2.64.5-5.28.61-7.92.08-2,.08-4,0-5.94s-.14-3.67-.33-5.5a6.28,6.28,0,0,1,0-.72c0-.06,0-.08,0-.14a.62.62,0,0,1,.08-.44s0,.06,0,.06l0,.14a12.59,12.59,0,0,1,.5,2.47h0c.11.67.22,1.31.31,2s.31,1.58.39,2.39.22,1.47.33,2.19c.06.36.06.72.11,1.08.11.75.14,1.5.22,2.22.14,1.17.14,2.33.22,3.47C284,126.49,284,128.21,283.89,129.9Z"/><path class="cls-1" d="M303.86,211.14s0,0,0,0a9.26,9.26,0,0,0-1.56,1.19l-2,1.67-.92.83c-.89.78-1.75,1.61-2.61,2.39l-2.94,2.67-.08.06c-1.81,1.69-3.58,3.44-5.3,5.22-.58.61-1.14,1.28-1.69,1.94-1,1.14-1.92,2.31-2.81,3.5-1.47,1.94-2.83,4-4.11,6.05-.75,1.25-1.5,2.5-2.14,3.8a5.93,5.93,0,0,1-.56,1.11c.31-1.08.64-2.19,1-3.28a78.46,78.46,0,0,1,4.72-11.89,35.72,35.72,0,0,1,5-7.78A20.63,20.63,0,0,1,303.41,211a.71.71,0,0,1,.42,0C303.88,211.11,303.88,211.14,303.86,211.14Z"/><path class="cls-1" d="M329.27,245.71c-1.75-1.17-3.44-2.39-5.08-3.69a74,74,0,0,1-6.67-5.86,39,39,0,0,1-6.25-7.75,22.59,22.59,0,0,1-3-9,20.62,20.62,0,0,1,.69-7.47c.08-.31.17-.58.25-.86s.14-.11.19,0a3.42,3.42,0,0,0,.44,1.36c.78,1.94,1.58,3.86,2.42,5.8.58,1.33,1.19,2.64,1.78,4,1,2.19,1.94,4.39,3,6.53.83,1.61,1.75,3.19,2.72,4.72.58.94,1.19,1.86,1.81,2.75.94,1.42,2,2.78,3.05,4.11.64.81,1.31,1.56,1.94,2.36.81,1,1.72,1.89,2.61,2.81C329.24,245.55,329.38,245.57,329.27,245.71Z"/><path class="cls-1" d="M316.94,186.47a20.57,20.57,0,0,1-6,14.11,13.87,13.87,0,0,1-1.14,1.08.31.31,0,0,1-.06-.31,27.81,27.81,0,0,0,.56-3.33c.11-.78.25-1.53.36-2.31.08-.61.14-1.22.22-1.83s.19-1.25.25-1.89.17-1.39.22-2.08c0-.31.08-.64.11-.94.11-.89.22-1.78.28-2.67.06-.72.17-1.42.25-2.14V184a17.91,17.91,0,0,1,.11-2.11c.14-2,.08-3.92.06-5.89,0-1.06-.11-2.14-.19-3.19-.08-1.22-.22-2.47-.39-3.69a60.36,60.36,0,0,0-1.22-6.69,3.36,3.36,0,0,1-.14-.5.34.34,0,0,1,0-.36s0,.06,0,.11.06.11.08.17c1.14,2.42,2.17,4.89,3.05,7.39a65.5,65.5,0,0,1,2.78,9.78A29.62,29.62,0,0,1,316.94,186.47Z"/><path class="cls-1" d="M352.21,197.89c-1.28,1.08-2.56,2.11-3.89,3.11a76,76,0,0,1-9.47,6.19,39.53,39.53,0,0,1-7.72,3.33,20.17,20.17,0,0,1-4.47.83,16.38,16.38,0,0,1-2.33.08c-.28-.14-.56,0-.86-.06h0a17.23,17.23,0,0,1-4.75-.83c-.81-.25-1.61-.53-2.39-.83a20.17,20.17,0,0,1-3.14-1.69c-.06,0-.11-.08-.08-.14a13.16,13.16,0,0,0,2.08-.17l2-.22c.67-.08,1.36-.17,2-.28l2.42-.31c.78-.11,1.56-.19,2.31-.31,1-.14,2-.31,3-.44,2.14-.33,4.28-.64,6.39-1.11a67.26,67.26,0,0,0,8.08-2.33c2.19-.78,4.33-1.61,6.44-2.58a34.73,34.73,0,0,0,4.14-2.19A.34.34,0,0,1,352.21,197.89Z"/><path class="cls-1" d="M302.86,200.81Z"/><path class="cls-1" d="M304.36,204l0,0,0,0h0v.17h.19c-.14-.28-.44-.31-.67-.47-.44-.28-.92-.5-1.36-.75-2.33-1.25-4.72-2.42-7.11-3.58-1.58-.78-3.17-1.56-4.78-2.28s-3.28-1.53-5-2.19-3.22-1.17-4.86-1.67-3.25-.94-4.89-1.33-3.17-.72-4.78-1a16.48,16.48,0,0,0-2-.28l-.08-.08-.69,0c-.06-.06-.14,0-.19-.08l-.69,0c-.08-.08-.19,0-.28-.08h-.78a0,0,0,0,1,0,0v0a0,0,0,0,1,0,0,10.47,10.47,0,0,1,1.61-.11c.19-.08.42,0,.61-.08a13.09,13.09,0,0,1,2.08-.11c.31-.08.61,0,.92-.08a6,6,0,0,1,1.22,0c1.33-.08,2.67,0,4,0a11.5,11.5,0,0,1,1.69,0,4.24,4.24,0,0,1,1,0c.31.11.61,0,.92.08a19.88,19.88,0,0,1,2.22.14c.44,0,.89.11,1.33.17.14.08.28,0,.42.08a21.3,21.3,0,0,1,2.67.42.86.86,0,0,0,.22.06,17.3,17.3,0,0,1,2.64.61,23.77,23.77,0,0,1,6.67,3.05.84.84,0,0,0,.19.14s0,.06.06.08a.1.1,0,0,0,.06,0h-.11v-.28h0a1.57,1.57,0,0,1,.11.33v-.06H297c0,.08.06.14.11.14h0a1,1,0,0,0,.28.19h0a.38.38,0,0,0,.11.08v.14h0a.9.9,0,0,0,.36.28h0a23.75,23.75,0,0,1,3.5,3.58c.42.56.81,1.14,1.22,1.69h0a2.44,2.44,0,0,0,.17.28h.08c0,.06,0,.14.11.19h0c0,.06,0,.14.08.08h0v.11h0a.38.38,0,0,0,.08.11c.06.06,0,.14.11.19s.06.06.06.08,0,.06.06.11l0,.06,0,.06a.1.1,0,0,1,0,.08l.06.11A5.42,5.42,0,0,1,304.36,204Z"/><path class="cls-1" d="M302.86,200.81h-.08a2.56,2.56,0,0,1-.64-.81,26.11,26.11,0,0,0-3.5-3.92c-.22-.22-.56-.33-.78-.67h.28a10.49,10.49,0,0,1,1.86,1.64,17.85,17.85,0,0,1,2.67,3.44A.53.53,0,0,1,302.86,200.81Z"/><path class="cls-1" d="M323.44,211.25h0a.1.1,0,0,1,0,.06,16.59,16.59,0,0,1-4.8-.81,12.22,12.22,0,0,1-2.36-.92,1.64,1.64,0,0,1,.69.19,24.74,24.74,0,0,0,4.42,1.19,12.64,12.64,0,0,0,2,.25C323.44,211.22,323.44,211.22,323.44,211.25Z"/><path class="cls-1" d="M212.51,198.19h-.42a11.13,11.13,0,0,1-1.72-.31c-.94-.14-1.86-.36-2.81-.53-.14,0-.33-.08-.44.08-.53-.08-1-.28-1.53-.39,0-.08,0-.14.08-.08,1,.17,2,.33,3.05.53s2.33.42,3.53.64A.28.28,0,0,1,212.51,198.19Z"/><path class="cls-1" d="M384.73,273.71l-.25-.19c-1.22-1.19-2.42-2.39-3.61-3.61a.5.5,0,0,1-.14-.19l.11-.11,0,0c.53.5,1,1,1.5,1.53.78.83,1.56,1.64,2.39,2.39l0,0A.21.21,0,0,1,384.73,273.71Z"/><path class="cls-1" d="M282.3,111.38h0c-.17-.81-.33-1.64-.5-2.47,0-.06,0-.11,0-.17h0a1.8,1.8,0,0,0-.06.53c0-.06,0-.08,0-.14a15.05,15.05,0,0,1-.17-1.61h0c0-.08-.08-.19.11-.19l.75,3.75a.94.94,0,0,1,0,.28Z"/><path class="cls-1" d="M278.67,190H273a2.59,2.59,0,0,1,1-.08h4.3A.74.74,0,0,1,278.67,190Z"/><path class="cls-1" d="M306.47,139.57h0c-.06,0-.06,0-.06,0v.11c-.28-.25-.47-.56-.78-.86v0h.08c0-.08,0-.14,0-.17a5.17,5.17,0,0,1,.78.58.17.17,0,0,0-.11,0C306.33,139.37,306.41,139.48,306.47,139.57Z"/><path class="cls-1" d="M265.5,297.76h0l-.08.17-.08.19h0l.08.06a1.65,1.65,0,0,1-.39.58h-.11c-.06,0,0-.08,0-.17a4.18,4.18,0,0,0,.39-1v-.14h0v.11C265.56,297.65,265.53,297.7,265.5,297.76Z"/><path class="cls-1" d="M392.95,149s0,0-.06,0a.38.38,0,0,0-.11.08,3.26,3.26,0,0,1-.75.42h0a.17.17,0,0,1,0-.11v-.06a.06.06,0,0,0-.06-.06,1.42,1.42,0,0,1,.58-.28l.08,0,.06,0a.1.1,0,0,1,.08,0c.06,0,.14-.06.17,0v0C392.92,149,392.92,149,392.95,149Z"/><path class="cls-1" d="M265.06,298.76a7.24,7.24,0,0,1-.47.78.1.1,0,0,1-.06,0h0s0,0,0-.06a5.34,5.34,0,0,1,.5-.86.17.17,0,0,0,0,.11v0A0,0,0,0,0,265.06,298.76Z"/><path class="cls-1" d="M385.37,274c0,.11,0,.19-.14.11a3.36,3.36,0,0,1-.44-.44v-.14l.11-.11h0A3.33,3.33,0,0,1,385.37,274Z"/><path class="cls-1" d="M386,275a4.42,4.42,0,0,1-.81-.81.28.28,0,0,0,.14-.11,5.81,5.81,0,0,1,.67.78c.06,0,.06.08,0,.14Z"/><path class="cls-1" d="M393.67,148.54h0v.08L393,149s0-.06-.06-.06h0l-.11,0a4.07,4.07,0,0,1,.78-.39C393.62,148.48,393.67,148.51,393.67,148.54Z"/><path class="cls-1" d="M372.84,187.56a1.06,1.06,0,0,1-.22.47c-.06-.11-.11,0-.17,0h-.11l.39-.56C372.81,187.45,372.87,187.47,372.84,187.56Z"/><path class="cls-1" d="M281.67,107.41a.21.21,0,0,0-.08.19h0c-.14-.22-.08-.44-.08-.78A1.8,1.8,0,0,1,281.67,107.41Z"/><path class="cls-1" d="M391.45,149.79h0a2.7,2.7,0,0,1-.67.42.58.58,0,0,1,.11-.17.76.76,0,0,1,.36-.19A1.77,1.77,0,0,1,391.45,149.79Z"/><path class="cls-1" d="M280.58,189.95c-.31,0-.61.08-.89-.08A2.48,2.48,0,0,1,280.58,189.95Z"/><path class="cls-1" d="M324.3,211.3a4.75,4.75,0,0,1-.89,0v-.08C323.71,211.22,324,211.11,324.3,211.3Z"/><path class="cls-1" d="M271.78,189.86c-.28.17-.61.06-.92.08A2.57,2.57,0,0,1,271.78,189.86Z"/><path class="cls-1" d="M266.47,190.25v.08h-.86A2.17,2.17,0,0,1,266.47,190.25Z"/><path class="cls-1" d="M394.06,148.34h0a.78.78,0,0,1-.39.28l-.06,0h0l-.06,0A.54.54,0,0,1,394.06,148.34Z"/><path class="cls-1" d="M394.06,148.31Z"/><path class="cls-1" d="M392.06,149.43l-.06.08h0a.69.69,0,0,1-.44.28h-.11a.45.45,0,0,0,.19-.11.37.37,0,0,1,.25-.14.58.58,0,0,0,.17-.11Z"/><path class="cls-1" d="M205.68,196.94l-.11.11a1.33,1.33,0,0,1-.47-.14A.71.71,0,0,1,205.68,196.94Z"/><path class="cls-1" d="M243.64,187.17c-.11.14-.28.08-.44.22a.45.45,0,0,1,.36-.31Z"/><path class="cls-1" d="M386.28,275.21h0A.61.61,0,0,1,386,275v-.14A.6.6,0,0,1,386.28,275.21Z"/><path class="cls-1" d="M372.84,187.67l-.11-.11a.19.19,0,0,1,.36-.14c0,.11,0,.22-.11.25Z"/><path class="cls-1" d="M297.86,195.42v.11H298a.64.64,0,0,1-.39-.42h0C297.75,195.17,297.86,195.25,297.86,195.42Z"/><path class="cls-1" d="M268.81,190.06c-.19.17-.42.06-.61.08A1.17,1.17,0,0,1,268.81,190.06Z"/><path class="cls-1" d="M305.72,138.76c0,.06,0,.08,0,.11h0a.44.44,0,0,1-.22-.28A.24.24,0,0,1,305.72,138.76Z"/><path class="cls-1" d="M284.53,190.33c-.14,0-.31.06-.42-.08A.57.57,0,0,1,284.53,190.33Z"/><path class="cls-1" d="M297.47,195h0a.23.23,0,0,1-.28-.19h0a.51.51,0,0,1,.28.19Z"/><path class="cls-1" d="M302.86,201.11h0a.26.26,0,0,1-.19-.31h0A.46.46,0,0,1,302.86,201.11Z"/><path class="cls-1" d="M391.64,149.48a.14.14,0,0,1-.19.08h0A.22.22,0,0,1,391.64,149.48Z"/><path class="cls-1" d="M391.37,149.7h0a.17.17,0,0,1-.22.08.32.32,0,0,1,.22-.08Z"/><path class="cls-1" d="M391.76,149.4a.17.17,0,0,1-.19.08A.22.22,0,0,1,391.76,149.4Z"/><path class="cls-1" d="M297,194.75v-.33h.06c-.08.33-.17.31-.17.22h0v.06h0C297,194.64,297.05,194.7,297,194.75Z"/><path class="cls-1" d="M287.41,190.81a.22.22,0,0,1-.22-.06A.24.24,0,0,1,287.41,190.81Z"/><path class="cls-1" d="M303.13,201.28h0c-.17,0-.19-.11,0-.19h-.19a.28.28,0,0,1,.11.19h.08Z"/><path class="cls-1" d="M303.41,201.78h0a.23.23,0,0,1-.11-.19A.21.21,0,0,1,303.41,201.78Z"/><path class="cls-1" d="M302.86,201.47h.28c-.08,0-.11-.11,0-.19H303C303.13,201.33,303.13,201.39,302.86,201.47Z"/><path class="cls-1" d="M384.78,273.26h0a.15.15,0,0,1-.11-.17.23.23,0,0,1,.11.17Z"/><path class="cls-1" d="M265.64,297.45h0a.19.19,0,0,1,.11-.19C265.75,297.34,265.75,297.43,265.64,297.45Z"/><path class="cls-1" d="M391.95,149.31a.17.17,0,0,1-.19.08A.14.14,0,0,1,391.95,149.31Z"/><path class="cls-1" d="M310.44,161.78s-.06-.06-.06-.08h0v0h0v-.06A.39.39,0,0,1,310.44,161.78Z"/><path class="cls-1" d="M303.22,201.58c-.06,0-.08-.06-.08-.11h0C303.19,201.5,303.22,201.53,303.22,201.58Z"/><path class="cls-1" d="M304.36,203.86l0,.06,0-.06h.06Z"/><path class="cls-1" d="M297,194.7v-.28h-.11c0,.22,0,.22-.06.19s-.06,0-.06-.08.08,0,.11.08v.06Z"/><path class="cls-1" d="M380.51,269.54a.09.09,0,0,1-.08-.08Z"/><path class="cls-1" d="M380.59,269.63a.09.09,0,0,1-.08-.08Z"/><path class="cls-1" d="M380.7,269.74a.09.09,0,0,1-.08-.08Z"/><rect class="cls-1" x="297.02" y="194.7" width="0.28" height="0.28"/><path class="cls-1" d="M297.19,194.81h0c-.06,0-.08,0-.11-.08h0c.06,0,.08,0,.11.08Z"/><path class="cls-1" d="M384.53,273.1l-.08-.11S384.53,273,384.53,273.1Z"/><path class="cls-1" d="M392.7,148.93a.11.11,0,0,1-.11.06l.08,0Z"/><path class="cls-1" d="M384.78,273.49h.06c-.06,0-.08-.06.22-.11h-.31A.06.06,0,0,1,384.78,273.49Z"/><path class="cls-1" d="M392.92,149c0,.06-.06.08-.11.08S392.87,149,392.92,149Z"/><path class="cls-1" d="M297.58,195.25h0c-.06,0-.08,0-.11-.08h0c.06,0,.08,0,.11.08Z"/><path class="cls-1" d="M386.37,275.29a.07.07,0,0,1-.08-.08v0h0s.08.06.08.11Z"/><path class="cls-1" d="M386.45,275.24Z"/><path class="cls-1" d="M386.37,275.32Z"/><path class="cls-1" d="M386.45,275.4a.07.07,0,0,1-.08-.08A.07.07,0,0,1,386.45,275.4Z"/><path class="cls-1" d="M386.45,275.4Z"/><path class="cls-1" d="M384.87,273.29h0c-.06,0-.08-.06-.08-.11h0a.15.15,0,0,1,.08.11Z"/><path class="cls-1" d="M265.72,297.79a.07.07,0,0,1-.08.08S265.67,297.81,265.72,297.79Z"/><path class="cls-1" d="M265.64,297.9c0,.06,0,.11-.08.11S265.58,297.93,265.64,297.9Z"/><path class="cls-1" d="M265.53,298.09a.07.07,0,0,1-.08.08A.09.09,0,0,1,265.53,298.09Z"/><path class="cls-1" d="M386.48,275.4Z"/><path class="cls-1" d="M386.51,275.46h0v0Z"/><path class="cls-1" d="M267.39,190.33c.11,0,.22,0,.28.08C267.56,190.42,267.45,190.45,267.39,190.33Z"/><path class="cls-1" d="M268.33,190.45a.17.17,0,0,1,.17.08A.2.2,0,0,1,268.33,190.45Z"/><path class="cls-1" d="M269.2,190.53l.08.08Z"/><g class="cls-2"><path class="cls-1" d="M195.71,319.51V337.2h6.67V343h-20V337.2H189V319.51h-6.67v-5.83h20v5.83Z"/></g><g class="cls-2"><path class="cls-1" d="M214.37,329.17V327.5l-9.91-13.83h7.67L220,324.92,228,313.67h7.67L225.7,327.5v1.67L235.65,343H228L220,331.75,212.12,343h-7.67Z"/><path class="cls-1" d="M250.64,313.67h20.94v5.83H257.31v5.92H269.5v5.83H257.31v5.94h14.28V343H250.64V313.67Z"/><path class="cls-1" d="M300.38,319.51H290.8V343h-6.67V319.51h-9.61v-5.83h25.86Z"/></g><g class="cls-2"><path class="cls-1" d="M303.33,313.67H310v15.5c0,5.25.44,8.44,6.58,8.44s6.61-3.19,6.61-8.44v-15.5h6.67v18.44c0,7.33-4.58,11.33-13.28,11.33s-13.25-4-13.25-11.3Z"/></g><g class="cls-2"><path class="cls-1" d="M361.68,313.67V343H355V331.67H340.27V343H333.6V313.67h6.67v12.16H355V313.67Z"/><path class="cls-1" d="M391.84,328.34c0,12.66-8.17,14.69-16,14.69H365V313.67h10.83C383.67,313.67,391.84,315.73,391.84,328.34Zm-6.67,0c0-8.42-4.11-8.83-9.33-8.83h-4.17V337.2h4.17C381,337.22,385.17,336.81,385.17,328.34Z"/></g><g class="cls-2"><path class="cls-1" d="M396.42,313.67h20.94v5.83H403.09v5.92h12.19v5.83H403.09v5.94h14.28V343H396.42Z"/></g></svg>