<svg id="Camada_1" data-name="Camada 1" xmlns="http://www.w3.org/2000/svg" viewBox="0 0 599.7 450.2"><defs><style>.cls-1{fill:#fff;}</style></defs><title>19-BIELMENDEZ</title><rect width="599.7" height="450.2"/><path class="cls-1" d="M217,148.51a47.68,47.68,0,0,0,4.06-18.25c0-14-9.54-23-24.08-23-15.94,0-33.1,9.91-45.33,19.65l9-18.59H111.82l-1.08,124h72.14V232l.12.25c28-13.11,47.47-37.9,47.47-60C230.47,161.62,225.33,153.11,217,148.51Zm-49.07,43.56c-15.4,8.34-28.16,8.51-28.16.54,0-18.59,34.36-42.5,61.09-42.5a37.18,37.18,0,0,1,9.22,1.23C203.19,165.16,189.74,180.21,167.95,192.07Z"/><path class="cls-1" d="M287,232.28H225.38l17.9-82.71a32.05,32.05,0,0,0,6,.2c.34,0,.69,0,1,0a8.41,8.41,0,0,0,1.13-.1c.61,0,1.21-.12,1.8-.22a.35.35,0,0,0,.22,0c.54-.07,1.06-.17,1.6-.27s.84-.15,1.25-.25.86-.2,1.28-.32c.74-.17,1.45-.37,2.16-.59s1.6-.52,2.36-.79l.39-.15a41.85,41.85,0,0,0,4.89-2.21l1.21,5.34Z"/><path class="cls-1" d="M281.92,121c0,12.57-17,25.26-33.2,25.26-10.92,0-18.4-5.68-18.4-14.19,0-12.57,17-25.28,33.2-25.28C274.44,106.8,281.92,112.48,281.92,121Z"/><path class="cls-1" d="M389.72,175l6.74,37.7c-16.82,9.57-43.21,20-66.41,20-16.45,0-29.39-4.87-36.62-13.21a26.07,26.07,0,0,1-3.74-5.58A26.57,26.57,0,0,1,287,202.08c0-11,5.66-21.59,14.71-30.1a31.14,31.14,0,0,1-7.87-9.15,26.18,26.18,0,0,1-2.83-7.11,27.84,27.84,0,0,1-.81-6.76,28.33,28.33,0,0,1,1.53-9.22,27.63,27.63,0,0,1,3.34-6.71c12-18.13,44.17-26.22,69.68-26.22,13.65,0,25.85,1.77,31.7,3.2l-6.37,39.84L329.9,137.13l-1.33,19.33A80.49,80.49,0,0,1,354,152.32c12.4,0,20.71,4.25,20.71,11.34,0,9.91-16.11,17.71-37.7,18.77a65.14,65.14,0,0,1-10.13-.47l-1.55,22.87Z"/><polygon class="cls-1" points="488.96 231.67 404.82 231.67 404.82 107.86 467.71 107.86 437.58 199.08 482.05 170.75 488.96 231.67"/><path class="cls-1" d="M189.13,284.69a76.19,76.19,0,0,1-5.26,27.69H158L173.66,271l-15.25,0a45.26,45.26,0,0,1,2.07,13.6c0,10-4.38,17.59-10.53,17.59s-10.53-7.58-10.53-17.59a45.29,45.29,0,0,1,2-13.63H126.21l15.69,41.39H116a76.71,76.71,0,0,1-5.26-27.69c0-11.39,2.66-20.73,7.35-27a24.22,24.22,0,0,1,2.68-3,19.54,19.54,0,0,1,13.72-5.41c5.8,0,11.17,2.58,15.45,7.06a24.47,24.47,0,0,1,3-2.73,24,24,0,0,1,2.88-1.87,19.75,19.75,0,0,1,5.21-2,18.94,18.94,0,0,1,2.88-.44,13.8,13.8,0,0,1,1.43,0,19.41,19.41,0,0,1,12.44,4.3,20.19,20.19,0,0,1,2.68,2.56C186,262.36,189.13,272.32,189.13,284.69Z"/><path class="cls-1" d="M244,283.51l3.39,19c-8.49,4.82-21.79,10.08-33.47,10.08-8.29,0-14.83-2.46-18.47-6.67a13.09,13.09,0,0,1-3.22-8.78c0-5.53,2.85-10.9,7.4-15.17a15.68,15.68,0,0,1-4-4.62,13.2,13.2,0,0,1-1.43-3.57,14.39,14.39,0,0,1,.34-8.07,14.6,14.6,0,0,1,1.7-3.39c6.07-9.12,22.26-13.21,35.12-13.21a75.84,75.84,0,0,1,16,1.6l-3.2,20.09-30.35-6.39-.66,9.74A40.06,40.06,0,0,1,226,272.08c6.25,0,10.43,2.14,10.43,5.71,0,5-8.12,8.93-19,9.47a34.71,34.71,0,0,1-5.12-.22l-.79,11.51Z"/><path class="cls-1" d="M429.49,283.51l3.39,19c-8.49,4.82-21.79,10.08-33.47,10.08-8.29,0-14.83-2.46-18.47-6.67a12.38,12.38,0,0,1-1.87-2.8,13.34,13.34,0,0,1-1.35-6c0-5.53,2.85-10.9,7.4-15.17a15.68,15.68,0,0,1-4-4.62,13.19,13.19,0,0,1-1.43-3.57,14.39,14.39,0,0,1,.34-8.07,14.61,14.61,0,0,1,1.7-3.39c6.05-9.12,22.26-13.21,35.12-13.21a75.84,75.84,0,0,1,16,1.6l-3.22,20.09-30.33-6.39-.66,9.74a40.06,40.06,0,0,1,12.79-2.09c6.25,0,10.43,2.14,10.43,5.71,0,5-8.12,8.93-19,9.47a34.71,34.71,0,0,1-5.12-.22L397,298.54Z"/><polygon class="cls-1" points="436.2 294.63 461.29 264.89 439.77 276.31 435.98 249.62 488.69 249.62 488.69 264.97 461.81 295.79 484.75 283.73 488.96 312.12 436.2 312.12 436.2 294.63"/><path class="cls-1" d="M260.92,285.11l-.07,0,.12.22Z"/><path class="cls-1" d="M260.92,285.11l-.07,0,.12.22Zm0,0-.07,0,.12.22Z"/><path class="cls-1" d="M298.69,290.87c8-8.93,12.4-17.76,12.4-25.43,0-9.74-7-16.26-17.22-16.26-6.44,0-13.48,2.78-20,7.77l3.76-7.23H250.49v62.49h19.28l-5.85-25.9,26.51-17-16.68,42.87h33.77l-1.94-24.47Zm-37.85-5.71.07,0,0,.27Z"/><path class="cls-1" d="M337.6,279.38l-.27.07a.52.52,0,0,1,.29.07Zm-9.89-9a21.74,21.74,0,0,0,6.52-1.94A56.47,56.47,0,0,0,327.72,270.35Zm9.89,9-.27.07a.52.52,0,0,1,.29.07Zm-2.26-27.64a21.5,21.5,0,0,0-7.5,1.43c1.21-.27,2.39-.52,3.57-.74,1.6-.27,3.17-.52,4.72-.66Zm-7.62,18.62a21.74,21.74,0,0,0,6.52-1.94A56.47,56.47,0,0,0,327.72,270.35Zm9.89,9-.27.07a.52.52,0,0,1,.29.07Zm-2.26-27.64a21.5,21.5,0,0,0-7.5,1.43c1.21-.27,2.39-.52,3.57-.74,1.6-.27,3.17-.52,4.72-.66Zm-7.62,18.62a21.74,21.74,0,0,0,6.52-1.94A56.47,56.47,0,0,0,327.72,270.35Zm7.62-18.62a21.5,21.5,0,0,0-7.5,1.43c1.21-.27,2.39-.52,3.57-.74,1.6-.27,3.17-.52,4.72-.66Zm-7.62,18.62a21.74,21.74,0,0,0,6.52-1.94A56.47,56.47,0,0,0,327.72,270.35Zm7.62-18.62a21.5,21.5,0,0,0-7.5,1.43c1.21-.27,2.39-.52,3.57-.74,1.6-.27,3.17-.52,4.72-.66Zm-7.62,18.62a21.74,21.74,0,0,0,6.52-1.94A56.47,56.47,0,0,0,327.72,270.35Zm0,0a21.74,21.74,0,0,0,6.52-1.94A56.47,56.47,0,0,0,327.72,270.35Zm7.62-18.62a21.5,21.5,0,0,0-7.5,1.43c1.21-.27,2.39-.52,3.57-.74,1.6-.27,3.17-.52,4.72-.66Zm-7.62,18.62a21.74,21.74,0,0,0,6.52-1.94A56.47,56.47,0,0,0,327.72,270.35Zm7.62-18.62a21.5,21.5,0,0,0-7.5,1.43c1.21-.27,2.39-.52,3.57-.74,1.6-.27,3.17-.52,4.72-.66Zm-7.62,18.62a21.74,21.74,0,0,0,6.52-1.94A56.47,56.47,0,0,0,327.72,270.35Zm7.62-18.62a21.5,21.5,0,0,0-7.5,1.43c1.21-.27,2.39-.52,3.57-.74,1.6-.27,3.17-.52,4.72-.66Zm2.26,27.64-.27.07a.52.52,0,0,1,.29.07Zm-9.89-9a21.74,21.74,0,0,0,6.52-1.94A56.47,56.47,0,0,0,327.72,270.35Zm9.89,9-.27.07a.52.52,0,0,1,.29.07Zm-9.89-9a21.74,21.74,0,0,0,6.52-1.94A56.47,56.47,0,0,0,327.72,270.35Zm9.89,9-.27.07a.52.52,0,0,1,.29.07Zm0,0-.27.07a.52.52,0,0,1,.29.07Zm-2.26-27.64a21.5,21.5,0,0,0-7.5,1.43c1.21-.27,2.39-.52,3.57-.74,1.6-.27,3.17-.52,4.72-.66Zm-18.25,45.6s0,0,0,0v-.17Zm10.62-27a21.74,21.74,0,0,0,6.52-1.94A56.47,56.47,0,0,0,327.72,270.35Z"/><path class="cls-1" d="M336.13,251.76l-.79,0a21.5,21.5,0,0,0-7.5,1.43c1.21-.27,2.39-.52,3.57-.74C333,252.15,334.58,251.91,336.13,251.76Zm-1.89,16.65a56.47,56.47,0,0,0-6.52,1.94A21.74,21.74,0,0,0,334.23,268.41Zm1.89-16.65-.79,0a21.5,21.5,0,0,0-7.5,1.43c1.21-.27,2.39-.52,3.57-.74C333,252.15,334.58,251.91,336.13,251.76Zm-1.89,16.65a56.47,56.47,0,0,0-6.52,1.94A21.74,21.74,0,0,0,334.23,268.41Z"/><path class="cls-1" d="M341.32,248.81a47.74,47.74,0,0,0-5.24.3,60.28,60.28,0,0,0-9,1.5c-1.6.37-3.2.79-4.82,1.28-2.56.76-5.16,1.67-7.8,2.73V281.5a29.63,29.63,0,0,1,7.26-5.46,1.36,1.36,0,0,1,.2-.12c.79-.44,1.6-.84,2.43-1.23.12,0,.22-.12.34-.17,1.28-.59,2.58-1.13,3.94-1.62a52.58,52.58,0,0,1,5.71-1.75A7,7,0,0,1,335,271a45.12,45.12,0,0,1,5.21-.86,30.56,30.56,0,0,1,3.59-.22c7,0,11.54,3.12,11.54,7.77a5.18,5.18,0,0,1,0,1.16c0,.25-.07.49-.12.74,0,0,0,0,0,0a3.3,3.3,0,0,1-.17.66,1.24,1.24,0,0,0-.12.32c-.07.22-.15.39-.22.57a1.73,1.73,0,0,0-.1.25c0,.07-.07.17-.12.25a15.83,15.83,0,0,1-2.78,4.08,25.32,25.32,0,0,1-9.1,6.1c-.64.27-1.3.49-2,.71l-.44-1.92L338.19,282l-.57-2.48a.52.52,0,0,0-.29-.07l.27-.07-.61-2.71-1.82-.2c-.29,0-.57,0-.86,0a22.19,22.19,0,0,0-10.63,2.88,22.63,22.63,0,0,0-3.12,2l-1,4.62-.64,3-.57,2.71-.54,2.43-.66,3.12v.17s0,0,0,0l-2.63,12.25-.54,2.51h2.78l.69.07h0c2.14.22,5,.39,8.12.39,1.89,0,3.74-.07,5.58-.2.93-.07,1.84-.17,2.75-.27A65.3,65.3,0,0,0,344.51,310c9.08-2.61,16.7-7.08,22-12.86a34.45,34.45,0,0,0,4.48-6,29,29,0,0,0,3.89-14.49C374.89,260.42,361.07,248.81,341.32,248.81Zm-6,2.93.79,0c-1.55.15-3.12.39-4.72.66-1.18.22-2.36.47-3.57.74A21.5,21.5,0,0,1,335.34,251.74Zm-7.62,18.62a56.47,56.47,0,0,1,6.52-1.94A21.74,21.74,0,0,1,327.72,270.35Z"/><path class="cls-1" d="M258.31,337.75c0,3.12-1.82,5.39-6,5.39H235.38V324.64h16.27c4.2,0,5.5,2.14,5.5,4.86a5.41,5.41,0,0,1-1.45,3.59A5.22,5.22,0,0,1,258.31,337.75Zm-18.18-5.84H250c1.27,0,2.43,0,2.43-1.93s-1.16-1.9-2.46-1.9h-9.8Zm13.42,5.6c0-2-1.16-2-2.43-2h-11v3.91h11C252.39,339.46,253.55,339.46,253.55,337.51Z"/><path class="cls-1" d="M280.71,335.29v7.85h-4.54v-1.93a20.9,20.9,0,0,1-9.46,2.19c-4.36,0-7.08-1.4-7.08-4.91,0-4,4.44-5.31,9.38-5.31a22.63,22.63,0,0,1,7.16,1.11c0-3-3.8-3.2-5.92-3.2a26,26,0,0,0-7.71,1.14l-1.61-3.3a30.49,30.49,0,0,1,9.54-1.61C277,327.31,280.65,329.4,280.71,335.29Zm-4.54,1.8a21.51,21.51,0,0,0-6.6-1c-3.38,0-5.42.58-5.42,2.17s1.51,1.77,3.86,1.77a23.24,23.24,0,0,0,8.16-1.77Z"/><path class="cls-1" d="M299.4,327.84v3.78a15.65,15.65,0,0,0-4-.53,12.94,12.94,0,0,0-8.19,2.72v9.33h-4.52V327.57h4.52v2.64a11.53,11.53,0,0,1,8-2.91A16.32,16.32,0,0,1,299.4,327.84Z"/><path class="cls-1" d="M322.81,335.37c0,5.94-4.28,8-9.27,8-3.36,0-6.08-.92-7.77-2.69v2.43h-4.52V322h4.52v8c1.69-1.77,4.41-2.69,7.77-2.69C318.53,327.31,322.81,329.42,322.81,335.37Zm-4.54,0c0-3.09-2.19-4.28-6.24-4.28s-6.26,1.19-6.26,4.28,2.22,4.25,6.26,4.25S318.26,338.43,318.26,335.37Z"/><path class="cls-1" d="M340.77,337.56h4.49c-1,4-4.89,5.84-10.65,5.84-5.92,0-10.52-2.32-10.52-8s4.46-8.06,10.78-8.06c5.92,0,10.65,2,10.65,9.11h-16.8c.5,2.48,2.88,3.3,5.89,3.3S339.63,339.15,340.77,337.56Zm-11.89-4h11.81c-.77-2.19-3-2.8-5.84-2.8C331.76,330.74,329.59,331.35,328.88,333.55Z"/><path class="cls-1" d="M363.93,327.84v3.78a15.65,15.65,0,0,0-4-.53,12.94,12.94,0,0,0-8.19,2.72v9.33h-4.52V327.57h4.52v2.64a11.53,11.53,0,0,1,8-2.91A16.32,16.32,0,0,1,363.93,327.84Z"/></svg>