<svg id="Camada_1" data-name="Camada 1" xmlns="http://www.w3.org/2000/svg" viewBox="0 0 599.74 450.24"><defs><style>.cls-1{fill:#fff;}</style></defs><title>MODALIMAGEM</title><rect width="599.74" height="450.24"/><path class="cls-1" d="M314.37,237.4c.6,5.09-.89,10.59-2.16,15.74-4.75,19.19-16.59,32.5-34.58,40.43-8.32,3.67-17.18,4.35-26.1,4.37q-46.11.11-92.21.12h-7.18c9.49-9.84,18.34-19,27.21-28.21,3.64-3.78,7.2-7.64,11.05-11.19a8.49,8.49,0,0,1,5.13-2.22c18.88-.15,37.77,0,56.65-.16a31.12,31.12,0,0,0,11-2c6-2.4,8.76-7.48,9.09-13.85.34-6.72-2.08-12.22-7.94-15.64a15.12,15.12,0,0,0-7.21-1.63c-13.95-.16-27.91.29-41.85-.2-23.29-.81-40.77-12.2-51.1-32.65C151.86,166,158.49,140.22,177,122.87a55.79,55.79,0,0,1,27.42-14.51c4.67-.94,9.6-.89,14.41-.91l100.42-.12c-1.79,1.89-38.44,38.81-38.44,38.81-2.08,2.17-3.78,2.39-6.4,2.37H215.84a14.77,14.77,0,0,0-14.34,12.21c-1.57,9.2,1.89,16.66,9.15,19.59A12.16,12.16,0,0,0,215,181c15.11.2,30.26-.42,45.32.69,19.56,1.45,34.62,11.23,45.32,27.84C311.08,218.08,313.23,227.68,314.37,237.4Z"/><path class="cls-1" d="M444.49,297.63c-10.07,0-19.8.77-29.32-.2-12.07-1.21-21.4-8.13-27.26-18.55-7.23-12.84-13.48-26.22-20.2-39.34q-8.58-16.74-17.24-33.43c-.47-.91-1.13-1.73-1.86-2.84L329.82,246V233.18c.09-17.37-7-31.38-20-42.6-1.76-1.53-1.38-2.76-.57-4.34,5.85-11.46,11.75-22.89,17.53-34.38,7.2-14.3,22-43.82,22.6-44.67Z"/><path class="cls-1" d="M133.77,340.29l3.15-3.81a10.26,10.26,0,0,0,6.41,2.57c2.34,0,3.41-.91,3.41-2.16,0-1.74-1.45-2.2-3.78-3.18l-3.15-1.37c-2.71-1-5.16-3.15-5.16-6.74,0-4.09,3.64-7.35,8.86-7.35a11.62,11.62,0,0,1,8.05,3.25l-2.7,3.51a8.47,8.47,0,0,0-5.56-2c-1.82,0-3,.79-3,2.23s1.63,2,4,2.91l2.93,1.26c3.19,1.21,5.19,3.22,5.19,6.7,0,4.09-3.37,7.65-9.39,7.65A13.79,13.79,0,0,1,133.77,340.29Z"/><path class="cls-1" d="M155.58,330.93c0-8.25,4-12.72,9.72-12.72s9.72,4.41,9.72,12.69c0,8.45-4,12.92-9.72,12.92S155.58,339.38,155.58,330.93Zm13.85,0c0-5.11-1.59-7.87-4.12-7.87s-4.12,2.76-4.12,7.87c0,5.34,1.59,8.11,4.12,8.11s4.1-2.77,4.1-8.11Z"/><path class="cls-1" d="M180.39,318.7h5.45v20H196.6v4.7H180.39Z"/><path class="cls-1" d="M206.54,318.7h6.54l7.55,24.69h-5.79l-1.45-5.87h-7.34l-1.49,5.87H199Zm.63,14.48h5.08l-.55-2.27c-.63-2.46-1.37-5.34-1.93-8h-.15c-.59,2.61-1.26,5.49-1.89,8Z"/><path class="cls-1" d="M223.39,318.7H229L234.07,331l2.08,5.45h.15c-.26-2.61-.78-6.06-.78-9V318.7h5.23v24.7h-5.63l-5-12.31L228,325.71h-.15c.26,2.73.78,6,.78,8.94v8.75H223.4Z"/><path class="cls-1" d="M244.83,331.2c0-8.26,4.9-13,11.17-13a9.67,9.67,0,0,1,7.09,3.15l-3,3.44a5.21,5.21,0,0,0-4.08-1.78c-3.15,0-5.53,3-5.53,8s1.93,8,5.75,8a3.58,3.58,0,0,0,2.37-.76V334h-3.53v-4.54h8.42v11.33a11.49,11.49,0,0,1-7.55,3C249.72,343.85,244.83,339.49,244.83,331.2Z"/><path class="cls-1" d="M268.86,318.7h16v4.7H274.35v5h8.94V333h-8.94v5.67h10.91v4.71H268.89Z"/><path class="cls-1" d="M317.82,318.7h6.53l7.55,24.69h-5.79l-1.45-5.87h-7.33l-1.49,5.87h-5.56Zm.63,14.48h5.08l-.55-2.27c-.63-2.46-1.37-5.34-1.93-8h-.15c-.59,2.61-1.26,5.49-1.89,8Z"/><path class="cls-1" d="M336.18,318.7h5.45v20h10.76v4.7H336.18Z"/><path class="cls-1" d="M356.61,318.7h5.72l2.37,8.75.82,3.41h.15l.82-3.41,2.37-8.75h5.72V343.4H370v-7.65c0-2.76.48-8.81.71-11.44h-.11l-1.86,6.59-1.86,5.95h-2.67l-1.89-5.95-1.74-6.59h-.11c.26,2.65.71,8.67.71,11.44v7.65h-4.53Z"/><path class="cls-1" d="M380.14,318.7h16v4.7H385.63v5h8.94V333h-8.94v5.67h10.91v4.71H380.17Z"/><path class="cls-1" d="M401.73,338.69h5.67V323.4h-5.67v-4.7H418.5v4.7h-5.67v15.3h5.67v4.7H401.73Z"/><path class="cls-1" d="M423.84,318.7h6.68c7.05,0,11.65,3.78,11.65,12.23s-4.6,12.46-11.33,12.46h-7Zm6.38,20.19c3.78,0,6.35-2,6.35-8s-2.56-7.72-6.35-7.72h-.89V338.9Z"/><path class="cls-1" d="M451.36,318.7h6.53l7.55,24.69h-5.79l-1.45-5.87h-7.33l-1.48,5.87h-5.56Zm.63,14.48h5.08l-.55-2.27c-.63-2.46-1.37-5.34-1.93-8h-.15c-.59,2.61-1.26,5.49-1.89,8Z"/></svg>