<svg id="Camada_1" data-name="Camada 1" xmlns="http://www.w3.org/2000/svg" viewBox="0 0 599.7 450.2"><defs><style>.cls-1{isolation:isolate;}.cls-2,.cls-3{fill:#fff;}.cls-10,.cls-11,.cls-12,.cls-13,.cls-14,.cls-15,.cls-16,.cls-17,.cls-3,.cls-4,.cls-5,.cls-6,.cls-7,.cls-8,.cls-9{stroke:#fff;stroke-miterlimit:10;}.cls-4{fill:#404040;}.cls-5{fill:#8d8d8d;}.cls-6{fill:#717171;}.cls-7{fill:#d3d3d3;}.cls-8{fill:#d2d2d2;}.cls-9{fill:#797979;}.cls-10{fill:#a4a4a4;}.cls-11{fill:#646464;}.cls-12{fill:#d8d8d8;}.cls-13{fill:#868686;}.cls-14{fill:#a9a9a9;}.cls-15{fill:#b4b4b4;}.cls-16{fill:#070707;}.cls-17{fill:#090909;}</style></defs><title>20-SOFTHARMONY</title><rect width="599.7" height="450.2"/><g class="cls-1"><path class="cls-2" d="M218.45,311.82v.75h-5.8v-8.64h5.69v.75h-4.86v3.12h4.23v.71h-4.23v3.3Z"/><path class="cls-2" d="M228.3,305.55a2.6,2.6,0,0,0-1-.67,3.57,3.57,0,0,0-1.38-.26,2.66,2.66,0,0,0-1.68.43,1.45,1.45,0,0,0-.53,1.18,1.36,1.36,0,0,0,.14.64,1.12,1.12,0,0,0,.44.43,3.15,3.15,0,0,0,.75.32c.31.09.67.18,1.08.27a11.37,11.37,0,0,1,1.24.32,3.62,3.62,0,0,1,.94.45,2,2,0,0,1,.6.67,2.12,2.12,0,0,1,.2,1,2.2,2.2,0,0,1-.24,1,2.13,2.13,0,0,1-.64.73,2.82,2.82,0,0,1-1,.43,5.43,5.43,0,0,1-1.24.14,5.07,5.07,0,0,1-3.47-1.26l.41-.69a3.71,3.71,0,0,0,1.28.84,4.52,4.52,0,0,0,1.78.35,3,3,0,0,0,1.62-.37,1.24,1.24,0,0,0,.58-1.13,1.31,1.31,0,0,0-.16-.67,1.48,1.48,0,0,0-.49-.48,3.71,3.71,0,0,0-.82-.35c-.33-.1-.71-.19-1.14-.29s-.85-.21-1.19-.32a2.94,2.94,0,0,1-.86-.43,1.57,1.57,0,0,1-.52-.62,1.93,1.93,0,0,1-.18-.88,2.35,2.35,0,0,1,.23-1.06,2.1,2.1,0,0,1,.63-.78,2.94,2.94,0,0,1,1-.47,4.32,4.32,0,0,1,1.25-.16,4.26,4.26,0,0,1,1.53.26,4.18,4.18,0,0,1,1.22.74Z"/></g><g class="cls-1"><path class="cls-2" d="M239.24,304.68h-3.08v7.88h-.85v-7.88h-3.07v-.75h7Z"/></g><g class="cls-1"><path class="cls-2" d="M249.52,311.82v.75h-5.8v-8.64h5.69v.75h-4.86v3.12h4.23v.71h-4.23v3.3Zm-2.72-9.07-.55-.2.72-1.14h.88Z"/></g><g class="cls-1"><path class="cls-2" d="M259.74,304.68h-3.08v7.88h-.85v-7.88h-3.07v-.75h7Z"/></g><g class="cls-1"><path class="cls-2" d="M264.22,312.58V304h.84v8.62Z"/><path class="cls-2" d="M269.8,308.2a4.49,4.49,0,0,1,.28-1.55,4.41,4.41,0,0,1,.79-1.38,4,4,0,0,1,1.29-1,3.88,3.88,0,0,1,1.74-.38,3.64,3.64,0,0,1,2,.52,3.28,3.28,0,0,1,1.22,1.36l-.68.41a2.65,2.65,0,0,0-.49-.71,2.71,2.71,0,0,0-.63-.48,2.56,2.56,0,0,0-.71-.26,3.71,3.71,0,0,0-.72-.08,2.85,2.85,0,0,0-1.37.32,3.22,3.22,0,0,0-1,.83,3.51,3.51,0,0,0-.62,1.15,4.21,4.21,0,0,0-.2,1.3,3.78,3.78,0,0,0,.25,1.38,3.68,3.68,0,0,0,.68,1.16,3.08,3.08,0,0,0,1,.8,2.74,2.74,0,0,0,1.28.3,3.41,3.41,0,0,0,.75-.09,3.18,3.18,0,0,0,.74-.29A3.22,3.22,0,0,0,276,311a2.51,2.51,0,0,0,.51-.72l.71.37a2.69,2.69,0,0,1-.58.86,3.73,3.73,0,0,1-.84.62,4.13,4.13,0,0,1-1,.39,4.06,4.06,0,0,1-1,.14,3.46,3.46,0,0,1-1.63-.39,4.35,4.35,0,0,1-1.28-1,4.79,4.79,0,0,1-.84-1.42A5.23,5.23,0,0,1,269.8,308.2Z"/></g><g class="cls-1"><path class="cls-2" d="M280.21,312.58l3.61-8.64h.69l3.61,8.64h-.92l-1.12-2.7h-3.86l-1.11,2.7Zm4-7.65-1.78,4.28h3.5Z"/></g><g class="cls-1"><path class="cls-2" d="M297.06,312.58l3.61-8.64h.69l3.61,8.64h-.92l-1.12-2.7h-3.88l-1.11,2.7Zm4-7.65-1.78,4.28h3.5Z"/></g><g class="cls-1"><path class="cls-2" d="M308.49,303.94l3.09,7.58,3.07-7.58h.9l-3.6,8.64h-.74l-3.6-8.64Z"/></g><g class="cls-1"><path class="cls-2" d="M318.19,312.58l3.61-8.64h.7l3.61,8.64h-.92l-1.11-2.7H320.2l-1.11,2.7Zm4-7.65-1.78,4.28h3.5Z"/></g><g class="cls-1"><path class="cls-2" d="M331.3,305.52v7.06h-.84v-8.64h.66l5.72,7.2V304h.84v8.62h-.73Z"/><path class="cls-2" d="M345.53,314.11a2.35,2.35,0,0,0,.46.15,3,3,0,0,0,.61.06c.46,0,.69-.15.69-.43a.37.37,0,0,0-.16-.34.89.89,0,0,0-.45-.1,2.51,2.51,0,0,0-.54.06,3.3,3.3,0,0,0-.44.11l.54-1a3.61,3.61,0,0,1-1.55-.45,4.2,4.2,0,0,1-1.21-1,4.63,4.63,0,0,1-.79-1.4,4.57,4.57,0,0,1-.28-1.57,4.49,4.49,0,0,1,.28-1.55,4.41,4.41,0,0,1,.79-1.38,4,4,0,0,1,1.29-1,3.77,3.77,0,0,1,1.74-.38,3.64,3.64,0,0,1,2,.52,3.28,3.28,0,0,1,1.22,1.36l-.68.41a2.5,2.5,0,0,0-.5-.71,2.71,2.71,0,0,0-.63-.48,2.56,2.56,0,0,0-.71-.26,3.7,3.7,0,0,0-.71-.08,2.91,2.91,0,0,0-1.38.32,3.22,3.22,0,0,0-1,.83,3.51,3.51,0,0,0-.62,1.15,4.21,4.21,0,0,0-.2,1.3,3.78,3.78,0,0,0,.25,1.38,3.68,3.68,0,0,0,.68,1.16,3.08,3.08,0,0,0,1,.8,2.74,2.74,0,0,0,1.28.3,3.41,3.41,0,0,0,.75-.09,3.07,3.07,0,0,0,1.41-.79,2.51,2.51,0,0,0,.51-.72l.71.37a2.82,2.82,0,0,1-.54.81,3.27,3.27,0,0,1-.77.61,4,4,0,0,1-.91.4,4.53,4.53,0,0,1-1,.19l-.34.56a.78.78,0,0,1,.24-.06l.23,0a1.11,1.11,0,0,1,.67.19.65.65,0,0,1,.25.55.72.72,0,0,1-.32.63,1.62,1.62,0,0,1-.92.22,3.34,3.34,0,0,1-.66-.06,4.08,4.08,0,0,1-.55-.16Z"/></g><g class="cls-1"><path class="cls-2" d="M352.83,312.58l3.61-8.64h.69l3.62,8.64h-.92l-1.12-2.7h-3.88l-1.11,2.7Zm4-7.65L355,309.2h3.5Z"/></g><g class="cls-1"><path class="cls-2" d="M365.12,312.58v-8.64H368a4.47,4.47,0,0,1,1.81.34,3.71,3.71,0,0,1,1.3.92,3.86,3.86,0,0,1,.77,1.37,5.38,5.38,0,0,1,.26,1.67,5.18,5.18,0,0,1-.29,1.78,3.91,3.91,0,0,1-.83,1.36,3.57,3.57,0,0,1-1.31.88,4.59,4.59,0,0,1-1.71.31Zm6.21-4.34a4.43,4.43,0,0,0-.22-1.43,3.22,3.22,0,0,0-.64-1.13,3,3,0,0,0-1-.74,3.61,3.61,0,0,0-1.4-.26h-2.08v7.13H368a3.41,3.41,0,0,0,1.42-.28,2.93,2.93,0,0,0,1-.75,3.15,3.15,0,0,0,.62-1.14A4.29,4.29,0,0,0,371.32,308.24Z"/></g><g class="cls-1"><path class="cls-2" d="M375.31,312.58l3.61-8.64h.7l3.61,8.64h-.91l-1.12-2.7h-3.89l-1.1,2.7Zm4-7.65-1.78,4.28H381Z"/></g><g class="cls-1"><path class="cls-3" d="M107.59,294.07h-.09c0-1.08,1.67-5.29,1.67-9.26h.09c0,4.07,2.46,10.39,10.71,10.39,4.87,0,9.73-1.83,9.73-6.93,0-4.49-4.08-5.95-11.77-9.87s-10.1-6.51-10.1-10.29,3.43-7.82,11.54-7.82c4.59,0,11.36,2.15,11.36.37h.14c0,1.08-1.67,4.58-1.67,9.22h-.14c0-7.4-4.77-9.26-9.69-9.26-6.25,0-8.53,3.6-8.53,6,0,2.9.92,4.82,10.06,9.5,5.19,2.67,12.32,5.61,12.32,10.72,0,5.8-7.23,8.66-13.26,8.66C114.4,295.53,107.59,292.2,107.59,294.07Z"/></g><g class="cls-1"><path class="cls-3" d="M152.44,295.53c-9.09,0-15.85-7.21-15.85-17.41,0-10.63,6.07-17.83,15.85-17.83,9.09,0,15.85,7.16,15.85,17.37C168.29,288.26,162.13,295.53,152.44,295.53Zm-.6-34.92c-5.23,0-11.86,5.48-11.86,16.57,0,11.7,6.58,18,13.07,18,4.49,0,11.86-3.89,11.86-16.57C164.91,266.92,158.33,260.6,151.84,260.6Z"/></g><g class="cls-1"><path class="cls-3" d="M174.18,270.95c0-7.63-.28-9.87-1.57-9.87V261H179c12.93,0,14.78.24,14.78-.71h.09c0,2.15.92,5.15.92,7.21h-.09c0-3-3.89-6.18-15.06-6.22-2.17,0-2.17,0-2.17,9.65v13.66c0,7.91.24,10.16,1.57,10.16v.1h-6.39v-.1c1.3,0,1.57-2.25,1.57-10.16V270.95Zm18.35,10.72c0-6.13-11.58-7-14.69-1.54h-.09c2.46-4.58,11.07-4.92,16.4-4.92v.1c-.6,0-1.53,3.18-1.53,6.41Z"/></g><g class="cls-1"><path class="cls-3" d="M226.59,260.28c0,3.93,1.62,7.72,1.62,9.73h-.09c0-2.48-3-8.75-10.85-8.75-2.22,0-2.27,0-2.27,9.65v13.66c0,7.58.24,10.16,1.53,10.16v.1h-6.3v-.1c1.3,0,1.53-2.25,1.57-10.16V270.9c0-9.65,0-9.65-2.22-9.65-7.88,0-10.89,6.27-10.89,8.75h-.09c0-2,1.62-5.8,1.62-9.73h.09c0,.93,9.87.71,11.49.71H215c1.62,0,11.49.24,11.49-.71h.08Z"/></g><g class="cls-1"><path class="cls-3" d="M257.08,284.9c0,7.58.24,9.83,1.53,9.83v.1h-6.35v-.1c1.3,0,1.57-2.25,1.57-10.16V271c0-7.63-.28-9.87-1.57-9.87V261h6.35v.1c-1.3,0-1.53,2.25-1.53,9.83v7.21c.7-2.11,2.6-3.51,5.42-3.51,4.73,0,10.61,5.9,14.27,5.9v.1c-3.8,0-9.73-5.66-14.27-5.66a5.08,5.08,0,0,0-5.42,5.19Zm23.26,0c0,7.58.19,9.83,1.53,9.83l0,.1h-6.3v-.1c1.3,0,1.57-2.25,1.57-10.16V271c0-7.63-.28-9.87-1.57-9.87V261h6.3l0,.1c-1.35,0-1.53,2.25-1.53,9.83Z"/></g><g class="cls-1"><path class="cls-3" d="M285.25,294.72c1.3,0,4.36-7.91,7.33-15.63h.09c-3,8.24-4.36,15.63-1.06,15.63v.1h-6.35ZM295,272.58l3.62-9.92c.19-.51.56-1.59,0-1.59V261H303v.1c-.7,0,.28,2.53.84,4l7.83,21.29c2.69,7.3,3.43,8.33,4.59,8.33v.1h-6.21v-.1c1.25,0,1.11-.93-4.82-17l-4.68-12.64c-.56-1.54-1-2.62-1.35-3.37l-4,11.19c-4.08,11.24.74,14.14,4,14.14,4.22,0,6.49-3.09,7.5-4.17h.09c-1.06,1.17-3.62,4.49-7.6,4.49C296,287.38,290.58,284.57,295,272.58Z"/></g><g class="cls-1"><path class="cls-3" d="M324.87,280.17c0-3,15.57-3.28,15.62-11.84,0-5.52-4.68-7.72-10.89-7.72-3.47,0-5.56.75-5.56,3.79v20.5c0,7.58.24,9.83,1.53,9.83v.1h-6.35v-.1c1.3,0,1.57-2.25,1.57-9.83V270.95c0-7.63-.28-9.87-1.57-9.87V261c4.08,0,8.53-.71,11-.71,6.39,0,13.67,2.43,13.67,8,0,7.49-18.67,9.46-18.67,11.93s8.06-3,11.72-2.9c2.17,0,3.66,1.08,5,4.54,2.36,6.32,3.85,12.92,5.93,12.92v.1h-6.35v-.1c1.53,0,0-4.26-2.92-12.27-1.06-2.76-1.39-4.12-3.33-4.17C332.05,278.25,324.87,283.12,324.87,280.17Z"/></g><g class="cls-1"><path class="cls-3" d="M354.85,262v3.51c.14,21.39.7,29.25,3.15,29.25v.1h-6.34v-.1c2.46,0,3.15-7.86,3.11-29.25V262Zm14.59,33.57c-3.15,0-3.8-1.31-5.79-7.54l-7.33-22.89c-.74-2.53-.92-4-3.52-4l0-.1h6.39v.1c-.41,0,.6,3.51,1.06,5l7,22c1.71,5.39,2.5,6.37,3.62,6.37,7,0,11.91-20.92,11.91-32.48h.09C382.84,271,379.32,295.53,369.45,295.53Zm13.94-10.63c0,7.58-.24,9.83-1.53,9.83l0,.1h6.3v-.1c-1.3,0-1.57-2.25-1.57-9.83V270.39c0-7.91.37-9.31,1.57-9.31V261h-6.49v.1c.92,0,1.67.47,1.67,2.2V284.9Z"/></g><g class="cls-1"><path class="cls-3" d="M408.37,295.53c-9.09,0-15.85-7.21-15.85-17.41,0-10.63,6.07-17.83,15.85-17.83,9.09,0,15.85,7.16,15.85,17.37C424.22,288.26,418.06,295.53,408.37,295.53Zm-.6-34.92c-5.23,0-11.86,5.48-11.86,16.57,0,11.7,6.58,18,13.07,18,4.49,0,11.86-3.89,11.86-16.57C420.84,266.92,414.26,260.6,407.77,260.6Z"/></g><g class="cls-1"><path class="cls-3" d="M431.26,262v3.51c.14,21.39.7,29.25,3.15,29.25v.1h-6.35v-.1c2.46,0,3.15-7.86,3.11-29.25V262Zm-2.08-1h6.39v.1c-.28,0-.37,1.12,0,2.62l4.27,14.14c4.54,15,7.23,16.61,10.75,16.61,5.38,0,7-7.86,7-13.57,0-10.44-4.08-19.8-6.39-19.8V261h6.39v.1c-3.29,0,.32,6.27.32,19.8,0,2.34-.24,14.65-8.76,14.65-7.28,0-8.76-5.15-11.91-15.68l-4.49-14.75c-.79-2.62-.92-4-3.52-4Z"/></g><g class="cls-1"><path class="cls-3" d="M477.83,286.12c0,5.76.24,8.62,1.53,8.62v.1h-6.3l0-.1c1.35,0,1.57-2.86,1.57-8.62,0-10.72-10.47-25-13.39-25V261h6.35v.1C465.09,261.07,477.83,271.09,477.83,286.12Zm.19-3.6c3.57-9.78,12.47-21.44,14.18-21.44V261h-6.35v.1c3.62,0-4.4,11.79-7.93,21.44Z"/></g><g id="SÃMBOLO"><path class="cls-3" d="M353.78,190.72a53.73,53.73,0,0,1-2.94,15.66,53.29,53.29,0,0,1-38.15,34.27,51.07,51.07,0,0,1-8.79,1.27,53.2,53.2,0,0,1-53.63-35.56A50.81,50.81,0,0,1,247.65,195a53.43,53.43,0,0,1,11.43-39.68,52.69,52.69,0,0,1,27.33-17.92,50,50,0,0,1,9.52-1.71c.75-.06,1.51-.11,2.26-.16l.57-.06h.41l.48.06,1.39-.06h.16l.58.06h.89a55.76,55.76,0,0,1,9.41,1.22,53.2,53.2,0,0,1,41.71,49.89v3.42C353.78,190.29,353.78,190.5,353.78,190.72Zm-43.59,30.11a.33.33,0,0,0-.06-.09,3.6,3.6,0,0,0-.6.25c-1.27.81-2.52,1.65-3.8,2.46a10.59,10.59,0,0,1-6.9,1.8c-1.38-.15-2.74-.4-4.11-.64a10.06,10.06,0,0,1-6.41-3.81c-1.63-2.1-3.22-4.23-4.83-6.34L280.09,210a1.43,1.43,0,0,0-.27-.22,1.38,1.38,0,0,0-.14.32c-.17.78-.33,1.55-.49,2.33a47.51,47.51,0,0,1-1.82,7,31.53,31.53,0,0,1-7.21,11.37c-.28.28-.24.4.07.61a57,57,0,0,0,11.95,6.3,49.2,49.2,0,0,0,13.53,3.07c2.19.17,4.4.21,6.6.18,1.72,0,3.45-.24,5.17-.37.2,0,.26,0,.22-.28-.17-.94-.32-1.88-.46-2.83A29,29,0,0,1,307,231a1.84,1.84,0,0,1,.18-.66.76.76,0,0,1,1.4.12,2.09,2.09,0,0,1,.08.63,20.42,20.42,0,0,0-.09,2.1c.16,2.26.39,4.52.56,6.77,0,.37.18.38.45.33a57.84,57.84,0,0,0,7.38-1.87,1.21,1.21,0,0,0,.92-1.07,4.58,4.58,0,0,1,.71-2.07c3.35-4.65,6.68-9.31,10-14a10.7,10.7,0,0,0,2-7.58,24.77,24.77,0,0,0-.71-3.1c-1.49-6.46-3.7-12.7-5.77-19a5.63,5.63,0,0,0-.32-.67l-.49.57a4.51,4.51,0,0,0-1,3.67,2.51,2.51,0,0,1,.08.88.86.86,0,0,1-.46.58,1.06,1.06,0,0,1-.78-.12,1,1,0,0,1-.35-.61,5.7,5.7,0,0,1,0-3,6,6,0,0,1,3-3.83c.66-.36,1-.19,1.33.49,0,.1.06.2.1.31l1.9,5.78c1.57,4.76,3.16,9.52,4.31,14.4.22.94.49,1.87.74,2.81a.59.59,0,0,0,.11.19.73.73,0,0,0,.25-.33l8.2-15.54c.19-.36.1-.45-.24-.54a2.55,2.55,0,0,0-2.73,1.22c-.42.71-.8,1.46-1.22,2.18-.32.56-.74.73-1.19.49s-.55-.7-.25-1.26c.38-.71.75-1.43,1.17-2.12a6.1,6.1,0,0,1,.9-1.14,3.94,3.94,0,0,1,3.12-1c.37,0,.71,0,.84-.45a37,37,0,0,0,1.44-9.32,32.42,32.42,0,0,0-.65-7.24,29.76,29.76,0,0,0-2.2-6.94c-.06-.11-.19-.19-.28-.28a1.16,1.16,0,0,0-.19.32q-.49,2.52-.94,5c-.72,4-1.42,7.95-2.16,11.92-.56,3-1.13,6-1.78,9a12.51,12.51,0,0,0-.43,4.1c.13,1.17.14,2.34.2,3.52a.85.85,0,0,1-.41.86c-.58.32-1.16-.06-1.22-.8-.06-1-.12-2-.18-3l-.49-8.57c0-.71-.09-1.43-.14-2.14,0-.37-.2-.35-.43-.16a4.13,4.13,0,0,0-1.56,2.47c-.07.42-.09.86-.17,1.28a.77.77,0,0,1-.76.65.69.69,0,0,1-.74-.66,5.53,5.53,0,0,1,.08-1.68,5.71,5.71,0,0,1,4-4.32c.61-.19,1,.06,1.1.69a4,4,0,0,1,0,.44c0,.62.09,1.24.15,1.86,0,.1.11.18.17.27.06-.09.16-.17.18-.27q.9-5,1.78-10,1.17-6.64,2.31-13.3a1.58,1.58,0,0,0-.15-1c-1.12-1.61-2.21-3.26-3.47-4.77-1.78-2.13-3.7-4.16-5.57-6.22-2.26-2.49-4.54-5-6.81-7.45-.34-.37-.53-.38-.94-.11s-.89.61-1.35.89c-6.08,3.84-12.83,5.35-19.92,5.67-2.35.11-4.7.14-7,.21l-9.85.28c-1.87.06-3.76.13-5.63.22-.71,0-.85.23-1,.94-.24,1.68-.49,3.36-.78,5-.45,2.69-.93,5.39-1.41,8.08-.58,3.28-1.19,6.55-1.74,9.82-.36,2.17-.71,4.34-.9,6.52a22.63,22.63,0,0,0,1.38,9.53,26.91,26.91,0,0,0,4,7.08q6,8,12,15.95a18.87,18.87,0,0,0,2.06,2.27,7.68,7.68,0,0,0,4,1.71c1.48.27,3,.57,4.47.71a8.4,8.4,0,0,0,5.44-1.6l7.89-5.13a25.35,25.35,0,0,0,4-2.9.81.81,0,1,1,1.13,1.14c-.66.64-1.31,1.31-2,1.88a17.16,17.16,0,0,0-4.75,5.7c-.27.54-.58,1.06-.9,1.57a.74.74,0,0,1-1,.3.79.79,0,0,1-.4-1,7.23,7.23,0,0,1,.36-.81C309.52,222.11,309.86,221.47,310.18,220.83Zm-9.86-84.33a44.26,44.26,0,0,0-11.88,1.39,51.65,51.65,0,0,0-28.78,18.24c-7.4,9.17-11,19.79-11.44,31.51a48.67,48.67,0,0,0,.93,11,52.28,52.28,0,0,0,8,19.48,60.75,60.75,0,0,0,7.51,8.79.85.85,0,0,0,.71.21,7.42,7.42,0,0,0,2.74-1.41,8.94,8.94,0,0,0,3.05-7.86,21.37,21.37,0,0,0-1.79-6.92A86,86,0,0,0,264,200.63c-2-3.34-4.06-6.63-6-10a24.12,24.12,0,0,1,2.86-28.08,24.4,24.4,0,0,1,18-8.31c4-.15,8.06-.22,12.08-.34,2.73-.09,5.46-.18,8.19-.32,2.18-.11,4.37-.2,6.54-.5a33,33,0,0,0,12-4.07,23.47,23.47,0,0,0,7.1-5.8c.44-.56.45-.56-.17-.88A51.93,51.93,0,0,0,300.32,136.5Zm19.14,100.86.11.06.3-.11A50.16,50.16,0,0,0,335,228.1a51.78,51.78,0,0,0,12-15.3,53.17,53.17,0,0,0,5.72-21,50.16,50.16,0,0,0-.45-10.75,52.52,52.52,0,0,0-18-32.22,48,48,0,0,0-7.31-5.12c-.15-.09-.28-.19-.45,0-1.13,1.14-2.26,2.26-3.39,3.37a.41.41,0,0,0,0,.63l.61.66,10.88,12a37.68,37.68,0,0,1,4,4.93,35.7,35.7,0,0,1,5.66,18.28,26.59,26.59,0,0,1-.41,6.42c-.37,1.75-.83,3.47-1.24,5.22,0,.19-.09.45,0,.58.41.51.24,1,0,1.45l-9.59,18.15a10.78,10.78,0,0,0-1.36,3.89,2.26,2.26,0,0,1-.44,1.14q-5.65,7.9-11.26,15.81a7.51,7.51,0,0,0-.55,1.18Zm-44.79-80.65c.06-.5-.28-.33-.49-.28a23.74,23.74,0,0,0-5.56,2,22.71,22.71,0,0,0-12.06,22.92,21.93,21.93,0,0,0,2.91,8.64c2.7,4.53,5.41,9,8.09,13.59a43.43,43.43,0,0,1,4.53,10,14.81,14.81,0,0,1,.53,7.5,9.22,9.22,0,0,1-3,5.25c-.87.71-1.84,1.31-2.78,1.95-.25.17-.28.26,0,.45a16,16,0,0,1,1.35,1.1c.31.29.49.23.74-.06.64-.73,1.32-1.43,1.94-2.17a31,31,0,0,0,6.47-13.77c.36-1.78.64-3.58,1-5.36a1.56,1.56,0,0,0-.32-1.32q-1.08-1.41-2.15-2.84a29.62,29.62,0,0,1-4.73-8.4,23.79,23.79,0,0,1-1.3-10.15c.28-2.7.79-5.38,1.22-8.06s.94-5.55,1.42-8.32l1.58-9.24C274.27,159,274.47,157.86,274.67,156.71Z"/><path class="cls-4" d="M301,135.47l-1.39.06s0,0,0-.06Z"/><path class="cls-5" d="M353.78,188.36v-.81h.07v.81Z"/><path class="cls-6" d="M353.78,188.36h.06V189h-.07C353.78,188.79,353.78,188.58,353.78,188.36Z"/><path class="cls-7" d="M353.78,190.72v-.65h.06v.65h-.06Z"/><path class="cls-8" d="M298.76,135.47l-.57.06v-.06Z"/><path class="cls-9" d="M301.77,135.54l-.58-.06h.57A.18.18,0,0,0,301.77,135.54Z"/><path class="cls-10" d="M353.84,190.06h-.06v-.57h.06Z"/><path class="cls-11" d="M299.65,135.47a.18.18,0,0,1,0,.06l-.48-.06Z"/><path class="cls-8" d="M302.65,135.47v.06h-.49v-.06Z"/><path class="cls-12" d="M353.78,186.65h.06v.49h-.06Z"/><path class="cls-13" d="M353.84,189.49h-.06V189h.07C353.84,189.17,353.84,189.33,353.84,189.49Z"/><path class="cls-14" d="M302.17,135.47v.06h-.41s0,0,0-.06Z"/><path class="cls-15" d="M353.78,187.14h.06v.41h-.07C353.78,187.41,353.78,187.28,353.78,187.14Z"/><path class="cls-3" d="M326.92,215.23c0,.24,0,.49,0,.73,0,.56-.33.88-.8.88a.84.84,0,0,1-.83-.87c-.06-1.22-.11-2.43-.17-3.64s-.11-2.54-.18-3.8a1.43,1.43,0,0,0-.19-.65,107.7,107.7,0,0,0-5.73-9.22,5,5,0,0,0-.45-.48,2.88,2.88,0,0,0-.42.58,3,3,0,0,0,.16,2.54c1.05,2.17,2.13,4.33,3.15,6.52a4.86,4.86,0,0,1,.41,1.83c.06,1.38,0,2.76,0,4.14a2.45,2.45,0,0,1-.44,1.27A91,91,0,0,0,316.1,223a23.79,23.79,0,0,0-1.87,4.18,1.43,1.43,0,0,1-.43.71,1,1,0,0,1-.77.13.87.87,0,0,1-.47-.62,3.34,3.34,0,0,1,.2-1.18,20.32,20.32,0,0,1,2.49-5c1.44-2.22,3-4.4,4.47-6.58a2.2,2.2,0,0,0,.47-1.33c0-1.2,0-2.41,0-3.61a2.66,2.66,0,0,0-.24-1.09c-1-2.21-2.13-4.4-3.19-6.6a4.56,4.56,0,0,1,1.15-5.66c.67-.54,1.1-.52,1.57.2,1.61,2.42,3.2,4.85,4.76,7.3a29.17,29.17,0,0,1,1.88,3.37,6.19,6.19,0,0,1,.48,2.15c.12,2,.16,3.94.24,5.91Z"/><path class="cls-3" d="M300.58,213.06l-2.77-.49c-.58-.11-1.18-.18-1.74-.33a6.44,6.44,0,0,1-3.37-2.51l-3.9-5c-.77-1-.69-1.31.49-1.63a12.12,12.12,0,0,0,3.29-1.59,7.48,7.48,0,0,1,2.83-1.31,3.65,3.65,0,0,1,3.38,1,2.42,2.42,0,0,0,3,.59,3.93,3.93,0,0,1,4.94,1.3,29.44,29.44,0,0,0,3.8,3.93c.55.47.52.87-.1,1.26-2.07,1.31-4.14,2.61-6.23,3.89A6.39,6.39,0,0,1,300.58,213.06Zm.26-1.23a4.46,4.46,0,0,0,2-.53c1.7-1,3.38-2,5.07-3.07a1.11,1.11,0,0,0,.21-.23,1.5,1.5,0,0,0-.3-.15c-.67-.13-1.36-.2-2-.37a7.32,7.32,0,0,0-4.67.24,3.13,3.13,0,0,1-1.83.11,6.31,6.31,0,0,1-2.24-1.14,6.4,6.4,0,0,0-1.82-1c-1.34-.35-2.72-.54-4.08-.77a1.57,1.57,0,0,0-.42,0,2.15,2.15,0,0,0,.19.39q1,1.28,2,2.56c.41.52.82,1,1.24,1.55a4.76,4.76,0,0,0,3,1.74c1.24.19,2.47.42,3.7.64Zm-5-10.41a7.58,7.58,0,0,0-1.3.46c-.82.42-1.61.92-2.4,1.4a1.73,1.73,0,0,0-.28.31,1.33,1.33,0,0,0,.37.16c.81.13,1.62.24,2.43.37a7.9,7.9,0,0,1,3.34,1.63,3.37,3.37,0,0,0,3.56.48,4.69,4.69,0,0,1,2.64-.37c1,.17,2.07.37,3.1.54l.28,0c0-.1,0-.22-.1-.29-.71-.85-1.4-1.71-2.15-2.52a2.43,2.43,0,0,0-2.5-.76c-.63.16-1.26.39-1.87.61a1.82,1.82,0,0,1-1.92-.35c-.35-.3-.71-.58-1.06-.88A3.12,3.12,0,0,0,295.85,201.42Z"/><path class="cls-3" d="M332.81,182.3a.83.83,0,0,1-1.14.87,13.17,13.17,0,0,1-1.16-.72,3.9,3.9,0,0,0-3.63-.41c-.47.17-.47.24-.12.59.56.57,1.13,1.13,1.65,1.72a.78.78,0,0,1-.38,1.35c-.4.12-.64-.11-.86-.37s-.45-.58-.7-.84a3.25,3.25,0,0,0-3.14-.95,12.58,12.58,0,0,1-6.67-.21,11.22,11.22,0,0,1-3.8-2.06c-.45-.38-.54-.82-.22-1.19a.63.63,0,0,1,.79-.24,6.27,6.27,0,0,1,.92.49,11,11,0,0,0,4.44,1.82,10,10,0,0,0,6.15-1,9,9,0,0,1,2.72-1,5,5,0,0,1,3.2.58,12.57,12.57,0,0,1,1.59,1.1A1.45,1.45,0,0,1,332.81,182.3Z"/><path class="cls-3" d="M279.55,173.1l-2,.45a.77.77,0,0,1-1-.56.61.61,0,0,1,.35-.84c2.27-.93,4.62-1,6.64.93a24.1,24.1,0,0,0,2.7,2.38,9.76,9.76,0,0,0,8.21,1.44,5.86,5.86,0,0,1,.92-.16.73.73,0,0,1,.86.62.7.7,0,0,1-.54.86,13.87,13.87,0,0,1-3.42.72,12.19,12.19,0,0,1-6.81-2A3.6,3.6,0,0,0,281,177c-.57.38-.88.37-1.22,0a.69.69,0,0,1,0-1.07,4.82,4.82,0,0,1,2-1.16,5,5,0,0,0,.67-.31,4.15,4.15,0,0,0-.54-.59A4.23,4.23,0,0,0,279.55,173.1Z"/><path class="cls-16" d="M283,159.73a25.18,25.18,0,0,1,9.17,1.39,10.31,10.31,0,0,1,5.41,4,10.56,10.56,0,0,1,.94,2,.77.77,0,0,1-.54,1.08c-.44.14-.78-.06-1-.61a7.19,7.19,0,0,0-4.17-4.36,17.29,17.29,0,0,0-6.73-1.63c-1.87-.07-3.72,0-5.59-.08a3,3,0,0,1-.71-.08.76.76,0,0,1,0-1.44,9.26,9.26,0,0,1,1.16-.15Z"/><path class="cls-16" d="M322.48,166.42c3.35-.09,6.61,1,9.83,2.34.47.19.95.37,1.42.58a.82.82,0,0,1,.55,1.05.83.83,0,0,1-1.15.41c-1.7-.62-3.38-1.31-5.1-1.87a19.46,19.46,0,0,0-7.39-.85,7.3,7.3,0,0,0-5.24,2.52c-.08.09-.16.19-.25.27a.78.78,0,0,1-1.19-1,7,7,0,0,1,2.77-2.37A12.24,12.24,0,0,1,322.48,166.42Z"/><path class="cls-3" d="M302.26,198.07a6.33,6.33,0,0,1-4.9-2.39.86.86,0,0,1,0-1.23.84.84,0,0,1,1.22,0c.39.33.76.68,1.17,1a3.76,3.76,0,0,0,4.14.41c.24-.11.47-.26.72-.37a.8.8,0,0,1,1.11.34.83.83,0,0,1-.31,1.13,8.2,8.2,0,0,1-1.45.69C303.4,197.86,302.82,197.94,302.26,198.07Z"/><path class="cls-17" d="M308.48,226.39a.82.82,0,0,1,.84.79h0a.84.84,0,0,1-.8.84.85.85,0,0,1-.86-.83A.82.82,0,0,1,308.48,226.39Z"/></g></svg>