<svg id="Camada_1" data-name="Camada 1" xmlns="http://www.w3.org/2000/svg" viewBox="0 0 599.7 450.2"><defs><style>.cls-1{fill:#fff;}</style></defs><title>21-NIARAMEIRELE</title><rect width="599.7" height="450.2"/><path class="cls-1" d="M106.8,216H116v2.65a16.93,16.93,0,0,1,2.25-1.32,15.81,15.81,0,0,1,2.23-.89,16.5,16.5,0,0,1,2.08-.52,10.79,10.79,0,0,1,1.82-.17,17.49,17.49,0,0,1,2.51.2,14.85,14.85,0,0,1,2.76.7A13.61,13.61,0,0,1,132.4,218a9.57,9.57,0,0,1,2.35,2.08,10,10,0,0,1,1.63,3,11.77,11.77,0,0,1,.62,4v21.08a9.08,9.08,0,0,1-3.63-.72,9.42,9.42,0,0,1-3-2,9.18,9.18,0,0,1-2.71-6.54V223.31a5.85,5.85,0,0,0-1.28-3.84,3.86,3.86,0,0,0-1.63-1.14,7,7,0,0,0-2.43-.37,7.9,7.9,0,0,0-3.31.77,18.8,18.8,0,0,0-3.18,1.85,23.7,23.7,0,0,0-2.69,2.23Q112,224,111.42,224.7a7.19,7.19,0,0,1,2.31,1,6.69,6.69,0,0,1,1.59,1.66,4.67,4.67,0,0,1,.72,2.71v17.39H106.8Z"/><path class="cls-1" d="M145.67,211.16a4.49,4.49,0,0,1-1.45-3.48,4.42,4.42,0,0,1,1.45-3.42,5.15,5.15,0,0,1,3.66-1.39,4.57,4.57,0,0,1,3.36,1.39,4.63,4.63,0,0,1,1.32,3.42,4.71,4.71,0,0,1-1.32,3.48,4.57,4.57,0,0,1-3.36,1.39A5.15,5.15,0,0,1,145.67,211.16Zm-1.26,4.09v24.07a8.83,8.83,0,0,0,.92,3.43,9.84,9.84,0,0,0,2.06,2.77,9.42,9.42,0,0,0,2.92,1.86,9.29,9.29,0,0,0,3.54.67V224a9.56,9.56,0,0,0-.94-3.45,9.42,9.42,0,0,0-2-2.79,9.68,9.68,0,0,0-2.92-1.86A9.18,9.18,0,0,0,144.41,215.26Z"/><path class="cls-1" d="M189.84,247.48a9.25,9.25,0,0,1-3.65-.72,9.42,9.42,0,0,1-3-2,9.81,9.81,0,0,1-2.06-3,9,9,0,0,1-.8-3.63v-.59a6.06,6.06,0,0,1,.34-2.17,4.87,4.87,0,0,1,.83-1.45,3.87,3.87,0,0,1,1.09-.89,5.2,5.2,0,0,1,1.12-.46,4.32,4.32,0,0,1,.91-.15h.45a8.76,8.76,0,0,0-1-.77q-.59-.4-1.23-.78a14.75,14.75,0,0,0-1.31-.69,8.07,8.07,0,0,0-1.21-.46,13.22,13.22,0,0,0-3.75-.49,7.45,7.45,0,0,0-2.88.56,6.9,6.9,0,0,0-2.35,1.58,7.53,7.53,0,0,0-1.58,2.51,9.05,9.05,0,0,0-.59,3.36,10.37,10.37,0,0,0,1.51,5.79,4.55,4.55,0,0,0,4,2.22,6.36,6.36,0,0,0,4.06-1.42v1a12.82,12.82,0,0,1-8.55,3.2,10.64,10.64,0,0,1-7.57-2.86,9.24,9.24,0,0,1-3.11-7.14,9.12,9.12,0,0,1,3.63-7.36q3.7-3,10.19-3,.74,0,1.66.08t1.88.22q1,.14,1.86.34a14.47,14.47,0,0,1,1.61.45V216a9.26,9.26,0,0,1,3.67.72,9.45,9.45,0,0,1,3,2,9.67,9.67,0,0,1,2,2.94,9.08,9.08,0,0,1,.78,3.62h0Zm-20.13-24.35a4.11,4.11,0,0,1-1.29-3.11,4.17,4.17,0,0,1,1.29-3.11,4.65,4.65,0,0,1,1.49-.92,5.16,5.16,0,0,1,1.83-.31,4.2,4.2,0,0,1,3,1.23,4.34,4.34,0,0,1,1.2,3.11,4.27,4.27,0,0,1-1.2,3.11,4.2,4.2,0,0,1-3,1.23,5.15,5.15,0,0,1-1.83-.31A4.63,4.63,0,0,1,169.71,223.14Z"/><path class="cls-1" d="M197.41,215.26a9.18,9.18,0,0,1,3.53.67,9.68,9.68,0,0,1,2.92,1.86,9.42,9.42,0,0,1,2.06,2.79,9.57,9.57,0,0,1,.94,3.45v24a9.29,9.29,0,0,1-3.54-.67,9.42,9.42,0,0,1-2.92-1.86,9.84,9.84,0,0,1-2.06-2.77,8.82,8.82,0,0,1-.92-3.43Zm12.37,7.88a4.11,4.11,0,0,1-1.29-3.11,4.17,4.17,0,0,1,1.29-3.11,4.79,4.79,0,0,1,3.29-1.23,4.24,4.24,0,0,1,3,1.23,4.34,4.34,0,0,1,1.2,3.11,4.16,4.16,0,0,1-4,4.34h-.24A4.79,4.79,0,0,1,209.78,223.14Z"/><path class="cls-1" d="M250.81,247.48a9.25,9.25,0,0,1-3.65-.72,9.42,9.42,0,0,1-3-2,9.81,9.81,0,0,1-2-3,9,9,0,0,1-.8-3.63v-.59a6.06,6.06,0,0,1,.34-2.17,4.87,4.87,0,0,1,.83-1.45,3.87,3.87,0,0,1,1.09-.89,5.2,5.2,0,0,1,1.13-.46,4.32,4.32,0,0,1,.91-.15h.45a8.76,8.76,0,0,0-1-.77q-.59-.4-1.23-.78a14.75,14.75,0,0,0-1.31-.69,8.07,8.07,0,0,0-1.21-.46,13.22,13.22,0,0,0-3.75-.49,7.45,7.45,0,0,0-2.88.56,6.9,6.9,0,0,0-2.35,1.58,7.53,7.53,0,0,0-1.58,2.51,9.05,9.05,0,0,0-.59,3.36,10.37,10.37,0,0,0,1.51,5.79,4.55,4.55,0,0,0,4,2.22,6.36,6.36,0,0,0,4.06-1.42v1a12.82,12.82,0,0,1-8.55,3.2,10.64,10.64,0,0,1-7.57-2.86,9.24,9.24,0,0,1-3.09-7.16,9.12,9.12,0,0,1,3.63-7.36q3.7-3,10.19-3,.74,0,1.66.08t1.88.22q1,.14,1.86.34a14.47,14.47,0,0,1,1.61.45V216a9.26,9.26,0,0,1,3.65.72,9.45,9.45,0,0,1,3,2,9.67,9.67,0,0,1,2,2.94,9.08,9.08,0,0,1,.79,3.62h0Zm-20.13-24.35a4.11,4.11,0,0,1-1.29-3.11,4.17,4.17,0,0,1,1.29-3.11,4.65,4.65,0,0,1,1.49-.92,5.16,5.16,0,0,1,1.83-.31,4.2,4.2,0,0,1,3,1.23,4.34,4.34,0,0,1,1.2,3.11,4.27,4.27,0,0,1-1.2,3.11,4.2,4.2,0,0,1-3,1.23,5.15,5.15,0,0,1-1.83-.31A4.63,4.63,0,0,1,230.68,223.14Z"/><path class="cls-1" d="M313.07,215.75a17.49,17.49,0,0,1,2.51.2,14.5,14.5,0,0,1,2.76.69A13.76,13.76,0,0,1,321,218,9.57,9.57,0,0,1,323.4,220a10,10,0,0,1,1.63,3,11.77,11.77,0,0,1,.62,4v21.08a9.21,9.21,0,0,1-9.23-9.23V223.31a5.85,5.85,0,0,0-1.31-3.84A5.11,5.11,0,0,0,311,218a7,7,0,0,0-2,.29,11.44,11.44,0,0,0-2,.78,18.26,18.26,0,0,0-1.91,1.12q-.94.63-1.77,1.31a24.72,24.72,0,0,0-2,1.75,18.67,18.67,0,0,0-1.35,1.48,7.19,7.19,0,0,1,2.31,1,6.69,6.69,0,0,1,1.58,1.66,4.67,4.67,0,0,1,.72,2.71v17.94a9.08,9.08,0,0,1-3.6-.72,9.42,9.42,0,0,1-3-2,9.18,9.18,0,0,1-2.71-6.54V223.31a5.85,5.85,0,0,0-1.3-3.84,3.86,3.86,0,0,0-1.65-1.14,7,7,0,0,0-2.43-.37,7.9,7.9,0,0,0-3.29.77,18.82,18.82,0,0,0-3.17,1.85,23.71,23.71,0,0,0-2.69,2.23q-1.18,1.15-1.8,1.89a7.19,7.19,0,0,1,2.31,1,6.68,6.68,0,0,1,1.58,1.66,4.67,4.67,0,0,1,.74,2.71v17.39h-9.24V216h9.24v2.65a16.93,16.93,0,0,1,2.25-1.32,15.79,15.79,0,0,1,2.23-.89,16.48,16.48,0,0,1,2.07-.52,10.8,10.8,0,0,1,1.82-.17,16.87,16.87,0,0,1,2.54.22,15.18,15.18,0,0,1,2.82.72,13.62,13.62,0,0,1,2.74,1.35,9.42,9.42,0,0,1,2.35,2.14q.62-.43,1.18-.86a11.71,11.71,0,0,1,1-.67,19.51,19.51,0,0,1,4.51-2.19A12.86,12.86,0,0,1,313.07,215.75Z"/><path class="cls-1" d="M356.59,245.57a7.94,7.94,0,0,0,3.52-3.29l.74.37a8.34,8.34,0,0,1-1.83,2.2,11.71,11.71,0,0,1-2.85,1.77,17.72,17.72,0,0,1-2.25.85,14.37,14.37,0,0,1-2.46.51q-.56.06-1.14.08t-1.2,0a18.1,18.1,0,0,1-12.78-4.62,15,15,0,0,1-5-11.57,15.32,15.32,0,0,1,4.8-11.51,16.14,16.14,0,0,1,11.73-4.59,21.32,21.32,0,0,1,6.37.94,13.06,13.06,0,0,1,5.23,3.06,6.39,6.39,0,0,1,1.08,1.42,7.22,7.22,0,0,1,.78,2,8.07,8.07,0,0,1,.19,2.35,6,6,0,0,1-.75,2.49,8.43,8.43,0,0,1-2.06,2.4,13.72,13.72,0,0,1-3.7,2.08,30.7,30.7,0,0,1-5.66,1.56,53.51,53.51,0,0,1-8,.78q-.89.06-1.83.08l-2,0a8.31,8.31,0,0,1,1.94.65,6.06,6.06,0,0,1,1.51,1.06,4,4,0,0,1,1.08,1.77,12.81,12.81,0,0,0,3.54,6.1,8.89,8.89,0,0,0,5.91,2.22A11.34,11.34,0,0,0,356.59,245.57ZM343,220.46a22.71,22.71,0,0,0-2,9.79q0,.92,0,1.82t.12,1.72a25,25,0,0,0,6.29-1.35,13.33,13.33,0,0,0,3.94-2.22,7.56,7.56,0,0,0,2.08-2.69,8.66,8.66,0,0,0,0-6.88,7.65,7.65,0,0,0-2.17-2.88,5.4,5.4,0,0,0-3.46-1.06Q344.86,216.71,343,220.46Z"/><path class="cls-1" d="M368.52,211.16a4.49,4.49,0,0,1-1.45-3.48,4.42,4.42,0,0,1,1.45-3.42,5.15,5.15,0,0,1,3.66-1.39,4.57,4.57,0,0,1,3.36,1.39,4.63,4.63,0,0,1,1.32,3.42,4.71,4.71,0,0,1-1.32,3.48,4.57,4.57,0,0,1-3.36,1.39A5.15,5.15,0,0,1,368.52,211.16Zm-1.26,4.09v24.07a8.83,8.83,0,0,0,.93,3.43,9.84,9.84,0,0,0,2.06,2.77,9.42,9.42,0,0,0,2.92,1.86,9.29,9.29,0,0,0,3.54.67V224a9.57,9.57,0,0,0-.94-3.45,9.42,9.42,0,0,0-2.06-2.79,9.68,9.68,0,0,0-2.92-1.86,9.18,9.18,0,0,0-3.52-.67Z"/><path class="cls-1" d="M384.6,215.26a9.18,9.18,0,0,1,3.53.67,9.69,9.69,0,0,1,2.94,1.86,9.42,9.42,0,0,1,2.06,2.79,9.56,9.56,0,0,1,.94,3.45v24a9.3,9.3,0,0,1-3.54-.67,9.42,9.42,0,0,1-2.92-1.86,9.85,9.85,0,0,1-2.06-2.77,8.83,8.83,0,0,1-.92-3.43ZM397,223.14a4.11,4.11,0,0,1-1.29-3.11,4.17,4.17,0,0,1,1.29-3.11,4.79,4.79,0,0,1,3.29-1.23,4.24,4.24,0,0,1,3,1.23,4.34,4.34,0,0,1,1.2,3.11,4.16,4.16,0,0,1-4,4.34h-.24a4.79,4.79,0,0,1-3.31-1.23Z"/><path class="cls-1" d="M433.32,245.57a7.94,7.94,0,0,0,3.49-3.29l.74.37a8.34,8.34,0,0,1-1.82,2.19,11.71,11.71,0,0,1-2.85,1.77,17.72,17.72,0,0,1-2.25.85,14.37,14.37,0,0,1-2.46.51q-.56.06-1.14.08t-1.2,0a18.1,18.1,0,0,1-12.78-4.62,15,15,0,0,1-5-11.57,15.32,15.32,0,0,1,4.8-11.51,16.14,16.14,0,0,1,11.73-4.59,21.32,21.32,0,0,1,6.37.94,13.06,13.06,0,0,1,5.23,3.09,6.39,6.39,0,0,1,1.08,1.42,7.22,7.22,0,0,1,.78,2,8.07,8.07,0,0,1,.19,2.35,6,6,0,0,1-.75,2.49,8.43,8.43,0,0,1-2.06,2.4,13.72,13.72,0,0,1-3.7,2.08,30.7,30.7,0,0,1-5.64,1.54,53.51,53.51,0,0,1-8,.78q-.89.06-1.83.08l-2,0a8.31,8.31,0,0,1,1.94.65,6.06,6.06,0,0,1,1.51,1.06,4,4,0,0,1,1.08,1.77,12.81,12.81,0,0,0,3.54,6.1,8.89,8.89,0,0,0,5.91,2.22A11.34,11.34,0,0,0,433.32,245.57Zm-13.57-25.11a22.71,22.71,0,0,0-2,9.79q0,.92,0,1.82t.12,1.72a25,25,0,0,0,6.29-1.35,13.33,13.33,0,0,0,3.94-2.22,7.56,7.56,0,0,0,2.08-2.69,8.66,8.66,0,0,0,0-6.88,7.65,7.65,0,0,0-2.18-2.89,5.4,5.4,0,0,0-3.46-1.06Q421.59,216.71,419.75,220.46Z"/><path class="cls-1" d="M456.86,247.74a16.94,16.94,0,0,1-3.23.34,9.38,9.38,0,0,1-3.66-.72,9.25,9.25,0,0,1-3-2,10,10,0,0,1-2-3,9,9,0,0,1-.8-3.63V202.12a9.18,9.18,0,0,1,3.53.67,9.68,9.68,0,0,1,2.92,1.86,9.42,9.42,0,0,1,2.06,2.79,9.56,9.56,0,0,1,.94,3.45l.06,30.65a5.11,5.11,0,0,0,1.23,3.48,3.88,3.88,0,0,0,3,1.39,3.79,3.79,0,0,0,1.39-.28l.52.65A11,11,0,0,1,456.86,247.74Z"/><path class="cls-1" d="M488,245.57a7.94,7.94,0,0,0,3.51-3.29l.74.37a8.34,8.34,0,0,1-1.83,2.2,11.71,11.71,0,0,1-2.85,1.77,17.72,17.72,0,0,1-2.25.85,14.37,14.37,0,0,1-2.46.51q-.56.06-1.14.08t-1.2,0a18.1,18.1,0,0,1-12.78-4.62,15,15,0,0,1-5-11.57,15.32,15.32,0,0,1,4.8-11.51,16.14,16.14,0,0,1,11.73-4.59,21.32,21.32,0,0,1,6.37.94,13.06,13.06,0,0,1,5.23,3.06,6.39,6.39,0,0,1,1.08,1.42,7.22,7.22,0,0,1,.78,2,8.07,8.07,0,0,1,.19,2.35,6,6,0,0,1-.75,2.49,8.43,8.43,0,0,1-2.06,2.4,13.72,13.72,0,0,1-3.7,2.08,30.7,30.7,0,0,1-5.65,1.56,53.51,53.51,0,0,1-8,.78q-.89.06-1.83.08l-2,0a8.31,8.31,0,0,1,1.94.65,6.06,6.06,0,0,1,1.51,1.06,4,4,0,0,1,1.08,1.77,12.81,12.81,0,0,0,3.54,6.1,8.89,8.89,0,0,0,5.91,2.22A11.34,11.34,0,0,0,488,245.57Zm-13.57-25.12a22.71,22.71,0,0,0-2,9.79q0,.92,0,1.82t.12,1.72a25,25,0,0,0,6.29-1.35,13.33,13.33,0,0,0,3.94-2.22,7.56,7.56,0,0,0,2.08-2.69,8.66,8.66,0,0,0,0-6.88,7.65,7.65,0,0,0-2.17-2.88,5.4,5.4,0,0,0-3.46-1.06q-3,0-4.86,3.75Z"/></svg>