<svg id="Camada_1" data-name="Camada 1" xmlns="http://www.w3.org/2000/svg" viewBox="0 0 599.7 450.2"><defs><style>.cls-1{fill:#fff;}</style></defs><title>22-CARLOSHIGOR</title><rect width="599.7" height="450.2"/><g id="Camada_3" data-name="Camada 3"><path class="cls-1" d="M135.93,303a8.57,8.57,0,0,1-8.19,8.6h-4.19A8.57,8.57,0,0,1,115,303v-51.8a8.57,8.57,0,0,1,8.55-8.6h4.21a8.51,8.51,0,0,1,8.19,8.6v10.34c0,2.22-1,3.28-1.8,3.67l-5,2.32V252.34a3.67,3.67,0,1,0-7.34,0V301.7a3.67,3.67,0,1,0,7.34,0h0v-9.08c0-2.22,1-3.28,1.8-3.77.57-.29,3.24-1.45,5-2.22Z"/><path class="cls-1" d="M171.68,310.88h-7.53l-6-46.56-6,46.56h-7.53l10.1-67.61h3.71c2.86,0,3.33,1.84,3.61,3.67Z"/><path class="cls-1" d="M193.66,310.88V286.14c0-3.28-1.71-4.35-3.52-4.35h-3.61v29.08h-6.86v-67.6h12.46a8.46,8.46,0,0,1,8.38,8.5v20.86s.28,5.31-2.48,6c2.67,1.35,2.48,6.38,2.48,6.38v25.89Zm-3.52-35.65c1.8,0,3.52-.77,3.52-3.86V253.2a3.24,3.24,0,0,0-3.52-3.48h-3.61v25.5Z"/><path class="cls-1" d="M238.56,304c-.76,1.74-1.9,4.44-2.19,5a3.87,3.87,0,0,1-3.71,1.84H216.27V243.27H221a2.2,2.2,0,0,1,2.09,2.13V304Z"/><path class="cls-1" d="M257.52,242.59a8.65,8.65,0,0,1,8.29,8.6v51.89a8.63,8.63,0,0,1-8.29,8.5h-5.24a8.68,8.68,0,0,1-8.57-8.5V251.19a8.57,8.57,0,0,1,8.55-8.6h5.26Zm-2.29,62.89a3.67,3.67,0,0,0,3.61-3.73V252.44a3.67,3.67,0,0,0-3.57-3.77h-1.09a3.79,3.79,0,0,0-3.61,3.77V301.7a3.79,3.79,0,0,0,3.61,3.77Z"/><path class="cls-1" d="M293,260.26v-7.82a3.61,3.61,0,0,0-7.22,0v6.47c0,4,3,9.08,3,9.08l8.19,15.65c3.33,6.18,3.05,10.72,3.05,10.72V303a8.57,8.57,0,0,1-8.55,8.6h-4.31a8.72,8.72,0,0,1-8.31-8.59v-7a4,4,0,0,1,1.9-3.77c.57-.19,3.33-1.45,5-2.22V301.8a3.61,3.61,0,0,0,7.22-.09h0V294c0-4-3-9.18-3-9.18l-8.19-15.55c-3.33-6.18-3.05-10.72-3.05-10.72v-7c0-4.73,3.81-9,8.57-9h4.29c4.57.09,8.29,4.35,8.29,9v2.61a4,4,0,0,1-1.9,3.77C297.44,258.24,294.77,259.51,293,260.26Z"/><path class="cls-1" d="M355.31,243.27a2.58,2.58,0,0,1,2.76,2.71v64.9h-6.86V281.42a1.67,1.67,0,0,0-1.62-1.54h-7.43v31h-6.86V246a2.58,2.58,0,0,1,2.44-2.71h4.42v27.34c0,1.93.76,2.41,2.38,2.41h6.67V243.27Z"/><path class="cls-1" d="M376.7,243.27a2.63,2.63,0,0,1,2.76,2.5q0,.11,0,.21v64.9h-4.86c-1.62,0-1.9-1-2-1.45V243.27Z"/><path class="cls-1" d="M416.32,261.71c0,2.32-1,3.28-1.9,3.77-.48.29-3.16,1.55-5,2.32V252.34a3.61,3.61,0,0,0-7.22,0V301.8a3.61,3.61,0,1,0,7.22,0V281.62h-.28c-1.53,0-2.48-2.22-2.48-2.22l-2.29-4.83H413c2.09,0,3.33,1.16,3.33,3.77V303a8.65,8.65,0,0,1-8.29,8.6h-4.18a8.57,8.57,0,0,1-8.48-8.6V251.19a8.57,8.57,0,0,1,8.48-8.6H408a8.65,8.65,0,0,1,8.29,8.6Z"/><path class="cls-1" d="M442.9,242.59a8.65,8.65,0,0,1,8.29,8.6v51.89a8.63,8.63,0,0,1-8.29,8.5h-5.24a8.68,8.68,0,0,1-8.57-8.5V251.19a8.57,8.57,0,0,1,8.55-8.6h5.26Zm-2.29,62.89a3.67,3.67,0,0,0,3.61-3.73V252.44a3.67,3.67,0,0,0-3.57-3.77h-1.09a3.79,3.79,0,0,0-3.61,3.77V301.7a3.79,3.79,0,0,0,3.61,3.77Z"/><path class="cls-1" d="M477.86,310.88V286.14c0-3.28-1.71-4.35-3.52-4.35h-3.61v29.08h-6.87v-67.6h12.48a8.46,8.46,0,0,1,8.38,8.5v20.86s.28,5.31-2.48,6c2.67,1.35,2.48,6.38,2.48,6.38v25.89Zm-3.52-35.65c1.8,0,3.52-.77,3.52-3.86V253.2a3.24,3.24,0,0,0-3.52-3.48h-3.61v25.5Z"/><path class="cls-1" d="M188.27,338.34v-17h2v7h7.87v-7h2v17h-2v-8h-7.87v8Z"/><path class="cls-1" d="M210.41,336.82a6.91,6.91,0,0,1-1.94,1.35,5.06,5.06,0,0,1-2.09.45,3.85,3.85,0,0,1-2.73-.95,3.33,3.33,0,0,1-1-2.56,3.68,3.68,0,0,1,.48-1.89,3.41,3.41,0,0,1,1.31-1.29,7.33,7.33,0,0,1,2.52-.68,15.08,15.08,0,0,0,3.33-.73V330a2.53,2.53,0,0,0-.49-1.77,2.78,2.78,0,0,0-2.13-.74,2.47,2.47,0,0,0-2.88,2.35l-1.8-.28a4.56,4.56,0,0,1,1.58-2.88,5.55,5.55,0,0,1,3.41-.9,5.21,5.21,0,0,1,2.71.6,2.6,2.6,0,0,1,1.24,1.48,9.7,9.7,0,0,1,.26,2.57v2.78a32.55,32.55,0,0,0,.12,3.68,5.15,5.15,0,0,0,.45,1.48h-1.94A4.81,4.81,0,0,1,210.41,336.82Zm-.15-4.66a12.56,12.56,0,0,1-3,.79,6.11,6.11,0,0,0-1.64.42,1.75,1.75,0,0,0-.72.67,1.92,1.92,0,0,0-.26,1,1.8,1.8,0,0,0,.59,1.41,2.37,2.37,0,0,0,1.64.53,3.52,3.52,0,0,0,1.8-.47,3.05,3.05,0,0,0,1.21-1.27,5.24,5.24,0,0,0,.4-2.31Z"/><path class="cls-1" d="M215,338.34V326h1.67v1.86a5.23,5.23,0,0,1,1.18-1.72,1.89,1.89,0,0,1,1.2-.42,3.34,3.34,0,0,1,1.92.67l-.63,1.94a2.47,2.47,0,0,0-1.35-.45,1.72,1.72,0,0,0-1.08.38,2,2,0,0,0-.69,1.06,8.9,8.9,0,0,0-.35,2.54v6.44Z"/><path class="cls-1" d="M222.08,338.34V326h1.66v1.71a4,4,0,0,1,1.42-1.48,3.61,3.61,0,0,1,1.9-.52,3.38,3.38,0,0,1,2,.55,3,3,0,0,1,1.14,1.6,4.81,4.81,0,0,1,1.51-1.61,3.48,3.48,0,0,1,1.89-.54,3.22,3.22,0,0,1,2.49,1,4.59,4.59,0,0,1,.9,3.16v8.44H235.1v-7.77a5.87,5.87,0,0,0-.21-1.87,1.7,1.7,0,0,0-.68-.85,1.9,1.9,0,0,0-1.05-.3,2.48,2.48,0,0,0-2,.88,4.14,4.14,0,0,0-.76,2.75v7.15h-1.85v-8a3.48,3.48,0,0,0-.51-2.16,1.71,1.71,0,0,0-1.4-.63,2.41,2.41,0,0,0-2,.94,5.86,5.86,0,0,0-.74,3.45v6.38Z"/><path class="cls-1" d="M239,332.18a7,7,0,0,1,1.45-4.81,5,5,0,0,1,7-.33q.18.16.33.33a6.73,6.73,0,0,1,1.47,4.68A7.22,7.22,0,0,1,247.8,337a5,5,0,0,1-7,.35q-.18-.17-.35-.35A7,7,0,0,1,239,332.18Zm1.9,0a5.58,5.58,0,0,0,.94,3.55,2.9,2.9,0,0,0,2.34,1.16,2.8,2.8,0,0,0,2.26-1.18,7.14,7.14,0,0,0,0-7.08,2.9,2.9,0,0,0-2.34-1.16,2.79,2.79,0,0,0-2.26,1.17,5.5,5.5,0,0,0-1,3.52Z"/><path class="cls-1" d="M251.44,338.34V326h1.67v1.74a4.12,4.12,0,0,1,1.48-1.51,4,4,0,0,1,2-.5,4.11,4.11,0,0,1,1.63.32,3.34,3.34,0,0,1,1.2.83,3.29,3.29,0,0,1,.69,1.35,10.31,10.31,0,0,1,.23,2.52v7.56h-1.85v-7.51a5.71,5.71,0,0,0-.25-2,2,2,0,0,0-.79-1,2.26,2.26,0,0,0-1.24-.34,2.67,2.67,0,0,0-2.13.9,4.82,4.82,0,0,0-.79,3.16v6.72Z"/><path class="cls-1" d="M263.2,323.76v-2.4H265v2.4Zm0,14.57V326H265v12.3Z"/><path class="cls-1" d="M266.94,338.34v-1.69l7-9q-1.2.07-2.1.07h-4.47V326h9v1.38l-6,7.8-1.15,1.43q1.25-.1,2.34-.1h5.08v1.8Z"/><path class="cls-1" d="M285.61,336.82a6.91,6.91,0,0,1-1.94,1.35,5.06,5.06,0,0,1-2.09.45,3.85,3.85,0,0,1-2.73-.95,3.33,3.33,0,0,1-1-2.56,3.68,3.68,0,0,1,.48-1.89,3.41,3.41,0,0,1,1.31-1.29,7.33,7.33,0,0,1,2.52-.68,15.08,15.08,0,0,0,3.33-.73V330a2.53,2.53,0,0,0-.49-1.77,2.78,2.78,0,0,0-2.13-.74,2.47,2.47,0,0,0-2.88,2.35l-1.8-.28a4.56,4.56,0,0,1,1.58-2.88,5.55,5.55,0,0,1,3.41-.9,5.21,5.21,0,0,1,2.71.6,2.6,2.6,0,0,1,1.24,1.48,9.7,9.7,0,0,1,.26,2.57v2.78a32.55,32.55,0,0,0,.12,3.68,5.15,5.15,0,0,0,.45,1.48H286A4.81,4.81,0,0,1,285.61,336.82Zm-.15-4.66a12.56,12.56,0,0,1-3,.79,6.11,6.11,0,0,0-1.64.42,1.75,1.75,0,0,0-.72.67,1.92,1.92,0,0,0-.26,1,1.8,1.8,0,0,0,.59,1.41A2.37,2.37,0,0,0,282,337a3.52,3.52,0,0,0,1.8-.47,3.05,3.05,0,0,0,1.21-1.27,5.24,5.24,0,0,0,.4-2.31Z"/><path class="cls-1" d="M297.4,333.83l1.8.27a5.41,5.41,0,0,1-1.58,3.36,4.35,4.35,0,0,1-3,1.16A4.46,4.46,0,0,1,291,337a9,9,0,0,1,0-9.62,4.58,4.58,0,0,1,3.61-1.6,4.32,4.32,0,0,1,2.87,1,4.64,4.64,0,0,1,1.49,2.92l-1.8.3a3.48,3.48,0,0,0-.9-1.86,2.22,2.22,0,0,0-1.57-.62,2.8,2.8,0,0,0-2.26,1.12,5.63,5.63,0,0,0-.9,3.55,6,6,0,0,0,.86,3.64,2.67,2.67,0,0,0,2.21,1.12,2.46,2.46,0,0,0,1.8-.75A3.89,3.89,0,0,0,297.4,333.83Zm-3.92,6.29.54-2h1.39l-.35,1.24a2.18,2.18,0,0,1,1.32.59,1.58,1.58,0,0,1,.45,1.14,1.9,1.9,0,0,1-.79,1.53,3.33,3.33,0,0,1-2.14.63,7.36,7.36,0,0,1-1.53-.14l.1-1.35q.67,0,1,0a2.37,2.37,0,0,0,1.23-.24.72.72,0,0,0,.38-.62.63.63,0,0,0-.35-.56A2.86,2.86,0,0,0,293.49,340.12Z"/><path class="cls-1" d="M307.94,336.82a6.91,6.91,0,0,1-1.94,1.35,5.06,5.06,0,0,1-2.09.45,3.85,3.85,0,0,1-2.73-.95,3.33,3.33,0,0,1-1-2.56,3.68,3.68,0,0,1,.48-1.89,3.41,3.41,0,0,1,1.31-1.29,7.32,7.32,0,0,1,2.54-.69,15.08,15.08,0,0,0,3.33-.73V330a2.53,2.53,0,0,0-.49-1.77,2.78,2.78,0,0,0-2.13-.74,2.47,2.47,0,0,0-2.88,2.35l-1.8-.28a4.56,4.56,0,0,1,1.58-2.88,5.55,5.55,0,0,1,3.41-.9,5.21,5.21,0,0,1,2.71.6,2.61,2.61,0,0,1,1.24,1.48,9.71,9.71,0,0,1,.26,2.57v2.78a32.58,32.58,0,0,0,.12,3.68,5.16,5.16,0,0,0,.45,1.48h-1.94A4.81,4.81,0,0,1,307.94,336.82Zm-6.23-12.33a2.79,2.79,0,0,1,.6-1.94,1.9,1.9,0,0,1,1.48-.69,3.87,3.87,0,0,1,1.75.63,2.13,2.13,0,0,0,1,.35.63.63,0,0,0,.51-.2,1.63,1.63,0,0,0,.24-.79h1.35a3.06,3.06,0,0,1-.61,2,1.8,1.8,0,0,1-1.43.65,3.61,3.61,0,0,1-1.7-.65,2.37,2.37,0,0,0-1-.42.71.71,0,0,0-.56.27,1.25,1.25,0,0,0-.23.82Zm6.08,7.67a12.56,12.56,0,0,1-3,.79,6.11,6.11,0,0,0-1.64.42,1.74,1.74,0,0,0-.72.67,1.93,1.93,0,0,0-.26,1,1.8,1.8,0,0,0,.59,1.41,2.37,2.37,0,0,0,1.64.53,3.52,3.52,0,0,0,1.8-.47,3.05,3.05,0,0,0,1.21-1.27,5.24,5.24,0,0,0,.4-2.31Z"/><path class="cls-1" d="M311.86,332.18a7,7,0,0,1,1.45-4.81,5,5,0,0,1,7-.33q.18.16.33.33a6.73,6.73,0,0,1,1.47,4.68,7.22,7.22,0,0,1-1.45,4.93,5,5,0,0,1-7,.35q-.18-.17-.35-.35A7,7,0,0,1,311.86,332.18Zm1.9,0a5.58,5.58,0,0,0,.94,3.55A2.9,2.9,0,0,0,317,336.9a2.8,2.8,0,0,0,2.26-1.18,7.14,7.14,0,0,0,0-7.08,2.9,2.9,0,0,0-2.34-1.16,2.79,2.79,0,0,0-2.26,1.17,5.56,5.56,0,0,0-.94,3.52Z"/><path class="cls-1" d="M329.9,330.07q0-4.34,2.08-6.67a6.91,6.91,0,0,1,8.83-1.29,7.17,7.17,0,0,1,2.61,3,10.74,10.74,0,0,1,1,4.73,9.67,9.67,0,0,1-1.86,6.15,6.51,6.51,0,0,1-5.37,2.62,6.44,6.44,0,0,1-5.39-2.71A9.41,9.41,0,0,1,329.9,330.07Zm2.07,0a7.16,7.16,0,0,0,1.5,4.87,4.75,4.75,0,0,0,7.35,0,7.73,7.73,0,0,0,1.49-5.14,9.55,9.55,0,0,0-.77-3.92,4.9,4.9,0,0,0-1.78-2.12,4.59,4.59,0,0,0-2.6-.79,4.67,4.67,0,0,0-3.73,1.74Q332,326.46,332,330.1Z"/><path class="cls-1" d="M346.65,338.34V326h1.67v1.86a5.22,5.22,0,0,1,1.18-1.72,1.89,1.89,0,0,1,1.2-.42,3.34,3.34,0,0,1,1.9.67l-.63,1.94a2.47,2.47,0,0,0-1.35-.45,1.72,1.72,0,0,0-1.08.38,2,2,0,0,0-.69,1.06,8.89,8.89,0,0,0-.35,2.54v6.44Z"/><path class="cls-1" d="M353,332.18a7,7,0,0,1,1.45-4.81,5,5,0,0,1,7-.33q.18.16.33.33a6.73,6.73,0,0,1,1.47,4.68,7.22,7.22,0,0,1-1.45,4.93,5,5,0,0,1-7,.35q-.18-.17-.35-.35A7,7,0,0,1,353,332.18Zm1.9,0a5.58,5.58,0,0,0,.94,3.55,2.9,2.9,0,0,0,2.35,1.16,2.8,2.8,0,0,0,2.26-1.18,5.82,5.82,0,0,0,.9-3.56,5.55,5.55,0,0,0-.94-3.54,2.9,2.9,0,0,0-2.34-1.16,2.79,2.79,0,0,0-2.26,1.17,5.77,5.77,0,0,0-.91,3.54Z"/><path class="cls-1" d="M366,338.34V327.65h-1.65V326H366v-1.31a5.5,5.5,0,0,1,.33-2.17,2.35,2.35,0,0,1,1-1.11,3.41,3.41,0,0,1,1.7-.38,7.74,7.74,0,0,1,1.74.22l-.28,1.8a5.6,5.6,0,0,0-1.1-.12,1.53,1.53,0,0,0-1.19.4,2.35,2.35,0,0,0-.36,1.52V326h2.14v1.62h-2.14v10.68Z"/><path class="cls-1" d="M378.49,336.82a6.91,6.91,0,0,1-1.94,1.35,5.06,5.06,0,0,1-2.09.45,3.85,3.85,0,0,1-2.73-.95,3.33,3.33,0,0,1-1-2.56,3.68,3.68,0,0,1,.48-1.89,3.41,3.41,0,0,1,1.31-1.29,7.32,7.32,0,0,1,2.52-.68,15.08,15.08,0,0,0,3.33-.73V330a2.53,2.53,0,0,0-.49-1.77,2.78,2.78,0,0,0-2.13-.74,2.47,2.47,0,0,0-2.88,2.35l-1.8-.28a4.56,4.56,0,0,1,1.58-2.88,5.55,5.55,0,0,1,3.41-.9,5.21,5.21,0,0,1,2.71.6,2.61,2.61,0,0,1,1.24,1.48,9.71,9.71,0,0,1,.26,2.57v2.78a32.58,32.58,0,0,0,.12,3.68,5.16,5.16,0,0,0,.45,1.48h-1.94A4.81,4.81,0,0,1,378.49,336.82Zm-.17-4.66a12.56,12.56,0,0,1-3,.79,6.11,6.11,0,0,0-1.64.42,1.74,1.74,0,0,0-.72.67,1.93,1.93,0,0,0-.26,1,1.8,1.8,0,0,0,.59,1.41,2.37,2.37,0,0,0,1.64.53,3.52,3.52,0,0,0,1.8-.47,3.05,3.05,0,0,0,1.21-1.27,5.24,5.24,0,0,0,.4-2.31Z"/><path class="cls-1" d="M390.26,333.83l1.8.27a5.41,5.41,0,0,1-1.58,3.36,4.35,4.35,0,0,1-3,1.16A4.46,4.46,0,0,1,383.9,337a7.38,7.38,0,0,1-1.36-4.82,7.16,7.16,0,0,1,1.4-4.81,4.58,4.58,0,0,1,3.61-1.6,4.32,4.32,0,0,1,2.87,1,4.64,4.64,0,0,1,1.49,2.92l-1.8.3a3.48,3.48,0,0,0-.9-1.86,2.22,2.22,0,0,0-1.57-.62,2.8,2.8,0,0,0-2.26,1.12,5.63,5.63,0,0,0-.9,3.55,6,6,0,0,0,.86,3.64,2.67,2.67,0,0,0,2.21,1.12,2.46,2.46,0,0,0,1.8-.75A3.89,3.89,0,0,0,390.26,333.83Z"/><path class="cls-1" d="M393.66,323.76v-2.4h1.85v2.4Zm0,14.57V326h1.85v12.3Z"/><path class="cls-1" d="M405.5,336.82a6.91,6.91,0,0,1-1.94,1.35,5.06,5.06,0,0,1-2.09.45,3.85,3.85,0,0,1-2.73-.95,3.33,3.33,0,0,1-1-2.56,3.68,3.68,0,0,1,.48-1.89,3.41,3.41,0,0,1,1.31-1.29,7.32,7.32,0,0,1,2.52-.68,15.08,15.08,0,0,0,3.33-.73V330a2.53,2.53,0,0,0-.49-1.77,2.78,2.78,0,0,0-2.13-.74,2.47,2.47,0,0,0-2.88,2.35l-1.8-.28a4.56,4.56,0,0,1,1.58-2.88,5.55,5.55,0,0,1,3.41-.9,5.21,5.21,0,0,1,2.71.6,2.61,2.61,0,0,1,1.24,1.48,9.71,9.71,0,0,1,.26,2.57v2.78a32.58,32.58,0,0,0,.12,3.68,5.16,5.16,0,0,0,.45,1.48h-1.94A4.81,4.81,0,0,1,405.5,336.82Zm-.15-4.66a12.56,12.56,0,0,1-3,.79,6.11,6.11,0,0,0-1.64.42,1.74,1.74,0,0,0-.72.67,1.93,1.93,0,0,0-.26,1,1.8,1.8,0,0,0,.59,1.41,2.37,2.37,0,0,0,1.64.53,3.52,3.52,0,0,0,1.8-.47,3.05,3.05,0,0,0,1.21-1.27,5.24,5.24,0,0,0,.4-2.31Z"/><path class="cls-1" d="M410.07,338.34v-17h1.85v17Z"/></g><g id="Camada_2" data-name="Camada 2"><path class="cls-1" d="M317.6,160.45l-3.16,3.16,5.51,5.51,15.44,15.44,3.87,3.87-1.88,1.88h0l-.74.74-.07.07-.75.72-.09.09-35.44,35.46H327v1.45H294.47l1.43-1.43,37.64-37.65.09-.09.74-.74-1.67-1.67-28.26,28.27-.23.23a37.25,37.25,0,0,1-11.28,7.63,36.84,36.84,0,0,1-7.35,2.28l-.39.08a37.37,37.37,0,0,1-33.73-10.26l-2.93-2.91a39.9,39.9,0,0,1,0-56.4l21.79-21.79L297.68,107h30.87l-22.48,22.48-15.39,15.39-2.22,2.22-.48.48-25.07,25.07a18.33,18.33,0,0,0-5.07,9.53l.86-.86,31.51-31.5,2.71-2.71,37.73-37.72,2.21,2.21-37.74,37.74L292.41,152l-31.25,31.24a8.31,8.31,0,0,0,1.35,9.93l2.54,2.54a8.29,8.29,0,0,0,7.07,2.33,12.28,12.28,0,0,1-1.18.45,14.8,14.8,0,0,1-7.07.19c.15.15.31.3.45.45-.41,0-.81-.12-1.2-.21A19.31,19.31,0,0,0,277,204.4l.22-.22h.51l30.71-30.72,2,2-28.15,28.15.75-.24a19.32,19.32,0,0,0,7.33-4.6l24.42-24.42,2.51-2.52-5.51-5.5-2.51,2.54L282,196a7.44,7.44,0,0,1-8.16,1.59h0l-.45-.22a7.41,7.41,0,0,1-1.9-1.38l-3.85-3.85a8.92,8.92,0,0,1,0-12.62l0,0,1-1,25.18-25.19,2.71-2.71,15.39-15.39L340.18,107l15.43,15.44L333,145,354,165.94l1.67,1.67,16.87-16.88,2.2,2.21-16.87,16.87,1.38,1.38,22.67-22.67,15.43,15.44-62.63,62.63H303.83l40-39.93L323.1,166Z"/><path class="cls-1" d="M270.94,198.54a14.67,14.67,0,0,1-6.61.62,3.55,3.55,0,0,1-.45-.45,14.8,14.8,0,0,0,7.07-.19Z"/><path class="cls-1" d="M308.45,173.47l-30.71,30.72h-.51l31-31Z"/><path class="cls-1" d="M278.46,227.93c-12.63,2.71-26.62-.48-36.38-10.22l-4-4c-11.09-11.09-13.5-27.77-8.26-41.34a36.31,36.31,0,0,1,7-11.44l22.69-22.7h0l28.38-28.37h4.4l-24.5,24.51L265,137.17l0,0h0l-22.71,22.73a37.45,37.45,0,0,0,0,52.79l4,4A39.21,39.21,0,0,0,278.46,227.93Z"/><path class="cls-1" d="M264.92,137.23l-22.71,22.71,22.68-22.71Z"/><path class="cls-1" d="M264.92,137.23l-22.71,22.71,22.68-22.71Z"/><path class="cls-1" d="M270.94,198.54a14.67,14.67,0,0,1-6.61.62,3.55,3.55,0,0,1-.45-.45,14.8,14.8,0,0,0,7.07-.19Z"/><path class="cls-1" d="M308.45,173.47l-30.71,30.72h-.51l31-31Z"/><path class="cls-1" d="M264.92,137.23l-22.71,22.71,22.68-22.71Z"/></g></svg>