<svg id="Camada_1" data-name="Camada 1" xmlns="http://www.w3.org/2000/svg" viewBox="0 0 599.7 450.2"><defs><style>.cls-1{fill:#fff;}</style></defs><title>23-SOODERMARIA</title><rect width="599.7" height="450.2"/><path class="cls-1" d="M158.75,173.29c-30,.58-51.5,24.17-51.65,51.51s21,51.92,51.63,52c28,.07,50.82-21.22,52-51.75C209.47,194.19,186.22,173.78,158.75,173.29Zm.07,100.62c-26.81.26-48.92-22-48.89-48.86s22.12-49,48.84-48.76c27.42.24,48.41,21.69,48.83,48.78C207.2,252.17,186.26,273.64,158.83,273.9Z"/><path class="cls-1" d="M399.6,224.54c-.26,1.91.2,2.24,2.06,1.9.6-.11,1.21-.16,1.74-.23.14.22.23.29.24.37.43,2.81.43,2.82-2.4,3.52-2.23.55-4.46,1.12-6.7,1.64-1.87.44-2.27,0-2-1.86q1.66-10.58,3.32-21.17a2.05,2.05,0,0,0-.14-1.25c-.22.43-.44.84-.66,1.27q-4.05,8.33-8.12,16.67a3.59,3.59,0,0,1-3.64,1.91c-1-.17-.88-.91-1-1.64-.64-5.42-1.31-10.84-2-16.26a1,1,0,0,0-.43-.67c-.34,1.94-.66,3.88-1,5.81a33.46,33.46,0,0,1-4,11.32c-3.1,5.18-9.19,7-14,4-1-.64-2.33-1.2-2.16-2.77.16-1.36,2-3.5,3.36-3.62a2.58,2.58,0,0,1,1.69.86c.76.72,1.25,1.72,2.05,2.35a2.91,2.91,0,0,0,4.26-.37,10,10,0,0,0,2.71-5.6c1.27-7.7,2.47-15.43,3.7-23.15a2.79,2.79,0,0,0,0-.6,5.27,5.27,0,0,0-4.39,2.65,11.59,11.59,0,0,0-1.81,6,4.47,4.47,0,0,1-4.18,4c-1.12,0-1.74-.38-1.67-1.6.49-7.81,4.88-13.85,13.39-14.63,4.6-.41,4.63-.41,5.77,4.08.77,3,1.48,6.06,2.09,9.11s1.09,6,1.67,9.28c.34-.61.56-1,.77-1.42,3.16-6.5,6.32-13,9.44-19.55a2.54,2.54,0,0,1,2.44-1.81,18.59,18.59,0,0,0,2.41-.36c1.64-.26,2,.11,1.76,1.75-.7,4.15-1.49,8.3-2.14,12.47C401.25,212.77,400.41,218.66,399.6,224.54Z"/><path class="cls-1" d="M320.74,187.1a12.59,12.59,0,0,0-11.38,2.33,19.05,19.05,0,0,0-6.82,11c-.37,1.58-1,2.23-2.75,2.24a10,10,0,0,0-6.88,2.51c-6.16,5.7-9.3,12.72-8.65,21.16.37,4.75,4.88,6.65,8.7,3.77a26.1,26.1,0,0,0,3.5-3.59,28.63,28.63,0,0,0,1.73-2.36c0,1.19-.06,2.24,0,3.29.22,3.19,2.29,4.76,5.3,3.68a20.57,20.57,0,0,0,4.68-2.92c2.05-1.45,1.72-3.4.92-5.57l-4.2,4.61-.64-.44c.07-.88.07-1.78.2-2.64.91-6,1.74-12,2.81-17.89A104,104,0,0,1,310.18,194c.95-3,3.24-3.71,6.23-2.4a3.77,3.77,0,0,0,5.4-2.47C322.15,188.11,321.9,187.39,320.74,187.1Zm-29.33,39-.78-.17c0-1.6-.19-3.19-.07-4.76a29.15,29.15,0,0,1,3.29-11.66c1.74-3.25,3.68-3.71,7.15-1.87A33.39,33.39,0,0,1,291.41,226.08Z"/><path class="cls-1" d="M429.91,221.66a9.75,9.75,0,0,0-1.58,1.19c-1.28,1.4-2.5,2.87-3.74,4.3-.18-.08-.35-.18-.53-.28a12.92,12.92,0,0,1,.07-1.37c1.12-7,2.21-13.91,3.41-20.85.24-1.38-.17-1.88-1.45-1.93-1.73-.07-3.44-.2-5.17-.2a12.57,12.57,0,0,0-9.28,3.91,26.6,26.6,0,0,0-6.73,12.35,18,18,0,0,0-.28,8.83,4.69,4.69,0,0,0,6.53,3.49,6.5,6.5,0,0,0,2.32-1.39c1.61-1.67,3.1-3.46,4.63-5.18,0,1-.07,2.06,0,3.13.25,3,2.23,4.46,5.16,3.54a11.58,11.58,0,0,0,3.59-2,15.07,15.07,0,0,0,2.8-3.06,5.19,5.19,0,0,0,.83-2.48A5.72,5.72,0,0,0,429.91,221.66Zm-18.57,4.46-.5-.08a15.93,15.93,0,0,1-.38-2.88,29.12,29.12,0,0,1,2-10.66,13.72,13.72,0,0,1,2.16-3.52c1.56-1.8,3.73-2.21,6.14-1.33A31,31,0,0,1,411.34,226.13Z"/><path class="cls-1" d="M492.53,222.92a1.62,1.62,0,0,0-1-1c-.3-.08-.84.34-1.13.65-.65.71-1.16,1.54-1.81,2.23s-1.57,1.56-2.38,2.33l-.35-.24c0-.65,0-1.31.14-2,1.1-6.8,2.2-13.62,3.38-20.43.22-1.28-.24-1.68-1.34-1.74l-4.32-.2a13.24,13.24,0,0,0-7.32,1.64c-6.55,3.73-11.73,15.45-10,22.78.7,3,2.35,4.68,4.93,4.42a7.35,7.35,0,0,0,3.86-1.6,59.32,59.32,0,0,0,4.8-5.27,25,25,0,0,0,0,3.41c.36,2.84,2.2,4.06,5,3.37a8.19,8.19,0,0,0,1.73-.67,15.84,15.84,0,0,0,5.62-5.65A3.08,3.08,0,0,0,492.53,222.92Zm-19.65,3.46a9.9,9.9,0,0,1-.5-1.79c-.23-5.38.54-10.54,3.74-15,1.87-2.62,3.95-3.2,6.5-2A31.49,31.49,0,0,1,472.88,226.38Z"/><path class="cls-1" d="M243.29,196.38c-.17,1.43-.38,2.86-.65,4.27A1.56,1.56,0,0,1,241,202.1a1.61,1.61,0,0,1-1.74-1.55c0-.34-.12-.66-.14-1a3.72,3.72,0,0,0-2.54-3.36,4.26,4.26,0,0,0-4.56.88,6,6,0,0,0-.71,8c1.62,2.14,3.47,4.1,5.22,6.13s3.36,4,3.92,6.6c1,4.5-1.7,9.76-6.11,12.16a14.9,14.9,0,0,1-7.56,1.78,12,12,0,0,1-6.94-2.14,2.53,2.53,0,0,1-1-1.74,3.85,3.85,0,0,1,2.35-3.5c1.3-.67,2.11.19,3.06.9a16.37,16.37,0,0,0,3.62,2.27c3.61,1.44,6.82-.73,7.09-4.62a8.07,8.07,0,0,0-2.23-5.89c-2-2.35-4-4.67-6-7-3.24-3.68-2.2-9.35-.07-12.48,3.58-5.28,9.71-6.71,15.31-3.66A2.35,2.35,0,0,1,243.29,196.38Z"/><path class="cls-1" d="M284.49,208.54c-.64-3.34-3.1-5.86-5.82-6.18a9.34,9.34,0,0,0-7.37,2.18c-5.28,4.44-7.92,10.19-8.24,17.35a32.15,32.15,0,0,0,.44,3.41c1,4.32,4.19,6.77,8.08,6a15.34,15.34,0,0,0,4.86-2,16.69,16.69,0,0,0,5.62-6.61A21,21,0,0,0,284.49,208.54Zm-9.23,16.87c-.76,1.16-1.6,2.52-3.24,2.17s-1.93-2-2.16-3.4a24.19,24.19,0,0,1,1.75-13.77,14.22,14.22,0,0,1,1.92-3.17c1.57-2,3.31-1.63,4.19.72a6.87,6.87,0,0,1,.36,1.38c.18,1.38.3,2.76.37,3.52C278.3,217.73,277.6,221.81,275.26,225.42Z"/><path class="cls-1" d="M263.16,209.71c-.59-5-3.91-8-8.45-7.28a9.76,9.76,0,0,0-4.87,2.17,30.18,30.18,0,0,0-5.45,6.58A19.15,19.15,0,0,0,241.87,225c1.06,5.4,5.35,7.75,10.45,5.7a11.93,11.93,0,0,0,3.64-2.23c4.74-4.32,7.07-9.78,7.32-16.48C263.26,211.44,263.27,210.57,263.16,209.71Zm-8.3,13.57a10.27,10.27,0,0,1-1.78,2.92c-.67.68-1.82,1.45-2.59,1.31a3.29,3.29,0,0,1-1.9-2.2,22.65,22.65,0,0,1,3-17.62c.07-.12.14-.28.26-.34.84-.44,1.74-1.27,2.52-1.18s1.55,1.15,1.76,1.94a44,44,0,0,1,.88,5.35A27.11,27.11,0,0,1,254.86,223.28Z"/><path class="cls-1" d="M329.07,222.74c-1.22-1-1.81.46-2.65.9a54.48,54.48,0,0,1-6,3.13c-1.56.6-2.72-.17-3.2-1.78a41.59,41.59,0,0,1-.8-4.38,11.34,11.34,0,0,1,1.32-.32,13.19,13.19,0,0,0,7.26-3.16c3.34-2.88,5.22-6.37,4.2-10.92a4.74,4.74,0,0,0-5.47-3.94,8.92,8.92,0,0,0-5.33,2.24A22.94,22.94,0,0,0,310.22,222c-.14,8.15,5.76,11.75,12.89,7.85a43.91,43.91,0,0,0,5.08-3.5C329.32,225.45,329.84,223.35,329.07,222.74Zm-8.3-15.31a6.48,6.48,0,0,1,1.94-1,8.09,8.09,0,0,1,.84,1.87c.66,4.21-2.22,8-6.83,8.75C317.29,213.37,318.33,210.09,320.77,207.43Z"/><path class="cls-1" d="M355.14,204.79c-.68,1.1-1.33,2.22-2,3.35a1.35,1.35,0,0,1-2.26.52,1.49,1.49,0,0,0-2.35.32c-1.81,2.52-3.58,5.08-5.27,7.67-2.44,3.73-2.88,8.05-3.49,12.33-.28,1.91-.41,2-2.34,2.15l-2.3.13c-1.69.12-2-.17-1.68-1.84,1-6,2-11.91,3-17.86.25-1.52.31-3.08.47-4.62l-.72-.31c-1.28,1.51-2.54,3.06-3.89,4.52a6.85,6.85,0,0,1-1.55.95c-.19-.6-.64-1.24-.53-1.78a6.54,6.54,0,0,1,1.12-2.83,23.79,23.79,0,0,1,3.86-3.83,7.49,7.49,0,0,1,3.25-1.33c2.41-.41,3.89.71,4.27,3.13a34.88,34.88,0,0,1,.22,4.3c.62-.86,1.15-1.73,1.8-2.47a31.18,31.18,0,0,1,3.37-3.52,5.69,5.69,0,0,1,6.43-.89C355.61,203.35,355.7,203.91,355.14,204.79Z"/><path class="cls-1" d="M453.28,204.69c-.68,1.1-1.33,2.23-2,3.36s-1.33,1.31-2.23.6a1.47,1.47,0,0,0-2.35.3c-1.73,2.41-3.37,4.87-5,7.33-2.58,3.9-3,8.44-3.61,12.89-.18,1.26-.72,1.75-2,1.74-.95,0-1.91.16-2.87.23-1.15.07-1.67-.31-1.44-1.61q1.62-9.36,3.11-18.73c.2-1.28.19-2.62.28-3.92l-.38-.16a21.46,21.46,0,0,0-1.64,1.48c-.77.86-1.44,1.8-2.2,2.68-.48.56-.78,1.69-1.84,1.08a1.82,1.82,0,0,1-.6-2.66c1.7-2.76,3.68-5.33,6.78-6.62,3.29-1.37,5.63.18,5.83,3.72.06,1,0,2.06,0,3,1.64-1.84,3.18-3.78,5-5.47a5.59,5.59,0,0,1,6.53-1C453.57,203.32,453.81,203.83,453.28,204.69Z"/><path class="cls-1" d="M463.92,227.79c-1.57,1.42-3,2.94-5.17,3.48-2.77.7-4.88-.5-5-3.34a55.46,55.46,0,0,1,.8-8.54c.32-2.57.82-5.11,1.14-7.68a25.9,25.9,0,0,0,0-3.22,6.25,6.25,0,0,1-1.24.19c-.6,0-1.69-.13-1.7-.28a6,6,0,0,1,.31-2.24c.1-.29.6-.47.94-.61,2.34-1,4.68-2,7-3,1.76-.72,2.33-.3,2,1.62-1,6.25-2,12.48-3.06,18.72-.2,1.27-.32,2.54-.49,3.83l.48.24,4.67-5C464.94,224.09,465.81,226.1,463.92,227.79Z"/><path class="cls-1" d="M464.42,196.27a4.23,4.23,0,0,1-4,4.27,4.16,4.16,0,0,1-4-4.36,4.1,4.1,0,0,1,3.95-4.24A4.14,4.14,0,0,1,464.42,196.27Z"/><path class="cls-1" d="M154,213.57l-2.45.14c0,.76-.74,2.17,1.8,1l-.18-.07C153.5,214.28,153.74,214,154,213.57Zm0,0-2.45.14c0,.76-.74,2.17,1.8,1l-.18-.07C153.5,214.28,153.74,214,154,213.57Zm0,0-2.45.14c0,.76-.74,2.17,1.8,1l-.18-.07C153.5,214.28,153.74,214,154,213.57Zm0,0-2.45.14c0,.76-.74,2.17,1.8,1l-.18-.07C153.5,214.28,153.74,214,154,213.57Zm0,0-2.45.14c0,.76-.74,2.17,1.8,1l-.18-.07C153.5,214.28,153.74,214,154,213.57Zm0,0-2.45.14c0,.76-.74,2.17,1.8,1l-.18-.07C153.5,214.28,153.74,214,154,213.57Zm0,0-2.45.14c0,.76-.74,2.17,1.8,1l-.18-.07C153.5,214.28,153.74,214,154,213.57Zm0,0-2.45.14c0,.76-.74,2.17,1.8,1l-.18-.07C153.5,214.28,153.74,214,154,213.57Zm0,0-2.45.14c0,.76-.74,2.17,1.8,1l-.18-.07C153.5,214.28,153.74,214,154,213.57Zm0,0-2.45.14c0,.76-.74,2.17,1.8,1l-.18-.07C153.5,214.28,153.74,214,154,213.57Zm0,0-2.45.14c0,.76-.74,2.17,1.8,1l-.18-.07C153.5,214.28,153.74,214,154,213.57Zm0,0-2.45.14c0,.76-.74,2.17,1.8,1l-.18-.07C153.5,214.28,153.74,214,154,213.57Zm0,0-2.45.14c0,.76-.74,2.17,1.8,1l-.18-.07C153.5,214.28,153.74,214,154,213.57Zm4.64-13.2A24.64,24.64,0,1,0,183.34,225,24.72,24.72,0,0,0,158.67,200.37ZM157.6,238a3,3,0,0,0-.85,1.27c-.3.95-1,1.25-1.74,1.79a18.07,18.07,0,0,0-3.89,4.15c-.29.37.22,1.34.41,2.29a9.86,9.86,0,0,1-3.73-6.65,5.14,5.14,0,0,0-1.94-3.74,7.06,7.06,0,0,1-2.08-3,3.6,3.6,0,0,1,.23-2.51c.52-1.2.35-1.7-.83-2.24a5.76,5.76,0,0,1-1.56-1.5c-.73-.8-1.24-1.78-2.41-2.18-.65-.23-1.58-.92-1.62-1.46-.24-3-1.81-5.94-.42-8.94a23.05,23.05,0,0,1,9.76-10.76,7,7,0,0,1,6-.61c1.1.32,2,.7,2,2.14,0,.29.42.59.65.88-1.39,2.05-2.94,2-4.6.16l2-.62c-.26-.94-.42-1.54-1.51-.78a20.29,20.29,0,0,1-3,1.48c-.56.26-1.13.52-1.67.83-1,.55-1,1.22-.29,2.09a13.56,13.56,0,0,1,1.15,1.91c.53-.77,1.12-1.76,1.84-2.66.4-.49,1.09-1.2,1.51-1.12.58.12,1,.9,1.69,1.57l.83-.3c.52,2,2.14,3.7,2,6.13l-2.05-.79h0c-.18.28-.37.58-.56.85a9.41,9.41,0,0,1-2.51.16c-.74-.14-1.24-.31-1.57.56-.1.23-.5.34-.77.49-.73.43-1.76.55-1.75,1.73a.42.42,0,0,1-.24.34c-1.9.54-2.36,1.93-2,4-.66-1.07-1-2.06-1.58-2.39a3.19,3.19,0,0,0-2.4.19c-1,.47-.94,2.68.08,4.15l1.12-1a6.17,6.17,0,0,1,.31.79c0,.08-.1.2-.07.28.42,1.24.53,2.78,1.36,3.59.67.64,2.23.49,3.38.42a7.44,7.44,0,0,1,3.68.79c.79.61,1.68,1.13,2.51,1.7.28.18.67.4.73.65.43,2.15,2.24,2.41,3.86,3C158.95,235.82,159.05,236.63,157.6,238Zm6.12-30.25a3.69,3.69,0,0,0-3.29,1.84c-.52,1.15-1.49.94-1.9.32a6.79,6.79,0,0,1-.84-3,6.6,6.6,0,0,1,.4-2c.23-1-.37-1.27-1.19-1.57-.31-.12-.36-1-.55-1.56a2,2,0,0,1,.62-.2,21,21,0,0,1,7.33,1.18c1.22.5,1.26,1.74,1.34,2.59A1.88,1.88,0,0,1,163.72,207.74Zm1.5.65,3,.73-.11.5C166.47,210.48,165.93,210.3,165.22,208.39Zm2.58,37.5c1.45-2,2.84-3.85,4.15-5.74a6.41,6.41,0,0,0,.74-1.82,10.28,10.28,0,0,1,.48-2.08c.5-.9-.26-1.21-.64-1.62a1.49,1.49,0,0,0-1.19-.28c-3.14.61-5.24-1.62-4.6-5.09a5.89,5.89,0,0,1,2.76-4.28.92.92,0,0,0,.41-.56c.18-1.42,1.33-1.5,2.33-1.6,1.24-.12,2.48,0,3.8,0L177.8,226l1-1.12c2.15,1.09,2.35,1,2.51-.64l-2-2.29c0,.2-.11.5-.19.95l-1.91-3.17-.24.14,1.19,2.46c-.12.07-.25.13-.37.19l-2-2.76a4.05,4.05,0,0,0-2.84,2c-.22.43-1.32.54-2,.52-.23,0-.54-.85-.6-1.34a7.88,7.88,0,0,1,.19-1.86l2.41.3c-.41-.88-.71-1.51-1-2.22l1.44-.56-1.92-.26v-1.7c-.19.22-.29.38-.41.43-.37.16-.77.28-1.14.41.06-.43,0-1,.23-1.25s.92-.47.44-1.14c0,0,.2-.41.29-.4a1,1,0,0,1,.71.28c.66,1,1.27,2.11,2.12,3.54.38-1.1.68-2,1-2.82-1.58-.56-2-1.56-1.45-2.9.18-.44,0-1,.16-1.51a2.09,2.09,0,0,1,.71-1.14c.18-.12.76.16,1,.4a18,18,0,0,1,6.31,9.71c.19.72.28,1.48.42,2.29l-1.57-.83c-.12.61-.25,1.22-.41,2l2.18-.24C184.53,231.3,177.1,243.8,167.8,245.89Zm-14.43-31.15-.18-.07c.3-.38.54-.71.83-1.09l-2.45.14C151.56,214.47,150.83,215.89,153.38,214.74Zm.65-1.16-2.45.14c0,.76-.74,2.17,1.8,1l-.18-.07C153.5,214.28,153.74,214,154,213.57Zm0,0-2.45.14c0,.76-.74,2.17,1.8,1l-.18-.07C153.5,214.28,153.74,214,154,213.57Zm0,0-2.45.14c0,.76-.74,2.17,1.8,1l-.18-.07C153.5,214.28,153.74,214,154,213.57Zm0,0-2.45.14c0,.76-.74,2.17,1.8,1l-.18-.07C153.5,214.28,153.74,214,154,213.57Zm0,0-2.45.14c0,.76-.74,2.17,1.8,1l-.18-.07C153.5,214.28,153.74,214,154,213.57Zm0,0-2.45.14c0,.76-.74,2.17,1.8,1l-.18-.07C153.5,214.28,153.74,214,154,213.57Zm0,0-2.45.14c0,.76-.74,2.17,1.8,1l-.18-.07C153.5,214.28,153.74,214,154,213.57Zm0,0-2.45.14c0,.76-.74,2.17,1.8,1l-.18-.07C153.5,214.28,153.74,214,154,213.57Zm0,0-2.45.14c0,.76-.74,2.17,1.8,1l-.18-.07C153.5,214.28,153.74,214,154,213.57Zm0,0-2.45.14c0,.76-.74,2.17,1.8,1l-.18-.07C153.5,214.28,153.74,214,154,213.57Zm0,0-2.45.14c0,.76-.74,2.17,1.8,1l-.18-.07C153.5,214.28,153.74,214,154,213.57Zm0,0-2.45.14c0,.76-.74,2.17,1.8,1l-.18-.07C153.5,214.28,153.74,214,154,213.57Z"/><path class="cls-1" d="M194.42,240a3.44,3.44,0,0,1-1.57,1.22,5.79,5.79,0,0,0-3.36,4.84c-.36,2.52-.74,5-1.21,7.52a5,5,0,0,1-.89,2.08c-1.18,1.57-2.53,3-3.68,4.61a11,11,0,0,1-5.15,3.5c-1.15.46-2.3.95-3.46,1.4-.9.36-1.62.32-1.63-.59l-2-.72c.26-.56.4-1.36.85-1.67a47.66,47.66,0,0,1,4.8-2.8,1.49,1.49,0,0,1,1.32.32c1.36,1.36,2.62,1.18,3.4-.65s1.44-3.76,2.23-5.6a28.09,28.09,0,0,0,1.32-3,3.38,3.38,0,0,0-.55.62q-1.58,3.29-3.11,6.61a8.77,8.77,0,0,1-.6,1.45c-.29.4-.83.92-1.16.86a1.65,1.65,0,0,1-1.16-1,8.34,8.34,0,0,1-.08-3.08c.2-1,.91-1.91,1.18-2.92a20.48,20.48,0,0,0,.66-4.16c.06-1.24-.25-2.48-.31-3.72a8.58,8.58,0,0,1,4-8.12c3.71-2.34,7.63-4.33,11.49-6.48,0,0,.18.07.19.14A14.39,14.39,0,0,1,194.42,240Z"/><path class="cls-1" d="M135.62,254.83a13.63,13.63,0,0,1-2-.91c-1.37-1-2.71-2-4-3a5.21,5.21,0,0,1-2.08-4.79,4.71,4.71,0,0,0-1.76-4.21c-2.11-1.74-4.3-3.4-6.31-5.23a9.77,9.77,0,0,1-2-2.9c-.6-1.19-.94-2.52-1.49-3.73a10.63,10.63,0,0,1-.91-6.58c.29-1.46.41-3,.64-4.42.14-1,.64-1.36,1.39-.9l1.45-1.4c.37.61,1,1.2,1.08,1.84a33.36,33.36,0,0,1,0,5.14,1.56,1.56,0,0,1-.94,1.13c-1.91.55-2.36,1.66-1.15,3.26,1,1.33,2.15,2.58,3.14,3.92.85,1.14,1.58,2.36,2.36,3.55l.4-.25c-1.25-1.87-2.48-3.76-3.77-5.59a25.56,25.56,0,0,1-1.66-2c-.29-.5-.5-1.43-.23-1.76a1.85,1.85,0,0,1,1.76-.35,7.28,7.28,0,0,1,2.93,2.15,12.82,12.82,0,0,0,6.68,5.35,9.37,9.37,0,0,1,6.46,9.29C135.65,246.41,135.62,250.42,135.62,254.83Z"/><path class="cls-1" d="M202.45,225.73a50,50,0,0,1-.62,5.14c-.14,1-.49,1.69-1.42,1.13l-1.55,1.4c-.36-.64-1-1.24-1-1.9a46.16,46.16,0,0,1,0-5,1.18,1.18,0,0,1,1.15-1.34c1.6-.22,2.05-1.27,1.28-2.69a4,4,0,0,0-.4-.6l-5.64-7.3a3.61,3.61,0,0,0,.28.79c1.42,2.05,2.86,4.09,4.28,6.12a7,7,0,0,1,.94,1.26,1.69,1.69,0,0,1,.07,1.33,1.79,1.79,0,0,1-1.36.5,4.53,4.53,0,0,1-3.59-2.39,11.61,11.61,0,0,0-6.44-5.17,9.38,9.38,0,0,1-6.52-9.24c-.06-4.06,0-8.11,0-12.42a5.58,5.58,0,0,1,1.45.48,57.84,57.84,0,0,1,5.57,4.51,4.59,4.59,0,0,1,1.07,3.12,6.19,6.19,0,0,0,2.59,5.46c1.81,1.42,3.67,2.8,5.35,4.36a10.46,10.46,0,0,1,2.16,3.12,32.78,32.78,0,0,1,2,5.23A13.36,13.36,0,0,1,202.45,225.73Z"/><path class="cls-1" d="M145.78,187.08a4.32,4.32,0,0,1-1.34,1.25c-1.2.77-2.45,1.46-3.7,2.15-.78.43-1.4.55-2.06-.38s-1.86-.95-2.64.1a6,6,0,0,0-.66,1.26c-1.12,2.5-2.21,5-3.3,7.49a5.33,5.33,0,0,0-.23.61l.42.19c1-2.08,2-4.13,3-6.22.35-.73.43-1.6.84-2.29.3-.5,1-1.19,1.4-1.13a1.78,1.78,0,0,1,1.19,1.34,10.48,10.48,0,0,1-.65,4.27,10.68,10.68,0,0,0-1.08,7.22,12.06,12.06,0,0,1,.16,3.29,8.8,8.8,0,0,1-4.15,7c-1.63,1.08-3.42,1.93-5.12,2.9s-3.55,2.06-5.34,3.1c-.28.16-.56.28-1,.5a6.39,6.39,0,0,1-.24-1.64c.19-1.9.41-3.8.71-5.69a4.87,4.87,0,0,1,3-3.82,4.92,4.92,0,0,0,2.88-3.89c.41-2.45.66-4.94,1.24-7.37a16.84,16.84,0,0,1,1.75-3.82c.26-.49.83-.83,1.1-1.32,2.24-4,6-5.83,10.15-7.26,1.38-.48,1.66-.38,2,.86a6.35,6.35,0,0,1,.94-.16C145.88,185.66,146.28,186.28,145.78,187.08Z"/><path class="cls-1" d="M185.44,192.42c.22.8.38,1.39.54,2-.71,0-1.54.37-2.1.11a47,47,0,0,1-4.58-2.62,1.06,1.06,0,0,1-.47-1.55c.64-1.4-.12-2.46-1.68-2.47a12.38,12.38,0,0,0-1.85.24,65.63,65.63,0,0,0-7.85,1.3c2.23-.16,4.48-.28,6.72-.48.85-.07,1.69-.41,2.54-.42.54,0,1.48.25,1.57.59a2,2,0,0,1-.52,1.73,7.23,7.23,0,0,1-3.3,1.51,13.36,13.36,0,0,0-8.21,3.25,9.2,9.2,0,0,1-11,.85c-3.52-2-6.92-4.2-10.42-6.32,0,0,0-.16,0-.2a14.79,14.79,0,0,1,8.66-3.36,4.77,4.77,0,0,1,2.36.92,5.23,5.23,0,0,0,4.8.58c2.56-1,5.09-2,7.68-2.86a9,9,0,0,1,3.22-.23c1.19.07,2.36.5,3.54.53,4.39.06,7.25,3,10.33,5.44C186.26,191.55,186.15,191.79,185.44,192.42Z"/><path class="cls-1" d="M172.73,260.09c-1.64,1.6-3.76,2.15-5.72,3a5.8,5.8,0,0,1-6-.66,4.19,4.19,0,0,0-4-.43c-2.52.94-5,2-7.55,2.8a12.5,12.5,0,0,1-3.91.34c-1.27,0-2.54-.42-3.83-.55a10.86,10.86,0,0,1-6.28-2.57c-1.12-1-2.36-1.8-3.48-2.78-.8-.7-.73-.86.22-1.69a3,3,0,0,1-.49-.62c-.14-.37-.37-.9-.22-1.12a1.27,1.27,0,0,1,1.1-.41,6.12,6.12,0,0,1,1.86.7c1.09.58,2.16,1.2,3.2,1.85.73.46,1.44.86.85,2s.11,2.08,1.36,2.29a1.87,1.87,0,0,0,.58,0c3.16-.42,6.32-.85,9.48-1.57-2.35.18-4.7.35-7.06.56-.85.08-1.7.36-2.54.38a1.48,1.48,0,0,1-1.19-.58,1.78,1.78,0,0,1,.2-1.43,4.5,4.5,0,0,1,3.85-1.93,11.86,11.86,0,0,0,7.81-3.07,9.37,9.37,0,0,1,11.27-.91C165.76,255.69,169.12,257.87,172.73,260.09Z"/><path class="cls-1" d="M153.47,214.69l0,.06h-.06Z"/><path class="cls-1" d="M177.26,215l-1.25.16c.14-.82.28-1.51.4-2.21l.4,0Z"/><path class="cls-1" d="M247,254.35h0l1.49-9.06h3.08V258h-2.09V248.9h0L248,258h-2.09l-1.61-9h0v9h-1.93V245.29h3.08Z"/><path class="cls-1" d="M253.23,245.29h2.21V258h-2.21Z"/><path class="cls-1" d="M260,245.15a2.91,2.91,0,0,1,3.26,3.21v.4H261.2v-.53c0-.91-.4-1.26-1.11-1.26s-1.11.35-1.11,1.26.44,1.62,1.89,2.77c1.85,1.48,2.43,2.53,2.43,4,0,2-1.13,3.21-3.3,3.21s-3.3-1.17-3.3-3.21v-.78h2.09v.91c0,.91.44,1.24,1.15,1.24s1.15-.33,1.15-1.24-.44-1.62-1.89-2.77c-1.85-1.48-2.43-2.53-2.43-4A2.91,2.91,0,0,1,260,245.15Z"/><path class="cls-1" d="M266.79,250.67h3v1.82h-3v3.74h3.82V258h-6V245.29h6v1.82h-3.82Z"/><path class="cls-1" d="M276.61,258a3.57,3.57,0,0,1-.2-1.57v-2c0-1.18-.44-1.62-1.45-1.62h-.76V258H272V245.29h3.34c2.29,0,3.28,1,3.28,2.93v1a2.47,2.47,0,0,1-1.45,2.57v0c1.11.42,1.47,1.37,1.47,2.7v2a3.43,3.43,0,0,0,.24,1.55Zm-2.41-10.93V251h.87c.82,0,1.33-.33,1.33-1.35v-1.26c0-.91-.34-1.31-1.13-1.31Z"/><path class="cls-1" d="M280.08,245.29h2.21V258h-2.21Z"/><path class="cls-1" d="M290.31,253.29V255c0,2-1.13,3.21-3.3,3.21s-3.3-1.17-3.3-3.21v-6.63c0-2,1.13-3.21,3.3-3.21s3.3,1.17,3.3,3.21v1.24h-2.09v-1.37c0-.91-.44-1.26-1.15-1.26s-1.15.35-1.15,1.26v6.89c0,.91.44,1.24,1.15,1.24s1.15-.33,1.15-1.24v-1.82Z"/><path class="cls-1" d="M291.48,248.35c0-2,1.19-3.21,3.36-3.21s3.36,1.17,3.36,3.21V255c0,2-1.19,3.21-3.36,3.21s-3.36-1.17-3.36-3.21Zm5.73-5.76-2.05,2h-1.49l1.37-2Zm-3.52,12.52c0,.91.44,1.26,1.15,1.26S296,256,296,255.12v-6.89c0-.91-.44-1.26-1.15-1.26s-1.15.35-1.15,1.26Z"/><path class="cls-1" d="M304.26,258a3.57,3.57,0,0,1-.2-1.57v-2c0-1.18-.44-1.62-1.45-1.62h-.76V258h-2.21V245.29H303c2.29,0,3.28,1,3.28,2.93v1a2.47,2.47,0,0,1-1.45,2.57v0c1.11.42,1.47,1.37,1.47,2.7v2a3.43,3.43,0,0,0,.24,1.55Zm-2.41-10.93V251h.87c.82,0,1.33-.33,1.33-1.35v-1.26c0-.91-.34-1.31-1.13-1.31Z"/><path class="cls-1" d="M307.72,245.29h3.5c2.21,0,3.3,1.11,3.3,3.15v6.45c0,2-1.09,3.15-3.3,3.15h-3.5Zm2.21,1.82v9.11h1.25c.7,0,1.13-.33,1.13-1.24v-6.63c0-.91-.42-1.24-1.13-1.24Z"/><path class="cls-1" d="M315.93,245.29h2.21V258h-2.21Z"/><path class="cls-1" d="M326.91,258h-2.23l-.38-2.31h-2.71L321.2,258h-2l2.25-12.75h3.24Zm-5-4H324l-1-6.45h0Z"/><path class="cls-1" d="M336.53,254.9v-6.82a3.1,3.1,0,0,1,6.19,0v1.44h-1.94v-1.44a1.14,1.14,0,1,0-2.27,0v6.82a1.14,1.14,0,1,0,2.27,0v-1.76h1.94v1.76a3.1,3.1,0,0,1-6.19,0Z"/><path class="cls-1" d="M348.43,254.92H346.3l-.43,2.73h-2l2.16-12.3h2.65l2.16,12.3h-2Zm-.26-1.79-.8-5.15-.8,5.15Z"/><path class="cls-1" d="M356.83,257.65l-1.43-5.08h-1v5.08h-2v-12.3h3.09a2.83,2.83,0,0,1,3.09,2.94v1.35a2.76,2.76,0,0,1-1.36,2.51l1.66,5.5Zm-2.46-6.84h1a1.08,1.08,0,0,0,1.21-1.14v-1.42a1.08,1.08,0,0,0-1.21-1.14h-1Z"/><path class="cls-1" d="M360.51,245.34h2v12.3h-2Z"/><path class="cls-1" d="M364.65,245.34h3.09a2.83,2.83,0,0,1,3.09,2.94v6.43a2.83,2.83,0,0,1-3.09,2.94h-3.09Zm3,10.55a1.08,1.08,0,0,0,1.21-1.14v-6.5a1.08,1.08,0,0,0-1.21-1.14h-1v8.79Z"/><path class="cls-1" d="M376.69,254.92h-2.12l-.43,2.73h-2l2.16-12.3H377l2.16,12.3h-2Zm-.26-1.79-.8-5.15-.8,5.15Z"/><path class="cls-1" d="M380.67,245.34h3.09a2.83,2.83,0,0,1,3.09,2.94v6.43a2.83,2.83,0,0,1-3.09,2.94h-3.09Zm3,10.55a1.08,1.08,0,0,0,1.21-1.14v-6.5a1.08,1.08,0,0,0-1.21-1.14h-1v8.79Z"/><path class="cls-1" d="M388.83,245.34h5.61v1.76h-3.63v3.43h2.89v1.76h-2.89v3.6h3.63v1.76h-5.61Z"/><path class="cls-1" d="M404.38,245.46h2.19v12.41h-2.19Z"/><path class="cls-1" d="M411.45,251h3.07v3.94c0,2-1.12,3.12-3.27,3.12s-3.27-1.13-3.27-3.12v-6.45c0-2,1.11-3.12,3.27-3.12s3.27,1.13,3.27,3.12v1.21h-2.07v-1.33c0-.89-.44-1.22-1.14-1.22s-1.14.34-1.14,1.22V255c0,.89.44,1.21,1.14,1.21s1.14-.32,1.14-1.21v-2.29h-1Z"/><path class="cls-1" d="M418,245.46V255c0,.89.44,1.21,1.14,1.21s1.14-.32,1.14-1.21v-9.57h2.07v9.45c0,2-1.12,3.12-3.27,3.12s-3.27-1.13-3.27-3.12v-9.45Z"/><path class="cls-1" d="M431,257.87h-2.21l-.38-2.25h-2.69l-.38,2.25h-2l2.23-12.41h3.21Zm-5-3.93h2.11l-1-6.28h0Z"/><path class="cls-1" d="M432,245.46h2.19v10.64h3.61v1.77H432Z"/><path class="cls-1" d="M438.74,245.46h3.47c2.19,0,3.27,1.08,3.27,3.07v6.27c0,2-1.08,3.07-3.27,3.07h-3.47Zm2.19,1.77v8.86h1.24c.7,0,1.11-.32,1.11-1.21v-6.45c0-.89-.42-1.21-1.11-1.21Z"/><path class="cls-1" d="M453.95,257.87h-2.21l-.38-2.25h-2.69l-.38,2.25h-2l2.23-12.41h3.21Zm-5-3.93h2.11l-1-6.28h0Z"/><path class="cls-1" d="M455,245.46h3.47c2.19,0,3.27,1.08,3.27,3.07v6.27c0,2-1.08,3.07-3.27,3.07H455Zm2.19,1.77v8.86h1.24c.7,0,1.11-.32,1.11-1.21v-6.45c0-.89-.42-1.21-1.11-1.21Z"/><path class="cls-1" d="M465.29,250.69h3v1.77h-3v3.63h3.79v1.77h-6V245.46h6v1.77h-3.79Z"/><path class="cls-1" d="M329.94,253.2h2.88v1.44h-2.88Z"/><path class="cls-1" d="M397.58,253.22h2.88v1.44h-2.88Z"/><path class="cls-1" d="M279.76,272.47l2.75-4.58h1.24v7.4H282.5v-5.16l-2.22,3.7h-1.06L277,270.1v5.18h-1.24v-7.4H277Z"/><path class="cls-1" d="M290.7,269h-4v2h3.58v1.11H286.7v2h4.1v1.12h-5.4v-7.4h5.29Z"/><path class="cls-1" d="M296.86,275.28l-1.74-2.55-.48,0h-1.32v2.53H292v-7.4h2.6c2,0,3.19,1,3.19,2.44a2.25,2.25,0,0,1-1.5,2.14l2,2.82Zm-2.2-3.62c1.27,0,1.91-.48,1.91-1.33s-.66-1.34-1.91-1.34h-1.33v2.67Z"/><path class="cls-1" d="M302.67,267.74a3.76,3.76,0,0,1,3.22,1.66l-1.11.61a2.47,2.47,0,0,0-2.12-1.11,2.68,2.68,0,0,0,0,5.35,2.47,2.47,0,0,0,2.12-1.11l1.11.61a3.77,3.77,0,0,1-3.22,1.66,3.84,3.84,0,1,1,0-7.68Z"/><path class="cls-1" d="M307.7,267.88l2.14,3.58,2.15-3.58h1.41l-2.93,4.76v2.64h-1.28v-2.64l-2.93-4.76Z"/><path class="cls-1" d="M320.12,273.14h-3.8V272h3.8Z"/><path class="cls-1" d="M327.17,267.74a3.76,3.76,0,0,1,3.22,1.66l-1.11.61a2.47,2.47,0,0,0-2.12-1.11,2.68,2.68,0,0,0,0,5.35,2.47,2.47,0,0,0,2.12-1.11l1.11.61a3.77,3.77,0,0,1-3.22,1.66,3.84,3.84,0,1,1,0-7.68Z"/><path class="cls-1" d="M332.88,271h3.95v-3.12h1.28v7.4h-1.28v-3.14h-3.95v3.14h-1.29v-7.4h1.29Z"/><path class="cls-1" d="M344.37,273.61H341l-.67,1.67H339l3-7.4h1.31l3,7.4H345Zm-.41-1.06-1.27-3.17-1.27,3.17Z"/><path class="cls-1" d="M352.1,275.28l-1.74-2.55-.48,0h-1.32v2.53h-1.28v-7.4h2.6c2,0,3.19,1,3.19,2.44a2.25,2.25,0,0,1-1.5,2.14l2,2.82Zm-2.2-3.62c1.27,0,1.91-.48,1.91-1.33s-.66-1.34-1.91-1.34h-1.33v2.67Z"/><path class="cls-1" d="M355.78,275.28h-1.29v-7.4h1.29Z"/><path class="cls-1" d="M356.72,267.88H363V269h-2.52v6.28h-1.29V269h-2.51Z"/><path class="cls-1" d="M365.13,267.88l2.14,3.58,2.15-3.58h1.41l-2.93,4.76v2.64h-1.28v-2.64l-2.93-4.76Z"/><path class="cls-1" d="M377.55,273.14h-3.8V272h3.8Z"/><path class="cls-1" d="M386.34,269h-4v2h3.58v1.11h-3.58v2h4.1v1.12H381v-7.4h5.29Z"/><path class="cls-1" d="M395.32,276.61a2.82,2.82,0,0,1-1.33.3,2.85,2.85,0,0,1-2.45-1.52,4.24,4.24,0,0,1-.51,0,3.74,3.74,0,1,1,1.81-.4,1.37,1.37,0,0,0,1.23.78,1.86,1.86,0,0,0,.93-.21Zm-1.73-5a2.57,2.57,0,1,0-2.56,2.67A2.54,2.54,0,0,0,393.59,271.58Z"/><path class="cls-1" d="M396.06,267.88h1.29V272c0,1.51.64,2.27,1.91,2.27s1.91-.76,1.91-2.27v-4.11h1.28V272c0,2.25-1.17,3.43-3.19,3.43s-3.21-1.18-3.21-3.43Z"/><path class="cls-1" d="M408.39,273.61H405l-.67,1.67H403l3-7.4h1.31l3,7.4h-1.36Zm-.41-1.06-1.27-3.17-1.27,3.17Z"/><path class="cls-1" d="M412.6,274.16h3.9v1.12H411.3v-7.4h1.29Z"/><path class="cls-1" d="M418.78,275.28h-1.29v-7.4h1.29Z"/><path class="cls-1" d="M419.72,267.88h6.33V269h-2.52v6.28h-1.29V269h-2.51Z"/><path class="cls-1" d="M428.13,267.88l2.14,3.58,2.15-3.58h1.41l-2.93,4.76v2.64h-1.28v-2.64l-2.93-4.76Z"/></svg>