<svg id="Camada_1" data-name="Camada 1" xmlns="http://www.w3.org/2000/svg" viewBox="0 0 599.7 450.2"><defs><style>.cls-1{fill:#fff;}</style></defs><title>24-RW7FILMES</title><rect width="599.7" height="450.2"/><path class="cls-1" d="M387.78,178.91q-2.45,3.27-5.3,7a111.41,111.41,0,0,0-9,14.12,115.23,115.23,0,0,0-8.52,20.61,90.42,90.42,0,0,0-2.31,8.91q-.68,3.54-1.49,9.18t-1.43,8.64q-1.43,6.94-4,9.63a9.28,9.28,0,0,1-7,2.69,8.39,8.39,0,0,1-6.66-2.89q-2.51-2.89-2.51-8.54a52.86,52.86,0,0,1,1.83-11.84,140.79,140.79,0,0,1,6-17.93,174.73,174.73,0,0,1,25.13-43.3H336.12q-5.71,0-8.52-2.07t-2.82-6.5q0-4.7,3-6.06a20.68,20.68,0,0,1,8.35-1.36h44.09a95.55,95.55,0,0,0-84.92-52.08c-52.84,0-95.67,43.26-95.67,96.63a96.76,96.76,0,0,0,47,83.2,4.3,4.3,0,0,0-.47.49,7.15,7.15,0,0,0-1.33,4.68v44.73a7,7,0,0,0,1.36,4.65,4.4,4.4,0,0,0,3.54,1.62,4.62,4.62,0,0,0,3.61-1.57,6.89,6.89,0,0,0,1.4-4.7V292.09c0-.29,0-.57,0-.85a94.51,94.51,0,0,0,40.6,9.11c52.84,0,95.67-43.26,95.67-96.63A97.63,97.63,0,0,0,387.78,178.91ZM266.91,217.29a5.09,5.09,0,0,1-3.57,1.58,16.2,16.2,0,0,1-3.47-.9,15.91,15.91,0,0,0-4.86-.9,7,7,0,0,0-4.69,1.53,9.85,9.85,0,0,0-2.83,4.55,32.16,32.16,0,0,0-1.39,7.18q-.39,4.16-.38,10.15v11.1q0,4-1.87,6.06a6.18,6.18,0,0,1-4.74,2,5.94,5.94,0,0,1-4.65-2q-1.82-2-1.82-6v-37q0-9,6.37-9a5.28,5.28,0,0,1,4.69,2.09,11.66,11.66,0,0,1,1.58,6.18,23.14,23.14,0,0,1,4.81-6.18,9.84,9.84,0,0,1,6.59-2.09,16.64,16.64,0,0,1,8,2.09q3.88,2.09,3.88,5.55A5.32,5.32,0,0,1,266.91,217.29ZM331,255a8.71,8.71,0,0,1-2.43,3.21,8,8,0,0,1-9.25-.1,9.12,9.12,0,0,1-2.53-3.7q-.82-2.19-1.78-5.7l-7.51-25.89-7.27,25.89a32,32,0,0,1-3.13,8.15q-1.69,2.75-5.92,2.75a7.42,7.42,0,0,1-3.68-.85,7.11,7.11,0,0,1-2.53-2.43,18.23,18.23,0,0,1-1.78-3.75q-.77-2.16-1.2-3.43l-10.64-31.83a22.7,22.7,0,0,1-1.59-6.18,5.34,5.34,0,0,1,1.69-3.85,5.6,5.6,0,0,1,4.14-1.7q3.28,0,4.43,1.87a28,28,0,0,1,2.46,6.4L291,243.6l7.8-27.6q1.25-4.33,1.85-5.91a7.68,7.68,0,0,1,2.26-3,6.73,6.73,0,0,1,4.55-1.44,6.81,6.81,0,0,1,4.6,1.44,8.19,8.19,0,0,1,2.34,3.11q.67,1.68,1.88,5.82l7.8,27.6,8.67-29.69q.87-3.21,1.4-4.65a6.17,6.17,0,0,1,1.78-2.53,5.33,5.33,0,0,1,3.61-1.09,5.74,5.74,0,0,1,4.09,1.65,5.21,5.21,0,0,1,1.73,3.89,20.46,20.46,0,0,1-1.49,6.18L333.12,249.2Q331.72,253.24,331,255Z"/><path class="cls-1" d="M212.19,285.82a19.44,19.44,0,0,0-7.87,1.3,7.72,7.72,0,0,0-4.08,4.16A20.13,20.13,0,0,0,199,299v3.1h-2.41q-5.08,0-5.07,3.7a3.38,3.38,0,0,0,1.22,2.7,5.22,5.22,0,0,0,3.48,1H199v27.31a6.81,6.81,0,0,0,1.43,4.67A4.58,4.58,0,0,0,204,343.1a4.7,4.7,0,0,0,3.68-1.61,6.82,6.82,0,0,0,1.43-4.67V309.51h2.48a10.71,10.71,0,0,0,4.24-.68q1.54-.68,1.54-3.21,0-3.55-5.78-3.55h-2.48v-2.45a11.34,11.34,0,0,1,.78-4.71q.78-1.64,3.52-1.64a16.27,16.27,0,0,1,2.45.23,15.06,15.06,0,0,0,2,.23,2.86,2.86,0,0,0,2.18-1,3.52,3.52,0,0,0,.93-2.45Q221,285.82,212.19,285.82Z"/><path class="cls-1" d="M232.27,287.12a5.11,5.11,0,0,0-3.43-1.29,5,5,0,0,0-3.53,1.43,5.33,5.33,0,0,0,0,7.41,5.14,5.14,0,0,0,3.56,1.33,4.93,4.93,0,0,0,3.47-1.35,4.86,4.86,0,0,0,1.46-3.75A4.71,4.71,0,0,0,232.27,287.12Zm.07,15.27a4.68,4.68,0,0,0-3.62-1.56,4.51,4.51,0,0,0-3.56,1.56A6.86,6.86,0,0,0,223.8,307v29.74a7.11,7.11,0,0,0,1.37,4.68,4.43,4.43,0,0,0,3.56,1.64,4.63,4.63,0,0,0,3.62-1.6,6.91,6.91,0,0,0,1.42-4.72v-30A6.21,6.21,0,0,0,232.35,302.39Z"/><path class="cls-1" d="M320.33,307.79A10.36,10.36,0,0,0,316,303a13.91,13.91,0,0,0-7-1.66,13.19,13.19,0,0,0-6.32,1.52,17.33,17.33,0,0,0-5.34,4.69,11.84,11.84,0,0,0-4.4-4.67,12.56,12.56,0,0,0-6.39-1.54,14,14,0,0,0-6.5,1.5,17.32,17.32,0,0,0-5.49,4.71v-1a5.41,5.41,0,0,0-1.35-3.9,4.49,4.49,0,0,0-3.38-1.41,4.22,4.22,0,0,0-3.38,1.51,6.62,6.62,0,0,0-1.28,4.4v29.4a7.18,7.18,0,0,0,1.43,4.84,4.64,4.64,0,0,0,3.67,1.64,4.57,4.57,0,0,0,3.66-1.64,7.31,7.31,0,0,0,1.39-4.84V322.73q0-6.48,1.54-9.94t6.37-3.46a4.3,4.3,0,0,1,3.54,1.37,6.69,6.69,0,0,1,1.37,3.52,55,55,0,0,1,.25,6v16.38a7.29,7.29,0,0,0,1.39,4.86,4.56,4.56,0,0,0,3.63,1.62,4.69,4.69,0,0,0,3.72-1.62,7.22,7.22,0,0,0,1.41-4.86V323q0-6.59,1.08-9.19a8.08,8.08,0,0,1,2.73-3.24,6.43,6.43,0,0,1,3.7-1.2,4.56,4.56,0,0,1,3.61,1.36,6.22,6.22,0,0,1,1.46,3.35,41.27,41.27,0,0,1,.27,5.31v17.28a7.18,7.18,0,0,0,1.43,4.84,4.63,4.63,0,0,0,3.66,1.64,4.69,4.69,0,0,0,3.72-1.62,7.22,7.22,0,0,0,1.41-4.86V316.56Q321.59,310.57,320.33,307.79Z"/><path class="cls-1" d="M363.25,329a3.12,3.12,0,0,0-2.16.68q-1.84,1.8-3,2.86a21.46,21.46,0,0,1-2.52,2,10.23,10.23,0,0,1-2.82,1.35,11.28,11.28,0,0,1-3.22.43,8.92,8.92,0,0,1-4.8-1.35,9.55,9.55,0,0,1-3.49-4,14.13,14.13,0,0,1-1.35-6.16h19.21a12.72,12.72,0,0,0,6-1.15q2.12-1.15,2.12-5a17.84,17.84,0,0,0-2.05-8.19,16.37,16.37,0,0,0-6.17-6.56,18.47,18.47,0,0,0-9.87-2.54,21.1,21.1,0,0,0-8.06,1.48,16.33,16.33,0,0,0-6.11,4.27,18.8,18.8,0,0,0-3.78,6.67,26.56,26.56,0,0,0-1.29,8.44q0,9.66,5.25,15.3t14.71,5.64a21.9,21.9,0,0,0,7.32-1.13,17.66,17.66,0,0,0,5.29-2.84,12.68,12.68,0,0,0,3.15-3.57,6.88,6.88,0,0,0,1-3.25,3.16,3.16,0,0,0-.94-2.44A3.47,3.47,0,0,0,363.25,329ZM342.76,311.1a7.7,7.7,0,0,1,6-2.65,8,8,0,0,1,6.2,2.61q2.35,2.61,2.72,7.87H339.9Q340.41,313.75,342.76,311.1Z"/><path class="cls-1" d="M406.65,324.63a12.6,12.6,0,0,0-4.4-3.82,31.57,31.57,0,0,0-7.48-2.79q-3.86-1-6.05-1.66a10.6,10.6,0,0,1-3.5-1.71,3.25,3.25,0,0,1-1.3-2.66,3.48,3.48,0,0,1,1.76-3,7.79,7.79,0,0,1,4.43-1.19,8,8,0,0,1,4.11.9,9,9,0,0,1,2.63,2.41,17.43,17.43,0,0,0,2.43,2.71,3.84,3.84,0,0,0,2.58.9,4.38,4.38,0,0,0,3.23-1.13,3.92,3.92,0,0,0,1.13-2.9,6.22,6.22,0,0,0-1.06-3.31,10.77,10.77,0,0,0-3.1-3.09,16.73,16.73,0,0,0-5.08-2.22,26.12,26.12,0,0,0-6.86-.83,19.19,19.19,0,0,0-8.31,1.64,12.24,12.24,0,0,0-5.21,4.39,10.6,10.6,0,0,0-1.76,5.83,9,9,0,0,0,1.91,5.84,13.67,13.67,0,0,0,5.1,3.82,52.07,52.07,0,0,0,8.27,2.77A23.7,23.7,0,0,1,396.6,328a4.33,4.33,0,0,1,2,4,3.89,3.89,0,0,1-1.89,3.14,8,8,0,0,1-4.85,1.37,10.55,10.55,0,0,1-5.75-1.36,11.1,11.1,0,0,1-3.62-4.1,8.71,8.71,0,0,0-1.58-2.22,3.32,3.32,0,0,0-2.38-.79,3.87,3.87,0,0,0-2.92,1.2,4,4,0,0,0-1.15,2.9,8.76,8.76,0,0,0,1.8,5.1,13.27,13.27,0,0,0,5.59,4.23,22.08,22.08,0,0,0,9.08,1.69,25.22,25.22,0,0,0,9.42-1.56,12.17,12.17,0,0,0,5.86-4.59,13,13,0,0,0,2-7.28A8.73,8.73,0,0,0,406.65,324.63Z"/></svg>