<svg id="Camada_1" data-name="Camada 1" xmlns="http://www.w3.org/2000/svg" viewBox="0 0 599.7 450.2"><defs><style>.cls-1{fill:#fff;}</style></defs><title>25-SIMPLICIOARAUJO</title><rect width="599.7" height="450.2"/><path class="cls-1" d="M249.66,240.39v9.84H223.89c0-10.85,0-10.85,0-15.38v-3.1c0-.13,0-.26,0-.39q0-3.15,0-6.29t0-6.45q0-2,0-4V211.9q0-.79,0-1.58v-1.7c0-.17,0-.34,0-.51s0-.3,0-.46v-.4c0-.3,0-.3.16-.44h11.87l.14,33.29,13.46.14.14.14Z"/><path class="cls-1" d="M260.95,206.81c.28.28.16.71.16,1.08,0,.14,0,.27,0,.41v.44c0,.48,0,1,0,1.46v3.28q0,1.62,0,3.24,0,2.63,0,5.26v7q0,6.56,0,13.12h-9.84V206.81Z"/><path class="cls-1" d="M297.69,233.19v-.29c0-.2,0-.39,0-.59q0-2.77,0-5.53,0-2.37,0-4.75,0-2.75,0-5.51v-.88q0-1,0-2,0-1.37,0-2.74v-1c0-.46,0-.91,0-1.37v-1.18a1,1,0,0,1,.16-.46h9a.74.74,0,0,1,.68.32,2.84,2.84,0,0,1,0,.58c0,.12,0,.24,0,.37v.41c0,.14,0,.29,0,.43,0,.48,0,1,0,1.45v1q0,1.26,0,2.52,0,1.47,0,2.94,0,2.62,0,5.24t0,5.09v.32c0,.52,0,1,0,1.57q0,6.53,0,13.06h-9.31c-.38,0-.38,0-.53-.16,0-.45,0-.89,0-1.34v-.43c0-.48,0-1,0-1.44v-1q0-1.26,0-2.51Q297.69,234.2,297.69,233.19Z"/><path class="cls-1" d="M492.55,179.42a16.25,16.25,0,0,1-.78,3c-.23.73-.43,1.46-.65,2.19l-.26.89-.42,1.43q-.42,1.45-.86,2.89l-.17.57-.34,1.12q-.49,1.62-.92,3.25c-.22.82-.45,1.64-.68,2.45l-.15.53q-.5,1.74-1,3.47c-.46,1.47-.88,2.94-1.28,4.43q-.54,2-1.11,4l-.18.64q-.55,1.94-1.15,3.86c-.27.86-.53,1.73-.79,2.6l-.15.51-.15.49-.13.44c-.11.42-.18.86-.26,1.29h9.55l0,.14c-.08.43-.16.84-.25,1.25,0,.15-.07.31-.11.46l-.08.32q-.09.35-.21.71l-.23.76-.13.41-.06.21h0l-.33,1.12-.3,1.06-.15.52-.3,1.05-.87,3.05-.74,2.6c-.91,3.22-.91,3.22-1.42,4.77-.12.4-.24.8-.35,1.2h0l-.1.35-.15.55h-.14l-7.67.11-2,0-.08.26h0c-.31,1-.61,2-.9,3-.4,1.4-.81,2.79-1.22,4.18-.25.83-.49,1.67-.71,2.51-.82,3-1.68,6-2.61,9q-1,3.29-1.92,6.61c-.33,1.17-.68,2.34-1,3.5-.24.79-.46,1.57-.67,2.37a6.64,6.64,0,0,1-1.24,2.79l0,.05-.07.07-.07.08a3.7,3.7,0,0,1-1,.1H440.78c-1.86,0-1.86,0-2.48-.41a2.92,2.92,0,0,1-.69-1.19,3,3,0,0,1-.1-.52v-.1c0-.25,0-.53,0-.84,0-.11,0-.22,0-.32h0c0-.24.07-.48.11-.71.1-.48.23-1,.38-1.44l.15-.54c.17-.58.34-1.16.51-1.73l.18-.61.66-2.17h0l.18-.57.27-.89.62-2.05.1-.34q.28-.94.55-1.89c.38-1.32.76-2.64,1.21-3.94.32-.94.6-1.88.85-2.84q.11-.4.22-.8h0l.09-.3.09-.3.06-.19.06-.21.18-.6.19-.6q.22-.7.45-1.41l.31-1,.26-.82.05-.16.09-.29.24-.81c.23-.76.45-1.52.67-2.28l.24-.82v0l.29-1h-12.3l.06-.24.08-.33.15-.57c.08-.3.16-.59.24-.89l.15-.52c.13-.46.28-.92.44-1.38l.14-.42h0v0c.13-.42.24-.83.35-1.25.32-1.2.7-2.38,1.09-3.55l.09-.29.15-.45.08-.24h0q.46-1.42.89-2.85v0l.28-.93q.61-2,1.25-4l.2-.63.17-.53.09-.28.07-.2.13-.42c.11-.31.11-.31.26-.46l1.13,0h11l.47-1.55h0l.11-.35.16-.52,0-.13.8-2.65.17-.55.39-1.31.18-.6h0l.35-1.15.39-1.25.26-.82.08-.24c.18-.58.35-1.16.52-1.74l.26-.92c.27-1,.56-1.91.87-2.87.14-.46.27-.92.4-1.39l.12-.43.09-.33h-.56l-13.17,0H443l-5.22,0-5.36,0h-8.72c-.91,0-.91,0-1.33-.35a2.52,2.52,0,0,1-.76-1.94v-.56c0-.2,0-.41,0-.61s0-.43,0-.65q0-1.06,0-2.12v-.36q0-1.7,0-3.4,0-2.18,0-4.35,0-1.53,0-3.06c0-.61,0-1.22,0-1.83s0-1.15,0-1.72c0-.21,0-.42,0-.63,0-1.37,0-1.69.27-2.11l0,0c.09-.12.19-.24.33-.4a2.05,2.05,0,0,1,.76-.5,2,2,0,0,1,.49-.1,6.51,6.51,0,0,1,.65,0h66.22a2.67,2.67,0,0,1,.57.07,2.14,2.14,0,0,1,.56.21,5,5,0,0,1,.84.6A4,4,0,0,1,492.55,179.42Z"/><path class="cls-1" d="M432.59,219.55l-.17.62-.19.69h0l-.24.85-.11.39-.15.53-.16.56-.08.3-.09.31-.18.63-.09.33-.57,2-.06.21-.25.89-.36,1.29v0l-.06.19h0c-.48,1.68-1,3.36-1.49,5-.56,1.83-1,3.66-1.54,5.51l-10.28.14c-.68,2.39-.68,2.39-1.36,4.78q-.54,1.93-1.09,3.86-.6,2.09-1.18,4.2c-.88,3.19-1.8,6.37-2.81,9.53l-.1.31-.25.79c-.18.6-.33,1.2-.48,1.81-.2.81-.41,1.61-.63,2.41l-.15.57a27,27,0,0,1-.86,2.8l-.08.21-.15.43-.06.18-.12.34-.09.26-.1.31-.11.3h0c-.14.37-.19.45-.36.58l-.11.08h0a4.07,4.07,0,0,1-1.35.15H382.59c-2.08,0-2.08,0-2.74-.51a2.44,2.44,0,0,1-.5-.77,3.78,3.78,0,0,1-.19-1.55,8.73,8.73,0,0,1,.44-2l0-.14,0-.08v0l.07-.23,0-.06v0l.29-.92h0l.11-.35.38-1.25.24-.79c.29-1,.58-1.91.86-2.87l.23-.78.05-.18q.64-2.16,1.31-4.32h0l.44-1.42.27-.88.54-1.73.19-.62h0l.14-.46.08-.26.21-.7q.18-.63.35-1.27l.15-.55.12-.41.19-.67v0c.39-1.31.8-2.61,1.22-3.91l.3-.93.14-.44.25-.79.12-.36.1-.3.06-.23v0c.12-.41.22-.83.32-1.25h-12l.06-.32a18.07,18.07,0,0,1,.46-2h0c.05-.18.11-.35.17-.53.29-.82.56-1.65.8-2.49l.34-1.14,0-.14.34-1.12.32-1,.09-.28c.33-1.06.67-2.12,1-3.16q.28-.77.52-1.55h0l.18-.58.2-.7c.26-.92.54-1.84.81-2.76l.1-.34.16-.55.16-.55v0l.13-.42,0-.05v0a3,3,0,0,1,.26-.64l12-.14.58-2,.43-1.47c.25-.82.49-1.63.77-2.44l.12-.34h0q.23-.67.43-1.34t.36-1.24l.1-.36v0h0c.09-.33.18-.66.27-1q.19-.73.4-1.45t.48-1.62l0-.11q.31-1,.63-2v0l.23-.73.1-.32,0-.06.1-.31.14-.45.57-1.89h-.56l-13.07,0H365.74a2.47,2.47,0,0,1-2.08-.82,2,2,0,0,1-.32-1.31v-.56c0-.2,0-.41,0-.62s0-.43,0-.65c0-.59,0-1.18,0-1.76s0-1.23,0-1.85q0-1.55,0-3.1,0-1.79,0-3.58,0-1.54,0-3.08,0-.92,0-1.84t0-1.73q0-.32,0-.63t0-.87c0-.16,0-.32,0-.49a2.23,2.23,0,0,1,1-1.56,2.45,2.45,0,0,1,.4-.16,2.17,2.17,0,0,1,.41-.08c.17,0,.34,0,.55,0h33.82l20.65,0-.27.33h0l-.09.11a3,3,0,0,0-.19.29h0a2,2,0,0,0-.21.54l0,.12a4,4,0,0,0,0,.65v.3c0,.33,0,.66,0,1s0,.47,0,.71c0,.64,0,1.29,0,1.93s0,1.35,0,2q0,1.7,0,3.4,0,2,0,3.92,0,1.68,0,3.37c0,.67,0,1.34,0,2s0,1.26,0,1.89c0,.23,0,.46,0,.69a9.8,9.8,0,0,0,.11,1.93,3.45,3.45,0,0,0,.71,1.56l.32.17h0a1.81,1.81,0,0,0,.51.14l.41,0h1.25l1.38,0,.93,0,2.29,0c-.12.64-.29,1.27-.47,1.9l-.1.34-.31,1.11-.11.38c-.43,1.54-.88,3.07-1.36,4.6q-.62,2-1.17,4l-.14.5c-.36,1.32-.67,2.64-1,4Z"/><path class="cls-1" d="M193.09,249.51c0,.15,0,.3,0,.46v.4c0,.1,0,.16,0,.21a.29.29,0,0,1,0,.08.54.54,0,0,1-.12.14l-1.1,0h-10c-.75,0-.75,0-.91-.16l0-.18a16.14,16.14,0,0,1-.14-2.74q0-.44,0-.88v-.93q0-1,0-2,0-2.25,0-4.49,0-2.06,0-4.12,0-1,0-1.94,0-.46,0-.91V231.4c0-.1,0-.2,0-.31s0-.12,0-.19,0-.29,0-.43a1.55,1.55,0,0,0-.16-.79l-.11.48-.26,1.17c-1,4.55-1.06,4.71-1.56,6.78l-.29,1.21-.28,1.17-.14.58-.19.8-.11.47a2.31,2.31,0,0,1-.24.66H165a10.47,10.47,0,0,1-.62-1.9l-.09-.41-.09-.43-.1-.45-.32-1.42-.32-1.41-.2-.88c-.18-.82-.39-1.63-.62-2.43-.17-.63-.28-1.27-.4-1.91l-.14-.77,0-.24,0-.1v0c-.07-.32-.14-.63-.22-1v-.05l-.13-.5c0,.11,0,.22,0,.33q0,1.5,0,3,0,2.45,0,4.91,0,1.91,0,3.82,0,1.67,0,3.33,0,.88,0,1.77c0,.55,0,1.11,0,1.66,0,.2,0,.41,0,.61s0,.55,0,.83v.47h0s0,0,0,.06,0,.05,0,.08v.09h0v0h0a1.07,1.07,0,0,1-.07.22l-.08.17-.07.15-.07.14H149.36l0-.09,0-.12v0h0a1.33,1.33,0,0,1-.05-.26.35.35,0,0,1,0,0h0c0-.13,0-.28,0-.45s0-.3,0-.46,0-.34,0-.51v-2q0-.8,0-1.6v-2.77q0-2,0-4,0-3.25,0-6.5v-8.66q0-8.05,0-16.11v-.08l0,0,.19-.09a2.44,2.44,0,0,1,.66-.19h0l.25,0h4.38l2.06,0h2.34c2.22,0,2.22,0,3,.61a5.07,5.07,0,0,1,.43.52l.29.35.21.32.25.37.26.41.29.45a26.88,26.88,0,0,1,1.5,2.68c.17.35.35.69.54,1a72.38,72.38,0,0,1,3.32,7.27l.13.3.79,1.9.2.48a17.26,17.26,0,0,1,.77,2.23h.29l0-.26a12.09,12.09,0,0,1,.84-2.68l.18-.42.36-.86.48-1.14c4.62-11,4.89-11.68,7.07-13.16h0l.43-.29c.38,0,.74,0,1.12,0h9.8a2.72,2.72,0,0,1,1.07.18l.32.15q0,2.15,0,4.3v0q0,6.16,0,12.32v2c0,.2,0,.2,0,.39q0,3.17,0,6.34t0,6.5q0,2,0,4v2.75q0,.79,0,1.59V249C193.09,249.25,193.09,249.25,193.09,249.51Z"/><path class="cls-1" d="M312.32,238.51c.31.53.63,1,1,1.52h0l.14.2a14.6,14.6,0,0,0,1.18,1.42l.51.56.07.08a17.68,17.68,0,0,0,4.3,3.55l.34.21.34.2.4.22a22.12,22.12,0,0,0,4.91,2l.1,0a19.11,19.11,0,0,0,5.22.63h2.44l.32,0,.28,0,.23,0h0c.32,0,.64-.07,1-.12s.57-.11.85-.18l.29-.07a14.23,14.23,0,0,0,2-.62,15.43,15.43,0,0,1,1.85-.64l.27-.08s.88-.42,1.39-.72l.31-.19a21.92,21.92,0,0,0,4.76-3.65l.34-.37c.26-.26.51-.53.75-.8s.64-.75.93-1.15a17.72,17.72,0,0,0,1.19-1.81l.16-.29a19.39,19.39,0,0,0,2.74-9.13v-.42a29.73,29.73,0,0,0-.06-4l-.08-.47a21,21,0,0,0-3.3-8.37l-.32-.46a16.89,16.89,0,0,0-2.89-3.26l-.59-.51A20.18,20.18,0,0,0,340,208.1l-.28-.13A20.43,20.43,0,0,0,329,206.41a21,21,0,0,0-2.38.42l-.53.13-.2,0-.49.12a21.53,21.53,0,0,0-3.63,1.28h0l-.92.45h0l-.5.27,0,0,0,0-.05,0-.65.38h0l-.7.46-.46.32a19.54,19.54,0,0,0-3.21,2.93l-.28.33-.23.26-.09.1-.33.36a17.51,17.51,0,0,0-1.52,2h0c-.18.27-.34.55-.5.83s-.35.63-.51,1c-.27.54-.52,1.09-.74,1.65l-.19.48c-.26.7-.49,1.41-.7,2.14l-.1.38-.08.32c-.07.29-.13.58-.19.87v.06h0l0,.21h0a20,20,0,0,0-.11,6.27v0c0,.12,0,.25.06.37s0,.24.06.37l.07.38a21,21,0,0,0,1.63,4.94h0q.38.81.84,1.58m26.06-3.5-.3.31a9.25,9.25,0,0,1-3.66,2.15,8,8,0,0,0-2.11.44q-.4,0-.81.06a10.84,10.84,0,0,1-6.43-2.23l-.3-.22a9.53,9.53,0,0,1-3.32-5.85,12.1,12.1,0,0,1,.63-5.32h0a3.63,3.63,0,0,0,.48-1,10.19,10.19,0,0,1,1.09-1.6,9.79,9.79,0,0,1,4.75-3.19l.53-.16a8.44,8.44,0,0,1,2.1-.18h.41a10.55,10.55,0,0,1,2.61.37s1.94.75,2.17.88c0,0,1.24.87,1.86,1.44a16.39,16.39,0,0,1,2.29,2.88s.9,3.3.9,3.3-.2,3.47-.2,3.47A10.18,10.18,0,0,1,338.23,234.75Z"/><path class="cls-1" d="M136.64,239.92q-.07.85-.21,1.68-.08.46-.18.92c-.05.2-.11.4-.18.59l0,.13-.1.26h0a10,10,0,0,1-1.21,2.23l-.19.26c-.16.21-.33.42-.51.62l-.26.3,0,0-.34.34,0,0a8.39,8.39,0,0,1-1.84,1.3,17.68,17.68,0,0,1-3,1.18l-.42.13c-.39.12-.78.21-1.17.3l-.47.11c-.5.1-1,.18-1.51.23h0c-.38,0-.76.07-1.14.09-1.38.08-2.76.05-4.14,0h-3.3a25.28,25.28,0,0,1-3.79-.26h-.1l-.43-.07c-.44-.08-.87-.17-1.3-.28a38,38,0,0,1,.16-4c0-.35.05-.69.08-1,.3-3.85.3-3.85.77-4.78l.82.08.63.08c.54.08,1.08.17,1.62.27l.45.08.3,0h0a23.36,23.36,0,0,0,3.11.3H119a7.23,7.23,0,0,0,4.32-.73,3.56,3.56,0,0,0,1.36-2.58,4,4,0,0,0-1.36-2.78,7,7,0,0,0-2.44-1.37l-.36-.13c-.93-.33-1.88-.63-2.82-.94a12.94,12.94,0,0,1-2.34-1,17.74,17.74,0,0,1-1.59-1.19l-.22-.21a15.36,15.36,0,0,1-4.55-7l-.15-.45a8.22,8.22,0,0,1-.27-1.43c0-.07,0-.14,0-.2h0a24.38,24.38,0,0,1,0-2.7v-.18c0-.3,0-.61,0-.91a7.37,7.37,0,0,1,.23-1.58v0a9.13,9.13,0,0,1,.9-2.18l0,0a12.14,12.14,0,0,1,2-2.6c.19-.17.38-.34.58-.49l.43-.34.52-.37.21-.14q.5-.33,1-.6c.34-.18.69-.35,1-.5l.22-.09a16.44,16.44,0,0,1,1.92-.66h0a23.82,23.82,0,0,1,2.58-.56l.47-.08a27.75,27.75,0,0,1,4.38-.25h1.36l1.46,0c1.06,0,2.12.13,3.18.26l.54.06h0l.35,0h0l.86.1h0l1,.12.38,0,.21,0,.08,0h0a.63.63,0,0,1,.14.12c0,.43-.21,3.68-.24,4.08l-.05.73-.08,1.15q0,.56-.08,1.11c0,.11,0,.23,0,.34a6.9,6.9,0,0,1-.09.71c0,.09,0,.18-.05.27s-.1.4-.16.6-.15.46-.24.7a6.31,6.31,0,0,1-.81,0l-.31,0a7.47,7.47,0,0,1-.89-.16,32.73,32.73,0,0,0-6.75-.74h-.4a5.08,5.08,0,0,0-1.78.32,12.17,12.17,0,0,0-1.23.76l-.26.24a2.84,2.84,0,0,0-.69,1.18,4.15,4.15,0,0,0-.15.84,4.54,4.54,0,0,0,1.56,3,12.55,12.55,0,0,0,4.05,1.8c.57.18,1.13.37,1.67.58l.16.06h0a13,13,0,0,1,3.49,2l.28.24.43.37.55.5h0a10.49,10.49,0,0,1,1.77,2.17l.29.46A14.66,14.66,0,0,1,136.64,239.92Z"/><path class="cls-1" d="M221.37,212.45l-.22-.43a9.35,9.35,0,0,0-1.91-2.57c-2.54-2.38-5.56-2.63-8.87-2.59h-1.58l-3,0-3.43,0-7.39,0q0,6,0,12v1.73q0,2.19,0,4.37,0,2.41,0,4.82,0,.79,0,1.59v1.11q0,1.29,0,2.58v.95q0,.66,0,1.33v.4c0,.59,0,2.46,0,2.78,0,.12,0,.23,0,.34a1.72,1.72,0,0,0,.16.93,1.82,1.82,0,0,0,1,.32h4.11l4.45,0v-10l4.44,0h2.5a10.79,10.79,0,0,0,5-.87l.34-.18a10.53,10.53,0,0,0,5.14-6.39A17.15,17.15,0,0,0,221.37,212.45Zm-8.4,7.1a5.56,5.56,0,0,1-1.52,3.61l-.37.45a1.71,1.71,0,0,1-1.45.53h-.73l-1.18,0h-.8c-1.93,0-1.93,0-2.28-.2q0-1.7,0-3.39c0-.52,0-1,0-1.57s0-1,0-1.52c0-.29,0-.58,0-.86V216c0-.15,0-.31,0-.47,0-.73.66-.52,1.24-.53h2.08a4.91,4.91,0,0,1,3.75,1.09A4.56,4.56,0,0,1,213,219.55Z"/><path class="cls-1" d="M263.85,218.85a15.06,15.06,0,0,1,.84-2l.16-.3q.43-.79.93-1.55l.05-.08a20.76,20.76,0,0,1,2.79-3.41q.55-.54,1.15-1l0,0q.52-.43,1.08-.83h0q.54-.38,1.11-.72h0a17,17,0,0,1,2.28-1.15h0l.42-.16c.32-.12.65-.24,1-.34s1-.27,1.46-.39l.31-.08h0l.08,0,.9-.19h0a17,17,0,0,1,4.54-.14l.24,0a21.46,21.46,0,0,1,3.45.67l.15,0,.45.13.4.11c2.89.86,6.75,3.12,8.29,5.82a2.09,2.09,0,0,1,0,.87,2.55,2.55,0,0,1-.58.58l-.36.3c-.42.32-.84.65-1.26,1-.23.17-.45.35-.68.54s-1.1.93-1.36,1.12l-.24.17-1.2.87-.43.31-.4.28a2.67,2.67,0,0,0-.3.24,1.35,1.35,0,0,1-1.2,0l-.34-.34-.17-.16a11,11,0,0,0-1.37-1.07h0a8.74,8.74,0,0,0-.94-.53,9.22,9.22,0,0,0-4.31-.87,8.26,8.26,0,0,0-5.79,2.85,7,7,0,0,0-1.79,4.41c0,.2,0,.39,0,.58a8.16,8.16,0,0,0,2.09,6.22,8.75,8.75,0,0,0,6.2,2.64l.44,0h0a8.84,8.84,0,0,0,5.44-2.46l.23-.24.35-.36.29-.29c1.51.2,2.89,1.76,4,2.7.56.45,1.12.9,1.68,1.34l.49.39.78.61a2.32,2.32,0,0,1,.81.93,1.26,1.26,0,0,1-.5,1l-.22.22-.22.23-.45.45-.46.49a12.22,12.22,0,0,1-2.63,2s-1.83,1.07-2.61,1.45l-.43.21a15.45,15.45,0,0,1-3.77,1.16h0a18.48,18.48,0,0,1-5.67.09l-.18,0-.42-.07c-.42-.07-.84-.15-1.25-.25-.57-.13-1.14-.29-1.69-.47l-.63-.22a18.45,18.45,0,0,1-3.22-1.61,20.29,20.29,0,0,1-3.14-2.45l-.29-.28-.25-.23c-.17-.16-.32-.32-.48-.49h0a13.42,13.42,0,0,1-1.15-1.47l-.23-.33L266,235a20.18,20.18,0,0,1-1.58-2.77,16.88,16.88,0,0,1-.77-2l-.09-.28a18.51,18.51,0,0,1-.24-9.35"/><path class="cls-1" d="M249.66,240.4v9.83H223.89c0-10.85,0-10.85,0-15.38v-3.1c0-.13,0-.26,0-.39q0-3.15,0-6.29t0-6.45q0-2,0-4V211.9q0-.79,0-1.58v-1.7c0-.17,0-.34,0-.51s0-.3,0-.46v-.4c0-.3,0-.3.16-.44h11.87l.14,33.29,13.46.14.14.14Z"/><path class="cls-1" d="M261.11,207.9c0,.14,0,.27,0,.41v.44c0,.48,0,1,0,1.46v3.28q0,1.62,0,3.24,0,2.63,0,5.26v7q0,6.56,0,13.12h-9.84V206.81h9.7C261.23,207.1,261.11,207.52,261.11,207.9Z"/><path class="cls-1" d="M307.58,208.47c0,.14,0,.29,0,.43,0,.48,0,1,0,1.45v1q0,1.26,0,2.52,0,1.47,0,2.94,0,2.62,0,5.24t0,5.09v.32c0,.52,0,1,0,1.57q0,6.53,0,13.06h-9.31c-.38,0-.38,0-.53-.16,0-.45,0-.89,0-1.34v-.43c0-.48,0-1,0-1.44v-1q0-1.26,0-2.51,0-1,0-2v-.29c0-.2,0-.39,0-.59q0-2.77,0-5.53,0-2.37,0-4.75,0-2.75,0-5.51v-.88q0-1,0-2,0-1.37,0-2.74v-1c0-.46,0-.91,0-1.37v-1.18a1,1,0,0,1,.16-.46h9a.74.74,0,0,1,.68.32,2.84,2.84,0,0,1,0,.58c0,.12,0,.24,0,.37Z"/><path class="cls-1" d="M147.48,207.1v35h-9.84q0-6.69,0-13.37v-1.58c0-.11,0-.21,0-.32q0-2.54,0-5.09t0-5.22q0-1.47,0-2.93v-2.76c0-.34,0-.68,0-1v-1.38c0-.14,0-.27,0-.41s0-.24,0-.37v-.32a1,1,0,0,1,.16-.55h8.7l.31,0,.1,0,.29.12.15.07Z"/><path class="cls-1" d="M264.27,200.45c-.33.25-.65.46-1,.68l-.68.43-.37.23L260,203.21l-.47.3-.94.61h0l-.54.36-.92.63c-1.75,1.23-1.75,1.23-2.52,1.27a2.88,2.88,0,0,1-.62-.62l-.34-.4-.34-.42-.32-.39-.84-1.05-.32-.39a7,7,0,0,0-.55-.63c0-.14,0-.25,0-.34V202a.26.26,0,0,0,0,0v0a.58.58,0,0,1,.18-.31l0,0,.05,0,.07-.06.13-.1.05,0,.16-.13.58-.5.49-.44.08-.07c.5-.45,1-.88,1.53-1.3s1.13-1,1.68-1.46,1.38-1.23,2.1-1.81c.32-.26.63-.54.93-.82s.44-.34.73-.32c1.29.54,2.27,2.62,3,3.74l.19.27.5.72.28.41A1,1,0,0,1,264.27,200.45Z"/><path class="cls-1" d="M177.44,242.42l-.14.58H165l-.14-.58.29.14.27.08h0a5,5,0,0,0,1.26.11H176a1.11,1.11,0,0,0,1-.33Z"/><path class="cls-1" d="M363.56,187l.29.14a4.15,4.15,0,0,1,.1.71l0,.39a1.58,1.58,0,0,1-.14.79c0,.53,0,1.05,0,1.58,0,.29,0,.59,0,.88l-.29.29Z"/><path class="cls-1" d="M363.7,184.09a3.32,3.32,0,0,1,.25,1.29l.05.55c0,.48,0,.48-.23.72l-.22.19q0-.65,0-1.29v-1.06C363.56,184.24,363.56,184.24,363.7,184.09Z"/><path class="cls-1" d="M166.44,242.85V243H165l-.14-.58.31.14.25.08h0A6.6,6.6,0,0,0,166.44,242.85Z"/><path class="cls-1" d="M481.51,215.79l.43.14-.29.72-.43-.14C481.35,216,481.35,216,481.51,215.79Z"/><path class="cls-1" d="M115.88,190V187.4h6.24v5.38a13,13,0,0,1-3.17,1.6,11.14,11.14,0,0,1-3.27.43,8.19,8.19,0,0,1-3.8-.77,5.33,5.33,0,0,1-2.27-2.28,7.27,7.27,0,0,1-.81-3.48,7,7,0,0,1,.88-3.59,5.64,5.64,0,0,1,2.59-2.32,8.69,8.69,0,0,1,3.58-.61,10.4,10.4,0,0,1,3.24.38,4.22,4.22,0,0,1,1.78,1.17,5.15,5.15,0,0,1,1.07,2l-3.9.67a2,2,0,0,0-.82-1.09,2.62,2.62,0,0,0-1.47-.38,2.69,2.69,0,0,0-2.12.89,4.18,4.18,0,0,0-.79,2.82,4.3,4.3,0,0,0,.8,2.92,2.86,2.86,0,0,0,2.23.88,4.38,4.38,0,0,0,1.29-.19,7.1,7.1,0,0,0,1.41-.65V190Z"/><path class="cls-1" d="M124.31,188.29a6.37,6.37,0,0,1,1.78-4.81,6.86,6.86,0,0,1,5-1.72,7,7,0,0,1,5,1.69,6.24,6.24,0,0,1,1.77,4.74,7.53,7.53,0,0,1-.77,3.63,5.4,5.4,0,0,1-2.23,2.2,7.59,7.59,0,0,1-3.64.79,8.63,8.63,0,0,1-3.66-.68,5.43,5.43,0,0,1-2.35-2.15A6.94,6.94,0,0,1,124.31,188.29Zm4,0a4.12,4.12,0,0,0,.74,2.74,2.86,2.86,0,0,0,4,0,4.54,4.54,0,0,0,.71-2.93,3.8,3.8,0,0,0-.74-2.6,2.59,2.59,0,0,0-2-.82,2.5,2.5,0,0,0-2,.83A4.13,4.13,0,0,0,128.35,188.31Z"/><path class="cls-1" d="M138.26,182h4.22l2.94,9.08,2.91-9.08h4.1l-4.86,12.61H143.2Z"/><path class="cls-1" d="M154,182h10.83v2.69h-6.78v2h6.29v2.57h-6.29v2.49h7v2.86H154Z"/><path class="cls-1" d="M167.59,194.59V182h6.74a10.13,10.13,0,0,1,2.86.31,3,3,0,0,1,1.6,1.15,3.75,3.75,0,0,1,.14,3.85,3.57,3.57,0,0,1-1.28,1.23,5,5,0,0,1-1.42.5,4.1,4.1,0,0,1,1.05.46,4,4,0,0,1,.65.66,5,5,0,0,1,.57.78l2,3.65h-4.57l-2.16-3.85a3,3,0,0,0-.73-1,1.74,1.74,0,0,0-1-.29h-.36v5.12Zm4.06-7.5h1.7a6.29,6.29,0,0,0,1.07-.17,1.07,1.07,0,0,0,.66-.4,1.24,1.24,0,0,0-.15-1.67,2.5,2.5,0,0,0-1.51-.33h-1.78Z"/><path class="cls-1" d="M182.07,182h3.77l4.92,7v-7h3.81v12.61h-3.81l-4.9-6.92v6.92h-3.8Z"/><path class="cls-1" d="M205.41,192.51h-4.59l-.64,2.08h-4.13L201,182h4.41l4.91,12.61h-4.23Zm-.84-2.73-1.44-4.53-1.43,4.53Z"/><path class="cls-1" d="M211.93,182h6a7.43,7.43,0,0,1,2.87.46,4.65,4.65,0,0,1,1.81,1.33,5.45,5.45,0,0,1,1,2,9.06,9.06,0,0,1,.32,2.44,8.21,8.21,0,0,1-.48,3.14,5.19,5.19,0,0,1-1.32,1.87,4.36,4.36,0,0,1-1.82,1,9.7,9.7,0,0,1-2.41.34h-6Zm4,2.86v6.89h1a4.3,4.3,0,0,0,1.8-.27,1.86,1.86,0,0,0,.84-.95,5.75,5.75,0,0,0,.3-2.19,4.14,4.14,0,0,0-.68-2.74,2.93,2.93,0,0,0-2.25-.74Z"/><path class="cls-1" d="M225.87,188.29a6.37,6.37,0,0,1,1.78-4.81,6.86,6.86,0,0,1,5-1.72,7,7,0,0,1,5,1.69,6.24,6.24,0,0,1,1.77,4.74,7.53,7.53,0,0,1-.77,3.63,5.4,5.4,0,0,1-2.23,2.2,7.59,7.59,0,0,1-3.64.79,8.63,8.63,0,0,1-3.66-.68,5.43,5.43,0,0,1-2.35-2.15A6.94,6.94,0,0,1,225.87,188.29Zm4,0a4.12,4.12,0,0,0,.74,2.74,2.86,2.86,0,0,0,4,0,4.54,4.54,0,0,0,.71-2.93,3.8,3.8,0,0,0-.74-2.6,2.59,2.59,0,0,0-2-.82,2.5,2.5,0,0,0-2,.83A4.13,4.13,0,0,0,229.91,188.31Z"/><path class="cls-1" d="M241.95,194.59V182h6.74a10.13,10.13,0,0,1,2.86.31,3,3,0,0,1,1.6,1.15,3.75,3.75,0,0,1,.14,3.85,3.57,3.57,0,0,1-1.28,1.23,5,5,0,0,1-1.42.5,4.1,4.1,0,0,1,1.05.46,4,4,0,0,1,.65.66,5,5,0,0,1,.57.78l2,3.65h-4.57l-2.16-3.85a3,3,0,0,0-.73-1,1.74,1.74,0,0,0-1-.29H246v5.12Zm4.06-7.5h1.7a6.29,6.29,0,0,0,1.07-.17,1.07,1.07,0,0,0,.66-.4,1.24,1.24,0,0,0-.15-1.67,2.5,2.5,0,0,0-1.51-.33H246Z"/><path class="cls-1" d="M110.4,270.58l-3.3-8.48h1.22l2.21,6.16q.27.74.45,1.39.2-.69.46-1.39l2.3-6.16h1.15l-3.33,8.48Z"/><path class="cls-1" d="M119.18,270.58V262.1h1.13v8.48Z"/><path class="cls-1" d="M131.45,267.61l1.13.28A3.77,3.77,0,0,1,131.3,270a3.52,3.52,0,0,1-2.25.73,4.05,4.05,0,0,1-2.24-.56,3.49,3.49,0,0,1-1.31-1.62,5.75,5.75,0,0,1-.45-2.27,5,5,0,0,1,.51-2.31,3.47,3.47,0,0,1,1.45-1.5,4.24,4.24,0,0,1,2.06-.51,3.5,3.5,0,0,1,2.15.65,3.36,3.36,0,0,1,1.21,1.82l-1.11.26a2.62,2.62,0,0,0-.86-1.35,2.3,2.3,0,0,0-1.42-.42,2.76,2.76,0,0,0-1.64.47,2.47,2.47,0,0,0-.93,1.26,5,5,0,0,0-.27,1.63,5.15,5.15,0,0,0,.32,1.89,2.35,2.35,0,0,0,1,1.21,2.77,2.77,0,0,0,1.45.4,2.43,2.43,0,0,0,1.6-.54A2.78,2.78,0,0,0,131.45,267.61Z"/><path class="cls-1" d="M137.08,270.58V262.1h6.15v1h-5v2.6h4.71v1H138.2v2.89h5.22v1Z"/><path class="cls-1" d="M157.2,270.61V258.4h3.65l2.19,8.33,2.17-8.33h3.66v12.21H166.6V261l-2.4,9.61h-2.35L159.47,261v9.61Z"/><path class="cls-1" d="M187.23,270.61h-2.65l-1.05-2.77H178.7l-1,2.77h-2.59l4.7-12.21h2.58Zm-4.49-4.83-1.66-4.53-1.63,4.53Z"/><path class="cls-1" d="M193.59,270.61V258.4h5.13a8.69,8.69,0,0,1,2.81.33,2.78,2.78,0,0,1,1.4,1.17,3.55,3.55,0,0,1,.53,1.92,3.28,3.28,0,0,1-.8,2.27,3.82,3.82,0,0,1-2.39,1.13,5.7,5.7,0,0,1,1.31,1,13.93,13.93,0,0,1,1.39,2l1.47,2.38h-2.92L199.77,268a17.22,17.22,0,0,0-1.28-1.79,1.87,1.87,0,0,0-.73-.51,4,4,0,0,0-1.23-.14H196v5.1Zm2.44-7h1.8a9.21,9.21,0,0,0,2.19-.15,1.31,1.31,0,0,0,.68-.52A1.6,1.6,0,0,0,201,262a1.38,1.38,0,0,0-1.24-1.47q-.3,0-1.78,0H196Z"/><path class="cls-1" d="M210.89,270.61V258.5h2.44v10.05h6.06v2.06Z"/><path class="cls-1" d="M227.81,270.61v-5.14l-4.42-7.07h2.86l2.84,4.83,2.78-4.83h2.81l-4.44,7.09v5.12Z"/><path class="cls-1" d="M253.11,270.61V260.47h-3.58V258.4h9.59v2.07h-3.57v10.14Z"/><path class="cls-1" d="M275.39,270.61h-2.65l-1.05-2.77h-4.83l-1,2.77h-2.59L268,258.4h2.58Zm-4.49-4.83-1.66-4.53-1.63,4.53Z"/><path class="cls-1" d="M283.57,270.61l-4.32-12.21h2.64l3.06,9,3-9h2.59l-4.32,12.21Z"/><path class="cls-1" d="M306.44,270.61h-2.65l-1.05-2.77h-4.83l-1,2.77h-2.59L299,258.4h2.58ZM302,265.78l-1.66-4.53-1.63,4.53Z"/><path class="cls-1" d="M312.8,270.61V258.4h5.13a8.69,8.69,0,0,1,2.81.33,2.78,2.78,0,0,1,1.4,1.17,3.55,3.55,0,0,1,.53,1.92,3.28,3.28,0,0,1-.8,2.27,3.82,3.82,0,0,1-2.39,1.13,5.7,5.7,0,0,1,1.31,1,14,14,0,0,1,1.39,2l1.47,2.38h-2.92L319,268a17.22,17.22,0,0,0-1.28-1.79,1.87,1.87,0,0,0-.73-.51,4,4,0,0,0-1.23-.14h-.49v5.1Zm2.44-7H317a9.21,9.21,0,0,0,2.19-.15,1.31,1.31,0,0,0,.68-.52,1.6,1.6,0,0,0,.25-.92,1.38,1.38,0,0,0-1.24-1.47q-.3,0-1.78,0h-1.9Z"/><path class="cls-1" d="M330,270.61V258.4h9v2.07h-6.51v2.71h6.06v2.06h-6.06v3.32h6.75v2.06Z"/><path class="cls-1" d="M345.73,266.64l2.37-.23a2.94,2.94,0,0,0,.87,1.77,2.61,2.61,0,0,0,1.77.57,2.69,2.69,0,0,0,1.77-.5,1.5,1.5,0,0,0,.6-1.18,1.12,1.12,0,0,0-.25-.74,2,2,0,0,0-.88-.53q-.43-.15-2-.53a6.58,6.58,0,0,1-2.75-1.21,3.23,3.23,0,0,1-.59-4.2,3.28,3.28,0,0,1,1.51-1.24,6,6,0,0,1,2.38-.42,5.06,5.06,0,0,1,3.42,1,3.57,3.57,0,0,1,1.21,2.69l-2.44.11a2.1,2.1,0,0,0-.67-1.35,2.44,2.44,0,0,0-1.54-.41,2.76,2.76,0,0,0-1.66.44.89.89,0,0,0-.39.76.94.94,0,0,0,.36.74,6.36,6.36,0,0,0,2.24.82,11.72,11.72,0,0,1,2.63.88,3.41,3.41,0,0,1,1.33,1.24,3.66,3.66,0,0,1,.48,1.94,3.62,3.62,0,0,1-.58,2,3.46,3.46,0,0,1-1.63,1.36,6.77,6.77,0,0,1-2.63.45,5.19,5.19,0,0,1-3.52-1.07A4.67,4.67,0,0,1,345.73,266.64Z"/></svg>