<svg id="Camada_1" data-name="Camada 1" xmlns="http://www.w3.org/2000/svg" viewBox="0 0 599.7 450.2"><defs><style>.cls-1{fill:#fff;}</style></defs><title>ELI</title><rect width="599.7" height="450.2"/><path class="cls-1" d="M107.55,189.46h35.22c.27.05.41.19.41.41V213a.36.36,0,0,1-.41.41H136q-5.45-1-5.45-6.71V202H119.71v16.79h15.52c.27.05.41.19.41.41v5.89q0,5.15-5.45,6.27H119.71v16.79H130.6v-4.4q0-6.94,8.17-6.94h4a.43.43,0,0,1,.41.45v23.05a.36.36,0,0,1-.41.41H112.58q-4.89,0-5.48-7.35V189.87A.43.43,0,0,1,107.55,189.46Z"/><path class="cls-1" d="M147.31,189.46h11.75c.27.05.41.19.41.41v58.31h10.93V229.71q0-4.4,6.08-5.45h6.08c.27.05.41.19.41.41v22q0,10.74-8.39,13.65a14.77,14.77,0,0,1-2.72.41H147.31a.36.36,0,0,1-.41-.41V189.87C147,189.59,147.09,189.46,147.31,189.46Z"/><path class="cls-1" d="M187.12,189.46h12c.27.05.41.19.41.41v62.9q0,6.56-4.63,8h-7.76a.36.36,0,0,1-.41-.41V189.87C186.76,189.59,186.89,189.46,187.12,189.46Z"/><path class="cls-1" d="M218.79,189.46h28.72q5.15,0,6.71,4.4l.22,1.27v54.09q0,8.06-9.25,11.3a10.3,10.3,0,0,1-2.09.22H218.79a.36.36,0,0,1-.41-.41V189.87C218.43,189.59,218.56,189.46,218.79,189.46ZM230.95,202v46.15h13.43v-.22q-2.54-1.34-2.54-5.45V202Z"/><path class="cls-1" d="M258.59,189.46h28.09q7.76,0,7.76,7.76v56q0,5.78-4.18,7.31l-1.27.22h-6.71a.36.36,0,0,1-.41-.41V228.48q-.34.08-11.12,11.08v20.78a.36.36,0,0,1-.41.41H263.4q-5.22-1.34-5.22-5.22V189.87C258.21,189.59,258.34,189.46,258.59,189.46Zm13.06,12.61v19.7q.34-.07,11.12-11.08v-8.62Z"/><path class="cls-1" d="M298.58,189.46h11.34q2,0,7.54,6.3l4,3.77v-9.66c0-.27.19-.41.41-.41h11.75c.27.05.41.19.41.41V255.3q-1.27,5.45-5.45,5.44h-6.71a.36.36,0,0,1-.41-.41v-43q-.34-.6-10.71-10.71v53.68a.36.36,0,0,1-.41.41h-6.71q-4.85,0-5.45-7.35V189.87C298.22,189.59,298.36,189.46,298.58,189.46Z"/><path class="cls-1" d="M338.2,189.46H373q.45.08.45.41v11.75q0,.41-.45.41H361.89v58.31c0,.27-.15.41-.45.41h-6.68q-5.48-1-5.48-6.71V202H343.2q-5.45-1.34-5.45-5.45v-6.71A.43.43,0,0,1,338.2,189.46Z"/><path class="cls-1" d="M377.59,189.46h34.77q.45.08.45.41v11.75q0,.41-.45.41H401.28v58.31c0,.27-.15.41-.45.41h-6.68q-5.48-1-5.48-6.71V202h-6.08q-5.45-1.34-5.45-5.45v-6.71A.43.43,0,0,1,377.59,189.46Z"/><path class="cls-1" d="M416.95,189.46H445q7.76,0,7.76,7.76v56q0,5.78-4.18,7.31l-1.27.22h-6.71a.36.36,0,0,1-.41-.41V228.48q-.33.08-11.12,11.08v20.78a.36.36,0,0,1-.41.41h-6.94q-5.22-1.34-5.22-5.22V189.87C416.56,189.59,416.7,189.46,416.95,189.46ZM430,202.07v19.7q.33-.07,11.12-11.08v-8.62Z"/><path class="cls-1" d="M456.94,189.46h35.25q.41.08.41.41V213a.36.36,0,0,1-.41.41h-6.71q-4.4,0-5.45-6.08V202H468.69v15.33q17.27,5.45,23.91,7.95v29.13q0,5.11-5.26,6.3h-30.4a.36.36,0,0,1-.41-.41V237.28c0-.3.19-.45.41-.45h4.22q6,0,7.35,3.58a4.33,4.33,0,0,1,.6,2.09v5.67H480V233.7q-23.5-7.5-23.5-8V189.87C456.58,189.59,456.71,189.46,456.94,189.46Z"/></svg>