<svg id="Camada_1" data-name="Camada 1" xmlns="http://www.w3.org/2000/svg" viewBox="0 0 599.74 450.24"><defs><style>.cls-1{fill:#fff;}</style></defs><title>3-FORTAL</title><rect width="599.74" height="450.24"/><polygon class="cls-1" points="121.34 190.5 121.34 202.69 141.79 202.69 141.79 218.06 121.34 218.06 121.34 258.36 107.06 258.36 107.06 174.54 156.76 174.54 156.76 190.5 121.34 190.5"/><path class="cls-1" d="M342.8,267.49c-.37-.19-.74-.34-1.11-.49a25.28,25.28,0,0,1-15.22-16.39c-2-6-4.48-11.82-6.84-17.69-2.81-7-8.07-11.38-15.06-13.89-.46-.19-.93-.37-1.64-.68,4.33-1.36,7.08-3,9.28-6.09,5.75-8.07,7.18-16.64,2.81-25.89-2.66-5.66-6.8-9.4-13.05-10.45a59.9,59.9,0,0,0-9.37-1c-12.37-.09-24.74,0-37.12,0a2.35,2.35,0,0,0-.65.09v15.87h11.38V258.3h16V226.63c2.26.19,4.21.25,6.12.49a17.9,17.9,0,0,1,13.3,8c4.21,6.4,7.27,13.36,10.18,20.41,2.07,5.1,4.11,10.21,7.58,14.63a25.93,25.93,0,0,0,14.17,9.62,1.83,1.83,0,0,0,1.58-.34c2.75-3.87,5.41-7.76,8.1-11.66C343.08,267.7,343,267.61,342.8,267.49Zm-45.59-59c-3.68,2.17-7.73,2.23-11.85,2.1-1.11,0-2.26-.19-3.53-.31V190.78c4.95-.62,9.84-.8,14.51,1A7.77,7.77,0,0,1,301.6,199C301.85,202.94,300.86,206.37,297.21,208.53Z"/><path class="cls-1" d="M445.08,175.1v83.85H429.62V220.69H405.74V206.28h24c0-2.13,0-4.08,0-6,0-2.85.06-5.66.15-8.51,0-.77-.09-1.3-1.05-1.27-6,.06-11.91.8-17.32,3.8-4.76,2.63-7.79,6.74-10,11.6a54.07,54.07,0,0,0-4.58,20.51,67.65,67.65,0,0,0,1.64,20.26c1.21,4.55,3,8.75,6.71,12.22a12.49,12.49,0,0,1-1.33.12c-6,0-12,0-17.94,0a1.79,1.79,0,0,1-1.92-1.3,44.09,44.09,0,0,1-3.43-15.43c-.53-11.26-.53-22.58,2.63-33.43,4.05-13.92,12.12-24.81,26.07-30.4a47,47,0,0,1,16-3.28c6.28-.19,12.56-.12,18.87-.15A4.2,4.2,0,0,1,445.08,175.1Z"/><polygon class="cls-1" points="384.62 175.41 384.62 191.24 361.92 191.24 361.92 258.86 345.52 258.86 345.52 191.31 322.67 191.31 322.67 175.41 384.62 175.41"/><polygon class="cls-1" points="492.69 241.81 492.69 258.86 452.66 258.86 452.66 175.47 468.93 175.47 468.93 241.81 492.69 241.81"/><path class="cls-1" d="M226.1,210.79c-2.44-13.39-12.22-23.41-25.55-24.4-10.33-.74-18.37,3.93-22.33,13.52a48.07,48.07,0,0,0-3,13.83c-1.08,11.32,2.29,21,10.49,29a26.13,26.13,0,0,0,13.76,7.52c6.28,1.11,11.6-1.18,16.11-5.32,7.7-7.05,11.07-16,11.35-27.25C226.72,216,226.57,213.36,226.1,210.79Zm-13.89,34.55c-5.51,4.08-11.44,4.58-17.48,1.48-11.2-5.78-17.44-14.94-17.85-27.71a44.46,44.46,0,0,1,2.94-18.5c3.93-9.56,11.44-13.18,21.22-12.34,13,1.11,20.88,10.79,23.2,22.39.53,2.6.68,5.29,1,7.55C224.59,229.38,221.15,238.69,212.22,245.34Z"/><path class="cls-1" d="M254.87,212.49l-21.43,2c-.62-3.09-1.21-6.09-1.82-9.22l19-8C252.83,201.14,255,208.94,254.87,212.49Z"/><path class="cls-1" d="M254,228a44.81,44.81,0,0,1-6.31,14.41l-17-9.46c.84-3.12,1.64-6.09,2.47-9.25Z"/><path class="cls-1" d="M171.08,226l-17.48,4.73a36.14,36.14,0,0,1-1.39-15.22l17.44.65C170.15,219.51,170.62,222.67,171.08,226Z"/><path class="cls-1" d="M241.85,184.62l-14.48,12.06-6.77-7.3,9.16-14.13C233.4,176.77,239.68,181.66,241.85,184.62Z"/><path class="cls-1" d="M178.07,246.33c-1.61,1.95-3.22,3.87-4.92,5.75a1.27,1.27,0,0,1-1.14.25,37.57,37.57,0,0,1-11-8.57l12.53-7.95c1.61,3.19,3.19,6.25,4.67,9.34A1.23,1.23,0,0,1,178.07,246.33Z"/><path class="cls-1" d="M236.77,253a43.51,43.51,0,0,1-13.58,5.69c-1.3-2.57-2.6-5.17-3.77-7.55l7-8.88c.15.15.46.37.68.62Z"/><path class="cls-1" d="M215.68,170.74c-1.24,4.45-2.41,8.69-3.56,12.84L201.24,180c0-2.54,0-5.32,0-8.07a1.3,1.3,0,0,1,.84-1A47.55,47.55,0,0,1,215.68,170.74Z"/><path class="cls-1" d="M172.56,195.76c-1,3.34-2,6.65-3.09,10.05l-13.05-4.55,8.94-11.6c2.54,1.89,4.76,3.53,7,5.2A1.28,1.28,0,0,1,172.56,195.76Z"/><path class="cls-1" d="M190.1,180.73,179.62,186,176,181.07l12-6.46Z"/><path class="cls-1" d="M209.74,260.34a84.66,84.66,0,0,1-24.22-2.81l1.39-3.43c10.33,4.39,12.87,4.7,22.18,2.75C209.28,257.9,209.46,258.95,209.74,260.34Z"/></svg>