<svg id="Camada_1" data-name="Camada 1" xmlns="http://www.w3.org/2000/svg" viewBox="0 0 599.74 450.24"><defs><style>.cls-1{fill:#fff;}</style></defs><title>4-SELIGAVM</title><rect width="599.74" height="450.24"/><g id="Camada_1-2" data-name="Camada 1"><path class="cls-1" d="M492.23,209.16c-15.3,3.21-30.6,6.47-45.9,9.64-6.64,1.38-13.23,3-19.93,4.17-1.3.22-1.31-.1-.87-1.14,1.14-2.73,2.26-5.47,2-8.53V181.89a12,12,0,0,1-.28-1.72c-.14-6.29-3.32-10.63-8.79-13.33-4.38-2.16-9-2.08-13.55-.62a26.13,26.13,0,0,0-16.27,14.15A21.86,21.86,0,0,0,386,189.7c-.08,1,.32,1.25,1.25,1.07,2.86-.62,5.69-1.2,8.54-1.79.55-.11,1-.29,1.07-1,.09-2.07,1.07-3.86,1.82-5.71.89-.95,1.7-2,2.67-2.83,4.37-3.83,11.64-4.8,14.85,1.75a11.78,11.78,0,0,1-1.57,9.73,16.6,16.6,0,0,1-6.32,5.29,15.88,15.88,0,0,0-5.47,1.45c-7.33,3.17-12.55,8.37-15.25,16a14.85,14.85,0,0,0-1.45,6.73,16.14,16.14,0,0,0,1,8,3.85,3.85,0,0,0,.32.82c1,1.51.46,2-1.17,2.34-3.52.71-7,1.66-10.51,2.37a7.33,7.33,0,0,1-3,.21,8.73,8.73,0,0,1-6.63-5.47q0-16.36-.06-32.71a8.52,8.52,0,0,0-.31-3.34,15.16,15.16,0,0,0-7.63-12.17c-7.07-4.18-17.85-2.38-24.18,3.93a14.18,14.18,0,0,0-3.37,3.28c-.4.36-.89.68-.95,1.31a7.34,7.34,0,0,0-1.76,2.62h0a21.78,21.78,0,0,0-3.57,11.78c-.16,4.76-.14,9.53,0,14.28v16.07a13.64,13.64,0,0,1-6.86,12c-6.84,2.78-10.77,1.21-13.1-5.25l-.05-19.61V201.89q0-5.14.07-10.28c0-.76,0-1.52-1.11-1.25-3.21.78-6.51,1.12-9.64,2.22-.52.69-.3,1.49-.3,2.24q0,22.63,0,45.26a14.75,14.75,0,0,1-.34,4.07c-1.15,4.13-4,6.78-7.6,8.74a8,8,0,0,0-2.86.71c-3.21.32-6.28,1.28-9.43,1.9-3.4.66-6.38.05-8.76-2.64a10.57,10.57,0,0,1-1.48-5.95c.05-9.69,0-19.38,0-29.07q0-33.52,0-67c0-1.59,0-2.1-.62-2.1a5.74,5.74,0,0,0-1.27.27l-3.51.78a10.17,10.17,0,0,0-3.16.47c-2.58.6-2.59,0-2.59,3.17q0,47.08.07,94.16a22,22,0,0,1-.48,6,18.42,18.42,0,0,1-4.58,6.36,17.68,17.68,0,0,1-4.32,2.08c-10.64,2.28-21.27,4.61-31.92,6.78-4.46.92-8.29-1.9-9.08-6.43-.21-1.22-.23-2.5-.36-3.72.16-2.3.16-2.33,2.41-1.9a17.77,17.77,0,0,0,7.43-.12,25.9,25.9,0,0,0,18.72-15.47,19.15,19.15,0,0,0,2.21-9.07c0-3,0-5.94,0-8.9a7,7,0,0,0-.39-3.15A15.36,15.36,0,0,0,217.45,207c-8.73-.61-15.55,3.13-21,9.78-.79.61-1.3,0-1.88-.41A17.07,17.07,0,0,0,182,213.54c-6.72,1.2-13.47,2.36-20.09,4.07a25.34,25.34,0,0,0-13.25,8.86A23.68,23.68,0,0,0,143,239a17.13,17.13,0,0,0,2.08,12.55,18.32,18.32,0,0,0,1.48,2.2c4.41,4.9,10,6.33,16.28,5.16,3.29-.61,6.24-.21,8.71,2.25a9.28,9.28,0,0,1,1.51,7.79c-1.56,5.61-5.27,8.82-10.92,10-12.25,2.6-24.51,5.31-36.78,7.92-5.88,1.25-11.78,2.38-17.66,3.57v11.07c.46-.12.92-.26,1.38-.36l53.54-11.43c10.16-2.18,16.88-8.42,20.39-18,1.74-4.78,2.06-9.75-.26-14.56-1-1.65-1.63-3.52-3.1-4.94-4.41-4.26-9.7-5.37-15.51-4.38a12,12,0,0,1-6.81-.6c-3.35-2.25-4.16-5.49-3.61-9.26a10.89,10.89,0,0,1,.6-2,14.94,14.94,0,0,1,6.78-7.19l.17-.1c6.18-1.51,12.44-2.6,18.67-3.87,3.4-.71,6.37-.15,8.83,2.41a10.54,10.54,0,0,1,1.75,6.17c0,1.64,0,3.28.05,4.92q0,8.39,0,16.78c0,2.91-.07,5.83-.06,8.74a16.07,16.07,0,0,0,18.78,16.1c3.11-.47,6.19-1.17,9.28-1.82,8.32-1.79,16.67-3.4,24.93-5.42A23.57,23.57,0,0,0,257,263.37a1.47,1.47,0,0,1,1.31.36c4.6,3.34,9.71,3.83,15.11,2.67,2.86-.61,5.69-1.19,8.55-1.79,6-1.22,11.23-3.76,15.25-8.49.95-.36,1.14-2.32,2.83-1.07,9.28,6.73,22.3,1.48,27.82-5.36.37-.46.76-.91,1.12-1.38s.85-.61,1.47-.13c4.23,3.3,9.05,4,14.18,3a10.69,10.69,0,0,1,6.78.71c.21.21.41.43.64.62a7.41,7.41,0,0,1,2.82,7.78c-.69,3.11-3,4.43-5.85,5.33-8.4,2.59-13.64,8.27-15.27,16.93-1.8,9.57,5.54,17,15.12,15.57,9.3-1.4,17.23-10.59,17.23-20V263.89q0-8.83,0-17.67c0-.8-.22-1.79,1.1-1.79a13.66,13.66,0,0,0,6.85.45c3.73-.67,7.46-1.4,11.16-2.24,5.43-1.23,11-2,16.32-3.6.76-.12,1.53-.2,2.28-.36l26.16-5.54c5.75-1.23,11.49-2.5,17.24-3.73,3.08-.62,6.17-1.22,9.25-1.87l36.78-7.8V209A10.48,10.48,0,0,0,492.23,209.16ZM202.94,224.58c.15-.3.29-.61.43-.91a19.64,19.64,0,0,1,5.13-4.6l.32-.09h0a25.78,25.78,0,0,1,3.1-.83c4.11-.67,6.87,1.07,9,5.51,0,.1,0,.2,0,.3h0a78.82,78.82,0,0,1,.22,9,14,14,0,0,1-1.2,5.77c-.15.36-.32.71-.5,1.07a14.71,14.71,0,0,1-6.43,5.43c-4.47,1.79-8.84.39-10.77-3.41a8.17,8.17,0,0,1-.71-3.62c-.1-2.6.36-5.22-.24-7.8l0,0h0C201.12,228.19,202.06,226.4,202.94,224.58Zm152.18,11.93v1.61c0,2.31,0,2.3-2.22,1.94a20.51,20.51,0,0,0-6.93,0c-5.51,1-7.81-.11-10.48-5a1.39,1.39,0,0,1-.28-.66,6,6,0,0,1,0-1c0-5,0-10,0-15a1.27,1.27,0,0,0,.3-.19l-.29-.13c.11-4.64.16-9.3,0-14v-.45a15,15,0,0,1,3.62-10.43l.45-.49a12.85,12.85,0,0,1,7.46-3.29c4.38-.31,7.25,2,8.47,6.72l-.11.07h.14Zm-2.59,49.13c-2,1.66-4.93,1.89-6.56.46s-1.84-4.14-.48-6.38a7.18,7.18,0,0,1,4.27-3.28,33.69,33.69,0,0,0,3.87-1.31c1.15-.49,1.52-.15,1.49,1,0,.83,0,1.66,0,2.9a7.2,7.2,0,0,1-2.58,6.61Zm64.09-70.43c-.05,5.46-4.55,11.14-9.93,12.14-3.7.71-7.23,0-9.42-4.77-.06-.26-.12-.52-.17-.77a12.77,12.77,0,0,1,.93-7.44c.1-.24.21-.47.32-.71a15,15,0,0,1,10-6.73,18.36,18.36,0,0,0,7.57-3.66h0l.3-.24c.54.45.42,1.07.42,1.66C416.63,208.2,416.66,211.71,416.62,215.21Z"/></g><g id="Camada_3" data-name="Camada 3"><path class="cls-1" d="M292.43,174.51A6.53,6.53,0,1,1,299,181.1a6.53,6.53,0,0,1-6.55-6.59Z"/></g><g id="Camada_4" data-name="Camada 4"><polygon class="cls-1" points="398.44 250.44 405.33 250.44 395.48 276.26 389.06 276.26 379.21 250.44 386.1 250.44 392.25 268 398.44 250.44"/><polygon class="cls-1" points="428.89 250.38 435.08 250.38 435.08 276.19 428.22 276.19 428.22 261.92 422.37 271.04 419.62 271.04 413.77 261.92 413.77 276.19 406.91 276.19 406.91 250.38 413.1 250.38 421 262.96 428.89 250.38"/></g></svg>