<svg id="Camada_1" data-name="Camada 1" xmlns="http://www.w3.org/2000/svg" viewBox="0 0 599.74 450.24"><defs><style>.cls-1{fill:#fff;}.cls-2{isolation:isolate;}</style></defs><title>5-TBTWS</title><rect width="599.74" height="450.24"/><path class="cls-1" d="M320,142.46v7.63c-.45-.5-.73-.9-1.07-1.29a18.89,18.89,0,0,0-8.41-5.22,23.27,23.27,0,0,0-7.85-1H229.91a1.55,1.55,0,0,0-.5.06v12.9h16.15V206h17.16V156c0-.39.11-.5.5-.45h1.85c12.06.06,24.12.06,36.18.11a5.91,5.91,0,0,1,2.75.73,2.65,2.65,0,0,1,1.51,2.41c.06,2,.06,4,0,6a2,2,0,0,1-.34,1.12,4.9,4.9,0,0,1-4.38,2.75c-3.53.11-7,.06-10.55.11-.45,0-.45-.22-.45-.56,0-3.25.06-6.51.06-9.76v-.67H272.6V205.9h35.9a20.58,20.58,0,0,0,5.22-.5,19.36,19.36,0,0,0,11.5-7.12,12.5,12.5,0,0,0,2.36-5.1,29.28,29.28,0,0,0,.34-7,13.32,13.32,0,0,0-1.23-5.5,17,17,0,0,0-7.63-7.74c-.22-.17-.5-.28-.79-.45.17-.17.22-.28.34-.34a14.2,14.2,0,0,0,4-7.29,29.33,29.33,0,0,0,.22-7.35c-.06-.67-.17-1.35-.22-2H336.2V206h17.28V155.41h16.1v-13Zm-9.31,46.05a4.68,4.68,0,0,1-3.59,4.54,10.11,10.11,0,0,1-2.58.28c-4.77.06-9.54.06-14.3.06h-.28V179.7h.9c4.82,0,9.59.06,14.36,0a5.84,5.84,0,0,1,3.7,1.18,4.3,4.3,0,0,1,1.85,3.65C310.74,185.87,310.74,187.16,310.68,188.51Z"/><path class="cls-1" d="M366.21,255.71a18,18,0,0,1-5.61,10,23.64,23.64,0,0,1-13.74,6.45,48.83,48.83,0,0,1-15.65-.34,22.08,22.08,0,0,1-15.09-10.43,17.69,17.69,0,0,1-2.47-8.41v-.34h16a11.66,11.66,0,0,0,.17,1.29,5.6,5.6,0,0,0,1.79,3.09,7.35,7.35,0,0,0,4.82,2.13,63.6,63.6,0,0,0,8-.17,6.75,6.75,0,0,0,5.67-4.26A5.46,5.46,0,0,0,349,249a7.81,7.81,0,0,0-6.06-2.75c-3.09-.17-6.11,0-9.2-.28a23.68,23.68,0,0,1-15-6.73,16.36,16.36,0,0,1-5-10.77,1.13,1.13,0,0,0-.22-.73l-10.94,41.68h-.17c-.06-.11-.11-.28-.17-.39-1-3.59-1.91-7.18-2.92-10.77-1.51-5.38-3-10.83-4.54-16.21a6.91,6.91,0,0,1,.17-3.7c1.51-5.78,3-11.55,4.43-17.33l3.2-12.45c.11-.34.22-.45.56-.45,4.94,0,9.93,0,14.92-.06h.79L316,218.57l.11.06a3.4,3.4,0,0,0,.39-.56,18.42,18.42,0,0,1,5.89-6.23,25.43,25.43,0,0,1,15.09-4.54c2.58,0,5.22-.06,7.8.11a24.23,24.23,0,0,1,17.16,8.53,17.13,17.13,0,0,1,4.15,10.71v.45c-.17,0-.34.06-.56.06H351.46c-.5,0-.67-.06-.79-.62-.62-3.09-2.64-4.82-5.55-5.61a8.34,8.34,0,0,0-2-.28c-2.41,0-4.82-.06-7.29.17a6.52,6.52,0,0,0-4.66,2.64,5.31,5.31,0,0,0,2.3,8.64,8.18,8.18,0,0,0,2.58.56c2.36.11,4.71.11,7.07.17a26.76,26.76,0,0,1,14.14,4.09,20,20,0,0,1,8.19,9.42A17.74,17.74,0,0,1,366.21,255.71Z"/><path class="cls-1" d="M300.7,271.47c-.22,0-.34.06-.5.06h-15a.82.82,0,0,1-1-.67c-1.51-5.44-3.09-10.88-4.6-16.27-1.18-4.21-2.36-8.36-3.53-12.56-.17-.56-.34-1.07-.5-1.63h-.17l-.17.34c-1.18,4.38-2.41,8.81-3.59,13.18-1.35,4.94-2.75,9.82-4.15,14.7-.22.84-.45,1.68-.73,2.52a.64.64,0,0,1-.5.34c-.79.06-1.51,0-2.3,0H249.77c-.45,0-.73-.11-.84-.62-1.35-5.27-2.75-10.55-4.09-15.76C242.7,247,240.57,239,238.49,231c-1.85-7.18-3.76-14.36-5.61-21.54-.11-.45-.17-.9-.28-1.35.17,0,.28-.06.45-.06,5,0,10.1.06,15.09.06.45,0,.56.17.62.56,1.12,4.54,2.3,9.14,3.48,13.69l5,19.86c.22.79.34,1.63.5,2.47H258c.34-1,.62-2,.9-3,2.3-7.8,4.54-15.65,6.84-23.45.9-3.14,1.85-6.28,2.69-9.48.17-.67.45-.79,1.07-.79h12.84c.62,0,.84.11,1,.79,1,3.59,1.91,7.12,2.92,10.66,1.07,3.87,2.13,7.8,3.2,11.67,2.13,7.63,4.26,15.26,6.39,22.83,1.46,5.22,2.92,10.49,4.38,15.76C300.42,270.35,300.53,270.91,300.7,271.47Z"/><path class="cls-1" d="M373.51,115.59a22.8,22.8,0,0,1,22.72,22.72V275.73a22.69,22.69,0,0,1-22.72,22.72H225.42a22.69,22.69,0,0,1-22.72-22.72V138.31a22.73,22.73,0,0,1,22.72-22.72H373.51m0-8.41H225.42a31.24,31.24,0,0,0-31.13,31.13V275.73a31.24,31.24,0,0,0,31.13,31.13H373.51a31.24,31.24,0,0,0,31.13-31.13V138.31A31.24,31.24,0,0,0,373.51,107.18Z"/><g class="cls-2"><path class="cls-1" d="M189.47,323h4c.45,0,.79-.06,1-.06a2.41,2.41,0,0,0,.67-.11l.5-.17a3.87,3.87,0,0,0,.56-.22h.17l1.51,8.47h-.17a32.81,32.81,0,0,0-5.16-4.15,12.69,12.69,0,0,0-5-2v7.35a6.42,6.42,0,0,0,2.24-1.12,7.57,7.57,0,0,0,2.13-2.69h.28v9H192a6.18,6.18,0,0,0-1-1.4,10.59,10.59,0,0,0-1.12-1.12,7.17,7.17,0,0,0-1.18-.79,3.6,3.6,0,0,0-1.12-.45,11.41,11.41,0,0,0,.06,1.23c0,.5.06,1.12.11,1.74s.17,1.29.22,2,.22,1.35.34,2a9.33,9.33,0,0,0,.5,1.63,4,4,0,0,0,.56,1v.17h-8.69v-.17a4.15,4.15,0,0,0,1-2.08,24.87,24.87,0,0,0,.62-3.59c.11-1.35.22-2.8.22-4.38a36.83,36.83,0,0,0-.22-4.38,19.81,19.81,0,0,0-.62-3.59,4.73,4.73,0,0,0-1-2.08V323h8.69Z"/><path class="cls-1" d="M206.13,343a11.06,11.06,0,0,1-3.93-2.41,9.57,9.57,0,0,1-2.36-3.48,10.66,10.66,0,0,1-.79-3.93,10.43,10.43,0,0,1,.79-3.93,9.38,9.38,0,0,1,2.36-3.42,10.82,10.82,0,0,1,4-2.41,10.11,10.11,0,0,1,2.24-.56,16.58,16.58,0,0,1,4.71,0,14.58,14.58,0,0,1,2.24.56,11.34,11.34,0,0,1,4.21,2.58,10.92,10.92,0,0,1,2.36,3.7,9.7,9.7,0,0,1,.56,4.21,10.44,10.44,0,0,1-1.18,4.09,10.2,10.2,0,0,1-2.86,3.37,11.31,11.31,0,0,1-4.54,2.08,13,13,0,0,1-1.57.28,14.7,14.7,0,0,1-1.57.06,11.18,11.18,0,0,1-2.36-.22A9.86,9.86,0,0,1,206.13,343Zm2.92-1.18a3.84,3.84,0,0,0,2,.45,4.72,4.72,0,0,0,1.51-.22,4.5,4.5,0,0,0,1.35-.73,5,5,0,0,0,1.57-2.19,10.84,10.84,0,0,0,.79-3.09,14.33,14.33,0,0,0,.06-3.48,16.24,16.24,0,0,0-.62-3.37,11.11,11.11,0,0,0-1.29-2.86,5.56,5.56,0,0,0-2-1.85,4.84,4.84,0,0,0-2-.45,4.69,4.69,0,0,0-2.86.9,5.11,5.11,0,0,0-1.63,2.19,10,10,0,0,0-.79,3,17.86,17.86,0,0,0-.06,3.48,16.27,16.27,0,0,0,.67,3.37,11.21,11.21,0,0,0,1.35,2.86A5.35,5.35,0,0,0,209,341.86Zm-1.29-8.69,2.92-2.86h.22l2.92,2.86v.22l-2.92,2.86h-.22l-2.92-2.86Z"/></g><g class="cls-2"><path class="cls-1" d="M223.57,323h11.11a8.93,8.93,0,0,1,3.93.73,5.8,5.8,0,0,1,2.41,1.79,4.49,4.49,0,0,1,1,2.47,5.11,5.11,0,0,1-.39,2.58,5.39,5.39,0,0,1-1.74,2.19,6.69,6.69,0,0,1-2.92,1.35c.45.79,1,1.63,1.57,2.58s1.18,1.79,1.85,2.64a27.52,27.52,0,0,0,1.85,2.3,7.35,7.35,0,0,0,1.68,1.46v.17h-9.09v-.17a4,4,0,0,0,.11-1.46,13,13,0,0,0-.34-1.85,13.55,13.55,0,0,0-.67-2,8.81,8.81,0,0,0-1-1.74,5,5,0,0,0-1.18-1.23,2.09,2.09,0,0,0-1.29-.5v9h-6.84v-.17a4.15,4.15,0,0,0,1-2.08,24.87,24.87,0,0,0,.62-3.59c.11-1.35.22-2.8.22-4.38a36.83,36.83,0,0,0-.22-4.38,19.81,19.81,0,0,0-.62-3.59,4.73,4.73,0,0,0-1-2.08Zm9.59,9.59a3.24,3.24,0,0,0,2-.56,3.67,3.67,0,0,0,1.23-1.4,4.1,4.1,0,0,0,.45-1.85,4.94,4.94,0,0,0-.34-1.85,3.38,3.38,0,0,0-1.12-1.4,3.13,3.13,0,0,0-2-.56h-2.92v7.63h2.69Z"/></g><g class="cls-2"><path class="cls-1" d="M244.44,322.45a5.49,5.49,0,0,0,2.3.5h13.35a5.3,5.3,0,0,0,2.3-.5h.11l.39,8.53h-.11a22.17,22.17,0,0,0-3.37-3.93A9.34,9.34,0,0,0,256,325v5.83c0,1.23.06,2.52.11,3.81s.17,2.58.28,3.7a18.36,18.36,0,0,0,.56,3,3.78,3.78,0,0,0,.9,1.79v.17h-8.69v-.17a3.57,3.57,0,0,0,.9-1.79,18.36,18.36,0,0,0,.56-3c.11-1.18.22-2.41.28-3.7s.06-2.58.11-3.81V325a8.44,8.44,0,0,0-3.48,2.08,25.12,25.12,0,0,0-3.42,4H244l.39-8.53h.06Z"/></g><g class="cls-2"><path class="cls-1" d="M275.46,323v.17a2,2,0,0,0-.22,1.29,9.86,9.86,0,0,0,.34,2.3,26.28,26.28,0,0,0,.79,3c.34,1.07.67,2.19,1.12,3.31s.84,2.24,1.29,3.31,1,2.08,1.4,3,1,1.68,1.35,2.36a4.94,4.94,0,0,0,1.18,1.35v.17h-8.36v-.17a2.51,2.51,0,0,0,.34-1.51,9.94,9.94,0,0,0-.34-2.41h-7.12a16.65,16.65,0,0,0-.45,2.47,2.11,2.11,0,0,0,.28,1.46v.17h-6.56v-.17a5,5,0,0,0,1.46-1.57,23.75,23.75,0,0,0,1.63-2.75c.56-1.07,1.12-2.24,1.68-3.48s1.07-2.52,1.51-3.76a36.22,36.22,0,0,0,1.12-3.53,19.62,19.62,0,0,0,.62-2.92,1.91,1.91,0,0,0-.17-1.12,1.77,1.77,0,0,0-.79-.79V323h7.91Zm-1.85,13.18c-.11-.45-.34-1-.56-1.68s-.5-1.4-.79-2.19-.5-1.46-.79-2.13-.45-1.18-.62-1.51c-.17.45-.39,1-.62,1.57s-.45,1.18-.73,1.85-.5,1.29-.73,2-.5,1.4-.73,2.08Z"/><path class="cls-1" d="M290.66,341.47a10.24,10.24,0,0,0,2.64-.84,19.84,19.84,0,0,0,2.8-1.51,18.56,18.56,0,0,0,2.8-2,27.52,27.52,0,0,0,2.69-2.41h.17l-1.29,8.58H283.76v-.17a4.15,4.15,0,0,0,1-2.08,24.87,24.87,0,0,0,.62-3.59c.11-1.35.22-2.8.22-4.38a36.83,36.83,0,0,0-.22-4.38,19.81,19.81,0,0,0-.62-3.59,4.73,4.73,0,0,0-1-2.08v-.17h8.69V323a3.34,3.34,0,0,0-.9,1.79,20.9,20.9,0,0,0-.56,3c-.11,1.12-.22,2.41-.28,3.76s-.11,2.64-.11,3.87v3.42C290.6,340.07,290.66,340.91,290.66,341.47Z"/><path class="cls-1" d="M311.52,323h4.38c.45,0,.84-.06,1.12-.06a2.09,2.09,0,0,0,.67-.11l.5-.17a3.87,3.87,0,0,0,.56-.22h.17L320.5,331h-.17a33.21,33.21,0,0,0-5.44-4.38,11.18,11.18,0,0,0-5.27-1.79v7.4a5.43,5.43,0,0,0,1.12-.28,5,5,0,0,0,1.35-.67,8.19,8.19,0,0,0,1.4-1.12,8.64,8.64,0,0,0,1.23-1.74H315v9h-.28a6.77,6.77,0,0,0-1.18-1.57,8.79,8.79,0,0,0-1.4-1.12,10.48,10.48,0,0,0-1.4-.67,7.63,7.63,0,0,0-1.12-.34v7.8a10.24,10.24,0,0,0,2.64-.84,19.84,19.84,0,0,0,2.8-1.51c1-.62,1.85-1.29,2.8-2a26.88,26.88,0,0,0,2.64-2.41h.17l-1.29,8.58H302.72v-.17a4.15,4.15,0,0,0,1-2.08,24.87,24.87,0,0,0,.62-3.59c.11-1.35.22-2.8.22-4.38a36.83,36.83,0,0,0-.22-4.38,19.81,19.81,0,0,0-.62-3.59,4.73,4.73,0,0,0-1-2.08v-.17h8.81Z"/></g><g class="cls-2"><path class="cls-1" d="M321.79,343.32v-.17a8.53,8.53,0,0,0,1.18-1.23q.84-1.09,2-2.69c.79-1.07,1.63-2.3,2.52-3.59s1.74-2.64,2.64-3.93,1.63-2.58,2.3-3.76,1.23-2.19,1.63-3a11.7,11.7,0,0,0-2.75.73,16.15,16.15,0,0,0-2.58,1.35,17.91,17.91,0,0,0-2.41,1.79c-.79.67-1.57,1.4-2.3,2.13h-.11l1.51-8.47h.11c.22.11.45.17.56.22l.5.17c.17.06.39.06.67.11s.56.06,1,.06h15.2v.17a6.94,6.94,0,0,0-1.4,1.35c-.67.73-1.4,1.63-2.19,2.64s-1.68,2.24-2.52,3.53-1.74,2.58-2.58,3.87-1.57,2.52-2.19,3.7a24,24,0,0,0-1.46,3.09h0a11.86,11.86,0,0,0,3.37-.84,18.58,18.58,0,0,0,3.14-1.63,26.6,26.6,0,0,0,2.86-2.08c.9-.79,1.74-1.51,2.52-2.3h.11l-1.46,8.75H321.79Z"/></g><g class="cls-2"><path class="cls-1" d="M358.47,323v.17a2,2,0,0,0-.22,1.29,9.86,9.86,0,0,0,.34,2.3,26.28,26.28,0,0,0,.79,3c.34,1.07.67,2.19,1.12,3.31s.84,2.24,1.29,3.31,1,2.08,1.4,3a27,27,0,0,0,1.35,2.36,4.94,4.94,0,0,0,1.18,1.35v.17h-8.36v-.17a2.51,2.51,0,0,0,.34-1.51,9.94,9.94,0,0,0-.34-2.41h-7.12a16.65,16.65,0,0,0-.45,2.47,2,2,0,0,0,.28,1.46v.17H343.5v-.17a5,5,0,0,0,1.46-1.57c.5-.79,1.07-1.68,1.63-2.75s1.12-2.24,1.68-3.48,1.07-2.52,1.51-3.76A36.23,36.23,0,0,0,350.9,328a19.62,19.62,0,0,0,.62-2.92,1.91,1.91,0,0,0-.17-1.12,1.77,1.77,0,0,0-.79-.79V323h7.91Zm-1.85,13.18c-.11-.45-.34-1-.56-1.68s-.5-1.4-.79-2.19-.5-1.46-.79-2.13-.45-1.18-.62-1.51c-.17.45-.39,1-.62,1.57s-.45,1.18-.73,1.85-.5,1.29-.73,2-.5,1.4-.73,2.08Z"/></g><g class="cls-2"><path class="cls-1" d="M376.37,335.07a1.8,1.8,0,0,0-.73-.28,5.66,5.66,0,0,0-1.12-.22,10.93,10.93,0,0,0-1.4-.11c-.5,0-1-.06-1.57-.06a13.17,13.17,0,0,0-1.51.06,9.31,9.31,0,0,0-1.35.11,5.06,5.06,0,0,0-1.07.22,4.07,4.07,0,0,0-.67.28h-.06V331.2h.06a1.52,1.52,0,0,0,.67.28c.34.06.67.17,1.07.22a10.15,10.15,0,0,0,1.4.11c.5,0,1,.06,1.57.06a14.18,14.18,0,0,0,1.57-.06,10.93,10.93,0,0,0,1.4-.11,5.66,5.66,0,0,0,1.12-.22,2,2,0,0,0,.67-.28h.06v3.87Z"/></g><g class="cls-2"><path class="cls-1" d="M394.88,333.28a12.45,12.45,0,0,0-.5-3.65,14.55,14.55,0,0,0-1.18-2.8,6.51,6.51,0,0,0-1.68-1.79,3.25,3.25,0,0,0-2-.62A5.23,5.23,0,0,0,387,325a4.84,4.84,0,0,0-1.74,1.63,6.25,6.25,0,0,0-.9,2.36,11.91,11.91,0,0,0-.17,2.86,11.2,11.2,0,0,0,.9,3.76,10.16,10.16,0,0,0,1.85,2.8,7.35,7.35,0,0,0,2.47,1.74,7.08,7.08,0,0,0,2.86.62,7.46,7.46,0,0,0,3.2-.79,8.62,8.62,0,0,0,2.86-2.52l1.29.67a11.16,11.16,0,0,1-4.43,4.32,13.11,13.11,0,0,1-2.8,1.07,13.42,13.42,0,0,1-3,.34,12.25,12.25,0,0,1-4.49-.84,12,12,0,0,1-3.31-2,8.47,8.47,0,0,1-2.19-2.75,10.86,10.86,0,0,1-1.12-3.2,9.69,9.69,0,0,1-.06-3.37,11.5,11.5,0,0,1,1-3.25,10.79,10.79,0,0,1,2-2.8,9.89,9.89,0,0,1,3.76-2.36,12.8,12.8,0,0,1,4.38-.73,14,14,0,0,1,5.83,1.23c.45.17.9.34,1.29.45a5.44,5.44,0,0,0,1.29.17,3.27,3.27,0,0,0,1.07-.17l.11.06-3.87,9h-.28Z"/><path class="cls-1" d="M409.35,323h4.38c.45,0,.84-.06,1.12-.06a2.09,2.09,0,0,0,.67-.11l.5-.17a3.87,3.87,0,0,0,.56-.22h.17l1.51,8.47h-.17a33.21,33.21,0,0,0-5.44-4.38,11.18,11.18,0,0,0-5.27-1.79v7.4a5.43,5.43,0,0,0,1.12-.28,5,5,0,0,0,1.35-.67,8.19,8.19,0,0,0,1.4-1.12,8.64,8.64,0,0,0,1.23-1.74h.28v9h-.28a6.77,6.77,0,0,0-1.18-1.57,8.79,8.79,0,0,0-1.4-1.12,10.48,10.48,0,0,0-1.4-.67,7.63,7.63,0,0,0-1.12-.34v7.8a10.24,10.24,0,0,0,2.64-.84,19.84,19.84,0,0,0,2.8-1.51c1-.62,1.85-1.29,2.8-2a26.88,26.88,0,0,0,2.64-2.41h.17l-1.29,8.58H400.49v-.17a4.15,4.15,0,0,0,1-2.08,24.87,24.87,0,0,0,.62-3.59c.11-1.35.22-2.8.22-4.38a36.83,36.83,0,0,0-.22-4.38,19.81,19.81,0,0,0-.62-3.59,4.73,4.73,0,0,0-1-2.08v-.17h8.86Z"/></g></svg>