<svg id="Camada_1" data-name="Camada 1" xmlns="http://www.w3.org/2000/svg" viewBox="0 0 599.74 450.24"><defs><style>.cls-1{fill:#fff;}.cls-2{fill:none;stroke:#fff;stroke-miterlimit:10;stroke-width:2px;}</style></defs><title>7-SIRIGUELLA</title><rect width="599.74" height="450.24"/><g id="Camada_1-2" data-name="Camada 1"><path class="cls-1" d="M195.15,209.61v-9.89H210v9.89Zm0,46.3V214.08H210v41.84Z"/><path class="cls-2" d="M152,205.05c-15.64-2.71-16.93-5.59-16.93-9.2,0-4.23,3.29-6.34,10.19-6.34a20.21,20.21,0,0,1,3.8.32c7.08.35,9.66,3.7,11,9.92l23.31-4.66c-1.55-11.71-8-21.06-22.27-24.66a59.45,59.45,0,0,0-14.45-1.6c-25.1,0-37.16,10.11-37.16,28.37,0,15.85,7.32,26,31.28,29.74,15.49,2.56,18.5,5.28,18.5,9.81,0,2.71-1.72,4.35-4.9,5.15a25,25,0,0,1-5.86.58c-7.66,0-14.33-3.1-16.29-11.79l-.06-.29L107.68,236c1.58,14.33,10,27.93,39.74,27.93a63.83,63.83,0,0,0,18.87-2.44h0c13.14-4.12,19-13.26,19-26.39C185.3,221.5,180,210,152,205.05Z"/><path class="cls-1" d="M160.12,199.75l-2.37.47c-1.19-5.88-3.27-9.38-8.67-10.39C156.15,190.18,158.73,193.53,160.12,199.75Z"/><path class="cls-1" d="M151.25,204.82c-14.48-2.6-15.68-5.35-15.68-8.82,0-4,3.06-6.07,9.44-6.07h1.21c6.55.34,8.94,3.58,10.23,9.63l.12.6,23.77-4.92c-1.53-11.82-8.05-21.14-22.94-24.12a56.58,56.58,0,0,0-11-1c-23.24,0-34.38,9.69-34.38,27.22,0,15.18,6.78,24.88,29,28.49,14.33,2.46,17.13,5.06,17.13,9.4,0,3.22-2.43,4.86-6.85,5.34a28.57,28.57,0,0,1-3.11.15c-7.16,0-13.42-3-15.14-11.57l-2.26.53-20.52,4.79c1.43,13.74,9.31,26.75,36.79,26.75a61.08,61.08,0,0,0,15.16-1.68h0c13.8-3.58,19.9-12.61,19.9-25.95C182.07,220.59,177.16,209.59,151.25,204.82Z"/><path class="cls-1" d="M249.4,209.61v-9.89h14.86v9.89Zm0,46.3V214.08h14.86v41.84Z"/><path class="cls-1" d="M288.18,225c4.72,0,6.45,1.92,6.45,4.3,0,2.11-1.49,4.3-6.45,4.3s-6.45-2.18-6.45-4.3S283.1,225,288.18,225Zm8.74,21.44c-4.2,0-8.74.27-13.19.27-2.62,0-3.32-.52-3.32-1.75a5.64,5.64,0,0,1,.53-2l.26-.62a34.69,34.69,0,0,0,7,.62C300,243,307,238.59,307,232.22c0-4.2-4.11-5.78-9-6.65v-.87c3.23.17,5.77.26,7.78.26H310V214.08H288.25c-12.41,0-19.65,5.25-19.65,14.53,0,6.74,3.58,11.11,10,13.13l-3,1.31c-4.1,1.49-5.94,3.94-5.94,6.45,0,2.8,1.66,5.25,7.34,6V256c-5.51,1.14-10.13,3.77-10.13,7.53,0,5,4.46,8.23,20.53,8.14,17.48.09,23.5-4.72,23.5-13.82,0-7-4.08-11.35-14-11.35Zm-11.83,9c1-6.2,11.22-6.05,12.36-.24C298.7,261.94,284.13,261.68,285.09,255.5Z"/><path class="cls-1" d="M341.35,244.54h-1c-2.45,8.6-7.25,12.69-13.37,12.69-7.16,0-11.09-5.25-11.09-14.33V214.08h14.86v24.42c0,3.32,1.66,5.34,4.54,5.34,3.58,0,5.59-2.87,5.59-6.91V214.08h14.86v41.84H341.35Z"/><path class="cls-1" d="M478.77,244.5h-1.36c-2.09,6.45-6.18,10.85-13.37,10.85-6.64,0-12.28-3.67-12.28-12.08,0-7.44,4.55-12.43,16.55-12.43H478V228c0-3.07-1.55-4.9-4.82-4.9-2.91,0-4.64,1.43-5.19,4.46l-14.46-3.07c1.27-7.26,7.16-13,20.28-13,14,0,19.55,6,19.55,16.63V254.5H478.77Zm-.82-6.45v-1.58h-6.37c-3,0-5.27,1.58-5.27,3.94s1.27,3.85,5,3.85c4.08,0,6.63-2.66,6.63-6.25Z"/><path class="cls-1" d="M360.07,236.22c0-14.79,7.94-23.46,22.55-23.46,13.61,0,19.76,7.61,19.76,19.08a42.54,42.54,0,0,1-.27,5.77h-27c.54,5.77,2.8,7.79,7.31,7.79s5.77-2,6.59-4.3l12.81,3.32c-1.9,6.83-6.59,12.78-19.49,12.78S360.07,250.58,360.07,236.22Zm15-4.3h13.26c.18-5.69-2-8.23-6.22-8.23-4.4,0-6.59,2.11-7,8.24Z"/><path class="cls-1" d="M422.61,281.4H407.26V183.64h15.34Z"/><path class="cls-1" d="M445,281.4H429.65V183.64H445Z"/><path class="cls-1" d="M217.35,255.91V214.08h14v14.7h1.22c3.06-13.48,6.55-15.14,11.36-15.14h1v17.15h-3.34c-8,0-9.43,1.66-9.43,7.79v17.33Z"/><rect class="cls-1" x="317.08" y="199.15" width="11.46" height="11.46"/><rect class="cls-1" x="342.51" y="199.15" width="11.46" height="11.46"/></g></svg>