<svg id="Camada_1" data-name="Camada 1" xmlns="http://www.w3.org/2000/svg" viewBox="0 0 599.74 450.24"><defs><style>.cls-1{fill:#fff;}</style></defs><title>8-IMUNELAB</title><rect width="599.74" height="450.24"/><path class="cls-1" d="M492.39,276.06V276a.17.17,0,0,0,0-.07,1.44,1.44,0,0,0-.06-.6h0a26.47,26.47,0,0,0-1.74-6.54,24.35,24.35,0,0,0-23.09-15.58c-1.56,0-3.11.05-4.66.22a17.41,17.41,0,0,0-5.67,1.35.27.27,0,0,1-.35-.05V240.56c0-.83,0-.84-.83-.84h-7.63c-1.06,0-1-.15-1,1.06V272.6c0,.23,0,.45,0,.68a.49.49,0,0,1-.44.59c-1.59.37-3.21.64-4.82.92-.24,0-.38,0-.39-.3v-.43a26.2,26.2,0,0,0-1.05-7.35c-1.82-5.92-5.48-10.19-11.34-12.4a25.93,25.93,0,0,0-8.78-1.58,24.67,24.67,0,0,0-9.71,1.61c-7,2.78-11.05,7.8-11.91,15.32-.09.76-.09.77.68.77h8c.67,0,.69,0,.77-.67a7.68,7.68,0,0,1,2.17-4.59,9.53,9.53,0,0,1,2.88-2.08,16,16,0,0,1,11.89-.7,10.07,10.07,0,0,1,6.47,5.7,12.36,12.36,0,0,1,.68,6.16,2,2,0,0,1-.19.91l-1-.28a57.05,57.05,0,0,0-8.36-1.75,50.75,50.75,0,0,0-8.12-.36,24.89,24.89,0,0,0-7.64,1.35,14.23,14.23,0,0,0-9.86,14q0,1,0,2.07a13.23,13.23,0,0,0,1.87,6.83,17,17,0,0,0,8.47,7.26,22.78,22.78,0,0,0,9.25,1.8,25.72,25.72,0,0,0,6.7-.85,16.23,16.23,0,0,0,7.87-4.6l.69-.74a.92.92,0,0,1,.14.72c0,1.16,0,2.32,0,3.48,0,.76,0,.79.74.8H441c.66,0,.68,0,.68-.67,0-2.91.06-5.82.14-8.73s0-5.77,0-8.65c0-.65,0-1.3,0-1.95,0-.48.14-.62.6-.69,1.61-.23,3.22-.51,4.84-.77a2.75,2.75,0,0,1,.08,1c0,5.66,0,11.31,0,17a1,1,0,0,0,.68,1.09,41.42,41.42,0,0,0,13.82,3.45,33.92,33.92,0,0,0,8.94-.48A28.37,28.37,0,0,0,483,300a24.08,24.08,0,0,0,9.27-16.38,2.42,2.42,0,0,0,.06-.78.11.11,0,0,1,0-.05v-.07a1,1,0,0,1,.07-.6v0l.09,0v-5.65A.58.58,0,0,1,492.39,276.06Zm-62,15.59a15.68,15.68,0,0,1-4,3.2,17,17,0,0,1-6.63,2.22,16.21,16.21,0,0,1-1.7,0,14.53,14.53,0,0,1-7.34-1.74,9.74,9.74,0,0,1-3-2.46,5.75,5.75,0,0,1,.27-7.55,10.55,10.55,0,0,1,5.95-3,26.42,26.42,0,0,1,10.11.38c2.61.5,5.19,1.17,7.78,1.74.45.1.6.29.57.73a10.23,10.23,0,0,0,0,1.53A6.45,6.45,0,0,1,430.34,291.64Zm53.3-10a15.28,15.28,0,0,1-11,13.6,22,22,0,0,1-7.27,1,25.79,25.79,0,0,1-7.9-1.45c-.67-.24-.68-.24-.68-1V265.58c0-1,0-1,1-1.4a19.47,19.47,0,0,1,4.71-1,28.41,28.41,0,0,1,7.78.22,16.45,16.45,0,0,1,8.2,3.41,14.35,14.35,0,0,1,4.61,7.76A20.55,20.55,0,0,1,483.64,281.6Z"/><path class="cls-1" d="M286.07,202.06a2.34,2.34,0,0,1,.71,1.61,3,3,0,0,1-1.71,3,2.7,2.7,0,0,1-3.14-.48,17.69,17.69,0,0,1-1.4-1.47l-3.11-3.37a6.12,6.12,0,0,1-.44-.51,2.86,2.86,0,0,1,.41-4,2.78,2.78,0,0,1,4,.14C283,198.63,284.51,200.35,286.07,202.06Z"/><path class="cls-1" d="M297.3,201.17c0,3.37,0,6.75,0,10.12v10.2a3,3,0,0,1-5.77,1.17,5.62,5.62,0,0,1-.19-1.51c0-6.18,0-12.35,0-18.53a2,2,0,0,0-.56-1.43c-2.14-2.31-4.25-4.64-6.37-7-.17-.19-.34-.38-.49-.58a2.88,2.88,0,0,1,.37-4,2.8,2.8,0,0,1,4,.18c1.41,1.47,2.77,3,4.14,4.51s2.59,2.86,3.9,4.27A3.62,3.62,0,0,1,297.3,201.17Z"/><path class="cls-1" d="M299.76,189a3.88,3.88,0,0,1-3.8-4,3.93,3.93,0,0,1,3.93-3.84,4,4,0,0,1,3.85,3.92A3.9,3.9,0,0,1,299.76,189Z"/><path class="cls-1" d="M315.79,193.81q-3.31,3.7-6.7,7.35a2.11,2.11,0,0,0-.61,1.58c0,6,0,12.07,0,18.11a9.1,9.1,0,0,1-.1,1.52,2.93,2.93,0,0,1-5.81-.7c-.05-2,0-4,0-5.95v-4.51c0-3.37,0-6.75,0-10.12a3.55,3.55,0,0,1,1-2.54c2.64-2.88,5.26-5.79,7.9-8.67a2.93,2.93,0,1,1,4.35,3.91Z"/><path class="cls-1" d="M323.19,198.31a2.65,2.65,0,0,1-.6,2.59c-1.54,1.74-3.11,3.45-4.72,5.11a2.71,2.71,0,0,1-3.19.66,2.9,2.9,0,0,1-1.79-2.74,2.5,2.5,0,0,1,.7-1.85c1.54-1.69,3.08-3.39,4.65-5.06a2.72,2.72,0,0,1,2.94-.81A2.87,2.87,0,0,1,323.19,198.31Z"/><path class="cls-1" d="M335.95,200a2.16,2.16,0,0,0-.06-.84,9.06,9.06,0,0,1-.41-1.88,36,36,0,0,0-1.45-5.44,56.42,56.42,0,0,0-4.08-8.72,100.11,100.11,0,0,0-6-9.14c-1.58-2.2-3.25-4.35-4.93-6.48-2.51-3.17-5-6.39-7.41-9.61-2.59-3.39-5.09-6.86-7.34-10.49a13.35,13.35,0,0,0-3.05-4h-2.55a7.67,7.67,0,0,0-2.2,2.53c-.67,1.11-1.35,2.22-2.07,3.3-2.67,4-5.56,7.91-8.53,11.72-1.85,2.37-3.72,4.7-5.54,7.09-2,2.65-4,5.3-6,8A79.69,79.69,0,0,0,267.8,187a52.3,52.3,0,0,0-2.88,7.47,33.23,33.23,0,0,0-.77,3.61,7,7,0,0,0-.34,1.73c.15,3-.31,6.1.29,9.13.14.66.21,1.34.35,2,.22,1.07.51,2.13.83,3.17a35.36,35.36,0,0,0,2.83,6.76,36.28,36.28,0,0,0,5.29,7.34,33.09,33.09,0,0,0,3.92,3.64,37.39,37.39,0,0,0,7.1,4.44,30.19,30.19,0,0,0,4.88,1.91,33.27,33.27,0,0,0,4.59,1.08,25.45,25.45,0,0,0,3.77.35c1.59,0,3.17,0,4.76,0a13.11,13.11,0,0,0,2.43-.17c1.16-.23,2.32-.4,3.47-.66a34.18,34.18,0,0,0,8.58-3.26,36.82,36.82,0,0,0,13.22-12.06,34.61,34.61,0,0,0,3.44-6.59,31.21,31.21,0,0,0,1.33-4c.26-1,.49-2.07.66-3.13a18.88,18.88,0,0,0,.43-3.25C335.92,204.35,335.95,202.19,335.95,200Zm-6.59,8.54A29.57,29.57,0,0,1,326.6,217a30,30,0,0,1-14.53,13.87,28.93,28.93,0,0,1-8.13,2.31,31.3,31.3,0,0,1-4,.28,28.36,28.36,0,0,1-6-.57,31.82,31.82,0,0,1-4.79-1.41A29.85,29.85,0,0,1,272,214.34a29,29,0,0,1-1.85-7.64,30.36,30.36,0,0,1-.11-4.41,31.26,31.26,0,0,1,2.37-10.11,53,53,0,0,1,4.57-8.63c2.88-4.57,6.16-8.83,9.46-13.09,3.42-4.42,6.92-8.77,10.16-13.32.94-1.32,1.84-2.65,2.76-4a2.1,2.1,0,0,1,.61-.71l1.41,2.07c3.12,4.64,6.61,9,10,13.42s6.8,8.64,9.87,13.21A56.62,56.62,0,0,1,328.1,194a29.27,29.27,0,0,1,1.71,9.38A32.79,32.79,0,0,1,329.35,208.58Z"/><path class="cls-1" d="M220.37,306.64c-1.25-.23-2.52-.38-3.75-.69a17.83,17.83,0,0,1-6.88-3.19,16.16,16.16,0,0,1-5-6.87,29.39,29.39,0,0,1-1.76-6.8,52,52,0,0,1-.51-7.27q0-13.22,0-26.45v-.51c0-.74,0-.75.76-.75h7.49c.94,0,.94,0,.94.93v23c0,2.32,0,4.65.21,7a17,17,0,0,0,1.68,6.36,10.57,10.57,0,0,0,6.9,5.5c6,1.59,11.09,0,15.23-4.56a14,14,0,0,0,3.59-8.28c.09-1,.12-2.09.12-3.14V255.18c0-1.07-.12-1.06,1.06-1.06h7.23c1,0,1-.08,1,1v48.82c0,1.17.11,1.06-1,1.06h-7.49c-.75,0-.76,0-.76-.74,0-1.59,0-3.17,0-4.76,0-.15,0-.31,0-.5-.09.07-.16.09-.18.12-1.26,3-3.74,4.77-6.59,6.06a17.38,17.38,0,0,1-5,1.4,3.21,3.21,0,0,0-.49.12c-.21.14-.49,0-.69.14h-5.1C221.09,306.59,220.7,306.82,220.37,306.64Z"/><path class="cls-1" d="M107.05,241.29h8.33c.68,0,.68,0,.69.72v61.8c0,1.28.16,1.14-1.11,1.14l-7.9,0Z"/><path class="cls-1" d="M220.37,306.64c.35,0,.72-.12,1,.15h-1A.93.93,0,0,0,220.37,306.64Z"/><path class="cls-1" d="M492.33,283.66c0-.28,0-.56,0-.83s.2,0,.37.43l-.26.41h-.09Z"/><path class="cls-1" d="M492.32,276c0-.22,0-.45,0-.67h.14V276C492.41,276.08,492.36,276.08,492.32,276Z"/><path class="cls-1" d="M492.47,282.8l-.15,0c0-.25-.09-.51.15-.7Z"/><path class="cls-1" d="M226.51,306.8c.19-.26.45-.15.69-.14,0,.05,0,.1,0,.14Z"/><path class="cls-1" d="M492.32,276l.15,0v.51C492.28,276.37,492.29,276.18,492.32,276Z"/><path class="cls-1" d="M349.62,290c-.3,0-.49.23-.72.37a57.47,57.47,0,0,1-5.74,3.32,27.92,27.92,0,0,1-12.38,2.88,23.92,23.92,0,0,1-2.46-.13,14.94,14.94,0,0,1-7.42-2.7c-3.17-2.27-4.29-5.5-4.31-9.25a.51.51,0,0,1,.49-.52c.62,0,1.24-.14,1.86-.12,1.9,0,3.79.13,5.69.25s4.08.11,6.13.12a33.88,33.88,0,0,0,7.41-.83,15.69,15.69,0,0,0,4.92-1.84,17,17,0,0,0,5.46-5.52,13.75,13.75,0,0,0,1.82-10.61,15.4,15.4,0,0,0-5.74-8.9,19,19,0,0,0-10.85-4A27.87,27.87,0,0,0,322.65,254a22.57,22.57,0,0,0-9.86,6.42,22.94,22.94,0,0,0-5.7,13.56c0,.51-.08.65-.69.69-1.33.09-2.65.26-4,.39-.39,0-.85.27-1.15.13s-.09-.73-.2-1.11a2.43,2.43,0,0,1-.09-.55,32.73,32.73,0,0,0-.76-5.83,22.59,22.59,0,0,0-3.05-7.79,15.65,15.65,0,0,0-8.65-6.39,30.63,30.63,0,0,0-6.24-1.17,22.94,22.94,0,0,0-11.39,1.59c-2.88,1.33-5.35,3.1-6.6,6.18,0,0-.05,0-.09,0s-.06-.26-.06-.38c0-1.64,0-3.29,0-4.93,0-.75,0-.76-.74-.76h-7.57c-1,0-1-.09-1,1v49c0,.76,0,.81.67.81h8c.6,0,.6,0,.61-.63,0-.2,0-.4,0-.6v-26c0-.9.05-1.81.13-2.71a14.08,14.08,0,0,1,3.85-8.61,14.33,14.33,0,0,1,13-4.7,12,12,0,0,1,5.92,2.4,11.81,11.81,0,0,1,4.13,6.94,34.07,34.07,0,0,1,.68,7.61q0,12.69,0,25.37c0,.88,0,.89.87.89h7.57c.74,0,.74,0,.75-.75V285.62c0-1,0-1,1-1.24l.26,0c1.37-.26,2.77-.06,4.14-.34.26-.05.37.1.35.34a9.14,9.14,0,0,0,.14,1.52,21.68,21.68,0,0,0,3.78,11,21,21,0,0,0,12.47,8.43,32.93,32.93,0,0,0,13.58.24A36.47,36.47,0,0,0,349.24,300a1.11,1.11,0,0,0,.53-1.06c0-2.78,0-5.56,0-8.35C349.74,290.39,349.81,290.18,349.62,290ZM322,264.76a17.7,17.7,0,0,1,8.53-3.09,15.91,15.91,0,0,1,6.4.37,12.63,12.63,0,0,1,2.27.94,5,5,0,0,1,2.73,4.31c0,.26,0,.51,0,.77a5.42,5.42,0,0,1-3.48,5.42,14.05,14.05,0,0,1-5.95,1.18c-2.94,0-5.9.1-8.84-.08-1.33-.09-2.65-.14-4-.1-.82,0-1.63.17-2.45.14a1.13,1.13,0,0,1-.69-.12A12.91,12.91,0,0,1,322,264.76Z"/><path class="cls-1" d="M162.68,258.67a13.59,13.59,0,0,1,2.66-2.62,20.77,20.77,0,0,1,9.31-3.67,18.69,18.69,0,0,1,4.82,0,26.56,26.56,0,0,1,5.64,1.15,14,14,0,0,1,7.93,6.69,27,27,0,0,1,2.88,9.45,57.56,57.56,0,0,1,.49,8.38q0,12.76,0,25.52c0,.2,0,.4,0,.6.05.46-.18.57-.6.57h-8c-.59,0-.59,0-.6-.64,0-.2,0-.4,0-.6q0-11.27,0-22.55c0-2.64,0-5.28-.21-7.9a18.66,18.66,0,0,0-1-5.4,8.76,8.76,0,0,0-7.16-5.91,13.27,13.27,0,0,0-6.93.62c-3.9,1.42-6,4.35-6.93,8.29a20,20,0,0,0-.36,4.56v28.42c0,1.26.1,1.11-1.16,1.12h-7.15c-.93,0-.94,0-.94-.92V278c0-1.93,0-3.85-.12-5.78a16.29,16.29,0,0,0-.74-4.08,9.26,9.26,0,0,0-7.56-6.44,15.07,15.07,0,0,0-7.69.7,10.5,10.5,0,0,0-6.48,6.43,19.4,19.4,0,0,0-1.23,7c-.1,9.27,0,18.55-.05,27.82,0,1.43.14,1.23-1.21,1.23H123c-.83,0-.83,0-.83-.83V255.42c0-.23,0-.45,0-.68,0-.63,0-.65.68-.65h7.91c.66,0,.67,0,.67.66,0,1,0,2,0,3,0,.21-.09.45.08.63.16,0,.2-.09.26-.19a12.39,12.39,0,0,1,6.9-5,21.17,21.17,0,0,1,9-.87,42.94,42.94,0,0,1,5.79.86,19,19,0,0,1,7.24,3.45A13.62,13.62,0,0,1,162.68,258.67Z"/><path class="cls-1" d="M397.21,304.93H357.74c-1.17,0-1,.11-1-1.06V242.28c0-1.15-.14-1,1-1h7c.88,0,.84,0,.84.83v53c0,1.1-.18,1,1,1h24.92a.41.41,0,0,1,.43.33,20.87,20.87,0,0,0,5.17,8.18A2,2,0,0,1,397.21,304.93Z"/><path class="cls-1" d="M286.07,202.06a2.34,2.34,0,0,1,.71,1.61,3,3,0,0,1-1.71,3,2.7,2.7,0,0,1-3.14-.48,17.69,17.69,0,0,1-1.4-1.47l-3.11-3.37a6.12,6.12,0,0,1-.44-.51,2.86,2.86,0,0,1,.41-4,2.78,2.78,0,0,1,4,.14C283,198.63,284.51,200.35,286.07,202.06Z"/><path class="cls-1" d="M297.3,201.17c0,3.37,0,6.75,0,10.12v10.2a3,3,0,0,1-5.77,1.17,5.62,5.62,0,0,1-.19-1.51c0-6.18,0-12.35,0-18.53a2,2,0,0,0-.56-1.43c-2.14-2.31-4.25-4.64-6.37-7-.17-.19-.34-.38-.49-.58a2.88,2.88,0,0,1,.37-4,2.8,2.8,0,0,1,4,.18c1.41,1.47,2.77,3,4.14,4.51s2.59,2.86,3.9,4.27A3.62,3.62,0,0,1,297.3,201.17Z"/><path class="cls-1" d="M299.76,189a3.88,3.88,0,0,1-3.8-4,3.93,3.93,0,0,1,3.93-3.84,4,4,0,0,1,3.85,3.92A3.9,3.9,0,0,1,299.76,189Z"/><path class="cls-1" d="M309.11,201.16a2.11,2.11,0,0,0-.61,1.58c0,6,0,12.07,0,18.11a9.1,9.1,0,0,1-.1,1.52,2.93,2.93,0,0,1-5.81-.7c-.05-2,0-4,0-5.95v-4.51c0-3.37,0-6.75,0-10.12a3.55,3.55,0,0,1,1-2.54c2.64-2.88,5.26-5.79,7.9-8.67a2.93,2.93,0,1,1,4.36,3.91Q312.47,197.52,309.11,201.16Z"/><path class="cls-1" d="M322.6,200.91c-1.54,1.74-3.11,3.45-4.72,5.11a2.71,2.71,0,0,1-3.19.66,2.9,2.9,0,0,1-1.79-2.74,2.5,2.5,0,0,1,.7-1.85c1.54-1.69,3.08-3.39,4.65-5.06a2.72,2.72,0,0,1,2.94-.81,2.9,2.9,0,0,1,2,2.1A2.67,2.67,0,0,1,322.6,200.91Z"/><path class="cls-1" d="M297.29,211.29v10.2a3,3,0,0,1-5.77,1.17,5.62,5.62,0,0,1-.19-1.51c0-6.18,0-12.35,0-18.53a2,2,0,0,0-.56-1.43c-2.14-2.31-4.25-4.64-6.37-7-.17-.19-.34-.38-.49-.58a2.88,2.88,0,0,1,.37-4,2.8,2.8,0,0,1,4,.18c1.41,1.47,2.77,3,4.14,4.51s2.59,2.86,3.9,4.27a3.61,3.61,0,0,1,1,2.61C297.27,204.54,297.29,207.92,297.29,211.29Z"/><path class="cls-1" d="M315.79,193.81q-3.31,3.7-6.7,7.35a2.11,2.11,0,0,0-.61,1.58c0,6,0,12.07,0,18.11a9.1,9.1,0,0,1-.1,1.52,2.93,2.93,0,0,1-5.81-.7c-.05-2,0-4,0-5.95v-4.51c0-3.37,0-6.75,0-10.12a3.55,3.55,0,0,1,1-2.54c2.64-2.88,5.26-5.79,7.9-8.67a2.93,2.93,0,1,1,4.35,3.91Z"/><path class="cls-1" d="M286.79,203.66a3,3,0,0,1-1.71,3,2.7,2.7,0,0,1-3.14-.48,17.69,17.69,0,0,1-1.4-1.47l-3.11-3.37a6.12,6.12,0,0,1-.44-.51,2.86,2.86,0,0,1,.41-4,2.78,2.78,0,0,1,4,.14c1.61,1.67,3.17,3.39,4.73,5.1A2.46,2.46,0,0,1,286.79,203.66Z"/><path class="cls-1" d="M322.6,200.91c-1.54,1.74-3.11,3.45-4.72,5.11a2.71,2.71,0,0,1-3.19.66,2.9,2.9,0,0,1-1.79-2.74,2.5,2.5,0,0,1,.7-1.85c1.54-1.69,3.08-3.39,4.65-5.06a2.72,2.72,0,0,1,2.94-.81,2.9,2.9,0,0,1,2,2.1A2.67,2.67,0,0,1,322.6,200.91Z"/><path class="cls-1" d="M303.75,185.14a3.89,3.89,0,1,1-3.85-3.92A4,4,0,0,1,303.75,185.14Z"/></svg>