<svg id="Camada_1" data-name="Camada 1" xmlns="http://www.w3.org/2000/svg" viewBox="0 0 599.74 450.24"><defs><style>.cls-1{fill:#0029bf;}.cls-2{fill:#afafaf;}</style></defs><title>MODALIMAGEM</title><rect class="cls-1" width="599.74" height="450.24"/><path class="cls-2" d="M171.62,224.23c5.39-3.17,8.18-8.08,8.18-14.72,0-11.16-8.75-18.46-22.22-18.46H109.46a2.17,2.17,0,0,0-2.17,2.17v63.94a2.17,2.17,0,0,0,2.17,2.17h49.47c6.64,0,12.12-1.83,16.35-5.58a18.15,18.15,0,0,0,6.35-14.23c0-7.21-3.46-12.5-10-15.29m-48.18-20.1h31.83c5,0,8.18,2.6,8.18,6.73s-3.37,7.21-8,7.21h-32Zm33.47,42.13H123.44v-15.2h33.37c5.1,0,8.46,3,8.46,7.5s-3.37,7.69-8.37,7.69M258,191.05H194.76a2.17,2.17,0,0,0-2.17,2.17v63.94a2.17,2.17,0,0,0,2.17,2.17H258a2.17,2.17,0,0,0,2.17-2.17v-8.93a2.17,2.17,0,0,0-2.17-2.17H208.75V231.16H248.6a2.17,2.17,0,0,0,2.17-2.17v-8.93a2.17,2.17,0,0,0-2.17-2.17H208.75V204.32H258a2.17,2.17,0,0,0,2.17-2.17v-8.93a2.17,2.17,0,0,0-2.17-2.17m200.91,26.37c-13.21-1-20.62-1.62-20.62-7.32,0-6.08,8.92-7.7,18-7.61,10.27.09,17.57,1.45,24.53,6.36a1.52,1.52,0,0,0,2.07-.29l5.87-7.41a1.53,1.53,0,0,0-.31-2.19c-8.23-5.95-18.35-9.21-32.17-9.21-20.53,0-33.26,7.6-33.26,21.48,0,14.26,15.58,18.44,34.59,20.06,15.3,1.33,20,2.85,20,8.37s-4.74,8.08-18.24,8.08c-12.92,0-22-2.41-29.46-9.43a1.52,1.52,0,0,0-2.21.12l-6.3,7.47a1.53,1.53,0,0,0,.21,2.18c9.89,8,21.21,12.4,37.38,12.4,23.58,0,33.93-9.13,33.93-22.24,0-14.64-12.82-19.11-34-20.82m-46.52-26.37H346.23a2.17,2.17,0,0,0-2.17,2.17v9.5a2.17,2.17,0,0,0,2.17,2.17h25v52.26a2.17,2.17,0,0,0,2.17,2.17h11.81a2.17,2.17,0,0,0,2.17-2.17V204.9h25a2.17,2.17,0,0,0,2.17-2.17v-9.5a2.17,2.17,0,0,0-2.17-2.17m-98,1a4.51,4.51,0,0,0-7.8,0l-35.47,61.23a4.07,4.07,0,0,0,3.52,6.11h71.7a4.07,4.07,0,0,0,3.53-6.1Zm15.81,60.68-44.64-9.79a1.55,1.55,0,0,1-.81-2.55l30.8-33.77a1.55,1.55,0,0,1,2.62.57L332,250.7a1.55,1.55,0,0,1-1.81,2" transform="translate(-0.5)"/></svg>