<svg id="Camada_1" data-name="Camada 1" xmlns="http://www.w3.org/2000/svg" viewBox="0 0 599.7 450.2"><defs><style>.cls-1{fill:#fff;}</style></defs><title>MODALIMAGEM-saven waves</title><rect width="599.7" height="450.2"/><path id="SEVEN" class="cls-1" d="M147.35,154.24l-1.53,4.34c13.18,5.44,19,13.69,19,26.11,0,14.73-12.52,19.68-25.36,19.68a50.74,50.74,0,0,1-22.89-5.28l2.36-6.27c7.52,3.52,14.44,5.28,20.53,5.28,16.09,0,18.45-8.41,18.45-13.41,0-13.08-8.73-17.15-16.36-21.27-6-3.24-11.31-6-11.31-14.46,0-5.83,4.23-9.18,12.41-9.18,6.42,0,12.36,1.87,19,5.33l5.49-15c-6.92-3.52-11.8-5.88-24.59-5.88-15.21,0-28.49,8.35-28.49,24.74,0,12.75,6.48,21.82,18.17,27.1l1.59-4.34c-8.51-3.9-15.15-10.77-15.15-22.76,0-13.36,10.76-20.12,23.88-20.12,10.1,0,13.94,1.37,18.83,3.57l-2.3,6.32a41.4,41.4,0,0,0-16.47-3.63c-12.19,0-17,6.71-17,13.8,0,10.77,6.75,14.79,13.61,18.47s14.05,6.65,14.05,17.26c0,6.16-4.94,8.8-13.83,8.8-7.47,0-15.54-3.08-23.06-7l-5.6,14.9c8.23,4.45,17.07,7.64,28.66,7.64,17.4,0,30-8.25,30-24.3C169.47,169.52,161.67,160.07,147.35,154.24Zm58.29,38v-30.7H234v6.14H212.54v4.6h26.09V157H201v39.91h34.53V203H194.12V130.1H234.8v6.14H201v14.58h4.6v-10H239.4V125.49H189.52v82.12h50.65V192.26Zm104.59-66.77-16.31,46,2.41,7,17.13-48.4h7.22l-24.36,68L270.6,125.49H253.55L283,207.61h4.9L260.09,130.1h7.23l27.42,77.51h3.11l29.4-82.12Zm48.89,66.77v-30.7h28.4v6.14H366v4.6h26.09V157h-37.6v39.91h34.53V203H347.61V130.1h40.67v6.14H354.52v14.58h4.6v-10h33.77V125.49H343v82.12h50.65V192.26Zm105.91-13L433.4,125.49H428l41.6,70.65v-66h6.91V203H466l-45.65-77.51h-5.18v82.12h16.12V167.37l-4.6-7.86V203h-6.91V134.66l43,73h18.36V125.49H465v53.72Z"/><path id="WAVES" class="cls-1" d="M221.55,218.69a2.22,2.22,0,0,0-2.53-1.1h-1.11a2.23,2.23,0,0,0-1-.09,3.68,3.68,0,0,1-1,.21,13,13,0,0,0-1.87.65h.16a10,10,0,0,0-3.55-.65q-2.37,0-12.91,1-6.89.65-8.93,2.92Q178,236.08,178.71,249.48a43.46,43.46,0,0,1-.43-6.16q0-14.16,6.26-22.7-.22.11-1-.65a7.05,7.05,0,0,0-4.43-1.19,77.88,77.88,0,0,1-8.85.65q-6.69.32-8.64,1.19a1,1,0,0,0-1.08-.54,9.74,9.74,0,0,1-1.73-.29,4.59,4.59,0,0,0-2.37-.58q-5.07,0-7.45,2.7-3.46,3.89-6.15,11.78h-1q-1.6,7.39-2.57,11a13.94,13.94,0,0,0,.11,3.86,9.28,9.28,0,0,1-1.18-2.78l-.11-1a13.19,13.19,0,0,1-.53-3.75,20.37,20.37,0,0,1,2.24-8.67,32.16,32.16,0,0,1,3.1-12.21q-.86-.21-1.6-.32a6.12,6.12,0,0,0-1.6,0h-5.62a7.9,7.9,0,0,0-2.09-.77h-2c-.51,0-1,.09-1.53.16a6.16,6.16,0,0,1-1.65,0,67.55,67.55,0,0,0-8.23.77c.22,0-.18-.07-1.21-.22a7.44,7.44,0,0,0-6.37,3.63,29.59,29.59,0,0,1-1.65,4.07,28.9,28.9,0,0,0-1.1,3.3,21.65,21.65,0,0,0-1.21,5.28,48.61,48.61,0,0,0,.11,5.5q.77,3.63,1.1,5.39a24.25,24.25,0,0,0,1.32,5.83l2,5.72q6.4,9.46,9.93,14a46.41,46.41,0,0,1,9.27,11.21.1.1,0,0,1,.11.11,57.53,57.53,0,0,1,4.5,15.28,20.86,20.86,0,0,1,.88,5.94,43.24,43.24,0,0,1-2,11.33,3.59,3.59,0,0,0-1.1,1.43q0-.66-1.1,2.64l-.55,1.21a3.71,3.71,0,0,0-.55,1.32,2.42,2.42,0,0,0,.11.77,3.63,3.63,0,0,0,2.3,1.76,75.62,75.62,0,0,1,7.79.33,19.5,19.5,0,0,0,4.17,0q3.18-.33,4.17-.33a.1.1,0,0,1,.08-.11h-.09v-.22s6.59-.4,7.25-.89h1.53l.22.59a2.26,2.26,0,0,0,1.43.74,2.81,2.81,0,0,0,1.1,0q1.53-.34,2.3-.45,2.85,0,7.58-4.79.88-1.45,1-1.61l1.1-1.73-.11.11a28,28,0,0,0,7-15.5,4.37,4.37,0,0,0,1-1.32,6,6,0,0,1,.11,2l-.22,2a39.16,39.16,0,0,1-.44,6.65q-.77,5.34-.88,6.75a15,15,0,0,0,.22,4.36,14.57,14.57,0,0,0-2.42,3.05,1.83,1.83,0,0,1,.55.11l6.7-.66c.12,0,.33.54.33.54h.3a13.17,13.17,0,0,1,3-.11l2.86.22q3.85.33,5.94.44a39.15,39.15,0,0,0,7.37-.88q3.85-.77,7.81-1.43a.38.38,0,0,0,.33.33l1.32-.66q5.94-4.62,8-9.8a15.13,15.13,0,0,0,3.74-7.6,43.84,43.84,0,0,0,2-8.91q.22-1.65.55-9.14a50.94,50.94,0,0,0-4.4-9l-5.17-8.7q-6.27-10.57-5.94-18.83a9.6,9.6,0,0,1-.77-.66q-.11-1.65-.11-3.3,0-15.08,8.46-21.91l-.33-1.65h0a11.4,11.4,0,0,0,1.65-4.73h0Zm-17.29,27.8a21.56,21.56,0,0,0,1.34,8.17,30.69,30.69,0,0,0,3.35,9.59q1,2,5.36,8.6,7.15,11.13,7.48,18.54a3.16,3.16,0,0,0-.27.33,3.2,3.2,0,0,1-.27.33q.43,15.6-10.34,26.18a3.82,3.82,0,0,0-3-.87h-3.34a23.91,23.91,0,0,1-5.49.54q-3.62-.22-5.49-.22a2.45,2.45,0,0,1-2.74-.32h-3.4c-.18.69-.36.65-.55.65,1.17-3.93,1.65-9.8,1.14-17.59v1.65a33.39,33.39,0,0,0-4.21-16.16,36.59,36.59,0,0,0-5.38-8.41,84.6,84.6,0,0,1-5.6-7.64,32.8,32.8,0,0,1-3.07-1.32,11.31,11.31,0,0,0-2.63-1,2.78,2.78,0,0,0-1.87,1L165,269l-.55.66q3.84,6,4.17,6.52a15.11,15.11,0,0,1,2.3,7.18q2.75,11.7,2.64,16.89-.88,7.07-7.25,16.56l-2,1c-.83.17-2.52.34-2.52.34h-.34l-2.53.66q-4.07.11-9.56,0-7.25-.22-9.56-.11a12.14,12.14,0,0,0,2.31-8.06,28.41,28.41,0,0,0,1.43-11.15q-1.42-15.79-15.94-28.71l.11.11a74.39,74.39,0,0,1-12.64-25.56,14.85,14.85,0,0,0-.44-3.86,5.28,5.28,0,0,1-.33-1.54v.22q1.65-10.35,3.3-13.88l-.33-.33q3.74-.66,4.95-1a3.78,3.78,0,0,1,1.15.33,3.06,3.06,0,0,0,1.59.22,7.13,7.13,0,0,1,1.76,0,22.86,22.86,0,0,0,3.63.37,4.31,4.31,0,0,0,1.87.18,9.76,9.76,0,0,0,1.76-.55,36.47,36.47,0,0,0-2.86,14.43q0,14.76,12.31,29.41l5.28,6.28a59.2,59.2,0,0,1,4.84,6.61q1.87,2.21,3.3,2.2a6.54,6.54,0,0,0,2.09.33q1.87-.22,2.42-2.53-9.13-15.42-9.23-15.64-6.6-13-6.6-20.93,0-10.25,6.6-20.49a19.25,19.25,0,0,0,5.72.88h5.39q.88,0,2.75-.17t2.75-.17l6.49-.66q-3.08,8.81-2.64,13a23.14,23.14,0,0,0-.66,5.4,47.66,47.66,0,0,0,1.74,10.8,66.61,66.61,0,0,0,10,13.77l-.22-.11-1.32-.88a191.9,191.9,0,0,1,13.19,16.75,4.35,4.35,0,0,0,3.3,1.76,2.42,2.42,0,0,0,.77.11,2.18,2.18,0,0,0,2.41-1.92v-.07a1.94,1.94,0,0,0-.44-1.43,105.56,105.56,0,0,0-8-14.43q-5.83-9.25-7.8-14.65.55-19.83,11.54-29.74a1.38,1.38,0,0,0,.11.38v.73h4.25a4.68,4.68,0,0,1,1.92.06,12.83,12.83,0,0,1,1.92.71h2.22a7.4,7.4,0,0,0,1.79,0,5.59,5.59,0,0,1,1.79-.11,97.57,97.57,0,0,0-5.88,13.15h.26a79.34,79.34,0,0,0-1.2,8.18h0Zm10.58-29v.11h-.22a.32.32,0,0,0,.22-.11Zm80.62,101.41.23-1.06a5.53,5.53,0,0,1,.34-1.06l.92-4.26V311a35.3,35.3,0,0,0,1.2-9q0-11.36-7.74-25l-5.89-10.37q-7.63-13.43-9.37-21.51h.44a56.12,56.12,0,0,1-.44-7q0-1.31.22-3.49.22-2.62.22-3.49.22-5.35.33-8a15.65,15.65,0,0,1,0-2.62,1.81,1.81,0,0,0-1.31-2q-19.73.33-29.55.33a.74.74,0,0,0-.65-.69,7.55,7.55,0,0,1-1.2-.29,4.35,4.35,0,0,0-2-.44,11.48,11.48,0,0,0-5.23,4.26,35.73,35.73,0,0,0-3.38,6q-1.09,3.28-1.52,5.24-1.31,5-1.31,4.91a74.69,74.69,0,0,0-1.64,12.23,12.65,12.65,0,0,0-.65,4.7q-.11,6,4.36,20.31a41.91,41.91,0,0,1,2.73,9q.54,2.73,1.31,9.39a92.55,92.55,0,0,1-2.8,10.26,21.14,21.14,0,0,1-.56,3.17q-2.13,4.91-3.13,7.42l-.11-.11a34.17,34.17,0,0,1-1.79,3.06l.33-.22q-1.75,2.81-1.74,4.06a4.57,4.57,0,0,0,1.09,2.93,1.74,1.74,0,0,1,.55.11h4.45L236,325h1a19,19,0,0,1,3.62,0c3.64.44,11,.75,11,.75h1.1q2.27,0,5.62-2.51a4.91,4.91,0,0,0,1.51-2.4.55.55,0,0,1,0-.65,4.59,4.59,0,0,1,.43-1.42,10.93,10.93,0,0,0,1.19-2.18,30.68,30.68,0,0,1,1.3-3.81l.43-2q.43-1.53.65-2.07a.83.83,0,0,1,.11-.33v-.33h-.88a17.22,17.22,0,0,1,.11,2,18.78,18.78,0,0,1-.34,3.51l-.11.11a35,35,0,0,1-1.49,6.49,3,3,0,0,0-1,2.24,3.17,3.17,0,0,0,2.87,3.3,4.88,4.88,0,0,0,3-.85.38.38,0,0,0,.23-.09q2.87-.27,8.61-.59t8.61-.59a7.46,7.46,0,0,0,2,.53q2.3.53,3.45.74,4,.21,5.74-3.83V321a.1.1,0,0,0,.11-.08.09.09,0,0,0,0,0h0q.46-1.38.69-2h0Zm-21.22-1.12-1.46.24a8.13,8.13,0,0,1-1.34.11h-.38a64.71,64.71,0,0,0,1.76-9.42q-.12-1.51-.24-3-.48-6.63-4.53-7.21a12.49,12.49,0,0,1-3.34.71v1.51l-1.09.22-1.1.22-.44.11h-.33a4.34,4.34,0,0,0-2.85,1.1,4.15,4.15,0,0,0-1.53,2.65,87.37,87.37,0,0,1-5.25,13.58,20.14,20.14,0,0,0-2.52-.22,20.27,20.27,0,0,1-4.27-.33,21.53,21.53,0,0,0-4.38,0l-5.91-.33q7.28-17.36,6.4-30.4a47.46,47.46,0,0,0-2.21-10.17q-2-6.74-2.76-9.29-3-10.39-2.65-16a42.13,42.13,0,0,1,1.55-10.17q3.32-10.83,4.76-16.36,14.82.62,22.23.77c.07-.07.18-.2.33-.39s.26-.31.33-.39h1.3a6.3,6.3,0,0,1,1.21.11,10.82,10.82,0,0,0,3.52.44,166.48,166.48,0,0,0-1.43,18l2.2,6.59a56.09,56.09,0,0,0,4.29,9.66,57.12,57.12,0,0,0,6.39,11.85q6.38,9.44,7.27,11.42a44.77,44.77,0,0,1,4.29,19.32,39.94,39.94,0,0,1-1.32,10.1q-1.21,2.52-1.75,3.84h1a1.92,1.92,0,0,0-.59-.12,72,72,0,0,0-9,.47l-.12.12a.35.35,0,0,1-.12.24h0a38.83,38.83,0,0,1-5.87.47h0Zm-4.48-35.42q-2-4-2-4.08-4.07-7.16-5.72-9.81a15.24,15.24,0,0,1-2.31-5.62q-.77-2-1.21-2.86-.55-1.65-2-5.18-2.86-6.72-3.63-7.49a4.23,4.23,0,0,0-1.65-.55h-1.43a2.12,2.12,0,0,0-2,1.76,34.56,34.56,0,0,0-.22,3.86,44.72,44.72,0,0,0,3.08,15.32q3.74,9.81,5.62,14.66a30.35,30.35,0,0,0,1.32,4.74Q258,288.41,260,289h3.63l.22.11,1.21.11a15.39,15.39,0,0,1,2.53.22,3.94,3.94,0,0,0,2.42-1.15,3.1,3.1,0,0,0,1.1-2.26,2.73,2.73,0,0,0-.22-1v.11a.1.1,0,0,1,.11.11q-.77-1.87-1.21-2.87h0Zm-10-4-.22-2a29.6,29.6,0,0,1,2,4.07,2.94,2.94,0,0,0-1.1-.22,3.65,3.65,0,0,0-.88.11,9.14,9.14,0,0,0,.22-2h0Zm107.32-59.19h0q.33-1.49-1-1.73-6.93-1.14-9-.92l-2.53.44q-7,.46-9.79.55a14.57,14.57,0,0,1-7-1,19.91,19.91,0,0,1-2.53,1.43l-.66.66q-.44.44-.94.88l-.61.55q-8.36,13.66-8.47,26.89a28.62,28.62,0,0,0,1.32,9.37q-4.73-11-4.73-19.39a2.19,2.19,0,0,1,0-1q.88-4.74,1.21-7.16a24.93,24.93,0,0,1,.44-4.08q.66-3.2.77-4.08a1.26,1.26,0,0,0,.33-1.32q-.22-.88-1.87-.88h-.61a4.31,4.31,0,0,1-.77.15l-1.32.62H309l-10.2.23q-4.06.23-7.68,5.08a2,2,0,0,0-.11,1.13,5.07,5.07,0,0,0,1.1,1.47q.11-.12.44-.55l.44-.55q-3,5.51-3.4,14.09a66.63,66.63,0,0,0,1.32,9.14,2.17,2.17,0,0,1-.55,2.2,8.34,8.34,0,0,1,2.47,3.36q.6,1.71,1.26,3.47,5.37,11.23,9.65,16.29l-.33-.66q9.76,12.55,13.05,32.92c-.59.44-1.1.8-1.53,1.1a36.44,36.44,0,0,1-1.53,6.72,60.55,60.55,0,0,1-1.53,8.26,1.47,1.47,0,0,0,1.21,1.54l-.22.22a3.18,3.18,0,0,0,2.41,1.21h.94q1.43,0,5.28-.36a31.55,31.55,0,0,1,5.17-.24q-1.54-.12,11.22-.61l.33.66q1.1,0,8.58-1,3.3-.44,6.16-4.2,6.6-7.07,8.36-14.13a31.27,31.27,0,0,0,3.52-8.67A20.6,20.6,0,0,0,365,288q0-3.86-2.86-13.69Q360,267.27,360,263.85a21.8,21.8,0,0,1,.22-3.09,44.18,44.18,0,0,1-2.09-11.92,73,73,0,0,1,.55-12Q363.55,225,367,221.34a1.11,1.11,0,0,1-.22-.44h0a7.64,7.64,0,0,0,.33-1.77h0Zm-14.94,21.92Q350,256.45,350.37,261q4.16,11.43,5.91,15.83a34.11,34.11,0,0,1,2.52,12.31,29,29,0,0,1-.33,4.29,1.88,1.88,0,0,0-.11-.44v-.44a34.14,34.14,0,0,1-9.3,22.88,2.65,2.65,0,0,1-1.53,1.64,43.19,43.19,0,0,1-7.11,1.09H335a50.61,50.61,0,0,0-6,.11l-5.45,1-2.78-.66a56.63,56.63,0,0,1,2.78-15.37A72.26,72.26,0,0,0,318.4,289q-.11-5.49-6.11-14.06-12.89-13.07-12.34-26.9a11.16,11.16,0,0,1-2.22-6.48,29.36,29.36,0,0,1,0-3.62v-7.69a6.8,6.8,0,0,1,1-4.06.33.33,0,0,0-.22-.11l-.11-.11q12.11.22,18.11.22a1.33,1.33,0,0,0-.72,1.1c-.11.59-.21,1.13-.28,1.65a49,49,0,0,0-1.22,5.92,8.29,8.29,0,0,1-.11,3,27.89,27.89,0,0,0-.33,3v1.32l.11,1.1q1.86,10.53,3.06,14.6a52.94,52.94,0,0,0,3.94,6.47,53.42,53.42,0,0,1,3.94,6.47,35.93,35.93,0,0,1,8,12.29q2,3,3.83,2.63a5,5,0,0,0,2.84-1.1,4.31,4.31,0,0,0,.11-2.2,49.23,49.23,0,0,1-6.89-25.73,61.4,61.4,0,0,1,9.84-33.09l12-.33a10,10,0,0,0,3.28,1.32,10,10,0,0,0-.55,1.43h0q-3.83,9.89-5.25,15.06h0Zm65.07,83.24q1.43,0,2.42-1.87a73.6,73.6,0,0,0,4-16,8.71,8.71,0,0,0-1.76-6.93q-10.33-1-9.23-1a16.75,16.75,0,0,0-4.28.55,11.31,11.31,0,0,0,.33-2.75l-.66-6.27a33.42,33.42,0,0,0-1-6.05l-.44-2h4.41a19.57,19.57,0,0,1,2.29.41,25.94,25.94,0,0,0,2.94.25q2.62.33,3.05-2.4a2.54,2.54,0,0,0-.22-1.42q-.55-2.62-2.51-8.73a69.76,69.76,0,0,1-2.29-8.84,22.78,22.78,0,0,0-1.74-2.07A12.74,12.74,0,0,0,411,258a2,2,0,0,0-1.69-.38,1,1,0,0,1-.44-.11h-5.53a6.27,6.27,0,0,0-1.76.38c-.26,0-.77.39-.77.39h-.88l-.44-6.33c-.15-2.05-.55-6.72-.55-6.72h1a5.27,5.27,0,0,0,2.43.56,2.51,2.51,0,0,1,.77.21h3q.22.11,1.46-.78a3.2,3.2,0,0,0,1.57,1q1.79.33,3.14-1.67a3.6,3.6,0,0,0,.67-1.46,86.27,86.27,0,0,1,2.91-20.83,4.1,4.1,0,0,0,.65-2.9,4.22,4.22,0,0,0-3.11-1.78q-2.89.26-5.78.78h-3.9s-.62.3-.88,0h-2.74a2.36,2.36,0,0,1-2.09.4,32.94,32.94,0,0,1-4.06-.4h-1a62,62,0,0,0-9-.44,20.52,20.52,0,0,0-8.79,2.2,5.68,5.68,0,0,0-1.1-.11q-2.86,0-5.49,2.86a6.7,6.7,0,0,1,1.21-.88.72.72,0,0,0,0-.55,3.62,3.62,0,0,0-1-.55,6.61,6.61,0,0,0-3.52,2.31,71.79,71.79,0,0,0-2.42,16.61,89.91,89.91,0,0,0,1.65,18.37,125.63,125.63,0,0,0,5.05,16.28q3.73,10.23,4.28,16.5a47.41,47.41,0,0,1,1.32,14.85q-.66,7.26-2,14.74a1.9,1.9,0,0,0-.55,1,1,1,0,0,0,.33,1.1,52.62,52.62,0,0,0,5.82,2.09l37.24-.77a2.11,2.11,0,0,0,1.1.33h0Zm-35.81-7-.77-.16v-.87a43.08,43.08,0,0,0,2.08-14.91A65.5,65.5,0,0,0,380.5,287q-6.24-20.39-8.76-28.18a64.27,64.27,0,0,1-2.85-18.42,46,46,0,0,1,1.31-10.74A35.82,35.82,0,0,1,381,226h26.49q-.65,6.4-1.52,12.79a20.28,20.28,0,0,0-5.33.33,43.83,43.83,0,0,1-5.22.55q-3.92,2.1-3.37,5.07A100.24,100.24,0,0,0,393.22,259a1.93,1.93,0,0,1,.2.77l-.11.77.22,1.1q.77,4,5.15,4.19a13.57,13.57,0,0,0,2.3-1.21l.11-.11.66-.11h1.93a23.8,23.8,0,0,1,4,.62,20.14,20.14,0,0,1,1.26,3.22,8,8,0,0,0,1.65,3.22V272a7.25,7.25,0,0,0,.27,2.55l.5.66v-.1h-.94s-5.72.1-8.56-.23q-3.51.55-3.07,3.74a70.45,70.45,0,0,1,3.07,23.42q.77,4,2.85,3.85a6,6,0,0,0,2.09-.44l.66-.33q5.93,1,8.89,1.32a64,64,0,0,1-2.2,10.12H382.81c-.1.71-.21.75-.33.76l-.22.11a2.87,2.87,0,0,1-.88-.17Zm110.78-24.68q-.44-1.87-.66-2.75a34.06,34.06,0,0,0-4.17-9.45,28.7,28.7,0,0,0-8.45-9.9q-16.58-12.09-25.25-17.81l.88,1h1.65l1.1.77H458a16.75,16.75,0,0,1,5-1.29l.66,0q3.74.42,4.4.42,5.6.22,6.92.32c1.46-.22,2.12-.88,1.5-2v-1.21l.77.11V249s-.44-2.86-1-10.34a16,16,0,0,0-.33-3,11.23,11.23,0,0,0,.22-2.2q0-4.73-3.73-11-3-3.3-10.54-5.61-2.53.22-8.56,1.21a70.79,70.79,0,0,1-8.56,1q-13.17.55-22.84,11.76-4.94,11-4.94,18.58,1.76,10.34,7.36,16.82a110.33,110.33,0,0,0,12.08,8.69Q447.37,281.83,449,283a5.31,5.31,0,0,1,1.21-.55,35.54,35.54,0,0,0-8.45-1.43q-8.13-.44-8.56-.55a6.68,6.68,0,0,0-3.84,3.19,76,76,0,0,1,1.31,14.62q0,4.4,3.07,13.3a32.2,32.2,0,0,1,3.84,5.61,16.69,16.69,0,0,0,4.39,5.28,26.51,26.51,0,0,0,8.67,2.2q6.92.55,9.55.88,11.31-1.21,18.66-5.72l3.51-3.63q6.48-6.71,7.25-13.3a6.3,6.3,0,0,0,.88.77q.66-1.87,1-2.75l.44-.88a2.46,2.46,0,0,0-.05-.88v-.77a1.71,1.71,0,0,0-1.37-1.87.32.32,0,0,0-.22-.11l-.11-.11q2.41,0,2.42-1.76-.33-1.43-.44-2h0Zm-6.92,3.26q0,8.66-6.46,16.67-1.21.44-3.5,1.53t-3.5,1.54a18.78,18.78,0,0,1-6.57,2.85q-3.18-.22-4.82-.22-7.45.55-12.48-2.19a56.35,56.35,0,0,1-9-11.62q-.55-3.18-.88-4.82a14.79,14.79,0,0,0-.27-2.08,7.9,7.9,0,0,1-.16-2.3,6,6,0,0,0-.44-2.41l.11-.22a.84.84,0,0,1,.11-.33v-2.06a2.05,2.05,0,0,1,.77-.22v-2.54h.31c.12.79.33.77.33.77H439q8.72.89,13,1.21,1.1,6.63,1.43,10.06a18,18,0,0,0,2.1,9.61,2.83,2.83,0,0,1,1.54-.22,10.09,10.09,0,0,1,1.54.17,10.06,10.06,0,0,0,1.54.17q6.62-1,8.39-6.85a9.38,9.38,0,0,1-.44-2.76,22.51,22.51,0,0,1,.28-2.93,22.66,22.66,0,0,0,.28-2.82q-1.32-5.86-4.75-8.84a58.59,58.59,0,0,0-10-7.29q-17-9.28-22.4-12.71-4.53-4.2-5.19-6.74a45.33,45.33,0,0,1-2.21-9.28l.22-4a89.89,89.89,0,0,1,2.76-11.05q2.54-2.32,3.53-3.21a41,41,0,0,1,4.19-3.43,72.6,72.6,0,0,1,8.39-1.77q7-1,6.4-1a11.29,11.29,0,0,1,2.21.22,4.69,4.69,0,0,1,1.1-.22,16.65,16.65,0,0,0,2.54-.28,16.62,16.62,0,0,1,2.43-.28q7.06-.22,9.71,5.75a82.93,82.93,0,0,1,2.65,12q-.44-2-.55-3a26.89,26.89,0,0,0,1.88,7.63c.37.22.62.37.77.44q-5-.55-7.39-.89l-5.19.66.22-.11a15.42,15.42,0,0,0-2.54.22H456a5.14,5.14,0,0,0-1,.11l-.44-3.51q-1-8-6.9-8-3.07,0-5.26,3.73a7.81,7.81,0,0,0-2,6.36,14.86,14.86,0,0,0,3.72,10.09,31.22,31.22,0,0,1,4.27,2.63q2.3,1.64,6.9,4.33a49,49,0,0,1,6.9,4.66c-.22-.29-.37-.47-.44-.55l3.94,2.3q7.44,4.28,10.51,8.55h1a34.44,34.44,0,0,1,8.1,14.14l-.77-.77a20,20,0,0,1,.66,5h0Zm-24.05.92a5,5,0,0,1,.44,2.53,14.21,14.21,0,0,1-.44,2.64,50.61,50.61,0,0,1-2.64-9.45c.22-.51.37-.88.44-1.1a44.82,44.82,0,0,0-1.32-4.4l.44.55q3.62,4.51,3.07,9.24h0Zm-13.82-53.11a5.94,5.94,0,0,1,.1-1.1,54,54,0,0,1,1.43,6.16,7.27,7.27,0,0,1-1.53-4.07v-1Z"/></svg>